%TF.GenerationSoftware,KiCad,Pcbnew,5.1.10*%
%TF.CreationDate,2021-06-15T07:02:33+02:00*%
%TF.ProjectId,nsumo,6e73756d-6f2e-46b6-9963-61645f706362,rev?*%
%TF.SameCoordinates,Original*%
%TF.FileFunction,Paste,Top*%
%TF.FilePolarity,Positive*%
%FSLAX46Y46*%
G04 Gerber Fmt 4.6, Leading zero omitted, Abs format (unit mm)*
G04 Created by KiCad (PCBNEW 5.1.10) date 2021-06-15 07:02:33*
%MOMM*%
%LPD*%
G01*
G04 APERTURE LIST*
%ADD10R,1.500000X2.000000*%
%ADD11R,3.800000X2.000000*%
%ADD12R,1.550000X1.300000*%
%ADD13R,1.220000X0.650000*%
%ADD14R,1.900000X2.500000*%
%ADD15R,0.900000X1.200000*%
%ADD16R,1.750000X0.450000*%
G04 APERTURE END LIST*
%TO.C,F2*%
G36*
G01*
X60225000Y-106875000D02*
X58975000Y-106875000D01*
G75*
G02*
X58725000Y-106625000I0J250000D01*
G01*
X58725000Y-105875000D01*
G75*
G02*
X58975000Y-105625000I250000J0D01*
G01*
X60225000Y-105625000D01*
G75*
G02*
X60475000Y-105875000I0J-250000D01*
G01*
X60475000Y-106625000D01*
G75*
G02*
X60225000Y-106875000I-250000J0D01*
G01*
G37*
G36*
G01*
X60225000Y-109675000D02*
X58975000Y-109675000D01*
G75*
G02*
X58725000Y-109425000I0J250000D01*
G01*
X58725000Y-108675000D01*
G75*
G02*
X58975000Y-108425000I250000J0D01*
G01*
X60225000Y-108425000D01*
G75*
G02*
X60475000Y-108675000I0J-250000D01*
G01*
X60475000Y-109425000D01*
G75*
G02*
X60225000Y-109675000I-250000J0D01*
G01*
G37*
%TD*%
%TO.C,F1*%
G36*
G01*
X68525000Y-115825000D02*
X67275000Y-115825000D01*
G75*
G02*
X67025000Y-115575000I0J250000D01*
G01*
X67025000Y-114825000D01*
G75*
G02*
X67275000Y-114575000I250000J0D01*
G01*
X68525000Y-114575000D01*
G75*
G02*
X68775000Y-114825000I0J-250000D01*
G01*
X68775000Y-115575000D01*
G75*
G02*
X68525000Y-115825000I-250000J0D01*
G01*
G37*
G36*
G01*
X68525000Y-118625000D02*
X67275000Y-118625000D01*
G75*
G02*
X67025000Y-118375000I0J250000D01*
G01*
X67025000Y-117625000D01*
G75*
G02*
X67275000Y-117375000I250000J0D01*
G01*
X68525000Y-117375000D01*
G75*
G02*
X68775000Y-117625000I0J-250000D01*
G01*
X68775000Y-118375000D01*
G75*
G02*
X68525000Y-118625000I-250000J0D01*
G01*
G37*
%TD*%
%TO.C,U7*%
G36*
G01*
X71300000Y-119845000D02*
X71300000Y-119545000D01*
G75*
G02*
X71450000Y-119395000I150000J0D01*
G01*
X73100000Y-119395000D01*
G75*
G02*
X73250000Y-119545000I0J-150000D01*
G01*
X73250000Y-119845000D01*
G75*
G02*
X73100000Y-119995000I-150000J0D01*
G01*
X71450000Y-119995000D01*
G75*
G02*
X71300000Y-119845000I0J150000D01*
G01*
G37*
G36*
G01*
X71300000Y-121115000D02*
X71300000Y-120815000D01*
G75*
G02*
X71450000Y-120665000I150000J0D01*
G01*
X73100000Y-120665000D01*
G75*
G02*
X73250000Y-120815000I0J-150000D01*
G01*
X73250000Y-121115000D01*
G75*
G02*
X73100000Y-121265000I-150000J0D01*
G01*
X71450000Y-121265000D01*
G75*
G02*
X71300000Y-121115000I0J150000D01*
G01*
G37*
G36*
G01*
X71300000Y-122385000D02*
X71300000Y-122085000D01*
G75*
G02*
X71450000Y-121935000I150000J0D01*
G01*
X73100000Y-121935000D01*
G75*
G02*
X73250000Y-122085000I0J-150000D01*
G01*
X73250000Y-122385000D01*
G75*
G02*
X73100000Y-122535000I-150000J0D01*
G01*
X71450000Y-122535000D01*
G75*
G02*
X71300000Y-122385000I0J150000D01*
G01*
G37*
G36*
G01*
X71300000Y-123655000D02*
X71300000Y-123355000D01*
G75*
G02*
X71450000Y-123205000I150000J0D01*
G01*
X73100000Y-123205000D01*
G75*
G02*
X73250000Y-123355000I0J-150000D01*
G01*
X73250000Y-123655000D01*
G75*
G02*
X73100000Y-123805000I-150000J0D01*
G01*
X71450000Y-123805000D01*
G75*
G02*
X71300000Y-123655000I0J150000D01*
G01*
G37*
G36*
G01*
X66350000Y-123655000D02*
X66350000Y-123355000D01*
G75*
G02*
X66500000Y-123205000I150000J0D01*
G01*
X68150000Y-123205000D01*
G75*
G02*
X68300000Y-123355000I0J-150000D01*
G01*
X68300000Y-123655000D01*
G75*
G02*
X68150000Y-123805000I-150000J0D01*
G01*
X66500000Y-123805000D01*
G75*
G02*
X66350000Y-123655000I0J150000D01*
G01*
G37*
G36*
G01*
X66350000Y-122385000D02*
X66350000Y-122085000D01*
G75*
G02*
X66500000Y-121935000I150000J0D01*
G01*
X68150000Y-121935000D01*
G75*
G02*
X68300000Y-122085000I0J-150000D01*
G01*
X68300000Y-122385000D01*
G75*
G02*
X68150000Y-122535000I-150000J0D01*
G01*
X66500000Y-122535000D01*
G75*
G02*
X66350000Y-122385000I0J150000D01*
G01*
G37*
G36*
G01*
X66350000Y-121115000D02*
X66350000Y-120815000D01*
G75*
G02*
X66500000Y-120665000I150000J0D01*
G01*
X68150000Y-120665000D01*
G75*
G02*
X68300000Y-120815000I0J-150000D01*
G01*
X68300000Y-121115000D01*
G75*
G02*
X68150000Y-121265000I-150000J0D01*
G01*
X66500000Y-121265000D01*
G75*
G02*
X66350000Y-121115000I0J150000D01*
G01*
G37*
G36*
G01*
X66350000Y-119845000D02*
X66350000Y-119545000D01*
G75*
G02*
X66500000Y-119395000I150000J0D01*
G01*
X68150000Y-119395000D01*
G75*
G02*
X68300000Y-119545000I0J-150000D01*
G01*
X68300000Y-119845000D01*
G75*
G02*
X68150000Y-119995000I-150000J0D01*
G01*
X66500000Y-119995000D01*
G75*
G02*
X66350000Y-119845000I0J150000D01*
G01*
G37*
%TD*%
%TO.C,C3*%
G36*
G01*
X50550001Y-107575000D02*
X49249999Y-107575000D01*
G75*
G02*
X49000000Y-107325001I0J249999D01*
G01*
X49000000Y-106674999D01*
G75*
G02*
X49249999Y-106425000I249999J0D01*
G01*
X50550001Y-106425000D01*
G75*
G02*
X50800000Y-106674999I0J-249999D01*
G01*
X50800000Y-107325001D01*
G75*
G02*
X50550001Y-107575000I-249999J0D01*
G01*
G37*
G36*
G01*
X50550001Y-110525000D02*
X49249999Y-110525000D01*
G75*
G02*
X49000000Y-110275001I0J249999D01*
G01*
X49000000Y-109624999D01*
G75*
G02*
X49249999Y-109375000I249999J0D01*
G01*
X50550001Y-109375000D01*
G75*
G02*
X50800000Y-109624999I0J-249999D01*
G01*
X50800000Y-110275001D01*
G75*
G02*
X50550001Y-110525000I-249999J0D01*
G01*
G37*
%TD*%
%TO.C,C14*%
G36*
G01*
X62300000Y-125975000D02*
X62300000Y-125025000D01*
G75*
G02*
X62550000Y-124775000I250000J0D01*
G01*
X63050000Y-124775000D01*
G75*
G02*
X63300000Y-125025000I0J-250000D01*
G01*
X63300000Y-125975000D01*
G75*
G02*
X63050000Y-126225000I-250000J0D01*
G01*
X62550000Y-126225000D01*
G75*
G02*
X62300000Y-125975000I0J250000D01*
G01*
G37*
G36*
G01*
X60400000Y-125975000D02*
X60400000Y-125025000D01*
G75*
G02*
X60650000Y-124775000I250000J0D01*
G01*
X61150000Y-124775000D01*
G75*
G02*
X61400000Y-125025000I0J-250000D01*
G01*
X61400000Y-125975000D01*
G75*
G02*
X61150000Y-126225000I-250000J0D01*
G01*
X60650000Y-126225000D01*
G75*
G02*
X60400000Y-125975000I0J250000D01*
G01*
G37*
%TD*%
%TO.C,C13*%
G36*
G01*
X47075000Y-135150000D02*
X46125000Y-135150000D01*
G75*
G02*
X45875000Y-134900000I0J250000D01*
G01*
X45875000Y-134400000D01*
G75*
G02*
X46125000Y-134150000I250000J0D01*
G01*
X47075000Y-134150000D01*
G75*
G02*
X47325000Y-134400000I0J-250000D01*
G01*
X47325000Y-134900000D01*
G75*
G02*
X47075000Y-135150000I-250000J0D01*
G01*
G37*
G36*
G01*
X47075000Y-137050000D02*
X46125000Y-137050000D01*
G75*
G02*
X45875000Y-136800000I0J250000D01*
G01*
X45875000Y-136300000D01*
G75*
G02*
X46125000Y-136050000I250000J0D01*
G01*
X47075000Y-136050000D01*
G75*
G02*
X47325000Y-136300000I0J-250000D01*
G01*
X47325000Y-136800000D01*
G75*
G02*
X47075000Y-137050000I-250000J0D01*
G01*
G37*
%TD*%
%TO.C,C12*%
G36*
G01*
X58625000Y-127100000D02*
X59575000Y-127100000D01*
G75*
G02*
X59825000Y-127350000I0J-250000D01*
G01*
X59825000Y-127850000D01*
G75*
G02*
X59575000Y-128100000I-250000J0D01*
G01*
X58625000Y-128100000D01*
G75*
G02*
X58375000Y-127850000I0J250000D01*
G01*
X58375000Y-127350000D01*
G75*
G02*
X58625000Y-127100000I250000J0D01*
G01*
G37*
G36*
G01*
X58625000Y-125200000D02*
X59575000Y-125200000D01*
G75*
G02*
X59825000Y-125450000I0J-250000D01*
G01*
X59825000Y-125950000D01*
G75*
G02*
X59575000Y-126200000I-250000J0D01*
G01*
X58625000Y-126200000D01*
G75*
G02*
X58375000Y-125950000I0J250000D01*
G01*
X58375000Y-125450000D01*
G75*
G02*
X58625000Y-125200000I250000J0D01*
G01*
G37*
%TD*%
%TO.C,C11*%
G36*
G01*
X43350000Y-136075000D02*
X43350000Y-137025000D01*
G75*
G02*
X43100000Y-137275000I-250000J0D01*
G01*
X42600000Y-137275000D01*
G75*
G02*
X42350000Y-137025000I0J250000D01*
G01*
X42350000Y-136075000D01*
G75*
G02*
X42600000Y-135825000I250000J0D01*
G01*
X43100000Y-135825000D01*
G75*
G02*
X43350000Y-136075000I0J-250000D01*
G01*
G37*
G36*
G01*
X45250000Y-136075000D02*
X45250000Y-137025000D01*
G75*
G02*
X45000000Y-137275000I-250000J0D01*
G01*
X44500000Y-137275000D01*
G75*
G02*
X44250000Y-137025000I0J250000D01*
G01*
X44250000Y-136075000D01*
G75*
G02*
X44500000Y-135825000I250000J0D01*
G01*
X45000000Y-135825000D01*
G75*
G02*
X45250000Y-136075000I0J-250000D01*
G01*
G37*
%TD*%
%TO.C,C10*%
G36*
G01*
X59775000Y-130650000D02*
X58825000Y-130650000D01*
G75*
G02*
X58575000Y-130400000I0J250000D01*
G01*
X58575000Y-129900000D01*
G75*
G02*
X58825000Y-129650000I250000J0D01*
G01*
X59775000Y-129650000D01*
G75*
G02*
X60025000Y-129900000I0J-250000D01*
G01*
X60025000Y-130400000D01*
G75*
G02*
X59775000Y-130650000I-250000J0D01*
G01*
G37*
G36*
G01*
X59775000Y-132550000D02*
X58825000Y-132550000D01*
G75*
G02*
X58575000Y-132300000I0J250000D01*
G01*
X58575000Y-131800000D01*
G75*
G02*
X58825000Y-131550000I250000J0D01*
G01*
X59775000Y-131550000D01*
G75*
G02*
X60025000Y-131800000I0J-250000D01*
G01*
X60025000Y-132300000D01*
G75*
G02*
X59775000Y-132550000I-250000J0D01*
G01*
G37*
%TD*%
%TO.C,C9*%
G36*
G01*
X46125000Y-131200000D02*
X47075000Y-131200000D01*
G75*
G02*
X47325000Y-131450000I0J-250000D01*
G01*
X47325000Y-131950000D01*
G75*
G02*
X47075000Y-132200000I-250000J0D01*
G01*
X46125000Y-132200000D01*
G75*
G02*
X45875000Y-131950000I0J250000D01*
G01*
X45875000Y-131450000D01*
G75*
G02*
X46125000Y-131200000I250000J0D01*
G01*
G37*
G36*
G01*
X46125000Y-129300000D02*
X47075000Y-129300000D01*
G75*
G02*
X47325000Y-129550000I0J-250000D01*
G01*
X47325000Y-130050000D01*
G75*
G02*
X47075000Y-130300000I-250000J0D01*
G01*
X46125000Y-130300000D01*
G75*
G02*
X45875000Y-130050000I0J250000D01*
G01*
X45875000Y-129550000D01*
G75*
G02*
X46125000Y-129300000I250000J0D01*
G01*
G37*
%TD*%
D10*
%TO.C,U5*%
X52500000Y-107495000D03*
X57100000Y-107495000D03*
X54800000Y-107495000D03*
D11*
X54800000Y-101195000D03*
%TD*%
%TO.C,R9*%
G36*
G01*
X30625003Y-107000000D02*
X29374997Y-107000000D01*
G75*
G02*
X29125000Y-106750003I0J249997D01*
G01*
X29125000Y-106124997D01*
G75*
G02*
X29374997Y-105875000I249997J0D01*
G01*
X30625003Y-105875000D01*
G75*
G02*
X30875000Y-106124997I0J-249997D01*
G01*
X30875000Y-106750003D01*
G75*
G02*
X30625003Y-107000000I-249997J0D01*
G01*
G37*
G36*
G01*
X30625003Y-109925000D02*
X29374997Y-109925000D01*
G75*
G02*
X29125000Y-109675003I0J249997D01*
G01*
X29125000Y-109049997D01*
G75*
G02*
X29374997Y-108800000I249997J0D01*
G01*
X30625003Y-108800000D01*
G75*
G02*
X30875000Y-109049997I0J-249997D01*
G01*
X30875000Y-109675003D01*
G75*
G02*
X30625003Y-109925000I-249997J0D01*
G01*
G37*
%TD*%
%TO.C,R8*%
G36*
G01*
X33025003Y-107000000D02*
X31774997Y-107000000D01*
G75*
G02*
X31525000Y-106750003I0J249997D01*
G01*
X31525000Y-106124997D01*
G75*
G02*
X31774997Y-105875000I249997J0D01*
G01*
X33025003Y-105875000D01*
G75*
G02*
X33275000Y-106124997I0J-249997D01*
G01*
X33275000Y-106750003D01*
G75*
G02*
X33025003Y-107000000I-249997J0D01*
G01*
G37*
G36*
G01*
X33025003Y-109925000D02*
X31774997Y-109925000D01*
G75*
G02*
X31525000Y-109675003I0J249997D01*
G01*
X31525000Y-109049997D01*
G75*
G02*
X31774997Y-108800000I249997J0D01*
G01*
X33025003Y-108800000D01*
G75*
G02*
X33275000Y-109049997I0J-249997D01*
G01*
X33275000Y-109675003D01*
G75*
G02*
X33025003Y-109925000I-249997J0D01*
G01*
G37*
%TD*%
%TO.C,R5*%
G36*
G01*
X54600000Y-125650002D02*
X54600000Y-124749998D01*
G75*
G02*
X54849998Y-124500000I249998J0D01*
G01*
X55375002Y-124500000D01*
G75*
G02*
X55625000Y-124749998I0J-249998D01*
G01*
X55625000Y-125650002D01*
G75*
G02*
X55375002Y-125900000I-249998J0D01*
G01*
X54849998Y-125900000D01*
G75*
G02*
X54600000Y-125650002I0J249998D01*
G01*
G37*
G36*
G01*
X52775000Y-125650002D02*
X52775000Y-124749998D01*
G75*
G02*
X53024998Y-124500000I249998J0D01*
G01*
X53550002Y-124500000D01*
G75*
G02*
X53800000Y-124749998I0J-249998D01*
G01*
X53800000Y-125650002D01*
G75*
G02*
X53550002Y-125900000I-249998J0D01*
G01*
X53024998Y-125900000D01*
G75*
G02*
X52775000Y-125650002I0J249998D01*
G01*
G37*
%TD*%
%TO.C,D5*%
G36*
G01*
X49762500Y-105456250D02*
X49762500Y-104943750D01*
G75*
G02*
X49981250Y-104725000I218750J0D01*
G01*
X50418750Y-104725000D01*
G75*
G02*
X50637500Y-104943750I0J-218750D01*
G01*
X50637500Y-105456250D01*
G75*
G02*
X50418750Y-105675000I-218750J0D01*
G01*
X49981250Y-105675000D01*
G75*
G02*
X49762500Y-105456250I0J218750D01*
G01*
G37*
G36*
G01*
X48187500Y-105456250D02*
X48187500Y-104943750D01*
G75*
G02*
X48406250Y-104725000I218750J0D01*
G01*
X48843750Y-104725000D01*
G75*
G02*
X49062500Y-104943750I0J-218750D01*
G01*
X49062500Y-105456250D01*
G75*
G02*
X48843750Y-105675000I-218750J0D01*
G01*
X48406250Y-105675000D01*
G75*
G02*
X48187500Y-105456250I0J218750D01*
G01*
G37*
%TD*%
D12*
%TO.C,SW1*%
X49650000Y-114950000D03*
X49650000Y-119450000D03*
X57600000Y-119450000D03*
X57600000Y-114950000D03*
%TD*%
D13*
%TO.C,U2*%
X64051000Y-113046000D03*
X64051000Y-113996000D03*
X64051000Y-114946000D03*
X61431000Y-114946000D03*
X61431000Y-113996000D03*
X61431000Y-113046000D03*
%TD*%
%TO.C,R15*%
G36*
G01*
X62650002Y-117200000D02*
X61749998Y-117200000D01*
G75*
G02*
X61500000Y-116950002I0J249998D01*
G01*
X61500000Y-116424998D01*
G75*
G02*
X61749998Y-116175000I249998J0D01*
G01*
X62650002Y-116175000D01*
G75*
G02*
X62900000Y-116424998I0J-249998D01*
G01*
X62900000Y-116950002D01*
G75*
G02*
X62650002Y-117200000I-249998J0D01*
G01*
G37*
G36*
G01*
X62650002Y-119025000D02*
X61749998Y-119025000D01*
G75*
G02*
X61500000Y-118775002I0J249998D01*
G01*
X61500000Y-118249998D01*
G75*
G02*
X61749998Y-118000000I249998J0D01*
G01*
X62650002Y-118000000D01*
G75*
G02*
X62900000Y-118249998I0J-249998D01*
G01*
X62900000Y-118775002D01*
G75*
G02*
X62650002Y-119025000I-249998J0D01*
G01*
G37*
%TD*%
%TO.C,R14*%
G36*
G01*
X61087500Y-120850002D02*
X61087500Y-119949998D01*
G75*
G02*
X61337498Y-119700000I249998J0D01*
G01*
X61862502Y-119700000D01*
G75*
G02*
X62112500Y-119949998I0J-249998D01*
G01*
X62112500Y-120850002D01*
G75*
G02*
X61862502Y-121100000I-249998J0D01*
G01*
X61337498Y-121100000D01*
G75*
G02*
X61087500Y-120850002I0J249998D01*
G01*
G37*
G36*
G01*
X59262500Y-120850002D02*
X59262500Y-119949998D01*
G75*
G02*
X59512498Y-119700000I249998J0D01*
G01*
X60037502Y-119700000D01*
G75*
G02*
X60287500Y-119949998I0J-249998D01*
G01*
X60287500Y-120850002D01*
G75*
G02*
X60037502Y-121100000I-249998J0D01*
G01*
X59512498Y-121100000D01*
G75*
G02*
X59262500Y-120850002I0J249998D01*
G01*
G37*
%TD*%
%TO.C,R13*%
G36*
G01*
X59549998Y-118000000D02*
X60450002Y-118000000D01*
G75*
G02*
X60700000Y-118249998I0J-249998D01*
G01*
X60700000Y-118775002D01*
G75*
G02*
X60450002Y-119025000I-249998J0D01*
G01*
X59549998Y-119025000D01*
G75*
G02*
X59300000Y-118775002I0J249998D01*
G01*
X59300000Y-118249998D01*
G75*
G02*
X59549998Y-118000000I249998J0D01*
G01*
G37*
G36*
G01*
X59549998Y-116175000D02*
X60450002Y-116175000D01*
G75*
G02*
X60700000Y-116424998I0J-249998D01*
G01*
X60700000Y-116950002D01*
G75*
G02*
X60450002Y-117200000I-249998J0D01*
G01*
X59549998Y-117200000D01*
G75*
G02*
X59300000Y-116950002I0J249998D01*
G01*
X59300000Y-116424998D01*
G75*
G02*
X59549998Y-116175000I249998J0D01*
G01*
G37*
%TD*%
%TO.C,R12*%
G36*
G01*
X58949998Y-112200000D02*
X59850002Y-112200000D01*
G75*
G02*
X60100000Y-112449998I0J-249998D01*
G01*
X60100000Y-112975002D01*
G75*
G02*
X59850002Y-113225000I-249998J0D01*
G01*
X58949998Y-113225000D01*
G75*
G02*
X58700000Y-112975002I0J249998D01*
G01*
X58700000Y-112449998D01*
G75*
G02*
X58949998Y-112200000I249998J0D01*
G01*
G37*
G36*
G01*
X58949998Y-110375000D02*
X59850002Y-110375000D01*
G75*
G02*
X60100000Y-110624998I0J-249998D01*
G01*
X60100000Y-111150002D01*
G75*
G02*
X59850002Y-111400000I-249998J0D01*
G01*
X58949998Y-111400000D01*
G75*
G02*
X58700000Y-111150002I0J249998D01*
G01*
X58700000Y-110624998D01*
G75*
G02*
X58949998Y-110375000I249998J0D01*
G01*
G37*
%TD*%
%TO.C,R3*%
G36*
G01*
X64600000Y-116349998D02*
X64600000Y-117250002D01*
G75*
G02*
X64350002Y-117500000I-249998J0D01*
G01*
X63824998Y-117500000D01*
G75*
G02*
X63575000Y-117250002I0J249998D01*
G01*
X63575000Y-116349998D01*
G75*
G02*
X63824998Y-116100000I249998J0D01*
G01*
X64350002Y-116100000D01*
G75*
G02*
X64600000Y-116349998I0J-249998D01*
G01*
G37*
G36*
G01*
X66425000Y-116349998D02*
X66425000Y-117250002D01*
G75*
G02*
X66175002Y-117500000I-249998J0D01*
G01*
X65649998Y-117500000D01*
G75*
G02*
X65400000Y-117250002I0J249998D01*
G01*
X65400000Y-116349998D01*
G75*
G02*
X65649998Y-116100000I249998J0D01*
G01*
X66175002Y-116100000D01*
G75*
G02*
X66425000Y-116349998I0J-249998D01*
G01*
G37*
%TD*%
D14*
%TO.C,L1*%
X66100000Y-107000000D03*
X62000000Y-107000000D03*
%TD*%
D15*
%TO.C,D4*%
X68000000Y-111000000D03*
X64700000Y-111000000D03*
%TD*%
%TO.C,C4*%
G36*
G01*
X62577000Y-111616000D02*
X62577000Y-110666000D01*
G75*
G02*
X62827000Y-110416000I250000J0D01*
G01*
X63327000Y-110416000D01*
G75*
G02*
X63577000Y-110666000I0J-250000D01*
G01*
X63577000Y-111616000D01*
G75*
G02*
X63327000Y-111866000I-250000J0D01*
G01*
X62827000Y-111866000D01*
G75*
G02*
X62577000Y-111616000I0J250000D01*
G01*
G37*
G36*
G01*
X60677000Y-111616000D02*
X60677000Y-110666000D01*
G75*
G02*
X60927000Y-110416000I250000J0D01*
G01*
X61427000Y-110416000D01*
G75*
G02*
X61677000Y-110666000I0J-250000D01*
G01*
X61677000Y-111616000D01*
G75*
G02*
X61427000Y-111866000I-250000J0D01*
G01*
X60927000Y-111866000D01*
G75*
G02*
X60677000Y-111616000I0J250000D01*
G01*
G37*
%TD*%
%TO.C,C1*%
G36*
G01*
X67281000Y-113775000D02*
X67281000Y-112825000D01*
G75*
G02*
X67531000Y-112575000I250000J0D01*
G01*
X68031000Y-112575000D01*
G75*
G02*
X68281000Y-112825000I0J-250000D01*
G01*
X68281000Y-113775000D01*
G75*
G02*
X68031000Y-114025000I-250000J0D01*
G01*
X67531000Y-114025000D01*
G75*
G02*
X67281000Y-113775000I0J250000D01*
G01*
G37*
G36*
G01*
X65381000Y-113775000D02*
X65381000Y-112825000D01*
G75*
G02*
X65631000Y-112575000I250000J0D01*
G01*
X66131000Y-112575000D01*
G75*
G02*
X66381000Y-112825000I0J-250000D01*
G01*
X66381000Y-113775000D01*
G75*
G02*
X66131000Y-114025000I-250000J0D01*
G01*
X65631000Y-114025000D01*
G75*
G02*
X65381000Y-113775000I0J250000D01*
G01*
G37*
%TD*%
%TO.C,R10*%
G36*
G01*
X45112500Y-106549998D02*
X45112500Y-107450002D01*
G75*
G02*
X44862502Y-107700000I-249998J0D01*
G01*
X44337498Y-107700000D01*
G75*
G02*
X44087500Y-107450002I0J249998D01*
G01*
X44087500Y-106549998D01*
G75*
G02*
X44337498Y-106300000I249998J0D01*
G01*
X44862502Y-106300000D01*
G75*
G02*
X45112500Y-106549998I0J-249998D01*
G01*
G37*
G36*
G01*
X46937500Y-106549998D02*
X46937500Y-107450002D01*
G75*
G02*
X46687502Y-107700000I-249998J0D01*
G01*
X46162498Y-107700000D01*
G75*
G02*
X45912500Y-107450002I0J249998D01*
G01*
X45912500Y-106549998D01*
G75*
G02*
X46162498Y-106300000I249998J0D01*
G01*
X46687502Y-106300000D01*
G75*
G02*
X46937500Y-106549998I0J-249998D01*
G01*
G37*
%TD*%
%TO.C,R7*%
G36*
G01*
X64450002Y-102000000D02*
X63549998Y-102000000D01*
G75*
G02*
X63300000Y-101750002I0J249998D01*
G01*
X63300000Y-101224998D01*
G75*
G02*
X63549998Y-100975000I249998J0D01*
G01*
X64450002Y-100975000D01*
G75*
G02*
X64700000Y-101224998I0J-249998D01*
G01*
X64700000Y-101750002D01*
G75*
G02*
X64450002Y-102000000I-249998J0D01*
G01*
G37*
G36*
G01*
X64450002Y-103825000D02*
X63549998Y-103825000D01*
G75*
G02*
X63300000Y-103575002I0J249998D01*
G01*
X63300000Y-103049998D01*
G75*
G02*
X63549998Y-102800000I249998J0D01*
G01*
X64450002Y-102800000D01*
G75*
G02*
X64700000Y-103049998I0J-249998D01*
G01*
X64700000Y-103575002D01*
G75*
G02*
X64450002Y-103825000I-249998J0D01*
G01*
G37*
%TD*%
%TO.C,R6*%
G36*
G01*
X60050002Y-102887500D02*
X59149998Y-102887500D01*
G75*
G02*
X58900000Y-102637502I0J249998D01*
G01*
X58900000Y-102112498D01*
G75*
G02*
X59149998Y-101862500I249998J0D01*
G01*
X60050002Y-101862500D01*
G75*
G02*
X60300000Y-102112498I0J-249998D01*
G01*
X60300000Y-102637502D01*
G75*
G02*
X60050002Y-102887500I-249998J0D01*
G01*
G37*
G36*
G01*
X60050002Y-104712500D02*
X59149998Y-104712500D01*
G75*
G02*
X58900000Y-104462502I0J249998D01*
G01*
X58900000Y-103937498D01*
G75*
G02*
X59149998Y-103687500I249998J0D01*
G01*
X60050002Y-103687500D01*
G75*
G02*
X60300000Y-103937498I0J-249998D01*
G01*
X60300000Y-104462502D01*
G75*
G02*
X60050002Y-104712500I-249998J0D01*
G01*
G37*
%TD*%
%TO.C,R4*%
G36*
G01*
X43275000Y-101375000D02*
X42725000Y-101375000D01*
G75*
G02*
X42525000Y-101175000I0J200000D01*
G01*
X42525000Y-100775000D01*
G75*
G02*
X42725000Y-100575000I200000J0D01*
G01*
X43275000Y-100575000D01*
G75*
G02*
X43475000Y-100775000I0J-200000D01*
G01*
X43475000Y-101175000D01*
G75*
G02*
X43275000Y-101375000I-200000J0D01*
G01*
G37*
G36*
G01*
X43275000Y-103025000D02*
X42725000Y-103025000D01*
G75*
G02*
X42525000Y-102825000I0J200000D01*
G01*
X42525000Y-102425000D01*
G75*
G02*
X42725000Y-102225000I200000J0D01*
G01*
X43275000Y-102225000D01*
G75*
G02*
X43475000Y-102425000I0J-200000D01*
G01*
X43475000Y-102825000D01*
G75*
G02*
X43275000Y-103025000I-200000J0D01*
G01*
G37*
%TD*%
%TO.C,R2*%
G36*
G01*
X52687500Y-109349998D02*
X52687500Y-110250002D01*
G75*
G02*
X52437502Y-110500000I-249998J0D01*
G01*
X51912498Y-110500000D01*
G75*
G02*
X51662500Y-110250002I0J249998D01*
G01*
X51662500Y-109349998D01*
G75*
G02*
X51912498Y-109100000I249998J0D01*
G01*
X52437502Y-109100000D01*
G75*
G02*
X52687500Y-109349998I0J-249998D01*
G01*
G37*
G36*
G01*
X54512500Y-109349998D02*
X54512500Y-110250002D01*
G75*
G02*
X54262502Y-110500000I-249998J0D01*
G01*
X53737498Y-110500000D01*
G75*
G02*
X53487500Y-110250002I0J249998D01*
G01*
X53487500Y-109349998D01*
G75*
G02*
X53737498Y-109100000I249998J0D01*
G01*
X54262502Y-109100000D01*
G75*
G02*
X54512500Y-109349998I0J-249998D01*
G01*
G37*
%TD*%
%TO.C,R1*%
G36*
G01*
X49550000Y-112725000D02*
X49550000Y-113275000D01*
G75*
G02*
X49350000Y-113475000I-200000J0D01*
G01*
X48950000Y-113475000D01*
G75*
G02*
X48750000Y-113275000I0J200000D01*
G01*
X48750000Y-112725000D01*
G75*
G02*
X48950000Y-112525000I200000J0D01*
G01*
X49350000Y-112525000D01*
G75*
G02*
X49550000Y-112725000I0J-200000D01*
G01*
G37*
G36*
G01*
X51200000Y-112725000D02*
X51200000Y-113275000D01*
G75*
G02*
X51000000Y-113475000I-200000J0D01*
G01*
X50600000Y-113475000D01*
G75*
G02*
X50400000Y-113275000I0J200000D01*
G01*
X50400000Y-112725000D01*
G75*
G02*
X50600000Y-112525000I200000J0D01*
G01*
X51000000Y-112525000D01*
G75*
G02*
X51200000Y-112725000I0J-200000D01*
G01*
G37*
%TD*%
%TO.C,D2*%
G36*
G01*
X59837500Y-100543750D02*
X59837500Y-101056250D01*
G75*
G02*
X59618750Y-101275000I-218750J0D01*
G01*
X59181250Y-101275000D01*
G75*
G02*
X58962500Y-101056250I0J218750D01*
G01*
X58962500Y-100543750D01*
G75*
G02*
X59181250Y-100325000I218750J0D01*
G01*
X59618750Y-100325000D01*
G75*
G02*
X59837500Y-100543750I0J-218750D01*
G01*
G37*
G36*
G01*
X61412500Y-100543750D02*
X61412500Y-101056250D01*
G75*
G02*
X61193750Y-101275000I-218750J0D01*
G01*
X60756250Y-101275000D01*
G75*
G02*
X60537500Y-101056250I0J218750D01*
G01*
X60537500Y-100543750D01*
G75*
G02*
X60756250Y-100325000I218750J0D01*
G01*
X61193750Y-100325000D01*
G75*
G02*
X61412500Y-100543750I0J-218750D01*
G01*
G37*
%TD*%
%TO.C,C8*%
G36*
G01*
X44450000Y-110975000D02*
X43950000Y-110975000D01*
G75*
G02*
X43725000Y-110750000I0J225000D01*
G01*
X43725000Y-110300000D01*
G75*
G02*
X43950000Y-110075000I225000J0D01*
G01*
X44450000Y-110075000D01*
G75*
G02*
X44675000Y-110300000I0J-225000D01*
G01*
X44675000Y-110750000D01*
G75*
G02*
X44450000Y-110975000I-225000J0D01*
G01*
G37*
G36*
G01*
X44450000Y-112525000D02*
X43950000Y-112525000D01*
G75*
G02*
X43725000Y-112300000I0J225000D01*
G01*
X43725000Y-111850000D01*
G75*
G02*
X43950000Y-111625000I225000J0D01*
G01*
X44450000Y-111625000D01*
G75*
G02*
X44675000Y-111850000I0J-225000D01*
G01*
X44675000Y-112300000D01*
G75*
G02*
X44450000Y-112525000I-225000J0D01*
G01*
G37*
%TD*%
%TO.C,C7*%
G36*
G01*
X46150000Y-105450000D02*
X46150000Y-104950000D01*
G75*
G02*
X46375000Y-104725000I225000J0D01*
G01*
X46825000Y-104725000D01*
G75*
G02*
X47050000Y-104950000I0J-225000D01*
G01*
X47050000Y-105450000D01*
G75*
G02*
X46825000Y-105675000I-225000J0D01*
G01*
X46375000Y-105675000D01*
G75*
G02*
X46150000Y-105450000I0J225000D01*
G01*
G37*
G36*
G01*
X44600000Y-105450000D02*
X44600000Y-104950000D01*
G75*
G02*
X44825000Y-104725000I225000J0D01*
G01*
X45275000Y-104725000D01*
G75*
G02*
X45500000Y-104950000I0J-225000D01*
G01*
X45500000Y-105450000D01*
G75*
G02*
X45275000Y-105675000I-225000J0D01*
G01*
X44825000Y-105675000D01*
G75*
G02*
X44600000Y-105450000I0J225000D01*
G01*
G37*
%TD*%
%TO.C,C6*%
G36*
G01*
X45950000Y-110975000D02*
X45450000Y-110975000D01*
G75*
G02*
X45225000Y-110750000I0J225000D01*
G01*
X45225000Y-110300000D01*
G75*
G02*
X45450000Y-110075000I225000J0D01*
G01*
X45950000Y-110075000D01*
G75*
G02*
X46175000Y-110300000I0J-225000D01*
G01*
X46175000Y-110750000D01*
G75*
G02*
X45950000Y-110975000I-225000J0D01*
G01*
G37*
G36*
G01*
X45950000Y-112525000D02*
X45450000Y-112525000D01*
G75*
G02*
X45225000Y-112300000I0J225000D01*
G01*
X45225000Y-111850000D01*
G75*
G02*
X45450000Y-111625000I225000J0D01*
G01*
X45950000Y-111625000D01*
G75*
G02*
X46175000Y-111850000I0J-225000D01*
G01*
X46175000Y-112300000D01*
G75*
G02*
X45950000Y-112525000I-225000J0D01*
G01*
G37*
%TD*%
%TO.C,C5*%
G36*
G01*
X53500000Y-113250000D02*
X53500000Y-112750000D01*
G75*
G02*
X53725000Y-112525000I225000J0D01*
G01*
X54175000Y-112525000D01*
G75*
G02*
X54400000Y-112750000I0J-225000D01*
G01*
X54400000Y-113250000D01*
G75*
G02*
X54175000Y-113475000I-225000J0D01*
G01*
X53725000Y-113475000D01*
G75*
G02*
X53500000Y-113250000I0J225000D01*
G01*
G37*
G36*
G01*
X51950000Y-113250000D02*
X51950000Y-112750000D01*
G75*
G02*
X52175000Y-112525000I225000J0D01*
G01*
X52625000Y-112525000D01*
G75*
G02*
X52850000Y-112750000I0J-225000D01*
G01*
X52850000Y-113250000D01*
G75*
G02*
X52625000Y-113475000I-225000J0D01*
G01*
X52175000Y-113475000D01*
G75*
G02*
X51950000Y-113250000I0J225000D01*
G01*
G37*
%TD*%
%TO.C,C2*%
G36*
G01*
X56150000Y-109325000D02*
X56150000Y-110275000D01*
G75*
G02*
X55900000Y-110525000I-250000J0D01*
G01*
X55400000Y-110525000D01*
G75*
G02*
X55150000Y-110275000I0J250000D01*
G01*
X55150000Y-109325000D01*
G75*
G02*
X55400000Y-109075000I250000J0D01*
G01*
X55900000Y-109075000D01*
G75*
G02*
X56150000Y-109325000I0J-250000D01*
G01*
G37*
G36*
G01*
X58050000Y-109325000D02*
X58050000Y-110275000D01*
G75*
G02*
X57800000Y-110525000I-250000J0D01*
G01*
X57300000Y-110525000D01*
G75*
G02*
X57050000Y-110275000I0J250000D01*
G01*
X57050000Y-109325000D01*
G75*
G02*
X57300000Y-109075000I250000J0D01*
G01*
X57800000Y-109075000D01*
G75*
G02*
X58050000Y-109325000I0J-250000D01*
G01*
G37*
%TD*%
D16*
%TO.C,U6*%
X44348000Y-127476000D03*
X44348000Y-128126000D03*
X44348000Y-128776000D03*
X44348000Y-129426000D03*
X44348000Y-130076000D03*
X44348000Y-130726000D03*
X44348000Y-131376000D03*
X44348000Y-132026000D03*
X44348000Y-132676000D03*
X44348000Y-133326000D03*
X44348000Y-133976000D03*
X44348000Y-134626000D03*
X37148000Y-134626000D03*
X37148000Y-133976000D03*
X37148000Y-133326000D03*
X37148000Y-132676000D03*
X37148000Y-132026000D03*
X37148000Y-131376000D03*
X37148000Y-130726000D03*
X37148000Y-130076000D03*
X37148000Y-129426000D03*
X37148000Y-128776000D03*
X37148000Y-128126000D03*
X37148000Y-127476000D03*
%TD*%
%TO.C,U3*%
X61469600Y-134611000D03*
X61469600Y-133961000D03*
X61469600Y-133311000D03*
X61469600Y-132661000D03*
X61469600Y-132011000D03*
X61469600Y-131361000D03*
X61469600Y-130711000D03*
X61469600Y-130061000D03*
X61469600Y-129411000D03*
X61469600Y-128761000D03*
X61469600Y-128111000D03*
X61469600Y-127461000D03*
X68669600Y-127461000D03*
X68669600Y-128111000D03*
X68669600Y-128761000D03*
X68669600Y-129411000D03*
X68669600Y-130061000D03*
X68669600Y-130711000D03*
X68669600Y-131361000D03*
X68669600Y-132011000D03*
X68669600Y-132661000D03*
X68669600Y-133311000D03*
X68669600Y-133961000D03*
X68669600Y-134611000D03*
%TD*%
%TO.C,D3*%
G36*
G01*
X66250000Y-100943750D02*
X66250000Y-101456250D01*
G75*
G02*
X66031250Y-101675000I-218750J0D01*
G01*
X65593750Y-101675000D01*
G75*
G02*
X65375000Y-101456250I0J218750D01*
G01*
X65375000Y-100943750D01*
G75*
G02*
X65593750Y-100725000I218750J0D01*
G01*
X66031250Y-100725000D01*
G75*
G02*
X66250000Y-100943750I0J-218750D01*
G01*
G37*
G36*
G01*
X67825000Y-100943750D02*
X67825000Y-101456250D01*
G75*
G02*
X67606250Y-101675000I-218750J0D01*
G01*
X67168750Y-101675000D01*
G75*
G02*
X66950000Y-101456250I0J218750D01*
G01*
X66950000Y-100943750D01*
G75*
G02*
X67168750Y-100725000I218750J0D01*
G01*
X67606250Y-100725000D01*
G75*
G02*
X67825000Y-100943750I0J-218750D01*
G01*
G37*
%TD*%
%TO.C,D6*%
G36*
G01*
X56543750Y-125050000D02*
X57056250Y-125050000D01*
G75*
G02*
X57275000Y-125268750I0J-218750D01*
G01*
X57275000Y-125706250D01*
G75*
G02*
X57056250Y-125925000I-218750J0D01*
G01*
X56543750Y-125925000D01*
G75*
G02*
X56325000Y-125706250I0J218750D01*
G01*
X56325000Y-125268750D01*
G75*
G02*
X56543750Y-125050000I218750J0D01*
G01*
G37*
G36*
G01*
X56543750Y-123475000D02*
X57056250Y-123475000D01*
G75*
G02*
X57275000Y-123693750I0J-218750D01*
G01*
X57275000Y-124131250D01*
G75*
G02*
X57056250Y-124350000I-218750J0D01*
G01*
X56543750Y-124350000D01*
G75*
G02*
X56325000Y-124131250I0J218750D01*
G01*
X56325000Y-123693750D01*
G75*
G02*
X56543750Y-123475000I218750J0D01*
G01*
G37*
%TD*%
%TO.C,U4*%
G36*
G01*
X43733000Y-118838000D02*
X43933000Y-118838000D01*
G75*
G02*
X44033000Y-118938000I0J-100000D01*
G01*
X44033000Y-120213000D01*
G75*
G02*
X43933000Y-120313000I-100000J0D01*
G01*
X43733000Y-120313000D01*
G75*
G02*
X43633000Y-120213000I0J100000D01*
G01*
X43633000Y-118938000D01*
G75*
G02*
X43733000Y-118838000I100000J0D01*
G01*
G37*
G36*
G01*
X43083000Y-118838000D02*
X43283000Y-118838000D01*
G75*
G02*
X43383000Y-118938000I0J-100000D01*
G01*
X43383000Y-120213000D01*
G75*
G02*
X43283000Y-120313000I-100000J0D01*
G01*
X43083000Y-120313000D01*
G75*
G02*
X42983000Y-120213000I0J100000D01*
G01*
X42983000Y-118938000D01*
G75*
G02*
X43083000Y-118838000I100000J0D01*
G01*
G37*
G36*
G01*
X42433000Y-118838000D02*
X42633000Y-118838000D01*
G75*
G02*
X42733000Y-118938000I0J-100000D01*
G01*
X42733000Y-120213000D01*
G75*
G02*
X42633000Y-120313000I-100000J0D01*
G01*
X42433000Y-120313000D01*
G75*
G02*
X42333000Y-120213000I0J100000D01*
G01*
X42333000Y-118938000D01*
G75*
G02*
X42433000Y-118838000I100000J0D01*
G01*
G37*
G36*
G01*
X41783000Y-118838000D02*
X41983000Y-118838000D01*
G75*
G02*
X42083000Y-118938000I0J-100000D01*
G01*
X42083000Y-120213000D01*
G75*
G02*
X41983000Y-120313000I-100000J0D01*
G01*
X41783000Y-120313000D01*
G75*
G02*
X41683000Y-120213000I0J100000D01*
G01*
X41683000Y-118938000D01*
G75*
G02*
X41783000Y-118838000I100000J0D01*
G01*
G37*
G36*
G01*
X41133000Y-118838000D02*
X41333000Y-118838000D01*
G75*
G02*
X41433000Y-118938000I0J-100000D01*
G01*
X41433000Y-120213000D01*
G75*
G02*
X41333000Y-120313000I-100000J0D01*
G01*
X41133000Y-120313000D01*
G75*
G02*
X41033000Y-120213000I0J100000D01*
G01*
X41033000Y-118938000D01*
G75*
G02*
X41133000Y-118838000I100000J0D01*
G01*
G37*
G36*
G01*
X40483000Y-118838000D02*
X40683000Y-118838000D01*
G75*
G02*
X40783000Y-118938000I0J-100000D01*
G01*
X40783000Y-120213000D01*
G75*
G02*
X40683000Y-120313000I-100000J0D01*
G01*
X40483000Y-120313000D01*
G75*
G02*
X40383000Y-120213000I0J100000D01*
G01*
X40383000Y-118938000D01*
G75*
G02*
X40483000Y-118838000I100000J0D01*
G01*
G37*
G36*
G01*
X39833000Y-118838000D02*
X40033000Y-118838000D01*
G75*
G02*
X40133000Y-118938000I0J-100000D01*
G01*
X40133000Y-120213000D01*
G75*
G02*
X40033000Y-120313000I-100000J0D01*
G01*
X39833000Y-120313000D01*
G75*
G02*
X39733000Y-120213000I0J100000D01*
G01*
X39733000Y-118938000D01*
G75*
G02*
X39833000Y-118838000I100000J0D01*
G01*
G37*
G36*
G01*
X39183000Y-118838000D02*
X39383000Y-118838000D01*
G75*
G02*
X39483000Y-118938000I0J-100000D01*
G01*
X39483000Y-120213000D01*
G75*
G02*
X39383000Y-120313000I-100000J0D01*
G01*
X39183000Y-120313000D01*
G75*
G02*
X39083000Y-120213000I0J100000D01*
G01*
X39083000Y-118938000D01*
G75*
G02*
X39183000Y-118838000I100000J0D01*
G01*
G37*
G36*
G01*
X38533000Y-118838000D02*
X38733000Y-118838000D01*
G75*
G02*
X38833000Y-118938000I0J-100000D01*
G01*
X38833000Y-120213000D01*
G75*
G02*
X38733000Y-120313000I-100000J0D01*
G01*
X38533000Y-120313000D01*
G75*
G02*
X38433000Y-120213000I0J100000D01*
G01*
X38433000Y-118938000D01*
G75*
G02*
X38533000Y-118838000I100000J0D01*
G01*
G37*
G36*
G01*
X37883000Y-118838000D02*
X38083000Y-118838000D01*
G75*
G02*
X38183000Y-118938000I0J-100000D01*
G01*
X38183000Y-120213000D01*
G75*
G02*
X38083000Y-120313000I-100000J0D01*
G01*
X37883000Y-120313000D01*
G75*
G02*
X37783000Y-120213000I0J100000D01*
G01*
X37783000Y-118938000D01*
G75*
G02*
X37883000Y-118838000I100000J0D01*
G01*
G37*
G36*
G01*
X37233000Y-118838000D02*
X37433000Y-118838000D01*
G75*
G02*
X37533000Y-118938000I0J-100000D01*
G01*
X37533000Y-120213000D01*
G75*
G02*
X37433000Y-120313000I-100000J0D01*
G01*
X37233000Y-120313000D01*
G75*
G02*
X37133000Y-120213000I0J100000D01*
G01*
X37133000Y-118938000D01*
G75*
G02*
X37233000Y-118838000I100000J0D01*
G01*
G37*
G36*
G01*
X36583000Y-118838000D02*
X36783000Y-118838000D01*
G75*
G02*
X36883000Y-118938000I0J-100000D01*
G01*
X36883000Y-120213000D01*
G75*
G02*
X36783000Y-120313000I-100000J0D01*
G01*
X36583000Y-120313000D01*
G75*
G02*
X36483000Y-120213000I0J100000D01*
G01*
X36483000Y-118938000D01*
G75*
G02*
X36583000Y-118838000I100000J0D01*
G01*
G37*
G36*
G01*
X35933000Y-118838000D02*
X36133000Y-118838000D01*
G75*
G02*
X36233000Y-118938000I0J-100000D01*
G01*
X36233000Y-120213000D01*
G75*
G02*
X36133000Y-120313000I-100000J0D01*
G01*
X35933000Y-120313000D01*
G75*
G02*
X35833000Y-120213000I0J100000D01*
G01*
X35833000Y-118938000D01*
G75*
G02*
X35933000Y-118838000I100000J0D01*
G01*
G37*
G36*
G01*
X35283000Y-118838000D02*
X35483000Y-118838000D01*
G75*
G02*
X35583000Y-118938000I0J-100000D01*
G01*
X35583000Y-120213000D01*
G75*
G02*
X35483000Y-120313000I-100000J0D01*
G01*
X35283000Y-120313000D01*
G75*
G02*
X35183000Y-120213000I0J100000D01*
G01*
X35183000Y-118938000D01*
G75*
G02*
X35283000Y-118838000I100000J0D01*
G01*
G37*
G36*
G01*
X35283000Y-113113000D02*
X35483000Y-113113000D01*
G75*
G02*
X35583000Y-113213000I0J-100000D01*
G01*
X35583000Y-114488000D01*
G75*
G02*
X35483000Y-114588000I-100000J0D01*
G01*
X35283000Y-114588000D01*
G75*
G02*
X35183000Y-114488000I0J100000D01*
G01*
X35183000Y-113213000D01*
G75*
G02*
X35283000Y-113113000I100000J0D01*
G01*
G37*
G36*
G01*
X35933000Y-113113000D02*
X36133000Y-113113000D01*
G75*
G02*
X36233000Y-113213000I0J-100000D01*
G01*
X36233000Y-114488000D01*
G75*
G02*
X36133000Y-114588000I-100000J0D01*
G01*
X35933000Y-114588000D01*
G75*
G02*
X35833000Y-114488000I0J100000D01*
G01*
X35833000Y-113213000D01*
G75*
G02*
X35933000Y-113113000I100000J0D01*
G01*
G37*
G36*
G01*
X36583000Y-113113000D02*
X36783000Y-113113000D01*
G75*
G02*
X36883000Y-113213000I0J-100000D01*
G01*
X36883000Y-114488000D01*
G75*
G02*
X36783000Y-114588000I-100000J0D01*
G01*
X36583000Y-114588000D01*
G75*
G02*
X36483000Y-114488000I0J100000D01*
G01*
X36483000Y-113213000D01*
G75*
G02*
X36583000Y-113113000I100000J0D01*
G01*
G37*
G36*
G01*
X37233000Y-113113000D02*
X37433000Y-113113000D01*
G75*
G02*
X37533000Y-113213000I0J-100000D01*
G01*
X37533000Y-114488000D01*
G75*
G02*
X37433000Y-114588000I-100000J0D01*
G01*
X37233000Y-114588000D01*
G75*
G02*
X37133000Y-114488000I0J100000D01*
G01*
X37133000Y-113213000D01*
G75*
G02*
X37233000Y-113113000I100000J0D01*
G01*
G37*
G36*
G01*
X37883000Y-113113000D02*
X38083000Y-113113000D01*
G75*
G02*
X38183000Y-113213000I0J-100000D01*
G01*
X38183000Y-114488000D01*
G75*
G02*
X38083000Y-114588000I-100000J0D01*
G01*
X37883000Y-114588000D01*
G75*
G02*
X37783000Y-114488000I0J100000D01*
G01*
X37783000Y-113213000D01*
G75*
G02*
X37883000Y-113113000I100000J0D01*
G01*
G37*
G36*
G01*
X38533000Y-113113000D02*
X38733000Y-113113000D01*
G75*
G02*
X38833000Y-113213000I0J-100000D01*
G01*
X38833000Y-114488000D01*
G75*
G02*
X38733000Y-114588000I-100000J0D01*
G01*
X38533000Y-114588000D01*
G75*
G02*
X38433000Y-114488000I0J100000D01*
G01*
X38433000Y-113213000D01*
G75*
G02*
X38533000Y-113113000I100000J0D01*
G01*
G37*
G36*
G01*
X39183000Y-113113000D02*
X39383000Y-113113000D01*
G75*
G02*
X39483000Y-113213000I0J-100000D01*
G01*
X39483000Y-114488000D01*
G75*
G02*
X39383000Y-114588000I-100000J0D01*
G01*
X39183000Y-114588000D01*
G75*
G02*
X39083000Y-114488000I0J100000D01*
G01*
X39083000Y-113213000D01*
G75*
G02*
X39183000Y-113113000I100000J0D01*
G01*
G37*
G36*
G01*
X39833000Y-113113000D02*
X40033000Y-113113000D01*
G75*
G02*
X40133000Y-113213000I0J-100000D01*
G01*
X40133000Y-114488000D01*
G75*
G02*
X40033000Y-114588000I-100000J0D01*
G01*
X39833000Y-114588000D01*
G75*
G02*
X39733000Y-114488000I0J100000D01*
G01*
X39733000Y-113213000D01*
G75*
G02*
X39833000Y-113113000I100000J0D01*
G01*
G37*
G36*
G01*
X40483000Y-113113000D02*
X40683000Y-113113000D01*
G75*
G02*
X40783000Y-113213000I0J-100000D01*
G01*
X40783000Y-114488000D01*
G75*
G02*
X40683000Y-114588000I-100000J0D01*
G01*
X40483000Y-114588000D01*
G75*
G02*
X40383000Y-114488000I0J100000D01*
G01*
X40383000Y-113213000D01*
G75*
G02*
X40483000Y-113113000I100000J0D01*
G01*
G37*
G36*
G01*
X41133000Y-113113000D02*
X41333000Y-113113000D01*
G75*
G02*
X41433000Y-113213000I0J-100000D01*
G01*
X41433000Y-114488000D01*
G75*
G02*
X41333000Y-114588000I-100000J0D01*
G01*
X41133000Y-114588000D01*
G75*
G02*
X41033000Y-114488000I0J100000D01*
G01*
X41033000Y-113213000D01*
G75*
G02*
X41133000Y-113113000I100000J0D01*
G01*
G37*
G36*
G01*
X41783000Y-113113000D02*
X41983000Y-113113000D01*
G75*
G02*
X42083000Y-113213000I0J-100000D01*
G01*
X42083000Y-114488000D01*
G75*
G02*
X41983000Y-114588000I-100000J0D01*
G01*
X41783000Y-114588000D01*
G75*
G02*
X41683000Y-114488000I0J100000D01*
G01*
X41683000Y-113213000D01*
G75*
G02*
X41783000Y-113113000I100000J0D01*
G01*
G37*
G36*
G01*
X42433000Y-113113000D02*
X42633000Y-113113000D01*
G75*
G02*
X42733000Y-113213000I0J-100000D01*
G01*
X42733000Y-114488000D01*
G75*
G02*
X42633000Y-114588000I-100000J0D01*
G01*
X42433000Y-114588000D01*
G75*
G02*
X42333000Y-114488000I0J100000D01*
G01*
X42333000Y-113213000D01*
G75*
G02*
X42433000Y-113113000I100000J0D01*
G01*
G37*
G36*
G01*
X43083000Y-113113000D02*
X43283000Y-113113000D01*
G75*
G02*
X43383000Y-113213000I0J-100000D01*
G01*
X43383000Y-114488000D01*
G75*
G02*
X43283000Y-114588000I-100000J0D01*
G01*
X43083000Y-114588000D01*
G75*
G02*
X42983000Y-114488000I0J100000D01*
G01*
X42983000Y-113213000D01*
G75*
G02*
X43083000Y-113113000I100000J0D01*
G01*
G37*
G36*
G01*
X43733000Y-113113000D02*
X43933000Y-113113000D01*
G75*
G02*
X44033000Y-113213000I0J-100000D01*
G01*
X44033000Y-114488000D01*
G75*
G02*
X43933000Y-114588000I-100000J0D01*
G01*
X43733000Y-114588000D01*
G75*
G02*
X43633000Y-114488000I0J100000D01*
G01*
X43633000Y-113213000D01*
G75*
G02*
X43733000Y-113113000I100000J0D01*
G01*
G37*
%TD*%
M02*
