M48
; DRILL file {KiCad 5.1.10} date Tue Jun 15 07:02:31 2021
; FORMAT={-:-/ absolute / inch / decimal}
; #@! TF.CreationDate,2021-06-15T07:02:31+02:00
; #@! TF.GenerationSoftware,Kicad,Pcbnew,5.1.10
; #@! TF.FileFunction,Plated,1,2,PTH
FMAT,2
INCH
T1C0.0157
T2C0.0197
T3C0.0295
T4C0.0354
T5C0.0394
T6C0.0433
T7C0.0866
%
G90
G05
T1
X1.1555Y-3.2677
X1.1555Y-5.5906
X1.1614Y-3.937
X1.1745Y-3.2218
X1.1745Y-3.3137
X1.1745Y-5.5446
X1.1745Y-5.6365
X1.2205Y-3.2028
X1.2205Y-3.3327
X1.2205Y-5.5256
X1.2205Y-5.6555
X1.2664Y-3.2218
X1.2664Y-3.3137
X1.2664Y-5.5446
X1.2664Y-5.6365
X1.2854Y-3.2677
X1.2854Y-5.5906
X1.3228Y-3.3307
X1.4035Y-5.2244
X1.4035Y-5.265
X1.5276Y-5.0669
X1.5276Y-5.1024
X1.5443Y-5.1587
X1.6378Y-5.3898
X1.6398Y-5.3504
X1.6843Y-5.1487
X1.7402Y-4.311
X1.7618Y-4.7047
X1.7992Y-4.311
X1.8878Y-5.2795
X1.8878Y-5.3189
X1.8917Y-5.185
X1.8976Y-4.2441
X1.9016Y-5.622
X1.9528Y-4.6535
X1.9646Y-4.2638
X2.0433Y-4.122
X2.0433Y-4.1654
X2.0906Y-4.122
X2.0906Y-4.1654
X2.1201Y-4.5059
X2.1732Y-5.626
X2.2205Y-4.3701
X2.2244Y-4.8307
X2.2677Y-4.6535
X2.2717Y-5.0039
X2.2717Y-5.0531
X2.2795Y-5.1201
X2.3685Y-4.4856
X2.4055Y-4.0157
X2.4331Y-4.8878
X2.4701Y-4.488
X2.4724Y-4.5512
X2.4724Y-4.8878
X2.4878Y-5.1789
X2.4882Y-5.098
X2.5616Y-5.0251
X2.5978Y-5.1789
X2.6339Y-4.3701
X2.6417Y-5.0984
X2.6732Y-4.9094
X2.6969Y-3.9843
X2.7126Y-4.4606
X2.7165Y-4.8622
X2.7165Y-4.9094
X2.7638Y-5.22
X2.7638Y-5.2579
X2.7657Y-5.0669
X2.7677Y-3.8465
X2.8425Y-3.3307
X2.8878Y-3.2677
X2.8878Y-5.5906
X2.9068Y-3.2218
X2.9068Y-3.3137
X2.9068Y-5.5446
X2.9068Y-5.6365
X2.9528Y-3.2028
X2.9528Y-3.3327
X2.9528Y-5.5256
X2.9528Y-5.6555
X2.9637Y-3.7489
X2.9987Y-3.2218
X2.9987Y-3.3137
X2.9987Y-5.5446
X2.9987Y-5.6365
X3.0177Y-3.2677
X3.0177Y-5.5906
X3.0315Y-3.4764
T2
X1.3071Y-3.4724
X1.3071Y-3.5217
X1.3071Y-3.5709
X1.3071Y-3.7362
X1.3071Y-3.7854
X1.3071Y-3.8346
X1.3071Y-3.8839
X1.3071Y-3.9331
X1.5728Y-3.3543
X1.622Y-3.3543
X1.6713Y-3.3543
X1.7205Y-3.3543
X1.7697Y-3.3543
X1.8976Y-5.5039
X1.9469Y-5.5039
X1.9626Y-3.3543
X1.9961Y-5.5039
X2.0118Y-3.3543
X2.061Y-3.3543
X2.1102Y-3.3543
X2.1594Y-3.3543
X2.1732Y-5.5039
X2.2087Y-3.3543
X2.2224Y-5.5039
X2.2717Y-5.5039
X2.4016Y-3.3543
X2.4331Y-4.0551
X2.4508Y-3.3543
X2.5Y-3.3543
X2.5492Y-3.3543
X2.5984Y-3.3543
X2.6063Y-4.0551
X2.8661Y-3.4764
X2.8661Y-3.5256
X2.8661Y-3.5748
X2.8661Y-3.748
X2.8661Y-3.7972
X2.8661Y-3.8465
X2.8661Y-3.8957
X2.8661Y-3.9449
T3
X2.7953Y-4.1457
X2.7953Y-4.2244
X2.7953Y-4.4331
X2.7953Y-4.5118
T4
X1.7685Y-4.0433
X1.8685Y-4.0433
X1.9685Y-4.0433
T5
X1.1969Y-4.0866
X1.2835Y-4.4409
X1.2835Y-4.5409
X1.2969Y-4.0866
X1.6457Y-4.1441
X1.6457Y-4.2441
X1.8346Y-4.5118
X1.8346Y-4.6118
X1.8346Y-4.7118
X2.0315Y-4.8189
X2.1315Y-4.8189
X2.9646Y-4.7008
X2.9646Y-4.8008
T6
X1.2598Y-4.9803
X1.2598Y-5.0803
X1.2598Y-5.2441
X1.2598Y-5.3441
X2.9114Y-4.9803
X2.9114Y-5.0803
X2.9114Y-5.245
X2.9114Y-5.345
T7
X1.2205Y-3.2677
X1.2205Y-5.5906
X2.9528Y-3.2677
X2.9528Y-5.5906
T0
M30
