%TF.GenerationSoftware,KiCad,Pcbnew,5.1.10*%
%TF.CreationDate,2021-08-20T07:55:10+02:00*%
%TF.ProjectId,nsumo,6e73756d-6f2e-46b6-9963-61645f706362,rev?*%
%TF.SameCoordinates,Original*%
%TF.FileFunction,Legend,Top*%
%TF.FilePolarity,Positive*%
%FSLAX46Y46*%
G04 Gerber Fmt 4.6, Leading zero omitted, Abs format (unit mm)*
G04 Created by KiCad (PCBNEW 5.1.10) date 2021-08-20 07:55:10*
%MOMM*%
%LPD*%
G01*
G04 APERTURE LIST*
%ADD10C,0.150000*%
%ADD11C,0.120000*%
%ADD12C,0.500000*%
%ADD13C,0.125000*%
%ADD14C,0.010000*%
G04 APERTURE END LIST*
D10*
X66595238Y-110557142D02*
X67204761Y-110557142D01*
X66900000Y-110861904D02*
X66900000Y-110252380D01*
X65495238Y-111657142D02*
X66104761Y-111657142D01*
D11*
X43850000Y-141800000D02*
G75*
G03*
X43850000Y-141800000I-50000J0D01*
G01*
X62050000Y-141700000D02*
G75*
G03*
X62050000Y-141700000I-50000J0D01*
G01*
X66950000Y-90600000D02*
G75*
G03*
X66950000Y-90600000I-50000J0D01*
G01*
X39550000Y-91900000D02*
G75*
G03*
X39550000Y-91900000I-50000J0D01*
G01*
D10*
X40570476Y-104631904D02*
X41027619Y-104631904D01*
X40799047Y-105431904D02*
X40799047Y-104631904D01*
X41218095Y-104631904D02*
X41751428Y-105431904D01*
X41751428Y-104631904D02*
X41218095Y-105431904D01*
X30013333Y-127812380D02*
X30013333Y-127431428D01*
X30241904Y-127888571D02*
X29441904Y-127621904D01*
X30241904Y-127355238D01*
X29441904Y-126936190D02*
X29441904Y-126860000D01*
X29480000Y-126783809D01*
X29518095Y-126745714D01*
X29594285Y-126707619D01*
X29746666Y-126669523D01*
X29937142Y-126669523D01*
X30089523Y-126707619D01*
X30165714Y-126745714D01*
X30203809Y-126783809D01*
X30241904Y-126860000D01*
X30241904Y-126936190D01*
X30203809Y-127012380D01*
X30165714Y-127050476D01*
X30089523Y-127088571D01*
X29937142Y-127126666D01*
X29746666Y-127126666D01*
X29594285Y-127088571D01*
X29518095Y-127050476D01*
X29480000Y-127012380D01*
X29441904Y-126936190D01*
X30241904Y-125907619D02*
X30241904Y-126364761D01*
X30241904Y-126136190D02*
X29441904Y-126136190D01*
X29556190Y-126212380D01*
X29632380Y-126288571D01*
X29670476Y-126364761D01*
X30033333Y-130412380D02*
X30033333Y-130031428D01*
X30261904Y-130488571D02*
X29461904Y-130221904D01*
X30261904Y-129955238D01*
X29461904Y-129536190D02*
X29461904Y-129460000D01*
X29500000Y-129383809D01*
X29538095Y-129345714D01*
X29614285Y-129307619D01*
X29766666Y-129269523D01*
X29957142Y-129269523D01*
X30109523Y-129307619D01*
X30185714Y-129345714D01*
X30223809Y-129383809D01*
X30261904Y-129460000D01*
X30261904Y-129536190D01*
X30223809Y-129612380D01*
X30185714Y-129650476D01*
X30109523Y-129688571D01*
X29957142Y-129726666D01*
X29766666Y-129726666D01*
X29614285Y-129688571D01*
X29538095Y-129650476D01*
X29500000Y-129612380D01*
X29461904Y-129536190D01*
X29538095Y-128964761D02*
X29500000Y-128926666D01*
X29461904Y-128850476D01*
X29461904Y-128660000D01*
X29500000Y-128583809D01*
X29538095Y-128545714D01*
X29614285Y-128507619D01*
X29690476Y-128507619D01*
X29804761Y-128545714D01*
X30261904Y-129002857D01*
X30261904Y-128507619D01*
X29842857Y-134294761D02*
X29880952Y-134180476D01*
X29919047Y-134142380D01*
X29995238Y-134104285D01*
X30109523Y-134104285D01*
X30185714Y-134142380D01*
X30223809Y-134180476D01*
X30261904Y-134256666D01*
X30261904Y-134561428D01*
X29461904Y-134561428D01*
X29461904Y-134294761D01*
X29500000Y-134218571D01*
X29538095Y-134180476D01*
X29614285Y-134142380D01*
X29690476Y-134142380D01*
X29766666Y-134180476D01*
X29804761Y-134218571D01*
X29842857Y-134294761D01*
X29842857Y-134561428D01*
X29461904Y-133609047D02*
X29461904Y-133532857D01*
X29500000Y-133456666D01*
X29538095Y-133418571D01*
X29614285Y-133380476D01*
X29766666Y-133342380D01*
X29957142Y-133342380D01*
X30109523Y-133380476D01*
X30185714Y-133418571D01*
X30223809Y-133456666D01*
X30261904Y-133532857D01*
X30261904Y-133609047D01*
X30223809Y-133685238D01*
X30185714Y-133723333D01*
X30109523Y-133761428D01*
X29957142Y-133799523D01*
X29766666Y-133799523D01*
X29614285Y-133761428D01*
X29538095Y-133723333D01*
X29500000Y-133685238D01*
X29461904Y-133609047D01*
X29538095Y-133037619D02*
X29500000Y-132999523D01*
X29461904Y-132923333D01*
X29461904Y-132732857D01*
X29500000Y-132656666D01*
X29538095Y-132618571D01*
X29614285Y-132580476D01*
X29690476Y-132580476D01*
X29804761Y-132618571D01*
X30261904Y-133075714D01*
X30261904Y-132580476D01*
X29842857Y-136844761D02*
X29880952Y-136730476D01*
X29919047Y-136692380D01*
X29995238Y-136654285D01*
X30109523Y-136654285D01*
X30185714Y-136692380D01*
X30223809Y-136730476D01*
X30261904Y-136806666D01*
X30261904Y-137111428D01*
X29461904Y-137111428D01*
X29461904Y-136844761D01*
X29500000Y-136768571D01*
X29538095Y-136730476D01*
X29614285Y-136692380D01*
X29690476Y-136692380D01*
X29766666Y-136730476D01*
X29804761Y-136768571D01*
X29842857Y-136844761D01*
X29842857Y-137111428D01*
X29461904Y-136159047D02*
X29461904Y-136082857D01*
X29500000Y-136006666D01*
X29538095Y-135968571D01*
X29614285Y-135930476D01*
X29766666Y-135892380D01*
X29957142Y-135892380D01*
X30109523Y-135930476D01*
X30185714Y-135968571D01*
X30223809Y-136006666D01*
X30261904Y-136082857D01*
X30261904Y-136159047D01*
X30223809Y-136235238D01*
X30185714Y-136273333D01*
X30109523Y-136311428D01*
X29957142Y-136349523D01*
X29766666Y-136349523D01*
X29614285Y-136311428D01*
X29538095Y-136273333D01*
X29500000Y-136235238D01*
X29461904Y-136159047D01*
X30261904Y-135130476D02*
X30261904Y-135587619D01*
X30261904Y-135359047D02*
X29461904Y-135359047D01*
X29576190Y-135435238D01*
X29652380Y-135511428D01*
X29690476Y-135587619D01*
X76223333Y-136682380D02*
X76223333Y-136301428D01*
X76451904Y-136758571D02*
X75651904Y-136491904D01*
X76451904Y-136225238D01*
X75651904Y-135806190D02*
X75651904Y-135730000D01*
X75690000Y-135653809D01*
X75728095Y-135615714D01*
X75804285Y-135577619D01*
X75956666Y-135539523D01*
X76147142Y-135539523D01*
X76299523Y-135577619D01*
X76375714Y-135615714D01*
X76413809Y-135653809D01*
X76451904Y-135730000D01*
X76451904Y-135806190D01*
X76413809Y-135882380D01*
X76375714Y-135920476D01*
X76299523Y-135958571D01*
X76147142Y-135996666D01*
X75956666Y-135996666D01*
X75804285Y-135958571D01*
X75728095Y-135920476D01*
X75690000Y-135882380D01*
X75651904Y-135806190D01*
X76451904Y-134777619D02*
X76451904Y-135234761D01*
X76451904Y-135006190D02*
X75651904Y-135006190D01*
X75766190Y-135082380D01*
X75842380Y-135158571D01*
X75880476Y-135234761D01*
X76203333Y-134212380D02*
X76203333Y-133831428D01*
X76431904Y-134288571D02*
X75631904Y-134021904D01*
X76431904Y-133755238D01*
X75631904Y-133336190D02*
X75631904Y-133260000D01*
X75670000Y-133183809D01*
X75708095Y-133145714D01*
X75784285Y-133107619D01*
X75936666Y-133069523D01*
X76127142Y-133069523D01*
X76279523Y-133107619D01*
X76355714Y-133145714D01*
X76393809Y-133183809D01*
X76431904Y-133260000D01*
X76431904Y-133336190D01*
X76393809Y-133412380D01*
X76355714Y-133450476D01*
X76279523Y-133488571D01*
X76127142Y-133526666D01*
X75936666Y-133526666D01*
X75784285Y-133488571D01*
X75708095Y-133450476D01*
X75670000Y-133412380D01*
X75631904Y-133336190D01*
X75708095Y-132764761D02*
X75670000Y-132726666D01*
X75631904Y-132650476D01*
X75631904Y-132460000D01*
X75670000Y-132383809D01*
X75708095Y-132345714D01*
X75784285Y-132307619D01*
X75860476Y-132307619D01*
X75974761Y-132345714D01*
X76431904Y-132802857D01*
X76431904Y-132307619D01*
X76062857Y-129804761D02*
X76100952Y-129690476D01*
X76139047Y-129652380D01*
X76215238Y-129614285D01*
X76329523Y-129614285D01*
X76405714Y-129652380D01*
X76443809Y-129690476D01*
X76481904Y-129766666D01*
X76481904Y-130071428D01*
X75681904Y-130071428D01*
X75681904Y-129804761D01*
X75720000Y-129728571D01*
X75758095Y-129690476D01*
X75834285Y-129652380D01*
X75910476Y-129652380D01*
X75986666Y-129690476D01*
X76024761Y-129728571D01*
X76062857Y-129804761D01*
X76062857Y-130071428D01*
X75681904Y-129119047D02*
X75681904Y-129042857D01*
X75720000Y-128966666D01*
X75758095Y-128928571D01*
X75834285Y-128890476D01*
X75986666Y-128852380D01*
X76177142Y-128852380D01*
X76329523Y-128890476D01*
X76405714Y-128928571D01*
X76443809Y-128966666D01*
X76481904Y-129042857D01*
X76481904Y-129119047D01*
X76443809Y-129195238D01*
X76405714Y-129233333D01*
X76329523Y-129271428D01*
X76177142Y-129309523D01*
X75986666Y-129309523D01*
X75834285Y-129271428D01*
X75758095Y-129233333D01*
X75720000Y-129195238D01*
X75681904Y-129119047D01*
X75758095Y-128547619D02*
X75720000Y-128509523D01*
X75681904Y-128433333D01*
X75681904Y-128242857D01*
X75720000Y-128166666D01*
X75758095Y-128128571D01*
X75834285Y-128090476D01*
X75910476Y-128090476D01*
X76024761Y-128128571D01*
X76481904Y-128585714D01*
X76481904Y-128090476D01*
X76022857Y-127114761D02*
X76060952Y-127000476D01*
X76099047Y-126962380D01*
X76175238Y-126924285D01*
X76289523Y-126924285D01*
X76365714Y-126962380D01*
X76403809Y-127000476D01*
X76441904Y-127076666D01*
X76441904Y-127381428D01*
X75641904Y-127381428D01*
X75641904Y-127114761D01*
X75680000Y-127038571D01*
X75718095Y-127000476D01*
X75794285Y-126962380D01*
X75870476Y-126962380D01*
X75946666Y-127000476D01*
X75984761Y-127038571D01*
X76022857Y-127114761D01*
X76022857Y-127381428D01*
X75641904Y-126429047D02*
X75641904Y-126352857D01*
X75680000Y-126276666D01*
X75718095Y-126238571D01*
X75794285Y-126200476D01*
X75946666Y-126162380D01*
X76137142Y-126162380D01*
X76289523Y-126200476D01*
X76365714Y-126238571D01*
X76403809Y-126276666D01*
X76441904Y-126352857D01*
X76441904Y-126429047D01*
X76403809Y-126505238D01*
X76365714Y-126543333D01*
X76289523Y-126581428D01*
X76137142Y-126619523D01*
X75946666Y-126619523D01*
X75794285Y-126581428D01*
X75718095Y-126543333D01*
X75680000Y-126505238D01*
X75641904Y-126429047D01*
X76441904Y-125400476D02*
X76441904Y-125857619D01*
X76441904Y-125629047D02*
X75641904Y-125629047D01*
X75756190Y-125705238D01*
X75832380Y-125781428D01*
X75870476Y-125857619D01*
X62080476Y-96000000D02*
X62004285Y-95961904D01*
X61890000Y-95961904D01*
X61775714Y-96000000D01*
X61699523Y-96076190D01*
X61661428Y-96152380D01*
X61623333Y-96304761D01*
X61623333Y-96419047D01*
X61661428Y-96571428D01*
X61699523Y-96647619D01*
X61775714Y-96723809D01*
X61890000Y-96761904D01*
X61966190Y-96761904D01*
X62080476Y-96723809D01*
X62118571Y-96685714D01*
X62118571Y-96419047D01*
X61966190Y-96419047D01*
X62461428Y-96761904D02*
X62461428Y-95961904D01*
X62918571Y-96761904D01*
X62918571Y-95961904D01*
X63299523Y-96761904D02*
X63299523Y-95961904D01*
X63490000Y-95961904D01*
X63604285Y-96000000D01*
X63680476Y-96076190D01*
X63718571Y-96152380D01*
X63756666Y-96304761D01*
X63756666Y-96419047D01*
X63718571Y-96571428D01*
X63680476Y-96647619D01*
X63604285Y-96723809D01*
X63490000Y-96761904D01*
X63299523Y-96761904D01*
X33738095Y-124961904D02*
X33738095Y-124161904D01*
X34042857Y-124161904D01*
X34119047Y-124200000D01*
X34157142Y-124238095D01*
X34195238Y-124314285D01*
X34195238Y-124428571D01*
X34157142Y-124504761D01*
X34119047Y-124542857D01*
X34042857Y-124580952D01*
X33738095Y-124580952D01*
X34500000Y-124238095D02*
X34538095Y-124200000D01*
X34614285Y-124161904D01*
X34804761Y-124161904D01*
X34880952Y-124200000D01*
X34919047Y-124238095D01*
X34957142Y-124314285D01*
X34957142Y-124390476D01*
X34919047Y-124504761D01*
X34461904Y-124961904D01*
X34957142Y-124961904D01*
X35300000Y-124885714D02*
X35338095Y-124923809D01*
X35300000Y-124961904D01*
X35261904Y-124923809D01*
X35300000Y-124885714D01*
X35300000Y-124961904D01*
X35604761Y-124161904D02*
X36100000Y-124161904D01*
X35833333Y-124466666D01*
X35947619Y-124466666D01*
X36023809Y-124504761D01*
X36061904Y-124542857D01*
X36100000Y-124619047D01*
X36100000Y-124809523D01*
X36061904Y-124885714D01*
X36023809Y-124923809D01*
X35947619Y-124961904D01*
X35719047Y-124961904D01*
X35642857Y-124923809D01*
X35604761Y-124885714D01*
X30638095Y-121061904D02*
X30638095Y-120261904D01*
X30942857Y-120261904D01*
X31019047Y-120300000D01*
X31057142Y-120338095D01*
X31095238Y-120414285D01*
X31095238Y-120528571D01*
X31057142Y-120604761D01*
X31019047Y-120642857D01*
X30942857Y-120680952D01*
X30638095Y-120680952D01*
X31361904Y-120261904D02*
X31857142Y-120261904D01*
X31590476Y-120566666D01*
X31704761Y-120566666D01*
X31780952Y-120604761D01*
X31819047Y-120642857D01*
X31857142Y-120719047D01*
X31857142Y-120909523D01*
X31819047Y-120985714D01*
X31780952Y-121023809D01*
X31704761Y-121061904D01*
X31476190Y-121061904D01*
X31400000Y-121023809D01*
X31361904Y-120985714D01*
X32200000Y-120985714D02*
X32238095Y-121023809D01*
X32200000Y-121061904D01*
X32161904Y-121023809D01*
X32200000Y-120985714D01*
X32200000Y-121061904D01*
X32923809Y-120528571D02*
X32923809Y-121061904D01*
X32733333Y-120223809D02*
X32542857Y-120795238D01*
X33038095Y-120795238D01*
D11*
X64650000Y-101000000D02*
G75*
G03*
X64650000Y-101000000I-50000J0D01*
G01*
X58550000Y-101000000D02*
G75*
G03*
X58550000Y-101000000I-50000J0D01*
G01*
D10*
X74819047Y-116961904D02*
X75352380Y-116961904D01*
X75009523Y-117761904D01*
X75657142Y-117685714D02*
X75695238Y-117723809D01*
X75657142Y-117761904D01*
X75619047Y-117723809D01*
X75657142Y-117685714D01*
X75657142Y-117761904D01*
X76380952Y-117228571D02*
X76380952Y-117761904D01*
X76190476Y-116923809D02*
X76000000Y-117495238D01*
X76495238Y-117495238D01*
X76685714Y-116961904D02*
X76952380Y-117761904D01*
X77219047Y-116961904D01*
X74719047Y-109561904D02*
X75214285Y-109561904D01*
X74947619Y-109866666D01*
X75061904Y-109866666D01*
X75138095Y-109904761D01*
X75176190Y-109942857D01*
X75214285Y-110019047D01*
X75214285Y-110209523D01*
X75176190Y-110285714D01*
X75138095Y-110323809D01*
X75061904Y-110361904D01*
X74833333Y-110361904D01*
X74757142Y-110323809D01*
X74719047Y-110285714D01*
X75557142Y-110285714D02*
X75595238Y-110323809D01*
X75557142Y-110361904D01*
X75519047Y-110323809D01*
X75557142Y-110285714D01*
X75557142Y-110361904D01*
X75861904Y-109561904D02*
X76395238Y-109561904D01*
X76052380Y-110361904D01*
X76585714Y-109561904D02*
X76852380Y-110361904D01*
X77119047Y-109561904D01*
D11*
X58850000Y-121300000D02*
G75*
G03*
X58850000Y-121300000I-50000J0D01*
G01*
X50610000Y-105140000D02*
G75*
G03*
X50610000Y-105140000I-50000J0D01*
G01*
X60500000Y-113000000D02*
G75*
G03*
X60500000Y-113000000I-50000J0D01*
G01*
D10*
X69195238Y-112607142D02*
X69804761Y-112607142D01*
X69195238Y-105257142D02*
X69804761Y-105257142D01*
X38561904Y-109776190D02*
X39209523Y-109776190D01*
X39285714Y-109738095D01*
X39323809Y-109700000D01*
X39361904Y-109623809D01*
X39361904Y-109471428D01*
X39323809Y-109395238D01*
X39285714Y-109357142D01*
X39209523Y-109319047D01*
X38561904Y-109319047D01*
X39133333Y-108976190D02*
X39133333Y-108595238D01*
X39361904Y-109052380D02*
X38561904Y-108785714D01*
X39361904Y-108519047D01*
X39361904Y-107795238D02*
X38980952Y-108061904D01*
X39361904Y-108252380D02*
X38561904Y-108252380D01*
X38561904Y-107947619D01*
X38600000Y-107871428D01*
X38638095Y-107833333D01*
X38714285Y-107795238D01*
X38828571Y-107795238D01*
X38904761Y-107833333D01*
X38942857Y-107871428D01*
X38980952Y-107947619D01*
X38980952Y-108252380D01*
X38561904Y-107566666D02*
X38561904Y-107109523D01*
X39361904Y-107338095D02*
X38561904Y-107338095D01*
D11*
X70050000Y-134600000D02*
G75*
G03*
X70050000Y-134600000I-50000J0D01*
G01*
X65950000Y-119700000D02*
G75*
G03*
X65950000Y-119700000I-50000J0D01*
G01*
X44740000Y-113720000D02*
G75*
G03*
X44740000Y-113720000I-50000J0D01*
G01*
X35800000Y-127450000D02*
G75*
G03*
X35800000Y-127450000I-50000J0D01*
G01*
D10*
X35704761Y-116461904D02*
X35704761Y-117033333D01*
X35666666Y-117147619D01*
X35590476Y-117223809D01*
X35476190Y-117261904D01*
X35400000Y-117261904D01*
X36466666Y-117261904D02*
X36085714Y-117261904D01*
X36085714Y-116461904D01*
X37190476Y-117185714D02*
X37152380Y-117223809D01*
X37038095Y-117261904D01*
X36961904Y-117261904D01*
X36847619Y-117223809D01*
X36771428Y-117147619D01*
X36733333Y-117071428D01*
X36695238Y-116919047D01*
X36695238Y-116804761D01*
X36733333Y-116652380D01*
X36771428Y-116576190D01*
X36847619Y-116500000D01*
X36961904Y-116461904D01*
X37038095Y-116461904D01*
X37152380Y-116500000D01*
X37190476Y-116538095D01*
X37761904Y-116461904D02*
X37761904Y-117033333D01*
X37723809Y-117147619D01*
X37647619Y-117223809D01*
X37533333Y-117261904D01*
X37457142Y-117261904D01*
X38523809Y-117261904D02*
X38142857Y-117261904D01*
X38142857Y-116461904D01*
X39247619Y-117185714D02*
X39209523Y-117223809D01*
X39095238Y-117261904D01*
X39019047Y-117261904D01*
X38904761Y-117223809D01*
X38828571Y-117147619D01*
X38790476Y-117071428D01*
X38752380Y-116919047D01*
X38752380Y-116804761D01*
X38790476Y-116652380D01*
X38828571Y-116576190D01*
X38904761Y-116500000D01*
X39019047Y-116461904D01*
X39095238Y-116461904D01*
X39209523Y-116500000D01*
X39247619Y-116538095D01*
X39819047Y-116461904D02*
X39819047Y-117033333D01*
X39780952Y-117147619D01*
X39704761Y-117223809D01*
X39590476Y-117261904D01*
X39514285Y-117261904D01*
X40580952Y-117261904D02*
X40200000Y-117261904D01*
X40200000Y-116461904D01*
X41304761Y-117185714D02*
X41266666Y-117223809D01*
X41152380Y-117261904D01*
X41076190Y-117261904D01*
X40961904Y-117223809D01*
X40885714Y-117147619D01*
X40847619Y-117071428D01*
X40809523Y-116919047D01*
X40809523Y-116804761D01*
X40847619Y-116652380D01*
X40885714Y-116576190D01*
X40961904Y-116500000D01*
X41076190Y-116461904D01*
X41152380Y-116461904D01*
X41266666Y-116500000D01*
X41304761Y-116538095D01*
X41876190Y-116461904D02*
X41876190Y-117033333D01*
X41838095Y-117147619D01*
X41761904Y-117223809D01*
X41647619Y-117261904D01*
X41571428Y-117261904D01*
X42638095Y-117261904D02*
X42257142Y-117261904D01*
X42257142Y-116461904D01*
X43361904Y-117185714D02*
X43323809Y-117223809D01*
X43209523Y-117261904D01*
X43133333Y-117261904D01*
X43019047Y-117223809D01*
X42942857Y-117147619D01*
X42904761Y-117071428D01*
X42866666Y-116919047D01*
X42866666Y-116804761D01*
X42904761Y-116652380D01*
X42942857Y-116576190D01*
X43019047Y-116500000D01*
X43133333Y-116461904D01*
X43209523Y-116461904D01*
X43323809Y-116500000D01*
X43361904Y-116538095D01*
X47700000Y-94261904D02*
X47433333Y-93880952D01*
X47242857Y-94261904D02*
X47242857Y-93461904D01*
X47547619Y-93461904D01*
X47623809Y-93500000D01*
X47661904Y-93538095D01*
X47700000Y-93614285D01*
X47700000Y-93728571D01*
X47661904Y-93804761D01*
X47623809Y-93842857D01*
X47547619Y-93880952D01*
X47242857Y-93880952D01*
X48347619Y-94223809D02*
X48271428Y-94261904D01*
X48119047Y-94261904D01*
X48042857Y-94223809D01*
X48004761Y-94147619D01*
X48004761Y-93842857D01*
X48042857Y-93766666D01*
X48119047Y-93728571D01*
X48271428Y-93728571D01*
X48347619Y-93766666D01*
X48385714Y-93842857D01*
X48385714Y-93919047D01*
X48004761Y-93995238D01*
X48652380Y-93728571D02*
X48842857Y-94261904D01*
X49033333Y-93728571D01*
X49300000Y-93538095D02*
X49338095Y-93500000D01*
X49414285Y-93461904D01*
X49604761Y-93461904D01*
X49680952Y-93500000D01*
X49719047Y-93538095D01*
X49757142Y-93614285D01*
X49757142Y-93690476D01*
X49719047Y-93804761D01*
X49261904Y-94261904D01*
X49757142Y-94261904D01*
X50290476Y-94528571D02*
X50290476Y-93385714D01*
X50823809Y-93538095D02*
X50861904Y-93500000D01*
X50938095Y-93461904D01*
X51128571Y-93461904D01*
X51204761Y-93500000D01*
X51242857Y-93538095D01*
X51280952Y-93614285D01*
X51280952Y-93690476D01*
X51242857Y-93804761D01*
X50785714Y-94261904D01*
X51280952Y-94261904D01*
X51776190Y-93461904D02*
X51852380Y-93461904D01*
X51928571Y-93500000D01*
X51966666Y-93538095D01*
X52004761Y-93614285D01*
X52042857Y-93766666D01*
X52042857Y-93957142D01*
X52004761Y-94109523D01*
X51966666Y-94185714D01*
X51928571Y-94223809D01*
X51852380Y-94261904D01*
X51776190Y-94261904D01*
X51700000Y-94223809D01*
X51661904Y-94185714D01*
X51623809Y-94109523D01*
X51585714Y-93957142D01*
X51585714Y-93766666D01*
X51623809Y-93614285D01*
X51661904Y-93538095D01*
X51700000Y-93500000D01*
X51776190Y-93461904D01*
X52347619Y-93538095D02*
X52385714Y-93500000D01*
X52461904Y-93461904D01*
X52652380Y-93461904D01*
X52728571Y-93500000D01*
X52766666Y-93538095D01*
X52804761Y-93614285D01*
X52804761Y-93690476D01*
X52766666Y-93804761D01*
X52309523Y-94261904D01*
X52804761Y-94261904D01*
X53300000Y-93461904D02*
X53376190Y-93461904D01*
X53452380Y-93500000D01*
X53490476Y-93538095D01*
X53528571Y-93614285D01*
X53566666Y-93766666D01*
X53566666Y-93957142D01*
X53528571Y-94109523D01*
X53490476Y-94185714D01*
X53452380Y-94223809D01*
X53376190Y-94261904D01*
X53300000Y-94261904D01*
X53223809Y-94223809D01*
X53185714Y-94185714D01*
X53147619Y-94109523D01*
X53109523Y-93957142D01*
X53109523Y-93766666D01*
X53147619Y-93614285D01*
X53185714Y-93538095D01*
X53223809Y-93500000D01*
X53300000Y-93461904D01*
X53909523Y-93957142D02*
X54519047Y-93957142D01*
X55052380Y-93461904D02*
X55128571Y-93461904D01*
X55204761Y-93500000D01*
X55242857Y-93538095D01*
X55280952Y-93614285D01*
X55319047Y-93766666D01*
X55319047Y-93957142D01*
X55280952Y-94109523D01*
X55242857Y-94185714D01*
X55204761Y-94223809D01*
X55128571Y-94261904D01*
X55052380Y-94261904D01*
X54976190Y-94223809D01*
X54938095Y-94185714D01*
X54900000Y-94109523D01*
X54861904Y-93957142D01*
X54861904Y-93766666D01*
X54900000Y-93614285D01*
X54938095Y-93538095D01*
X54976190Y-93500000D01*
X55052380Y-93461904D01*
X55776190Y-93804761D02*
X55700000Y-93766666D01*
X55661904Y-93728571D01*
X55623809Y-93652380D01*
X55623809Y-93614285D01*
X55661904Y-93538095D01*
X55700000Y-93500000D01*
X55776190Y-93461904D01*
X55928571Y-93461904D01*
X56004761Y-93500000D01*
X56042857Y-93538095D01*
X56080952Y-93614285D01*
X56080952Y-93652380D01*
X56042857Y-93728571D01*
X56004761Y-93766666D01*
X55928571Y-93804761D01*
X55776190Y-93804761D01*
X55700000Y-93842857D01*
X55661904Y-93880952D01*
X55623809Y-93957142D01*
X55623809Y-94109523D01*
X55661904Y-94185714D01*
X55700000Y-94223809D01*
X55776190Y-94261904D01*
X55928571Y-94261904D01*
X56004761Y-94223809D01*
X56042857Y-94185714D01*
X56080952Y-94109523D01*
X56080952Y-93957142D01*
X56042857Y-93880952D01*
X56004761Y-93842857D01*
X55928571Y-93804761D01*
X56423809Y-93957142D02*
X57033333Y-93957142D01*
X57376190Y-93538095D02*
X57414285Y-93500000D01*
X57490476Y-93461904D01*
X57680952Y-93461904D01*
X57757142Y-93500000D01*
X57795238Y-93538095D01*
X57833333Y-93614285D01*
X57833333Y-93690476D01*
X57795238Y-93804761D01*
X57338095Y-94261904D01*
X57833333Y-94261904D01*
X58328571Y-93461904D02*
X58404761Y-93461904D01*
X58480952Y-93500000D01*
X58519047Y-93538095D01*
X58557142Y-93614285D01*
X58595238Y-93766666D01*
X58595238Y-93957142D01*
X58557142Y-94109523D01*
X58519047Y-94185714D01*
X58480952Y-94223809D01*
X58404761Y-94261904D01*
X58328571Y-94261904D01*
X58252380Y-94223809D01*
X58214285Y-94185714D01*
X58176190Y-94109523D01*
X58138095Y-93957142D01*
X58138095Y-93766666D01*
X58176190Y-93614285D01*
X58214285Y-93538095D01*
X58252380Y-93500000D01*
X58328571Y-93461904D01*
X70890476Y-138861904D02*
X70890476Y-138061904D01*
X71157142Y-138633333D01*
X71423809Y-138061904D01*
X71423809Y-138861904D01*
X71957142Y-138061904D02*
X72109523Y-138061904D01*
X72185714Y-138100000D01*
X72261904Y-138176190D01*
X72300000Y-138328571D01*
X72300000Y-138595238D01*
X72261904Y-138747619D01*
X72185714Y-138823809D01*
X72109523Y-138861904D01*
X71957142Y-138861904D01*
X71880952Y-138823809D01*
X71804761Y-138747619D01*
X71766666Y-138595238D01*
X71766666Y-138328571D01*
X71804761Y-138176190D01*
X71880952Y-138100000D01*
X71957142Y-138061904D01*
X72528571Y-138061904D02*
X72985714Y-138061904D01*
X72757142Y-138861904D02*
X72757142Y-138061904D01*
X73061904Y-138938095D02*
X73671428Y-138938095D01*
X74319047Y-138861904D02*
X74052380Y-138480952D01*
X73861904Y-138861904D02*
X73861904Y-138061904D01*
X74166666Y-138061904D01*
X74242857Y-138100000D01*
X74280952Y-138138095D01*
X74319047Y-138214285D01*
X74319047Y-138328571D01*
X74280952Y-138404761D01*
X74242857Y-138442857D01*
X74166666Y-138480952D01*
X73861904Y-138480952D01*
X74661904Y-138861904D02*
X74661904Y-138061904D01*
X75461904Y-138100000D02*
X75385714Y-138061904D01*
X75271428Y-138061904D01*
X75157142Y-138100000D01*
X75080952Y-138176190D01*
X75042857Y-138252380D01*
X75004761Y-138404761D01*
X75004761Y-138519047D01*
X75042857Y-138671428D01*
X75080952Y-138747619D01*
X75157142Y-138823809D01*
X75271428Y-138861904D01*
X75347619Y-138861904D01*
X75461904Y-138823809D01*
X75500000Y-138785714D01*
X75500000Y-138519047D01*
X75347619Y-138519047D01*
X75842857Y-138861904D02*
X75842857Y-138061904D01*
X75842857Y-138442857D02*
X76300000Y-138442857D01*
X76300000Y-138861904D02*
X76300000Y-138061904D01*
X76566666Y-138061904D02*
X77023809Y-138061904D01*
X76795238Y-138861904D02*
X76795238Y-138061904D01*
D12*
X47338095Y-92504761D02*
X47338095Y-90504761D01*
X48480952Y-92504761D01*
X48480952Y-90504761D01*
X49338095Y-92409523D02*
X49623809Y-92504761D01*
X50100000Y-92504761D01*
X50290476Y-92409523D01*
X50385714Y-92314285D01*
X50480952Y-92123809D01*
X50480952Y-91933333D01*
X50385714Y-91742857D01*
X50290476Y-91647619D01*
X50100000Y-91552380D01*
X49719047Y-91457142D01*
X49528571Y-91361904D01*
X49433333Y-91266666D01*
X49338095Y-91076190D01*
X49338095Y-90885714D01*
X49433333Y-90695238D01*
X49528571Y-90600000D01*
X49719047Y-90504761D01*
X50195238Y-90504761D01*
X50480952Y-90600000D01*
X51338095Y-90504761D02*
X51338095Y-92123809D01*
X51433333Y-92314285D01*
X51528571Y-92409523D01*
X51719047Y-92504761D01*
X52100000Y-92504761D01*
X52290476Y-92409523D01*
X52385714Y-92314285D01*
X52480952Y-92123809D01*
X52480952Y-90504761D01*
X53433333Y-92504761D02*
X53433333Y-90504761D01*
X54100000Y-91933333D01*
X54766666Y-90504761D01*
X54766666Y-92504761D01*
X56100000Y-90504761D02*
X56480952Y-90504761D01*
X56671428Y-90600000D01*
X56861904Y-90790476D01*
X56957142Y-91171428D01*
X56957142Y-91838095D01*
X56861904Y-92219047D01*
X56671428Y-92409523D01*
X56480952Y-92504761D01*
X56100000Y-92504761D01*
X55909523Y-92409523D01*
X55719047Y-92219047D01*
X55623809Y-91838095D01*
X55623809Y-91171428D01*
X55719047Y-90790476D01*
X55909523Y-90600000D01*
X56100000Y-90504761D01*
D10*
X76095238Y-123857142D02*
X76704761Y-123857142D01*
X76400000Y-124161904D02*
X76400000Y-123552380D01*
X30071428Y-138761904D02*
X30071428Y-137961904D01*
X30338095Y-138533333D01*
X30604761Y-137961904D01*
X30604761Y-138761904D01*
X31138095Y-137961904D02*
X31290476Y-137961904D01*
X31366666Y-138000000D01*
X31442857Y-138076190D01*
X31480952Y-138228571D01*
X31480952Y-138495238D01*
X31442857Y-138647619D01*
X31366666Y-138723809D01*
X31290476Y-138761904D01*
X31138095Y-138761904D01*
X31061904Y-138723809D01*
X30985714Y-138647619D01*
X30947619Y-138495238D01*
X30947619Y-138228571D01*
X30985714Y-138076190D01*
X31061904Y-138000000D01*
X31138095Y-137961904D01*
X31709523Y-137961904D02*
X32166666Y-137961904D01*
X31938095Y-138761904D02*
X31938095Y-137961904D01*
X32242857Y-138838095D02*
X32852380Y-138838095D01*
X33423809Y-138761904D02*
X33042857Y-138761904D01*
X33042857Y-137961904D01*
X33690476Y-138342857D02*
X33957142Y-138342857D01*
X34071428Y-138761904D02*
X33690476Y-138761904D01*
X33690476Y-137961904D01*
X34071428Y-137961904D01*
X34680952Y-138342857D02*
X34414285Y-138342857D01*
X34414285Y-138761904D02*
X34414285Y-137961904D01*
X34795238Y-137961904D01*
X34985714Y-137961904D02*
X35442857Y-137961904D01*
X35214285Y-138761904D02*
X35214285Y-137961904D01*
D13*
X45323809Y-121461904D02*
X45780952Y-121461904D01*
X45552380Y-122261904D02*
X45552380Y-121461904D01*
X46047619Y-121842857D02*
X46314285Y-121842857D01*
X46428571Y-122261904D02*
X46047619Y-122261904D01*
X46047619Y-121461904D01*
X46428571Y-121461904D01*
X46733333Y-122223809D02*
X46847619Y-122261904D01*
X47038095Y-122261904D01*
X47114285Y-122223809D01*
X47152380Y-122185714D01*
X47190476Y-122109523D01*
X47190476Y-122033333D01*
X47152380Y-121957142D01*
X47114285Y-121919047D01*
X47038095Y-121880952D01*
X46885714Y-121842857D01*
X46809523Y-121804761D01*
X46771428Y-121766666D01*
X46733333Y-121690476D01*
X46733333Y-121614285D01*
X46771428Y-121538095D01*
X46809523Y-121500000D01*
X46885714Y-121461904D01*
X47076190Y-121461904D01*
X47190476Y-121500000D01*
X47419047Y-121461904D02*
X47876190Y-121461904D01*
X47647619Y-122261904D02*
X47647619Y-121461904D01*
D10*
X50690476Y-124000000D02*
X50614285Y-123961904D01*
X50500000Y-123961904D01*
X50385714Y-124000000D01*
X50309523Y-124076190D01*
X50271428Y-124152380D01*
X50233333Y-124304761D01*
X50233333Y-124419047D01*
X50271428Y-124571428D01*
X50309523Y-124647619D01*
X50385714Y-124723809D01*
X50500000Y-124761904D01*
X50576190Y-124761904D01*
X50690476Y-124723809D01*
X50728571Y-124685714D01*
X50728571Y-124419047D01*
X50576190Y-124419047D01*
X51071428Y-124761904D02*
X51071428Y-123961904D01*
X51528571Y-124761904D01*
X51528571Y-123961904D01*
X51909523Y-124761904D02*
X51909523Y-123961904D01*
X52100000Y-123961904D01*
X52214285Y-124000000D01*
X52290476Y-124076190D01*
X52328571Y-124152380D01*
X52366666Y-124304761D01*
X52366666Y-124419047D01*
X52328571Y-124571428D01*
X52290476Y-124647619D01*
X52214285Y-124723809D01*
X52100000Y-124761904D01*
X51909523Y-124761904D01*
X53038095Y-124161904D02*
X53495238Y-124161904D01*
X53266666Y-124961904D02*
X53266666Y-124161904D01*
X53761904Y-124542857D02*
X54028571Y-124542857D01*
X54142857Y-124961904D02*
X53761904Y-124961904D01*
X53761904Y-124161904D01*
X54142857Y-124161904D01*
X54447619Y-124923809D02*
X54561904Y-124961904D01*
X54752380Y-124961904D01*
X54828571Y-124923809D01*
X54866666Y-124885714D01*
X54904761Y-124809523D01*
X54904761Y-124733333D01*
X54866666Y-124657142D01*
X54828571Y-124619047D01*
X54752380Y-124580952D01*
X54600000Y-124542857D01*
X54523809Y-124504761D01*
X54485714Y-124466666D01*
X54447619Y-124390476D01*
X54447619Y-124314285D01*
X54485714Y-124238095D01*
X54523809Y-124200000D01*
X54600000Y-124161904D01*
X54790476Y-124161904D01*
X54904761Y-124200000D01*
X55133333Y-124161904D02*
X55590476Y-124161904D01*
X55361904Y-124961904D02*
X55361904Y-124161904D01*
X56238095Y-124961904D02*
X55857142Y-124961904D01*
X55857142Y-124161904D01*
X56504761Y-124542857D02*
X56771428Y-124542857D01*
X56885714Y-124961904D02*
X56504761Y-124961904D01*
X56504761Y-124161904D01*
X56885714Y-124161904D01*
X57228571Y-124961904D02*
X57228571Y-124161904D01*
X57419047Y-124161904D01*
X57533333Y-124200000D01*
X57609523Y-124276190D01*
X57647619Y-124352380D01*
X57685714Y-124504761D01*
X57685714Y-124619047D01*
X57647619Y-124771428D01*
X57609523Y-124847619D01*
X57533333Y-124923809D01*
X57419047Y-124961904D01*
X57228571Y-124961904D01*
D13*
X46529523Y-112181904D02*
X47024761Y-112181904D01*
X46758095Y-112486666D01*
X46872380Y-112486666D01*
X46948571Y-112524761D01*
X46986666Y-112562857D01*
X47024761Y-112639047D01*
X47024761Y-112829523D01*
X46986666Y-112905714D01*
X46948571Y-112943809D01*
X46872380Y-112981904D01*
X46643809Y-112981904D01*
X46567619Y-112943809D01*
X46529523Y-112905714D01*
X47253333Y-112181904D02*
X47520000Y-112981904D01*
X47786666Y-112181904D01*
X47977142Y-112181904D02*
X48472380Y-112181904D01*
X48205714Y-112486666D01*
X48320000Y-112486666D01*
X48396190Y-112524761D01*
X48434285Y-112562857D01*
X48472380Y-112639047D01*
X48472380Y-112829523D01*
X48434285Y-112905714D01*
X48396190Y-112943809D01*
X48320000Y-112981904D01*
X48091428Y-112981904D01*
X48015238Y-112943809D01*
X47977142Y-112905714D01*
X49061904Y-117538095D02*
X48680952Y-117804761D01*
X49061904Y-117995238D02*
X48261904Y-117995238D01*
X48261904Y-117690476D01*
X48300000Y-117614285D01*
X48338095Y-117576190D01*
X48414285Y-117538095D01*
X48528571Y-117538095D01*
X48604761Y-117576190D01*
X48642857Y-117614285D01*
X48680952Y-117690476D01*
X48680952Y-117995238D01*
X49023809Y-117233333D02*
X49061904Y-117119047D01*
X49061904Y-116928571D01*
X49023809Y-116852380D01*
X48985714Y-116814285D01*
X48909523Y-116776190D01*
X48833333Y-116776190D01*
X48757142Y-116814285D01*
X48719047Y-116852380D01*
X48680952Y-116928571D01*
X48642857Y-117080952D01*
X48604761Y-117157142D01*
X48566666Y-117195238D01*
X48490476Y-117233333D01*
X48414285Y-117233333D01*
X48338095Y-117195238D01*
X48300000Y-117157142D01*
X48261904Y-117080952D01*
X48261904Y-116890476D01*
X48300000Y-116776190D01*
X48261904Y-116547619D02*
X48261904Y-116090476D01*
X49061904Y-116319047D02*
X48261904Y-116319047D01*
D10*
X61561904Y-102761904D02*
X61180952Y-102761904D01*
X61180952Y-101961904D01*
X61828571Y-102342857D02*
X62095238Y-102342857D01*
X62209523Y-102761904D02*
X61828571Y-102761904D01*
X61828571Y-101961904D01*
X62209523Y-101961904D01*
X62552380Y-102761904D02*
X62552380Y-101961904D01*
X62742857Y-101961904D01*
X62857142Y-102000000D01*
X62933333Y-102076190D01*
X62971428Y-102152380D01*
X63009523Y-102304761D01*
X63009523Y-102419047D01*
X62971428Y-102571428D01*
X62933333Y-102647619D01*
X62857142Y-102723809D01*
X62742857Y-102761904D01*
X62552380Y-102761904D01*
X63733333Y-101961904D02*
X63352380Y-101961904D01*
X63314285Y-102342857D01*
X63352380Y-102304761D01*
X63428571Y-102266666D01*
X63619047Y-102266666D01*
X63695238Y-102304761D01*
X63733333Y-102342857D01*
X63771428Y-102419047D01*
X63771428Y-102609523D01*
X63733333Y-102685714D01*
X63695238Y-102723809D01*
X63619047Y-102761904D01*
X63428571Y-102761904D01*
X63352380Y-102723809D01*
X63314285Y-102685714D01*
X64000000Y-101961904D02*
X64266666Y-102761904D01*
X64533333Y-101961904D01*
X57961904Y-101019047D02*
X57961904Y-101400000D01*
X57161904Y-101400000D01*
X57542857Y-100752380D02*
X57542857Y-100485714D01*
X57961904Y-100371428D02*
X57961904Y-100752380D01*
X57161904Y-100752380D01*
X57161904Y-100371428D01*
X57961904Y-100028571D02*
X57161904Y-100028571D01*
X57161904Y-99838095D01*
X57200000Y-99723809D01*
X57276190Y-99647619D01*
X57352380Y-99609523D01*
X57504761Y-99571428D01*
X57619047Y-99571428D01*
X57771428Y-99609523D01*
X57847619Y-99647619D01*
X57923809Y-99723809D01*
X57961904Y-99838095D01*
X57961904Y-100028571D01*
X57161904Y-99304761D02*
X57161904Y-98809523D01*
X57466666Y-99076190D01*
X57466666Y-98961904D01*
X57504761Y-98885714D01*
X57542857Y-98847619D01*
X57619047Y-98809523D01*
X57809523Y-98809523D01*
X57885714Y-98847619D01*
X57923809Y-98885714D01*
X57961904Y-98961904D01*
X57961904Y-99190476D01*
X57923809Y-99266666D01*
X57885714Y-99304761D01*
X57161904Y-98580952D02*
X57961904Y-98314285D01*
X57161904Y-98047619D01*
X57161904Y-97857142D02*
X57161904Y-97361904D01*
X57466666Y-97628571D01*
X57466666Y-97514285D01*
X57504761Y-97438095D01*
X57542857Y-97400000D01*
X57619047Y-97361904D01*
X57809523Y-97361904D01*
X57885714Y-97400000D01*
X57923809Y-97438095D01*
X57961904Y-97514285D01*
X57961904Y-97742857D01*
X57923809Y-97819047D01*
X57885714Y-97857142D01*
X64947619Y-96061904D02*
X64566666Y-96061904D01*
X64528571Y-96442857D01*
X64566666Y-96404761D01*
X64642857Y-96366666D01*
X64833333Y-96366666D01*
X64909523Y-96404761D01*
X64947619Y-96442857D01*
X64985714Y-96519047D01*
X64985714Y-96709523D01*
X64947619Y-96785714D01*
X64909523Y-96823809D01*
X64833333Y-96861904D01*
X64642857Y-96861904D01*
X64566666Y-96823809D01*
X64528571Y-96785714D01*
X65214285Y-96061904D02*
X65480952Y-96861904D01*
X65747619Y-96061904D01*
X58979523Y-95981904D02*
X59474761Y-95981904D01*
X59208095Y-96286666D01*
X59322380Y-96286666D01*
X59398571Y-96324761D01*
X59436666Y-96362857D01*
X59474761Y-96439047D01*
X59474761Y-96629523D01*
X59436666Y-96705714D01*
X59398571Y-96743809D01*
X59322380Y-96781904D01*
X59093809Y-96781904D01*
X59017619Y-96743809D01*
X58979523Y-96705714D01*
X59703333Y-95981904D02*
X59970000Y-96781904D01*
X60236666Y-95981904D01*
X60427142Y-95981904D02*
X60922380Y-95981904D01*
X60655714Y-96286666D01*
X60770000Y-96286666D01*
X60846190Y-96324761D01*
X60884285Y-96362857D01*
X60922380Y-96439047D01*
X60922380Y-96629523D01*
X60884285Y-96705714D01*
X60846190Y-96743809D01*
X60770000Y-96781904D01*
X60541428Y-96781904D01*
X60465238Y-96743809D01*
X60427142Y-96705714D01*
X77623809Y-121714285D02*
X77661904Y-121638095D01*
X77661904Y-121485714D01*
X77623809Y-121409523D01*
X77547619Y-121371428D01*
X77509523Y-121371428D01*
X77433333Y-121409523D01*
X77395238Y-121485714D01*
X77395238Y-121600000D01*
X77357142Y-121676190D01*
X77280952Y-121714285D01*
X77242857Y-121714285D01*
X77166666Y-121676190D01*
X77128571Y-121600000D01*
X77128571Y-121485714D01*
X77166666Y-121409523D01*
X77128571Y-121104761D02*
X77661904Y-120952380D01*
X77280952Y-120800000D01*
X77661904Y-120647619D01*
X77128571Y-120495238D01*
X77661904Y-120190476D02*
X77128571Y-120190476D01*
X76861904Y-120190476D02*
X76900000Y-120228571D01*
X76938095Y-120190476D01*
X76900000Y-120152380D01*
X76861904Y-120190476D01*
X76938095Y-120190476D01*
X77128571Y-119923809D02*
X77128571Y-119619047D01*
X76861904Y-119809523D02*
X77547619Y-119809523D01*
X77623809Y-119771428D01*
X77661904Y-119695238D01*
X77661904Y-119619047D01*
X77623809Y-119009523D02*
X77661904Y-119085714D01*
X77661904Y-119238095D01*
X77623809Y-119314285D01*
X77585714Y-119352380D01*
X77509523Y-119390476D01*
X77280952Y-119390476D01*
X77204761Y-119352380D01*
X77166666Y-119314285D01*
X77128571Y-119238095D01*
X77128571Y-119085714D01*
X77166666Y-119009523D01*
X77661904Y-118666666D02*
X76861904Y-118666666D01*
X77661904Y-118323809D02*
X77242857Y-118323809D01*
X77166666Y-118361904D01*
X77128571Y-118438095D01*
X77128571Y-118552380D01*
X77166666Y-118628571D01*
X77204761Y-118666666D01*
X69195238Y-114657142D02*
X69804761Y-114657142D01*
X69500000Y-114961904D02*
X69500000Y-114352380D01*
X69195238Y-107257142D02*
X69804761Y-107257142D01*
X69500000Y-107561904D02*
X69500000Y-106952380D01*
X75590476Y-102089000D02*
X75514285Y-102050904D01*
X75400000Y-102050904D01*
X75285714Y-102089000D01*
X75209523Y-102165190D01*
X75171428Y-102241380D01*
X75133333Y-102393761D01*
X75133333Y-102508047D01*
X75171428Y-102660428D01*
X75209523Y-102736619D01*
X75285714Y-102812809D01*
X75400000Y-102850904D01*
X75476190Y-102850904D01*
X75590476Y-102812809D01*
X75628571Y-102774714D01*
X75628571Y-102508047D01*
X75476190Y-102508047D01*
X75971428Y-102850904D02*
X75971428Y-102050904D01*
X76428571Y-102850904D01*
X76428571Y-102050904D01*
X76809523Y-102850904D02*
X76809523Y-102050904D01*
X77000000Y-102050904D01*
X77114285Y-102089000D01*
X77190476Y-102165190D01*
X77228571Y-102241380D01*
X77266666Y-102393761D01*
X77266666Y-102508047D01*
X77228571Y-102660428D01*
X77190476Y-102736619D01*
X77114285Y-102812809D01*
X77000000Y-102850904D01*
X76809523Y-102850904D01*
X44938095Y-139309523D02*
X44938095Y-138928571D01*
X45738095Y-138928571D01*
X44938095Y-139576190D02*
X45738095Y-139576190D01*
X45738095Y-139766666D01*
X45700000Y-139880952D01*
X45623809Y-139957142D01*
X45547619Y-139995238D01*
X45395238Y-140033333D01*
X45280952Y-140033333D01*
X45128571Y-139995238D01*
X45052380Y-139957142D01*
X44976190Y-139880952D01*
X44938095Y-139766666D01*
X44938095Y-139576190D01*
X44861904Y-140185714D02*
X44861904Y-140795238D01*
X45357142Y-141252380D02*
X45319047Y-141366666D01*
X45280952Y-141404761D01*
X45204761Y-141442857D01*
X45090476Y-141442857D01*
X45014285Y-141404761D01*
X44976190Y-141366666D01*
X44938095Y-141290476D01*
X44938095Y-140985714D01*
X45738095Y-140985714D01*
X45738095Y-141252380D01*
X45700000Y-141328571D01*
X45661904Y-141366666D01*
X45585714Y-141404761D01*
X45509523Y-141404761D01*
X45433333Y-141366666D01*
X45395238Y-141328571D01*
X45357142Y-141252380D01*
X45357142Y-140985714D01*
X44938095Y-142166666D02*
X44938095Y-141785714D01*
X45738095Y-141785714D01*
X45357142Y-142433333D02*
X45357142Y-142700000D01*
X44938095Y-142814285D02*
X44938095Y-142433333D01*
X45738095Y-142433333D01*
X45738095Y-142814285D01*
X45357142Y-143423809D02*
X45357142Y-143157142D01*
X44938095Y-143157142D02*
X45738095Y-143157142D01*
X45738095Y-143538095D01*
X45738095Y-143728571D02*
X45738095Y-144185714D01*
X44938095Y-143957142D02*
X45738095Y-143957142D01*
X60861904Y-143971428D02*
X60861904Y-144352380D01*
X60061904Y-144352380D01*
X60861904Y-143704761D02*
X60061904Y-143704761D01*
X60061904Y-143514285D01*
X60100000Y-143400000D01*
X60176190Y-143323809D01*
X60252380Y-143285714D01*
X60404761Y-143247619D01*
X60519047Y-143247619D01*
X60671428Y-143285714D01*
X60747619Y-143323809D01*
X60823809Y-143400000D01*
X60861904Y-143514285D01*
X60861904Y-143704761D01*
X60938095Y-143095238D02*
X60938095Y-142485714D01*
X60442857Y-142028571D02*
X60480952Y-141914285D01*
X60519047Y-141876190D01*
X60595238Y-141838095D01*
X60709523Y-141838095D01*
X60785714Y-141876190D01*
X60823809Y-141914285D01*
X60861904Y-141990476D01*
X60861904Y-142295238D01*
X60061904Y-142295238D01*
X60061904Y-142028571D01*
X60100000Y-141952380D01*
X60138095Y-141914285D01*
X60214285Y-141876190D01*
X60290476Y-141876190D01*
X60366666Y-141914285D01*
X60404761Y-141952380D01*
X60442857Y-142028571D01*
X60442857Y-142295238D01*
X60861904Y-141038095D02*
X60480952Y-141304761D01*
X60861904Y-141495238D02*
X60061904Y-141495238D01*
X60061904Y-141190476D01*
X60100000Y-141114285D01*
X60138095Y-141076190D01*
X60214285Y-141038095D01*
X60328571Y-141038095D01*
X60404761Y-141076190D01*
X60442857Y-141114285D01*
X60480952Y-141190476D01*
X60480952Y-141495238D01*
X60861904Y-140695238D02*
X60061904Y-140695238D01*
X60100000Y-139895238D02*
X60061904Y-139971428D01*
X60061904Y-140085714D01*
X60100000Y-140200000D01*
X60176190Y-140276190D01*
X60252380Y-140314285D01*
X60404761Y-140352380D01*
X60519047Y-140352380D01*
X60671428Y-140314285D01*
X60747619Y-140276190D01*
X60823809Y-140200000D01*
X60861904Y-140085714D01*
X60861904Y-140009523D01*
X60823809Y-139895238D01*
X60785714Y-139857142D01*
X60519047Y-139857142D01*
X60519047Y-140009523D01*
X60861904Y-139514285D02*
X60061904Y-139514285D01*
X60442857Y-139514285D02*
X60442857Y-139057142D01*
X60861904Y-139057142D02*
X60061904Y-139057142D01*
X60061904Y-138790476D02*
X60061904Y-138333333D01*
X60861904Y-138561904D02*
X60061904Y-138561904D01*
X49051904Y-142730000D02*
X49051904Y-142577619D01*
X49090000Y-142501428D01*
X49166190Y-142425238D01*
X49318571Y-142387142D01*
X49585238Y-142387142D01*
X49737619Y-142425238D01*
X49813809Y-142501428D01*
X49851904Y-142577619D01*
X49851904Y-142730000D01*
X49813809Y-142806190D01*
X49737619Y-142882380D01*
X49585238Y-142920476D01*
X49318571Y-142920476D01*
X49166190Y-142882380D01*
X49090000Y-142806190D01*
X49051904Y-142730000D01*
X49051904Y-142044285D02*
X49699523Y-142044285D01*
X49775714Y-142006190D01*
X49813809Y-141968095D01*
X49851904Y-141891904D01*
X49851904Y-141739523D01*
X49813809Y-141663333D01*
X49775714Y-141625238D01*
X49699523Y-141587142D01*
X49051904Y-141587142D01*
X49051904Y-141320476D02*
X49051904Y-140863333D01*
X49851904Y-141091904D02*
X49051904Y-141091904D01*
X47831904Y-142890476D02*
X47831904Y-142395238D01*
X48136666Y-142661904D01*
X48136666Y-142547619D01*
X48174761Y-142471428D01*
X48212857Y-142433333D01*
X48289047Y-142395238D01*
X48479523Y-142395238D01*
X48555714Y-142433333D01*
X48593809Y-142471428D01*
X48631904Y-142547619D01*
X48631904Y-142776190D01*
X48593809Y-142852380D01*
X48555714Y-142890476D01*
X47831904Y-142166666D02*
X48631904Y-141900000D01*
X47831904Y-141633333D01*
X47831904Y-141442857D02*
X47831904Y-140947619D01*
X48136666Y-141214285D01*
X48136666Y-141100000D01*
X48174761Y-141023809D01*
X48212857Y-140985714D01*
X48289047Y-140947619D01*
X48479523Y-140947619D01*
X48555714Y-140985714D01*
X48593809Y-141023809D01*
X48631904Y-141100000D01*
X48631904Y-141328571D01*
X48593809Y-141404761D01*
X48555714Y-141442857D01*
X50360000Y-142569523D02*
X50321904Y-142645714D01*
X50321904Y-142760000D01*
X50360000Y-142874285D01*
X50436190Y-142950476D01*
X50512380Y-142988571D01*
X50664761Y-143026666D01*
X50779047Y-143026666D01*
X50931428Y-142988571D01*
X51007619Y-142950476D01*
X51083809Y-142874285D01*
X51121904Y-142760000D01*
X51121904Y-142683809D01*
X51083809Y-142569523D01*
X51045714Y-142531428D01*
X50779047Y-142531428D01*
X50779047Y-142683809D01*
X51121904Y-142188571D02*
X50321904Y-142188571D01*
X51121904Y-141731428D01*
X50321904Y-141731428D01*
X51121904Y-141350476D02*
X50321904Y-141350476D01*
X50321904Y-141160000D01*
X50360000Y-141045714D01*
X50436190Y-140969523D01*
X50512380Y-140931428D01*
X50664761Y-140893333D01*
X50779047Y-140893333D01*
X50931428Y-140931428D01*
X51007619Y-140969523D01*
X51083809Y-141045714D01*
X51121904Y-141160000D01*
X51121904Y-141350476D01*
X56121904Y-142670000D02*
X56121904Y-142517619D01*
X56160000Y-142441428D01*
X56236190Y-142365238D01*
X56388571Y-142327142D01*
X56655238Y-142327142D01*
X56807619Y-142365238D01*
X56883809Y-142441428D01*
X56921904Y-142517619D01*
X56921904Y-142670000D01*
X56883809Y-142746190D01*
X56807619Y-142822380D01*
X56655238Y-142860476D01*
X56388571Y-142860476D01*
X56236190Y-142822380D01*
X56160000Y-142746190D01*
X56121904Y-142670000D01*
X56121904Y-141984285D02*
X56769523Y-141984285D01*
X56845714Y-141946190D01*
X56883809Y-141908095D01*
X56921904Y-141831904D01*
X56921904Y-141679523D01*
X56883809Y-141603333D01*
X56845714Y-141565238D01*
X56769523Y-141527142D01*
X56121904Y-141527142D01*
X56121904Y-141260476D02*
X56121904Y-140803333D01*
X56921904Y-141031904D02*
X56121904Y-141031904D01*
X54821904Y-142820476D02*
X54821904Y-142325238D01*
X55126666Y-142591904D01*
X55126666Y-142477619D01*
X55164761Y-142401428D01*
X55202857Y-142363333D01*
X55279047Y-142325238D01*
X55469523Y-142325238D01*
X55545714Y-142363333D01*
X55583809Y-142401428D01*
X55621904Y-142477619D01*
X55621904Y-142706190D01*
X55583809Y-142782380D01*
X55545714Y-142820476D01*
X54821904Y-142096666D02*
X55621904Y-141830000D01*
X54821904Y-141563333D01*
X54821904Y-141372857D02*
X54821904Y-140877619D01*
X55126666Y-141144285D01*
X55126666Y-141030000D01*
X55164761Y-140953809D01*
X55202857Y-140915714D01*
X55279047Y-140877619D01*
X55469523Y-140877619D01*
X55545714Y-140915714D01*
X55583809Y-140953809D01*
X55621904Y-141030000D01*
X55621904Y-141258571D01*
X55583809Y-141334761D01*
X55545714Y-141372857D01*
X57390000Y-142529523D02*
X57351904Y-142605714D01*
X57351904Y-142720000D01*
X57390000Y-142834285D01*
X57466190Y-142910476D01*
X57542380Y-142948571D01*
X57694761Y-142986666D01*
X57809047Y-142986666D01*
X57961428Y-142948571D01*
X58037619Y-142910476D01*
X58113809Y-142834285D01*
X58151904Y-142720000D01*
X58151904Y-142643809D01*
X58113809Y-142529523D01*
X58075714Y-142491428D01*
X57809047Y-142491428D01*
X57809047Y-142643809D01*
X58151904Y-142148571D02*
X57351904Y-142148571D01*
X58151904Y-141691428D01*
X57351904Y-141691428D01*
X58151904Y-141310476D02*
X57351904Y-141310476D01*
X57351904Y-141120000D01*
X57390000Y-141005714D01*
X57466190Y-140929523D01*
X57542380Y-140891428D01*
X57694761Y-140853333D01*
X57809047Y-140853333D01*
X57961428Y-140891428D01*
X58037619Y-140929523D01*
X58113809Y-141005714D01*
X58151904Y-141120000D01*
X58151904Y-141310476D01*
X55638095Y-82376190D02*
X56438095Y-82376190D01*
X55638095Y-82757142D02*
X56438095Y-82757142D01*
X55638095Y-83214285D01*
X56438095Y-83214285D01*
X56438095Y-83480952D02*
X56438095Y-83938095D01*
X55638095Y-83709523D02*
X56438095Y-83709523D01*
X55238095Y-81933333D02*
X54438095Y-82466666D01*
X55238095Y-82466666D02*
X54438095Y-81933333D01*
X54476190Y-82733333D02*
X54438095Y-82847619D01*
X54438095Y-83038095D01*
X54476190Y-83114285D01*
X54514285Y-83152380D01*
X54590476Y-83190476D01*
X54666666Y-83190476D01*
X54742857Y-83152380D01*
X54780952Y-83114285D01*
X54819047Y-83038095D01*
X54857142Y-82885714D01*
X54895238Y-82809523D01*
X54933333Y-82771428D01*
X55009523Y-82733333D01*
X55085714Y-82733333D01*
X55161904Y-82771428D01*
X55200000Y-82809523D01*
X55238095Y-82885714D01*
X55238095Y-83076190D01*
X55200000Y-83190476D01*
X54438095Y-83533333D02*
X55238095Y-83533333D01*
X54857142Y-83533333D02*
X54857142Y-83990476D01*
X54438095Y-83990476D02*
X55238095Y-83990476D01*
X50238095Y-82047619D02*
X50238095Y-82542857D01*
X49933333Y-82276190D01*
X49933333Y-82390476D01*
X49895238Y-82466666D01*
X49857142Y-82504761D01*
X49780952Y-82542857D01*
X49590476Y-82542857D01*
X49514285Y-82504761D01*
X49476190Y-82466666D01*
X49438095Y-82390476D01*
X49438095Y-82161904D01*
X49476190Y-82085714D01*
X49514285Y-82047619D01*
X49971428Y-82809523D02*
X49438095Y-83000000D01*
X49971428Y-83190476D01*
X50238095Y-83419047D02*
X50238095Y-83914285D01*
X49933333Y-83647619D01*
X49933333Y-83761904D01*
X49895238Y-83838095D01*
X49857142Y-83876190D01*
X49780952Y-83914285D01*
X49590476Y-83914285D01*
X49514285Y-83876190D01*
X49476190Y-83838095D01*
X49438095Y-83761904D01*
X49438095Y-83533333D01*
X49476190Y-83457142D01*
X49514285Y-83419047D01*
X51400000Y-82390476D02*
X51438095Y-82314285D01*
X51438095Y-82200000D01*
X51400000Y-82085714D01*
X51323809Y-82009523D01*
X51247619Y-81971428D01*
X51095238Y-81933333D01*
X50980952Y-81933333D01*
X50828571Y-81971428D01*
X50752380Y-82009523D01*
X50676190Y-82085714D01*
X50638095Y-82200000D01*
X50638095Y-82276190D01*
X50676190Y-82390476D01*
X50714285Y-82428571D01*
X50980952Y-82428571D01*
X50980952Y-82276190D01*
X50638095Y-82771428D02*
X51438095Y-82771428D01*
X50638095Y-83228571D01*
X51438095Y-83228571D01*
X50638095Y-83609523D02*
X51438095Y-83609523D01*
X51438095Y-83800000D01*
X51400000Y-83914285D01*
X51323809Y-83990476D01*
X51247619Y-84028571D01*
X51095238Y-84066666D01*
X50980952Y-84066666D01*
X50828571Y-84028571D01*
X50752380Y-83990476D01*
X50676190Y-83914285D01*
X50638095Y-83800000D01*
X50638095Y-83609523D01*
X53276190Y-81928571D02*
X53238095Y-82042857D01*
X53238095Y-82233333D01*
X53276190Y-82309523D01*
X53314285Y-82347619D01*
X53390476Y-82385714D01*
X53466666Y-82385714D01*
X53542857Y-82347619D01*
X53580952Y-82309523D01*
X53619047Y-82233333D01*
X53657142Y-82080952D01*
X53695238Y-82004761D01*
X53733333Y-81966666D01*
X53809523Y-81928571D01*
X53885714Y-81928571D01*
X53961904Y-81966666D01*
X54000000Y-82004761D01*
X54038095Y-82080952D01*
X54038095Y-82271428D01*
X54000000Y-82385714D01*
X53238095Y-82728571D02*
X54038095Y-82728571D01*
X54038095Y-82919047D01*
X54000000Y-83033333D01*
X53923809Y-83109523D01*
X53847619Y-83147619D01*
X53695238Y-83185714D01*
X53580952Y-83185714D01*
X53428571Y-83147619D01*
X53352380Y-83109523D01*
X53276190Y-83033333D01*
X53238095Y-82919047D01*
X53238095Y-82728571D01*
X53466666Y-83490476D02*
X53466666Y-83871428D01*
X53238095Y-83414285D02*
X54038095Y-83680952D01*
X53238095Y-83947619D01*
X51976190Y-82047619D02*
X51938095Y-82161904D01*
X51938095Y-82352380D01*
X51976190Y-82428571D01*
X52014285Y-82466666D01*
X52090476Y-82504761D01*
X52166666Y-82504761D01*
X52242857Y-82466666D01*
X52280952Y-82428571D01*
X52319047Y-82352380D01*
X52357142Y-82200000D01*
X52395238Y-82123809D01*
X52433333Y-82085714D01*
X52509523Y-82047619D01*
X52585714Y-82047619D01*
X52661904Y-82085714D01*
X52700000Y-82123809D01*
X52738095Y-82200000D01*
X52738095Y-82390476D01*
X52700000Y-82504761D01*
X52014285Y-83304761D02*
X51976190Y-83266666D01*
X51938095Y-83152380D01*
X51938095Y-83076190D01*
X51976190Y-82961904D01*
X52052380Y-82885714D01*
X52128571Y-82847619D01*
X52280952Y-82809523D01*
X52395238Y-82809523D01*
X52547619Y-82847619D01*
X52623809Y-82885714D01*
X52700000Y-82961904D01*
X52738095Y-83076190D01*
X52738095Y-83152380D01*
X52700000Y-83266666D01*
X52661904Y-83304761D01*
X51938095Y-84028571D02*
X51938095Y-83647619D01*
X52738095Y-83647619D01*
X74100000Y-89121904D02*
X74252380Y-89121904D01*
X74328571Y-89160000D01*
X74404761Y-89236190D01*
X74442857Y-89388571D01*
X74442857Y-89655238D01*
X74404761Y-89807619D01*
X74328571Y-89883809D01*
X74252380Y-89921904D01*
X74100000Y-89921904D01*
X74023809Y-89883809D01*
X73947619Y-89807619D01*
X73909523Y-89655238D01*
X73909523Y-89388571D01*
X73947619Y-89236190D01*
X74023809Y-89160000D01*
X74100000Y-89121904D01*
X74785714Y-89121904D02*
X74785714Y-89769523D01*
X74823809Y-89845714D01*
X74861904Y-89883809D01*
X74938095Y-89921904D01*
X75090476Y-89921904D01*
X75166666Y-89883809D01*
X75204761Y-89845714D01*
X75242857Y-89769523D01*
X75242857Y-89121904D01*
X75509523Y-89121904D02*
X75966666Y-89121904D01*
X75738095Y-89921904D02*
X75738095Y-89121904D01*
X73739523Y-91291904D02*
X74234761Y-91291904D01*
X73968095Y-91596666D01*
X74082380Y-91596666D01*
X74158571Y-91634761D01*
X74196666Y-91672857D01*
X74234761Y-91749047D01*
X74234761Y-91939523D01*
X74196666Y-92015714D01*
X74158571Y-92053809D01*
X74082380Y-92091904D01*
X73853809Y-92091904D01*
X73777619Y-92053809D01*
X73739523Y-92015714D01*
X74463333Y-91291904D02*
X74730000Y-92091904D01*
X74996666Y-91291904D01*
X75187142Y-91291904D02*
X75682380Y-91291904D01*
X75415714Y-91596666D01*
X75530000Y-91596666D01*
X75606190Y-91634761D01*
X75644285Y-91672857D01*
X75682380Y-91749047D01*
X75682380Y-91939523D01*
X75644285Y-92015714D01*
X75606190Y-92053809D01*
X75530000Y-92091904D01*
X75301428Y-92091904D01*
X75225238Y-92053809D01*
X75187142Y-92015714D01*
X74340476Y-87890000D02*
X74264285Y-87851904D01*
X74150000Y-87851904D01*
X74035714Y-87890000D01*
X73959523Y-87966190D01*
X73921428Y-88042380D01*
X73883333Y-88194761D01*
X73883333Y-88309047D01*
X73921428Y-88461428D01*
X73959523Y-88537619D01*
X74035714Y-88613809D01*
X74150000Y-88651904D01*
X74226190Y-88651904D01*
X74340476Y-88613809D01*
X74378571Y-88575714D01*
X74378571Y-88309047D01*
X74226190Y-88309047D01*
X74721428Y-88651904D02*
X74721428Y-87851904D01*
X75178571Y-88651904D01*
X75178571Y-87851904D01*
X75559523Y-88651904D02*
X75559523Y-87851904D01*
X75750000Y-87851904D01*
X75864285Y-87890000D01*
X75940476Y-87966190D01*
X75978571Y-88042380D01*
X76016666Y-88194761D01*
X76016666Y-88309047D01*
X75978571Y-88461428D01*
X75940476Y-88537619D01*
X75864285Y-88613809D01*
X75750000Y-88651904D01*
X75559523Y-88651904D01*
X73847619Y-93761904D02*
X74342857Y-93761904D01*
X74076190Y-94066666D01*
X74190476Y-94066666D01*
X74266666Y-94104761D01*
X74304761Y-94142857D01*
X74342857Y-94219047D01*
X74342857Y-94409523D01*
X74304761Y-94485714D01*
X74266666Y-94523809D01*
X74190476Y-94561904D01*
X73961904Y-94561904D01*
X73885714Y-94523809D01*
X73847619Y-94485714D01*
X74609523Y-94028571D02*
X74800000Y-94561904D01*
X74990476Y-94028571D01*
X75219047Y-93761904D02*
X75714285Y-93761904D01*
X75447619Y-94066666D01*
X75561904Y-94066666D01*
X75638095Y-94104761D01*
X75676190Y-94142857D01*
X75714285Y-94219047D01*
X75714285Y-94409523D01*
X75676190Y-94485714D01*
X75638095Y-94523809D01*
X75561904Y-94561904D01*
X75333333Y-94561904D01*
X75257142Y-94523809D01*
X75219047Y-94485714D01*
X74147619Y-100623809D02*
X74261904Y-100661904D01*
X74452380Y-100661904D01*
X74528571Y-100623809D01*
X74566666Y-100585714D01*
X74604761Y-100509523D01*
X74604761Y-100433333D01*
X74566666Y-100357142D01*
X74528571Y-100319047D01*
X74452380Y-100280952D01*
X74300000Y-100242857D01*
X74223809Y-100204761D01*
X74185714Y-100166666D01*
X74147619Y-100090476D01*
X74147619Y-100014285D01*
X74185714Y-99938095D01*
X74223809Y-99900000D01*
X74300000Y-99861904D01*
X74490476Y-99861904D01*
X74604761Y-99900000D01*
X75404761Y-100585714D02*
X75366666Y-100623809D01*
X75252380Y-100661904D01*
X75176190Y-100661904D01*
X75061904Y-100623809D01*
X74985714Y-100547619D01*
X74947619Y-100471428D01*
X74909523Y-100319047D01*
X74909523Y-100204761D01*
X74947619Y-100052380D01*
X74985714Y-99976190D01*
X75061904Y-99900000D01*
X75176190Y-99861904D01*
X75252380Y-99861904D01*
X75366666Y-99900000D01*
X75404761Y-99938095D01*
X76128571Y-100661904D02*
X75747619Y-100661904D01*
X75747619Y-99861904D01*
X74033333Y-97261904D02*
X74566666Y-98061904D01*
X74566666Y-97261904D02*
X74033333Y-98061904D01*
X74833333Y-98023809D02*
X74947619Y-98061904D01*
X75138095Y-98061904D01*
X75214285Y-98023809D01*
X75252380Y-97985714D01*
X75290476Y-97909523D01*
X75290476Y-97833333D01*
X75252380Y-97757142D01*
X75214285Y-97719047D01*
X75138095Y-97680952D01*
X74985714Y-97642857D01*
X74909523Y-97604761D01*
X74871428Y-97566666D01*
X74833333Y-97490476D01*
X74833333Y-97414285D01*
X74871428Y-97338095D01*
X74909523Y-97300000D01*
X74985714Y-97261904D01*
X75176190Y-97261904D01*
X75290476Y-97300000D01*
X75633333Y-98061904D02*
X75633333Y-97261904D01*
X75633333Y-97642857D02*
X76090476Y-97642857D01*
X76090476Y-98061904D02*
X76090476Y-97261904D01*
X74390476Y-96100000D02*
X74314285Y-96061904D01*
X74200000Y-96061904D01*
X74085714Y-96100000D01*
X74009523Y-96176190D01*
X73971428Y-96252380D01*
X73933333Y-96404761D01*
X73933333Y-96519047D01*
X73971428Y-96671428D01*
X74009523Y-96747619D01*
X74085714Y-96823809D01*
X74200000Y-96861904D01*
X74276190Y-96861904D01*
X74390476Y-96823809D01*
X74428571Y-96785714D01*
X74428571Y-96519047D01*
X74276190Y-96519047D01*
X74771428Y-96861904D02*
X74771428Y-96061904D01*
X75228571Y-96861904D01*
X75228571Y-96061904D01*
X75609523Y-96861904D02*
X75609523Y-96061904D01*
X75800000Y-96061904D01*
X75914285Y-96100000D01*
X75990476Y-96176190D01*
X76028571Y-96252380D01*
X76066666Y-96404761D01*
X76066666Y-96519047D01*
X76028571Y-96671428D01*
X75990476Y-96747619D01*
X75914285Y-96823809D01*
X75800000Y-96861904D01*
X75609523Y-96861904D01*
X74128571Y-99223809D02*
X74242857Y-99261904D01*
X74433333Y-99261904D01*
X74509523Y-99223809D01*
X74547619Y-99185714D01*
X74585714Y-99109523D01*
X74585714Y-99033333D01*
X74547619Y-98957142D01*
X74509523Y-98919047D01*
X74433333Y-98880952D01*
X74280952Y-98842857D01*
X74204761Y-98804761D01*
X74166666Y-98766666D01*
X74128571Y-98690476D01*
X74128571Y-98614285D01*
X74166666Y-98538095D01*
X74204761Y-98500000D01*
X74280952Y-98461904D01*
X74471428Y-98461904D01*
X74585714Y-98500000D01*
X74928571Y-99261904D02*
X74928571Y-98461904D01*
X75119047Y-98461904D01*
X75233333Y-98500000D01*
X75309523Y-98576190D01*
X75347619Y-98652380D01*
X75385714Y-98804761D01*
X75385714Y-98919047D01*
X75347619Y-99071428D01*
X75309523Y-99147619D01*
X75233333Y-99223809D01*
X75119047Y-99261904D01*
X74928571Y-99261904D01*
X75690476Y-99033333D02*
X76071428Y-99033333D01*
X75614285Y-99261904D02*
X75880952Y-98461904D01*
X76147619Y-99261904D01*
X66438095Y-81933333D02*
X65638095Y-82466666D01*
X66438095Y-82466666D02*
X65638095Y-81933333D01*
X65676190Y-82733333D02*
X65638095Y-82847619D01*
X65638095Y-83038095D01*
X65676190Y-83114285D01*
X65714285Y-83152380D01*
X65790476Y-83190476D01*
X65866666Y-83190476D01*
X65942857Y-83152380D01*
X65980952Y-83114285D01*
X66019047Y-83038095D01*
X66057142Y-82885714D01*
X66095238Y-82809523D01*
X66133333Y-82771428D01*
X66209523Y-82733333D01*
X66285714Y-82733333D01*
X66361904Y-82771428D01*
X66400000Y-82809523D01*
X66438095Y-82885714D01*
X66438095Y-83076190D01*
X66400000Y-83190476D01*
X65638095Y-83533333D02*
X66438095Y-83533333D01*
X66057142Y-83533333D02*
X66057142Y-83990476D01*
X65638095Y-83990476D02*
X66438095Y-83990476D01*
X61338095Y-82047619D02*
X61338095Y-82542857D01*
X61033333Y-82276190D01*
X61033333Y-82390476D01*
X60995238Y-82466666D01*
X60957142Y-82504761D01*
X60880952Y-82542857D01*
X60690476Y-82542857D01*
X60614285Y-82504761D01*
X60576190Y-82466666D01*
X60538095Y-82390476D01*
X60538095Y-82161904D01*
X60576190Y-82085714D01*
X60614285Y-82047619D01*
X61071428Y-82809523D02*
X60538095Y-83000000D01*
X61071428Y-83190476D01*
X61338095Y-83419047D02*
X61338095Y-83914285D01*
X61033333Y-83647619D01*
X61033333Y-83761904D01*
X60995238Y-83838095D01*
X60957142Y-83876190D01*
X60880952Y-83914285D01*
X60690476Y-83914285D01*
X60614285Y-83876190D01*
X60576190Y-83838095D01*
X60538095Y-83761904D01*
X60538095Y-83533333D01*
X60576190Y-83457142D01*
X60614285Y-83419047D01*
X62500000Y-82390476D02*
X62538095Y-82314285D01*
X62538095Y-82200000D01*
X62500000Y-82085714D01*
X62423809Y-82009523D01*
X62347619Y-81971428D01*
X62195238Y-81933333D01*
X62080952Y-81933333D01*
X61928571Y-81971428D01*
X61852380Y-82009523D01*
X61776190Y-82085714D01*
X61738095Y-82200000D01*
X61738095Y-82276190D01*
X61776190Y-82390476D01*
X61814285Y-82428571D01*
X62080952Y-82428571D01*
X62080952Y-82276190D01*
X61738095Y-82771428D02*
X62538095Y-82771428D01*
X61738095Y-83228571D01*
X62538095Y-83228571D01*
X61738095Y-83609523D02*
X62538095Y-83609523D01*
X62538095Y-83800000D01*
X62500000Y-83914285D01*
X62423809Y-83990476D01*
X62347619Y-84028571D01*
X62195238Y-84066666D01*
X62080952Y-84066666D01*
X61928571Y-84028571D01*
X61852380Y-83990476D01*
X61776190Y-83914285D01*
X61738095Y-83800000D01*
X61738095Y-83609523D01*
X64376190Y-81928571D02*
X64338095Y-82042857D01*
X64338095Y-82233333D01*
X64376190Y-82309523D01*
X64414285Y-82347619D01*
X64490476Y-82385714D01*
X64566666Y-82385714D01*
X64642857Y-82347619D01*
X64680952Y-82309523D01*
X64719047Y-82233333D01*
X64757142Y-82080952D01*
X64795238Y-82004761D01*
X64833333Y-81966666D01*
X64909523Y-81928571D01*
X64985714Y-81928571D01*
X65061904Y-81966666D01*
X65100000Y-82004761D01*
X65138095Y-82080952D01*
X65138095Y-82271428D01*
X65100000Y-82385714D01*
X64338095Y-82728571D02*
X65138095Y-82728571D01*
X65138095Y-82919047D01*
X65100000Y-83033333D01*
X65023809Y-83109523D01*
X64947619Y-83147619D01*
X64795238Y-83185714D01*
X64680952Y-83185714D01*
X64528571Y-83147619D01*
X64452380Y-83109523D01*
X64376190Y-83033333D01*
X64338095Y-82919047D01*
X64338095Y-82728571D01*
X64566666Y-83490476D02*
X64566666Y-83871428D01*
X64338095Y-83414285D02*
X65138095Y-83680952D01*
X64338095Y-83947619D01*
X63076190Y-82047619D02*
X63038095Y-82161904D01*
X63038095Y-82352380D01*
X63076190Y-82428571D01*
X63114285Y-82466666D01*
X63190476Y-82504761D01*
X63266666Y-82504761D01*
X63342857Y-82466666D01*
X63380952Y-82428571D01*
X63419047Y-82352380D01*
X63457142Y-82200000D01*
X63495238Y-82123809D01*
X63533333Y-82085714D01*
X63609523Y-82047619D01*
X63685714Y-82047619D01*
X63761904Y-82085714D01*
X63800000Y-82123809D01*
X63838095Y-82200000D01*
X63838095Y-82390476D01*
X63800000Y-82504761D01*
X63114285Y-83304761D02*
X63076190Y-83266666D01*
X63038095Y-83152380D01*
X63038095Y-83076190D01*
X63076190Y-82961904D01*
X63152380Y-82885714D01*
X63228571Y-82847619D01*
X63380952Y-82809523D01*
X63495238Y-82809523D01*
X63647619Y-82847619D01*
X63723809Y-82885714D01*
X63800000Y-82961904D01*
X63838095Y-83076190D01*
X63838095Y-83152380D01*
X63800000Y-83266666D01*
X63761904Y-83304761D01*
X63038095Y-84028571D02*
X63038095Y-83647619D01*
X63838095Y-83647619D01*
X45338095Y-82033333D02*
X44538095Y-82566666D01*
X45338095Y-82566666D02*
X44538095Y-82033333D01*
X44576190Y-82833333D02*
X44538095Y-82947619D01*
X44538095Y-83138095D01*
X44576190Y-83214285D01*
X44614285Y-83252380D01*
X44690476Y-83290476D01*
X44766666Y-83290476D01*
X44842857Y-83252380D01*
X44880952Y-83214285D01*
X44919047Y-83138095D01*
X44957142Y-82985714D01*
X44995238Y-82909523D01*
X45033333Y-82871428D01*
X45109523Y-82833333D01*
X45185714Y-82833333D01*
X45261904Y-82871428D01*
X45300000Y-82909523D01*
X45338095Y-82985714D01*
X45338095Y-83176190D01*
X45300000Y-83290476D01*
X44538095Y-83633333D02*
X45338095Y-83633333D01*
X44957142Y-83633333D02*
X44957142Y-84090476D01*
X44538095Y-84090476D02*
X45338095Y-84090476D01*
X41976190Y-82047619D02*
X41938095Y-82161904D01*
X41938095Y-82352380D01*
X41976190Y-82428571D01*
X42014285Y-82466666D01*
X42090476Y-82504761D01*
X42166666Y-82504761D01*
X42242857Y-82466666D01*
X42280952Y-82428571D01*
X42319047Y-82352380D01*
X42357142Y-82200000D01*
X42395238Y-82123809D01*
X42433333Y-82085714D01*
X42509523Y-82047619D01*
X42585714Y-82047619D01*
X42661904Y-82085714D01*
X42700000Y-82123809D01*
X42738095Y-82200000D01*
X42738095Y-82390476D01*
X42700000Y-82504761D01*
X42014285Y-83304761D02*
X41976190Y-83266666D01*
X41938095Y-83152380D01*
X41938095Y-83076190D01*
X41976190Y-82961904D01*
X42052380Y-82885714D01*
X42128571Y-82847619D01*
X42280952Y-82809523D01*
X42395238Y-82809523D01*
X42547619Y-82847619D01*
X42623809Y-82885714D01*
X42700000Y-82961904D01*
X42738095Y-83076190D01*
X42738095Y-83152380D01*
X42700000Y-83266666D01*
X42661904Y-83304761D01*
X41938095Y-84028571D02*
X41938095Y-83647619D01*
X42738095Y-83647619D01*
X43276190Y-81928571D02*
X43238095Y-82042857D01*
X43238095Y-82233333D01*
X43276190Y-82309523D01*
X43314285Y-82347619D01*
X43390476Y-82385714D01*
X43466666Y-82385714D01*
X43542857Y-82347619D01*
X43580952Y-82309523D01*
X43619047Y-82233333D01*
X43657142Y-82080952D01*
X43695238Y-82004761D01*
X43733333Y-81966666D01*
X43809523Y-81928571D01*
X43885714Y-81928571D01*
X43961904Y-81966666D01*
X44000000Y-82004761D01*
X44038095Y-82080952D01*
X44038095Y-82271428D01*
X44000000Y-82385714D01*
X43238095Y-82728571D02*
X44038095Y-82728571D01*
X44038095Y-82919047D01*
X44000000Y-83033333D01*
X43923809Y-83109523D01*
X43847619Y-83147619D01*
X43695238Y-83185714D01*
X43580952Y-83185714D01*
X43428571Y-83147619D01*
X43352380Y-83109523D01*
X43276190Y-83033333D01*
X43238095Y-82919047D01*
X43238095Y-82728571D01*
X43466666Y-83490476D02*
X43466666Y-83871428D01*
X43238095Y-83414285D02*
X44038095Y-83680952D01*
X43238095Y-83947619D01*
X40238095Y-82047619D02*
X40238095Y-82542857D01*
X39933333Y-82276190D01*
X39933333Y-82390476D01*
X39895238Y-82466666D01*
X39857142Y-82504761D01*
X39780952Y-82542857D01*
X39590476Y-82542857D01*
X39514285Y-82504761D01*
X39476190Y-82466666D01*
X39438095Y-82390476D01*
X39438095Y-82161904D01*
X39476190Y-82085714D01*
X39514285Y-82047619D01*
X39971428Y-82809523D02*
X39438095Y-83000000D01*
X39971428Y-83190476D01*
X40238095Y-83419047D02*
X40238095Y-83914285D01*
X39933333Y-83647619D01*
X39933333Y-83761904D01*
X39895238Y-83838095D01*
X39857142Y-83876190D01*
X39780952Y-83914285D01*
X39590476Y-83914285D01*
X39514285Y-83876190D01*
X39476190Y-83838095D01*
X39438095Y-83761904D01*
X39438095Y-83533333D01*
X39476190Y-83457142D01*
X39514285Y-83419047D01*
X41400000Y-82390476D02*
X41438095Y-82314285D01*
X41438095Y-82200000D01*
X41400000Y-82085714D01*
X41323809Y-82009523D01*
X41247619Y-81971428D01*
X41095238Y-81933333D01*
X40980952Y-81933333D01*
X40828571Y-81971428D01*
X40752380Y-82009523D01*
X40676190Y-82085714D01*
X40638095Y-82200000D01*
X40638095Y-82276190D01*
X40676190Y-82390476D01*
X40714285Y-82428571D01*
X40980952Y-82428571D01*
X40980952Y-82276190D01*
X40638095Y-82771428D02*
X41438095Y-82771428D01*
X40638095Y-83228571D01*
X41438095Y-83228571D01*
X40638095Y-83609523D02*
X41438095Y-83609523D01*
X41438095Y-83800000D01*
X41400000Y-83914285D01*
X41323809Y-83990476D01*
X41247619Y-84028571D01*
X41095238Y-84066666D01*
X40980952Y-84066666D01*
X40828571Y-84028571D01*
X40752380Y-83990476D01*
X40676190Y-83914285D01*
X40638095Y-83800000D01*
X40638095Y-83609523D01*
X30047619Y-99561904D02*
X30542857Y-99561904D01*
X30276190Y-99866666D01*
X30390476Y-99866666D01*
X30466666Y-99904761D01*
X30504761Y-99942857D01*
X30542857Y-100019047D01*
X30542857Y-100209523D01*
X30504761Y-100285714D01*
X30466666Y-100323809D01*
X30390476Y-100361904D01*
X30161904Y-100361904D01*
X30085714Y-100323809D01*
X30047619Y-100285714D01*
X30809523Y-99828571D02*
X31000000Y-100361904D01*
X31190476Y-99828571D01*
X31419047Y-99561904D02*
X31914285Y-99561904D01*
X31647619Y-99866666D01*
X31761904Y-99866666D01*
X31838095Y-99904761D01*
X31876190Y-99942857D01*
X31914285Y-100019047D01*
X31914285Y-100209523D01*
X31876190Y-100285714D01*
X31838095Y-100323809D01*
X31761904Y-100361904D01*
X31533333Y-100361904D01*
X31457142Y-100323809D01*
X31419047Y-100285714D01*
X30390476Y-98400000D02*
X30314285Y-98361904D01*
X30200000Y-98361904D01*
X30085714Y-98400000D01*
X30009523Y-98476190D01*
X29971428Y-98552380D01*
X29933333Y-98704761D01*
X29933333Y-98819047D01*
X29971428Y-98971428D01*
X30009523Y-99047619D01*
X30085714Y-99123809D01*
X30200000Y-99161904D01*
X30276190Y-99161904D01*
X30390476Y-99123809D01*
X30428571Y-99085714D01*
X30428571Y-98819047D01*
X30276190Y-98819047D01*
X30771428Y-99161904D02*
X30771428Y-98361904D01*
X31228571Y-99161904D01*
X31228571Y-98361904D01*
X31609523Y-99161904D02*
X31609523Y-98361904D01*
X31800000Y-98361904D01*
X31914285Y-98400000D01*
X31990476Y-98476190D01*
X32028571Y-98552380D01*
X32066666Y-98704761D01*
X32066666Y-98819047D01*
X32028571Y-98971428D01*
X31990476Y-99047619D01*
X31914285Y-99123809D01*
X31800000Y-99161904D01*
X31609523Y-99161904D01*
X30047619Y-97823809D02*
X30161904Y-97861904D01*
X30352380Y-97861904D01*
X30428571Y-97823809D01*
X30466666Y-97785714D01*
X30504761Y-97709523D01*
X30504761Y-97633333D01*
X30466666Y-97557142D01*
X30428571Y-97519047D01*
X30352380Y-97480952D01*
X30200000Y-97442857D01*
X30123809Y-97404761D01*
X30085714Y-97366666D01*
X30047619Y-97290476D01*
X30047619Y-97214285D01*
X30085714Y-97138095D01*
X30123809Y-97100000D01*
X30200000Y-97061904D01*
X30390476Y-97061904D01*
X30504761Y-97100000D01*
X31304761Y-97785714D02*
X31266666Y-97823809D01*
X31152380Y-97861904D01*
X31076190Y-97861904D01*
X30961904Y-97823809D01*
X30885714Y-97747619D01*
X30847619Y-97671428D01*
X30809523Y-97519047D01*
X30809523Y-97404761D01*
X30847619Y-97252380D01*
X30885714Y-97176190D01*
X30961904Y-97100000D01*
X31076190Y-97061904D01*
X31152380Y-97061904D01*
X31266666Y-97100000D01*
X31304761Y-97138095D01*
X32028571Y-97861904D02*
X31647619Y-97861904D01*
X31647619Y-97061904D01*
X29928571Y-96523809D02*
X30042857Y-96561904D01*
X30233333Y-96561904D01*
X30309523Y-96523809D01*
X30347619Y-96485714D01*
X30385714Y-96409523D01*
X30385714Y-96333333D01*
X30347619Y-96257142D01*
X30309523Y-96219047D01*
X30233333Y-96180952D01*
X30080952Y-96142857D01*
X30004761Y-96104761D01*
X29966666Y-96066666D01*
X29928571Y-95990476D01*
X29928571Y-95914285D01*
X29966666Y-95838095D01*
X30004761Y-95800000D01*
X30080952Y-95761904D01*
X30271428Y-95761904D01*
X30385714Y-95800000D01*
X30728571Y-96561904D02*
X30728571Y-95761904D01*
X30919047Y-95761904D01*
X31033333Y-95800000D01*
X31109523Y-95876190D01*
X31147619Y-95952380D01*
X31185714Y-96104761D01*
X31185714Y-96219047D01*
X31147619Y-96371428D01*
X31109523Y-96447619D01*
X31033333Y-96523809D01*
X30919047Y-96561904D01*
X30728571Y-96561904D01*
X31490476Y-96333333D02*
X31871428Y-96333333D01*
X31414285Y-96561904D02*
X31680952Y-95761904D01*
X31947619Y-96561904D01*
X29833333Y-94561904D02*
X30366666Y-95361904D01*
X30366666Y-94561904D02*
X29833333Y-95361904D01*
X30633333Y-95323809D02*
X30747619Y-95361904D01*
X30938095Y-95361904D01*
X31014285Y-95323809D01*
X31052380Y-95285714D01*
X31090476Y-95209523D01*
X31090476Y-95133333D01*
X31052380Y-95057142D01*
X31014285Y-95019047D01*
X30938095Y-94980952D01*
X30785714Y-94942857D01*
X30709523Y-94904761D01*
X30671428Y-94866666D01*
X30633333Y-94790476D01*
X30633333Y-94714285D01*
X30671428Y-94638095D01*
X30709523Y-94600000D01*
X30785714Y-94561904D01*
X30976190Y-94561904D01*
X31090476Y-94600000D01*
X31433333Y-95361904D02*
X31433333Y-94561904D01*
X31433333Y-94942857D02*
X31890476Y-94942857D01*
X31890476Y-95361904D02*
X31890476Y-94561904D01*
X30119523Y-87871904D02*
X30614761Y-87871904D01*
X30348095Y-88176666D01*
X30462380Y-88176666D01*
X30538571Y-88214761D01*
X30576666Y-88252857D01*
X30614761Y-88329047D01*
X30614761Y-88519523D01*
X30576666Y-88595714D01*
X30538571Y-88633809D01*
X30462380Y-88671904D01*
X30233809Y-88671904D01*
X30157619Y-88633809D01*
X30119523Y-88595714D01*
X30843333Y-87871904D02*
X31110000Y-88671904D01*
X31376666Y-87871904D01*
X31567142Y-87871904D02*
X32062380Y-87871904D01*
X31795714Y-88176666D01*
X31910000Y-88176666D01*
X31986190Y-88214761D01*
X32024285Y-88252857D01*
X32062380Y-88329047D01*
X32062380Y-88519523D01*
X32024285Y-88595714D01*
X31986190Y-88633809D01*
X31910000Y-88671904D01*
X31681428Y-88671904D01*
X31605238Y-88633809D01*
X31567142Y-88595714D01*
X30300000Y-89061904D02*
X30452380Y-89061904D01*
X30528571Y-89100000D01*
X30604761Y-89176190D01*
X30642857Y-89328571D01*
X30642857Y-89595238D01*
X30604761Y-89747619D01*
X30528571Y-89823809D01*
X30452380Y-89861904D01*
X30300000Y-89861904D01*
X30223809Y-89823809D01*
X30147619Y-89747619D01*
X30109523Y-89595238D01*
X30109523Y-89328571D01*
X30147619Y-89176190D01*
X30223809Y-89100000D01*
X30300000Y-89061904D01*
X30985714Y-89061904D02*
X30985714Y-89709523D01*
X31023809Y-89785714D01*
X31061904Y-89823809D01*
X31138095Y-89861904D01*
X31290476Y-89861904D01*
X31366666Y-89823809D01*
X31404761Y-89785714D01*
X31442857Y-89709523D01*
X31442857Y-89061904D01*
X31709523Y-89061904D02*
X32166666Y-89061904D01*
X31938095Y-89861904D02*
X31938095Y-89061904D01*
X30490476Y-90300000D02*
X30414285Y-90261904D01*
X30300000Y-90261904D01*
X30185714Y-90300000D01*
X30109523Y-90376190D01*
X30071428Y-90452380D01*
X30033333Y-90604761D01*
X30033333Y-90719047D01*
X30071428Y-90871428D01*
X30109523Y-90947619D01*
X30185714Y-91023809D01*
X30300000Y-91061904D01*
X30376190Y-91061904D01*
X30490476Y-91023809D01*
X30528571Y-90985714D01*
X30528571Y-90719047D01*
X30376190Y-90719047D01*
X30871428Y-91061904D02*
X30871428Y-90261904D01*
X31328571Y-91061904D01*
X31328571Y-90261904D01*
X31709523Y-91061904D02*
X31709523Y-90261904D01*
X31900000Y-90261904D01*
X32014285Y-90300000D01*
X32090476Y-90376190D01*
X32128571Y-90452380D01*
X32166666Y-90604761D01*
X32166666Y-90719047D01*
X32128571Y-90871428D01*
X32090476Y-90947619D01*
X32014285Y-91023809D01*
X31900000Y-91061904D01*
X31709523Y-91061904D01*
X70138095Y-86785714D02*
X70138095Y-86404761D01*
X70938095Y-86404761D01*
X70138095Y-87052380D02*
X70938095Y-87052380D01*
X70938095Y-87242857D01*
X70900000Y-87357142D01*
X70823809Y-87433333D01*
X70747619Y-87471428D01*
X70595238Y-87509523D01*
X70480952Y-87509523D01*
X70328571Y-87471428D01*
X70252380Y-87433333D01*
X70176190Y-87357142D01*
X70138095Y-87242857D01*
X70138095Y-87052380D01*
X70061904Y-87661904D02*
X70061904Y-88271428D01*
X70557142Y-88728571D02*
X70557142Y-88461904D01*
X70138095Y-88461904D02*
X70938095Y-88461904D01*
X70938095Y-88842857D01*
X70138095Y-89604761D02*
X70519047Y-89338095D01*
X70138095Y-89147619D02*
X70938095Y-89147619D01*
X70938095Y-89452380D01*
X70900000Y-89528571D01*
X70861904Y-89566666D01*
X70785714Y-89604761D01*
X70671428Y-89604761D01*
X70595238Y-89566666D01*
X70557142Y-89528571D01*
X70519047Y-89452380D01*
X70519047Y-89147619D01*
X70138095Y-89947619D02*
X70938095Y-89947619D01*
X70900000Y-90747619D02*
X70938095Y-90671428D01*
X70938095Y-90557142D01*
X70900000Y-90442857D01*
X70823809Y-90366666D01*
X70747619Y-90328571D01*
X70595238Y-90290476D01*
X70480952Y-90290476D01*
X70328571Y-90328571D01*
X70252380Y-90366666D01*
X70176190Y-90442857D01*
X70138095Y-90557142D01*
X70138095Y-90633333D01*
X70176190Y-90747619D01*
X70214285Y-90785714D01*
X70480952Y-90785714D01*
X70480952Y-90633333D01*
X70138095Y-91128571D02*
X70938095Y-91128571D01*
X70557142Y-91128571D02*
X70557142Y-91585714D01*
X70138095Y-91585714D02*
X70938095Y-91585714D01*
X70938095Y-91852380D02*
X70938095Y-92309523D01*
X70138095Y-92080952D02*
X70938095Y-92080952D01*
X69838095Y-94204761D02*
X70219047Y-93938095D01*
X69838095Y-93747619D02*
X70638095Y-93747619D01*
X70638095Y-94052380D01*
X70600000Y-94128571D01*
X70561904Y-94166666D01*
X70485714Y-94204761D01*
X70371428Y-94204761D01*
X70295238Y-94166666D01*
X70257142Y-94128571D01*
X70219047Y-94052380D01*
X70219047Y-93747619D01*
X70066666Y-94509523D02*
X70066666Y-94890476D01*
X69838095Y-94433333D02*
X70638095Y-94700000D01*
X69838095Y-94966666D01*
X69838095Y-95233333D02*
X70638095Y-95233333D01*
X69838095Y-95690476D01*
X70638095Y-95690476D01*
X70600000Y-96490476D02*
X70638095Y-96414285D01*
X70638095Y-96300000D01*
X70600000Y-96185714D01*
X70523809Y-96109523D01*
X70447619Y-96071428D01*
X70295238Y-96033333D01*
X70180952Y-96033333D01*
X70028571Y-96071428D01*
X69952380Y-96109523D01*
X69876190Y-96185714D01*
X69838095Y-96300000D01*
X69838095Y-96376190D01*
X69876190Y-96490476D01*
X69914285Y-96528571D01*
X70180952Y-96528571D01*
X70180952Y-96376190D01*
X70257142Y-96871428D02*
X70257142Y-97138095D01*
X69838095Y-97252380D02*
X69838095Y-96871428D01*
X70638095Y-96871428D01*
X70638095Y-97252380D01*
X69761904Y-97404761D02*
X69761904Y-98014285D01*
X69838095Y-98661904D02*
X70219047Y-98395238D01*
X69838095Y-98204761D02*
X70638095Y-98204761D01*
X70638095Y-98509523D01*
X70600000Y-98585714D01*
X70561904Y-98623809D01*
X70485714Y-98661904D01*
X70371428Y-98661904D01*
X70295238Y-98623809D01*
X70257142Y-98585714D01*
X70219047Y-98509523D01*
X70219047Y-98204761D01*
X69838095Y-99004761D02*
X70638095Y-99004761D01*
X70600000Y-99804761D02*
X70638095Y-99728571D01*
X70638095Y-99614285D01*
X70600000Y-99500000D01*
X70523809Y-99423809D01*
X70447619Y-99385714D01*
X70295238Y-99347619D01*
X70180952Y-99347619D01*
X70028571Y-99385714D01*
X69952380Y-99423809D01*
X69876190Y-99500000D01*
X69838095Y-99614285D01*
X69838095Y-99690476D01*
X69876190Y-99804761D01*
X69914285Y-99842857D01*
X70180952Y-99842857D01*
X70180952Y-99690476D01*
X69838095Y-100185714D02*
X70638095Y-100185714D01*
X70257142Y-100185714D02*
X70257142Y-100642857D01*
X69838095Y-100642857D02*
X70638095Y-100642857D01*
X70638095Y-100909523D02*
X70638095Y-101366666D01*
X69838095Y-101138095D02*
X70638095Y-101138095D01*
X69261904Y-88338095D02*
X68880952Y-88604761D01*
X69261904Y-88795238D02*
X68461904Y-88795238D01*
X68461904Y-88490476D01*
X68500000Y-88414285D01*
X68538095Y-88376190D01*
X68614285Y-88338095D01*
X68728571Y-88338095D01*
X68804761Y-88376190D01*
X68842857Y-88414285D01*
X68880952Y-88490476D01*
X68880952Y-88795238D01*
X69033333Y-88033333D02*
X69033333Y-87652380D01*
X69261904Y-88109523D02*
X68461904Y-87842857D01*
X69261904Y-87576190D01*
X69261904Y-87309523D02*
X68461904Y-87309523D01*
X69261904Y-86852380D01*
X68461904Y-86852380D01*
X68500000Y-86052380D02*
X68461904Y-86128571D01*
X68461904Y-86242857D01*
X68500000Y-86357142D01*
X68576190Y-86433333D01*
X68652380Y-86471428D01*
X68804761Y-86509523D01*
X68919047Y-86509523D01*
X69071428Y-86471428D01*
X69147619Y-86433333D01*
X69223809Y-86357142D01*
X69261904Y-86242857D01*
X69261904Y-86166666D01*
X69223809Y-86052380D01*
X69185714Y-86014285D01*
X68919047Y-86014285D01*
X68919047Y-86166666D01*
X68842857Y-85671428D02*
X68842857Y-85404761D01*
X69261904Y-85290476D02*
X69261904Y-85671428D01*
X68461904Y-85671428D01*
X68461904Y-85290476D01*
X69338095Y-85138095D02*
X69338095Y-84528571D01*
X68842857Y-84071428D02*
X68842857Y-84338095D01*
X69261904Y-84338095D02*
X68461904Y-84338095D01*
X68461904Y-83957142D01*
X69261904Y-83195238D02*
X68880952Y-83461904D01*
X69261904Y-83652380D02*
X68461904Y-83652380D01*
X68461904Y-83347619D01*
X68500000Y-83271428D01*
X68538095Y-83233333D01*
X68614285Y-83195238D01*
X68728571Y-83195238D01*
X68804761Y-83233333D01*
X68842857Y-83271428D01*
X68880952Y-83347619D01*
X68880952Y-83652380D01*
X69261904Y-82852380D02*
X68461904Y-82852380D01*
X68500000Y-82052380D02*
X68461904Y-82128571D01*
X68461904Y-82242857D01*
X68500000Y-82357142D01*
X68576190Y-82433333D01*
X68652380Y-82471428D01*
X68804761Y-82509523D01*
X68919047Y-82509523D01*
X69071428Y-82471428D01*
X69147619Y-82433333D01*
X69223809Y-82357142D01*
X69261904Y-82242857D01*
X69261904Y-82166666D01*
X69223809Y-82052380D01*
X69185714Y-82014285D01*
X68919047Y-82014285D01*
X68919047Y-82166666D01*
X69261904Y-81671428D02*
X68461904Y-81671428D01*
X68842857Y-81671428D02*
X68842857Y-81214285D01*
X69261904Y-81214285D02*
X68461904Y-81214285D01*
X68461904Y-80947619D02*
X68461904Y-80490476D01*
X69261904Y-80719047D02*
X68461904Y-80719047D01*
X49333333Y-87761904D02*
X49066666Y-87380952D01*
X48876190Y-87761904D02*
X48876190Y-86961904D01*
X49180952Y-86961904D01*
X49257142Y-87000000D01*
X49295238Y-87038095D01*
X49333333Y-87114285D01*
X49333333Y-87228571D01*
X49295238Y-87304761D01*
X49257142Y-87342857D01*
X49180952Y-87380952D01*
X48876190Y-87380952D01*
X49638095Y-87533333D02*
X50019047Y-87533333D01*
X49561904Y-87761904D02*
X49828571Y-86961904D01*
X50095238Y-87761904D01*
X50361904Y-87761904D02*
X50361904Y-86961904D01*
X50819047Y-87761904D01*
X50819047Y-86961904D01*
X51619047Y-87000000D02*
X51542857Y-86961904D01*
X51428571Y-86961904D01*
X51314285Y-87000000D01*
X51238095Y-87076190D01*
X51200000Y-87152380D01*
X51161904Y-87304761D01*
X51161904Y-87419047D01*
X51200000Y-87571428D01*
X51238095Y-87647619D01*
X51314285Y-87723809D01*
X51428571Y-87761904D01*
X51504761Y-87761904D01*
X51619047Y-87723809D01*
X51657142Y-87685714D01*
X51657142Y-87419047D01*
X51504761Y-87419047D01*
X52000000Y-87342857D02*
X52266666Y-87342857D01*
X52380952Y-87761904D02*
X52000000Y-87761904D01*
X52000000Y-86961904D01*
X52380952Y-86961904D01*
X52533333Y-87838095D02*
X53142857Y-87838095D01*
X53600000Y-87342857D02*
X53333333Y-87342857D01*
X53333333Y-87761904D02*
X53333333Y-86961904D01*
X53714285Y-86961904D01*
X54476190Y-87761904D02*
X54209523Y-87380952D01*
X54019047Y-87761904D02*
X54019047Y-86961904D01*
X54323809Y-86961904D01*
X54400000Y-87000000D01*
X54438095Y-87038095D01*
X54476190Y-87114285D01*
X54476190Y-87228571D01*
X54438095Y-87304761D01*
X54400000Y-87342857D01*
X54323809Y-87380952D01*
X54019047Y-87380952D01*
X54971428Y-86961904D02*
X55123809Y-86961904D01*
X55200000Y-87000000D01*
X55276190Y-87076190D01*
X55314285Y-87228571D01*
X55314285Y-87495238D01*
X55276190Y-87647619D01*
X55200000Y-87723809D01*
X55123809Y-87761904D01*
X54971428Y-87761904D01*
X54895238Y-87723809D01*
X54819047Y-87647619D01*
X54780952Y-87495238D01*
X54780952Y-87228571D01*
X54819047Y-87076190D01*
X54895238Y-87000000D01*
X54971428Y-86961904D01*
X55657142Y-87761904D02*
X55657142Y-86961904D01*
X56114285Y-87761904D01*
X56114285Y-86961904D01*
X56380952Y-86961904D02*
X56838095Y-86961904D01*
X56609523Y-87761904D02*
X56609523Y-86961904D01*
X37461904Y-87657142D02*
X37080952Y-87923809D01*
X37461904Y-88114285D02*
X36661904Y-88114285D01*
X36661904Y-87809523D01*
X36700000Y-87733333D01*
X36738095Y-87695238D01*
X36814285Y-87657142D01*
X36928571Y-87657142D01*
X37004761Y-87695238D01*
X37042857Y-87733333D01*
X37080952Y-87809523D01*
X37080952Y-88114285D01*
X37233333Y-87352380D02*
X37233333Y-86971428D01*
X37461904Y-87428571D02*
X36661904Y-87161904D01*
X37461904Y-86895238D01*
X37461904Y-86628571D02*
X36661904Y-86628571D01*
X37461904Y-86171428D01*
X36661904Y-86171428D01*
X36700000Y-85371428D02*
X36661904Y-85447619D01*
X36661904Y-85561904D01*
X36700000Y-85676190D01*
X36776190Y-85752380D01*
X36852380Y-85790476D01*
X37004761Y-85828571D01*
X37119047Y-85828571D01*
X37271428Y-85790476D01*
X37347619Y-85752380D01*
X37423809Y-85676190D01*
X37461904Y-85561904D01*
X37461904Y-85485714D01*
X37423809Y-85371428D01*
X37385714Y-85333333D01*
X37119047Y-85333333D01*
X37119047Y-85485714D01*
X37042857Y-84990476D02*
X37042857Y-84723809D01*
X37461904Y-84609523D02*
X37461904Y-84990476D01*
X36661904Y-84990476D01*
X36661904Y-84609523D01*
X37538095Y-84457142D02*
X37538095Y-83847619D01*
X37042857Y-83390476D02*
X37042857Y-83657142D01*
X37461904Y-83657142D02*
X36661904Y-83657142D01*
X36661904Y-83276190D01*
X37461904Y-82590476D02*
X37461904Y-82971428D01*
X36661904Y-82971428D01*
X37042857Y-82323809D02*
X37042857Y-82057142D01*
X37461904Y-81942857D02*
X37461904Y-82323809D01*
X36661904Y-82323809D01*
X36661904Y-81942857D01*
X37042857Y-81333333D02*
X37042857Y-81600000D01*
X37461904Y-81600000D02*
X36661904Y-81600000D01*
X36661904Y-81219047D01*
X36661904Y-81028571D02*
X36661904Y-80571428D01*
X37461904Y-80800000D02*
X36661904Y-80800000D01*
X35961904Y-91633333D02*
X35961904Y-92014285D01*
X35161904Y-92014285D01*
X35961904Y-91366666D02*
X35161904Y-91366666D01*
X35161904Y-91176190D01*
X35200000Y-91061904D01*
X35276190Y-90985714D01*
X35352380Y-90947619D01*
X35504761Y-90909523D01*
X35619047Y-90909523D01*
X35771428Y-90947619D01*
X35847619Y-90985714D01*
X35923809Y-91061904D01*
X35961904Y-91176190D01*
X35961904Y-91366666D01*
X36038095Y-90757142D02*
X36038095Y-90147619D01*
X35542857Y-89690476D02*
X35542857Y-89957142D01*
X35961904Y-89957142D02*
X35161904Y-89957142D01*
X35161904Y-89576190D01*
X35961904Y-88890476D02*
X35961904Y-89271428D01*
X35161904Y-89271428D01*
X35542857Y-88623809D02*
X35542857Y-88357142D01*
X35961904Y-88242857D02*
X35961904Y-88623809D01*
X35161904Y-88623809D01*
X35161904Y-88242857D01*
X35542857Y-87633333D02*
X35542857Y-87900000D01*
X35961904Y-87900000D02*
X35161904Y-87900000D01*
X35161904Y-87519047D01*
X35161904Y-87328571D02*
X35161904Y-86871428D01*
X35961904Y-87100000D02*
X35161904Y-87100000D01*
X35861904Y-100314285D02*
X35480952Y-100580952D01*
X35861904Y-100771428D02*
X35061904Y-100771428D01*
X35061904Y-100466666D01*
X35100000Y-100390476D01*
X35138095Y-100352380D01*
X35214285Y-100314285D01*
X35328571Y-100314285D01*
X35404761Y-100352380D01*
X35442857Y-100390476D01*
X35480952Y-100466666D01*
X35480952Y-100771428D01*
X35633333Y-100009523D02*
X35633333Y-99628571D01*
X35861904Y-100085714D02*
X35061904Y-99819047D01*
X35861904Y-99552380D01*
X35861904Y-99285714D02*
X35061904Y-99285714D01*
X35861904Y-98828571D01*
X35061904Y-98828571D01*
X35100000Y-98028571D02*
X35061904Y-98104761D01*
X35061904Y-98219047D01*
X35100000Y-98333333D01*
X35176190Y-98409523D01*
X35252380Y-98447619D01*
X35404761Y-98485714D01*
X35519047Y-98485714D01*
X35671428Y-98447619D01*
X35747619Y-98409523D01*
X35823809Y-98333333D01*
X35861904Y-98219047D01*
X35861904Y-98142857D01*
X35823809Y-98028571D01*
X35785714Y-97990476D01*
X35519047Y-97990476D01*
X35519047Y-98142857D01*
X35442857Y-97647619D02*
X35442857Y-97380952D01*
X35861904Y-97266666D02*
X35861904Y-97647619D01*
X35061904Y-97647619D01*
X35061904Y-97266666D01*
X35938095Y-97114285D02*
X35938095Y-96504761D01*
X35861904Y-95933333D02*
X35861904Y-96314285D01*
X35061904Y-96314285D01*
X35442857Y-95666666D02*
X35442857Y-95400000D01*
X35861904Y-95285714D02*
X35861904Y-95666666D01*
X35061904Y-95666666D01*
X35061904Y-95285714D01*
X35442857Y-94676190D02*
X35442857Y-94942857D01*
X35861904Y-94942857D02*
X35061904Y-94942857D01*
X35061904Y-94561904D01*
X35061904Y-94371428D02*
X35061904Y-93914285D01*
X35861904Y-94142857D02*
X35061904Y-94142857D01*
X29447619Y-102523809D02*
X29561904Y-102561904D01*
X29752380Y-102561904D01*
X29828571Y-102523809D01*
X29866666Y-102485714D01*
X29904761Y-102409523D01*
X29904761Y-102333333D01*
X29866666Y-102257142D01*
X29828571Y-102219047D01*
X29752380Y-102180952D01*
X29600000Y-102142857D01*
X29523809Y-102104761D01*
X29485714Y-102066666D01*
X29447619Y-101990476D01*
X29447619Y-101914285D01*
X29485714Y-101838095D01*
X29523809Y-101800000D01*
X29600000Y-101761904D01*
X29790476Y-101761904D01*
X29904761Y-101800000D01*
X30704761Y-102485714D02*
X30666666Y-102523809D01*
X30552380Y-102561904D01*
X30476190Y-102561904D01*
X30361904Y-102523809D01*
X30285714Y-102447619D01*
X30247619Y-102371428D01*
X30209523Y-102219047D01*
X30209523Y-102104761D01*
X30247619Y-101952380D01*
X30285714Y-101876190D01*
X30361904Y-101800000D01*
X30476190Y-101761904D01*
X30552380Y-101761904D01*
X30666666Y-101800000D01*
X30704761Y-101838095D01*
X31428571Y-102561904D02*
X31047619Y-102561904D01*
X31047619Y-101761904D01*
X35623809Y-104771428D02*
X35661904Y-104657142D01*
X35661904Y-104466666D01*
X35623809Y-104390476D01*
X35585714Y-104352380D01*
X35509523Y-104314285D01*
X35433333Y-104314285D01*
X35357142Y-104352380D01*
X35319047Y-104390476D01*
X35280952Y-104466666D01*
X35242857Y-104619047D01*
X35204761Y-104695238D01*
X35166666Y-104733333D01*
X35090476Y-104771428D01*
X35014285Y-104771428D01*
X34938095Y-104733333D01*
X34900000Y-104695238D01*
X34861904Y-104619047D01*
X34861904Y-104428571D01*
X34900000Y-104314285D01*
X35661904Y-103971428D02*
X34861904Y-103971428D01*
X34861904Y-103780952D01*
X34900000Y-103666666D01*
X34976190Y-103590476D01*
X35052380Y-103552380D01*
X35204761Y-103514285D01*
X35319047Y-103514285D01*
X35471428Y-103552380D01*
X35547619Y-103590476D01*
X35623809Y-103666666D01*
X35661904Y-103780952D01*
X35661904Y-103971428D01*
X35433333Y-103209523D02*
X35433333Y-102828571D01*
X35661904Y-103285714D02*
X34861904Y-103019047D01*
X35661904Y-102752380D01*
D11*
%TO.C,C15*%
X68335000Y-106038748D02*
X68335000Y-106561252D01*
X66865000Y-106038748D02*
X66865000Y-106561252D01*
%TO.C,R16*%
X64535000Y-139872936D02*
X64535000Y-140327064D01*
X63065000Y-139872936D02*
X63065000Y-140327064D01*
%TO.C,R14*%
X68414564Y-93235000D02*
X67960436Y-93235000D01*
X68414564Y-91765000D02*
X67960436Y-91765000D01*
%TO.C,R13*%
X42635000Y-140072936D02*
X42635000Y-140527064D01*
X41165000Y-140072936D02*
X41165000Y-140527064D01*
%TO.C,R11*%
X37772936Y-89265000D02*
X38227064Y-89265000D01*
X37772936Y-90735000D02*
X38227064Y-90735000D01*
%TO.C,D9*%
X61265000Y-138815000D02*
X61265000Y-141100000D01*
X62735000Y-138815000D02*
X61265000Y-138815000D01*
X62735000Y-141100000D02*
X62735000Y-138815000D01*
%TO.C,D8*%
X69797500Y-89865000D02*
X67512500Y-89865000D01*
X69797500Y-91335000D02*
X69797500Y-89865000D01*
X67512500Y-91335000D02*
X69797500Y-91335000D01*
%TO.C,D7*%
X43065000Y-138915000D02*
X43065000Y-141200000D01*
X44535000Y-138915000D02*
X43065000Y-138915000D01*
X44535000Y-141200000D02*
X44535000Y-138915000D01*
%TO.C,D1*%
X36402500Y-92635000D02*
X38687500Y-92635000D01*
X36402500Y-91165000D02*
X36402500Y-92635000D01*
X38687500Y-91165000D02*
X36402500Y-91165000D01*
%TO.C,U7*%
X69700000Y-124240000D02*
X71650000Y-124240000D01*
X69700000Y-124240000D02*
X67750000Y-124240000D01*
X69700000Y-119120000D02*
X71650000Y-119120000D01*
X69700000Y-119120000D02*
X66250000Y-119120000D01*
D14*
%TO.C,REF\u002A\u002A*%
G36*
X68103910Y-138142348D02*
G01*
X68182454Y-138142778D01*
X68239298Y-138143942D01*
X68278105Y-138146207D01*
X68302538Y-138149940D01*
X68316262Y-138155506D01*
X68322940Y-138163273D01*
X68326236Y-138173605D01*
X68326556Y-138174943D01*
X68331562Y-138199079D01*
X68340829Y-138246701D01*
X68353392Y-138312741D01*
X68368287Y-138392128D01*
X68384551Y-138479796D01*
X68385119Y-138482875D01*
X68401410Y-138568789D01*
X68416652Y-138644696D01*
X68429861Y-138706045D01*
X68440054Y-138748282D01*
X68446248Y-138766855D01*
X68446543Y-138767184D01*
X68464788Y-138776253D01*
X68502405Y-138791367D01*
X68551271Y-138809262D01*
X68551543Y-138809358D01*
X68613093Y-138832493D01*
X68685657Y-138861965D01*
X68754057Y-138891597D01*
X68757294Y-138893062D01*
X68868702Y-138943626D01*
X69115399Y-138775160D01*
X69191077Y-138723803D01*
X69259631Y-138677889D01*
X69317088Y-138640030D01*
X69359476Y-138612837D01*
X69382825Y-138598921D01*
X69385042Y-138597889D01*
X69402010Y-138602484D01*
X69433701Y-138624655D01*
X69481352Y-138665447D01*
X69546198Y-138725905D01*
X69612397Y-138790227D01*
X69676214Y-138853612D01*
X69733329Y-138911451D01*
X69780305Y-138960175D01*
X69813703Y-138996210D01*
X69830085Y-139015984D01*
X69830694Y-139017002D01*
X69832505Y-139030572D01*
X69825683Y-139052733D01*
X69808540Y-139086478D01*
X69779393Y-139134800D01*
X69736555Y-139200692D01*
X69679448Y-139285517D01*
X69628766Y-139360177D01*
X69583461Y-139427140D01*
X69546150Y-139482516D01*
X69519452Y-139522420D01*
X69505985Y-139542962D01*
X69505137Y-139544356D01*
X69506781Y-139564038D01*
X69519245Y-139602293D01*
X69540048Y-139651889D01*
X69547462Y-139667728D01*
X69579814Y-139738290D01*
X69614328Y-139818353D01*
X69642365Y-139887629D01*
X69662568Y-139939045D01*
X69678615Y-139978119D01*
X69687888Y-139998541D01*
X69689041Y-140000114D01*
X69706096Y-140002721D01*
X69746298Y-140009863D01*
X69804302Y-140020523D01*
X69874763Y-140033685D01*
X69952335Y-140048333D01*
X70031672Y-140063449D01*
X70107431Y-140078018D01*
X70174264Y-140091022D01*
X70226828Y-140101445D01*
X70259776Y-140108270D01*
X70267857Y-140110199D01*
X70276205Y-140114962D01*
X70282506Y-140125718D01*
X70287045Y-140146098D01*
X70290104Y-140179734D01*
X70291967Y-140230255D01*
X70292918Y-140301292D01*
X70293240Y-140396476D01*
X70293257Y-140435492D01*
X70293257Y-140752799D01*
X70217057Y-140767839D01*
X70174663Y-140775995D01*
X70111400Y-140787899D01*
X70034962Y-140802116D01*
X69953043Y-140817210D01*
X69930400Y-140821355D01*
X69854806Y-140836053D01*
X69788953Y-140850505D01*
X69738366Y-140863375D01*
X69708574Y-140873322D01*
X69703612Y-140876287D01*
X69691426Y-140897283D01*
X69673953Y-140937967D01*
X69654577Y-140990322D01*
X69650734Y-141001600D01*
X69625339Y-141071523D01*
X69593817Y-141150418D01*
X69562969Y-141221266D01*
X69562817Y-141221595D01*
X69511447Y-141332733D01*
X69680399Y-141581253D01*
X69849352Y-141829772D01*
X69632429Y-142047058D01*
X69566819Y-142111726D01*
X69506979Y-142168733D01*
X69456267Y-142215033D01*
X69418046Y-142247584D01*
X69395675Y-142263343D01*
X69392466Y-142264343D01*
X69373626Y-142256469D01*
X69335180Y-142234578D01*
X69281330Y-142201267D01*
X69216276Y-142159131D01*
X69145940Y-142111943D01*
X69074555Y-142063810D01*
X69010908Y-142021928D01*
X68959041Y-141988871D01*
X68922995Y-141967218D01*
X68906867Y-141959543D01*
X68887189Y-141966037D01*
X68849875Y-141983150D01*
X68802621Y-142007326D01*
X68797612Y-142010013D01*
X68733977Y-142041927D01*
X68690341Y-142057579D01*
X68663202Y-142057745D01*
X68649057Y-142043204D01*
X68648975Y-142043000D01*
X68641905Y-142025779D01*
X68625042Y-141984899D01*
X68599695Y-141923525D01*
X68567171Y-141844819D01*
X68528778Y-141751947D01*
X68485822Y-141648072D01*
X68444222Y-141547502D01*
X68398504Y-141436516D01*
X68356526Y-141333703D01*
X68319548Y-141242215D01*
X68288827Y-141165201D01*
X68265622Y-141105815D01*
X68251190Y-141067209D01*
X68246743Y-141052800D01*
X68257896Y-141036272D01*
X68287069Y-141009930D01*
X68325971Y-140980887D01*
X68436757Y-140889039D01*
X68523351Y-140783759D01*
X68584716Y-140667266D01*
X68619815Y-140541776D01*
X68627608Y-140409507D01*
X68621943Y-140348457D01*
X68591078Y-140221795D01*
X68537920Y-140109941D01*
X68465767Y-140014001D01*
X68377917Y-139935076D01*
X68277665Y-139874270D01*
X68168310Y-139832687D01*
X68053147Y-139811428D01*
X67935475Y-139811599D01*
X67818590Y-139834301D01*
X67705789Y-139880638D01*
X67600369Y-139951713D01*
X67556368Y-139991911D01*
X67471979Y-140095129D01*
X67413222Y-140207925D01*
X67379704Y-140327010D01*
X67371035Y-140449095D01*
X67386823Y-140570893D01*
X67426678Y-140689116D01*
X67490207Y-140800475D01*
X67577021Y-140901684D01*
X67674029Y-140980887D01*
X67714437Y-141011162D01*
X67742982Y-141037219D01*
X67753257Y-141052825D01*
X67747877Y-141069843D01*
X67732575Y-141110500D01*
X67708612Y-141171642D01*
X67677244Y-141250119D01*
X67639732Y-141342780D01*
X67597333Y-141446472D01*
X67555663Y-141547526D01*
X67509690Y-141658607D01*
X67467107Y-141761541D01*
X67429221Y-141853165D01*
X67397340Y-141930316D01*
X67372771Y-141989831D01*
X67356820Y-142028544D01*
X67350910Y-142043000D01*
X67336948Y-142057685D01*
X67309940Y-142057642D01*
X67266413Y-142042099D01*
X67202890Y-142010284D01*
X67202388Y-142010013D01*
X67154560Y-141985323D01*
X67115897Y-141967338D01*
X67094095Y-141959614D01*
X67093133Y-141959543D01*
X67076721Y-141967378D01*
X67040487Y-141989165D01*
X66988474Y-142022328D01*
X66924725Y-142064291D01*
X66854060Y-142111943D01*
X66782116Y-142160191D01*
X66717274Y-142202151D01*
X66663735Y-142235227D01*
X66625697Y-142256821D01*
X66607533Y-142264343D01*
X66590808Y-142254457D01*
X66557180Y-142226826D01*
X66510010Y-142184495D01*
X66452658Y-142130505D01*
X66388484Y-142067899D01*
X66367497Y-142046983D01*
X66150499Y-141829623D01*
X66315668Y-141587220D01*
X66365864Y-141512781D01*
X66409919Y-141445972D01*
X66445362Y-141390665D01*
X66469719Y-141350729D01*
X66480522Y-141330036D01*
X66480838Y-141328563D01*
X66475143Y-141309058D01*
X66459826Y-141269822D01*
X66437537Y-141217430D01*
X66421893Y-141182355D01*
X66392641Y-141115201D01*
X66365094Y-141047358D01*
X66343737Y-140990034D01*
X66337935Y-140972572D01*
X66321452Y-140925938D01*
X66305340Y-140889905D01*
X66296490Y-140876287D01*
X66276960Y-140867952D01*
X66234334Y-140856137D01*
X66174145Y-140842181D01*
X66101922Y-140827422D01*
X66069600Y-140821355D01*
X65987522Y-140806273D01*
X65908795Y-140791669D01*
X65841109Y-140778980D01*
X65792160Y-140769642D01*
X65782943Y-140767839D01*
X65706743Y-140752799D01*
X65706743Y-140435492D01*
X65706914Y-140331154D01*
X65707616Y-140252213D01*
X65709134Y-140195038D01*
X65711749Y-140155999D01*
X65715746Y-140131465D01*
X65721409Y-140117805D01*
X65729020Y-140111389D01*
X65732143Y-140110199D01*
X65750978Y-140105980D01*
X65792588Y-140097562D01*
X65851630Y-140085961D01*
X65922757Y-140072195D01*
X66000625Y-140057280D01*
X66079887Y-140042232D01*
X66155198Y-140028069D01*
X66221213Y-140015806D01*
X66272587Y-140006461D01*
X66303975Y-140001050D01*
X66310959Y-140000114D01*
X66317285Y-139987596D01*
X66331290Y-139954246D01*
X66350355Y-139906377D01*
X66357634Y-139887629D01*
X66386996Y-139815195D01*
X66421571Y-139735170D01*
X66452537Y-139667728D01*
X66475323Y-139616159D01*
X66490482Y-139573785D01*
X66495542Y-139547834D01*
X66494736Y-139544356D01*
X66484041Y-139527936D01*
X66459620Y-139491417D01*
X66424095Y-139438687D01*
X66380087Y-139373635D01*
X66330217Y-139300151D01*
X66320356Y-139285645D01*
X66262492Y-139199704D01*
X66219956Y-139134261D01*
X66191054Y-139086304D01*
X66174090Y-139052820D01*
X66167367Y-139030795D01*
X66169190Y-139017217D01*
X66169236Y-139017131D01*
X66183586Y-138999297D01*
X66215323Y-138964817D01*
X66261010Y-138917268D01*
X66317204Y-138860222D01*
X66380468Y-138797255D01*
X66387602Y-138790227D01*
X66467330Y-138713020D01*
X66528857Y-138656330D01*
X66573421Y-138619110D01*
X66602257Y-138600315D01*
X66614958Y-138597889D01*
X66633494Y-138608471D01*
X66671961Y-138632916D01*
X66726386Y-138668612D01*
X66792798Y-138712947D01*
X66867225Y-138763311D01*
X66884601Y-138775160D01*
X67131297Y-138943626D01*
X67242706Y-138893062D01*
X67310457Y-138863595D01*
X67383183Y-138833959D01*
X67445703Y-138810330D01*
X67448457Y-138809358D01*
X67497360Y-138791457D01*
X67535057Y-138776320D01*
X67553425Y-138767210D01*
X67553456Y-138767184D01*
X67559285Y-138750717D01*
X67569192Y-138710219D01*
X67582195Y-138650242D01*
X67597309Y-138575340D01*
X67613552Y-138490064D01*
X67614881Y-138482875D01*
X67631175Y-138395014D01*
X67646133Y-138315260D01*
X67658791Y-138248681D01*
X67668186Y-138200347D01*
X67673354Y-138175325D01*
X67673444Y-138174943D01*
X67676589Y-138164299D01*
X67682704Y-138156262D01*
X67695453Y-138150467D01*
X67718500Y-138146547D01*
X67755509Y-138144135D01*
X67810144Y-138142865D01*
X67886067Y-138142371D01*
X67986944Y-138142286D01*
X68000000Y-138142286D01*
X68103910Y-138142348D01*
G37*
X68103910Y-138142348D02*
X68182454Y-138142778D01*
X68239298Y-138143942D01*
X68278105Y-138146207D01*
X68302538Y-138149940D01*
X68316262Y-138155506D01*
X68322940Y-138163273D01*
X68326236Y-138173605D01*
X68326556Y-138174943D01*
X68331562Y-138199079D01*
X68340829Y-138246701D01*
X68353392Y-138312741D01*
X68368287Y-138392128D01*
X68384551Y-138479796D01*
X68385119Y-138482875D01*
X68401410Y-138568789D01*
X68416652Y-138644696D01*
X68429861Y-138706045D01*
X68440054Y-138748282D01*
X68446248Y-138766855D01*
X68446543Y-138767184D01*
X68464788Y-138776253D01*
X68502405Y-138791367D01*
X68551271Y-138809262D01*
X68551543Y-138809358D01*
X68613093Y-138832493D01*
X68685657Y-138861965D01*
X68754057Y-138891597D01*
X68757294Y-138893062D01*
X68868702Y-138943626D01*
X69115399Y-138775160D01*
X69191077Y-138723803D01*
X69259631Y-138677889D01*
X69317088Y-138640030D01*
X69359476Y-138612837D01*
X69382825Y-138598921D01*
X69385042Y-138597889D01*
X69402010Y-138602484D01*
X69433701Y-138624655D01*
X69481352Y-138665447D01*
X69546198Y-138725905D01*
X69612397Y-138790227D01*
X69676214Y-138853612D01*
X69733329Y-138911451D01*
X69780305Y-138960175D01*
X69813703Y-138996210D01*
X69830085Y-139015984D01*
X69830694Y-139017002D01*
X69832505Y-139030572D01*
X69825683Y-139052733D01*
X69808540Y-139086478D01*
X69779393Y-139134800D01*
X69736555Y-139200692D01*
X69679448Y-139285517D01*
X69628766Y-139360177D01*
X69583461Y-139427140D01*
X69546150Y-139482516D01*
X69519452Y-139522420D01*
X69505985Y-139542962D01*
X69505137Y-139544356D01*
X69506781Y-139564038D01*
X69519245Y-139602293D01*
X69540048Y-139651889D01*
X69547462Y-139667728D01*
X69579814Y-139738290D01*
X69614328Y-139818353D01*
X69642365Y-139887629D01*
X69662568Y-139939045D01*
X69678615Y-139978119D01*
X69687888Y-139998541D01*
X69689041Y-140000114D01*
X69706096Y-140002721D01*
X69746298Y-140009863D01*
X69804302Y-140020523D01*
X69874763Y-140033685D01*
X69952335Y-140048333D01*
X70031672Y-140063449D01*
X70107431Y-140078018D01*
X70174264Y-140091022D01*
X70226828Y-140101445D01*
X70259776Y-140108270D01*
X70267857Y-140110199D01*
X70276205Y-140114962D01*
X70282506Y-140125718D01*
X70287045Y-140146098D01*
X70290104Y-140179734D01*
X70291967Y-140230255D01*
X70292918Y-140301292D01*
X70293240Y-140396476D01*
X70293257Y-140435492D01*
X70293257Y-140752799D01*
X70217057Y-140767839D01*
X70174663Y-140775995D01*
X70111400Y-140787899D01*
X70034962Y-140802116D01*
X69953043Y-140817210D01*
X69930400Y-140821355D01*
X69854806Y-140836053D01*
X69788953Y-140850505D01*
X69738366Y-140863375D01*
X69708574Y-140873322D01*
X69703612Y-140876287D01*
X69691426Y-140897283D01*
X69673953Y-140937967D01*
X69654577Y-140990322D01*
X69650734Y-141001600D01*
X69625339Y-141071523D01*
X69593817Y-141150418D01*
X69562969Y-141221266D01*
X69562817Y-141221595D01*
X69511447Y-141332733D01*
X69680399Y-141581253D01*
X69849352Y-141829772D01*
X69632429Y-142047058D01*
X69566819Y-142111726D01*
X69506979Y-142168733D01*
X69456267Y-142215033D01*
X69418046Y-142247584D01*
X69395675Y-142263343D01*
X69392466Y-142264343D01*
X69373626Y-142256469D01*
X69335180Y-142234578D01*
X69281330Y-142201267D01*
X69216276Y-142159131D01*
X69145940Y-142111943D01*
X69074555Y-142063810D01*
X69010908Y-142021928D01*
X68959041Y-141988871D01*
X68922995Y-141967218D01*
X68906867Y-141959543D01*
X68887189Y-141966037D01*
X68849875Y-141983150D01*
X68802621Y-142007326D01*
X68797612Y-142010013D01*
X68733977Y-142041927D01*
X68690341Y-142057579D01*
X68663202Y-142057745D01*
X68649057Y-142043204D01*
X68648975Y-142043000D01*
X68641905Y-142025779D01*
X68625042Y-141984899D01*
X68599695Y-141923525D01*
X68567171Y-141844819D01*
X68528778Y-141751947D01*
X68485822Y-141648072D01*
X68444222Y-141547502D01*
X68398504Y-141436516D01*
X68356526Y-141333703D01*
X68319548Y-141242215D01*
X68288827Y-141165201D01*
X68265622Y-141105815D01*
X68251190Y-141067209D01*
X68246743Y-141052800D01*
X68257896Y-141036272D01*
X68287069Y-141009930D01*
X68325971Y-140980887D01*
X68436757Y-140889039D01*
X68523351Y-140783759D01*
X68584716Y-140667266D01*
X68619815Y-140541776D01*
X68627608Y-140409507D01*
X68621943Y-140348457D01*
X68591078Y-140221795D01*
X68537920Y-140109941D01*
X68465767Y-140014001D01*
X68377917Y-139935076D01*
X68277665Y-139874270D01*
X68168310Y-139832687D01*
X68053147Y-139811428D01*
X67935475Y-139811599D01*
X67818590Y-139834301D01*
X67705789Y-139880638D01*
X67600369Y-139951713D01*
X67556368Y-139991911D01*
X67471979Y-140095129D01*
X67413222Y-140207925D01*
X67379704Y-140327010D01*
X67371035Y-140449095D01*
X67386823Y-140570893D01*
X67426678Y-140689116D01*
X67490207Y-140800475D01*
X67577021Y-140901684D01*
X67674029Y-140980887D01*
X67714437Y-141011162D01*
X67742982Y-141037219D01*
X67753257Y-141052825D01*
X67747877Y-141069843D01*
X67732575Y-141110500D01*
X67708612Y-141171642D01*
X67677244Y-141250119D01*
X67639732Y-141342780D01*
X67597333Y-141446472D01*
X67555663Y-141547526D01*
X67509690Y-141658607D01*
X67467107Y-141761541D01*
X67429221Y-141853165D01*
X67397340Y-141930316D01*
X67372771Y-141989831D01*
X67356820Y-142028544D01*
X67350910Y-142043000D01*
X67336948Y-142057685D01*
X67309940Y-142057642D01*
X67266413Y-142042099D01*
X67202890Y-142010284D01*
X67202388Y-142010013D01*
X67154560Y-141985323D01*
X67115897Y-141967338D01*
X67094095Y-141959614D01*
X67093133Y-141959543D01*
X67076721Y-141967378D01*
X67040487Y-141989165D01*
X66988474Y-142022328D01*
X66924725Y-142064291D01*
X66854060Y-142111943D01*
X66782116Y-142160191D01*
X66717274Y-142202151D01*
X66663735Y-142235227D01*
X66625697Y-142256821D01*
X66607533Y-142264343D01*
X66590808Y-142254457D01*
X66557180Y-142226826D01*
X66510010Y-142184495D01*
X66452658Y-142130505D01*
X66388484Y-142067899D01*
X66367497Y-142046983D01*
X66150499Y-141829623D01*
X66315668Y-141587220D01*
X66365864Y-141512781D01*
X66409919Y-141445972D01*
X66445362Y-141390665D01*
X66469719Y-141350729D01*
X66480522Y-141330036D01*
X66480838Y-141328563D01*
X66475143Y-141309058D01*
X66459826Y-141269822D01*
X66437537Y-141217430D01*
X66421893Y-141182355D01*
X66392641Y-141115201D01*
X66365094Y-141047358D01*
X66343737Y-140990034D01*
X66337935Y-140972572D01*
X66321452Y-140925938D01*
X66305340Y-140889905D01*
X66296490Y-140876287D01*
X66276960Y-140867952D01*
X66234334Y-140856137D01*
X66174145Y-140842181D01*
X66101922Y-140827422D01*
X66069600Y-140821355D01*
X65987522Y-140806273D01*
X65908795Y-140791669D01*
X65841109Y-140778980D01*
X65792160Y-140769642D01*
X65782943Y-140767839D01*
X65706743Y-140752799D01*
X65706743Y-140435492D01*
X65706914Y-140331154D01*
X65707616Y-140252213D01*
X65709134Y-140195038D01*
X65711749Y-140155999D01*
X65715746Y-140131465D01*
X65721409Y-140117805D01*
X65729020Y-140111389D01*
X65732143Y-140110199D01*
X65750978Y-140105980D01*
X65792588Y-140097562D01*
X65851630Y-140085961D01*
X65922757Y-140072195D01*
X66000625Y-140057280D01*
X66079887Y-140042232D01*
X66155198Y-140028069D01*
X66221213Y-140015806D01*
X66272587Y-140006461D01*
X66303975Y-140001050D01*
X66310959Y-140000114D01*
X66317285Y-139987596D01*
X66331290Y-139954246D01*
X66350355Y-139906377D01*
X66357634Y-139887629D01*
X66386996Y-139815195D01*
X66421571Y-139735170D01*
X66452537Y-139667728D01*
X66475323Y-139616159D01*
X66490482Y-139573785D01*
X66495542Y-139547834D01*
X66494736Y-139544356D01*
X66484041Y-139527936D01*
X66459620Y-139491417D01*
X66424095Y-139438687D01*
X66380087Y-139373635D01*
X66330217Y-139300151D01*
X66320356Y-139285645D01*
X66262492Y-139199704D01*
X66219956Y-139134261D01*
X66191054Y-139086304D01*
X66174090Y-139052820D01*
X66167367Y-139030795D01*
X66169190Y-139017217D01*
X66169236Y-139017131D01*
X66183586Y-138999297D01*
X66215323Y-138964817D01*
X66261010Y-138917268D01*
X66317204Y-138860222D01*
X66380468Y-138797255D01*
X66387602Y-138790227D01*
X66467330Y-138713020D01*
X66528857Y-138656330D01*
X66573421Y-138619110D01*
X66602257Y-138600315D01*
X66614958Y-138597889D01*
X66633494Y-138608471D01*
X66671961Y-138632916D01*
X66726386Y-138668612D01*
X66792798Y-138712947D01*
X66867225Y-138763311D01*
X66884601Y-138775160D01*
X67131297Y-138943626D01*
X67242706Y-138893062D01*
X67310457Y-138863595D01*
X67383183Y-138833959D01*
X67445703Y-138810330D01*
X67448457Y-138809358D01*
X67497360Y-138791457D01*
X67535057Y-138776320D01*
X67553425Y-138767210D01*
X67553456Y-138767184D01*
X67559285Y-138750717D01*
X67569192Y-138710219D01*
X67582195Y-138650242D01*
X67597309Y-138575340D01*
X67613552Y-138490064D01*
X67614881Y-138482875D01*
X67631175Y-138395014D01*
X67646133Y-138315260D01*
X67658791Y-138248681D01*
X67668186Y-138200347D01*
X67673354Y-138175325D01*
X67673444Y-138174943D01*
X67676589Y-138164299D01*
X67682704Y-138156262D01*
X67695453Y-138150467D01*
X67718500Y-138146547D01*
X67755509Y-138144135D01*
X67810144Y-138142865D01*
X67886067Y-138142371D01*
X67986944Y-138142286D01*
X68000000Y-138142286D01*
X68103910Y-138142348D01*
G36*
X71153595Y-142866966D02*
G01*
X71211021Y-142904497D01*
X71238719Y-142938096D01*
X71260662Y-142999064D01*
X71262405Y-143047308D01*
X71258457Y-143111816D01*
X71109686Y-143176934D01*
X71037349Y-143210202D01*
X70990084Y-143236964D01*
X70965507Y-143260144D01*
X70961237Y-143282667D01*
X70974889Y-143307455D01*
X70989943Y-143323886D01*
X71033746Y-143350235D01*
X71081389Y-143352081D01*
X71125145Y-143331546D01*
X71157289Y-143290752D01*
X71163038Y-143276347D01*
X71190576Y-143231356D01*
X71222258Y-143212182D01*
X71265714Y-143195779D01*
X71265714Y-143257966D01*
X71261872Y-143300283D01*
X71246823Y-143335969D01*
X71215280Y-143376943D01*
X71210592Y-143382267D01*
X71175506Y-143418720D01*
X71145347Y-143438283D01*
X71107615Y-143447283D01*
X71076335Y-143450230D01*
X71020385Y-143450965D01*
X70980555Y-143441660D01*
X70955708Y-143427846D01*
X70916656Y-143397467D01*
X70889625Y-143364613D01*
X70872517Y-143323294D01*
X70863238Y-143267521D01*
X70859693Y-143191305D01*
X70859410Y-143152622D01*
X70860372Y-143106247D01*
X70948007Y-143106247D01*
X70949023Y-143131126D01*
X70951556Y-143135200D01*
X70968274Y-143129665D01*
X71004249Y-143115017D01*
X71052331Y-143094190D01*
X71062386Y-143089714D01*
X71123152Y-143058814D01*
X71156632Y-143031657D01*
X71163990Y-143006220D01*
X71146391Y-142980481D01*
X71131856Y-142969109D01*
X71079410Y-142946364D01*
X71030322Y-142950122D01*
X70989227Y-142977884D01*
X70960758Y-143027152D01*
X70951631Y-143066257D01*
X70948007Y-143106247D01*
X70860372Y-143106247D01*
X70861285Y-143062249D01*
X70868196Y-142995384D01*
X70881884Y-142946695D01*
X70904096Y-142910849D01*
X70936574Y-142882513D01*
X70950733Y-142873355D01*
X71015053Y-142849507D01*
X71085473Y-142848006D01*
X71153595Y-142866966D01*
G37*
X71153595Y-142866966D02*
X71211021Y-142904497D01*
X71238719Y-142938096D01*
X71260662Y-142999064D01*
X71262405Y-143047308D01*
X71258457Y-143111816D01*
X71109686Y-143176934D01*
X71037349Y-143210202D01*
X70990084Y-143236964D01*
X70965507Y-143260144D01*
X70961237Y-143282667D01*
X70974889Y-143307455D01*
X70989943Y-143323886D01*
X71033746Y-143350235D01*
X71081389Y-143352081D01*
X71125145Y-143331546D01*
X71157289Y-143290752D01*
X71163038Y-143276347D01*
X71190576Y-143231356D01*
X71222258Y-143212182D01*
X71265714Y-143195779D01*
X71265714Y-143257966D01*
X71261872Y-143300283D01*
X71246823Y-143335969D01*
X71215280Y-143376943D01*
X71210592Y-143382267D01*
X71175506Y-143418720D01*
X71145347Y-143438283D01*
X71107615Y-143447283D01*
X71076335Y-143450230D01*
X71020385Y-143450965D01*
X70980555Y-143441660D01*
X70955708Y-143427846D01*
X70916656Y-143397467D01*
X70889625Y-143364613D01*
X70872517Y-143323294D01*
X70863238Y-143267521D01*
X70859693Y-143191305D01*
X70859410Y-143152622D01*
X70860372Y-143106247D01*
X70948007Y-143106247D01*
X70949023Y-143131126D01*
X70951556Y-143135200D01*
X70968274Y-143129665D01*
X71004249Y-143115017D01*
X71052331Y-143094190D01*
X71062386Y-143089714D01*
X71123152Y-143058814D01*
X71156632Y-143031657D01*
X71163990Y-143006220D01*
X71146391Y-142980481D01*
X71131856Y-142969109D01*
X71079410Y-142946364D01*
X71030322Y-142950122D01*
X70989227Y-142977884D01*
X70960758Y-143027152D01*
X70951631Y-143066257D01*
X70948007Y-143106247D01*
X70860372Y-143106247D01*
X70861285Y-143062249D01*
X70868196Y-142995384D01*
X70881884Y-142946695D01*
X70904096Y-142910849D01*
X70936574Y-142882513D01*
X70950733Y-142873355D01*
X71015053Y-142849507D01*
X71085473Y-142848006D01*
X71153595Y-142866966D01*
G36*
X70652600Y-142858752D02*
G01*
X70669948Y-142866334D01*
X70711356Y-142899128D01*
X70746765Y-142946547D01*
X70768664Y-142997151D01*
X70772229Y-143022098D01*
X70760279Y-143056927D01*
X70734067Y-143075357D01*
X70705964Y-143086516D01*
X70693095Y-143088572D01*
X70686829Y-143073649D01*
X70674456Y-143041175D01*
X70669028Y-143026502D01*
X70638590Y-142975744D01*
X70594520Y-142950427D01*
X70538010Y-142951206D01*
X70533825Y-142952203D01*
X70503655Y-142966507D01*
X70481476Y-142994393D01*
X70466327Y-143039287D01*
X70457250Y-143104615D01*
X70453286Y-143193804D01*
X70452914Y-143241261D01*
X70452730Y-143316071D01*
X70451522Y-143367069D01*
X70448309Y-143399471D01*
X70442109Y-143418495D01*
X70431940Y-143429356D01*
X70416819Y-143437272D01*
X70415946Y-143437670D01*
X70386828Y-143449981D01*
X70372403Y-143454514D01*
X70370186Y-143440809D01*
X70368289Y-143402925D01*
X70366847Y-143345715D01*
X70365998Y-143274027D01*
X70365829Y-143221565D01*
X70366692Y-143120047D01*
X70370070Y-143043032D01*
X70377142Y-142986023D01*
X70389088Y-142944526D01*
X70407090Y-142914043D01*
X70432327Y-142890080D01*
X70457247Y-142873355D01*
X70517171Y-142851097D01*
X70586911Y-142846076D01*
X70652600Y-142858752D01*
G37*
X70652600Y-142858752D02*
X70669948Y-142866334D01*
X70711356Y-142899128D01*
X70746765Y-142946547D01*
X70768664Y-142997151D01*
X70772229Y-143022098D01*
X70760279Y-143056927D01*
X70734067Y-143075357D01*
X70705964Y-143086516D01*
X70693095Y-143088572D01*
X70686829Y-143073649D01*
X70674456Y-143041175D01*
X70669028Y-143026502D01*
X70638590Y-142975744D01*
X70594520Y-142950427D01*
X70538010Y-142951206D01*
X70533825Y-142952203D01*
X70503655Y-142966507D01*
X70481476Y-142994393D01*
X70466327Y-143039287D01*
X70457250Y-143104615D01*
X70453286Y-143193804D01*
X70452914Y-143241261D01*
X70452730Y-143316071D01*
X70451522Y-143367069D01*
X70448309Y-143399471D01*
X70442109Y-143418495D01*
X70431940Y-143429356D01*
X70416819Y-143437272D01*
X70415946Y-143437670D01*
X70386828Y-143449981D01*
X70372403Y-143454514D01*
X70370186Y-143440809D01*
X70368289Y-143402925D01*
X70366847Y-143345715D01*
X70365998Y-143274027D01*
X70365829Y-143221565D01*
X70366692Y-143120047D01*
X70370070Y-143043032D01*
X70377142Y-142986023D01*
X70389088Y-142944526D01*
X70407090Y-142914043D01*
X70432327Y-142890080D01*
X70457247Y-142873355D01*
X70517171Y-142851097D01*
X70586911Y-142846076D01*
X70652600Y-142858752D01*
G36*
X70144876Y-142856335D02*
G01*
X70186667Y-142875344D01*
X70219469Y-142898378D01*
X70243503Y-142924133D01*
X70260097Y-142957358D01*
X70270577Y-143002800D01*
X70276271Y-143065207D01*
X70278507Y-143149327D01*
X70278743Y-143204721D01*
X70278743Y-143420826D01*
X70241774Y-143437670D01*
X70212656Y-143449981D01*
X70198231Y-143454514D01*
X70195472Y-143441025D01*
X70193282Y-143404653D01*
X70191942Y-143351542D01*
X70191657Y-143309372D01*
X70190434Y-143248447D01*
X70187136Y-143200115D01*
X70182321Y-143170518D01*
X70178496Y-143164229D01*
X70152783Y-143170652D01*
X70112418Y-143187125D01*
X70065679Y-143209458D01*
X70020845Y-143233457D01*
X69986193Y-143254930D01*
X69970002Y-143269685D01*
X69969938Y-143269845D01*
X69971330Y-143297152D01*
X69983818Y-143323219D01*
X70005743Y-143344392D01*
X70037743Y-143351474D01*
X70065092Y-143350649D01*
X70103826Y-143350042D01*
X70124158Y-143359116D01*
X70136369Y-143383092D01*
X70137909Y-143387613D01*
X70143203Y-143421806D01*
X70129047Y-143442568D01*
X70092148Y-143452462D01*
X70052289Y-143454292D01*
X69980562Y-143440727D01*
X69943432Y-143421355D01*
X69897576Y-143375845D01*
X69873256Y-143319983D01*
X69871073Y-143260957D01*
X69891629Y-143205953D01*
X69922549Y-143171486D01*
X69953420Y-143152189D01*
X70001942Y-143127759D01*
X70058485Y-143102985D01*
X70067910Y-143099199D01*
X70130019Y-143071791D01*
X70165822Y-143047634D01*
X70177337Y-143023619D01*
X70166580Y-142996635D01*
X70148114Y-142975543D01*
X70104469Y-142949572D01*
X70056446Y-142947624D01*
X70012406Y-142967637D01*
X69980709Y-143007551D01*
X69976549Y-143017848D01*
X69952327Y-143055724D01*
X69916965Y-143083842D01*
X69872343Y-143106917D01*
X69872343Y-143041485D01*
X69874969Y-143001506D01*
X69886230Y-142969997D01*
X69911199Y-142936378D01*
X69935169Y-142910484D01*
X69972441Y-142873817D01*
X70001401Y-142854121D01*
X70032505Y-142846220D01*
X70067713Y-142844914D01*
X70144876Y-142856335D01*
G37*
X70144876Y-142856335D02*
X70186667Y-142875344D01*
X70219469Y-142898378D01*
X70243503Y-142924133D01*
X70260097Y-142957358D01*
X70270577Y-143002800D01*
X70276271Y-143065207D01*
X70278507Y-143149327D01*
X70278743Y-143204721D01*
X70278743Y-143420826D01*
X70241774Y-143437670D01*
X70212656Y-143449981D01*
X70198231Y-143454514D01*
X70195472Y-143441025D01*
X70193282Y-143404653D01*
X70191942Y-143351542D01*
X70191657Y-143309372D01*
X70190434Y-143248447D01*
X70187136Y-143200115D01*
X70182321Y-143170518D01*
X70178496Y-143164229D01*
X70152783Y-143170652D01*
X70112418Y-143187125D01*
X70065679Y-143209458D01*
X70020845Y-143233457D01*
X69986193Y-143254930D01*
X69970002Y-143269685D01*
X69969938Y-143269845D01*
X69971330Y-143297152D01*
X69983818Y-143323219D01*
X70005743Y-143344392D01*
X70037743Y-143351474D01*
X70065092Y-143350649D01*
X70103826Y-143350042D01*
X70124158Y-143359116D01*
X70136369Y-143383092D01*
X70137909Y-143387613D01*
X70143203Y-143421806D01*
X70129047Y-143442568D01*
X70092148Y-143452462D01*
X70052289Y-143454292D01*
X69980562Y-143440727D01*
X69943432Y-143421355D01*
X69897576Y-143375845D01*
X69873256Y-143319983D01*
X69871073Y-143260957D01*
X69891629Y-143205953D01*
X69922549Y-143171486D01*
X69953420Y-143152189D01*
X70001942Y-143127759D01*
X70058485Y-143102985D01*
X70067910Y-143099199D01*
X70130019Y-143071791D01*
X70165822Y-143047634D01*
X70177337Y-143023619D01*
X70166580Y-142996635D01*
X70148114Y-142975543D01*
X70104469Y-142949572D01*
X70056446Y-142947624D01*
X70012406Y-142967637D01*
X69980709Y-143007551D01*
X69976549Y-143017848D01*
X69952327Y-143055724D01*
X69916965Y-143083842D01*
X69872343Y-143106917D01*
X69872343Y-143041485D01*
X69874969Y-143001506D01*
X69886230Y-142969997D01*
X69911199Y-142936378D01*
X69935169Y-142910484D01*
X69972441Y-142873817D01*
X70001401Y-142854121D01*
X70032505Y-142846220D01*
X70067713Y-142844914D01*
X70144876Y-142856335D01*
G36*
X69779833Y-142858663D02*
G01*
X69782048Y-142896850D01*
X69783784Y-142954886D01*
X69784899Y-143028180D01*
X69785257Y-143105055D01*
X69785257Y-143365196D01*
X69739326Y-143411127D01*
X69707675Y-143439429D01*
X69679890Y-143450893D01*
X69641915Y-143450168D01*
X69626840Y-143448321D01*
X69579726Y-143442948D01*
X69540756Y-143439869D01*
X69531257Y-143439585D01*
X69499233Y-143441445D01*
X69453432Y-143446114D01*
X69435674Y-143448321D01*
X69392057Y-143451735D01*
X69362745Y-143444320D01*
X69333680Y-143421427D01*
X69323188Y-143411127D01*
X69277257Y-143365196D01*
X69277257Y-142878602D01*
X69314226Y-142861758D01*
X69346059Y-142849282D01*
X69364683Y-142844914D01*
X69369458Y-142858718D01*
X69373921Y-142897286D01*
X69377775Y-142956356D01*
X69380722Y-143031663D01*
X69382143Y-143095286D01*
X69386114Y-143345657D01*
X69420759Y-143350556D01*
X69452268Y-143347131D01*
X69467708Y-143336041D01*
X69472023Y-143315308D01*
X69475708Y-143271145D01*
X69478469Y-143209146D01*
X69480012Y-143134909D01*
X69480235Y-143096706D01*
X69480457Y-142876783D01*
X69526166Y-142860849D01*
X69558518Y-142850015D01*
X69576115Y-142844962D01*
X69576623Y-142844914D01*
X69578388Y-142858648D01*
X69580329Y-142896730D01*
X69582282Y-142954482D01*
X69584084Y-143027227D01*
X69585343Y-143095286D01*
X69589314Y-143345657D01*
X69676400Y-143345657D01*
X69680396Y-143117240D01*
X69684392Y-142888822D01*
X69726847Y-142866868D01*
X69758192Y-142851793D01*
X69776744Y-142844951D01*
X69777279Y-142844914D01*
X69779833Y-142858663D01*
G37*
X69779833Y-142858663D02*
X69782048Y-142896850D01*
X69783784Y-142954886D01*
X69784899Y-143028180D01*
X69785257Y-143105055D01*
X69785257Y-143365196D01*
X69739326Y-143411127D01*
X69707675Y-143439429D01*
X69679890Y-143450893D01*
X69641915Y-143450168D01*
X69626840Y-143448321D01*
X69579726Y-143442948D01*
X69540756Y-143439869D01*
X69531257Y-143439585D01*
X69499233Y-143441445D01*
X69453432Y-143446114D01*
X69435674Y-143448321D01*
X69392057Y-143451735D01*
X69362745Y-143444320D01*
X69333680Y-143421427D01*
X69323188Y-143411127D01*
X69277257Y-143365196D01*
X69277257Y-142878602D01*
X69314226Y-142861758D01*
X69346059Y-142849282D01*
X69364683Y-142844914D01*
X69369458Y-142858718D01*
X69373921Y-142897286D01*
X69377775Y-142956356D01*
X69380722Y-143031663D01*
X69382143Y-143095286D01*
X69386114Y-143345657D01*
X69420759Y-143350556D01*
X69452268Y-143347131D01*
X69467708Y-143336041D01*
X69472023Y-143315308D01*
X69475708Y-143271145D01*
X69478469Y-143209146D01*
X69480012Y-143134909D01*
X69480235Y-143096706D01*
X69480457Y-142876783D01*
X69526166Y-142860849D01*
X69558518Y-142850015D01*
X69576115Y-142844962D01*
X69576623Y-142844914D01*
X69578388Y-142858648D01*
X69580329Y-142896730D01*
X69582282Y-142954482D01*
X69584084Y-143027227D01*
X69585343Y-143095286D01*
X69589314Y-143345657D01*
X69676400Y-143345657D01*
X69680396Y-143117240D01*
X69684392Y-142888822D01*
X69726847Y-142866868D01*
X69758192Y-142851793D01*
X69776744Y-142844951D01*
X69777279Y-142844914D01*
X69779833Y-142858663D01*
G36*
X69190117Y-142965358D02*
G01*
X69189933Y-143073837D01*
X69189219Y-143157287D01*
X69187675Y-143219704D01*
X69185001Y-143265085D01*
X69180894Y-143297429D01*
X69175055Y-143320733D01*
X69167182Y-143338995D01*
X69161221Y-143349418D01*
X69111855Y-143405945D01*
X69049264Y-143441377D01*
X68980013Y-143454090D01*
X68910668Y-143442463D01*
X68869375Y-143421568D01*
X68826025Y-143385422D01*
X68796481Y-143341276D01*
X68778655Y-143283462D01*
X68770463Y-143206313D01*
X68769302Y-143149714D01*
X68769458Y-143145647D01*
X68870857Y-143145647D01*
X68871476Y-143210550D01*
X68874314Y-143253514D01*
X68880840Y-143281622D01*
X68892523Y-143301953D01*
X68906483Y-143317288D01*
X68953365Y-143346890D01*
X69003701Y-143349419D01*
X69051276Y-143324705D01*
X69054979Y-143321356D01*
X69070783Y-143303935D01*
X69080693Y-143283209D01*
X69086058Y-143252362D01*
X69088228Y-143204577D01*
X69088571Y-143151748D01*
X69087827Y-143085381D01*
X69084748Y-143041106D01*
X69078061Y-143012009D01*
X69066496Y-142991173D01*
X69057013Y-142980107D01*
X69012960Y-142952198D01*
X68962224Y-142948843D01*
X68913796Y-142970159D01*
X68904450Y-142978073D01*
X68888540Y-142995647D01*
X68878610Y-143016587D01*
X68873278Y-143047782D01*
X68871163Y-143096122D01*
X68870857Y-143145647D01*
X68769458Y-143145647D01*
X68772810Y-143058568D01*
X68784726Y-142990086D01*
X68807135Y-142938600D01*
X68842124Y-142898443D01*
X68869375Y-142877861D01*
X68918907Y-142855625D01*
X68976316Y-142845304D01*
X69029682Y-142848067D01*
X69059543Y-142859212D01*
X69071261Y-142862383D01*
X69079037Y-142850557D01*
X69084465Y-142818866D01*
X69088571Y-142770593D01*
X69093067Y-142716829D01*
X69099313Y-142684482D01*
X69110676Y-142665985D01*
X69130528Y-142653770D01*
X69143000Y-142648362D01*
X69190171Y-142628601D01*
X69190117Y-142965358D01*
G37*
X69190117Y-142965358D02*
X69189933Y-143073837D01*
X69189219Y-143157287D01*
X69187675Y-143219704D01*
X69185001Y-143265085D01*
X69180894Y-143297429D01*
X69175055Y-143320733D01*
X69167182Y-143338995D01*
X69161221Y-143349418D01*
X69111855Y-143405945D01*
X69049264Y-143441377D01*
X68980013Y-143454090D01*
X68910668Y-143442463D01*
X68869375Y-143421568D01*
X68826025Y-143385422D01*
X68796481Y-143341276D01*
X68778655Y-143283462D01*
X68770463Y-143206313D01*
X68769302Y-143149714D01*
X68769458Y-143145647D01*
X68870857Y-143145647D01*
X68871476Y-143210550D01*
X68874314Y-143253514D01*
X68880840Y-143281622D01*
X68892523Y-143301953D01*
X68906483Y-143317288D01*
X68953365Y-143346890D01*
X69003701Y-143349419D01*
X69051276Y-143324705D01*
X69054979Y-143321356D01*
X69070783Y-143303935D01*
X69080693Y-143283209D01*
X69086058Y-143252362D01*
X69088228Y-143204577D01*
X69088571Y-143151748D01*
X69087827Y-143085381D01*
X69084748Y-143041106D01*
X69078061Y-143012009D01*
X69066496Y-142991173D01*
X69057013Y-142980107D01*
X69012960Y-142952198D01*
X68962224Y-142948843D01*
X68913796Y-142970159D01*
X68904450Y-142978073D01*
X68888540Y-142995647D01*
X68878610Y-143016587D01*
X68873278Y-143047782D01*
X68871163Y-143096122D01*
X68870857Y-143145647D01*
X68769458Y-143145647D01*
X68772810Y-143058568D01*
X68784726Y-142990086D01*
X68807135Y-142938600D01*
X68842124Y-142898443D01*
X68869375Y-142877861D01*
X68918907Y-142855625D01*
X68976316Y-142845304D01*
X69029682Y-142848067D01*
X69059543Y-142859212D01*
X69071261Y-142862383D01*
X69079037Y-142850557D01*
X69084465Y-142818866D01*
X69088571Y-142770593D01*
X69093067Y-142716829D01*
X69099313Y-142684482D01*
X69110676Y-142665985D01*
X69130528Y-142653770D01*
X69143000Y-142648362D01*
X69190171Y-142628601D01*
X69190117Y-142965358D01*
G36*
X68529926Y-142849755D02*
G01*
X68595858Y-142874084D01*
X68649273Y-142917117D01*
X68670164Y-142947409D01*
X68692939Y-143002994D01*
X68692466Y-143043186D01*
X68668562Y-143070217D01*
X68659717Y-143074813D01*
X68621530Y-143089144D01*
X68602028Y-143085472D01*
X68595422Y-143061407D01*
X68595086Y-143048114D01*
X68582992Y-142999210D01*
X68551471Y-142964999D01*
X68507659Y-142948476D01*
X68458695Y-142952634D01*
X68418894Y-142974227D01*
X68405450Y-142986544D01*
X68395921Y-143001487D01*
X68389485Y-143024075D01*
X68385317Y-143059328D01*
X68382597Y-143112266D01*
X68380502Y-143187907D01*
X68379960Y-143211857D01*
X68377981Y-143293790D01*
X68375731Y-143351455D01*
X68372357Y-143389608D01*
X68367006Y-143413004D01*
X68358824Y-143426398D01*
X68346959Y-143434545D01*
X68339362Y-143438144D01*
X68307102Y-143450452D01*
X68288111Y-143454514D01*
X68281836Y-143440948D01*
X68278006Y-143399934D01*
X68276600Y-143330999D01*
X68277598Y-143233669D01*
X68277908Y-143218657D01*
X68280101Y-143129859D01*
X68282693Y-143065019D01*
X68286382Y-143019067D01*
X68291864Y-142986935D01*
X68299835Y-142963553D01*
X68310993Y-142943852D01*
X68316830Y-142935410D01*
X68350296Y-142898057D01*
X68387727Y-142869003D01*
X68392309Y-142866467D01*
X68459426Y-142846443D01*
X68529926Y-142849755D01*
G37*
X68529926Y-142849755D02*
X68595858Y-142874084D01*
X68649273Y-142917117D01*
X68670164Y-142947409D01*
X68692939Y-143002994D01*
X68692466Y-143043186D01*
X68668562Y-143070217D01*
X68659717Y-143074813D01*
X68621530Y-143089144D01*
X68602028Y-143085472D01*
X68595422Y-143061407D01*
X68595086Y-143048114D01*
X68582992Y-142999210D01*
X68551471Y-142964999D01*
X68507659Y-142948476D01*
X68458695Y-142952634D01*
X68418894Y-142974227D01*
X68405450Y-142986544D01*
X68395921Y-143001487D01*
X68389485Y-143024075D01*
X68385317Y-143059328D01*
X68382597Y-143112266D01*
X68380502Y-143187907D01*
X68379960Y-143211857D01*
X68377981Y-143293790D01*
X68375731Y-143351455D01*
X68372357Y-143389608D01*
X68367006Y-143413004D01*
X68358824Y-143426398D01*
X68346959Y-143434545D01*
X68339362Y-143438144D01*
X68307102Y-143450452D01*
X68288111Y-143454514D01*
X68281836Y-143440948D01*
X68278006Y-143399934D01*
X68276600Y-143330999D01*
X68277598Y-143233669D01*
X68277908Y-143218657D01*
X68280101Y-143129859D01*
X68282693Y-143065019D01*
X68286382Y-143019067D01*
X68291864Y-142986935D01*
X68299835Y-142963553D01*
X68310993Y-142943852D01*
X68316830Y-142935410D01*
X68350296Y-142898057D01*
X68387727Y-142869003D01*
X68392309Y-142866467D01*
X68459426Y-142846443D01*
X68529926Y-142849755D01*
G36*
X68039744Y-142850968D02*
G01*
X68096616Y-142872087D01*
X68097267Y-142872493D01*
X68132440Y-142898380D01*
X68158407Y-142928633D01*
X68176670Y-142968058D01*
X68188732Y-143021462D01*
X68196096Y-143093651D01*
X68200264Y-143189432D01*
X68200629Y-143203078D01*
X68205876Y-143408842D01*
X68161716Y-143431678D01*
X68129763Y-143447110D01*
X68110470Y-143454423D01*
X68109578Y-143454514D01*
X68106239Y-143441022D01*
X68103587Y-143404626D01*
X68101956Y-143351452D01*
X68101600Y-143308393D01*
X68101592Y-143238641D01*
X68098403Y-143194837D01*
X68087288Y-143173944D01*
X68063501Y-143172925D01*
X68022296Y-143188741D01*
X67960086Y-143217815D01*
X67914341Y-143241963D01*
X67890813Y-143262913D01*
X67883896Y-143285747D01*
X67883886Y-143286877D01*
X67895299Y-143326212D01*
X67929092Y-143347462D01*
X67980809Y-143350539D01*
X68018061Y-143350006D01*
X68037703Y-143360735D01*
X68049952Y-143386505D01*
X68057002Y-143419337D01*
X68046842Y-143437966D01*
X68043017Y-143440632D01*
X68007001Y-143451340D01*
X67956566Y-143452856D01*
X67904626Y-143445759D01*
X67867822Y-143432788D01*
X67816938Y-143389585D01*
X67788014Y-143329446D01*
X67782286Y-143282462D01*
X67786657Y-143240082D01*
X67802475Y-143205488D01*
X67833797Y-143174763D01*
X67884678Y-143143990D01*
X67959176Y-143109252D01*
X67963714Y-143107288D01*
X68030821Y-143076287D01*
X68072232Y-143050862D01*
X68089981Y-143028014D01*
X68086107Y-143004745D01*
X68062643Y-142978056D01*
X68055627Y-142971914D01*
X68008630Y-142948100D01*
X67959933Y-142949103D01*
X67917522Y-142972451D01*
X67889384Y-143015675D01*
X67886769Y-143024160D01*
X67861308Y-143065308D01*
X67829001Y-143085128D01*
X67782286Y-143104770D01*
X67782286Y-143053950D01*
X67796496Y-142980082D01*
X67838675Y-142912327D01*
X67860624Y-142889661D01*
X67910517Y-142860569D01*
X67973967Y-142847400D01*
X68039744Y-142850968D01*
G37*
X68039744Y-142850968D02*
X68096616Y-142872087D01*
X68097267Y-142872493D01*
X68132440Y-142898380D01*
X68158407Y-142928633D01*
X68176670Y-142968058D01*
X68188732Y-143021462D01*
X68196096Y-143093651D01*
X68200264Y-143189432D01*
X68200629Y-143203078D01*
X68205876Y-143408842D01*
X68161716Y-143431678D01*
X68129763Y-143447110D01*
X68110470Y-143454423D01*
X68109578Y-143454514D01*
X68106239Y-143441022D01*
X68103587Y-143404626D01*
X68101956Y-143351452D01*
X68101600Y-143308393D01*
X68101592Y-143238641D01*
X68098403Y-143194837D01*
X68087288Y-143173944D01*
X68063501Y-143172925D01*
X68022296Y-143188741D01*
X67960086Y-143217815D01*
X67914341Y-143241963D01*
X67890813Y-143262913D01*
X67883896Y-143285747D01*
X67883886Y-143286877D01*
X67895299Y-143326212D01*
X67929092Y-143347462D01*
X67980809Y-143350539D01*
X68018061Y-143350006D01*
X68037703Y-143360735D01*
X68049952Y-143386505D01*
X68057002Y-143419337D01*
X68046842Y-143437966D01*
X68043017Y-143440632D01*
X68007001Y-143451340D01*
X67956566Y-143452856D01*
X67904626Y-143445759D01*
X67867822Y-143432788D01*
X67816938Y-143389585D01*
X67788014Y-143329446D01*
X67782286Y-143282462D01*
X67786657Y-143240082D01*
X67802475Y-143205488D01*
X67833797Y-143174763D01*
X67884678Y-143143990D01*
X67959176Y-143109252D01*
X67963714Y-143107288D01*
X68030821Y-143076287D01*
X68072232Y-143050862D01*
X68089981Y-143028014D01*
X68086107Y-143004745D01*
X68062643Y-142978056D01*
X68055627Y-142971914D01*
X68008630Y-142948100D01*
X67959933Y-142949103D01*
X67917522Y-142972451D01*
X67889384Y-143015675D01*
X67886769Y-143024160D01*
X67861308Y-143065308D01*
X67829001Y-143085128D01*
X67782286Y-143104770D01*
X67782286Y-143053950D01*
X67796496Y-142980082D01*
X67838675Y-142912327D01*
X67860624Y-142889661D01*
X67910517Y-142860569D01*
X67973967Y-142847400D01*
X68039744Y-142850968D01*
G36*
X67375886Y-142751289D02*
G01*
X67380139Y-142810613D01*
X67385025Y-142845572D01*
X67391795Y-142860820D01*
X67401702Y-142861015D01*
X67404914Y-142859195D01*
X67447644Y-142846015D01*
X67503227Y-142846785D01*
X67559737Y-142860333D01*
X67595082Y-142877861D01*
X67631321Y-142905861D01*
X67657813Y-142937549D01*
X67675999Y-142977813D01*
X67687322Y-143031543D01*
X67693222Y-143103626D01*
X67695143Y-143198951D01*
X67695177Y-143217237D01*
X67695200Y-143422646D01*
X67649491Y-143438580D01*
X67617027Y-143449420D01*
X67599215Y-143454468D01*
X67598691Y-143454514D01*
X67596937Y-143440828D01*
X67595444Y-143403076D01*
X67594326Y-143346224D01*
X67593697Y-143275234D01*
X67593600Y-143232073D01*
X67593398Y-143146973D01*
X67592358Y-143085981D01*
X67589831Y-143044177D01*
X67585164Y-143016642D01*
X67577707Y-142998456D01*
X67566811Y-142984698D01*
X67560007Y-142978073D01*
X67513272Y-142951375D01*
X67462272Y-142949375D01*
X67416001Y-142971955D01*
X67407444Y-142980107D01*
X67394893Y-142995436D01*
X67386188Y-143013618D01*
X67380631Y-143039909D01*
X67377526Y-143079562D01*
X67376176Y-143137832D01*
X67375886Y-143218173D01*
X67375886Y-143422646D01*
X67330177Y-143438580D01*
X67297713Y-143449420D01*
X67279901Y-143454468D01*
X67279377Y-143454514D01*
X67278037Y-143440623D01*
X67276828Y-143401439D01*
X67275801Y-143340700D01*
X67275002Y-143262141D01*
X67274481Y-143169498D01*
X67274286Y-143066509D01*
X67274286Y-142669342D01*
X67321457Y-142649444D01*
X67368629Y-142629547D01*
X67375886Y-142751289D01*
G37*
X67375886Y-142751289D02*
X67380139Y-142810613D01*
X67385025Y-142845572D01*
X67391795Y-142860820D01*
X67401702Y-142861015D01*
X67404914Y-142859195D01*
X67447644Y-142846015D01*
X67503227Y-142846785D01*
X67559737Y-142860333D01*
X67595082Y-142877861D01*
X67631321Y-142905861D01*
X67657813Y-142937549D01*
X67675999Y-142977813D01*
X67687322Y-143031543D01*
X67693222Y-143103626D01*
X67695143Y-143198951D01*
X67695177Y-143217237D01*
X67695200Y-143422646D01*
X67649491Y-143438580D01*
X67617027Y-143449420D01*
X67599215Y-143454468D01*
X67598691Y-143454514D01*
X67596937Y-143440828D01*
X67595444Y-143403076D01*
X67594326Y-143346224D01*
X67593697Y-143275234D01*
X67593600Y-143232073D01*
X67593398Y-143146973D01*
X67592358Y-143085981D01*
X67589831Y-143044177D01*
X67585164Y-143016642D01*
X67577707Y-142998456D01*
X67566811Y-142984698D01*
X67560007Y-142978073D01*
X67513272Y-142951375D01*
X67462272Y-142949375D01*
X67416001Y-142971955D01*
X67407444Y-142980107D01*
X67394893Y-142995436D01*
X67386188Y-143013618D01*
X67380631Y-143039909D01*
X67377526Y-143079562D01*
X67376176Y-143137832D01*
X67375886Y-143218173D01*
X67375886Y-143422646D01*
X67330177Y-143438580D01*
X67297713Y-143449420D01*
X67279901Y-143454468D01*
X67279377Y-143454514D01*
X67278037Y-143440623D01*
X67276828Y-143401439D01*
X67275801Y-143340700D01*
X67275002Y-143262141D01*
X67274481Y-143169498D01*
X67274286Y-143066509D01*
X67274286Y-142669342D01*
X67321457Y-142649444D01*
X67368629Y-142629547D01*
X67375886Y-142751289D01*
G36*
X66168303Y-142831239D02*
G01*
X66225527Y-142869735D01*
X66269749Y-142925335D01*
X66296167Y-142996086D01*
X66301510Y-143048162D01*
X66300903Y-143069893D01*
X66295822Y-143086531D01*
X66281855Y-143101437D01*
X66254589Y-143117973D01*
X66209612Y-143139498D01*
X66142511Y-143169374D01*
X66142171Y-143169524D01*
X66080407Y-143197813D01*
X66029759Y-143222933D01*
X65995404Y-143242179D01*
X65982518Y-143252848D01*
X65982514Y-143252934D01*
X65993872Y-143276166D01*
X66020431Y-143301774D01*
X66050923Y-143320221D01*
X66066370Y-143323886D01*
X66108515Y-143311212D01*
X66144808Y-143279471D01*
X66162517Y-143244572D01*
X66179552Y-143218845D01*
X66212922Y-143189546D01*
X66252149Y-143164235D01*
X66286756Y-143150471D01*
X66293993Y-143149714D01*
X66302139Y-143162160D01*
X66302630Y-143193972D01*
X66296643Y-143236866D01*
X66285357Y-143282558D01*
X66269950Y-143322761D01*
X66269171Y-143324322D01*
X66222804Y-143389062D01*
X66162711Y-143433097D01*
X66094465Y-143454711D01*
X66023638Y-143452185D01*
X65955804Y-143423804D01*
X65952788Y-143421808D01*
X65899427Y-143373448D01*
X65864340Y-143310352D01*
X65844922Y-143227387D01*
X65842316Y-143204078D01*
X65837701Y-143094055D01*
X65843233Y-143042748D01*
X65982514Y-143042748D01*
X65984324Y-143074753D01*
X65994222Y-143084093D01*
X66018898Y-143077105D01*
X66057795Y-143060587D01*
X66101275Y-143039881D01*
X66102356Y-143039333D01*
X66139209Y-143019949D01*
X66154000Y-143007013D01*
X66150353Y-142993451D01*
X66134995Y-142975632D01*
X66095923Y-142949845D01*
X66053846Y-142947950D01*
X66016103Y-142966717D01*
X65990034Y-143002915D01*
X65982514Y-143042748D01*
X65843233Y-143042748D01*
X65847194Y-143006027D01*
X65871550Y-142936212D01*
X65905456Y-142887302D01*
X65966653Y-142837878D01*
X66034063Y-142813359D01*
X66102880Y-142811797D01*
X66168303Y-142831239D01*
G37*
X66168303Y-142831239D02*
X66225527Y-142869735D01*
X66269749Y-142925335D01*
X66296167Y-142996086D01*
X66301510Y-143048162D01*
X66300903Y-143069893D01*
X66295822Y-143086531D01*
X66281855Y-143101437D01*
X66254589Y-143117973D01*
X66209612Y-143139498D01*
X66142511Y-143169374D01*
X66142171Y-143169524D01*
X66080407Y-143197813D01*
X66029759Y-143222933D01*
X65995404Y-143242179D01*
X65982518Y-143252848D01*
X65982514Y-143252934D01*
X65993872Y-143276166D01*
X66020431Y-143301774D01*
X66050923Y-143320221D01*
X66066370Y-143323886D01*
X66108515Y-143311212D01*
X66144808Y-143279471D01*
X66162517Y-143244572D01*
X66179552Y-143218845D01*
X66212922Y-143189546D01*
X66252149Y-143164235D01*
X66286756Y-143150471D01*
X66293993Y-143149714D01*
X66302139Y-143162160D01*
X66302630Y-143193972D01*
X66296643Y-143236866D01*
X66285357Y-143282558D01*
X66269950Y-143322761D01*
X66269171Y-143324322D01*
X66222804Y-143389062D01*
X66162711Y-143433097D01*
X66094465Y-143454711D01*
X66023638Y-143452185D01*
X65955804Y-143423804D01*
X65952788Y-143421808D01*
X65899427Y-143373448D01*
X65864340Y-143310352D01*
X65844922Y-143227387D01*
X65842316Y-143204078D01*
X65837701Y-143094055D01*
X65843233Y-143042748D01*
X65982514Y-143042748D01*
X65984324Y-143074753D01*
X65994222Y-143084093D01*
X66018898Y-143077105D01*
X66057795Y-143060587D01*
X66101275Y-143039881D01*
X66102356Y-143039333D01*
X66139209Y-143019949D01*
X66154000Y-143007013D01*
X66150353Y-142993451D01*
X66134995Y-142975632D01*
X66095923Y-142949845D01*
X66053846Y-142947950D01*
X66016103Y-142966717D01*
X65990034Y-143002915D01*
X65982514Y-143042748D01*
X65843233Y-143042748D01*
X65847194Y-143006027D01*
X65871550Y-142936212D01*
X65905456Y-142887302D01*
X65966653Y-142837878D01*
X66034063Y-142813359D01*
X66102880Y-142811797D01*
X66168303Y-142831239D01*
G36*
X65041115Y-142821962D02*
G01*
X65109145Y-142857733D01*
X65159351Y-142915301D01*
X65177185Y-142952312D01*
X65191063Y-143007882D01*
X65198167Y-143078096D01*
X65198840Y-143154727D01*
X65193427Y-143229552D01*
X65182270Y-143294342D01*
X65165714Y-143340873D01*
X65160626Y-143348887D01*
X65100355Y-143408707D01*
X65028769Y-143444535D01*
X64951092Y-143455020D01*
X64872548Y-143438810D01*
X64850689Y-143429092D01*
X64808122Y-143399143D01*
X64770763Y-143359433D01*
X64767232Y-143354397D01*
X64752881Y-143330124D01*
X64743394Y-143304178D01*
X64737790Y-143270022D01*
X64735086Y-143221119D01*
X64734299Y-143150935D01*
X64734286Y-143135200D01*
X64734322Y-143130192D01*
X64879429Y-143130192D01*
X64880273Y-143196430D01*
X64883596Y-143240386D01*
X64890583Y-143268779D01*
X64902416Y-143288325D01*
X64908457Y-143294857D01*
X64943186Y-143319680D01*
X64976903Y-143318548D01*
X65010995Y-143297016D01*
X65031329Y-143274029D01*
X65043371Y-143240478D01*
X65050134Y-143187569D01*
X65050598Y-143181399D01*
X65051752Y-143085513D01*
X65039688Y-143014299D01*
X65014570Y-142968194D01*
X64976560Y-142947635D01*
X64962992Y-142946514D01*
X64927364Y-142952152D01*
X64902994Y-142971686D01*
X64888093Y-143009042D01*
X64880875Y-143068150D01*
X64879429Y-143130192D01*
X64734322Y-143130192D01*
X64734826Y-143060413D01*
X64737096Y-143008159D01*
X64742068Y-142971949D01*
X64750713Y-142945299D01*
X64764005Y-142921722D01*
X64766943Y-142917338D01*
X64816313Y-142858249D01*
X64870109Y-142823947D01*
X64935602Y-142810331D01*
X64957842Y-142809665D01*
X65041115Y-142821962D01*
G37*
X65041115Y-142821962D02*
X65109145Y-142857733D01*
X65159351Y-142915301D01*
X65177185Y-142952312D01*
X65191063Y-143007882D01*
X65198167Y-143078096D01*
X65198840Y-143154727D01*
X65193427Y-143229552D01*
X65182270Y-143294342D01*
X65165714Y-143340873D01*
X65160626Y-143348887D01*
X65100355Y-143408707D01*
X65028769Y-143444535D01*
X64951092Y-143455020D01*
X64872548Y-143438810D01*
X64850689Y-143429092D01*
X64808122Y-143399143D01*
X64770763Y-143359433D01*
X64767232Y-143354397D01*
X64752881Y-143330124D01*
X64743394Y-143304178D01*
X64737790Y-143270022D01*
X64735086Y-143221119D01*
X64734299Y-143150935D01*
X64734286Y-143135200D01*
X64734322Y-143130192D01*
X64879429Y-143130192D01*
X64880273Y-143196430D01*
X64883596Y-143240386D01*
X64890583Y-143268779D01*
X64902416Y-143288325D01*
X64908457Y-143294857D01*
X64943186Y-143319680D01*
X64976903Y-143318548D01*
X65010995Y-143297016D01*
X65031329Y-143274029D01*
X65043371Y-143240478D01*
X65050134Y-143187569D01*
X65050598Y-143181399D01*
X65051752Y-143085513D01*
X65039688Y-143014299D01*
X65014570Y-142968194D01*
X64976560Y-142947635D01*
X64962992Y-142946514D01*
X64927364Y-142952152D01*
X64902994Y-142971686D01*
X64888093Y-143009042D01*
X64880875Y-143068150D01*
X64879429Y-143130192D01*
X64734322Y-143130192D01*
X64734826Y-143060413D01*
X64737096Y-143008159D01*
X64742068Y-142971949D01*
X64750713Y-142945299D01*
X64764005Y-142921722D01*
X64766943Y-142917338D01*
X64816313Y-142858249D01*
X64870109Y-142823947D01*
X64935602Y-142810331D01*
X64957842Y-142809665D01*
X65041115Y-142821962D01*
G36*
X66716093Y-142827780D02*
G01*
X66762672Y-142854723D01*
X66795057Y-142881466D01*
X66818742Y-142909484D01*
X66835059Y-142943748D01*
X66845339Y-142989227D01*
X66850914Y-143050892D01*
X66853116Y-143133711D01*
X66853371Y-143193246D01*
X66853371Y-143412391D01*
X66791686Y-143440044D01*
X66730000Y-143467697D01*
X66722743Y-143227670D01*
X66719744Y-143138028D01*
X66716598Y-143072962D01*
X66712701Y-143028026D01*
X66707447Y-142998770D01*
X66700231Y-142980748D01*
X66690450Y-142969511D01*
X66687312Y-142967079D01*
X66639761Y-142948083D01*
X66591697Y-142955600D01*
X66563086Y-142975543D01*
X66551447Y-142989675D01*
X66543391Y-143008220D01*
X66538271Y-143036334D01*
X66535441Y-143079173D01*
X66534256Y-143141895D01*
X66534057Y-143207261D01*
X66534018Y-143289268D01*
X66532614Y-143347316D01*
X66527914Y-143386465D01*
X66517987Y-143411780D01*
X66500903Y-143428323D01*
X66474732Y-143441156D01*
X66439775Y-143454491D01*
X66401596Y-143469007D01*
X66406141Y-143211389D01*
X66407971Y-143118519D01*
X66410112Y-143049889D01*
X66413181Y-143000711D01*
X66417794Y-142966198D01*
X66424568Y-142941562D01*
X66434119Y-142922016D01*
X66445634Y-142904770D01*
X66501190Y-142849680D01*
X66568980Y-142817822D01*
X66642713Y-142810191D01*
X66716093Y-142827780D01*
G37*
X66716093Y-142827780D02*
X66762672Y-142854723D01*
X66795057Y-142881466D01*
X66818742Y-142909484D01*
X66835059Y-142943748D01*
X66845339Y-142989227D01*
X66850914Y-143050892D01*
X66853116Y-143133711D01*
X66853371Y-143193246D01*
X66853371Y-143412391D01*
X66791686Y-143440044D01*
X66730000Y-143467697D01*
X66722743Y-143227670D01*
X66719744Y-143138028D01*
X66716598Y-143072962D01*
X66712701Y-143028026D01*
X66707447Y-142998770D01*
X66700231Y-142980748D01*
X66690450Y-142969511D01*
X66687312Y-142967079D01*
X66639761Y-142948083D01*
X66591697Y-142955600D01*
X66563086Y-142975543D01*
X66551447Y-142989675D01*
X66543391Y-143008220D01*
X66538271Y-143036334D01*
X66535441Y-143079173D01*
X66534256Y-143141895D01*
X66534057Y-143207261D01*
X66534018Y-143289268D01*
X66532614Y-143347316D01*
X66527914Y-143386465D01*
X66517987Y-143411780D01*
X66500903Y-143428323D01*
X66474732Y-143441156D01*
X66439775Y-143454491D01*
X66401596Y-143469007D01*
X66406141Y-143211389D01*
X66407971Y-143118519D01*
X66410112Y-143049889D01*
X66413181Y-143000711D01*
X66417794Y-142966198D01*
X66424568Y-142941562D01*
X66434119Y-142922016D01*
X66445634Y-142904770D01*
X66501190Y-142849680D01*
X66568980Y-142817822D01*
X66642713Y-142810191D01*
X66716093Y-142827780D01*
G36*
X65599744Y-142819918D02*
G01*
X65655201Y-142847568D01*
X65704148Y-142898480D01*
X65717629Y-142917338D01*
X65732314Y-142942015D01*
X65741842Y-142968816D01*
X65747293Y-143004587D01*
X65749747Y-143056169D01*
X65750286Y-143124267D01*
X65747852Y-143217588D01*
X65739394Y-143287657D01*
X65723174Y-143339931D01*
X65697454Y-143379869D01*
X65660497Y-143412929D01*
X65657782Y-143414886D01*
X65621360Y-143434908D01*
X65577502Y-143444815D01*
X65521724Y-143447257D01*
X65431048Y-143447257D01*
X65431010Y-143535283D01*
X65430166Y-143584308D01*
X65425024Y-143613065D01*
X65411587Y-143630311D01*
X65385858Y-143644808D01*
X65379679Y-143647769D01*
X65350764Y-143661648D01*
X65328376Y-143670414D01*
X65311729Y-143671171D01*
X65300036Y-143661023D01*
X65292510Y-143637073D01*
X65288366Y-143596426D01*
X65286815Y-143536186D01*
X65287071Y-143453455D01*
X65288349Y-143345339D01*
X65288748Y-143313000D01*
X65290185Y-143201524D01*
X65291472Y-143128603D01*
X65430971Y-143128603D01*
X65431755Y-143190499D01*
X65435240Y-143230997D01*
X65443124Y-143257708D01*
X65457105Y-143278244D01*
X65466597Y-143288260D01*
X65505404Y-143317567D01*
X65539763Y-143319952D01*
X65575216Y-143295750D01*
X65576114Y-143294857D01*
X65590539Y-143276153D01*
X65599313Y-143250732D01*
X65603739Y-143211584D01*
X65605118Y-143151697D01*
X65605143Y-143138430D01*
X65601812Y-143055901D01*
X65590969Y-142998691D01*
X65571340Y-142963766D01*
X65541650Y-142948094D01*
X65524491Y-142946514D01*
X65483766Y-142953926D01*
X65455832Y-142978330D01*
X65439017Y-143022980D01*
X65431650Y-143091130D01*
X65430971Y-143128603D01*
X65291472Y-143128603D01*
X65291708Y-143115245D01*
X65293677Y-143050333D01*
X65296450Y-143002958D01*
X65300388Y-142969290D01*
X65305849Y-142945498D01*
X65313192Y-142927753D01*
X65322777Y-142912224D01*
X65326887Y-142906381D01*
X65381405Y-142851185D01*
X65450336Y-142819890D01*
X65530072Y-142811165D01*
X65599744Y-142819918D01*
G37*
X65599744Y-142819918D02*
X65655201Y-142847568D01*
X65704148Y-142898480D01*
X65717629Y-142917338D01*
X65732314Y-142942015D01*
X65741842Y-142968816D01*
X65747293Y-143004587D01*
X65749747Y-143056169D01*
X65750286Y-143124267D01*
X65747852Y-143217588D01*
X65739394Y-143287657D01*
X65723174Y-143339931D01*
X65697454Y-143379869D01*
X65660497Y-143412929D01*
X65657782Y-143414886D01*
X65621360Y-143434908D01*
X65577502Y-143444815D01*
X65521724Y-143447257D01*
X65431048Y-143447257D01*
X65431010Y-143535283D01*
X65430166Y-143584308D01*
X65425024Y-143613065D01*
X65411587Y-143630311D01*
X65385858Y-143644808D01*
X65379679Y-143647769D01*
X65350764Y-143661648D01*
X65328376Y-143670414D01*
X65311729Y-143671171D01*
X65300036Y-143661023D01*
X65292510Y-143637073D01*
X65288366Y-143596426D01*
X65286815Y-143536186D01*
X65287071Y-143453455D01*
X65288349Y-143345339D01*
X65288748Y-143313000D01*
X65290185Y-143201524D01*
X65291472Y-143128603D01*
X65430971Y-143128603D01*
X65431755Y-143190499D01*
X65435240Y-143230997D01*
X65443124Y-143257708D01*
X65457105Y-143278244D01*
X65466597Y-143288260D01*
X65505404Y-143317567D01*
X65539763Y-143319952D01*
X65575216Y-143295750D01*
X65576114Y-143294857D01*
X65590539Y-143276153D01*
X65599313Y-143250732D01*
X65603739Y-143211584D01*
X65605118Y-143151697D01*
X65605143Y-143138430D01*
X65601812Y-143055901D01*
X65590969Y-142998691D01*
X65571340Y-142963766D01*
X65541650Y-142948094D01*
X65524491Y-142946514D01*
X65483766Y-142953926D01*
X65455832Y-142978330D01*
X65439017Y-143022980D01*
X65431650Y-143091130D01*
X65430971Y-143128603D01*
X65291472Y-143128603D01*
X65291708Y-143115245D01*
X65293677Y-143050333D01*
X65296450Y-143002958D01*
X65300388Y-142969290D01*
X65305849Y-142945498D01*
X65313192Y-142927753D01*
X65322777Y-142912224D01*
X65326887Y-142906381D01*
X65381405Y-142851185D01*
X65450336Y-142819890D01*
X65530072Y-142811165D01*
X65599744Y-142819918D01*
D11*
%TO.C,J17*%
X28290000Y-125040000D02*
X28290000Y-125440000D01*
X28930000Y-125040000D02*
X28290000Y-125040000D01*
X35270000Y-131060000D02*
X28530000Y-131060000D01*
X35270000Y-125280000D02*
X28530000Y-125280000D01*
X28530000Y-125280000D02*
X28530000Y-131060000D01*
X35270000Y-125280000D02*
X35270000Y-131060000D01*
X34150000Y-125280000D02*
X34150000Y-131060000D01*
X29050000Y-125280000D02*
X29050000Y-131060000D01*
%TO.C,J16*%
X28290000Y-131740000D02*
X28290000Y-132140000D01*
X28930000Y-131740000D02*
X28290000Y-131740000D01*
X35270000Y-137760000D02*
X28530000Y-137760000D01*
X35270000Y-131980000D02*
X28530000Y-131980000D01*
X28530000Y-131980000D02*
X28530000Y-137760000D01*
X35270000Y-131980000D02*
X35270000Y-137760000D01*
X34150000Y-131980000D02*
X34150000Y-137760000D01*
X29050000Y-131980000D02*
X29050000Y-137760000D01*
D10*
%TO.C,U6*%
X38125000Y-126726000D02*
X38125000Y-126951000D01*
X43875000Y-126726000D02*
X43875000Y-127026000D01*
X43875000Y-135376000D02*
X43875000Y-135076000D01*
X38125000Y-135376000D02*
X38125000Y-135076000D01*
X38125000Y-126726000D02*
X43875000Y-126726000D01*
X38125000Y-135376000D02*
X43875000Y-135376000D01*
X38125000Y-126951000D02*
X36525000Y-126951000D01*
%TO.C,U3*%
X67775000Y-135361000D02*
X67775000Y-135136000D01*
X62025000Y-135361000D02*
X62025000Y-135061000D01*
X62025000Y-126711000D02*
X62025000Y-127011000D01*
X67775000Y-126711000D02*
X67775000Y-127011000D01*
X67775000Y-135361000D02*
X62025000Y-135361000D01*
X67775000Y-126711000D02*
X62025000Y-126711000D01*
X67775000Y-135136000D02*
X69375000Y-135136000D01*
D11*
%TO.C,R4*%
X48060436Y-98735000D02*
X48514564Y-98735000D01*
X48060436Y-97265000D02*
X48514564Y-97265000D01*
%TO.C,J13*%
X58930000Y-97070000D02*
X58930000Y-99730000D01*
X64070000Y-97070000D02*
X58930000Y-97070000D01*
X64070000Y-99730000D02*
X58930000Y-99730000D01*
X64070000Y-97070000D02*
X64070000Y-99730000D01*
X65340000Y-97070000D02*
X66670000Y-97070000D01*
X66670000Y-97070000D02*
X66670000Y-98400000D01*
%TO.C,F2*%
X58690000Y-108252064D02*
X58690000Y-107047936D01*
X60510000Y-108252064D02*
X60510000Y-107047936D01*
%TO.C,F1*%
X66990000Y-117202064D02*
X66990000Y-115997936D01*
X68810000Y-117202064D02*
X68810000Y-115997936D01*
%TO.C,C3*%
X48990000Y-109186252D02*
X48990000Y-107763748D01*
X50810000Y-109186252D02*
X50810000Y-107763748D01*
%TO.C,C14*%
X61378748Y-124795000D02*
X61901252Y-124795000D01*
X61378748Y-126265000D02*
X61901252Y-126265000D01*
%TO.C,C13*%
X46665000Y-135661252D02*
X46665000Y-135138748D01*
X48135000Y-135661252D02*
X48135000Y-135138748D01*
%TO.C,C12*%
X59295000Y-126838748D02*
X59295000Y-127361252D01*
X57825000Y-126838748D02*
X57825000Y-127361252D01*
%TO.C,C11*%
X44061252Y-137285000D02*
X43538748Y-137285000D01*
X44061252Y-135815000D02*
X43538748Y-135815000D01*
%TO.C,C10*%
X59255000Y-132161252D02*
X59255000Y-131638748D01*
X57785000Y-132161252D02*
X57785000Y-131638748D01*
%TO.C,C9*%
X48135000Y-131038748D02*
X48135000Y-131561252D01*
X46665000Y-131038748D02*
X46665000Y-131561252D01*
%TO.C,U5*%
X58210000Y-102435000D02*
X56950000Y-102435000D01*
X51390000Y-102435000D02*
X52650000Y-102435000D01*
X58210000Y-106195000D02*
X58210000Y-102435000D01*
X51390000Y-108445000D02*
X51390000Y-102435000D01*
%TO.C,R9*%
X29090000Y-108627064D02*
X29090000Y-107172936D01*
X30910000Y-108627064D02*
X30910000Y-107172936D01*
%TO.C,R8*%
X31390000Y-108627064D02*
X31390000Y-107172936D01*
X33210000Y-108627064D02*
X33210000Y-107172936D01*
%TO.C,J1*%
X34350000Y-94650000D02*
X34650000Y-94650000D01*
X34650000Y-94650000D02*
X34650000Y-94150000D01*
X34060000Y-97400000D02*
X34060000Y-94360000D01*
X34060000Y-94360000D02*
X34360000Y-94360000D01*
X34360000Y-94360000D02*
X34360000Y-93290000D01*
X34360000Y-93290000D02*
X28640000Y-93290000D01*
X28640000Y-93290000D02*
X28640000Y-97400000D01*
X34060000Y-97400000D02*
X34060000Y-100440000D01*
X34060000Y-100440000D02*
X34360000Y-100440000D01*
X34360000Y-100440000D02*
X34360000Y-101510000D01*
X34360000Y-101510000D02*
X28640000Y-101510000D01*
X28640000Y-101510000D02*
X28640000Y-97400000D01*
%TO.C,J4*%
X45200000Y-86350000D02*
X45200000Y-86650000D01*
X45200000Y-86650000D02*
X45700000Y-86650000D01*
X42450000Y-86060000D02*
X45490000Y-86060000D01*
X45490000Y-86060000D02*
X45490000Y-86360000D01*
X45490000Y-86360000D02*
X46560000Y-86360000D01*
X46560000Y-86360000D02*
X46560000Y-80640000D01*
X46560000Y-80640000D02*
X42450000Y-80640000D01*
X42450000Y-86060000D02*
X39410000Y-86060000D01*
X39410000Y-86060000D02*
X39410000Y-86360000D01*
X39410000Y-86360000D02*
X38340000Y-86360000D01*
X38340000Y-86360000D02*
X38340000Y-80640000D01*
X38340000Y-80640000D02*
X42450000Y-80640000D01*
%TO.C,J2*%
X56350000Y-86350000D02*
X56350000Y-86650000D01*
X56350000Y-86650000D02*
X56850000Y-86650000D01*
X52975000Y-86060000D02*
X56640000Y-86060000D01*
X56640000Y-86060000D02*
X56640000Y-86360000D01*
X56640000Y-86360000D02*
X57710000Y-86360000D01*
X57710000Y-86360000D02*
X57710000Y-80640000D01*
X57710000Y-80640000D02*
X52975000Y-80640000D01*
X52975000Y-86060000D02*
X49310000Y-86060000D01*
X49310000Y-86060000D02*
X49310000Y-86360000D01*
X49310000Y-86360000D02*
X48240000Y-86360000D01*
X48240000Y-86360000D02*
X48240000Y-80640000D01*
X48240000Y-80640000D02*
X52975000Y-80640000D01*
%TO.C,J5*%
X71140000Y-108160000D02*
X71140000Y-108440000D01*
X71140000Y-108440000D02*
X69540000Y-108440000D01*
X69540000Y-108440000D02*
X69540000Y-109360000D01*
X69540000Y-109360000D02*
X77360000Y-109360000D01*
X77360000Y-109360000D02*
X77360000Y-103240000D01*
X77360000Y-103240000D02*
X69540000Y-103240000D01*
X69540000Y-103240000D02*
X69540000Y-104160000D01*
X69540000Y-104160000D02*
X71140000Y-104160000D01*
X71140000Y-104160000D02*
X71140000Y-104440000D01*
X77360000Y-106800000D02*
X73000000Y-106800000D01*
X73000000Y-106800000D02*
X73000000Y-105800000D01*
X73000000Y-105800000D02*
X77360000Y-105800000D01*
X71140000Y-109360000D02*
X71140000Y-108440000D01*
X71140000Y-103240000D02*
X71140000Y-104160000D01*
X73500000Y-108600000D02*
X75100000Y-108600000D01*
X75100000Y-108600000D02*
X75100000Y-107600000D01*
X75100000Y-107600000D02*
X73500000Y-107600000D01*
X73500000Y-107600000D02*
X73500000Y-108600000D01*
X73500000Y-104000000D02*
X75100000Y-104000000D01*
X75100000Y-104000000D02*
X75100000Y-105000000D01*
X75100000Y-105000000D02*
X73500000Y-105000000D01*
X73500000Y-105000000D02*
X73500000Y-104000000D01*
X75100000Y-107600000D02*
X77360000Y-107600000D01*
X75100000Y-108100000D02*
X77360000Y-108100000D01*
X71140000Y-108160000D02*
X69925000Y-108160000D01*
%TO.C,J3*%
X71140000Y-115460000D02*
X71140000Y-115740000D01*
X71140000Y-115740000D02*
X69540000Y-115740000D01*
X69540000Y-115740000D02*
X69540000Y-116660000D01*
X69540000Y-116660000D02*
X77360000Y-116660000D01*
X77360000Y-116660000D02*
X77360000Y-110540000D01*
X77360000Y-110540000D02*
X69540000Y-110540000D01*
X69540000Y-110540000D02*
X69540000Y-111460000D01*
X69540000Y-111460000D02*
X71140000Y-111460000D01*
X71140000Y-111460000D02*
X71140000Y-111740000D01*
X77360000Y-114100000D02*
X73000000Y-114100000D01*
X73000000Y-114100000D02*
X73000000Y-113100000D01*
X73000000Y-113100000D02*
X77360000Y-113100000D01*
X71140000Y-116660000D02*
X71140000Y-115740000D01*
X71140000Y-110540000D02*
X71140000Y-111460000D01*
X73500000Y-115900000D02*
X75100000Y-115900000D01*
X75100000Y-115900000D02*
X75100000Y-114900000D01*
X75100000Y-114900000D02*
X73500000Y-114900000D01*
X73500000Y-114900000D02*
X73500000Y-115900000D01*
X73500000Y-111300000D02*
X75100000Y-111300000D01*
X75100000Y-111300000D02*
X75100000Y-112300000D01*
X75100000Y-112300000D02*
X73500000Y-112300000D01*
X73500000Y-112300000D02*
X73500000Y-111300000D01*
X75100000Y-114900000D02*
X77360000Y-114900000D01*
X75100000Y-115400000D02*
X77360000Y-115400000D01*
X71140000Y-115460000D02*
X69925000Y-115460000D01*
%TO.C,J9*%
X71650000Y-100450000D02*
X71350000Y-100450000D01*
X71350000Y-100450000D02*
X71350000Y-100950000D01*
X71940000Y-97700000D02*
X71940000Y-100740000D01*
X71940000Y-100740000D02*
X71640000Y-100740000D01*
X71640000Y-100740000D02*
X71640000Y-101810000D01*
X71640000Y-101810000D02*
X77360000Y-101810000D01*
X77360000Y-101810000D02*
X77360000Y-97700000D01*
X71940000Y-97700000D02*
X71940000Y-94660000D01*
X71940000Y-94660000D02*
X71640000Y-94660000D01*
X71640000Y-94660000D02*
X71640000Y-93590000D01*
X71640000Y-93590000D02*
X77360000Y-93590000D01*
X77360000Y-93590000D02*
X77360000Y-97700000D01*
%TO.C,J7*%
X66250000Y-86350000D02*
X66250000Y-86650000D01*
X66250000Y-86650000D02*
X66750000Y-86650000D01*
X63500000Y-86060000D02*
X66540000Y-86060000D01*
X66540000Y-86060000D02*
X66540000Y-86360000D01*
X66540000Y-86360000D02*
X67610000Y-86360000D01*
X67610000Y-86360000D02*
X67610000Y-80640000D01*
X67610000Y-80640000D02*
X63500000Y-80640000D01*
X63500000Y-86060000D02*
X60460000Y-86060000D01*
X60460000Y-86060000D02*
X60460000Y-86360000D01*
X60460000Y-86360000D02*
X59390000Y-86360000D01*
X59390000Y-86360000D02*
X59390000Y-80640000D01*
X59390000Y-80640000D02*
X63500000Y-80640000D01*
%TO.C,J6*%
X34270000Y-105130000D02*
X34270000Y-102470000D01*
X31670000Y-105130000D02*
X34270000Y-105130000D01*
X31670000Y-102470000D02*
X34270000Y-102470000D01*
X31670000Y-105130000D02*
X31670000Y-102470000D01*
X30400000Y-105130000D02*
X29070000Y-105130000D01*
X29070000Y-105130000D02*
X29070000Y-103800000D01*
%TO.C,R5*%
X57272936Y-122465000D02*
X57727064Y-122465000D01*
X57272936Y-123935000D02*
X57727064Y-123935000D01*
%TO.C,J12*%
X55270000Y-123730000D02*
X55270000Y-121070000D01*
X52670000Y-123730000D02*
X55270000Y-123730000D01*
X52670000Y-121070000D02*
X55270000Y-121070000D01*
X52670000Y-123730000D02*
X52670000Y-121070000D01*
X51400000Y-123730000D02*
X50070000Y-123730000D01*
X50070000Y-123730000D02*
X50070000Y-122400000D01*
%TO.C,J11*%
X47930000Y-113270000D02*
X45270000Y-113270000D01*
X47930000Y-118410000D02*
X47930000Y-113270000D01*
X45270000Y-118410000D02*
X45270000Y-113270000D01*
X47930000Y-118410000D02*
X45270000Y-118410000D01*
X47930000Y-119680000D02*
X47930000Y-121010000D01*
X47930000Y-121010000D02*
X46600000Y-121010000D01*
%TO.C,J8*%
X30630000Y-121470000D02*
X30630000Y-124130000D01*
X33230000Y-121470000D02*
X30630000Y-121470000D01*
X33230000Y-124130000D02*
X30630000Y-124130000D01*
X33230000Y-121470000D02*
X33230000Y-124130000D01*
X34500000Y-121470000D02*
X35830000Y-121470000D01*
X35830000Y-121470000D02*
X35830000Y-122800000D01*
%TO.C,J10*%
X42530000Y-105670000D02*
X39870000Y-105670000D01*
X42530000Y-108270000D02*
X42530000Y-105670000D01*
X39870000Y-108270000D02*
X39870000Y-105670000D01*
X42530000Y-108270000D02*
X39870000Y-108270000D01*
X42530000Y-109540000D02*
X42530000Y-110870000D01*
X42530000Y-110870000D02*
X41200000Y-110870000D01*
%TO.C,D5*%
X49712500Y-104365000D02*
X47427500Y-104365000D01*
X47427500Y-104365000D02*
X47427500Y-105835000D01*
X47427500Y-105835000D02*
X49712500Y-105835000D01*
%TO.C,SW2*%
X73970000Y-123270000D02*
X76630000Y-123270000D01*
X73970000Y-120670000D02*
X73970000Y-123270000D01*
X76630000Y-120670000D02*
X76630000Y-123270000D01*
X73970000Y-120670000D02*
X76630000Y-120670000D01*
X73970000Y-119400000D02*
X73970000Y-118070000D01*
X73970000Y-118070000D02*
X75300000Y-118070000D01*
%TO.C,SW1*%
X50395000Y-120430000D02*
X50395000Y-120400000D01*
X50395000Y-113970000D02*
X50395000Y-114000000D01*
X56855000Y-113970000D02*
X56855000Y-114000000D01*
X56855000Y-120400000D02*
X56855000Y-120430000D01*
X50395000Y-118500000D02*
X50395000Y-115900000D01*
X56855000Y-120430000D02*
X50395000Y-120430000D01*
X56855000Y-118500000D02*
X56855000Y-115900000D01*
X56855000Y-113970000D02*
X50395000Y-113970000D01*
%TO.C,U2*%
X61861000Y-115556000D02*
X63621000Y-115556000D01*
X63621000Y-112486000D02*
X61191000Y-112486000D01*
%TO.C,R15*%
X61360436Y-116065000D02*
X61814564Y-116065000D01*
X61360436Y-117535000D02*
X61814564Y-117535000D01*
%TO.C,R12*%
X60135000Y-111572936D02*
X60135000Y-112027064D01*
X58665000Y-111572936D02*
X58665000Y-112027064D01*
%TO.C,R3*%
X65227064Y-117535000D02*
X64772936Y-117535000D01*
X65227064Y-116065000D02*
X64772936Y-116065000D01*
%TO.C,L1*%
X61000000Y-109300000D02*
X61000000Y-103700000D01*
X66400000Y-109300000D02*
X66400000Y-103700000D01*
X61000000Y-109300000D02*
X62150000Y-109300000D01*
X66400000Y-109300000D02*
X65250000Y-109300000D01*
X61000000Y-103700000D02*
X62150000Y-103700000D01*
X66400000Y-103700000D02*
X65250000Y-103700000D01*
%TO.C,D4*%
X64100000Y-110000000D02*
X64100000Y-112000000D01*
X64100000Y-112000000D02*
X68000000Y-112000000D01*
X64100000Y-110000000D02*
X68000000Y-110000000D01*
%TO.C,C4*%
X61865748Y-110406000D02*
X62388252Y-110406000D01*
X61865748Y-111876000D02*
X62388252Y-111876000D01*
%TO.C,C1*%
X66569748Y-112565000D02*
X67092252Y-112565000D01*
X66569748Y-114035000D02*
X67092252Y-114035000D01*
%TO.C,R10*%
X50465000Y-97972936D02*
X50465000Y-98427064D01*
X51935000Y-97972936D02*
X51935000Y-98427064D01*
%TO.C,R7*%
X66639564Y-100465000D02*
X66185436Y-100465000D01*
X66639564Y-101935000D02*
X66185436Y-101935000D01*
%TO.C,R6*%
X58865000Y-103727064D02*
X58865000Y-103272936D01*
X60335000Y-103727064D02*
X60335000Y-103272936D01*
%TO.C,R2*%
X53314564Y-110535000D02*
X52860436Y-110535000D01*
X53314564Y-109065000D02*
X52860436Y-109065000D01*
%TO.C,R1*%
X50212258Y-113522500D02*
X49737742Y-113522500D01*
X50212258Y-112477500D02*
X49737742Y-112477500D01*
%TO.C,D2*%
X59200000Y-101735000D02*
X61485000Y-101735000D01*
X61485000Y-101735000D02*
X61485000Y-100265000D01*
X61485000Y-100265000D02*
X59200000Y-100265000D01*
%TO.C,C8*%
X43690000Y-111440580D02*
X43690000Y-111159420D01*
X44710000Y-111440580D02*
X44710000Y-111159420D01*
%TO.C,C7*%
X45459420Y-104590000D02*
X45740580Y-104590000D01*
X45459420Y-105610000D02*
X45740580Y-105610000D01*
%TO.C,C6*%
X45190000Y-111440580D02*
X45190000Y-111159420D01*
X46210000Y-111440580D02*
X46210000Y-111159420D01*
%TO.C,C5*%
X53034420Y-112490000D02*
X53315580Y-112490000D01*
X53034420Y-113510000D02*
X53315580Y-113510000D01*
%TO.C,C2*%
X56861252Y-110535000D02*
X56338748Y-110535000D01*
X56861252Y-109065000D02*
X56338748Y-109065000D01*
%TO.C,D3*%
X63900000Y-100265000D02*
X61615000Y-100265000D01*
X61615000Y-100265000D02*
X61615000Y-101735000D01*
X61615000Y-101735000D02*
X63900000Y-101735000D01*
%TO.C,D6*%
X58100000Y-120565000D02*
X55815000Y-120565000D01*
X55815000Y-120565000D02*
X55815000Y-122035000D01*
X55815000Y-122035000D02*
X58100000Y-122035000D01*
%TO.C,U1*%
X43860000Y-103860000D02*
X43860000Y-104210000D01*
X43860000Y-104210000D02*
X46460000Y-104210000D01*
X43860000Y-101540000D02*
X43860000Y-101200000D01*
X43860000Y-101200000D02*
X48950000Y-101200000D01*
X48559917Y-101198264D02*
G75*
G03*
X44360000Y-101200000I-2099917J-101736D01*
G01*
%TO.C,U4*%
X34648000Y-116713000D02*
X34648000Y-119023000D01*
X34648000Y-119023000D02*
X34923000Y-119023000D01*
X34648000Y-116713000D02*
X34648000Y-114403000D01*
X34648000Y-114403000D02*
X34923000Y-114403000D01*
X44568000Y-116713000D02*
X44568000Y-119023000D01*
X44568000Y-119023000D02*
X44293000Y-119023000D01*
X44568000Y-116713000D02*
X44568000Y-114403000D01*
X44568000Y-114403000D02*
X44293000Y-114403000D01*
X44293000Y-114403000D02*
X44293000Y-113113000D01*
%TO.C,J22*%
X59310000Y-144360000D02*
X56450000Y-144360000D01*
X59310000Y-138640000D02*
X59310000Y-144360000D01*
X58240000Y-138640000D02*
X59310000Y-138640000D01*
X58240000Y-138940000D02*
X58240000Y-138640000D01*
X56450000Y-138940000D02*
X58240000Y-138940000D01*
X53590000Y-144360000D02*
X56450000Y-144360000D01*
X53590000Y-138640000D02*
X53590000Y-144360000D01*
X54660000Y-138640000D02*
X53590000Y-138640000D01*
X54660000Y-138940000D02*
X54660000Y-138640000D01*
X56450000Y-138940000D02*
X54660000Y-138940000D01*
X54950000Y-138350000D02*
X54450000Y-138350000D01*
X54950000Y-138650000D02*
X54950000Y-138350000D01*
%TO.C,J21*%
X77360000Y-86690000D02*
X77360000Y-89550000D01*
X71640000Y-86690000D02*
X77360000Y-86690000D01*
X71640000Y-87760000D02*
X71640000Y-86690000D01*
X71940000Y-87760000D02*
X71640000Y-87760000D01*
X71940000Y-89550000D02*
X71940000Y-87760000D01*
X77360000Y-92410000D02*
X77360000Y-89550000D01*
X71640000Y-92410000D02*
X77360000Y-92410000D01*
X71640000Y-91340000D02*
X71640000Y-92410000D01*
X71940000Y-91340000D02*
X71640000Y-91340000D01*
X71940000Y-89550000D02*
X71940000Y-91340000D01*
X71350000Y-91050000D02*
X71350000Y-91550000D01*
X71650000Y-91050000D02*
X71350000Y-91050000D01*
%TO.C,J20*%
X52310000Y-144360000D02*
X49450000Y-144360000D01*
X52310000Y-138640000D02*
X52310000Y-144360000D01*
X51240000Y-138640000D02*
X52310000Y-138640000D01*
X51240000Y-138940000D02*
X51240000Y-138640000D01*
X49450000Y-138940000D02*
X51240000Y-138940000D01*
X46590000Y-144360000D02*
X49450000Y-144360000D01*
X46590000Y-138640000D02*
X46590000Y-144360000D01*
X47660000Y-138640000D02*
X46590000Y-138640000D01*
X47660000Y-138940000D02*
X47660000Y-138640000D01*
X49450000Y-138940000D02*
X47660000Y-138940000D01*
X47950000Y-138350000D02*
X47450000Y-138350000D01*
X47950000Y-138650000D02*
X47950000Y-138350000D01*
%TO.C,J19*%
X28640000Y-92310000D02*
X28640000Y-89450000D01*
X34360000Y-92310000D02*
X28640000Y-92310000D01*
X34360000Y-91240000D02*
X34360000Y-92310000D01*
X34060000Y-91240000D02*
X34360000Y-91240000D01*
X34060000Y-89450000D02*
X34060000Y-91240000D01*
X28640000Y-86590000D02*
X28640000Y-89450000D01*
X34360000Y-86590000D02*
X28640000Y-86590000D01*
X34360000Y-87660000D02*
X34360000Y-86590000D01*
X34060000Y-87660000D02*
X34360000Y-87660000D01*
X34060000Y-89450000D02*
X34060000Y-87660000D01*
X34650000Y-87950000D02*
X34650000Y-87450000D01*
X34350000Y-87950000D02*
X34650000Y-87950000D01*
%TO.C,J15*%
X77710000Y-137623000D02*
X77710000Y-137223000D01*
X77070000Y-137623000D02*
X77710000Y-137623000D01*
X70730000Y-131603000D02*
X77470000Y-131603000D01*
X70730000Y-137383000D02*
X77470000Y-137383000D01*
X77470000Y-137383000D02*
X77470000Y-131603000D01*
X70730000Y-137383000D02*
X70730000Y-131603000D01*
X71850000Y-137383000D02*
X71850000Y-131603000D01*
X76950000Y-137383000D02*
X76950000Y-131603000D01*
%TO.C,J14*%
X77710000Y-130900000D02*
X77710000Y-130500000D01*
X77070000Y-130900000D02*
X77710000Y-130900000D01*
X70730000Y-124880000D02*
X77470000Y-124880000D01*
X70730000Y-130660000D02*
X77470000Y-130660000D01*
X77470000Y-130660000D02*
X77470000Y-124880000D01*
X70730000Y-130660000D02*
X70730000Y-124880000D01*
X71850000Y-130660000D02*
X71850000Y-124880000D01*
X76950000Y-130660000D02*
X76950000Y-124880000D01*
%TO.C,C15*%
D10*
X67385714Y-104385714D02*
X67347619Y-104423809D01*
X67233333Y-104461904D01*
X67157142Y-104461904D01*
X67042857Y-104423809D01*
X66966666Y-104347619D01*
X66928571Y-104271428D01*
X66890476Y-104119047D01*
X66890476Y-104004761D01*
X66928571Y-103852380D01*
X66966666Y-103776190D01*
X67042857Y-103700000D01*
X67157142Y-103661904D01*
X67233333Y-103661904D01*
X67347619Y-103700000D01*
X67385714Y-103738095D01*
X68147619Y-104461904D02*
X67690476Y-104461904D01*
X67919047Y-104461904D02*
X67919047Y-103661904D01*
X67842857Y-103776190D01*
X67766666Y-103852380D01*
X67690476Y-103890476D01*
X68871428Y-103661904D02*
X68490476Y-103661904D01*
X68452380Y-104042857D01*
X68490476Y-104004761D01*
X68566666Y-103966666D01*
X68757142Y-103966666D01*
X68833333Y-104004761D01*
X68871428Y-104042857D01*
X68909523Y-104119047D01*
X68909523Y-104309523D01*
X68871428Y-104385714D01*
X68833333Y-104423809D01*
X68757142Y-104461904D01*
X68566666Y-104461904D01*
X68490476Y-104423809D01*
X68452380Y-104385714D01*
%TO.C,R16*%
X63285714Y-138161904D02*
X63019047Y-137780952D01*
X62828571Y-138161904D02*
X62828571Y-137361904D01*
X63133333Y-137361904D01*
X63209523Y-137400000D01*
X63247619Y-137438095D01*
X63285714Y-137514285D01*
X63285714Y-137628571D01*
X63247619Y-137704761D01*
X63209523Y-137742857D01*
X63133333Y-137780952D01*
X62828571Y-137780952D01*
X64047619Y-138161904D02*
X63590476Y-138161904D01*
X63819047Y-138161904D02*
X63819047Y-137361904D01*
X63742857Y-137476190D01*
X63666666Y-137552380D01*
X63590476Y-137590476D01*
X64733333Y-137361904D02*
X64580952Y-137361904D01*
X64504761Y-137400000D01*
X64466666Y-137438095D01*
X64390476Y-137552380D01*
X64352380Y-137704761D01*
X64352380Y-138009523D01*
X64390476Y-138085714D01*
X64428571Y-138123809D01*
X64504761Y-138161904D01*
X64657142Y-138161904D01*
X64733333Y-138123809D01*
X64771428Y-138085714D01*
X64809523Y-138009523D01*
X64809523Y-137819047D01*
X64771428Y-137742857D01*
X64733333Y-137704761D01*
X64657142Y-137666666D01*
X64504761Y-137666666D01*
X64428571Y-137704761D01*
X64390476Y-137742857D01*
X64352380Y-137819047D01*
%TO.C,R14*%
X67385714Y-94561904D02*
X67119047Y-94180952D01*
X66928571Y-94561904D02*
X66928571Y-93761904D01*
X67233333Y-93761904D01*
X67309523Y-93800000D01*
X67347619Y-93838095D01*
X67385714Y-93914285D01*
X67385714Y-94028571D01*
X67347619Y-94104761D01*
X67309523Y-94142857D01*
X67233333Y-94180952D01*
X66928571Y-94180952D01*
X68147619Y-94561904D02*
X67690476Y-94561904D01*
X67919047Y-94561904D02*
X67919047Y-93761904D01*
X67842857Y-93876190D01*
X67766666Y-93952380D01*
X67690476Y-93990476D01*
X68833333Y-94028571D02*
X68833333Y-94561904D01*
X68642857Y-93723809D02*
X68452380Y-94295238D01*
X68947619Y-94295238D01*
%TO.C,R13*%
X40661904Y-140914285D02*
X40280952Y-141180952D01*
X40661904Y-141371428D02*
X39861904Y-141371428D01*
X39861904Y-141066666D01*
X39900000Y-140990476D01*
X39938095Y-140952380D01*
X40014285Y-140914285D01*
X40128571Y-140914285D01*
X40204761Y-140952380D01*
X40242857Y-140990476D01*
X40280952Y-141066666D01*
X40280952Y-141371428D01*
X40661904Y-140152380D02*
X40661904Y-140609523D01*
X40661904Y-140380952D02*
X39861904Y-140380952D01*
X39976190Y-140457142D01*
X40052380Y-140533333D01*
X40090476Y-140609523D01*
X39861904Y-139885714D02*
X39861904Y-139390476D01*
X40166666Y-139657142D01*
X40166666Y-139542857D01*
X40204761Y-139466666D01*
X40242857Y-139428571D01*
X40319047Y-139390476D01*
X40509523Y-139390476D01*
X40585714Y-139428571D01*
X40623809Y-139466666D01*
X40661904Y-139542857D01*
X40661904Y-139771428D01*
X40623809Y-139847619D01*
X40585714Y-139885714D01*
%TO.C,R11*%
X40485714Y-90461904D02*
X40219047Y-90080952D01*
X40028571Y-90461904D02*
X40028571Y-89661904D01*
X40333333Y-89661904D01*
X40409523Y-89700000D01*
X40447619Y-89738095D01*
X40485714Y-89814285D01*
X40485714Y-89928571D01*
X40447619Y-90004761D01*
X40409523Y-90042857D01*
X40333333Y-90080952D01*
X40028571Y-90080952D01*
X41247619Y-90461904D02*
X40790476Y-90461904D01*
X41019047Y-90461904D02*
X41019047Y-89661904D01*
X40942857Y-89776190D01*
X40866666Y-89852380D01*
X40790476Y-89890476D01*
X42009523Y-90461904D02*
X41552380Y-90461904D01*
X41780952Y-90461904D02*
X41780952Y-89661904D01*
X41704761Y-89776190D01*
X41628571Y-89852380D01*
X41552380Y-89890476D01*
%TO.C,D9*%
X61409523Y-142761904D02*
X61409523Y-141961904D01*
X61600000Y-141961904D01*
X61714285Y-142000000D01*
X61790476Y-142076190D01*
X61828571Y-142152380D01*
X61866666Y-142304761D01*
X61866666Y-142419047D01*
X61828571Y-142571428D01*
X61790476Y-142647619D01*
X61714285Y-142723809D01*
X61600000Y-142761904D01*
X61409523Y-142761904D01*
X62247619Y-142761904D02*
X62400000Y-142761904D01*
X62476190Y-142723809D01*
X62514285Y-142685714D01*
X62590476Y-142571428D01*
X62628571Y-142419047D01*
X62628571Y-142114285D01*
X62590476Y-142038095D01*
X62552380Y-142000000D01*
X62476190Y-141961904D01*
X62323809Y-141961904D01*
X62247619Y-142000000D01*
X62209523Y-142038095D01*
X62171428Y-142114285D01*
X62171428Y-142304761D01*
X62209523Y-142380952D01*
X62247619Y-142419047D01*
X62323809Y-142457142D01*
X62476190Y-142457142D01*
X62552380Y-142419047D01*
X62590476Y-142380952D01*
X62628571Y-142304761D01*
%TO.C,D8*%
X65309523Y-90961904D02*
X65309523Y-90161904D01*
X65500000Y-90161904D01*
X65614285Y-90200000D01*
X65690476Y-90276190D01*
X65728571Y-90352380D01*
X65766666Y-90504761D01*
X65766666Y-90619047D01*
X65728571Y-90771428D01*
X65690476Y-90847619D01*
X65614285Y-90923809D01*
X65500000Y-90961904D01*
X65309523Y-90961904D01*
X66223809Y-90504761D02*
X66147619Y-90466666D01*
X66109523Y-90428571D01*
X66071428Y-90352380D01*
X66071428Y-90314285D01*
X66109523Y-90238095D01*
X66147619Y-90200000D01*
X66223809Y-90161904D01*
X66376190Y-90161904D01*
X66452380Y-90200000D01*
X66490476Y-90238095D01*
X66528571Y-90314285D01*
X66528571Y-90352380D01*
X66490476Y-90428571D01*
X66452380Y-90466666D01*
X66376190Y-90504761D01*
X66223809Y-90504761D01*
X66147619Y-90542857D01*
X66109523Y-90580952D01*
X66071428Y-90657142D01*
X66071428Y-90809523D01*
X66109523Y-90885714D01*
X66147619Y-90923809D01*
X66223809Y-90961904D01*
X66376190Y-90961904D01*
X66452380Y-90923809D01*
X66490476Y-90885714D01*
X66528571Y-90809523D01*
X66528571Y-90657142D01*
X66490476Y-90580952D01*
X66452380Y-90542857D01*
X66376190Y-90504761D01*
%TO.C,D7*%
X43309523Y-142961904D02*
X43309523Y-142161904D01*
X43500000Y-142161904D01*
X43614285Y-142200000D01*
X43690476Y-142276190D01*
X43728571Y-142352380D01*
X43766666Y-142504761D01*
X43766666Y-142619047D01*
X43728571Y-142771428D01*
X43690476Y-142847619D01*
X43614285Y-142923809D01*
X43500000Y-142961904D01*
X43309523Y-142961904D01*
X44033333Y-142161904D02*
X44566666Y-142161904D01*
X44223809Y-142961904D01*
%TO.C,D1*%
X39797023Y-92261904D02*
X39797023Y-91461904D01*
X39987500Y-91461904D01*
X40101785Y-91500000D01*
X40177976Y-91576190D01*
X40216071Y-91652380D01*
X40254166Y-91804761D01*
X40254166Y-91919047D01*
X40216071Y-92071428D01*
X40177976Y-92147619D01*
X40101785Y-92223809D01*
X39987500Y-92261904D01*
X39797023Y-92261904D01*
X41016071Y-92261904D02*
X40558928Y-92261904D01*
X40787500Y-92261904D02*
X40787500Y-91461904D01*
X40711309Y-91576190D01*
X40635119Y-91652380D01*
X40558928Y-91690476D01*
%TO.C,U7*%
X70390476Y-117861904D02*
X70390476Y-118509523D01*
X70428571Y-118585714D01*
X70466666Y-118623809D01*
X70542857Y-118661904D01*
X70695238Y-118661904D01*
X70771428Y-118623809D01*
X70809523Y-118585714D01*
X70847619Y-118509523D01*
X70847619Y-117861904D01*
X71152380Y-117861904D02*
X71685714Y-117861904D01*
X71342857Y-118661904D01*
%TO.C,U6*%
X38548095Y-135982380D02*
X38548095Y-136791904D01*
X38595714Y-136887142D01*
X38643333Y-136934761D01*
X38738571Y-136982380D01*
X38929047Y-136982380D01*
X39024285Y-136934761D01*
X39071904Y-136887142D01*
X39119523Y-136791904D01*
X39119523Y-135982380D01*
X40024285Y-135982380D02*
X39833809Y-135982380D01*
X39738571Y-136030000D01*
X39690952Y-136077619D01*
X39595714Y-136220476D01*
X39548095Y-136410952D01*
X39548095Y-136791904D01*
X39595714Y-136887142D01*
X39643333Y-136934761D01*
X39738571Y-136982380D01*
X39929047Y-136982380D01*
X40024285Y-136934761D01*
X40071904Y-136887142D01*
X40119523Y-136791904D01*
X40119523Y-136553809D01*
X40071904Y-136458571D01*
X40024285Y-136410952D01*
X39929047Y-136363333D01*
X39738571Y-136363333D01*
X39643333Y-136410952D01*
X39595714Y-136458571D01*
X39548095Y-136553809D01*
%TO.C,U3*%
X67738095Y-135752380D02*
X67738095Y-136561904D01*
X67785714Y-136657142D01*
X67833333Y-136704761D01*
X67928571Y-136752380D01*
X68119047Y-136752380D01*
X68214285Y-136704761D01*
X68261904Y-136657142D01*
X68309523Y-136561904D01*
X68309523Y-135752380D01*
X68690476Y-135752380D02*
X69309523Y-135752380D01*
X68976190Y-136133333D01*
X69119047Y-136133333D01*
X69214285Y-136180952D01*
X69261904Y-136228571D01*
X69309523Y-136323809D01*
X69309523Y-136561904D01*
X69261904Y-136657142D01*
X69214285Y-136704761D01*
X69119047Y-136752380D01*
X68833333Y-136752380D01*
X68738095Y-136704761D01*
X68690476Y-136657142D01*
%TO.C,R4*%
X48166666Y-96861904D02*
X47900000Y-96480952D01*
X47709523Y-96861904D02*
X47709523Y-96061904D01*
X48014285Y-96061904D01*
X48090476Y-96100000D01*
X48128571Y-96138095D01*
X48166666Y-96214285D01*
X48166666Y-96328571D01*
X48128571Y-96404761D01*
X48090476Y-96442857D01*
X48014285Y-96480952D01*
X47709523Y-96480952D01*
X48852380Y-96328571D02*
X48852380Y-96861904D01*
X48661904Y-96023809D02*
X48471428Y-96595238D01*
X48966666Y-96595238D01*
%TO.C,F2*%
X59333333Y-107642857D02*
X59066666Y-107642857D01*
X59066666Y-108061904D02*
X59066666Y-107261904D01*
X59447619Y-107261904D01*
X59714285Y-107338095D02*
X59752380Y-107300000D01*
X59828571Y-107261904D01*
X60019047Y-107261904D01*
X60095238Y-107300000D01*
X60133333Y-107338095D01*
X60171428Y-107414285D01*
X60171428Y-107490476D01*
X60133333Y-107604761D01*
X59676190Y-108061904D01*
X60171428Y-108061904D01*
%TO.C,F1*%
X67633333Y-116655357D02*
X67366666Y-116655357D01*
X67366666Y-117074404D02*
X67366666Y-116274404D01*
X67747619Y-116274404D01*
X68471428Y-117074404D02*
X68014285Y-117074404D01*
X68242857Y-117074404D02*
X68242857Y-116274404D01*
X68166666Y-116388690D01*
X68090476Y-116464880D01*
X68014285Y-116502976D01*
%TO.C,C3*%
X48685714Y-109133333D02*
X48723809Y-109171428D01*
X48761904Y-109285714D01*
X48761904Y-109361904D01*
X48723809Y-109476190D01*
X48647619Y-109552380D01*
X48571428Y-109590476D01*
X48419047Y-109628571D01*
X48304761Y-109628571D01*
X48152380Y-109590476D01*
X48076190Y-109552380D01*
X48000000Y-109476190D01*
X47961904Y-109361904D01*
X47961904Y-109285714D01*
X48000000Y-109171428D01*
X48038095Y-109133333D01*
X47961904Y-108866666D02*
X47961904Y-108371428D01*
X48266666Y-108638095D01*
X48266666Y-108523809D01*
X48304761Y-108447619D01*
X48342857Y-108409523D01*
X48419047Y-108371428D01*
X48609523Y-108371428D01*
X48685714Y-108409523D01*
X48723809Y-108447619D01*
X48761904Y-108523809D01*
X48761904Y-108752380D01*
X48723809Y-108828571D01*
X48685714Y-108866666D01*
%TO.C,C14*%
X61485714Y-123685714D02*
X61447619Y-123723809D01*
X61333333Y-123761904D01*
X61257142Y-123761904D01*
X61142857Y-123723809D01*
X61066666Y-123647619D01*
X61028571Y-123571428D01*
X60990476Y-123419047D01*
X60990476Y-123304761D01*
X61028571Y-123152380D01*
X61066666Y-123076190D01*
X61142857Y-123000000D01*
X61257142Y-122961904D01*
X61333333Y-122961904D01*
X61447619Y-123000000D01*
X61485714Y-123038095D01*
X62247619Y-123761904D02*
X61790476Y-123761904D01*
X62019047Y-123761904D02*
X62019047Y-122961904D01*
X61942857Y-123076190D01*
X61866666Y-123152380D01*
X61790476Y-123190476D01*
X62933333Y-123228571D02*
X62933333Y-123761904D01*
X62742857Y-122923809D02*
X62552380Y-123495238D01*
X63047619Y-123495238D01*
%TO.C,C13*%
X50085714Y-135114285D02*
X50123809Y-135152380D01*
X50161904Y-135266666D01*
X50161904Y-135342857D01*
X50123809Y-135457142D01*
X50047619Y-135533333D01*
X49971428Y-135571428D01*
X49819047Y-135609523D01*
X49704761Y-135609523D01*
X49552380Y-135571428D01*
X49476190Y-135533333D01*
X49400000Y-135457142D01*
X49361904Y-135342857D01*
X49361904Y-135266666D01*
X49400000Y-135152380D01*
X49438095Y-135114285D01*
X50161904Y-134352380D02*
X50161904Y-134809523D01*
X50161904Y-134580952D02*
X49361904Y-134580952D01*
X49476190Y-134657142D01*
X49552380Y-134733333D01*
X49590476Y-134809523D01*
X49361904Y-134085714D02*
X49361904Y-133590476D01*
X49666666Y-133857142D01*
X49666666Y-133742857D01*
X49704761Y-133666666D01*
X49742857Y-133628571D01*
X49819047Y-133590476D01*
X50009523Y-133590476D01*
X50085714Y-133628571D01*
X50123809Y-133666666D01*
X50161904Y-133742857D01*
X50161904Y-133971428D01*
X50123809Y-134047619D01*
X50085714Y-134085714D01*
%TO.C,C12*%
X56615714Y-128284285D02*
X56653809Y-128322380D01*
X56691904Y-128436666D01*
X56691904Y-128512857D01*
X56653809Y-128627142D01*
X56577619Y-128703333D01*
X56501428Y-128741428D01*
X56349047Y-128779523D01*
X56234761Y-128779523D01*
X56082380Y-128741428D01*
X56006190Y-128703333D01*
X55930000Y-128627142D01*
X55891904Y-128512857D01*
X55891904Y-128436666D01*
X55930000Y-128322380D01*
X55968095Y-128284285D01*
X56691904Y-127522380D02*
X56691904Y-127979523D01*
X56691904Y-127750952D02*
X55891904Y-127750952D01*
X56006190Y-127827142D01*
X56082380Y-127903333D01*
X56120476Y-127979523D01*
X55968095Y-127217619D02*
X55930000Y-127179523D01*
X55891904Y-127103333D01*
X55891904Y-126912857D01*
X55930000Y-126836666D01*
X55968095Y-126798571D01*
X56044285Y-126760476D01*
X56120476Y-126760476D01*
X56234761Y-126798571D01*
X56691904Y-127255714D01*
X56691904Y-126760476D01*
%TO.C,C11*%
X44685714Y-138385714D02*
X44647619Y-138423809D01*
X44533333Y-138461904D01*
X44457142Y-138461904D01*
X44342857Y-138423809D01*
X44266666Y-138347619D01*
X44228571Y-138271428D01*
X44190476Y-138119047D01*
X44190476Y-138004761D01*
X44228571Y-137852380D01*
X44266666Y-137776190D01*
X44342857Y-137700000D01*
X44457142Y-137661904D01*
X44533333Y-137661904D01*
X44647619Y-137700000D01*
X44685714Y-137738095D01*
X45447619Y-138461904D02*
X44990476Y-138461904D01*
X45219047Y-138461904D02*
X45219047Y-137661904D01*
X45142857Y-137776190D01*
X45066666Y-137852380D01*
X44990476Y-137890476D01*
X46209523Y-138461904D02*
X45752380Y-138461904D01*
X45980952Y-138461904D02*
X45980952Y-137661904D01*
X45904761Y-137776190D01*
X45828571Y-137852380D01*
X45752380Y-137890476D01*
%TO.C,C10*%
X57785714Y-134485714D02*
X57747619Y-134523809D01*
X57633333Y-134561904D01*
X57557142Y-134561904D01*
X57442857Y-134523809D01*
X57366666Y-134447619D01*
X57328571Y-134371428D01*
X57290476Y-134219047D01*
X57290476Y-134104761D01*
X57328571Y-133952380D01*
X57366666Y-133876190D01*
X57442857Y-133800000D01*
X57557142Y-133761904D01*
X57633333Y-133761904D01*
X57747619Y-133800000D01*
X57785714Y-133838095D01*
X58547619Y-134561904D02*
X58090476Y-134561904D01*
X58319047Y-134561904D02*
X58319047Y-133761904D01*
X58242857Y-133876190D01*
X58166666Y-133952380D01*
X58090476Y-133990476D01*
X59042857Y-133761904D02*
X59119047Y-133761904D01*
X59195238Y-133800000D01*
X59233333Y-133838095D01*
X59271428Y-133914285D01*
X59309523Y-134066666D01*
X59309523Y-134257142D01*
X59271428Y-134409523D01*
X59233333Y-134485714D01*
X59195238Y-134523809D01*
X59119047Y-134561904D01*
X59042857Y-134561904D01*
X58966666Y-134523809D01*
X58928571Y-134485714D01*
X58890476Y-134409523D01*
X58852380Y-134257142D01*
X58852380Y-134066666D01*
X58890476Y-133914285D01*
X58928571Y-133838095D01*
X58966666Y-133800000D01*
X59042857Y-133761904D01*
%TO.C,C9*%
X49285714Y-130533333D02*
X49323809Y-130571428D01*
X49361904Y-130685714D01*
X49361904Y-130761904D01*
X49323809Y-130876190D01*
X49247619Y-130952380D01*
X49171428Y-130990476D01*
X49019047Y-131028571D01*
X48904761Y-131028571D01*
X48752380Y-130990476D01*
X48676190Y-130952380D01*
X48600000Y-130876190D01*
X48561904Y-130761904D01*
X48561904Y-130685714D01*
X48600000Y-130571428D01*
X48638095Y-130533333D01*
X49361904Y-130152380D02*
X49361904Y-130000000D01*
X49323809Y-129923809D01*
X49285714Y-129885714D01*
X49171428Y-129809523D01*
X49019047Y-129771428D01*
X48714285Y-129771428D01*
X48638095Y-129809523D01*
X48600000Y-129847619D01*
X48561904Y-129923809D01*
X48561904Y-130076190D01*
X48600000Y-130152380D01*
X48638095Y-130190476D01*
X48714285Y-130228571D01*
X48904761Y-130228571D01*
X48980952Y-130190476D01*
X49019047Y-130152380D01*
X49057142Y-130076190D01*
X49057142Y-129923809D01*
X49019047Y-129847619D01*
X48980952Y-129809523D01*
X48904761Y-129771428D01*
%TO.C,U5*%
X54038095Y-98752380D02*
X54038095Y-99561904D01*
X54085714Y-99657142D01*
X54133333Y-99704761D01*
X54228571Y-99752380D01*
X54419047Y-99752380D01*
X54514285Y-99704761D01*
X54561904Y-99657142D01*
X54609523Y-99561904D01*
X54609523Y-98752380D01*
X55561904Y-98752380D02*
X55085714Y-98752380D01*
X55038095Y-99228571D01*
X55085714Y-99180952D01*
X55180952Y-99133333D01*
X55419047Y-99133333D01*
X55514285Y-99180952D01*
X55561904Y-99228571D01*
X55609523Y-99323809D01*
X55609523Y-99561904D01*
X55561904Y-99657142D01*
X55514285Y-99704761D01*
X55419047Y-99752380D01*
X55180952Y-99752380D01*
X55085714Y-99704761D01*
X55038095Y-99657142D01*
%TO.C,R9*%
X29866666Y-111161904D02*
X29600000Y-110780952D01*
X29409523Y-111161904D02*
X29409523Y-110361904D01*
X29714285Y-110361904D01*
X29790476Y-110400000D01*
X29828571Y-110438095D01*
X29866666Y-110514285D01*
X29866666Y-110628571D01*
X29828571Y-110704761D01*
X29790476Y-110742857D01*
X29714285Y-110780952D01*
X29409523Y-110780952D01*
X30247619Y-111161904D02*
X30400000Y-111161904D01*
X30476190Y-111123809D01*
X30514285Y-111085714D01*
X30590476Y-110971428D01*
X30628571Y-110819047D01*
X30628571Y-110514285D01*
X30590476Y-110438095D01*
X30552380Y-110400000D01*
X30476190Y-110361904D01*
X30323809Y-110361904D01*
X30247619Y-110400000D01*
X30209523Y-110438095D01*
X30171428Y-110514285D01*
X30171428Y-110704761D01*
X30209523Y-110780952D01*
X30247619Y-110819047D01*
X30323809Y-110857142D01*
X30476190Y-110857142D01*
X30552380Y-110819047D01*
X30590476Y-110780952D01*
X30628571Y-110704761D01*
%TO.C,R8*%
X32166666Y-111161904D02*
X31900000Y-110780952D01*
X31709523Y-111161904D02*
X31709523Y-110361904D01*
X32014285Y-110361904D01*
X32090476Y-110400000D01*
X32128571Y-110438095D01*
X32166666Y-110514285D01*
X32166666Y-110628571D01*
X32128571Y-110704761D01*
X32090476Y-110742857D01*
X32014285Y-110780952D01*
X31709523Y-110780952D01*
X32623809Y-110704761D02*
X32547619Y-110666666D01*
X32509523Y-110628571D01*
X32471428Y-110552380D01*
X32471428Y-110514285D01*
X32509523Y-110438095D01*
X32547619Y-110400000D01*
X32623809Y-110361904D01*
X32776190Y-110361904D01*
X32852380Y-110400000D01*
X32890476Y-110438095D01*
X32928571Y-110514285D01*
X32928571Y-110552380D01*
X32890476Y-110628571D01*
X32852380Y-110666666D01*
X32776190Y-110704761D01*
X32623809Y-110704761D01*
X32547619Y-110742857D01*
X32509523Y-110780952D01*
X32471428Y-110857142D01*
X32471428Y-111009523D01*
X32509523Y-111085714D01*
X32547619Y-111123809D01*
X32623809Y-111161904D01*
X32776190Y-111161904D01*
X32852380Y-111123809D01*
X32890476Y-111085714D01*
X32928571Y-111009523D01*
X32928571Y-110857142D01*
X32890476Y-110780952D01*
X32852380Y-110742857D01*
X32776190Y-110704761D01*
%TO.C,R5*%
X59879166Y-123561904D02*
X59612500Y-123180952D01*
X59422023Y-123561904D02*
X59422023Y-122761904D01*
X59726785Y-122761904D01*
X59802976Y-122800000D01*
X59841071Y-122838095D01*
X59879166Y-122914285D01*
X59879166Y-123028571D01*
X59841071Y-123104761D01*
X59802976Y-123142857D01*
X59726785Y-123180952D01*
X59422023Y-123180952D01*
X60602976Y-122761904D02*
X60222023Y-122761904D01*
X60183928Y-123142857D01*
X60222023Y-123104761D01*
X60298214Y-123066666D01*
X60488690Y-123066666D01*
X60564880Y-123104761D01*
X60602976Y-123142857D01*
X60641071Y-123219047D01*
X60641071Y-123409523D01*
X60602976Y-123485714D01*
X60564880Y-123523809D01*
X60488690Y-123561904D01*
X60298214Y-123561904D01*
X60222023Y-123523809D01*
X60183928Y-123485714D01*
%TO.C,D5*%
X47309523Y-107161904D02*
X47309523Y-106361904D01*
X47500000Y-106361904D01*
X47614285Y-106400000D01*
X47690476Y-106476190D01*
X47728571Y-106552380D01*
X47766666Y-106704761D01*
X47766666Y-106819047D01*
X47728571Y-106971428D01*
X47690476Y-107047619D01*
X47614285Y-107123809D01*
X47500000Y-107161904D01*
X47309523Y-107161904D01*
X48490476Y-106361904D02*
X48109523Y-106361904D01*
X48071428Y-106742857D01*
X48109523Y-106704761D01*
X48185714Y-106666666D01*
X48376190Y-106666666D01*
X48452380Y-106704761D01*
X48490476Y-106742857D01*
X48528571Y-106819047D01*
X48528571Y-107009523D01*
X48490476Y-107085714D01*
X48452380Y-107123809D01*
X48376190Y-107161904D01*
X48185714Y-107161904D01*
X48109523Y-107123809D01*
X48071428Y-107085714D01*
%TO.C,SW1*%
X52166666Y-117704761D02*
X52309523Y-117752380D01*
X52547619Y-117752380D01*
X52642857Y-117704761D01*
X52690476Y-117657142D01*
X52738095Y-117561904D01*
X52738095Y-117466666D01*
X52690476Y-117371428D01*
X52642857Y-117323809D01*
X52547619Y-117276190D01*
X52357142Y-117228571D01*
X52261904Y-117180952D01*
X52214285Y-117133333D01*
X52166666Y-117038095D01*
X52166666Y-116942857D01*
X52214285Y-116847619D01*
X52261904Y-116800000D01*
X52357142Y-116752380D01*
X52595238Y-116752380D01*
X52738095Y-116800000D01*
X53071428Y-116752380D02*
X53309523Y-117752380D01*
X53500000Y-117038095D01*
X53690476Y-117752380D01*
X53928571Y-116752380D01*
X54833333Y-117752380D02*
X54261904Y-117752380D01*
X54547619Y-117752380D02*
X54547619Y-116752380D01*
X54452380Y-116895238D01*
X54357142Y-116990476D01*
X54261904Y-117038095D01*
%TO.C,U2*%
X59090476Y-114661904D02*
X59090476Y-115309523D01*
X59128571Y-115385714D01*
X59166666Y-115423809D01*
X59242857Y-115461904D01*
X59395238Y-115461904D01*
X59471428Y-115423809D01*
X59509523Y-115385714D01*
X59547619Y-115309523D01*
X59547619Y-114661904D01*
X59890476Y-114738095D02*
X59928571Y-114700000D01*
X60004761Y-114661904D01*
X60195238Y-114661904D01*
X60271428Y-114700000D01*
X60309523Y-114738095D01*
X60347619Y-114814285D01*
X60347619Y-114890476D01*
X60309523Y-115004761D01*
X59852380Y-115461904D01*
X60347619Y-115461904D01*
%TO.C,R15*%
X59985714Y-118761904D02*
X59719047Y-118380952D01*
X59528571Y-118761904D02*
X59528571Y-117961904D01*
X59833333Y-117961904D01*
X59909523Y-118000000D01*
X59947619Y-118038095D01*
X59985714Y-118114285D01*
X59985714Y-118228571D01*
X59947619Y-118304761D01*
X59909523Y-118342857D01*
X59833333Y-118380952D01*
X59528571Y-118380952D01*
X60747619Y-118761904D02*
X60290476Y-118761904D01*
X60519047Y-118761904D02*
X60519047Y-117961904D01*
X60442857Y-118076190D01*
X60366666Y-118152380D01*
X60290476Y-118190476D01*
X61471428Y-117961904D02*
X61090476Y-117961904D01*
X61052380Y-118342857D01*
X61090476Y-118304761D01*
X61166666Y-118266666D01*
X61357142Y-118266666D01*
X61433333Y-118304761D01*
X61471428Y-118342857D01*
X61509523Y-118419047D01*
X61509523Y-118609523D01*
X61471428Y-118685714D01*
X61433333Y-118723809D01*
X61357142Y-118761904D01*
X61166666Y-118761904D01*
X61090476Y-118723809D01*
X61052380Y-118685714D01*
%TO.C,R12*%
X58261904Y-113514285D02*
X57880952Y-113780952D01*
X58261904Y-113971428D02*
X57461904Y-113971428D01*
X57461904Y-113666666D01*
X57500000Y-113590476D01*
X57538095Y-113552380D01*
X57614285Y-113514285D01*
X57728571Y-113514285D01*
X57804761Y-113552380D01*
X57842857Y-113590476D01*
X57880952Y-113666666D01*
X57880952Y-113971428D01*
X58261904Y-112752380D02*
X58261904Y-113209523D01*
X58261904Y-112980952D02*
X57461904Y-112980952D01*
X57576190Y-113057142D01*
X57652380Y-113133333D01*
X57690476Y-113209523D01*
X57538095Y-112447619D02*
X57500000Y-112409523D01*
X57461904Y-112333333D01*
X57461904Y-112142857D01*
X57500000Y-112066666D01*
X57538095Y-112028571D01*
X57614285Y-111990476D01*
X57690476Y-111990476D01*
X57804761Y-112028571D01*
X58261904Y-112485714D01*
X58261904Y-111990476D01*
%TO.C,R3*%
X65116666Y-118761904D02*
X64850000Y-118380952D01*
X64659523Y-118761904D02*
X64659523Y-117961904D01*
X64964285Y-117961904D01*
X65040476Y-118000000D01*
X65078571Y-118038095D01*
X65116666Y-118114285D01*
X65116666Y-118228571D01*
X65078571Y-118304761D01*
X65040476Y-118342857D01*
X64964285Y-118380952D01*
X64659523Y-118380952D01*
X65383333Y-117961904D02*
X65878571Y-117961904D01*
X65611904Y-118266666D01*
X65726190Y-118266666D01*
X65802380Y-118304761D01*
X65840476Y-118342857D01*
X65878571Y-118419047D01*
X65878571Y-118609523D01*
X65840476Y-118685714D01*
X65802380Y-118723809D01*
X65726190Y-118761904D01*
X65497619Y-118761904D01*
X65421428Y-118723809D01*
X65383333Y-118685714D01*
%TO.C,L1*%
X65766666Y-103061904D02*
X65385714Y-103061904D01*
X65385714Y-102261904D01*
X66452380Y-103061904D02*
X65995238Y-103061904D01*
X66223809Y-103061904D02*
X66223809Y-102261904D01*
X66147619Y-102376190D01*
X66071428Y-102452380D01*
X65995238Y-102490476D01*
%TO.C,D4*%
X68009523Y-109761904D02*
X68009523Y-108961904D01*
X68200000Y-108961904D01*
X68314285Y-109000000D01*
X68390476Y-109076190D01*
X68428571Y-109152380D01*
X68466666Y-109304761D01*
X68466666Y-109419047D01*
X68428571Y-109571428D01*
X68390476Y-109647619D01*
X68314285Y-109723809D01*
X68200000Y-109761904D01*
X68009523Y-109761904D01*
X69152380Y-109228571D02*
X69152380Y-109761904D01*
X68961904Y-108923809D02*
X68771428Y-109495238D01*
X69266666Y-109495238D01*
%TO.C,R10*%
X53061904Y-98714285D02*
X52680952Y-98980952D01*
X53061904Y-99171428D02*
X52261904Y-99171428D01*
X52261904Y-98866666D01*
X52300000Y-98790476D01*
X52338095Y-98752380D01*
X52414285Y-98714285D01*
X52528571Y-98714285D01*
X52604761Y-98752380D01*
X52642857Y-98790476D01*
X52680952Y-98866666D01*
X52680952Y-99171428D01*
X53061904Y-97952380D02*
X53061904Y-98409523D01*
X53061904Y-98180952D02*
X52261904Y-98180952D01*
X52376190Y-98257142D01*
X52452380Y-98333333D01*
X52490476Y-98409523D01*
X52261904Y-97457142D02*
X52261904Y-97380952D01*
X52300000Y-97304761D01*
X52338095Y-97266666D01*
X52414285Y-97228571D01*
X52566666Y-97190476D01*
X52757142Y-97190476D01*
X52909523Y-97228571D01*
X52985714Y-97266666D01*
X53023809Y-97304761D01*
X53061904Y-97380952D01*
X53061904Y-97457142D01*
X53023809Y-97533333D01*
X52985714Y-97571428D01*
X52909523Y-97609523D01*
X52757142Y-97647619D01*
X52566666Y-97647619D01*
X52414285Y-97609523D01*
X52338095Y-97571428D01*
X52300000Y-97533333D01*
X52261904Y-97457142D01*
%TO.C,R7*%
X68679166Y-101561904D02*
X68412500Y-101180952D01*
X68222023Y-101561904D02*
X68222023Y-100761904D01*
X68526785Y-100761904D01*
X68602976Y-100800000D01*
X68641071Y-100838095D01*
X68679166Y-100914285D01*
X68679166Y-101028571D01*
X68641071Y-101104761D01*
X68602976Y-101142857D01*
X68526785Y-101180952D01*
X68222023Y-101180952D01*
X68945833Y-100761904D02*
X69479166Y-100761904D01*
X69136309Y-101561904D01*
%TO.C,R6*%
X57861904Y-104079166D02*
X57480952Y-104412500D01*
X57861904Y-104650595D02*
X57061904Y-104650595D01*
X57061904Y-104269642D01*
X57100000Y-104174404D01*
X57138095Y-104126785D01*
X57214285Y-104079166D01*
X57328571Y-104079166D01*
X57404761Y-104126785D01*
X57442857Y-104174404D01*
X57480952Y-104269642D01*
X57480952Y-104650595D01*
X57061904Y-103222023D02*
X57061904Y-103412500D01*
X57100000Y-103507738D01*
X57138095Y-103555357D01*
X57252380Y-103650595D01*
X57404761Y-103698214D01*
X57709523Y-103698214D01*
X57785714Y-103650595D01*
X57823809Y-103602976D01*
X57861904Y-103507738D01*
X57861904Y-103317261D01*
X57823809Y-103222023D01*
X57785714Y-103174404D01*
X57709523Y-103126785D01*
X57519047Y-103126785D01*
X57442857Y-103174404D01*
X57404761Y-103222023D01*
X57366666Y-103317261D01*
X57366666Y-103507738D01*
X57404761Y-103602976D01*
X57442857Y-103650595D01*
X57519047Y-103698214D01*
%TO.C,R2*%
X53766666Y-111661904D02*
X53500000Y-111280952D01*
X53309523Y-111661904D02*
X53309523Y-110861904D01*
X53614285Y-110861904D01*
X53690476Y-110900000D01*
X53728571Y-110938095D01*
X53766666Y-111014285D01*
X53766666Y-111128571D01*
X53728571Y-111204761D01*
X53690476Y-111242857D01*
X53614285Y-111280952D01*
X53309523Y-111280952D01*
X54071428Y-110938095D02*
X54109523Y-110900000D01*
X54185714Y-110861904D01*
X54376190Y-110861904D01*
X54452380Y-110900000D01*
X54490476Y-110938095D01*
X54528571Y-111014285D01*
X54528571Y-111090476D01*
X54490476Y-111204761D01*
X54033333Y-111661904D01*
X54528571Y-111661904D01*
%TO.C,R1*%
X49933333Y-112052380D02*
X49600000Y-111576190D01*
X49361904Y-112052380D02*
X49361904Y-111052380D01*
X49742857Y-111052380D01*
X49838095Y-111100000D01*
X49885714Y-111147619D01*
X49933333Y-111242857D01*
X49933333Y-111385714D01*
X49885714Y-111480952D01*
X49838095Y-111528571D01*
X49742857Y-111576190D01*
X49361904Y-111576190D01*
X50885714Y-112052380D02*
X50314285Y-112052380D01*
X50600000Y-112052380D02*
X50600000Y-111052380D01*
X50504761Y-111195238D01*
X50409523Y-111290476D01*
X50314285Y-111338095D01*
%TO.C,C8*%
X43145714Y-112053333D02*
X43183809Y-112091428D01*
X43221904Y-112205714D01*
X43221904Y-112281904D01*
X43183809Y-112396190D01*
X43107619Y-112472380D01*
X43031428Y-112510476D01*
X42879047Y-112548571D01*
X42764761Y-112548571D01*
X42612380Y-112510476D01*
X42536190Y-112472380D01*
X42460000Y-112396190D01*
X42421904Y-112281904D01*
X42421904Y-112205714D01*
X42460000Y-112091428D01*
X42498095Y-112053333D01*
X42764761Y-111596190D02*
X42726666Y-111672380D01*
X42688571Y-111710476D01*
X42612380Y-111748571D01*
X42574285Y-111748571D01*
X42498095Y-111710476D01*
X42460000Y-111672380D01*
X42421904Y-111596190D01*
X42421904Y-111443809D01*
X42460000Y-111367619D01*
X42498095Y-111329523D01*
X42574285Y-111291428D01*
X42612380Y-111291428D01*
X42688571Y-111329523D01*
X42726666Y-111367619D01*
X42764761Y-111443809D01*
X42764761Y-111596190D01*
X42802857Y-111672380D01*
X42840952Y-111710476D01*
X42917142Y-111748571D01*
X43069523Y-111748571D01*
X43145714Y-111710476D01*
X43183809Y-111672380D01*
X43221904Y-111596190D01*
X43221904Y-111443809D01*
X43183809Y-111367619D01*
X43145714Y-111329523D01*
X43069523Y-111291428D01*
X42917142Y-111291428D01*
X42840952Y-111329523D01*
X42802857Y-111367619D01*
X42764761Y-111443809D01*
%TO.C,C7*%
X45466666Y-106685714D02*
X45428571Y-106723809D01*
X45314285Y-106761904D01*
X45238095Y-106761904D01*
X45123809Y-106723809D01*
X45047619Y-106647619D01*
X45009523Y-106571428D01*
X44971428Y-106419047D01*
X44971428Y-106304761D01*
X45009523Y-106152380D01*
X45047619Y-106076190D01*
X45123809Y-106000000D01*
X45238095Y-105961904D01*
X45314285Y-105961904D01*
X45428571Y-106000000D01*
X45466666Y-106038095D01*
X45733333Y-105961904D02*
X46266666Y-105961904D01*
X45923809Y-106761904D01*
%TO.C,C6*%
X47285714Y-110633333D02*
X47323809Y-110671428D01*
X47361904Y-110785714D01*
X47361904Y-110861904D01*
X47323809Y-110976190D01*
X47247619Y-111052380D01*
X47171428Y-111090476D01*
X47019047Y-111128571D01*
X46904761Y-111128571D01*
X46752380Y-111090476D01*
X46676190Y-111052380D01*
X46600000Y-110976190D01*
X46561904Y-110861904D01*
X46561904Y-110785714D01*
X46600000Y-110671428D01*
X46638095Y-110633333D01*
X46561904Y-109947619D02*
X46561904Y-110100000D01*
X46600000Y-110176190D01*
X46638095Y-110214285D01*
X46752380Y-110290476D01*
X46904761Y-110328571D01*
X47209523Y-110328571D01*
X47285714Y-110290476D01*
X47323809Y-110252380D01*
X47361904Y-110176190D01*
X47361904Y-110023809D01*
X47323809Y-109947619D01*
X47285714Y-109909523D01*
X47209523Y-109871428D01*
X47019047Y-109871428D01*
X46942857Y-109909523D01*
X46904761Y-109947619D01*
X46866666Y-110023809D01*
X46866666Y-110176190D01*
X46904761Y-110252380D01*
X46942857Y-110290476D01*
X47019047Y-110328571D01*
%TO.C,C5*%
X52166666Y-112085714D02*
X52128571Y-112123809D01*
X52014285Y-112161904D01*
X51938095Y-112161904D01*
X51823809Y-112123809D01*
X51747619Y-112047619D01*
X51709523Y-111971428D01*
X51671428Y-111819047D01*
X51671428Y-111704761D01*
X51709523Y-111552380D01*
X51747619Y-111476190D01*
X51823809Y-111400000D01*
X51938095Y-111361904D01*
X52014285Y-111361904D01*
X52128571Y-111400000D01*
X52166666Y-111438095D01*
X52890476Y-111361904D02*
X52509523Y-111361904D01*
X52471428Y-111742857D01*
X52509523Y-111704761D01*
X52585714Y-111666666D01*
X52776190Y-111666666D01*
X52852380Y-111704761D01*
X52890476Y-111742857D01*
X52928571Y-111819047D01*
X52928571Y-112009523D01*
X52890476Y-112085714D01*
X52852380Y-112123809D01*
X52776190Y-112161904D01*
X52585714Y-112161904D01*
X52509523Y-112123809D01*
X52471428Y-112085714D01*
%TO.C,C2*%
X57466666Y-111485714D02*
X57428571Y-111523809D01*
X57314285Y-111561904D01*
X57238095Y-111561904D01*
X57123809Y-111523809D01*
X57047619Y-111447619D01*
X57009523Y-111371428D01*
X56971428Y-111219047D01*
X56971428Y-111104761D01*
X57009523Y-110952380D01*
X57047619Y-110876190D01*
X57123809Y-110800000D01*
X57238095Y-110761904D01*
X57314285Y-110761904D01*
X57428571Y-110800000D01*
X57466666Y-110838095D01*
X57771428Y-110838095D02*
X57809523Y-110800000D01*
X57885714Y-110761904D01*
X58076190Y-110761904D01*
X58152380Y-110800000D01*
X58190476Y-110838095D01*
X58228571Y-110914285D01*
X58228571Y-110990476D01*
X58190476Y-111104761D01*
X57733333Y-111561904D01*
X58228571Y-111561904D01*
%TO.C,U1*%
X45738095Y-99752380D02*
X45738095Y-100561904D01*
X45785714Y-100657142D01*
X45833333Y-100704761D01*
X45928571Y-100752380D01*
X46119047Y-100752380D01*
X46214285Y-100704761D01*
X46261904Y-100657142D01*
X46309523Y-100561904D01*
X46309523Y-99752380D01*
X47309523Y-100752380D02*
X46738095Y-100752380D01*
X47023809Y-100752380D02*
X47023809Y-99752380D01*
X46928571Y-99895238D01*
X46833333Y-99990476D01*
X46738095Y-100038095D01*
%TO.C,U4*%
X38838095Y-120852380D02*
X38838095Y-121661904D01*
X38885714Y-121757142D01*
X38933333Y-121804761D01*
X39028571Y-121852380D01*
X39219047Y-121852380D01*
X39314285Y-121804761D01*
X39361904Y-121757142D01*
X39409523Y-121661904D01*
X39409523Y-120852380D01*
X40314285Y-121185714D02*
X40314285Y-121852380D01*
X40076190Y-120804761D02*
X39838095Y-121519047D01*
X40457142Y-121519047D01*
%TD*%
M02*
