%TF.GenerationSoftware,KiCad,Pcbnew,5.1.10*%
%TF.CreationDate,2021-08-20T07:55:10+02:00*%
%TF.ProjectId,nsumo,6e73756d-6f2e-46b6-9963-61645f706362,rev?*%
%TF.SameCoordinates,Original*%
%TF.FileFunction,Soldermask,Top*%
%TF.FilePolarity,Negative*%
%FSLAX46Y46*%
G04 Gerber Fmt 4.6, Leading zero omitted, Abs format (unit mm)*
G04 Created by KiCad (PCBNEW 5.1.10) date 2021-08-20 07:55:10*
%MOMM*%
%LPD*%
G01*
G04 APERTURE LIST*
%ADD10C,0.100000*%
%ADD11C,2.200000*%
%ADD12C,1.448000*%
%ADD13O,1.800000X1.800000*%
%ADD14O,1.400000X0.900000*%
%ADD15O,0.900000X1.400000*%
%ADD16C,0.800000*%
%ADD17C,4.500000*%
%ADD18O,1.850000X1.300000*%
%ADD19C,1.900000*%
G04 APERTURE END LIST*
D10*
G36*
X38260000Y-128330000D02*
G01*
X36230000Y-128330000D01*
X36230000Y-127290000D01*
X38260000Y-127290000D01*
X38260000Y-128330000D01*
G37*
X38260000Y-128330000D02*
X36230000Y-128330000D01*
X36230000Y-127290000D01*
X38260000Y-127290000D01*
X38260000Y-128330000D01*
G36*
X38240000Y-129640000D02*
G01*
X36250000Y-129640000D01*
X36250000Y-128560000D01*
X38240000Y-128560000D01*
X38240000Y-129640000D01*
G37*
X38240000Y-129640000D02*
X36250000Y-129640000D01*
X36250000Y-128560000D01*
X38240000Y-128560000D01*
X38240000Y-129640000D01*
G36*
X38260000Y-130910000D02*
G01*
X36230000Y-130910000D01*
X36230000Y-129850000D01*
X38260000Y-129850000D01*
X38260000Y-130910000D01*
G37*
X38260000Y-130910000D02*
X36230000Y-130910000D01*
X36230000Y-129850000D01*
X38260000Y-129850000D01*
X38260000Y-130910000D01*
G36*
X38270000Y-132230000D02*
G01*
X36250000Y-132230000D01*
X36250000Y-131180000D01*
X38270000Y-131180000D01*
X38270000Y-132230000D01*
G37*
X38270000Y-132230000D02*
X36250000Y-132230000D01*
X36250000Y-131180000D01*
X38270000Y-131180000D01*
X38270000Y-132230000D01*
G36*
X38260000Y-133530000D02*
G01*
X36230000Y-133530000D01*
X36230000Y-132480000D01*
X38260000Y-132480000D01*
X38260000Y-133530000D01*
G37*
X38260000Y-133530000D02*
X36230000Y-133530000D01*
X36230000Y-132480000D01*
X38260000Y-132480000D01*
X38260000Y-133530000D01*
G36*
X38250000Y-134830000D02*
G01*
X36280000Y-134830000D01*
X36280000Y-133800000D01*
X38250000Y-133800000D01*
X38250000Y-134830000D01*
G37*
X38250000Y-134830000D02*
X36280000Y-134830000D01*
X36280000Y-133800000D01*
X38250000Y-133800000D01*
X38250000Y-134830000D01*
G36*
X45740000Y-130920000D02*
G01*
X43730000Y-130920000D01*
X43730000Y-129850000D01*
X45740000Y-129850000D01*
X45740000Y-130920000D01*
G37*
X45740000Y-130920000D02*
X43730000Y-130920000D01*
X43730000Y-129850000D01*
X45740000Y-129850000D01*
X45740000Y-130920000D01*
G36*
X45760000Y-134840000D02*
G01*
X43740000Y-134840000D01*
X43740000Y-133780000D01*
X45760000Y-133780000D01*
X45760000Y-134840000D01*
G37*
X45760000Y-134840000D02*
X43740000Y-134840000D01*
X43740000Y-133780000D01*
X45760000Y-133780000D01*
X45760000Y-134840000D01*
G36*
X69650000Y-134820000D02*
G01*
X67630000Y-134820000D01*
X67630000Y-133780000D01*
X69650000Y-133780000D01*
X69650000Y-134820000D01*
G37*
X69650000Y-134820000D02*
X67630000Y-134820000D01*
X67630000Y-133780000D01*
X69650000Y-133780000D01*
X69650000Y-134820000D01*
G36*
X69650000Y-133510000D02*
G01*
X67650000Y-133510000D01*
X67650000Y-132470000D01*
X69650000Y-132470000D01*
X69650000Y-133510000D01*
G37*
X69650000Y-133510000D02*
X67650000Y-133510000D01*
X67650000Y-132470000D01*
X69650000Y-132470000D01*
X69650000Y-133510000D01*
G36*
X69660000Y-132200000D02*
G01*
X67620000Y-132200000D01*
X67620000Y-131170000D01*
X69660000Y-131170000D01*
X69660000Y-132200000D01*
G37*
X69660000Y-132200000D02*
X67620000Y-132200000D01*
X67620000Y-131170000D01*
X69660000Y-131170000D01*
X69660000Y-132200000D01*
G36*
X69670000Y-130900000D02*
G01*
X67620000Y-130900000D01*
X67620000Y-129880000D01*
X69670000Y-129880000D01*
X69670000Y-130900000D01*
G37*
X69670000Y-130900000D02*
X67620000Y-130900000D01*
X67620000Y-129880000D01*
X69670000Y-129880000D01*
X69670000Y-130900000D01*
G36*
X69660000Y-129600000D02*
G01*
X67610000Y-129600000D01*
X67610000Y-128570000D01*
X69660000Y-128570000D01*
X69660000Y-129600000D01*
G37*
X69660000Y-129600000D02*
X67610000Y-129600000D01*
X67610000Y-128570000D01*
X69660000Y-128570000D01*
X69660000Y-129600000D01*
G36*
X69640000Y-128310000D02*
G01*
X67630000Y-128310000D01*
X67630000Y-127270000D01*
X69640000Y-127270000D01*
X69640000Y-128310000D01*
G37*
X69640000Y-128310000D02*
X67630000Y-128310000D01*
X67630000Y-127270000D01*
X69640000Y-127270000D01*
X69640000Y-128310000D01*
G36*
X62130000Y-128310000D02*
G01*
X60150000Y-128310000D01*
X60150000Y-127270000D01*
X62130000Y-127270000D01*
X62130000Y-128310000D01*
G37*
X62130000Y-128310000D02*
X60150000Y-128310000D01*
X60150000Y-127270000D01*
X62130000Y-127270000D01*
X62130000Y-128310000D01*
G36*
X62180000Y-132220000D02*
G01*
X60130000Y-132220000D01*
X60130000Y-131140000D01*
X62180000Y-131140000D01*
X62180000Y-132220000D01*
G37*
X62180000Y-132220000D02*
X60130000Y-132220000D01*
X60130000Y-131140000D01*
X62180000Y-131140000D01*
X62180000Y-132220000D01*
%TO.C,C15*%
G36*
G01*
X67100000Y-106700000D02*
X68100000Y-106700000D01*
G75*
G02*
X68375000Y-106975000I0J-275000D01*
G01*
X68375000Y-107525000D01*
G75*
G02*
X68100000Y-107800000I-275000J0D01*
G01*
X67100000Y-107800000D01*
G75*
G02*
X66825000Y-107525000I0J275000D01*
G01*
X66825000Y-106975000D01*
G75*
G02*
X67100000Y-106700000I275000J0D01*
G01*
G37*
G36*
G01*
X67100000Y-104800000D02*
X68100000Y-104800000D01*
G75*
G02*
X68375000Y-105075000I0J-275000D01*
G01*
X68375000Y-105625000D01*
G75*
G02*
X68100000Y-105900000I-275000J0D01*
G01*
X67100000Y-105900000D01*
G75*
G02*
X66825000Y-105625000I0J275000D01*
G01*
X66825000Y-105075000D01*
G75*
G02*
X67100000Y-104800000I275000J0D01*
G01*
G37*
%TD*%
%TO.C,R16*%
G36*
G01*
X63324388Y-138625000D02*
X64275612Y-138625000D01*
G75*
G02*
X64550000Y-138899388I0J-274388D01*
G01*
X64550000Y-139475612D01*
G75*
G02*
X64275612Y-139750000I-274388J0D01*
G01*
X63324388Y-139750000D01*
G75*
G02*
X63050000Y-139475612I0J274388D01*
G01*
X63050000Y-138899388D01*
G75*
G02*
X63324388Y-138625000I274388J0D01*
G01*
G37*
G36*
G01*
X63324388Y-140450000D02*
X64275612Y-140450000D01*
G75*
G02*
X64550000Y-140724388I0J-274388D01*
G01*
X64550000Y-141300612D01*
G75*
G02*
X64275612Y-141575000I-274388J0D01*
G01*
X63324388Y-141575000D01*
G75*
G02*
X63050000Y-141300612I0J274388D01*
G01*
X63050000Y-140724388D01*
G75*
G02*
X63324388Y-140450000I274388J0D01*
G01*
G37*
%TD*%
%TO.C,R14*%
G36*
G01*
X69662500Y-92024388D02*
X69662500Y-92975612D01*
G75*
G02*
X69388112Y-93250000I-274388J0D01*
G01*
X68811888Y-93250000D01*
G75*
G02*
X68537500Y-92975612I0J274388D01*
G01*
X68537500Y-92024388D01*
G75*
G02*
X68811888Y-91750000I274388J0D01*
G01*
X69388112Y-91750000D01*
G75*
G02*
X69662500Y-92024388I0J-274388D01*
G01*
G37*
G36*
G01*
X67837500Y-92024388D02*
X67837500Y-92975612D01*
G75*
G02*
X67563112Y-93250000I-274388J0D01*
G01*
X66986888Y-93250000D01*
G75*
G02*
X66712500Y-92975612I0J274388D01*
G01*
X66712500Y-92024388D01*
G75*
G02*
X66986888Y-91750000I274388J0D01*
G01*
X67563112Y-91750000D01*
G75*
G02*
X67837500Y-92024388I0J-274388D01*
G01*
G37*
%TD*%
%TO.C,R13*%
G36*
G01*
X41424388Y-138825000D02*
X42375612Y-138825000D01*
G75*
G02*
X42650000Y-139099388I0J-274388D01*
G01*
X42650000Y-139675612D01*
G75*
G02*
X42375612Y-139950000I-274388J0D01*
G01*
X41424388Y-139950000D01*
G75*
G02*
X41150000Y-139675612I0J274388D01*
G01*
X41150000Y-139099388D01*
G75*
G02*
X41424388Y-138825000I274388J0D01*
G01*
G37*
G36*
G01*
X41424388Y-140650000D02*
X42375612Y-140650000D01*
G75*
G02*
X42650000Y-140924388I0J-274388D01*
G01*
X42650000Y-141500612D01*
G75*
G02*
X42375612Y-141775000I-274388J0D01*
G01*
X41424388Y-141775000D01*
G75*
G02*
X41150000Y-141500612I0J274388D01*
G01*
X41150000Y-140924388D01*
G75*
G02*
X41424388Y-140650000I274388J0D01*
G01*
G37*
%TD*%
%TO.C,R11*%
G36*
G01*
X36525000Y-90475612D02*
X36525000Y-89524388D01*
G75*
G02*
X36799388Y-89250000I274388J0D01*
G01*
X37375612Y-89250000D01*
G75*
G02*
X37650000Y-89524388I0J-274388D01*
G01*
X37650000Y-90475612D01*
G75*
G02*
X37375612Y-90750000I-274388J0D01*
G01*
X36799388Y-90750000D01*
G75*
G02*
X36525000Y-90475612I0J274388D01*
G01*
G37*
G36*
G01*
X38350000Y-90475612D02*
X38350000Y-89524388D01*
G75*
G02*
X38624388Y-89250000I274388J0D01*
G01*
X39200612Y-89250000D01*
G75*
G02*
X39475000Y-89524388I0J-274388D01*
G01*
X39475000Y-90475612D01*
G75*
G02*
X39200612Y-90750000I-274388J0D01*
G01*
X38624388Y-90750000D01*
G75*
G02*
X38350000Y-90475612I0J274388D01*
G01*
G37*
%TD*%
%TO.C,D9*%
G36*
G01*
X61718750Y-140600000D02*
X62281250Y-140600000D01*
G75*
G02*
X62525000Y-140843750I0J-243750D01*
G01*
X62525000Y-141331250D01*
G75*
G02*
X62281250Y-141575000I-243750J0D01*
G01*
X61718750Y-141575000D01*
G75*
G02*
X61475000Y-141331250I0J243750D01*
G01*
X61475000Y-140843750D01*
G75*
G02*
X61718750Y-140600000I243750J0D01*
G01*
G37*
G36*
G01*
X61718750Y-139025000D02*
X62281250Y-139025000D01*
G75*
G02*
X62525000Y-139268750I0J-243750D01*
G01*
X62525000Y-139756250D01*
G75*
G02*
X62281250Y-140000000I-243750J0D01*
G01*
X61718750Y-140000000D01*
G75*
G02*
X61475000Y-139756250I0J243750D01*
G01*
X61475000Y-139268750D01*
G75*
G02*
X61718750Y-139025000I243750J0D01*
G01*
G37*
%TD*%
%TO.C,D8*%
G36*
G01*
X68012500Y-90318750D02*
X68012500Y-90881250D01*
G75*
G02*
X67768750Y-91125000I-243750J0D01*
G01*
X67281250Y-91125000D01*
G75*
G02*
X67037500Y-90881250I0J243750D01*
G01*
X67037500Y-90318750D01*
G75*
G02*
X67281250Y-90075000I243750J0D01*
G01*
X67768750Y-90075000D01*
G75*
G02*
X68012500Y-90318750I0J-243750D01*
G01*
G37*
G36*
G01*
X69587500Y-90318750D02*
X69587500Y-90881250D01*
G75*
G02*
X69343750Y-91125000I-243750J0D01*
G01*
X68856250Y-91125000D01*
G75*
G02*
X68612500Y-90881250I0J243750D01*
G01*
X68612500Y-90318750D01*
G75*
G02*
X68856250Y-90075000I243750J0D01*
G01*
X69343750Y-90075000D01*
G75*
G02*
X69587500Y-90318750I0J-243750D01*
G01*
G37*
%TD*%
%TO.C,D7*%
G36*
G01*
X43518750Y-140700000D02*
X44081250Y-140700000D01*
G75*
G02*
X44325000Y-140943750I0J-243750D01*
G01*
X44325000Y-141431250D01*
G75*
G02*
X44081250Y-141675000I-243750J0D01*
G01*
X43518750Y-141675000D01*
G75*
G02*
X43275000Y-141431250I0J243750D01*
G01*
X43275000Y-140943750D01*
G75*
G02*
X43518750Y-140700000I243750J0D01*
G01*
G37*
G36*
G01*
X43518750Y-139125000D02*
X44081250Y-139125000D01*
G75*
G02*
X44325000Y-139368750I0J-243750D01*
G01*
X44325000Y-139856250D01*
G75*
G02*
X44081250Y-140100000I-243750J0D01*
G01*
X43518750Y-140100000D01*
G75*
G02*
X43275000Y-139856250I0J243750D01*
G01*
X43275000Y-139368750D01*
G75*
G02*
X43518750Y-139125000I243750J0D01*
G01*
G37*
%TD*%
%TO.C,D1*%
G36*
G01*
X38187500Y-92181250D02*
X38187500Y-91618750D01*
G75*
G02*
X38431250Y-91375000I243750J0D01*
G01*
X38918750Y-91375000D01*
G75*
G02*
X39162500Y-91618750I0J-243750D01*
G01*
X39162500Y-92181250D01*
G75*
G02*
X38918750Y-92425000I-243750J0D01*
G01*
X38431250Y-92425000D01*
G75*
G02*
X38187500Y-92181250I0J243750D01*
G01*
G37*
G36*
G01*
X36612500Y-92181250D02*
X36612500Y-91618750D01*
G75*
G02*
X36856250Y-91375000I243750J0D01*
G01*
X37343750Y-91375000D01*
G75*
G02*
X37587500Y-91618750I0J-243750D01*
G01*
X37587500Y-92181250D01*
G75*
G02*
X37343750Y-92425000I-243750J0D01*
G01*
X36856250Y-92425000D01*
G75*
G02*
X36612500Y-92181250I0J243750D01*
G01*
G37*
%TD*%
%TO.C,U7*%
G36*
G01*
X71450000Y-119950000D02*
X71450000Y-119600000D01*
G75*
G02*
X71625000Y-119425000I175000J0D01*
G01*
X73025000Y-119425000D01*
G75*
G02*
X73200000Y-119600000I0J-175000D01*
G01*
X73200000Y-119950000D01*
G75*
G02*
X73025000Y-120125000I-175000J0D01*
G01*
X71625000Y-120125000D01*
G75*
G02*
X71450000Y-119950000I0J175000D01*
G01*
G37*
G36*
G01*
X71450000Y-121220000D02*
X71450000Y-120870000D01*
G75*
G02*
X71625000Y-120695000I175000J0D01*
G01*
X73025000Y-120695000D01*
G75*
G02*
X73200000Y-120870000I0J-175000D01*
G01*
X73200000Y-121220000D01*
G75*
G02*
X73025000Y-121395000I-175000J0D01*
G01*
X71625000Y-121395000D01*
G75*
G02*
X71450000Y-121220000I0J175000D01*
G01*
G37*
G36*
G01*
X71450000Y-122490000D02*
X71450000Y-122140000D01*
G75*
G02*
X71625000Y-121965000I175000J0D01*
G01*
X73025000Y-121965000D01*
G75*
G02*
X73200000Y-122140000I0J-175000D01*
G01*
X73200000Y-122490000D01*
G75*
G02*
X73025000Y-122665000I-175000J0D01*
G01*
X71625000Y-122665000D01*
G75*
G02*
X71450000Y-122490000I0J175000D01*
G01*
G37*
G36*
G01*
X71450000Y-123760000D02*
X71450000Y-123410000D01*
G75*
G02*
X71625000Y-123235000I175000J0D01*
G01*
X73025000Y-123235000D01*
G75*
G02*
X73200000Y-123410000I0J-175000D01*
G01*
X73200000Y-123760000D01*
G75*
G02*
X73025000Y-123935000I-175000J0D01*
G01*
X71625000Y-123935000D01*
G75*
G02*
X71450000Y-123760000I0J175000D01*
G01*
G37*
G36*
G01*
X66200000Y-123760000D02*
X66200000Y-123410000D01*
G75*
G02*
X66375000Y-123235000I175000J0D01*
G01*
X67775000Y-123235000D01*
G75*
G02*
X67950000Y-123410000I0J-175000D01*
G01*
X67950000Y-123760000D01*
G75*
G02*
X67775000Y-123935000I-175000J0D01*
G01*
X66375000Y-123935000D01*
G75*
G02*
X66200000Y-123760000I0J175000D01*
G01*
G37*
G36*
G01*
X66200000Y-122490000D02*
X66200000Y-122140000D01*
G75*
G02*
X66375000Y-121965000I175000J0D01*
G01*
X67775000Y-121965000D01*
G75*
G02*
X67950000Y-122140000I0J-175000D01*
G01*
X67950000Y-122490000D01*
G75*
G02*
X67775000Y-122665000I-175000J0D01*
G01*
X66375000Y-122665000D01*
G75*
G02*
X66200000Y-122490000I0J175000D01*
G01*
G37*
G36*
G01*
X66200000Y-121220000D02*
X66200000Y-120870000D01*
G75*
G02*
X66375000Y-120695000I175000J0D01*
G01*
X67775000Y-120695000D01*
G75*
G02*
X67950000Y-120870000I0J-175000D01*
G01*
X67950000Y-121220000D01*
G75*
G02*
X67775000Y-121395000I-175000J0D01*
G01*
X66375000Y-121395000D01*
G75*
G02*
X66200000Y-121220000I0J175000D01*
G01*
G37*
G36*
G01*
X66200000Y-119950000D02*
X66200000Y-119600000D01*
G75*
G02*
X66375000Y-119425000I175000J0D01*
G01*
X67775000Y-119425000D01*
G75*
G02*
X67950000Y-119600000I0J-175000D01*
G01*
X67950000Y-119950000D01*
G75*
G02*
X67775000Y-120125000I-175000J0D01*
G01*
X66375000Y-120125000D01*
G75*
G02*
X66200000Y-119950000I0J175000D01*
G01*
G37*
%TD*%
D11*
%TO.C,J17*%
X31900000Y-129440000D03*
G36*
G01*
X30850000Y-125800000D02*
X32950000Y-125800000D01*
G75*
G02*
X33000000Y-125850000I0J-50000D01*
G01*
X33000000Y-127950000D01*
G75*
G02*
X32950000Y-128000000I-50000J0D01*
G01*
X30850000Y-128000000D01*
G75*
G02*
X30800000Y-127950000I0J50000D01*
G01*
X30800000Y-125850000D01*
G75*
G02*
X30850000Y-125800000I50000J0D01*
G01*
G37*
%TD*%
%TO.C,J16*%
X31900000Y-136140000D03*
G36*
G01*
X30850000Y-132500000D02*
X32950000Y-132500000D01*
G75*
G02*
X33000000Y-132550000I0J-50000D01*
G01*
X33000000Y-134650000D01*
G75*
G02*
X32950000Y-134700000I-50000J0D01*
G01*
X30850000Y-134700000D01*
G75*
G02*
X30800000Y-134650000I0J50000D01*
G01*
X30800000Y-132550000D01*
G75*
G02*
X30850000Y-132500000I50000J0D01*
G01*
G37*
%TD*%
D12*
%TO.C,REF\u002A\u002A*%
X34500000Y-143500000D03*
%TD*%
%TO.C,REF\u002A\u002A*%
X34500000Y-81500000D03*
%TD*%
%TO.C,REF\u002A\u002A*%
X71500000Y-81500000D03*
%TD*%
%TO.C,U6*%
G36*
G01*
X43675000Y-127701000D02*
X43675000Y-127251000D01*
G75*
G02*
X43725000Y-127201000I50000J0D01*
G01*
X45775000Y-127201000D01*
G75*
G02*
X45825000Y-127251000I0J-50000D01*
G01*
X45825000Y-127701000D01*
G75*
G02*
X45775000Y-127751000I-50000J0D01*
G01*
X43725000Y-127751000D01*
G75*
G02*
X43675000Y-127701000I0J50000D01*
G01*
G37*
G36*
G01*
X43675000Y-128351000D02*
X43675000Y-127901000D01*
G75*
G02*
X43725000Y-127851000I50000J0D01*
G01*
X45775000Y-127851000D01*
G75*
G02*
X45825000Y-127901000I0J-50000D01*
G01*
X45825000Y-128351000D01*
G75*
G02*
X45775000Y-128401000I-50000J0D01*
G01*
X43725000Y-128401000D01*
G75*
G02*
X43675000Y-128351000I0J50000D01*
G01*
G37*
G36*
G01*
X43675000Y-129001000D02*
X43675000Y-128551000D01*
G75*
G02*
X43725000Y-128501000I50000J0D01*
G01*
X45775000Y-128501000D01*
G75*
G02*
X45825000Y-128551000I0J-50000D01*
G01*
X45825000Y-129001000D01*
G75*
G02*
X45775000Y-129051000I-50000J0D01*
G01*
X43725000Y-129051000D01*
G75*
G02*
X43675000Y-129001000I0J50000D01*
G01*
G37*
G36*
G01*
X43675000Y-129651000D02*
X43675000Y-129201000D01*
G75*
G02*
X43725000Y-129151000I50000J0D01*
G01*
X45775000Y-129151000D01*
G75*
G02*
X45825000Y-129201000I0J-50000D01*
G01*
X45825000Y-129651000D01*
G75*
G02*
X45775000Y-129701000I-50000J0D01*
G01*
X43725000Y-129701000D01*
G75*
G02*
X43675000Y-129651000I0J50000D01*
G01*
G37*
G36*
G01*
X43675000Y-130301000D02*
X43675000Y-129851000D01*
G75*
G02*
X43725000Y-129801000I50000J0D01*
G01*
X45775000Y-129801000D01*
G75*
G02*
X45825000Y-129851000I0J-50000D01*
G01*
X45825000Y-130301000D01*
G75*
G02*
X45775000Y-130351000I-50000J0D01*
G01*
X43725000Y-130351000D01*
G75*
G02*
X43675000Y-130301000I0J50000D01*
G01*
G37*
G36*
G01*
X43675000Y-130951000D02*
X43675000Y-130501000D01*
G75*
G02*
X43725000Y-130451000I50000J0D01*
G01*
X45775000Y-130451000D01*
G75*
G02*
X45825000Y-130501000I0J-50000D01*
G01*
X45825000Y-130951000D01*
G75*
G02*
X45775000Y-131001000I-50000J0D01*
G01*
X43725000Y-131001000D01*
G75*
G02*
X43675000Y-130951000I0J50000D01*
G01*
G37*
G36*
G01*
X43675000Y-131601000D02*
X43675000Y-131151000D01*
G75*
G02*
X43725000Y-131101000I50000J0D01*
G01*
X45775000Y-131101000D01*
G75*
G02*
X45825000Y-131151000I0J-50000D01*
G01*
X45825000Y-131601000D01*
G75*
G02*
X45775000Y-131651000I-50000J0D01*
G01*
X43725000Y-131651000D01*
G75*
G02*
X43675000Y-131601000I0J50000D01*
G01*
G37*
G36*
G01*
X43675000Y-132251000D02*
X43675000Y-131801000D01*
G75*
G02*
X43725000Y-131751000I50000J0D01*
G01*
X45775000Y-131751000D01*
G75*
G02*
X45825000Y-131801000I0J-50000D01*
G01*
X45825000Y-132251000D01*
G75*
G02*
X45775000Y-132301000I-50000J0D01*
G01*
X43725000Y-132301000D01*
G75*
G02*
X43675000Y-132251000I0J50000D01*
G01*
G37*
G36*
G01*
X43675000Y-132901000D02*
X43675000Y-132451000D01*
G75*
G02*
X43725000Y-132401000I50000J0D01*
G01*
X45775000Y-132401000D01*
G75*
G02*
X45825000Y-132451000I0J-50000D01*
G01*
X45825000Y-132901000D01*
G75*
G02*
X45775000Y-132951000I-50000J0D01*
G01*
X43725000Y-132951000D01*
G75*
G02*
X43675000Y-132901000I0J50000D01*
G01*
G37*
G36*
G01*
X43675000Y-133551000D02*
X43675000Y-133101000D01*
G75*
G02*
X43725000Y-133051000I50000J0D01*
G01*
X45775000Y-133051000D01*
G75*
G02*
X45825000Y-133101000I0J-50000D01*
G01*
X45825000Y-133551000D01*
G75*
G02*
X45775000Y-133601000I-50000J0D01*
G01*
X43725000Y-133601000D01*
G75*
G02*
X43675000Y-133551000I0J50000D01*
G01*
G37*
G36*
G01*
X43675000Y-134201000D02*
X43675000Y-133751000D01*
G75*
G02*
X43725000Y-133701000I50000J0D01*
G01*
X45775000Y-133701000D01*
G75*
G02*
X45825000Y-133751000I0J-50000D01*
G01*
X45825000Y-134201000D01*
G75*
G02*
X45775000Y-134251000I-50000J0D01*
G01*
X43725000Y-134251000D01*
G75*
G02*
X43675000Y-134201000I0J50000D01*
G01*
G37*
G36*
G01*
X43675000Y-134851000D02*
X43675000Y-134401000D01*
G75*
G02*
X43725000Y-134351000I50000J0D01*
G01*
X45775000Y-134351000D01*
G75*
G02*
X45825000Y-134401000I0J-50000D01*
G01*
X45825000Y-134851000D01*
G75*
G02*
X45775000Y-134901000I-50000J0D01*
G01*
X43725000Y-134901000D01*
G75*
G02*
X43675000Y-134851000I0J50000D01*
G01*
G37*
G36*
G01*
X36175000Y-134851000D02*
X36175000Y-134401000D01*
G75*
G02*
X36225000Y-134351000I50000J0D01*
G01*
X38275000Y-134351000D01*
G75*
G02*
X38325000Y-134401000I0J-50000D01*
G01*
X38325000Y-134851000D01*
G75*
G02*
X38275000Y-134901000I-50000J0D01*
G01*
X36225000Y-134901000D01*
G75*
G02*
X36175000Y-134851000I0J50000D01*
G01*
G37*
G36*
G01*
X36175000Y-134201000D02*
X36175000Y-133751000D01*
G75*
G02*
X36225000Y-133701000I50000J0D01*
G01*
X38275000Y-133701000D01*
G75*
G02*
X38325000Y-133751000I0J-50000D01*
G01*
X38325000Y-134201000D01*
G75*
G02*
X38275000Y-134251000I-50000J0D01*
G01*
X36225000Y-134251000D01*
G75*
G02*
X36175000Y-134201000I0J50000D01*
G01*
G37*
G36*
G01*
X36175000Y-133551000D02*
X36175000Y-133101000D01*
G75*
G02*
X36225000Y-133051000I50000J0D01*
G01*
X38275000Y-133051000D01*
G75*
G02*
X38325000Y-133101000I0J-50000D01*
G01*
X38325000Y-133551000D01*
G75*
G02*
X38275000Y-133601000I-50000J0D01*
G01*
X36225000Y-133601000D01*
G75*
G02*
X36175000Y-133551000I0J50000D01*
G01*
G37*
G36*
G01*
X36175000Y-132901000D02*
X36175000Y-132451000D01*
G75*
G02*
X36225000Y-132401000I50000J0D01*
G01*
X38275000Y-132401000D01*
G75*
G02*
X38325000Y-132451000I0J-50000D01*
G01*
X38325000Y-132901000D01*
G75*
G02*
X38275000Y-132951000I-50000J0D01*
G01*
X36225000Y-132951000D01*
G75*
G02*
X36175000Y-132901000I0J50000D01*
G01*
G37*
G36*
G01*
X36175000Y-132251000D02*
X36175000Y-131801000D01*
G75*
G02*
X36225000Y-131751000I50000J0D01*
G01*
X38275000Y-131751000D01*
G75*
G02*
X38325000Y-131801000I0J-50000D01*
G01*
X38325000Y-132251000D01*
G75*
G02*
X38275000Y-132301000I-50000J0D01*
G01*
X36225000Y-132301000D01*
G75*
G02*
X36175000Y-132251000I0J50000D01*
G01*
G37*
G36*
G01*
X36175000Y-131601000D02*
X36175000Y-131151000D01*
G75*
G02*
X36225000Y-131101000I50000J0D01*
G01*
X38275000Y-131101000D01*
G75*
G02*
X38325000Y-131151000I0J-50000D01*
G01*
X38325000Y-131601000D01*
G75*
G02*
X38275000Y-131651000I-50000J0D01*
G01*
X36225000Y-131651000D01*
G75*
G02*
X36175000Y-131601000I0J50000D01*
G01*
G37*
G36*
G01*
X36175000Y-130951000D02*
X36175000Y-130501000D01*
G75*
G02*
X36225000Y-130451000I50000J0D01*
G01*
X38275000Y-130451000D01*
G75*
G02*
X38325000Y-130501000I0J-50000D01*
G01*
X38325000Y-130951000D01*
G75*
G02*
X38275000Y-131001000I-50000J0D01*
G01*
X36225000Y-131001000D01*
G75*
G02*
X36175000Y-130951000I0J50000D01*
G01*
G37*
G36*
G01*
X36175000Y-130301000D02*
X36175000Y-129851000D01*
G75*
G02*
X36225000Y-129801000I50000J0D01*
G01*
X38275000Y-129801000D01*
G75*
G02*
X38325000Y-129851000I0J-50000D01*
G01*
X38325000Y-130301000D01*
G75*
G02*
X38275000Y-130351000I-50000J0D01*
G01*
X36225000Y-130351000D01*
G75*
G02*
X36175000Y-130301000I0J50000D01*
G01*
G37*
G36*
G01*
X36175000Y-129651000D02*
X36175000Y-129201000D01*
G75*
G02*
X36225000Y-129151000I50000J0D01*
G01*
X38275000Y-129151000D01*
G75*
G02*
X38325000Y-129201000I0J-50000D01*
G01*
X38325000Y-129651000D01*
G75*
G02*
X38275000Y-129701000I-50000J0D01*
G01*
X36225000Y-129701000D01*
G75*
G02*
X36175000Y-129651000I0J50000D01*
G01*
G37*
G36*
G01*
X36175000Y-129001000D02*
X36175000Y-128551000D01*
G75*
G02*
X36225000Y-128501000I50000J0D01*
G01*
X38275000Y-128501000D01*
G75*
G02*
X38325000Y-128551000I0J-50000D01*
G01*
X38325000Y-129001000D01*
G75*
G02*
X38275000Y-129051000I-50000J0D01*
G01*
X36225000Y-129051000D01*
G75*
G02*
X36175000Y-129001000I0J50000D01*
G01*
G37*
G36*
G01*
X36175000Y-128351000D02*
X36175000Y-127901000D01*
G75*
G02*
X36225000Y-127851000I50000J0D01*
G01*
X38275000Y-127851000D01*
G75*
G02*
X38325000Y-127901000I0J-50000D01*
G01*
X38325000Y-128351000D01*
G75*
G02*
X38275000Y-128401000I-50000J0D01*
G01*
X36225000Y-128401000D01*
G75*
G02*
X36175000Y-128351000I0J50000D01*
G01*
G37*
G36*
G01*
X36175000Y-127701000D02*
X36175000Y-127251000D01*
G75*
G02*
X36225000Y-127201000I50000J0D01*
G01*
X38275000Y-127201000D01*
G75*
G02*
X38325000Y-127251000I0J-50000D01*
G01*
X38325000Y-127701000D01*
G75*
G02*
X38275000Y-127751000I-50000J0D01*
G01*
X36225000Y-127751000D01*
G75*
G02*
X36175000Y-127701000I0J50000D01*
G01*
G37*
%TD*%
%TO.C,U3*%
G36*
G01*
X62225000Y-134386000D02*
X62225000Y-134836000D01*
G75*
G02*
X62175000Y-134886000I-50000J0D01*
G01*
X60125000Y-134886000D01*
G75*
G02*
X60075000Y-134836000I0J50000D01*
G01*
X60075000Y-134386000D01*
G75*
G02*
X60125000Y-134336000I50000J0D01*
G01*
X62175000Y-134336000D01*
G75*
G02*
X62225000Y-134386000I0J-50000D01*
G01*
G37*
G36*
G01*
X62225000Y-133736000D02*
X62225000Y-134186000D01*
G75*
G02*
X62175000Y-134236000I-50000J0D01*
G01*
X60125000Y-134236000D01*
G75*
G02*
X60075000Y-134186000I0J50000D01*
G01*
X60075000Y-133736000D01*
G75*
G02*
X60125000Y-133686000I50000J0D01*
G01*
X62175000Y-133686000D01*
G75*
G02*
X62225000Y-133736000I0J-50000D01*
G01*
G37*
G36*
G01*
X62225000Y-133086000D02*
X62225000Y-133536000D01*
G75*
G02*
X62175000Y-133586000I-50000J0D01*
G01*
X60125000Y-133586000D01*
G75*
G02*
X60075000Y-133536000I0J50000D01*
G01*
X60075000Y-133086000D01*
G75*
G02*
X60125000Y-133036000I50000J0D01*
G01*
X62175000Y-133036000D01*
G75*
G02*
X62225000Y-133086000I0J-50000D01*
G01*
G37*
G36*
G01*
X62225000Y-132436000D02*
X62225000Y-132886000D01*
G75*
G02*
X62175000Y-132936000I-50000J0D01*
G01*
X60125000Y-132936000D01*
G75*
G02*
X60075000Y-132886000I0J50000D01*
G01*
X60075000Y-132436000D01*
G75*
G02*
X60125000Y-132386000I50000J0D01*
G01*
X62175000Y-132386000D01*
G75*
G02*
X62225000Y-132436000I0J-50000D01*
G01*
G37*
G36*
G01*
X62225000Y-131786000D02*
X62225000Y-132236000D01*
G75*
G02*
X62175000Y-132286000I-50000J0D01*
G01*
X60125000Y-132286000D01*
G75*
G02*
X60075000Y-132236000I0J50000D01*
G01*
X60075000Y-131786000D01*
G75*
G02*
X60125000Y-131736000I50000J0D01*
G01*
X62175000Y-131736000D01*
G75*
G02*
X62225000Y-131786000I0J-50000D01*
G01*
G37*
G36*
G01*
X62225000Y-131136000D02*
X62225000Y-131586000D01*
G75*
G02*
X62175000Y-131636000I-50000J0D01*
G01*
X60125000Y-131636000D01*
G75*
G02*
X60075000Y-131586000I0J50000D01*
G01*
X60075000Y-131136000D01*
G75*
G02*
X60125000Y-131086000I50000J0D01*
G01*
X62175000Y-131086000D01*
G75*
G02*
X62225000Y-131136000I0J-50000D01*
G01*
G37*
G36*
G01*
X62225000Y-130486000D02*
X62225000Y-130936000D01*
G75*
G02*
X62175000Y-130986000I-50000J0D01*
G01*
X60125000Y-130986000D01*
G75*
G02*
X60075000Y-130936000I0J50000D01*
G01*
X60075000Y-130486000D01*
G75*
G02*
X60125000Y-130436000I50000J0D01*
G01*
X62175000Y-130436000D01*
G75*
G02*
X62225000Y-130486000I0J-50000D01*
G01*
G37*
G36*
G01*
X62225000Y-129836000D02*
X62225000Y-130286000D01*
G75*
G02*
X62175000Y-130336000I-50000J0D01*
G01*
X60125000Y-130336000D01*
G75*
G02*
X60075000Y-130286000I0J50000D01*
G01*
X60075000Y-129836000D01*
G75*
G02*
X60125000Y-129786000I50000J0D01*
G01*
X62175000Y-129786000D01*
G75*
G02*
X62225000Y-129836000I0J-50000D01*
G01*
G37*
G36*
G01*
X62225000Y-129186000D02*
X62225000Y-129636000D01*
G75*
G02*
X62175000Y-129686000I-50000J0D01*
G01*
X60125000Y-129686000D01*
G75*
G02*
X60075000Y-129636000I0J50000D01*
G01*
X60075000Y-129186000D01*
G75*
G02*
X60125000Y-129136000I50000J0D01*
G01*
X62175000Y-129136000D01*
G75*
G02*
X62225000Y-129186000I0J-50000D01*
G01*
G37*
G36*
G01*
X62225000Y-128536000D02*
X62225000Y-128986000D01*
G75*
G02*
X62175000Y-129036000I-50000J0D01*
G01*
X60125000Y-129036000D01*
G75*
G02*
X60075000Y-128986000I0J50000D01*
G01*
X60075000Y-128536000D01*
G75*
G02*
X60125000Y-128486000I50000J0D01*
G01*
X62175000Y-128486000D01*
G75*
G02*
X62225000Y-128536000I0J-50000D01*
G01*
G37*
G36*
G01*
X62225000Y-127886000D02*
X62225000Y-128336000D01*
G75*
G02*
X62175000Y-128386000I-50000J0D01*
G01*
X60125000Y-128386000D01*
G75*
G02*
X60075000Y-128336000I0J50000D01*
G01*
X60075000Y-127886000D01*
G75*
G02*
X60125000Y-127836000I50000J0D01*
G01*
X62175000Y-127836000D01*
G75*
G02*
X62225000Y-127886000I0J-50000D01*
G01*
G37*
G36*
G01*
X62225000Y-127236000D02*
X62225000Y-127686000D01*
G75*
G02*
X62175000Y-127736000I-50000J0D01*
G01*
X60125000Y-127736000D01*
G75*
G02*
X60075000Y-127686000I0J50000D01*
G01*
X60075000Y-127236000D01*
G75*
G02*
X60125000Y-127186000I50000J0D01*
G01*
X62175000Y-127186000D01*
G75*
G02*
X62225000Y-127236000I0J-50000D01*
G01*
G37*
G36*
G01*
X69725000Y-127236000D02*
X69725000Y-127686000D01*
G75*
G02*
X69675000Y-127736000I-50000J0D01*
G01*
X67625000Y-127736000D01*
G75*
G02*
X67575000Y-127686000I0J50000D01*
G01*
X67575000Y-127236000D01*
G75*
G02*
X67625000Y-127186000I50000J0D01*
G01*
X69675000Y-127186000D01*
G75*
G02*
X69725000Y-127236000I0J-50000D01*
G01*
G37*
G36*
G01*
X69725000Y-127886000D02*
X69725000Y-128336000D01*
G75*
G02*
X69675000Y-128386000I-50000J0D01*
G01*
X67625000Y-128386000D01*
G75*
G02*
X67575000Y-128336000I0J50000D01*
G01*
X67575000Y-127886000D01*
G75*
G02*
X67625000Y-127836000I50000J0D01*
G01*
X69675000Y-127836000D01*
G75*
G02*
X69725000Y-127886000I0J-50000D01*
G01*
G37*
G36*
G01*
X69725000Y-128536000D02*
X69725000Y-128986000D01*
G75*
G02*
X69675000Y-129036000I-50000J0D01*
G01*
X67625000Y-129036000D01*
G75*
G02*
X67575000Y-128986000I0J50000D01*
G01*
X67575000Y-128536000D01*
G75*
G02*
X67625000Y-128486000I50000J0D01*
G01*
X69675000Y-128486000D01*
G75*
G02*
X69725000Y-128536000I0J-50000D01*
G01*
G37*
G36*
G01*
X69725000Y-129186000D02*
X69725000Y-129636000D01*
G75*
G02*
X69675000Y-129686000I-50000J0D01*
G01*
X67625000Y-129686000D01*
G75*
G02*
X67575000Y-129636000I0J50000D01*
G01*
X67575000Y-129186000D01*
G75*
G02*
X67625000Y-129136000I50000J0D01*
G01*
X69675000Y-129136000D01*
G75*
G02*
X69725000Y-129186000I0J-50000D01*
G01*
G37*
G36*
G01*
X69725000Y-129836000D02*
X69725000Y-130286000D01*
G75*
G02*
X69675000Y-130336000I-50000J0D01*
G01*
X67625000Y-130336000D01*
G75*
G02*
X67575000Y-130286000I0J50000D01*
G01*
X67575000Y-129836000D01*
G75*
G02*
X67625000Y-129786000I50000J0D01*
G01*
X69675000Y-129786000D01*
G75*
G02*
X69725000Y-129836000I0J-50000D01*
G01*
G37*
G36*
G01*
X69725000Y-130486000D02*
X69725000Y-130936000D01*
G75*
G02*
X69675000Y-130986000I-50000J0D01*
G01*
X67625000Y-130986000D01*
G75*
G02*
X67575000Y-130936000I0J50000D01*
G01*
X67575000Y-130486000D01*
G75*
G02*
X67625000Y-130436000I50000J0D01*
G01*
X69675000Y-130436000D01*
G75*
G02*
X69725000Y-130486000I0J-50000D01*
G01*
G37*
G36*
G01*
X69725000Y-131136000D02*
X69725000Y-131586000D01*
G75*
G02*
X69675000Y-131636000I-50000J0D01*
G01*
X67625000Y-131636000D01*
G75*
G02*
X67575000Y-131586000I0J50000D01*
G01*
X67575000Y-131136000D01*
G75*
G02*
X67625000Y-131086000I50000J0D01*
G01*
X69675000Y-131086000D01*
G75*
G02*
X69725000Y-131136000I0J-50000D01*
G01*
G37*
G36*
G01*
X69725000Y-131786000D02*
X69725000Y-132236000D01*
G75*
G02*
X69675000Y-132286000I-50000J0D01*
G01*
X67625000Y-132286000D01*
G75*
G02*
X67575000Y-132236000I0J50000D01*
G01*
X67575000Y-131786000D01*
G75*
G02*
X67625000Y-131736000I50000J0D01*
G01*
X69675000Y-131736000D01*
G75*
G02*
X69725000Y-131786000I0J-50000D01*
G01*
G37*
G36*
G01*
X69725000Y-132436000D02*
X69725000Y-132886000D01*
G75*
G02*
X69675000Y-132936000I-50000J0D01*
G01*
X67625000Y-132936000D01*
G75*
G02*
X67575000Y-132886000I0J50000D01*
G01*
X67575000Y-132436000D01*
G75*
G02*
X67625000Y-132386000I50000J0D01*
G01*
X69675000Y-132386000D01*
G75*
G02*
X69725000Y-132436000I0J-50000D01*
G01*
G37*
G36*
G01*
X69725000Y-133086000D02*
X69725000Y-133536000D01*
G75*
G02*
X69675000Y-133586000I-50000J0D01*
G01*
X67625000Y-133586000D01*
G75*
G02*
X67575000Y-133536000I0J50000D01*
G01*
X67575000Y-133086000D01*
G75*
G02*
X67625000Y-133036000I50000J0D01*
G01*
X69675000Y-133036000D01*
G75*
G02*
X69725000Y-133086000I0J-50000D01*
G01*
G37*
G36*
G01*
X69725000Y-133736000D02*
X69725000Y-134186000D01*
G75*
G02*
X69675000Y-134236000I-50000J0D01*
G01*
X67625000Y-134236000D01*
G75*
G02*
X67575000Y-134186000I0J50000D01*
G01*
X67575000Y-133736000D01*
G75*
G02*
X67625000Y-133686000I50000J0D01*
G01*
X69675000Y-133686000D01*
G75*
G02*
X69725000Y-133736000I0J-50000D01*
G01*
G37*
G36*
G01*
X69725000Y-134386000D02*
X69725000Y-134836000D01*
G75*
G02*
X69675000Y-134886000I-50000J0D01*
G01*
X67625000Y-134886000D01*
G75*
G02*
X67575000Y-134836000I0J50000D01*
G01*
X67575000Y-134386000D01*
G75*
G02*
X67625000Y-134336000I50000J0D01*
G01*
X69675000Y-134336000D01*
G75*
G02*
X69725000Y-134386000I0J-50000D01*
G01*
G37*
%TD*%
%TO.C,R4*%
G36*
G01*
X46812500Y-98475612D02*
X46812500Y-97524388D01*
G75*
G02*
X47086888Y-97250000I274388J0D01*
G01*
X47663112Y-97250000D01*
G75*
G02*
X47937500Y-97524388I0J-274388D01*
G01*
X47937500Y-98475612D01*
G75*
G02*
X47663112Y-98750000I-274388J0D01*
G01*
X47086888Y-98750000D01*
G75*
G02*
X46812500Y-98475612I0J274388D01*
G01*
G37*
G36*
G01*
X48637500Y-98475612D02*
X48637500Y-97524388D01*
G75*
G02*
X48911888Y-97250000I274388J0D01*
G01*
X49488112Y-97250000D01*
G75*
G02*
X49762500Y-97524388I0J-274388D01*
G01*
X49762500Y-98475612D01*
G75*
G02*
X49488112Y-98750000I-274388J0D01*
G01*
X48911888Y-98750000D01*
G75*
G02*
X48637500Y-98475612I0J274388D01*
G01*
G37*
%TD*%
D13*
%TO.C,J13*%
X60260000Y-98400000D03*
X62800000Y-98400000D03*
G36*
G01*
X64490000Y-97500000D02*
X66190000Y-97500000D01*
G75*
G02*
X66240000Y-97550000I0J-50000D01*
G01*
X66240000Y-99250000D01*
G75*
G02*
X66190000Y-99300000I-50000J0D01*
G01*
X64490000Y-99300000D01*
G75*
G02*
X64440000Y-99250000I0J50000D01*
G01*
X64440000Y-97550000D01*
G75*
G02*
X64490000Y-97500000I50000J0D01*
G01*
G37*
%TD*%
%TO.C,F2*%
G36*
G01*
X60255000Y-106925000D02*
X58945000Y-106925000D01*
G75*
G02*
X58675000Y-106655000I0J270000D01*
G01*
X58675000Y-105845000D01*
G75*
G02*
X58945000Y-105575000I270000J0D01*
G01*
X60255000Y-105575000D01*
G75*
G02*
X60525000Y-105845000I0J-270000D01*
G01*
X60525000Y-106655000D01*
G75*
G02*
X60255000Y-106925000I-270000J0D01*
G01*
G37*
G36*
G01*
X60255000Y-109725000D02*
X58945000Y-109725000D01*
G75*
G02*
X58675000Y-109455000I0J270000D01*
G01*
X58675000Y-108645000D01*
G75*
G02*
X58945000Y-108375000I270000J0D01*
G01*
X60255000Y-108375000D01*
G75*
G02*
X60525000Y-108645000I0J-270000D01*
G01*
X60525000Y-109455000D01*
G75*
G02*
X60255000Y-109725000I-270000J0D01*
G01*
G37*
%TD*%
%TO.C,F1*%
G36*
G01*
X68555000Y-115875000D02*
X67245000Y-115875000D01*
G75*
G02*
X66975000Y-115605000I0J270000D01*
G01*
X66975000Y-114795000D01*
G75*
G02*
X67245000Y-114525000I270000J0D01*
G01*
X68555000Y-114525000D01*
G75*
G02*
X68825000Y-114795000I0J-270000D01*
G01*
X68825000Y-115605000D01*
G75*
G02*
X68555000Y-115875000I-270000J0D01*
G01*
G37*
G36*
G01*
X68555000Y-118675000D02*
X67245000Y-118675000D01*
G75*
G02*
X66975000Y-118405000I0J270000D01*
G01*
X66975000Y-117595000D01*
G75*
G02*
X67245000Y-117325000I270000J0D01*
G01*
X68555000Y-117325000D01*
G75*
G02*
X68825000Y-117595000I0J-270000D01*
G01*
X68825000Y-118405000D01*
G75*
G02*
X68555000Y-118675000I-270000J0D01*
G01*
G37*
%TD*%
%TO.C,C3*%
G36*
G01*
X50578262Y-107625000D02*
X49221738Y-107625000D01*
G75*
G02*
X48950000Y-107353262I0J271738D01*
G01*
X48950000Y-106646738D01*
G75*
G02*
X49221738Y-106375000I271738J0D01*
G01*
X50578262Y-106375000D01*
G75*
G02*
X50850000Y-106646738I0J-271738D01*
G01*
X50850000Y-107353262D01*
G75*
G02*
X50578262Y-107625000I-271738J0D01*
G01*
G37*
G36*
G01*
X50578262Y-110575000D02*
X49221738Y-110575000D01*
G75*
G02*
X48950000Y-110303262I0J271738D01*
G01*
X48950000Y-109596738D01*
G75*
G02*
X49221738Y-109325000I271738J0D01*
G01*
X50578262Y-109325000D01*
G75*
G02*
X50850000Y-109596738I0J-271738D01*
G01*
X50850000Y-110303262D01*
G75*
G02*
X50578262Y-110575000I-271738J0D01*
G01*
G37*
%TD*%
%TO.C,C14*%
G36*
G01*
X62040000Y-126030000D02*
X62040000Y-125030000D01*
G75*
G02*
X62315000Y-124755000I275000J0D01*
G01*
X62865000Y-124755000D01*
G75*
G02*
X63140000Y-125030000I0J-275000D01*
G01*
X63140000Y-126030000D01*
G75*
G02*
X62865000Y-126305000I-275000J0D01*
G01*
X62315000Y-126305000D01*
G75*
G02*
X62040000Y-126030000I0J275000D01*
G01*
G37*
G36*
G01*
X60140000Y-126030000D02*
X60140000Y-125030000D01*
G75*
G02*
X60415000Y-124755000I275000J0D01*
G01*
X60965000Y-124755000D01*
G75*
G02*
X61240000Y-125030000I0J-275000D01*
G01*
X61240000Y-126030000D01*
G75*
G02*
X60965000Y-126305000I-275000J0D01*
G01*
X60415000Y-126305000D01*
G75*
G02*
X60140000Y-126030000I0J275000D01*
G01*
G37*
%TD*%
%TO.C,C13*%
G36*
G01*
X47900000Y-135000000D02*
X46900000Y-135000000D01*
G75*
G02*
X46625000Y-134725000I0J275000D01*
G01*
X46625000Y-134175000D01*
G75*
G02*
X46900000Y-133900000I275000J0D01*
G01*
X47900000Y-133900000D01*
G75*
G02*
X48175000Y-134175000I0J-275000D01*
G01*
X48175000Y-134725000D01*
G75*
G02*
X47900000Y-135000000I-275000J0D01*
G01*
G37*
G36*
G01*
X47900000Y-136900000D02*
X46900000Y-136900000D01*
G75*
G02*
X46625000Y-136625000I0J275000D01*
G01*
X46625000Y-136075000D01*
G75*
G02*
X46900000Y-135800000I275000J0D01*
G01*
X47900000Y-135800000D01*
G75*
G02*
X48175000Y-136075000I0J-275000D01*
G01*
X48175000Y-136625000D01*
G75*
G02*
X47900000Y-136900000I-275000J0D01*
G01*
G37*
%TD*%
%TO.C,C12*%
G36*
G01*
X58060000Y-127500000D02*
X59060000Y-127500000D01*
G75*
G02*
X59335000Y-127775000I0J-275000D01*
G01*
X59335000Y-128325000D01*
G75*
G02*
X59060000Y-128600000I-275000J0D01*
G01*
X58060000Y-128600000D01*
G75*
G02*
X57785000Y-128325000I0J275000D01*
G01*
X57785000Y-127775000D01*
G75*
G02*
X58060000Y-127500000I275000J0D01*
G01*
G37*
G36*
G01*
X58060000Y-125600000D02*
X59060000Y-125600000D01*
G75*
G02*
X59335000Y-125875000I0J-275000D01*
G01*
X59335000Y-126425000D01*
G75*
G02*
X59060000Y-126700000I-275000J0D01*
G01*
X58060000Y-126700000D01*
G75*
G02*
X57785000Y-126425000I0J275000D01*
G01*
X57785000Y-125875000D01*
G75*
G02*
X58060000Y-125600000I275000J0D01*
G01*
G37*
%TD*%
%TO.C,C11*%
G36*
G01*
X43400000Y-136050000D02*
X43400000Y-137050000D01*
G75*
G02*
X43125000Y-137325000I-275000J0D01*
G01*
X42575000Y-137325000D01*
G75*
G02*
X42300000Y-137050000I0J275000D01*
G01*
X42300000Y-136050000D01*
G75*
G02*
X42575000Y-135775000I275000J0D01*
G01*
X43125000Y-135775000D01*
G75*
G02*
X43400000Y-136050000I0J-275000D01*
G01*
G37*
G36*
G01*
X45300000Y-136050000D02*
X45300000Y-137050000D01*
G75*
G02*
X45025000Y-137325000I-275000J0D01*
G01*
X44475000Y-137325000D01*
G75*
G02*
X44200000Y-137050000I0J275000D01*
G01*
X44200000Y-136050000D01*
G75*
G02*
X44475000Y-135775000I275000J0D01*
G01*
X45025000Y-135775000D01*
G75*
G02*
X45300000Y-136050000I0J-275000D01*
G01*
G37*
%TD*%
%TO.C,C10*%
G36*
G01*
X59020000Y-133400000D02*
X58020000Y-133400000D01*
G75*
G02*
X57745000Y-133125000I0J275000D01*
G01*
X57745000Y-132575000D01*
G75*
G02*
X58020000Y-132300000I275000J0D01*
G01*
X59020000Y-132300000D01*
G75*
G02*
X59295000Y-132575000I0J-275000D01*
G01*
X59295000Y-133125000D01*
G75*
G02*
X59020000Y-133400000I-275000J0D01*
G01*
G37*
G36*
G01*
X59020000Y-131500000D02*
X58020000Y-131500000D01*
G75*
G02*
X57745000Y-131225000I0J275000D01*
G01*
X57745000Y-130675000D01*
G75*
G02*
X58020000Y-130400000I275000J0D01*
G01*
X59020000Y-130400000D01*
G75*
G02*
X59295000Y-130675000I0J-275000D01*
G01*
X59295000Y-131225000D01*
G75*
G02*
X59020000Y-131500000I-275000J0D01*
G01*
G37*
%TD*%
%TO.C,C9*%
G36*
G01*
X46900000Y-131700000D02*
X47900000Y-131700000D01*
G75*
G02*
X48175000Y-131975000I0J-275000D01*
G01*
X48175000Y-132525000D01*
G75*
G02*
X47900000Y-132800000I-275000J0D01*
G01*
X46900000Y-132800000D01*
G75*
G02*
X46625000Y-132525000I0J275000D01*
G01*
X46625000Y-131975000D01*
G75*
G02*
X46900000Y-131700000I275000J0D01*
G01*
G37*
G36*
G01*
X46900000Y-129800000D02*
X47900000Y-129800000D01*
G75*
G02*
X48175000Y-130075000I0J-275000D01*
G01*
X48175000Y-130625000D01*
G75*
G02*
X47900000Y-130900000I-275000J0D01*
G01*
X46900000Y-130900000D01*
G75*
G02*
X46625000Y-130625000I0J275000D01*
G01*
X46625000Y-130075000D01*
G75*
G02*
X46900000Y-129800000I275000J0D01*
G01*
G37*
%TD*%
%TO.C,U5*%
G36*
G01*
X53250000Y-108545000D02*
X51750000Y-108545000D01*
G75*
G02*
X51700000Y-108495000I0J50000D01*
G01*
X51700000Y-106495000D01*
G75*
G02*
X51750000Y-106445000I50000J0D01*
G01*
X53250000Y-106445000D01*
G75*
G02*
X53300000Y-106495000I0J-50000D01*
G01*
X53300000Y-108495000D01*
G75*
G02*
X53250000Y-108545000I-50000J0D01*
G01*
G37*
G36*
G01*
X57850000Y-108545000D02*
X56350000Y-108545000D01*
G75*
G02*
X56300000Y-108495000I0J50000D01*
G01*
X56300000Y-106495000D01*
G75*
G02*
X56350000Y-106445000I50000J0D01*
G01*
X57850000Y-106445000D01*
G75*
G02*
X57900000Y-106495000I0J-50000D01*
G01*
X57900000Y-108495000D01*
G75*
G02*
X57850000Y-108545000I-50000J0D01*
G01*
G37*
G36*
G01*
X55550000Y-108545000D02*
X54050000Y-108545000D01*
G75*
G02*
X54000000Y-108495000I0J50000D01*
G01*
X54000000Y-106495000D01*
G75*
G02*
X54050000Y-106445000I50000J0D01*
G01*
X55550000Y-106445000D01*
G75*
G02*
X55600000Y-106495000I0J-50000D01*
G01*
X55600000Y-108495000D01*
G75*
G02*
X55550000Y-108545000I-50000J0D01*
G01*
G37*
G36*
G01*
X56700000Y-102245000D02*
X52900000Y-102245000D01*
G75*
G02*
X52850000Y-102195000I0J50000D01*
G01*
X52850000Y-100195000D01*
G75*
G02*
X52900000Y-100145000I50000J0D01*
G01*
X56700000Y-100145000D01*
G75*
G02*
X56750000Y-100195000I0J-50000D01*
G01*
X56750000Y-102195000D01*
G75*
G02*
X56700000Y-102245000I-50000J0D01*
G01*
G37*
%TD*%
%TO.C,R9*%
G36*
G01*
X30652780Y-107050000D02*
X29347220Y-107050000D01*
G75*
G02*
X29075000Y-106777780I0J272220D01*
G01*
X29075000Y-106097220D01*
G75*
G02*
X29347220Y-105825000I272220J0D01*
G01*
X30652780Y-105825000D01*
G75*
G02*
X30925000Y-106097220I0J-272220D01*
G01*
X30925000Y-106777780D01*
G75*
G02*
X30652780Y-107050000I-272220J0D01*
G01*
G37*
G36*
G01*
X30652780Y-109975000D02*
X29347220Y-109975000D01*
G75*
G02*
X29075000Y-109702780I0J272220D01*
G01*
X29075000Y-109022220D01*
G75*
G02*
X29347220Y-108750000I272220J0D01*
G01*
X30652780Y-108750000D01*
G75*
G02*
X30925000Y-109022220I0J-272220D01*
G01*
X30925000Y-109702780D01*
G75*
G02*
X30652780Y-109975000I-272220J0D01*
G01*
G37*
%TD*%
%TO.C,R8*%
G36*
G01*
X32952780Y-107050000D02*
X31647220Y-107050000D01*
G75*
G02*
X31375000Y-106777780I0J272220D01*
G01*
X31375000Y-106097220D01*
G75*
G02*
X31647220Y-105825000I272220J0D01*
G01*
X32952780Y-105825000D01*
G75*
G02*
X33225000Y-106097220I0J-272220D01*
G01*
X33225000Y-106777780D01*
G75*
G02*
X32952780Y-107050000I-272220J0D01*
G01*
G37*
G36*
G01*
X32952780Y-109975000D02*
X31647220Y-109975000D01*
G75*
G02*
X31375000Y-109702780I0J272220D01*
G01*
X31375000Y-109022220D01*
G75*
G02*
X31647220Y-108750000I272220J0D01*
G01*
X32952780Y-108750000D01*
G75*
G02*
X33225000Y-109022220I0J-272220D01*
G01*
X33225000Y-109702780D01*
G75*
G02*
X32952780Y-109975000I-272220J0D01*
G01*
G37*
%TD*%
D14*
%TO.C,J1*%
X33200000Y-99900000D03*
X33200000Y-98650000D03*
X33200000Y-97400000D03*
X33200000Y-96150000D03*
G36*
G01*
X32725000Y-94450000D02*
X33675000Y-94450000D01*
G75*
G02*
X33900000Y-94675000I0J-225000D01*
G01*
X33900000Y-95125000D01*
G75*
G02*
X33675000Y-95350000I-225000J0D01*
G01*
X32725000Y-95350000D01*
G75*
G02*
X32500000Y-95125000I0J225000D01*
G01*
X32500000Y-94675000D01*
G75*
G02*
X32725000Y-94450000I225000J0D01*
G01*
G37*
%TD*%
D15*
%TO.C,J4*%
X39950000Y-85200000D03*
X41200000Y-85200000D03*
X42450000Y-85200000D03*
X43700000Y-85200000D03*
G36*
G01*
X45400000Y-84725000D02*
X45400000Y-85675000D01*
G75*
G02*
X45175000Y-85900000I-225000J0D01*
G01*
X44725000Y-85900000D01*
G75*
G02*
X44500000Y-85675000I0J225000D01*
G01*
X44500000Y-84725000D01*
G75*
G02*
X44725000Y-84500000I225000J0D01*
G01*
X45175000Y-84500000D01*
G75*
G02*
X45400000Y-84725000I0J-225000D01*
G01*
G37*
%TD*%
%TO.C,J2*%
X49850000Y-85200000D03*
X51100000Y-85200000D03*
X52350000Y-85200000D03*
X53600000Y-85200000D03*
X54850000Y-85200000D03*
G36*
G01*
X56550000Y-84725000D02*
X56550000Y-85675000D01*
G75*
G02*
X56325000Y-85900000I-225000J0D01*
G01*
X55875000Y-85900000D01*
G75*
G02*
X55650000Y-85675000I0J225000D01*
G01*
X55650000Y-84725000D01*
G75*
G02*
X55875000Y-84500000I225000J0D01*
G01*
X56325000Y-84500000D01*
G75*
G02*
X56550000Y-84725000I0J-225000D01*
G01*
G37*
%TD*%
D16*
%TO.C,H4*%
X32166726Y-81833274D03*
X31000000Y-81350000D03*
X29833274Y-81833274D03*
X29350000Y-83000000D03*
X29833274Y-84166726D03*
X31000000Y-84650000D03*
X32166726Y-84166726D03*
X32650000Y-83000000D03*
D17*
X31000000Y-83000000D03*
%TD*%
D16*
%TO.C,H3*%
X76166726Y-81833274D03*
X75000000Y-81350000D03*
X73833274Y-81833274D03*
X73350000Y-83000000D03*
X73833274Y-84166726D03*
X75000000Y-84650000D03*
X76166726Y-84166726D03*
X76650000Y-83000000D03*
D17*
X75000000Y-83000000D03*
%TD*%
D16*
%TO.C,H2*%
X32166726Y-140833274D03*
X31000000Y-140350000D03*
X29833274Y-140833274D03*
X29350000Y-142000000D03*
X29833274Y-143166726D03*
X31000000Y-143650000D03*
X32166726Y-143166726D03*
X32650000Y-142000000D03*
D17*
X31000000Y-142000000D03*
%TD*%
D16*
%TO.C,H1*%
X76166726Y-140833274D03*
X75000000Y-140350000D03*
X73833274Y-140833274D03*
X73350000Y-142000000D03*
X73833274Y-143166726D03*
X75000000Y-143650000D03*
X76166726Y-143166726D03*
X76650000Y-142000000D03*
D17*
X75000000Y-142000000D03*
%TD*%
D18*
%TO.C,J5*%
X71000000Y-105300000D03*
G36*
G01*
X71654168Y-107950000D02*
X70345832Y-107950000D01*
G75*
G02*
X70075000Y-107679168I0J270832D01*
G01*
X70075000Y-106920832D01*
G75*
G02*
X70345832Y-106650000I270832J0D01*
G01*
X71654168Y-106650000D01*
G75*
G02*
X71925000Y-106920832I0J-270832D01*
G01*
X71925000Y-107679168D01*
G75*
G02*
X71654168Y-107950000I-270832J0D01*
G01*
G37*
%TD*%
%TO.C,J3*%
X71000000Y-112600000D03*
G36*
G01*
X71654168Y-115250000D02*
X70345832Y-115250000D01*
G75*
G02*
X70075000Y-114979168I0J270832D01*
G01*
X70075000Y-114220832D01*
G75*
G02*
X70345832Y-113950000I270832J0D01*
G01*
X71654168Y-113950000D01*
G75*
G02*
X71925000Y-114220832I0J-270832D01*
G01*
X71925000Y-114979168D01*
G75*
G02*
X71654168Y-115250000I-270832J0D01*
G01*
G37*
%TD*%
D14*
%TO.C,J9*%
X72800000Y-95200000D03*
X72800000Y-96450000D03*
X72800000Y-97700000D03*
X72800000Y-98950000D03*
G36*
G01*
X73275000Y-100650000D02*
X72325000Y-100650000D01*
G75*
G02*
X72100000Y-100425000I0J225000D01*
G01*
X72100000Y-99975000D01*
G75*
G02*
X72325000Y-99750000I225000J0D01*
G01*
X73275000Y-99750000D01*
G75*
G02*
X73500000Y-99975000I0J-225000D01*
G01*
X73500000Y-100425000D01*
G75*
G02*
X73275000Y-100650000I-225000J0D01*
G01*
G37*
%TD*%
D15*
%TO.C,J7*%
X61000000Y-85200000D03*
X62250000Y-85200000D03*
X63500000Y-85200000D03*
X64750000Y-85200000D03*
G36*
G01*
X66450000Y-84725000D02*
X66450000Y-85675000D01*
G75*
G02*
X66225000Y-85900000I-225000J0D01*
G01*
X65775000Y-85900000D01*
G75*
G02*
X65550000Y-85675000I0J225000D01*
G01*
X65550000Y-84725000D01*
G75*
G02*
X65775000Y-84500000I225000J0D01*
G01*
X66225000Y-84500000D01*
G75*
G02*
X66450000Y-84725000I0J-225000D01*
G01*
G37*
%TD*%
D13*
%TO.C,J6*%
X32940000Y-103800000D03*
G36*
G01*
X31250000Y-104700000D02*
X29550000Y-104700000D01*
G75*
G02*
X29500000Y-104650000I0J50000D01*
G01*
X29500000Y-102950000D01*
G75*
G02*
X29550000Y-102900000I50000J0D01*
G01*
X31250000Y-102900000D01*
G75*
G02*
X31300000Y-102950000I0J-50000D01*
G01*
X31300000Y-104650000D01*
G75*
G02*
X31250000Y-104700000I-50000J0D01*
G01*
G37*
%TD*%
%TO.C,R5*%
G36*
G01*
X57850000Y-123675612D02*
X57850000Y-122724388D01*
G75*
G02*
X58124388Y-122450000I274388J0D01*
G01*
X58700612Y-122450000D01*
G75*
G02*
X58975000Y-122724388I0J-274388D01*
G01*
X58975000Y-123675612D01*
G75*
G02*
X58700612Y-123950000I-274388J0D01*
G01*
X58124388Y-123950000D01*
G75*
G02*
X57850000Y-123675612I0J274388D01*
G01*
G37*
G36*
G01*
X56025000Y-123675612D02*
X56025000Y-122724388D01*
G75*
G02*
X56299388Y-122450000I274388J0D01*
G01*
X56875612Y-122450000D01*
G75*
G02*
X57150000Y-122724388I0J-274388D01*
G01*
X57150000Y-123675612D01*
G75*
G02*
X56875612Y-123950000I-274388J0D01*
G01*
X56299388Y-123950000D01*
G75*
G02*
X56025000Y-123675612I0J274388D01*
G01*
G37*
%TD*%
%TO.C,J12*%
X53940000Y-122400000D03*
G36*
G01*
X52250000Y-123300000D02*
X50550000Y-123300000D01*
G75*
G02*
X50500000Y-123250000I0J50000D01*
G01*
X50500000Y-121550000D01*
G75*
G02*
X50550000Y-121500000I50000J0D01*
G01*
X52250000Y-121500000D01*
G75*
G02*
X52300000Y-121550000I0J-50000D01*
G01*
X52300000Y-123250000D01*
G75*
G02*
X52250000Y-123300000I-50000J0D01*
G01*
G37*
%TD*%
%TO.C,J11*%
X46600000Y-114600000D03*
X46600000Y-117140000D03*
G36*
G01*
X47500000Y-118830000D02*
X47500000Y-120530000D01*
G75*
G02*
X47450000Y-120580000I-50000J0D01*
G01*
X45750000Y-120580000D01*
G75*
G02*
X45700000Y-120530000I0J50000D01*
G01*
X45700000Y-118830000D01*
G75*
G02*
X45750000Y-118780000I50000J0D01*
G01*
X47450000Y-118780000D01*
G75*
G02*
X47500000Y-118830000I0J-50000D01*
G01*
G37*
%TD*%
%TO.C,J8*%
X31960000Y-122800000D03*
G36*
G01*
X33650000Y-121900000D02*
X35350000Y-121900000D01*
G75*
G02*
X35400000Y-121950000I0J-50000D01*
G01*
X35400000Y-123650000D01*
G75*
G02*
X35350000Y-123700000I-50000J0D01*
G01*
X33650000Y-123700000D01*
G75*
G02*
X33600000Y-123650000I0J50000D01*
G01*
X33600000Y-121950000D01*
G75*
G02*
X33650000Y-121900000I50000J0D01*
G01*
G37*
%TD*%
%TO.C,J10*%
X41200000Y-107000000D03*
G36*
G01*
X42100000Y-108690000D02*
X42100000Y-110390000D01*
G75*
G02*
X42050000Y-110440000I-50000J0D01*
G01*
X40350000Y-110440000D01*
G75*
G02*
X40300000Y-110390000I0J50000D01*
G01*
X40300000Y-108690000D01*
G75*
G02*
X40350000Y-108640000I50000J0D01*
G01*
X42050000Y-108640000D01*
G75*
G02*
X42100000Y-108690000I0J-50000D01*
G01*
G37*
%TD*%
%TO.C,D5*%
G36*
G01*
X49212500Y-105381250D02*
X49212500Y-104818750D01*
G75*
G02*
X49456250Y-104575000I243750J0D01*
G01*
X49943750Y-104575000D01*
G75*
G02*
X50187500Y-104818750I0J-243750D01*
G01*
X50187500Y-105381250D01*
G75*
G02*
X49943750Y-105625000I-243750J0D01*
G01*
X49456250Y-105625000D01*
G75*
G02*
X49212500Y-105381250I0J243750D01*
G01*
G37*
G36*
G01*
X47637500Y-105381250D02*
X47637500Y-104818750D01*
G75*
G02*
X47881250Y-104575000I243750J0D01*
G01*
X48368750Y-104575000D01*
G75*
G02*
X48612500Y-104818750I0J-243750D01*
G01*
X48612500Y-105381250D01*
G75*
G02*
X48368750Y-105625000I-243750J0D01*
G01*
X47881250Y-105625000D01*
G75*
G02*
X47637500Y-105381250I0J243750D01*
G01*
G37*
%TD*%
%TO.C,SW2*%
X75300000Y-121940000D03*
G36*
G01*
X74400000Y-120250000D02*
X74400000Y-118550000D01*
G75*
G02*
X74450000Y-118500000I50000J0D01*
G01*
X76150000Y-118500000D01*
G75*
G02*
X76200000Y-118550000I0J-50000D01*
G01*
X76200000Y-120250000D01*
G75*
G02*
X76150000Y-120300000I-50000J0D01*
G01*
X74450000Y-120300000D01*
G75*
G02*
X74400000Y-120250000I0J50000D01*
G01*
G37*
%TD*%
%TO.C,SW1*%
G36*
G01*
X50475000Y-114300000D02*
X50475000Y-115600000D01*
G75*
G02*
X50425000Y-115650000I-50000J0D01*
G01*
X48875000Y-115650000D01*
G75*
G02*
X48825000Y-115600000I0J50000D01*
G01*
X48825000Y-114300000D01*
G75*
G02*
X48875000Y-114250000I50000J0D01*
G01*
X50425000Y-114250000D01*
G75*
G02*
X50475000Y-114300000I0J-50000D01*
G01*
G37*
G36*
G01*
X50475000Y-118800000D02*
X50475000Y-120100000D01*
G75*
G02*
X50425000Y-120150000I-50000J0D01*
G01*
X48875000Y-120150000D01*
G75*
G02*
X48825000Y-120100000I0J50000D01*
G01*
X48825000Y-118800000D01*
G75*
G02*
X48875000Y-118750000I50000J0D01*
G01*
X50425000Y-118750000D01*
G75*
G02*
X50475000Y-118800000I0J-50000D01*
G01*
G37*
G36*
G01*
X58425000Y-118800000D02*
X58425000Y-120100000D01*
G75*
G02*
X58375000Y-120150000I-50000J0D01*
G01*
X56825000Y-120150000D01*
G75*
G02*
X56775000Y-120100000I0J50000D01*
G01*
X56775000Y-118800000D01*
G75*
G02*
X56825000Y-118750000I50000J0D01*
G01*
X58375000Y-118750000D01*
G75*
G02*
X58425000Y-118800000I0J-50000D01*
G01*
G37*
G36*
G01*
X58425000Y-114300000D02*
X58425000Y-115600000D01*
G75*
G02*
X58375000Y-115650000I-50000J0D01*
G01*
X56825000Y-115650000D01*
G75*
G02*
X56775000Y-115600000I0J50000D01*
G01*
X56775000Y-114300000D01*
G75*
G02*
X56825000Y-114250000I50000J0D01*
G01*
X58375000Y-114250000D01*
G75*
G02*
X58425000Y-114300000I0J-50000D01*
G01*
G37*
%TD*%
%TO.C,U2*%
G36*
G01*
X63391000Y-113371000D02*
X63391000Y-112721000D01*
G75*
G02*
X63441000Y-112671000I50000J0D01*
G01*
X64661000Y-112671000D01*
G75*
G02*
X64711000Y-112721000I0J-50000D01*
G01*
X64711000Y-113371000D01*
G75*
G02*
X64661000Y-113421000I-50000J0D01*
G01*
X63441000Y-113421000D01*
G75*
G02*
X63391000Y-113371000I0J50000D01*
G01*
G37*
G36*
G01*
X63391000Y-114321000D02*
X63391000Y-113671000D01*
G75*
G02*
X63441000Y-113621000I50000J0D01*
G01*
X64661000Y-113621000D01*
G75*
G02*
X64711000Y-113671000I0J-50000D01*
G01*
X64711000Y-114321000D01*
G75*
G02*
X64661000Y-114371000I-50000J0D01*
G01*
X63441000Y-114371000D01*
G75*
G02*
X63391000Y-114321000I0J50000D01*
G01*
G37*
G36*
G01*
X63391000Y-115271000D02*
X63391000Y-114621000D01*
G75*
G02*
X63441000Y-114571000I50000J0D01*
G01*
X64661000Y-114571000D01*
G75*
G02*
X64711000Y-114621000I0J-50000D01*
G01*
X64711000Y-115271000D01*
G75*
G02*
X64661000Y-115321000I-50000J0D01*
G01*
X63441000Y-115321000D01*
G75*
G02*
X63391000Y-115271000I0J50000D01*
G01*
G37*
G36*
G01*
X60771000Y-115271000D02*
X60771000Y-114621000D01*
G75*
G02*
X60821000Y-114571000I50000J0D01*
G01*
X62041000Y-114571000D01*
G75*
G02*
X62091000Y-114621000I0J-50000D01*
G01*
X62091000Y-115271000D01*
G75*
G02*
X62041000Y-115321000I-50000J0D01*
G01*
X60821000Y-115321000D01*
G75*
G02*
X60771000Y-115271000I0J50000D01*
G01*
G37*
G36*
G01*
X60771000Y-114321000D02*
X60771000Y-113671000D01*
G75*
G02*
X60821000Y-113621000I50000J0D01*
G01*
X62041000Y-113621000D01*
G75*
G02*
X62091000Y-113671000I0J-50000D01*
G01*
X62091000Y-114321000D01*
G75*
G02*
X62041000Y-114371000I-50000J0D01*
G01*
X60821000Y-114371000D01*
G75*
G02*
X60771000Y-114321000I0J50000D01*
G01*
G37*
G36*
G01*
X60771000Y-113371000D02*
X60771000Y-112721000D01*
G75*
G02*
X60821000Y-112671000I50000J0D01*
G01*
X62041000Y-112671000D01*
G75*
G02*
X62091000Y-112721000I0J-50000D01*
G01*
X62091000Y-113371000D01*
G75*
G02*
X62041000Y-113421000I-50000J0D01*
G01*
X60821000Y-113421000D01*
G75*
G02*
X60771000Y-113371000I0J50000D01*
G01*
G37*
%TD*%
%TO.C,R15*%
G36*
G01*
X61937500Y-117275612D02*
X61937500Y-116324388D01*
G75*
G02*
X62211888Y-116050000I274388J0D01*
G01*
X62788112Y-116050000D01*
G75*
G02*
X63062500Y-116324388I0J-274388D01*
G01*
X63062500Y-117275612D01*
G75*
G02*
X62788112Y-117550000I-274388J0D01*
G01*
X62211888Y-117550000D01*
G75*
G02*
X61937500Y-117275612I0J274388D01*
G01*
G37*
G36*
G01*
X60112500Y-117275612D02*
X60112500Y-116324388D01*
G75*
G02*
X60386888Y-116050000I274388J0D01*
G01*
X60963112Y-116050000D01*
G75*
G02*
X61237500Y-116324388I0J-274388D01*
G01*
X61237500Y-117275612D01*
G75*
G02*
X60963112Y-117550000I-274388J0D01*
G01*
X60386888Y-117550000D01*
G75*
G02*
X60112500Y-117275612I0J274388D01*
G01*
G37*
%TD*%
%TO.C,R12*%
G36*
G01*
X58924388Y-112150000D02*
X59875612Y-112150000D01*
G75*
G02*
X60150000Y-112424388I0J-274388D01*
G01*
X60150000Y-113000612D01*
G75*
G02*
X59875612Y-113275000I-274388J0D01*
G01*
X58924388Y-113275000D01*
G75*
G02*
X58650000Y-113000612I0J274388D01*
G01*
X58650000Y-112424388D01*
G75*
G02*
X58924388Y-112150000I274388J0D01*
G01*
G37*
G36*
G01*
X58924388Y-110325000D02*
X59875612Y-110325000D01*
G75*
G02*
X60150000Y-110599388I0J-274388D01*
G01*
X60150000Y-111175612D01*
G75*
G02*
X59875612Y-111450000I-274388J0D01*
G01*
X58924388Y-111450000D01*
G75*
G02*
X58650000Y-111175612I0J274388D01*
G01*
X58650000Y-110599388D01*
G75*
G02*
X58924388Y-110325000I274388J0D01*
G01*
G37*
%TD*%
%TO.C,R3*%
G36*
G01*
X64650000Y-116324388D02*
X64650000Y-117275612D01*
G75*
G02*
X64375612Y-117550000I-274388J0D01*
G01*
X63799388Y-117550000D01*
G75*
G02*
X63525000Y-117275612I0J274388D01*
G01*
X63525000Y-116324388D01*
G75*
G02*
X63799388Y-116050000I274388J0D01*
G01*
X64375612Y-116050000D01*
G75*
G02*
X64650000Y-116324388I0J-274388D01*
G01*
G37*
G36*
G01*
X66475000Y-116324388D02*
X66475000Y-117275612D01*
G75*
G02*
X66200612Y-117550000I-274388J0D01*
G01*
X65624388Y-117550000D01*
G75*
G02*
X65350000Y-117275612I0J274388D01*
G01*
X65350000Y-116324388D01*
G75*
G02*
X65624388Y-116050000I274388J0D01*
G01*
X66200612Y-116050000D01*
G75*
G02*
X66475000Y-116324388I0J-274388D01*
G01*
G37*
%TD*%
%TO.C,L1*%
G36*
G01*
X64950000Y-105450000D02*
X62450000Y-105450000D01*
G75*
G02*
X62400000Y-105400000I0J50000D01*
G01*
X62400000Y-103500000D01*
G75*
G02*
X62450000Y-103450000I50000J0D01*
G01*
X64950000Y-103450000D01*
G75*
G02*
X65000000Y-103500000I0J-50000D01*
G01*
X65000000Y-105400000D01*
G75*
G02*
X64950000Y-105450000I-50000J0D01*
G01*
G37*
G36*
G01*
X64950000Y-109550000D02*
X62450000Y-109550000D01*
G75*
G02*
X62400000Y-109500000I0J50000D01*
G01*
X62400000Y-107600000D01*
G75*
G02*
X62450000Y-107550000I50000J0D01*
G01*
X64950000Y-107550000D01*
G75*
G02*
X65000000Y-107600000I0J-50000D01*
G01*
X65000000Y-109500000D01*
G75*
G02*
X64950000Y-109550000I-50000J0D01*
G01*
G37*
%TD*%
%TO.C,D4*%
G36*
G01*
X67500000Y-111600000D02*
X67500000Y-110400000D01*
G75*
G02*
X67550000Y-110350000I50000J0D01*
G01*
X68450000Y-110350000D01*
G75*
G02*
X68500000Y-110400000I0J-50000D01*
G01*
X68500000Y-111600000D01*
G75*
G02*
X68450000Y-111650000I-50000J0D01*
G01*
X67550000Y-111650000D01*
G75*
G02*
X67500000Y-111600000I0J50000D01*
G01*
G37*
G36*
G01*
X64200000Y-111600000D02*
X64200000Y-110400000D01*
G75*
G02*
X64250000Y-110350000I50000J0D01*
G01*
X65150000Y-110350000D01*
G75*
G02*
X65200000Y-110400000I0J-50000D01*
G01*
X65200000Y-111600000D01*
G75*
G02*
X65150000Y-111650000I-50000J0D01*
G01*
X64250000Y-111650000D01*
G75*
G02*
X64200000Y-111600000I0J50000D01*
G01*
G37*
%TD*%
%TO.C,C4*%
G36*
G01*
X62527000Y-111641000D02*
X62527000Y-110641000D01*
G75*
G02*
X62802000Y-110366000I275000J0D01*
G01*
X63352000Y-110366000D01*
G75*
G02*
X63627000Y-110641000I0J-275000D01*
G01*
X63627000Y-111641000D01*
G75*
G02*
X63352000Y-111916000I-275000J0D01*
G01*
X62802000Y-111916000D01*
G75*
G02*
X62527000Y-111641000I0J275000D01*
G01*
G37*
G36*
G01*
X60627000Y-111641000D02*
X60627000Y-110641000D01*
G75*
G02*
X60902000Y-110366000I275000J0D01*
G01*
X61452000Y-110366000D01*
G75*
G02*
X61727000Y-110641000I0J-275000D01*
G01*
X61727000Y-111641000D01*
G75*
G02*
X61452000Y-111916000I-275000J0D01*
G01*
X60902000Y-111916000D01*
G75*
G02*
X60627000Y-111641000I0J275000D01*
G01*
G37*
%TD*%
%TO.C,C1*%
G36*
G01*
X67231000Y-113800000D02*
X67231000Y-112800000D01*
G75*
G02*
X67506000Y-112525000I275000J0D01*
G01*
X68056000Y-112525000D01*
G75*
G02*
X68331000Y-112800000I0J-275000D01*
G01*
X68331000Y-113800000D01*
G75*
G02*
X68056000Y-114075000I-275000J0D01*
G01*
X67506000Y-114075000D01*
G75*
G02*
X67231000Y-113800000I0J275000D01*
G01*
G37*
G36*
G01*
X65331000Y-113800000D02*
X65331000Y-112800000D01*
G75*
G02*
X65606000Y-112525000I275000J0D01*
G01*
X66156000Y-112525000D01*
G75*
G02*
X66431000Y-112800000I0J-275000D01*
G01*
X66431000Y-113800000D01*
G75*
G02*
X66156000Y-114075000I-275000J0D01*
G01*
X65606000Y-114075000D01*
G75*
G02*
X65331000Y-113800000I0J275000D01*
G01*
G37*
%TD*%
%TO.C,R10*%
G36*
G01*
X50724388Y-96725000D02*
X51675612Y-96725000D01*
G75*
G02*
X51950000Y-96999388I0J-274388D01*
G01*
X51950000Y-97575612D01*
G75*
G02*
X51675612Y-97850000I-274388J0D01*
G01*
X50724388Y-97850000D01*
G75*
G02*
X50450000Y-97575612I0J274388D01*
G01*
X50450000Y-96999388D01*
G75*
G02*
X50724388Y-96725000I274388J0D01*
G01*
G37*
G36*
G01*
X50724388Y-98550000D02*
X51675612Y-98550000D01*
G75*
G02*
X51950000Y-98824388I0J-274388D01*
G01*
X51950000Y-99400612D01*
G75*
G02*
X51675612Y-99675000I-274388J0D01*
G01*
X50724388Y-99675000D01*
G75*
G02*
X50450000Y-99400612I0J274388D01*
G01*
X50450000Y-98824388D01*
G75*
G02*
X50724388Y-98550000I274388J0D01*
G01*
G37*
%TD*%
%TO.C,R7*%
G36*
G01*
X67887500Y-100724388D02*
X67887500Y-101675612D01*
G75*
G02*
X67613112Y-101950000I-274388J0D01*
G01*
X67036888Y-101950000D01*
G75*
G02*
X66762500Y-101675612I0J274388D01*
G01*
X66762500Y-100724388D01*
G75*
G02*
X67036888Y-100450000I274388J0D01*
G01*
X67613112Y-100450000D01*
G75*
G02*
X67887500Y-100724388I0J-274388D01*
G01*
G37*
G36*
G01*
X66062500Y-100724388D02*
X66062500Y-101675612D01*
G75*
G02*
X65788112Y-101950000I-274388J0D01*
G01*
X65211888Y-101950000D01*
G75*
G02*
X64937500Y-101675612I0J274388D01*
G01*
X64937500Y-100724388D01*
G75*
G02*
X65211888Y-100450000I274388J0D01*
G01*
X65788112Y-100450000D01*
G75*
G02*
X66062500Y-100724388I0J-274388D01*
G01*
G37*
%TD*%
%TO.C,R6*%
G36*
G01*
X60075612Y-103150000D02*
X59124388Y-103150000D01*
G75*
G02*
X58850000Y-102875612I0J274388D01*
G01*
X58850000Y-102299388D01*
G75*
G02*
X59124388Y-102025000I274388J0D01*
G01*
X60075612Y-102025000D01*
G75*
G02*
X60350000Y-102299388I0J-274388D01*
G01*
X60350000Y-102875612D01*
G75*
G02*
X60075612Y-103150000I-274388J0D01*
G01*
G37*
G36*
G01*
X60075612Y-104975000D02*
X59124388Y-104975000D01*
G75*
G02*
X58850000Y-104700612I0J274388D01*
G01*
X58850000Y-104124388D01*
G75*
G02*
X59124388Y-103850000I274388J0D01*
G01*
X60075612Y-103850000D01*
G75*
G02*
X60350000Y-104124388I0J-274388D01*
G01*
X60350000Y-104700612D01*
G75*
G02*
X60075612Y-104975000I-274388J0D01*
G01*
G37*
%TD*%
%TO.C,R2*%
G36*
G01*
X52737500Y-109324388D02*
X52737500Y-110275612D01*
G75*
G02*
X52463112Y-110550000I-274388J0D01*
G01*
X51886888Y-110550000D01*
G75*
G02*
X51612500Y-110275612I0J274388D01*
G01*
X51612500Y-109324388D01*
G75*
G02*
X51886888Y-109050000I274388J0D01*
G01*
X52463112Y-109050000D01*
G75*
G02*
X52737500Y-109324388I0J-274388D01*
G01*
G37*
G36*
G01*
X54562500Y-109324388D02*
X54562500Y-110275612D01*
G75*
G02*
X54288112Y-110550000I-274388J0D01*
G01*
X53711888Y-110550000D01*
G75*
G02*
X53437500Y-110275612I0J274388D01*
G01*
X53437500Y-109324388D01*
G75*
G02*
X53711888Y-109050000I274388J0D01*
G01*
X54288112Y-109050000D01*
G75*
G02*
X54562500Y-109324388I0J-274388D01*
G01*
G37*
%TD*%
%TO.C,R1*%
G36*
G01*
X49600000Y-112700000D02*
X49600000Y-113300000D01*
G75*
G02*
X49375000Y-113525000I-225000J0D01*
G01*
X48925000Y-113525000D01*
G75*
G02*
X48700000Y-113300000I0J225000D01*
G01*
X48700000Y-112700000D01*
G75*
G02*
X48925000Y-112475000I225000J0D01*
G01*
X49375000Y-112475000D01*
G75*
G02*
X49600000Y-112700000I0J-225000D01*
G01*
G37*
G36*
G01*
X51250000Y-112700000D02*
X51250000Y-113300000D01*
G75*
G02*
X51025000Y-113525000I-225000J0D01*
G01*
X50575000Y-113525000D01*
G75*
G02*
X50350000Y-113300000I0J225000D01*
G01*
X50350000Y-112700000D01*
G75*
G02*
X50575000Y-112475000I225000J0D01*
G01*
X51025000Y-112475000D01*
G75*
G02*
X51250000Y-112700000I0J-225000D01*
G01*
G37*
%TD*%
%TO.C,D2*%
G36*
G01*
X59700000Y-100718750D02*
X59700000Y-101281250D01*
G75*
G02*
X59456250Y-101525000I-243750J0D01*
G01*
X58968750Y-101525000D01*
G75*
G02*
X58725000Y-101281250I0J243750D01*
G01*
X58725000Y-100718750D01*
G75*
G02*
X58968750Y-100475000I243750J0D01*
G01*
X59456250Y-100475000D01*
G75*
G02*
X59700000Y-100718750I0J-243750D01*
G01*
G37*
G36*
G01*
X61275000Y-100718750D02*
X61275000Y-101281250D01*
G75*
G02*
X61031250Y-101525000I-243750J0D01*
G01*
X60543750Y-101525000D01*
G75*
G02*
X60300000Y-101281250I0J243750D01*
G01*
X60300000Y-100718750D01*
G75*
G02*
X60543750Y-100475000I243750J0D01*
G01*
X61031250Y-100475000D01*
G75*
G02*
X61275000Y-100718750I0J-243750D01*
G01*
G37*
%TD*%
%TO.C,C8*%
G36*
G01*
X44475000Y-111025000D02*
X43925000Y-111025000D01*
G75*
G02*
X43675000Y-110775000I0J250000D01*
G01*
X43675000Y-110275000D01*
G75*
G02*
X43925000Y-110025000I250000J0D01*
G01*
X44475000Y-110025000D01*
G75*
G02*
X44725000Y-110275000I0J-250000D01*
G01*
X44725000Y-110775000D01*
G75*
G02*
X44475000Y-111025000I-250000J0D01*
G01*
G37*
G36*
G01*
X44475000Y-112575000D02*
X43925000Y-112575000D01*
G75*
G02*
X43675000Y-112325000I0J250000D01*
G01*
X43675000Y-111825000D01*
G75*
G02*
X43925000Y-111575000I250000J0D01*
G01*
X44475000Y-111575000D01*
G75*
G02*
X44725000Y-111825000I0J-250000D01*
G01*
X44725000Y-112325000D01*
G75*
G02*
X44475000Y-112575000I-250000J0D01*
G01*
G37*
%TD*%
%TO.C,C7*%
G36*
G01*
X45875000Y-105375000D02*
X45875000Y-104825000D01*
G75*
G02*
X46125000Y-104575000I250000J0D01*
G01*
X46625000Y-104575000D01*
G75*
G02*
X46875000Y-104825000I0J-250000D01*
G01*
X46875000Y-105375000D01*
G75*
G02*
X46625000Y-105625000I-250000J0D01*
G01*
X46125000Y-105625000D01*
G75*
G02*
X45875000Y-105375000I0J250000D01*
G01*
G37*
G36*
G01*
X44325000Y-105375000D02*
X44325000Y-104825000D01*
G75*
G02*
X44575000Y-104575000I250000J0D01*
G01*
X45075000Y-104575000D01*
G75*
G02*
X45325000Y-104825000I0J-250000D01*
G01*
X45325000Y-105375000D01*
G75*
G02*
X45075000Y-105625000I-250000J0D01*
G01*
X44575000Y-105625000D01*
G75*
G02*
X44325000Y-105375000I0J250000D01*
G01*
G37*
%TD*%
%TO.C,C6*%
G36*
G01*
X45975000Y-111025000D02*
X45425000Y-111025000D01*
G75*
G02*
X45175000Y-110775000I0J250000D01*
G01*
X45175000Y-110275000D01*
G75*
G02*
X45425000Y-110025000I250000J0D01*
G01*
X45975000Y-110025000D01*
G75*
G02*
X46225000Y-110275000I0J-250000D01*
G01*
X46225000Y-110775000D01*
G75*
G02*
X45975000Y-111025000I-250000J0D01*
G01*
G37*
G36*
G01*
X45975000Y-112575000D02*
X45425000Y-112575000D01*
G75*
G02*
X45175000Y-112325000I0J250000D01*
G01*
X45175000Y-111825000D01*
G75*
G02*
X45425000Y-111575000I250000J0D01*
G01*
X45975000Y-111575000D01*
G75*
G02*
X46225000Y-111825000I0J-250000D01*
G01*
X46225000Y-112325000D01*
G75*
G02*
X45975000Y-112575000I-250000J0D01*
G01*
G37*
%TD*%
%TO.C,C5*%
G36*
G01*
X53450000Y-113275000D02*
X53450000Y-112725000D01*
G75*
G02*
X53700000Y-112475000I250000J0D01*
G01*
X54200000Y-112475000D01*
G75*
G02*
X54450000Y-112725000I0J-250000D01*
G01*
X54450000Y-113275000D01*
G75*
G02*
X54200000Y-113525000I-250000J0D01*
G01*
X53700000Y-113525000D01*
G75*
G02*
X53450000Y-113275000I0J250000D01*
G01*
G37*
G36*
G01*
X51900000Y-113275000D02*
X51900000Y-112725000D01*
G75*
G02*
X52150000Y-112475000I250000J0D01*
G01*
X52650000Y-112475000D01*
G75*
G02*
X52900000Y-112725000I0J-250000D01*
G01*
X52900000Y-113275000D01*
G75*
G02*
X52650000Y-113525000I-250000J0D01*
G01*
X52150000Y-113525000D01*
G75*
G02*
X51900000Y-113275000I0J250000D01*
G01*
G37*
%TD*%
%TO.C,C2*%
G36*
G01*
X56200000Y-109300000D02*
X56200000Y-110300000D01*
G75*
G02*
X55925000Y-110575000I-275000J0D01*
G01*
X55375000Y-110575000D01*
G75*
G02*
X55100000Y-110300000I0J275000D01*
G01*
X55100000Y-109300000D01*
G75*
G02*
X55375000Y-109025000I275000J0D01*
G01*
X55925000Y-109025000D01*
G75*
G02*
X56200000Y-109300000I0J-275000D01*
G01*
G37*
G36*
G01*
X58100000Y-109300000D02*
X58100000Y-110300000D01*
G75*
G02*
X57825000Y-110575000I-275000J0D01*
G01*
X57275000Y-110575000D01*
G75*
G02*
X57000000Y-110300000I0J275000D01*
G01*
X57000000Y-109300000D01*
G75*
G02*
X57275000Y-109025000I275000J0D01*
G01*
X57825000Y-109025000D01*
G75*
G02*
X58100000Y-109300000I0J-275000D01*
G01*
G37*
%TD*%
%TO.C,D3*%
G36*
G01*
X63400000Y-101281250D02*
X63400000Y-100718750D01*
G75*
G02*
X63643750Y-100475000I243750J0D01*
G01*
X64131250Y-100475000D01*
G75*
G02*
X64375000Y-100718750I0J-243750D01*
G01*
X64375000Y-101281250D01*
G75*
G02*
X64131250Y-101525000I-243750J0D01*
G01*
X63643750Y-101525000D01*
G75*
G02*
X63400000Y-101281250I0J243750D01*
G01*
G37*
G36*
G01*
X61825000Y-101281250D02*
X61825000Y-100718750D01*
G75*
G02*
X62068750Y-100475000I243750J0D01*
G01*
X62556250Y-100475000D01*
G75*
G02*
X62800000Y-100718750I0J-243750D01*
G01*
X62800000Y-101281250D01*
G75*
G02*
X62556250Y-101525000I-243750J0D01*
G01*
X62068750Y-101525000D01*
G75*
G02*
X61825000Y-101281250I0J243750D01*
G01*
G37*
%TD*%
%TO.C,D6*%
G36*
G01*
X57600000Y-121581250D02*
X57600000Y-121018750D01*
G75*
G02*
X57843750Y-120775000I243750J0D01*
G01*
X58331250Y-120775000D01*
G75*
G02*
X58575000Y-121018750I0J-243750D01*
G01*
X58575000Y-121581250D01*
G75*
G02*
X58331250Y-121825000I-243750J0D01*
G01*
X57843750Y-121825000D01*
G75*
G02*
X57600000Y-121581250I0J243750D01*
G01*
G37*
G36*
G01*
X56025000Y-121581250D02*
X56025000Y-121018750D01*
G75*
G02*
X56268750Y-120775000I243750J0D01*
G01*
X56756250Y-120775000D01*
G75*
G02*
X57000000Y-121018750I0J-243750D01*
G01*
X57000000Y-121581250D01*
G75*
G02*
X56756250Y-121825000I-243750J0D01*
G01*
X56268750Y-121825000D01*
G75*
G02*
X56025000Y-121581250I0J243750D01*
G01*
G37*
%TD*%
D19*
%TO.C,U1*%
X43920000Y-102700000D03*
X46460000Y-102700000D03*
G36*
G01*
X49950000Y-102014100D02*
X49950000Y-103385900D01*
G75*
G02*
X49685900Y-103650000I-264100J0D01*
G01*
X48314100Y-103650000D01*
G75*
G02*
X48050000Y-103385900I0J264100D01*
G01*
X48050000Y-102014100D01*
G75*
G02*
X48314100Y-101750000I264100J0D01*
G01*
X49685900Y-101750000D01*
G75*
G02*
X49950000Y-102014100I0J-264100D01*
G01*
G37*
%TD*%
%TO.C,U4*%
G36*
G01*
X43708000Y-118788000D02*
X43958000Y-118788000D01*
G75*
G02*
X44083000Y-118913000I0J-125000D01*
G01*
X44083000Y-120238000D01*
G75*
G02*
X43958000Y-120363000I-125000J0D01*
G01*
X43708000Y-120363000D01*
G75*
G02*
X43583000Y-120238000I0J125000D01*
G01*
X43583000Y-118913000D01*
G75*
G02*
X43708000Y-118788000I125000J0D01*
G01*
G37*
G36*
G01*
X43058000Y-118788000D02*
X43308000Y-118788000D01*
G75*
G02*
X43433000Y-118913000I0J-125000D01*
G01*
X43433000Y-120238000D01*
G75*
G02*
X43308000Y-120363000I-125000J0D01*
G01*
X43058000Y-120363000D01*
G75*
G02*
X42933000Y-120238000I0J125000D01*
G01*
X42933000Y-118913000D01*
G75*
G02*
X43058000Y-118788000I125000J0D01*
G01*
G37*
G36*
G01*
X42408000Y-118788000D02*
X42658000Y-118788000D01*
G75*
G02*
X42783000Y-118913000I0J-125000D01*
G01*
X42783000Y-120238000D01*
G75*
G02*
X42658000Y-120363000I-125000J0D01*
G01*
X42408000Y-120363000D01*
G75*
G02*
X42283000Y-120238000I0J125000D01*
G01*
X42283000Y-118913000D01*
G75*
G02*
X42408000Y-118788000I125000J0D01*
G01*
G37*
G36*
G01*
X41758000Y-118788000D02*
X42008000Y-118788000D01*
G75*
G02*
X42133000Y-118913000I0J-125000D01*
G01*
X42133000Y-120238000D01*
G75*
G02*
X42008000Y-120363000I-125000J0D01*
G01*
X41758000Y-120363000D01*
G75*
G02*
X41633000Y-120238000I0J125000D01*
G01*
X41633000Y-118913000D01*
G75*
G02*
X41758000Y-118788000I125000J0D01*
G01*
G37*
G36*
G01*
X41108000Y-118788000D02*
X41358000Y-118788000D01*
G75*
G02*
X41483000Y-118913000I0J-125000D01*
G01*
X41483000Y-120238000D01*
G75*
G02*
X41358000Y-120363000I-125000J0D01*
G01*
X41108000Y-120363000D01*
G75*
G02*
X40983000Y-120238000I0J125000D01*
G01*
X40983000Y-118913000D01*
G75*
G02*
X41108000Y-118788000I125000J0D01*
G01*
G37*
G36*
G01*
X40458000Y-118788000D02*
X40708000Y-118788000D01*
G75*
G02*
X40833000Y-118913000I0J-125000D01*
G01*
X40833000Y-120238000D01*
G75*
G02*
X40708000Y-120363000I-125000J0D01*
G01*
X40458000Y-120363000D01*
G75*
G02*
X40333000Y-120238000I0J125000D01*
G01*
X40333000Y-118913000D01*
G75*
G02*
X40458000Y-118788000I125000J0D01*
G01*
G37*
G36*
G01*
X39808000Y-118788000D02*
X40058000Y-118788000D01*
G75*
G02*
X40183000Y-118913000I0J-125000D01*
G01*
X40183000Y-120238000D01*
G75*
G02*
X40058000Y-120363000I-125000J0D01*
G01*
X39808000Y-120363000D01*
G75*
G02*
X39683000Y-120238000I0J125000D01*
G01*
X39683000Y-118913000D01*
G75*
G02*
X39808000Y-118788000I125000J0D01*
G01*
G37*
G36*
G01*
X39158000Y-118788000D02*
X39408000Y-118788000D01*
G75*
G02*
X39533000Y-118913000I0J-125000D01*
G01*
X39533000Y-120238000D01*
G75*
G02*
X39408000Y-120363000I-125000J0D01*
G01*
X39158000Y-120363000D01*
G75*
G02*
X39033000Y-120238000I0J125000D01*
G01*
X39033000Y-118913000D01*
G75*
G02*
X39158000Y-118788000I125000J0D01*
G01*
G37*
G36*
G01*
X38508000Y-118788000D02*
X38758000Y-118788000D01*
G75*
G02*
X38883000Y-118913000I0J-125000D01*
G01*
X38883000Y-120238000D01*
G75*
G02*
X38758000Y-120363000I-125000J0D01*
G01*
X38508000Y-120363000D01*
G75*
G02*
X38383000Y-120238000I0J125000D01*
G01*
X38383000Y-118913000D01*
G75*
G02*
X38508000Y-118788000I125000J0D01*
G01*
G37*
G36*
G01*
X37858000Y-118788000D02*
X38108000Y-118788000D01*
G75*
G02*
X38233000Y-118913000I0J-125000D01*
G01*
X38233000Y-120238000D01*
G75*
G02*
X38108000Y-120363000I-125000J0D01*
G01*
X37858000Y-120363000D01*
G75*
G02*
X37733000Y-120238000I0J125000D01*
G01*
X37733000Y-118913000D01*
G75*
G02*
X37858000Y-118788000I125000J0D01*
G01*
G37*
G36*
G01*
X37208000Y-118788000D02*
X37458000Y-118788000D01*
G75*
G02*
X37583000Y-118913000I0J-125000D01*
G01*
X37583000Y-120238000D01*
G75*
G02*
X37458000Y-120363000I-125000J0D01*
G01*
X37208000Y-120363000D01*
G75*
G02*
X37083000Y-120238000I0J125000D01*
G01*
X37083000Y-118913000D01*
G75*
G02*
X37208000Y-118788000I125000J0D01*
G01*
G37*
G36*
G01*
X36558000Y-118788000D02*
X36808000Y-118788000D01*
G75*
G02*
X36933000Y-118913000I0J-125000D01*
G01*
X36933000Y-120238000D01*
G75*
G02*
X36808000Y-120363000I-125000J0D01*
G01*
X36558000Y-120363000D01*
G75*
G02*
X36433000Y-120238000I0J125000D01*
G01*
X36433000Y-118913000D01*
G75*
G02*
X36558000Y-118788000I125000J0D01*
G01*
G37*
G36*
G01*
X35908000Y-118788000D02*
X36158000Y-118788000D01*
G75*
G02*
X36283000Y-118913000I0J-125000D01*
G01*
X36283000Y-120238000D01*
G75*
G02*
X36158000Y-120363000I-125000J0D01*
G01*
X35908000Y-120363000D01*
G75*
G02*
X35783000Y-120238000I0J125000D01*
G01*
X35783000Y-118913000D01*
G75*
G02*
X35908000Y-118788000I125000J0D01*
G01*
G37*
G36*
G01*
X35258000Y-118788000D02*
X35508000Y-118788000D01*
G75*
G02*
X35633000Y-118913000I0J-125000D01*
G01*
X35633000Y-120238000D01*
G75*
G02*
X35508000Y-120363000I-125000J0D01*
G01*
X35258000Y-120363000D01*
G75*
G02*
X35133000Y-120238000I0J125000D01*
G01*
X35133000Y-118913000D01*
G75*
G02*
X35258000Y-118788000I125000J0D01*
G01*
G37*
G36*
G01*
X35258000Y-113063000D02*
X35508000Y-113063000D01*
G75*
G02*
X35633000Y-113188000I0J-125000D01*
G01*
X35633000Y-114513000D01*
G75*
G02*
X35508000Y-114638000I-125000J0D01*
G01*
X35258000Y-114638000D01*
G75*
G02*
X35133000Y-114513000I0J125000D01*
G01*
X35133000Y-113188000D01*
G75*
G02*
X35258000Y-113063000I125000J0D01*
G01*
G37*
G36*
G01*
X35908000Y-113063000D02*
X36158000Y-113063000D01*
G75*
G02*
X36283000Y-113188000I0J-125000D01*
G01*
X36283000Y-114513000D01*
G75*
G02*
X36158000Y-114638000I-125000J0D01*
G01*
X35908000Y-114638000D01*
G75*
G02*
X35783000Y-114513000I0J125000D01*
G01*
X35783000Y-113188000D01*
G75*
G02*
X35908000Y-113063000I125000J0D01*
G01*
G37*
G36*
G01*
X36558000Y-113063000D02*
X36808000Y-113063000D01*
G75*
G02*
X36933000Y-113188000I0J-125000D01*
G01*
X36933000Y-114513000D01*
G75*
G02*
X36808000Y-114638000I-125000J0D01*
G01*
X36558000Y-114638000D01*
G75*
G02*
X36433000Y-114513000I0J125000D01*
G01*
X36433000Y-113188000D01*
G75*
G02*
X36558000Y-113063000I125000J0D01*
G01*
G37*
G36*
G01*
X37208000Y-113063000D02*
X37458000Y-113063000D01*
G75*
G02*
X37583000Y-113188000I0J-125000D01*
G01*
X37583000Y-114513000D01*
G75*
G02*
X37458000Y-114638000I-125000J0D01*
G01*
X37208000Y-114638000D01*
G75*
G02*
X37083000Y-114513000I0J125000D01*
G01*
X37083000Y-113188000D01*
G75*
G02*
X37208000Y-113063000I125000J0D01*
G01*
G37*
G36*
G01*
X37858000Y-113063000D02*
X38108000Y-113063000D01*
G75*
G02*
X38233000Y-113188000I0J-125000D01*
G01*
X38233000Y-114513000D01*
G75*
G02*
X38108000Y-114638000I-125000J0D01*
G01*
X37858000Y-114638000D01*
G75*
G02*
X37733000Y-114513000I0J125000D01*
G01*
X37733000Y-113188000D01*
G75*
G02*
X37858000Y-113063000I125000J0D01*
G01*
G37*
G36*
G01*
X38508000Y-113063000D02*
X38758000Y-113063000D01*
G75*
G02*
X38883000Y-113188000I0J-125000D01*
G01*
X38883000Y-114513000D01*
G75*
G02*
X38758000Y-114638000I-125000J0D01*
G01*
X38508000Y-114638000D01*
G75*
G02*
X38383000Y-114513000I0J125000D01*
G01*
X38383000Y-113188000D01*
G75*
G02*
X38508000Y-113063000I125000J0D01*
G01*
G37*
G36*
G01*
X39158000Y-113063000D02*
X39408000Y-113063000D01*
G75*
G02*
X39533000Y-113188000I0J-125000D01*
G01*
X39533000Y-114513000D01*
G75*
G02*
X39408000Y-114638000I-125000J0D01*
G01*
X39158000Y-114638000D01*
G75*
G02*
X39033000Y-114513000I0J125000D01*
G01*
X39033000Y-113188000D01*
G75*
G02*
X39158000Y-113063000I125000J0D01*
G01*
G37*
G36*
G01*
X39808000Y-113063000D02*
X40058000Y-113063000D01*
G75*
G02*
X40183000Y-113188000I0J-125000D01*
G01*
X40183000Y-114513000D01*
G75*
G02*
X40058000Y-114638000I-125000J0D01*
G01*
X39808000Y-114638000D01*
G75*
G02*
X39683000Y-114513000I0J125000D01*
G01*
X39683000Y-113188000D01*
G75*
G02*
X39808000Y-113063000I125000J0D01*
G01*
G37*
G36*
G01*
X40458000Y-113063000D02*
X40708000Y-113063000D01*
G75*
G02*
X40833000Y-113188000I0J-125000D01*
G01*
X40833000Y-114513000D01*
G75*
G02*
X40708000Y-114638000I-125000J0D01*
G01*
X40458000Y-114638000D01*
G75*
G02*
X40333000Y-114513000I0J125000D01*
G01*
X40333000Y-113188000D01*
G75*
G02*
X40458000Y-113063000I125000J0D01*
G01*
G37*
G36*
G01*
X41108000Y-113063000D02*
X41358000Y-113063000D01*
G75*
G02*
X41483000Y-113188000I0J-125000D01*
G01*
X41483000Y-114513000D01*
G75*
G02*
X41358000Y-114638000I-125000J0D01*
G01*
X41108000Y-114638000D01*
G75*
G02*
X40983000Y-114513000I0J125000D01*
G01*
X40983000Y-113188000D01*
G75*
G02*
X41108000Y-113063000I125000J0D01*
G01*
G37*
G36*
G01*
X41758000Y-113063000D02*
X42008000Y-113063000D01*
G75*
G02*
X42133000Y-113188000I0J-125000D01*
G01*
X42133000Y-114513000D01*
G75*
G02*
X42008000Y-114638000I-125000J0D01*
G01*
X41758000Y-114638000D01*
G75*
G02*
X41633000Y-114513000I0J125000D01*
G01*
X41633000Y-113188000D01*
G75*
G02*
X41758000Y-113063000I125000J0D01*
G01*
G37*
G36*
G01*
X42408000Y-113063000D02*
X42658000Y-113063000D01*
G75*
G02*
X42783000Y-113188000I0J-125000D01*
G01*
X42783000Y-114513000D01*
G75*
G02*
X42658000Y-114638000I-125000J0D01*
G01*
X42408000Y-114638000D01*
G75*
G02*
X42283000Y-114513000I0J125000D01*
G01*
X42283000Y-113188000D01*
G75*
G02*
X42408000Y-113063000I125000J0D01*
G01*
G37*
G36*
G01*
X43058000Y-113063000D02*
X43308000Y-113063000D01*
G75*
G02*
X43433000Y-113188000I0J-125000D01*
G01*
X43433000Y-114513000D01*
G75*
G02*
X43308000Y-114638000I-125000J0D01*
G01*
X43058000Y-114638000D01*
G75*
G02*
X42933000Y-114513000I0J125000D01*
G01*
X42933000Y-113188000D01*
G75*
G02*
X43058000Y-113063000I125000J0D01*
G01*
G37*
G36*
G01*
X43708000Y-113063000D02*
X43958000Y-113063000D01*
G75*
G02*
X44083000Y-113188000I0J-125000D01*
G01*
X44083000Y-114513000D01*
G75*
G02*
X43958000Y-114638000I-125000J0D01*
G01*
X43708000Y-114638000D01*
G75*
G02*
X43583000Y-114513000I0J125000D01*
G01*
X43583000Y-113188000D01*
G75*
G02*
X43708000Y-113063000I125000J0D01*
G01*
G37*
%TD*%
D15*
%TO.C,J22*%
X57700000Y-139800000D03*
X56450000Y-139800000D03*
G36*
G01*
X54750000Y-140275000D02*
X54750000Y-139325000D01*
G75*
G02*
X54975000Y-139100000I225000J0D01*
G01*
X55425000Y-139100000D01*
G75*
G02*
X55650000Y-139325000I0J-225000D01*
G01*
X55650000Y-140275000D01*
G75*
G02*
X55425000Y-140500000I-225000J0D01*
G01*
X54975000Y-140500000D01*
G75*
G02*
X54750000Y-140275000I0J225000D01*
G01*
G37*
%TD*%
D14*
%TO.C,J21*%
X72800000Y-88300000D03*
X72800000Y-89550000D03*
G36*
G01*
X73275000Y-91250000D02*
X72325000Y-91250000D01*
G75*
G02*
X72100000Y-91025000I0J225000D01*
G01*
X72100000Y-90575000D01*
G75*
G02*
X72325000Y-90350000I225000J0D01*
G01*
X73275000Y-90350000D01*
G75*
G02*
X73500000Y-90575000I0J-225000D01*
G01*
X73500000Y-91025000D01*
G75*
G02*
X73275000Y-91250000I-225000J0D01*
G01*
G37*
%TD*%
D15*
%TO.C,J20*%
X50700000Y-139800000D03*
X49450000Y-139800000D03*
G36*
G01*
X47750000Y-140275000D02*
X47750000Y-139325000D01*
G75*
G02*
X47975000Y-139100000I225000J0D01*
G01*
X48425000Y-139100000D01*
G75*
G02*
X48650000Y-139325000I0J-225000D01*
G01*
X48650000Y-140275000D01*
G75*
G02*
X48425000Y-140500000I-225000J0D01*
G01*
X47975000Y-140500000D01*
G75*
G02*
X47750000Y-140275000I0J225000D01*
G01*
G37*
%TD*%
D14*
%TO.C,J19*%
X33200000Y-90700000D03*
X33200000Y-89450000D03*
G36*
G01*
X32725000Y-87750000D02*
X33675000Y-87750000D01*
G75*
G02*
X33900000Y-87975000I0J-225000D01*
G01*
X33900000Y-88425000D01*
G75*
G02*
X33675000Y-88650000I-225000J0D01*
G01*
X32725000Y-88650000D01*
G75*
G02*
X32500000Y-88425000I0J225000D01*
G01*
X32500000Y-87975000D01*
G75*
G02*
X32725000Y-87750000I225000J0D01*
G01*
G37*
%TD*%
D11*
%TO.C,J15*%
X74100000Y-133223000D03*
G36*
G01*
X75150000Y-136863000D02*
X73050000Y-136863000D01*
G75*
G02*
X73000000Y-136813000I0J50000D01*
G01*
X73000000Y-134713000D01*
G75*
G02*
X73050000Y-134663000I50000J0D01*
G01*
X75150000Y-134663000D01*
G75*
G02*
X75200000Y-134713000I0J-50000D01*
G01*
X75200000Y-136813000D01*
G75*
G02*
X75150000Y-136863000I-50000J0D01*
G01*
G37*
%TD*%
%TO.C,J14*%
X74100000Y-126500000D03*
G36*
G01*
X75150000Y-130140000D02*
X73050000Y-130140000D01*
G75*
G02*
X73000000Y-130090000I0J50000D01*
G01*
X73000000Y-127990000D01*
G75*
G02*
X73050000Y-127940000I50000J0D01*
G01*
X75150000Y-127940000D01*
G75*
G02*
X75200000Y-127990000I0J-50000D01*
G01*
X75200000Y-130090000D01*
G75*
G02*
X75150000Y-130140000I-50000J0D01*
G01*
G37*
%TD*%
M02*
