%TF.GenerationSoftware,KiCad,Pcbnew,5.1.10*%
%TF.CreationDate,2021-08-20T07:55:10+02:00*%
%TF.ProjectId,nsumo,6e73756d-6f2e-46b6-9963-61645f706362,rev?*%
%TF.SameCoordinates,Original*%
%TF.FileFunction,Copper,L2,Bot*%
%TF.FilePolarity,Positive*%
%FSLAX46Y46*%
G04 Gerber Fmt 4.6, Leading zero omitted, Abs format (unit mm)*
G04 Created by KiCad (PCBNEW 5.1.10) date 2021-08-20 07:55:10*
%MOMM*%
%LPD*%
G01*
G04 APERTURE LIST*
%TA.AperFunction,ComponentPad*%
%ADD10C,2.100000*%
%TD*%
%TA.AperFunction,ComponentPad*%
%ADD11R,2.100000X2.100000*%
%TD*%
%TA.AperFunction,ComponentPad*%
%ADD12O,1.700000X1.700000*%
%TD*%
%TA.AperFunction,ComponentPad*%
%ADD13R,1.700000X1.700000*%
%TD*%
%TA.AperFunction,ComponentPad*%
%ADD14O,1.300000X0.800000*%
%TD*%
%TA.AperFunction,ComponentPad*%
%ADD15O,0.800000X1.300000*%
%TD*%
%TA.AperFunction,ComponentPad*%
%ADD16C,0.700000*%
%TD*%
%TA.AperFunction,ComponentPad*%
%ADD17C,4.400000*%
%TD*%
%TA.AperFunction,ComponentPad*%
%ADD18O,1.750000X1.200000*%
%TD*%
%TA.AperFunction,ComponentPad*%
%ADD19C,1.800000*%
%TD*%
%TA.AperFunction,ViaPad*%
%ADD20C,0.800000*%
%TD*%
%TA.AperFunction,Conductor*%
%ADD21C,0.508000*%
%TD*%
%TA.AperFunction,Conductor*%
%ADD22C,0.254000*%
%TD*%
%TA.AperFunction,Conductor*%
%ADD23C,0.100000*%
%TD*%
G04 APERTURE END LIST*
D10*
%TO.P,J17,2*%
%TO.N,ML_A02*%
X31900000Y-129440000D03*
D11*
%TO.P,J17,1*%
%TO.N,ML_A01*%
X31900000Y-126900000D03*
%TD*%
D10*
%TO.P,J16,2*%
%TO.N,ML_B01*%
X31900000Y-136140000D03*
D11*
%TO.P,J16,1*%
%TO.N,ML_B02*%
X31900000Y-133600000D03*
%TD*%
D12*
%TO.P,J13,3*%
%TO.N,+3V3*%
X60260000Y-98400000D03*
%TO.P,J13,2*%
%TO.N,GND*%
X62800000Y-98400000D03*
D13*
%TO.P,J13,1*%
%TO.N,+5V*%
X65340000Y-98400000D03*
%TD*%
D14*
%TO.P,J1,5*%
%TO.N,+3V3*%
X33200000Y-99900000D03*
%TO.P,J1,4*%
%TO.N,GND*%
X33200000Y-98650000D03*
%TO.P,J1,3*%
%TO.N,SCL*%
X33200000Y-97400000D03*
%TO.P,J1,2*%
%TO.N,SDA*%
X33200000Y-96150000D03*
%TO.P,J1,1*%
%TO.N,XSHUT_LEFT*%
%TA.AperFunction,ComponentPad*%
G36*
G01*
X32750000Y-94500000D02*
X33650000Y-94500000D01*
G75*
G02*
X33850000Y-94700000I0J-200000D01*
G01*
X33850000Y-95100000D01*
G75*
G02*
X33650000Y-95300000I-200000J0D01*
G01*
X32750000Y-95300000D01*
G75*
G02*
X32550000Y-95100000I0J200000D01*
G01*
X32550000Y-94700000D01*
G75*
G02*
X32750000Y-94500000I200000J0D01*
G01*
G37*
%TD.AperFunction*%
%TD*%
D15*
%TO.P,J4,5*%
%TO.N,+3V3*%
X39950000Y-85200000D03*
%TO.P,J4,4*%
%TO.N,GND*%
X41200000Y-85200000D03*
%TO.P,J4,3*%
%TO.N,SCL*%
X42450000Y-85200000D03*
%TO.P,J4,2*%
%TO.N,SDA*%
X43700000Y-85200000D03*
%TO.P,J4,1*%
%TO.N,XSHUT_FLEFT*%
%TA.AperFunction,ComponentPad*%
G36*
G01*
X45350000Y-84750000D02*
X45350000Y-85650000D01*
G75*
G02*
X45150000Y-85850000I-200000J0D01*
G01*
X44750000Y-85850000D01*
G75*
G02*
X44550000Y-85650000I0J200000D01*
G01*
X44550000Y-84750000D01*
G75*
G02*
X44750000Y-84550000I200000J0D01*
G01*
X45150000Y-84550000D01*
G75*
G02*
X45350000Y-84750000I0J-200000D01*
G01*
G37*
%TD.AperFunction*%
%TD*%
%TO.P,J2,6*%
%TO.N,+3V3*%
X49850000Y-85200000D03*
%TO.P,J2,5*%
%TO.N,GND*%
X51100000Y-85200000D03*
%TO.P,J2,4*%
%TO.N,SCL*%
X52350000Y-85200000D03*
%TO.P,J2,3*%
%TO.N,SDA*%
X53600000Y-85200000D03*
%TO.P,J2,2*%
%TO.N,XSHUT_FRONT*%
X54850000Y-85200000D03*
%TO.P,J2,1*%
%TO.N,INT_FRONT*%
%TA.AperFunction,ComponentPad*%
G36*
G01*
X56500000Y-84750000D02*
X56500000Y-85650000D01*
G75*
G02*
X56300000Y-85850000I-200000J0D01*
G01*
X55900000Y-85850000D01*
G75*
G02*
X55700000Y-85650000I0J200000D01*
G01*
X55700000Y-84750000D01*
G75*
G02*
X55900000Y-84550000I200000J0D01*
G01*
X56300000Y-84550000D01*
G75*
G02*
X56500000Y-84750000I0J-200000D01*
G01*
G37*
%TD.AperFunction*%
%TD*%
D16*
%TO.P,H4,1*%
%TO.N,GND*%
X32166726Y-81833274D03*
X31000000Y-81350000D03*
X29833274Y-81833274D03*
X29350000Y-83000000D03*
X29833274Y-84166726D03*
X31000000Y-84650000D03*
X32166726Y-84166726D03*
X32650000Y-83000000D03*
D17*
X31000000Y-83000000D03*
%TD*%
D16*
%TO.P,H3,1*%
%TO.N,GND*%
X76166726Y-81833274D03*
X75000000Y-81350000D03*
X73833274Y-81833274D03*
X73350000Y-83000000D03*
X73833274Y-84166726D03*
X75000000Y-84650000D03*
X76166726Y-84166726D03*
X76650000Y-83000000D03*
D17*
X75000000Y-83000000D03*
%TD*%
D16*
%TO.P,H2,1*%
%TO.N,GND*%
X32166726Y-140833274D03*
X31000000Y-140350000D03*
X29833274Y-140833274D03*
X29350000Y-142000000D03*
X29833274Y-143166726D03*
X31000000Y-143650000D03*
X32166726Y-143166726D03*
X32650000Y-142000000D03*
D17*
X31000000Y-142000000D03*
%TD*%
D16*
%TO.P,H1,1*%
%TO.N,GND*%
X76166726Y-140833274D03*
X75000000Y-140350000D03*
X73833274Y-140833274D03*
X73350000Y-142000000D03*
X73833274Y-143166726D03*
X75000000Y-143650000D03*
X76166726Y-143166726D03*
X76650000Y-142000000D03*
D17*
X75000000Y-142000000D03*
%TD*%
D18*
%TO.P,J5,2*%
%TO.N,GND*%
X71000000Y-105300000D03*
%TO.P,J5,1*%
%TO.N,Net-(J3-Pad2)*%
%TA.AperFunction,ComponentPad*%
G36*
G01*
X71625001Y-107900000D02*
X70374999Y-107900000D01*
G75*
G02*
X70125000Y-107650001I0J249999D01*
G01*
X70125000Y-106949999D01*
G75*
G02*
X70374999Y-106700000I249999J0D01*
G01*
X71625001Y-106700000D01*
G75*
G02*
X71875000Y-106949999I0J-249999D01*
G01*
X71875000Y-107650001D01*
G75*
G02*
X71625001Y-107900000I-249999J0D01*
G01*
G37*
%TD.AperFunction*%
%TD*%
%TO.P,J3,2*%
%TO.N,Net-(J3-Pad2)*%
X71000000Y-112600000D03*
%TO.P,J3,1*%
%TO.N,Net-(J3-Pad1)*%
%TA.AperFunction,ComponentPad*%
G36*
G01*
X71625001Y-115200000D02*
X70374999Y-115200000D01*
G75*
G02*
X70125000Y-114950001I0J249999D01*
G01*
X70125000Y-114249999D01*
G75*
G02*
X70374999Y-114000000I249999J0D01*
G01*
X71625001Y-114000000D01*
G75*
G02*
X71875000Y-114249999I0J-249999D01*
G01*
X71875000Y-114950001D01*
G75*
G02*
X71625001Y-115200000I-249999J0D01*
G01*
G37*
%TD.AperFunction*%
%TD*%
D14*
%TO.P,J9,5*%
%TO.N,+3V3*%
X72800000Y-95200000D03*
%TO.P,J9,4*%
%TO.N,GND*%
X72800000Y-96450000D03*
%TO.P,J9,3*%
%TO.N,XSHUT_RIGHT*%
X72800000Y-97700000D03*
%TO.P,J9,2*%
%TO.N,SDA*%
X72800000Y-98950000D03*
%TO.P,J9,1*%
%TO.N,SCL*%
%TA.AperFunction,ComponentPad*%
G36*
G01*
X73250000Y-100600000D02*
X72350000Y-100600000D01*
G75*
G02*
X72150000Y-100400000I0J200000D01*
G01*
X72150000Y-100000000D01*
G75*
G02*
X72350000Y-99800000I200000J0D01*
G01*
X73250000Y-99800000D01*
G75*
G02*
X73450000Y-100000000I0J-200000D01*
G01*
X73450000Y-100400000D01*
G75*
G02*
X73250000Y-100600000I-200000J0D01*
G01*
G37*
%TD.AperFunction*%
%TD*%
D15*
%TO.P,J7,5*%
%TO.N,+3V3*%
X61000000Y-85200000D03*
%TO.P,J7,4*%
%TO.N,GND*%
X62250000Y-85200000D03*
%TO.P,J7,3*%
%TO.N,SCL*%
X63500000Y-85200000D03*
%TO.P,J7,2*%
%TO.N,SDA*%
X64750000Y-85200000D03*
%TO.P,J7,1*%
%TO.N,XSHUT_FRIGHT*%
%TA.AperFunction,ComponentPad*%
G36*
G01*
X66400000Y-84750000D02*
X66400000Y-85650000D01*
G75*
G02*
X66200000Y-85850000I-200000J0D01*
G01*
X65800000Y-85850000D01*
G75*
G02*
X65600000Y-85650000I0J200000D01*
G01*
X65600000Y-84750000D01*
G75*
G02*
X65800000Y-84550000I200000J0D01*
G01*
X66200000Y-84550000D01*
G75*
G02*
X66400000Y-84750000I0J-200000D01*
G01*
G37*
%TD.AperFunction*%
%TD*%
D12*
%TO.P,J6,2*%
%TO.N,SDA*%
X32940000Y-103800000D03*
D13*
%TO.P,J6,1*%
%TO.N,SCL*%
X30400000Y-103800000D03*
%TD*%
D12*
%TO.P,J12,2*%
%TO.N,TEST_LED*%
X53940000Y-122400000D03*
D13*
%TO.P,J12,1*%
%TO.N,GND*%
X51400000Y-122400000D03*
%TD*%
D12*
%TO.P,J11,3*%
%TO.N,+3V3*%
X46600000Y-114600000D03*
%TO.P,J11,2*%
%TO.N,RST*%
X46600000Y-117140000D03*
D13*
%TO.P,J11,1*%
%TO.N,SBWTCK*%
X46600000Y-119680000D03*
%TD*%
D12*
%TO.P,J8,2*%
%TO.N,UNUSED_2*%
X31960000Y-122800000D03*
D13*
%TO.P,J8,1*%
%TO.N,UNUSED_1*%
X34500000Y-122800000D03*
%TD*%
D12*
%TO.P,J10,2*%
%TO.N,UART_TX*%
X41200000Y-107000000D03*
D13*
%TO.P,J10,1*%
%TO.N,UART_RX*%
X41200000Y-109540000D03*
%TD*%
D12*
%TO.P,SW2,2*%
%TO.N,Net-(SW2-Pad2)*%
X75300000Y-121940000D03*
D13*
%TO.P,SW2,1*%
%TO.N,Net-(J3-Pad1)*%
X75300000Y-119400000D03*
%TD*%
D19*
%TO.P,U1,3*%
%TO.N,Net-(C7-Pad1)*%
X43920000Y-102700000D03*
%TO.P,U1,2*%
%TO.N,GND*%
X46460000Y-102700000D03*
%TO.P,U1,1*%
%TO.N,IR_RECEIVER*%
%TA.AperFunction,ComponentPad*%
G36*
G01*
X49900000Y-102050200D02*
X49900000Y-103349800D01*
G75*
G02*
X49649800Y-103600000I-250200J0D01*
G01*
X48350200Y-103600000D01*
G75*
G02*
X48100000Y-103349800I0J250200D01*
G01*
X48100000Y-102050200D01*
G75*
G02*
X48350200Y-101800000I250200J0D01*
G01*
X49649800Y-101800000D01*
G75*
G02*
X49900000Y-102050200I0J-250200D01*
G01*
G37*
%TD.AperFunction*%
%TD*%
D15*
%TO.P,J22,3*%
%TO.N,GND*%
X57700000Y-139800000D03*
%TO.P,J22,2*%
%TO.N,LD_BACK_RIGHT*%
X56450000Y-139800000D03*
%TO.P,J22,1*%
%TO.N,+3V3*%
%TA.AperFunction,ComponentPad*%
G36*
G01*
X54800000Y-140250000D02*
X54800000Y-139350000D01*
G75*
G02*
X55000000Y-139150000I200000J0D01*
G01*
X55400000Y-139150000D01*
G75*
G02*
X55600000Y-139350000I0J-200000D01*
G01*
X55600000Y-140250000D01*
G75*
G02*
X55400000Y-140450000I-200000J0D01*
G01*
X55000000Y-140450000D01*
G75*
G02*
X54800000Y-140250000I0J200000D01*
G01*
G37*
%TD.AperFunction*%
%TD*%
D14*
%TO.P,J21,3*%
%TO.N,GND*%
X72800000Y-88300000D03*
%TO.P,J21,2*%
%TO.N,LD_FRONT_RIGHT*%
X72800000Y-89550000D03*
%TO.P,J21,1*%
%TO.N,+3V3*%
%TA.AperFunction,ComponentPad*%
G36*
G01*
X73250000Y-91200000D02*
X72350000Y-91200000D01*
G75*
G02*
X72150000Y-91000000I0J200000D01*
G01*
X72150000Y-90600000D01*
G75*
G02*
X72350000Y-90400000I200000J0D01*
G01*
X73250000Y-90400000D01*
G75*
G02*
X73450000Y-90600000I0J-200000D01*
G01*
X73450000Y-91000000D01*
G75*
G02*
X73250000Y-91200000I-200000J0D01*
G01*
G37*
%TD.AperFunction*%
%TD*%
D15*
%TO.P,J20,3*%
%TO.N,GND*%
X50700000Y-139800000D03*
%TO.P,J20,2*%
%TO.N,LD_BACK_LEFT*%
X49450000Y-139800000D03*
%TO.P,J20,1*%
%TO.N,+3V3*%
%TA.AperFunction,ComponentPad*%
G36*
G01*
X47800000Y-140250000D02*
X47800000Y-139350000D01*
G75*
G02*
X48000000Y-139150000I200000J0D01*
G01*
X48400000Y-139150000D01*
G75*
G02*
X48600000Y-139350000I0J-200000D01*
G01*
X48600000Y-140250000D01*
G75*
G02*
X48400000Y-140450000I-200000J0D01*
G01*
X48000000Y-140450000D01*
G75*
G02*
X47800000Y-140250000I0J200000D01*
G01*
G37*
%TD.AperFunction*%
%TD*%
D14*
%TO.P,J19,3*%
%TO.N,GND*%
X33200000Y-90700000D03*
%TO.P,J19,2*%
%TO.N,LD_FRONT_LEFT*%
X33200000Y-89450000D03*
%TO.P,J19,1*%
%TO.N,+3V3*%
%TA.AperFunction,ComponentPad*%
G36*
G01*
X32750000Y-87800000D02*
X33650000Y-87800000D01*
G75*
G02*
X33850000Y-88000000I0J-200000D01*
G01*
X33850000Y-88400000D01*
G75*
G02*
X33650000Y-88600000I-200000J0D01*
G01*
X32750000Y-88600000D01*
G75*
G02*
X32550000Y-88400000I0J200000D01*
G01*
X32550000Y-88000000D01*
G75*
G02*
X32750000Y-87800000I200000J0D01*
G01*
G37*
%TD.AperFunction*%
%TD*%
D10*
%TO.P,J15,2*%
%TO.N,MR_A02*%
X74100000Y-133223000D03*
D11*
%TO.P,J15,1*%
%TO.N,MR_A01*%
X74100000Y-135763000D03*
%TD*%
D10*
%TO.P,J14,2*%
%TO.N,MR_B01*%
X74100000Y-126500000D03*
D11*
%TO.P,J14,1*%
%TO.N,MR_B02*%
X74100000Y-129040000D03*
%TD*%
D20*
%TO.N,GND*%
X48700000Y-134900000D03*
X67000000Y-111400000D03*
X60161000Y-113935000D03*
X62741000Y-113996000D03*
X44750000Y-119500000D03*
X62800000Y-124400000D03*
X62000000Y-124400000D03*
X45700000Y-109500000D03*
X44200000Y-109500000D03*
X48200000Y-107800000D03*
X55800000Y-111100000D03*
X55800000Y-112000000D03*
X57320000Y-128530000D03*
X57310000Y-127680000D03*
X68900000Y-113300000D03*
X35650000Y-132700000D03*
X35650000Y-133500000D03*
X35600000Y-128600000D03*
X53100000Y-105800000D03*
X52220000Y-105830000D03*
X52220000Y-104950000D03*
X41700000Y-136100000D03*
X41700000Y-136900000D03*
X57600000Y-118200000D03*
X49600000Y-118200000D03*
X35600000Y-129400000D03*
X53090000Y-104900000D03*
X49900000Y-108300000D03*
X68770000Y-123720000D03*
X67900000Y-124500000D03*
X68760000Y-124540000D03*
X63000000Y-118100000D03*
X67300000Y-108400000D03*
X67300000Y-109300000D03*
X68100000Y-108400000D03*
X62100000Y-118100000D03*
X70320000Y-128590000D03*
X70320000Y-129400000D03*
X70320000Y-132580000D03*
X70300000Y-133380000D03*
X57300000Y-130788000D03*
X57300000Y-131600000D03*
X48700000Y-134100000D03*
X48800000Y-131800000D03*
X48800000Y-132599000D03*
X55000000Y-112900000D03*
X55800000Y-112900000D03*
X55000000Y-112000000D03*
X51370000Y-104950000D03*
X51400000Y-105830000D03*
X53080000Y-104060000D03*
X52220000Y-104080000D03*
X51390000Y-104100000D03*
%TO.N,+3V3*%
X39200000Y-130600000D03*
X43100000Y-130600000D03*
X75279000Y-95221000D03*
X29500000Y-100000000D03*
X33100000Y-85900000D03*
X76000000Y-90800000D03*
X62800000Y-131360000D03*
X65080000Y-133690000D03*
X65110000Y-135830000D03*
X65080000Y-131360000D03*
%TO.N,IR_RECEIVER*%
X39200000Y-104100000D03*
X42800000Y-104100000D03*
%TO.N,LD_FRONT_LEFT*%
X40500000Y-112000000D03*
X35200000Y-112000000D03*
%TO.N,LD_BACK_LEFT*%
X35100000Y-116200000D03*
X33200000Y-118100000D03*
%TO.N,LD_FRONT_RIGHT*%
X43000000Y-100400000D03*
X41400000Y-98700000D03*
%TO.N,LD_BACK_RIGHT*%
X34100000Y-115400000D03*
X31600000Y-115400000D03*
%TO.N,XSHUT_RIGHT*%
X70300000Y-97700000D03*
%TD*%
D21*
%TO.N,+3V3*%
X48300000Y-139900000D02*
X48200000Y-139800000D01*
X75258000Y-95200000D02*
X75279000Y-95221000D01*
X72800000Y-95200000D02*
X75258000Y-95200000D01*
X33200000Y-100000000D02*
X29500000Y-100000000D01*
X33100000Y-88100000D02*
X33200000Y-88200000D01*
X33100000Y-85900000D02*
X33100000Y-88100000D01*
X72800000Y-90800000D02*
X76000000Y-90800000D01*
X65080000Y-135800000D02*
X65110000Y-135830000D01*
X65080000Y-133690000D02*
X65080000Y-135800000D01*
X65080000Y-131360000D02*
X62800000Y-131360000D01*
X43100000Y-130600000D02*
X39200000Y-130600000D01*
D22*
%TO.N,IR_RECEIVER*%
X39200000Y-104100000D02*
X41800000Y-104100000D01*
X39200000Y-104100000D02*
X42800000Y-104100000D01*
%TO.N,LD_FRONT_LEFT*%
X40500000Y-112000000D02*
X35127000Y-112000000D01*
%TO.N,LD_BACK_LEFT*%
X34800000Y-116185933D02*
X34714067Y-116185933D01*
X35100000Y-116200000D02*
X33200000Y-118100000D01*
%TO.N,LD_FRONT_RIGHT*%
X43000000Y-100300000D02*
X41400000Y-98700000D01*
X43000000Y-100400000D02*
X43000000Y-100300000D01*
%TO.N,LD_BACK_RIGHT*%
X31600000Y-115400000D02*
X34100000Y-115400000D01*
%TO.N,XSHUT_RIGHT*%
X72800000Y-97700000D02*
X70300000Y-97700000D01*
%TD*%
%TO.N,GND*%
X75553038Y-80206956D02*
X76085012Y-80367568D01*
X76575652Y-80628444D01*
X77006286Y-80979661D01*
X77360494Y-81407826D01*
X77624795Y-81896641D01*
X77789117Y-82427477D01*
X77847955Y-82987283D01*
X77848001Y-83000530D01*
X77848000Y-141992562D01*
X77793044Y-142553038D01*
X77632432Y-143085012D01*
X77371552Y-143575657D01*
X77020336Y-144006288D01*
X76592177Y-144360493D01*
X76103358Y-144624796D01*
X75572523Y-144789117D01*
X75012717Y-144847955D01*
X74999757Y-144848000D01*
X31007438Y-144848000D01*
X30446962Y-144793044D01*
X29914988Y-144632432D01*
X29424343Y-144371552D01*
X28993712Y-144020336D01*
X28639507Y-143592177D01*
X28541579Y-143411062D01*
X33597000Y-143411062D01*
X33597000Y-143588938D01*
X33631702Y-143763395D01*
X33699772Y-143927731D01*
X33798594Y-144075629D01*
X33924371Y-144201406D01*
X34072269Y-144300228D01*
X34236605Y-144368298D01*
X34411062Y-144403000D01*
X34588938Y-144403000D01*
X34763395Y-144368298D01*
X34927731Y-144300228D01*
X35075629Y-144201406D01*
X35201406Y-144075629D01*
X35300228Y-143927731D01*
X35368298Y-143763395D01*
X35403000Y-143588938D01*
X35403000Y-143411062D01*
X35368298Y-143236605D01*
X35300228Y-143072269D01*
X35201406Y-142924371D01*
X35075629Y-142798594D01*
X34927731Y-142699772D01*
X34763395Y-142631702D01*
X34588938Y-142597000D01*
X34411062Y-142597000D01*
X34236605Y-142631702D01*
X34072269Y-142699772D01*
X33924371Y-142798594D01*
X33798594Y-142924371D01*
X33699772Y-143072269D01*
X33631702Y-143236605D01*
X33597000Y-143411062D01*
X28541579Y-143411062D01*
X28375204Y-143103358D01*
X28210883Y-142572523D01*
X28152045Y-142012717D01*
X28152000Y-141999757D01*
X28152000Y-139350000D01*
X47471418Y-139350000D01*
X47471418Y-140250000D01*
X47481575Y-140353121D01*
X47511654Y-140452280D01*
X47560500Y-140543664D01*
X47626236Y-140623764D01*
X47706336Y-140689500D01*
X47797720Y-140738346D01*
X47896879Y-140768425D01*
X48000000Y-140778582D01*
X48400000Y-140778582D01*
X48503121Y-140768425D01*
X48602280Y-140738346D01*
X48693664Y-140689500D01*
X48773764Y-140623764D01*
X48839500Y-140543664D01*
X48869145Y-140488202D01*
X48933447Y-140566554D01*
X49044148Y-140657403D01*
X49170444Y-140724910D01*
X49307484Y-140766480D01*
X49450000Y-140780517D01*
X49592517Y-140766480D01*
X49729557Y-140724910D01*
X49847697Y-140661762D01*
X49850967Y-140667336D01*
X49987717Y-140821112D01*
X50151840Y-140945255D01*
X50337028Y-141034994D01*
X50413877Y-141044666D01*
X50573000Y-140916998D01*
X50573000Y-139927000D01*
X50827000Y-139927000D01*
X50827000Y-140916998D01*
X50986123Y-141044666D01*
X51062972Y-141034994D01*
X51248160Y-140945255D01*
X51412283Y-140821112D01*
X51549033Y-140667336D01*
X51653155Y-140489836D01*
X51720648Y-140295433D01*
X51748918Y-140091599D01*
X51583762Y-139927000D01*
X50827000Y-139927000D01*
X50573000Y-139927000D01*
X50553000Y-139927000D01*
X50553000Y-139673000D01*
X50573000Y-139673000D01*
X50573000Y-138683002D01*
X50827000Y-138683002D01*
X50827000Y-139673000D01*
X51583762Y-139673000D01*
X51748918Y-139508401D01*
X51726950Y-139350000D01*
X54471418Y-139350000D01*
X54471418Y-140250000D01*
X54481575Y-140353121D01*
X54511654Y-140452280D01*
X54560500Y-140543664D01*
X54626236Y-140623764D01*
X54706336Y-140689500D01*
X54797720Y-140738346D01*
X54896879Y-140768425D01*
X55000000Y-140778582D01*
X55400000Y-140778582D01*
X55503121Y-140768425D01*
X55602280Y-140738346D01*
X55693664Y-140689500D01*
X55773764Y-140623764D01*
X55839500Y-140543664D01*
X55869145Y-140488202D01*
X55933447Y-140566554D01*
X56044148Y-140657403D01*
X56170444Y-140724910D01*
X56307484Y-140766480D01*
X56450000Y-140780517D01*
X56592517Y-140766480D01*
X56729557Y-140724910D01*
X56847697Y-140661762D01*
X56850967Y-140667336D01*
X56987717Y-140821112D01*
X57151840Y-140945255D01*
X57337028Y-141034994D01*
X57413877Y-141044666D01*
X57573000Y-140916998D01*
X57573000Y-139927000D01*
X57827000Y-139927000D01*
X57827000Y-140916998D01*
X57986123Y-141044666D01*
X58062972Y-141034994D01*
X58248160Y-140945255D01*
X58412283Y-140821112D01*
X58549033Y-140667336D01*
X58653155Y-140489836D01*
X58720648Y-140295433D01*
X58748918Y-140091599D01*
X58583762Y-139927000D01*
X57827000Y-139927000D01*
X57573000Y-139927000D01*
X57553000Y-139927000D01*
X57553000Y-139673000D01*
X57573000Y-139673000D01*
X57573000Y-138683002D01*
X57827000Y-138683002D01*
X57827000Y-139673000D01*
X58583762Y-139673000D01*
X58748918Y-139508401D01*
X58720648Y-139304567D01*
X58653155Y-139110164D01*
X58549033Y-138932664D01*
X58412283Y-138778888D01*
X58248160Y-138654745D01*
X58062972Y-138565006D01*
X57986123Y-138555334D01*
X57827000Y-138683002D01*
X57573000Y-138683002D01*
X57413877Y-138555334D01*
X57337028Y-138565006D01*
X57151840Y-138654745D01*
X56987717Y-138778888D01*
X56850967Y-138932664D01*
X56847697Y-138938238D01*
X56729556Y-138875090D01*
X56592516Y-138833520D01*
X56450000Y-138819483D01*
X56307483Y-138833520D01*
X56170443Y-138875090D01*
X56044147Y-138942597D01*
X55933446Y-139033447D01*
X55869145Y-139111798D01*
X55839500Y-139056336D01*
X55773764Y-138976236D01*
X55693664Y-138910500D01*
X55602280Y-138861654D01*
X55503121Y-138831575D01*
X55400000Y-138821418D01*
X55000000Y-138821418D01*
X54896879Y-138831575D01*
X54797720Y-138861654D01*
X54706336Y-138910500D01*
X54626236Y-138976236D01*
X54560500Y-139056336D01*
X54511654Y-139147720D01*
X54481575Y-139246879D01*
X54471418Y-139350000D01*
X51726950Y-139350000D01*
X51720648Y-139304567D01*
X51653155Y-139110164D01*
X51549033Y-138932664D01*
X51412283Y-138778888D01*
X51248160Y-138654745D01*
X51062972Y-138565006D01*
X50986123Y-138555334D01*
X50827000Y-138683002D01*
X50573000Y-138683002D01*
X50413877Y-138555334D01*
X50337028Y-138565006D01*
X50151840Y-138654745D01*
X49987717Y-138778888D01*
X49850967Y-138932664D01*
X49847697Y-138938238D01*
X49729556Y-138875090D01*
X49592516Y-138833520D01*
X49450000Y-138819483D01*
X49307483Y-138833520D01*
X49170443Y-138875090D01*
X49044147Y-138942597D01*
X48933446Y-139033447D01*
X48869145Y-139111798D01*
X48839500Y-139056336D01*
X48773764Y-138976236D01*
X48693664Y-138910500D01*
X48602280Y-138861654D01*
X48503121Y-138831575D01*
X48400000Y-138821418D01*
X48000000Y-138821418D01*
X47896879Y-138831575D01*
X47797720Y-138861654D01*
X47706336Y-138910500D01*
X47626236Y-138976236D01*
X47560500Y-139056336D01*
X47511654Y-139147720D01*
X47481575Y-139246879D01*
X47471418Y-139350000D01*
X28152000Y-139350000D01*
X28152000Y-132550000D01*
X30521418Y-132550000D01*
X30521418Y-134650000D01*
X30527732Y-134714103D01*
X30546430Y-134775743D01*
X30576794Y-134832550D01*
X30617657Y-134882343D01*
X30667450Y-134923206D01*
X30724257Y-134953570D01*
X30785897Y-134972268D01*
X30850000Y-134978582D01*
X31159650Y-134978582D01*
X31022213Y-135070414D01*
X30830414Y-135262213D01*
X30679718Y-135487746D01*
X30575917Y-135738344D01*
X30523000Y-136004377D01*
X30523000Y-136275623D01*
X30575917Y-136541656D01*
X30679718Y-136792254D01*
X30830414Y-137017787D01*
X31022213Y-137209586D01*
X31247746Y-137360282D01*
X31498344Y-137464083D01*
X31764377Y-137517000D01*
X32035623Y-137517000D01*
X32301656Y-137464083D01*
X32552254Y-137360282D01*
X32777787Y-137209586D01*
X32969586Y-137017787D01*
X33120282Y-136792254D01*
X33224083Y-136541656D01*
X33277000Y-136275623D01*
X33277000Y-136004377D01*
X33224083Y-135738344D01*
X33120282Y-135487746D01*
X32969586Y-135262213D01*
X32777787Y-135070414D01*
X32640350Y-134978582D01*
X32950000Y-134978582D01*
X33014103Y-134972268D01*
X33075743Y-134953570D01*
X33132550Y-134923206D01*
X33182343Y-134882343D01*
X33223206Y-134832550D01*
X33253570Y-134775743D01*
X33272268Y-134714103D01*
X33278582Y-134650000D01*
X33278582Y-133618397D01*
X64353000Y-133618397D01*
X64353000Y-133761603D01*
X64380938Y-133902058D01*
X64435741Y-134034364D01*
X64499000Y-134129039D01*
X64499001Y-135435859D01*
X64465741Y-135485636D01*
X64410938Y-135617942D01*
X64383000Y-135758397D01*
X64383000Y-135901603D01*
X64410938Y-136042058D01*
X64465741Y-136174364D01*
X64545302Y-136293436D01*
X64646564Y-136394698D01*
X64765636Y-136474259D01*
X64897942Y-136529062D01*
X65038397Y-136557000D01*
X65181603Y-136557000D01*
X65322058Y-136529062D01*
X65454364Y-136474259D01*
X65573436Y-136394698D01*
X65674698Y-136293436D01*
X65754259Y-136174364D01*
X65809062Y-136042058D01*
X65837000Y-135901603D01*
X65837000Y-135758397D01*
X65809062Y-135617942D01*
X65754259Y-135485636D01*
X65674698Y-135366564D01*
X65661000Y-135352866D01*
X65661000Y-134713000D01*
X72721418Y-134713000D01*
X72721418Y-136813000D01*
X72727732Y-136877103D01*
X72746430Y-136938743D01*
X72776794Y-136995550D01*
X72817657Y-137045343D01*
X72867450Y-137086206D01*
X72924257Y-137116570D01*
X72985897Y-137135268D01*
X73050000Y-137141582D01*
X75150000Y-137141582D01*
X75214103Y-137135268D01*
X75275743Y-137116570D01*
X75332550Y-137086206D01*
X75382343Y-137045343D01*
X75423206Y-136995550D01*
X75453570Y-136938743D01*
X75472268Y-136877103D01*
X75478582Y-136813000D01*
X75478582Y-134713000D01*
X75472268Y-134648897D01*
X75453570Y-134587257D01*
X75423206Y-134530450D01*
X75382343Y-134480657D01*
X75332550Y-134439794D01*
X75275743Y-134409430D01*
X75214103Y-134390732D01*
X75150000Y-134384418D01*
X74840350Y-134384418D01*
X74977787Y-134292586D01*
X75169586Y-134100787D01*
X75320282Y-133875254D01*
X75424083Y-133624656D01*
X75477000Y-133358623D01*
X75477000Y-133087377D01*
X75424083Y-132821344D01*
X75320282Y-132570746D01*
X75169586Y-132345213D01*
X74977787Y-132153414D01*
X74752254Y-132002718D01*
X74501656Y-131898917D01*
X74235623Y-131846000D01*
X73964377Y-131846000D01*
X73698344Y-131898917D01*
X73447746Y-132002718D01*
X73222213Y-132153414D01*
X73030414Y-132345213D01*
X72879718Y-132570746D01*
X72775917Y-132821344D01*
X72723000Y-133087377D01*
X72723000Y-133358623D01*
X72775917Y-133624656D01*
X72879718Y-133875254D01*
X73030414Y-134100787D01*
X73222213Y-134292586D01*
X73359650Y-134384418D01*
X73050000Y-134384418D01*
X72985897Y-134390732D01*
X72924257Y-134409430D01*
X72867450Y-134439794D01*
X72817657Y-134480657D01*
X72776794Y-134530450D01*
X72746430Y-134587257D01*
X72727732Y-134648897D01*
X72721418Y-134713000D01*
X65661000Y-134713000D01*
X65661000Y-134129038D01*
X65724259Y-134034364D01*
X65779062Y-133902058D01*
X65807000Y-133761603D01*
X65807000Y-133618397D01*
X65779062Y-133477942D01*
X65724259Y-133345636D01*
X65644698Y-133226564D01*
X65543436Y-133125302D01*
X65424364Y-133045741D01*
X65292058Y-132990938D01*
X65151603Y-132963000D01*
X65008397Y-132963000D01*
X64867942Y-132990938D01*
X64735636Y-133045741D01*
X64616564Y-133125302D01*
X64515302Y-133226564D01*
X64435741Y-133345636D01*
X64380938Y-133477942D01*
X64353000Y-133618397D01*
X33278582Y-133618397D01*
X33278582Y-132550000D01*
X33272268Y-132485897D01*
X33253570Y-132424257D01*
X33223206Y-132367450D01*
X33182343Y-132317657D01*
X33132550Y-132276794D01*
X33075743Y-132246430D01*
X33014103Y-132227732D01*
X32950000Y-132221418D01*
X30850000Y-132221418D01*
X30785897Y-132227732D01*
X30724257Y-132246430D01*
X30667450Y-132276794D01*
X30617657Y-132317657D01*
X30576794Y-132367450D01*
X30546430Y-132424257D01*
X30527732Y-132485897D01*
X30521418Y-132550000D01*
X28152000Y-132550000D01*
X28152000Y-125850000D01*
X30521418Y-125850000D01*
X30521418Y-127950000D01*
X30527732Y-128014103D01*
X30546430Y-128075743D01*
X30576794Y-128132550D01*
X30617657Y-128182343D01*
X30667450Y-128223206D01*
X30724257Y-128253570D01*
X30785897Y-128272268D01*
X30850000Y-128278582D01*
X31159650Y-128278582D01*
X31022213Y-128370414D01*
X30830414Y-128562213D01*
X30679718Y-128787746D01*
X30575917Y-129038344D01*
X30523000Y-129304377D01*
X30523000Y-129575623D01*
X30575917Y-129841656D01*
X30679718Y-130092254D01*
X30830414Y-130317787D01*
X31022213Y-130509586D01*
X31247746Y-130660282D01*
X31498344Y-130764083D01*
X31764377Y-130817000D01*
X32035623Y-130817000D01*
X32301656Y-130764083D01*
X32552254Y-130660282D01*
X32749634Y-130528397D01*
X38473000Y-130528397D01*
X38473000Y-130671603D01*
X38500938Y-130812058D01*
X38555741Y-130944364D01*
X38635302Y-131063436D01*
X38736564Y-131164698D01*
X38855636Y-131244259D01*
X38987942Y-131299062D01*
X39128397Y-131327000D01*
X39271603Y-131327000D01*
X39412058Y-131299062D01*
X39544364Y-131244259D01*
X39639038Y-131181000D01*
X42660962Y-131181000D01*
X42755636Y-131244259D01*
X42887942Y-131299062D01*
X43028397Y-131327000D01*
X43171603Y-131327000D01*
X43312058Y-131299062D01*
X43337805Y-131288397D01*
X62073000Y-131288397D01*
X62073000Y-131431603D01*
X62100938Y-131572058D01*
X62155741Y-131704364D01*
X62235302Y-131823436D01*
X62336564Y-131924698D01*
X62455636Y-132004259D01*
X62587942Y-132059062D01*
X62728397Y-132087000D01*
X62871603Y-132087000D01*
X63012058Y-132059062D01*
X63144364Y-132004259D01*
X63239038Y-131941000D01*
X64640962Y-131941000D01*
X64735636Y-132004259D01*
X64867942Y-132059062D01*
X65008397Y-132087000D01*
X65151603Y-132087000D01*
X65292058Y-132059062D01*
X65424364Y-132004259D01*
X65543436Y-131924698D01*
X65644698Y-131823436D01*
X65724259Y-131704364D01*
X65779062Y-131572058D01*
X65807000Y-131431603D01*
X65807000Y-131288397D01*
X65779062Y-131147942D01*
X65724259Y-131015636D01*
X65644698Y-130896564D01*
X65543436Y-130795302D01*
X65424364Y-130715741D01*
X65292058Y-130660938D01*
X65151603Y-130633000D01*
X65008397Y-130633000D01*
X64867942Y-130660938D01*
X64735636Y-130715741D01*
X64640962Y-130779000D01*
X63239038Y-130779000D01*
X63144364Y-130715741D01*
X63012058Y-130660938D01*
X62871603Y-130633000D01*
X62728397Y-130633000D01*
X62587942Y-130660938D01*
X62455636Y-130715741D01*
X62336564Y-130795302D01*
X62235302Y-130896564D01*
X62155741Y-131015636D01*
X62100938Y-131147942D01*
X62073000Y-131288397D01*
X43337805Y-131288397D01*
X43444364Y-131244259D01*
X43563436Y-131164698D01*
X43664698Y-131063436D01*
X43744259Y-130944364D01*
X43799062Y-130812058D01*
X43827000Y-130671603D01*
X43827000Y-130528397D01*
X43799062Y-130387942D01*
X43744259Y-130255636D01*
X43664698Y-130136564D01*
X43563436Y-130035302D01*
X43444364Y-129955741D01*
X43312058Y-129900938D01*
X43171603Y-129873000D01*
X43028397Y-129873000D01*
X42887942Y-129900938D01*
X42755636Y-129955741D01*
X42660962Y-130019000D01*
X39639038Y-130019000D01*
X39544364Y-129955741D01*
X39412058Y-129900938D01*
X39271603Y-129873000D01*
X39128397Y-129873000D01*
X38987942Y-129900938D01*
X38855636Y-129955741D01*
X38736564Y-130035302D01*
X38635302Y-130136564D01*
X38555741Y-130255636D01*
X38500938Y-130387942D01*
X38473000Y-130528397D01*
X32749634Y-130528397D01*
X32777787Y-130509586D01*
X32969586Y-130317787D01*
X33120282Y-130092254D01*
X33224083Y-129841656D01*
X33277000Y-129575623D01*
X33277000Y-129304377D01*
X33224083Y-129038344D01*
X33120282Y-128787746D01*
X32969586Y-128562213D01*
X32777787Y-128370414D01*
X32640350Y-128278582D01*
X32950000Y-128278582D01*
X33014103Y-128272268D01*
X33075743Y-128253570D01*
X33132550Y-128223206D01*
X33182343Y-128182343D01*
X33223206Y-128132550D01*
X33253570Y-128075743D01*
X33272268Y-128014103D01*
X33274642Y-127990000D01*
X72721418Y-127990000D01*
X72721418Y-130090000D01*
X72727732Y-130154103D01*
X72746430Y-130215743D01*
X72776794Y-130272550D01*
X72817657Y-130322343D01*
X72867450Y-130363206D01*
X72924257Y-130393570D01*
X72985897Y-130412268D01*
X73050000Y-130418582D01*
X75150000Y-130418582D01*
X75214103Y-130412268D01*
X75275743Y-130393570D01*
X75332550Y-130363206D01*
X75382343Y-130322343D01*
X75423206Y-130272550D01*
X75453570Y-130215743D01*
X75472268Y-130154103D01*
X75478582Y-130090000D01*
X75478582Y-127990000D01*
X75472268Y-127925897D01*
X75453570Y-127864257D01*
X75423206Y-127807450D01*
X75382343Y-127757657D01*
X75332550Y-127716794D01*
X75275743Y-127686430D01*
X75214103Y-127667732D01*
X75150000Y-127661418D01*
X74840350Y-127661418D01*
X74977787Y-127569586D01*
X75169586Y-127377787D01*
X75320282Y-127152254D01*
X75424083Y-126901656D01*
X75477000Y-126635623D01*
X75477000Y-126364377D01*
X75424083Y-126098344D01*
X75320282Y-125847746D01*
X75169586Y-125622213D01*
X74977787Y-125430414D01*
X74752254Y-125279718D01*
X74501656Y-125175917D01*
X74235623Y-125123000D01*
X73964377Y-125123000D01*
X73698344Y-125175917D01*
X73447746Y-125279718D01*
X73222213Y-125430414D01*
X73030414Y-125622213D01*
X72879718Y-125847746D01*
X72775917Y-126098344D01*
X72723000Y-126364377D01*
X72723000Y-126635623D01*
X72775917Y-126901656D01*
X72879718Y-127152254D01*
X73030414Y-127377787D01*
X73222213Y-127569586D01*
X73359650Y-127661418D01*
X73050000Y-127661418D01*
X72985897Y-127667732D01*
X72924257Y-127686430D01*
X72867450Y-127716794D01*
X72817657Y-127757657D01*
X72776794Y-127807450D01*
X72746430Y-127864257D01*
X72727732Y-127925897D01*
X72721418Y-127990000D01*
X33274642Y-127990000D01*
X33278582Y-127950000D01*
X33278582Y-125850000D01*
X33272268Y-125785897D01*
X33253570Y-125724257D01*
X33223206Y-125667450D01*
X33182343Y-125617657D01*
X33132550Y-125576794D01*
X33075743Y-125546430D01*
X33014103Y-125527732D01*
X32950000Y-125521418D01*
X30850000Y-125521418D01*
X30785897Y-125527732D01*
X30724257Y-125546430D01*
X30667450Y-125576794D01*
X30617657Y-125617657D01*
X30576794Y-125667450D01*
X30546430Y-125724257D01*
X30527732Y-125785897D01*
X30521418Y-125850000D01*
X28152000Y-125850000D01*
X28152000Y-122684076D01*
X30783000Y-122684076D01*
X30783000Y-122915924D01*
X30828231Y-123143318D01*
X30916956Y-123357519D01*
X31045764Y-123550294D01*
X31209706Y-123714236D01*
X31402481Y-123843044D01*
X31616682Y-123931769D01*
X31844076Y-123977000D01*
X32075924Y-123977000D01*
X32303318Y-123931769D01*
X32517519Y-123843044D01*
X32710294Y-123714236D01*
X32874236Y-123550294D01*
X33003044Y-123357519D01*
X33091769Y-123143318D01*
X33137000Y-122915924D01*
X33137000Y-122684076D01*
X33091769Y-122456682D01*
X33003044Y-122242481D01*
X32874236Y-122049706D01*
X32774530Y-121950000D01*
X33321418Y-121950000D01*
X33321418Y-123650000D01*
X33327732Y-123714103D01*
X33346430Y-123775743D01*
X33376794Y-123832550D01*
X33417657Y-123882343D01*
X33467450Y-123923206D01*
X33524257Y-123953570D01*
X33585897Y-123972268D01*
X33650000Y-123978582D01*
X35350000Y-123978582D01*
X35414103Y-123972268D01*
X35475743Y-123953570D01*
X35532550Y-123923206D01*
X35582343Y-123882343D01*
X35623206Y-123832550D01*
X35653570Y-123775743D01*
X35672268Y-123714103D01*
X35678582Y-123650000D01*
X35678582Y-123250000D01*
X49911928Y-123250000D01*
X49924188Y-123374482D01*
X49960498Y-123494180D01*
X50019463Y-123604494D01*
X50098815Y-123701185D01*
X50195506Y-123780537D01*
X50305820Y-123839502D01*
X50425518Y-123875812D01*
X50550000Y-123888072D01*
X51114250Y-123885000D01*
X51273000Y-123726250D01*
X51273000Y-122527000D01*
X50073750Y-122527000D01*
X49915000Y-122685750D01*
X49911928Y-123250000D01*
X35678582Y-123250000D01*
X35678582Y-121950000D01*
X35672268Y-121885897D01*
X35653570Y-121824257D01*
X35623206Y-121767450D01*
X35582343Y-121717657D01*
X35532550Y-121676794D01*
X35475743Y-121646430D01*
X35414103Y-121627732D01*
X35350000Y-121621418D01*
X33650000Y-121621418D01*
X33585897Y-121627732D01*
X33524257Y-121646430D01*
X33467450Y-121676794D01*
X33417657Y-121717657D01*
X33376794Y-121767450D01*
X33346430Y-121824257D01*
X33327732Y-121885897D01*
X33321418Y-121950000D01*
X32774530Y-121950000D01*
X32710294Y-121885764D01*
X32517519Y-121756956D01*
X32303318Y-121668231D01*
X32075924Y-121623000D01*
X31844076Y-121623000D01*
X31616682Y-121668231D01*
X31402481Y-121756956D01*
X31209706Y-121885764D01*
X31045764Y-122049706D01*
X30916956Y-122242481D01*
X30828231Y-122456682D01*
X30783000Y-122684076D01*
X28152000Y-122684076D01*
X28152000Y-121550000D01*
X49911928Y-121550000D01*
X49915000Y-122114250D01*
X50073750Y-122273000D01*
X51273000Y-122273000D01*
X51273000Y-121073750D01*
X51527000Y-121073750D01*
X51527000Y-122273000D01*
X51547000Y-122273000D01*
X51547000Y-122527000D01*
X51527000Y-122527000D01*
X51527000Y-123726250D01*
X51685750Y-123885000D01*
X52250000Y-123888072D01*
X52374482Y-123875812D01*
X52494180Y-123839502D01*
X52604494Y-123780537D01*
X52701185Y-123701185D01*
X52780537Y-123604494D01*
X52839502Y-123494180D01*
X52875812Y-123374482D01*
X52888072Y-123250000D01*
X52886340Y-122931890D01*
X52896956Y-122957519D01*
X53025764Y-123150294D01*
X53189706Y-123314236D01*
X53382481Y-123443044D01*
X53596682Y-123531769D01*
X53824076Y-123577000D01*
X54055924Y-123577000D01*
X54283318Y-123531769D01*
X54497519Y-123443044D01*
X54690294Y-123314236D01*
X54854236Y-123150294D01*
X54983044Y-122957519D01*
X55071769Y-122743318D01*
X55117000Y-122515924D01*
X55117000Y-122284076D01*
X55071769Y-122056682D01*
X54983044Y-121842481D01*
X54970747Y-121824076D01*
X74123000Y-121824076D01*
X74123000Y-122055924D01*
X74168231Y-122283318D01*
X74256956Y-122497519D01*
X74385764Y-122690294D01*
X74549706Y-122854236D01*
X74742481Y-122983044D01*
X74956682Y-123071769D01*
X75184076Y-123117000D01*
X75415924Y-123117000D01*
X75643318Y-123071769D01*
X75857519Y-122983044D01*
X76050294Y-122854236D01*
X76214236Y-122690294D01*
X76343044Y-122497519D01*
X76431769Y-122283318D01*
X76477000Y-122055924D01*
X76477000Y-121824076D01*
X76431769Y-121596682D01*
X76343044Y-121382481D01*
X76214236Y-121189706D01*
X76050294Y-121025764D01*
X75857519Y-120896956D01*
X75643318Y-120808231D01*
X75415924Y-120763000D01*
X75184076Y-120763000D01*
X74956682Y-120808231D01*
X74742481Y-120896956D01*
X74549706Y-121025764D01*
X74385764Y-121189706D01*
X74256956Y-121382481D01*
X74168231Y-121596682D01*
X74123000Y-121824076D01*
X54970747Y-121824076D01*
X54854236Y-121649706D01*
X54690294Y-121485764D01*
X54497519Y-121356956D01*
X54283318Y-121268231D01*
X54055924Y-121223000D01*
X53824076Y-121223000D01*
X53596682Y-121268231D01*
X53382481Y-121356956D01*
X53189706Y-121485764D01*
X53025764Y-121649706D01*
X52896956Y-121842481D01*
X52886340Y-121868110D01*
X52888072Y-121550000D01*
X52875812Y-121425518D01*
X52839502Y-121305820D01*
X52780537Y-121195506D01*
X52701185Y-121098815D01*
X52604494Y-121019463D01*
X52494180Y-120960498D01*
X52374482Y-120924188D01*
X52250000Y-120911928D01*
X51685750Y-120915000D01*
X51527000Y-121073750D01*
X51273000Y-121073750D01*
X51114250Y-120915000D01*
X50550000Y-120911928D01*
X50425518Y-120924188D01*
X50305820Y-120960498D01*
X50195506Y-121019463D01*
X50098815Y-121098815D01*
X50019463Y-121195506D01*
X49960498Y-121305820D01*
X49924188Y-121425518D01*
X49911928Y-121550000D01*
X28152000Y-121550000D01*
X28152000Y-118830000D01*
X45421418Y-118830000D01*
X45421418Y-120530000D01*
X45427732Y-120594103D01*
X45446430Y-120655743D01*
X45476794Y-120712550D01*
X45517657Y-120762343D01*
X45567450Y-120803206D01*
X45624257Y-120833570D01*
X45685897Y-120852268D01*
X45750000Y-120858582D01*
X47450000Y-120858582D01*
X47514103Y-120852268D01*
X47575743Y-120833570D01*
X47632550Y-120803206D01*
X47682343Y-120762343D01*
X47723206Y-120712550D01*
X47753570Y-120655743D01*
X47772268Y-120594103D01*
X47778582Y-120530000D01*
X47778582Y-118830000D01*
X47772268Y-118765897D01*
X47753570Y-118704257D01*
X47723206Y-118647450D01*
X47682343Y-118597657D01*
X47632550Y-118556794D01*
X47619840Y-118550000D01*
X74121418Y-118550000D01*
X74121418Y-120250000D01*
X74127732Y-120314103D01*
X74146430Y-120375743D01*
X74176794Y-120432550D01*
X74217657Y-120482343D01*
X74267450Y-120523206D01*
X74324257Y-120553570D01*
X74385897Y-120572268D01*
X74450000Y-120578582D01*
X76150000Y-120578582D01*
X76214103Y-120572268D01*
X76275743Y-120553570D01*
X76332550Y-120523206D01*
X76382343Y-120482343D01*
X76423206Y-120432550D01*
X76453570Y-120375743D01*
X76472268Y-120314103D01*
X76478582Y-120250000D01*
X76478582Y-118550000D01*
X76472268Y-118485897D01*
X76453570Y-118424257D01*
X76423206Y-118367450D01*
X76382343Y-118317657D01*
X76332550Y-118276794D01*
X76275743Y-118246430D01*
X76214103Y-118227732D01*
X76150000Y-118221418D01*
X74450000Y-118221418D01*
X74385897Y-118227732D01*
X74324257Y-118246430D01*
X74267450Y-118276794D01*
X74217657Y-118317657D01*
X74176794Y-118367450D01*
X74146430Y-118424257D01*
X74127732Y-118485897D01*
X74121418Y-118550000D01*
X47619840Y-118550000D01*
X47575743Y-118526430D01*
X47514103Y-118507732D01*
X47450000Y-118501418D01*
X45750000Y-118501418D01*
X45685897Y-118507732D01*
X45624257Y-118526430D01*
X45567450Y-118556794D01*
X45517657Y-118597657D01*
X45476794Y-118647450D01*
X45446430Y-118704257D01*
X45427732Y-118765897D01*
X45421418Y-118830000D01*
X28152000Y-118830000D01*
X28152000Y-115328397D01*
X30873000Y-115328397D01*
X30873000Y-115471603D01*
X30900938Y-115612058D01*
X30955741Y-115744364D01*
X31035302Y-115863436D01*
X31136564Y-115964698D01*
X31255636Y-116044259D01*
X31387942Y-116099062D01*
X31528397Y-116127000D01*
X31671603Y-116127000D01*
X31812058Y-116099062D01*
X31944364Y-116044259D01*
X32063436Y-115964698D01*
X32164698Y-115863436D01*
X32171003Y-115854000D01*
X33528997Y-115854000D01*
X33535302Y-115863436D01*
X33636564Y-115964698D01*
X33755636Y-116044259D01*
X33887942Y-116099062D01*
X34028397Y-116127000D01*
X34171603Y-116127000D01*
X34265516Y-116108320D01*
X34257871Y-116185933D01*
X34266637Y-116274932D01*
X34292597Y-116360512D01*
X34294282Y-116363665D01*
X33282734Y-117375214D01*
X33271603Y-117373000D01*
X33128397Y-117373000D01*
X32987942Y-117400938D01*
X32855636Y-117455741D01*
X32736564Y-117535302D01*
X32635302Y-117636564D01*
X32555741Y-117755636D01*
X32500938Y-117887942D01*
X32473000Y-118028397D01*
X32473000Y-118171603D01*
X32500938Y-118312058D01*
X32555741Y-118444364D01*
X32635302Y-118563436D01*
X32736564Y-118664698D01*
X32855636Y-118744259D01*
X32987942Y-118799062D01*
X33128397Y-118827000D01*
X33271603Y-118827000D01*
X33412058Y-118799062D01*
X33544364Y-118744259D01*
X33663436Y-118664698D01*
X33764698Y-118563436D01*
X33844259Y-118444364D01*
X33899062Y-118312058D01*
X33927000Y-118171603D01*
X33927000Y-118028397D01*
X33924786Y-118017266D01*
X34917976Y-117024076D01*
X45423000Y-117024076D01*
X45423000Y-117255924D01*
X45468231Y-117483318D01*
X45556956Y-117697519D01*
X45685764Y-117890294D01*
X45849706Y-118054236D01*
X46042481Y-118183044D01*
X46256682Y-118271769D01*
X46484076Y-118317000D01*
X46715924Y-118317000D01*
X46943318Y-118271769D01*
X47157519Y-118183044D01*
X47350294Y-118054236D01*
X47514236Y-117890294D01*
X47643044Y-117697519D01*
X47731769Y-117483318D01*
X47777000Y-117255924D01*
X47777000Y-117024076D01*
X47731769Y-116796682D01*
X47643044Y-116582481D01*
X47514236Y-116389706D01*
X47350294Y-116225764D01*
X47157519Y-116096956D01*
X46943318Y-116008231D01*
X46715924Y-115963000D01*
X46484076Y-115963000D01*
X46256682Y-116008231D01*
X46042481Y-116096956D01*
X45849706Y-116225764D01*
X45685764Y-116389706D01*
X45556956Y-116582481D01*
X45468231Y-116796682D01*
X45423000Y-117024076D01*
X34917976Y-117024076D01*
X35017267Y-116924786D01*
X35028397Y-116927000D01*
X35171603Y-116927000D01*
X35312058Y-116899062D01*
X35444364Y-116844259D01*
X35563436Y-116764698D01*
X35664698Y-116663436D01*
X35744259Y-116544364D01*
X35799062Y-116412058D01*
X35827000Y-116271603D01*
X35827000Y-116128397D01*
X35799062Y-115987942D01*
X35744259Y-115855636D01*
X35664698Y-115736564D01*
X35563436Y-115635302D01*
X35444364Y-115555741D01*
X35312058Y-115500938D01*
X35171603Y-115473000D01*
X35028397Y-115473000D01*
X34887942Y-115500938D01*
X34815169Y-115531082D01*
X34827000Y-115471603D01*
X34827000Y-115328397D01*
X34799062Y-115187942D01*
X34744259Y-115055636D01*
X34664698Y-114936564D01*
X34563436Y-114835302D01*
X34444364Y-114755741D01*
X34312058Y-114700938D01*
X34171603Y-114673000D01*
X34028397Y-114673000D01*
X33887942Y-114700938D01*
X33755636Y-114755741D01*
X33636564Y-114835302D01*
X33535302Y-114936564D01*
X33528997Y-114946000D01*
X32171003Y-114946000D01*
X32164698Y-114936564D01*
X32063436Y-114835302D01*
X31944364Y-114755741D01*
X31812058Y-114700938D01*
X31671603Y-114673000D01*
X31528397Y-114673000D01*
X31387942Y-114700938D01*
X31255636Y-114755741D01*
X31136564Y-114835302D01*
X31035302Y-114936564D01*
X30955741Y-115055636D01*
X30900938Y-115187942D01*
X30873000Y-115328397D01*
X28152000Y-115328397D01*
X28152000Y-114484076D01*
X45423000Y-114484076D01*
X45423000Y-114715924D01*
X45468231Y-114943318D01*
X45556956Y-115157519D01*
X45685764Y-115350294D01*
X45849706Y-115514236D01*
X46042481Y-115643044D01*
X46256682Y-115731769D01*
X46484076Y-115777000D01*
X46715924Y-115777000D01*
X46943318Y-115731769D01*
X47157519Y-115643044D01*
X47350294Y-115514236D01*
X47514236Y-115350294D01*
X47643044Y-115157519D01*
X47731769Y-114943318D01*
X47777000Y-114715924D01*
X47777000Y-114484076D01*
X47731769Y-114256682D01*
X47729001Y-114249999D01*
X69796418Y-114249999D01*
X69796418Y-114950001D01*
X69807535Y-115062877D01*
X69840460Y-115171414D01*
X69893926Y-115271443D01*
X69965880Y-115359120D01*
X70053557Y-115431074D01*
X70153586Y-115484540D01*
X70262123Y-115517465D01*
X70374999Y-115528582D01*
X71625001Y-115528582D01*
X71737877Y-115517465D01*
X71846414Y-115484540D01*
X71946443Y-115431074D01*
X72034120Y-115359120D01*
X72106074Y-115271443D01*
X72159540Y-115171414D01*
X72192465Y-115062877D01*
X72203582Y-114950001D01*
X72203582Y-114249999D01*
X72192465Y-114137123D01*
X72159540Y-114028586D01*
X72106074Y-113928557D01*
X72034120Y-113840880D01*
X71946443Y-113768926D01*
X71846414Y-113715460D01*
X71737877Y-113682535D01*
X71625001Y-113671418D01*
X70374999Y-113671418D01*
X70262123Y-113682535D01*
X70153586Y-113715460D01*
X70053557Y-113768926D01*
X69965880Y-113840880D01*
X69893926Y-113928557D01*
X69840460Y-114028586D01*
X69807535Y-114137123D01*
X69796418Y-114249999D01*
X47729001Y-114249999D01*
X47643044Y-114042481D01*
X47514236Y-113849706D01*
X47350294Y-113685764D01*
X47157519Y-113556956D01*
X46943318Y-113468231D01*
X46715924Y-113423000D01*
X46484076Y-113423000D01*
X46256682Y-113468231D01*
X46042481Y-113556956D01*
X45849706Y-113685764D01*
X45685764Y-113849706D01*
X45556956Y-114042481D01*
X45468231Y-114256682D01*
X45423000Y-114484076D01*
X28152000Y-114484076D01*
X28152000Y-111928397D01*
X34473000Y-111928397D01*
X34473000Y-112071603D01*
X34500938Y-112212058D01*
X34555741Y-112344364D01*
X34635302Y-112463436D01*
X34736564Y-112564698D01*
X34855636Y-112644259D01*
X34987942Y-112699062D01*
X35128397Y-112727000D01*
X35271603Y-112727000D01*
X35412058Y-112699062D01*
X35544364Y-112644259D01*
X35663436Y-112564698D01*
X35764698Y-112463436D01*
X35771003Y-112454000D01*
X39928997Y-112454000D01*
X39935302Y-112463436D01*
X40036564Y-112564698D01*
X40155636Y-112644259D01*
X40287942Y-112699062D01*
X40428397Y-112727000D01*
X40571603Y-112727000D01*
X40712058Y-112699062D01*
X40844364Y-112644259D01*
X40910602Y-112600000D01*
X69793515Y-112600000D01*
X69811413Y-112781724D01*
X69864420Y-112956464D01*
X69950499Y-113117505D01*
X70066341Y-113258659D01*
X70207495Y-113374501D01*
X70368536Y-113460580D01*
X70543276Y-113513587D01*
X70679462Y-113527000D01*
X71320538Y-113527000D01*
X71456724Y-113513587D01*
X71631464Y-113460580D01*
X71792505Y-113374501D01*
X71933659Y-113258659D01*
X72049501Y-113117505D01*
X72135580Y-112956464D01*
X72188587Y-112781724D01*
X72206485Y-112600000D01*
X72188587Y-112418276D01*
X72135580Y-112243536D01*
X72049501Y-112082495D01*
X71933659Y-111941341D01*
X71792505Y-111825499D01*
X71631464Y-111739420D01*
X71456724Y-111686413D01*
X71320538Y-111673000D01*
X70679462Y-111673000D01*
X70543276Y-111686413D01*
X70368536Y-111739420D01*
X70207495Y-111825499D01*
X70066341Y-111941341D01*
X69950499Y-112082495D01*
X69864420Y-112243536D01*
X69811413Y-112418276D01*
X69793515Y-112600000D01*
X40910602Y-112600000D01*
X40963436Y-112564698D01*
X41064698Y-112463436D01*
X41144259Y-112344364D01*
X41199062Y-112212058D01*
X41227000Y-112071603D01*
X41227000Y-111928397D01*
X41199062Y-111787942D01*
X41144259Y-111655636D01*
X41064698Y-111536564D01*
X40963436Y-111435302D01*
X40844364Y-111355741D01*
X40712058Y-111300938D01*
X40571603Y-111273000D01*
X40428397Y-111273000D01*
X40287942Y-111300938D01*
X40155636Y-111355741D01*
X40036564Y-111435302D01*
X39935302Y-111536564D01*
X39928997Y-111546000D01*
X35771003Y-111546000D01*
X35764698Y-111536564D01*
X35663436Y-111435302D01*
X35544364Y-111355741D01*
X35412058Y-111300938D01*
X35271603Y-111273000D01*
X35128397Y-111273000D01*
X34987942Y-111300938D01*
X34855636Y-111355741D01*
X34736564Y-111435302D01*
X34635302Y-111536564D01*
X34555741Y-111655636D01*
X34500938Y-111787942D01*
X34473000Y-111928397D01*
X28152000Y-111928397D01*
X28152000Y-108690000D01*
X40021418Y-108690000D01*
X40021418Y-110390000D01*
X40027732Y-110454103D01*
X40046430Y-110515743D01*
X40076794Y-110572550D01*
X40117657Y-110622343D01*
X40167450Y-110663206D01*
X40224257Y-110693570D01*
X40285897Y-110712268D01*
X40350000Y-110718582D01*
X42050000Y-110718582D01*
X42114103Y-110712268D01*
X42175743Y-110693570D01*
X42232550Y-110663206D01*
X42282343Y-110622343D01*
X42323206Y-110572550D01*
X42353570Y-110515743D01*
X42372268Y-110454103D01*
X42378582Y-110390000D01*
X42378582Y-108690000D01*
X42372268Y-108625897D01*
X42353570Y-108564257D01*
X42323206Y-108507450D01*
X42282343Y-108457657D01*
X42232550Y-108416794D01*
X42175743Y-108386430D01*
X42114103Y-108367732D01*
X42050000Y-108361418D01*
X40350000Y-108361418D01*
X40285897Y-108367732D01*
X40224257Y-108386430D01*
X40167450Y-108416794D01*
X40117657Y-108457657D01*
X40076794Y-108507450D01*
X40046430Y-108564257D01*
X40027732Y-108625897D01*
X40021418Y-108690000D01*
X28152000Y-108690000D01*
X28152000Y-106884076D01*
X40023000Y-106884076D01*
X40023000Y-107115924D01*
X40068231Y-107343318D01*
X40156956Y-107557519D01*
X40285764Y-107750294D01*
X40449706Y-107914236D01*
X40642481Y-108043044D01*
X40856682Y-108131769D01*
X41084076Y-108177000D01*
X41315924Y-108177000D01*
X41543318Y-108131769D01*
X41757519Y-108043044D01*
X41950294Y-107914236D01*
X42114236Y-107750294D01*
X42243044Y-107557519D01*
X42331769Y-107343318D01*
X42377000Y-107115924D01*
X42377000Y-106884076D01*
X42331769Y-106656682D01*
X42243044Y-106442481D01*
X42114236Y-106249706D01*
X41950294Y-106085764D01*
X41757519Y-105956956D01*
X41543318Y-105868231D01*
X41315924Y-105823000D01*
X41084076Y-105823000D01*
X40856682Y-105868231D01*
X40642481Y-105956956D01*
X40449706Y-106085764D01*
X40285764Y-106249706D01*
X40156956Y-106442481D01*
X40068231Y-106656682D01*
X40023000Y-106884076D01*
X28152000Y-106884076D01*
X28152000Y-105617609D01*
X69531538Y-105617609D01*
X69535409Y-105655282D01*
X69627579Y-105880533D01*
X69761922Y-106083474D01*
X69933275Y-106256307D01*
X70135054Y-106392390D01*
X70174760Y-106409037D01*
X70153586Y-106415460D01*
X70053557Y-106468926D01*
X69965880Y-106540880D01*
X69893926Y-106628557D01*
X69840460Y-106728586D01*
X69807535Y-106837123D01*
X69796418Y-106949999D01*
X69796418Y-107650001D01*
X69807535Y-107762877D01*
X69840460Y-107871414D01*
X69893926Y-107971443D01*
X69965880Y-108059120D01*
X70053557Y-108131074D01*
X70153586Y-108184540D01*
X70262123Y-108217465D01*
X70374999Y-108228582D01*
X71625001Y-108228582D01*
X71737877Y-108217465D01*
X71846414Y-108184540D01*
X71946443Y-108131074D01*
X72034120Y-108059120D01*
X72106074Y-107971443D01*
X72159540Y-107871414D01*
X72192465Y-107762877D01*
X72203582Y-107650001D01*
X72203582Y-106949999D01*
X72192465Y-106837123D01*
X72159540Y-106728586D01*
X72106074Y-106628557D01*
X72034120Y-106540880D01*
X71946443Y-106468926D01*
X71846414Y-106415460D01*
X71825240Y-106409037D01*
X71864946Y-106392390D01*
X72066725Y-106256307D01*
X72238078Y-106083474D01*
X72372421Y-105880533D01*
X72464591Y-105655282D01*
X72468462Y-105617609D01*
X72343731Y-105427000D01*
X71127000Y-105427000D01*
X71127000Y-105447000D01*
X70873000Y-105447000D01*
X70873000Y-105427000D01*
X69656269Y-105427000D01*
X69531538Y-105617609D01*
X28152000Y-105617609D01*
X28152000Y-104982391D01*
X69531538Y-104982391D01*
X69656269Y-105173000D01*
X70873000Y-105173000D01*
X70873000Y-104065000D01*
X71127000Y-104065000D01*
X71127000Y-105173000D01*
X72343731Y-105173000D01*
X72468462Y-104982391D01*
X72464591Y-104944718D01*
X72372421Y-104719467D01*
X72238078Y-104516526D01*
X72066725Y-104343693D01*
X71864946Y-104207610D01*
X71640496Y-104113507D01*
X71402000Y-104065000D01*
X71127000Y-104065000D01*
X70873000Y-104065000D01*
X70598000Y-104065000D01*
X70359504Y-104113507D01*
X70135054Y-104207610D01*
X69933275Y-104343693D01*
X69761922Y-104516526D01*
X69627579Y-104719467D01*
X69535409Y-104944718D01*
X69531538Y-104982391D01*
X28152000Y-104982391D01*
X28152000Y-102950000D01*
X29221418Y-102950000D01*
X29221418Y-104650000D01*
X29227732Y-104714103D01*
X29246430Y-104775743D01*
X29276794Y-104832550D01*
X29317657Y-104882343D01*
X29367450Y-104923206D01*
X29424257Y-104953570D01*
X29485897Y-104972268D01*
X29550000Y-104978582D01*
X31250000Y-104978582D01*
X31314103Y-104972268D01*
X31375743Y-104953570D01*
X31432550Y-104923206D01*
X31482343Y-104882343D01*
X31523206Y-104832550D01*
X31553570Y-104775743D01*
X31572268Y-104714103D01*
X31578582Y-104650000D01*
X31578582Y-103684076D01*
X31763000Y-103684076D01*
X31763000Y-103915924D01*
X31808231Y-104143318D01*
X31896956Y-104357519D01*
X32025764Y-104550294D01*
X32189706Y-104714236D01*
X32382481Y-104843044D01*
X32596682Y-104931769D01*
X32824076Y-104977000D01*
X33055924Y-104977000D01*
X33283318Y-104931769D01*
X33497519Y-104843044D01*
X33690294Y-104714236D01*
X33854236Y-104550294D01*
X33983044Y-104357519D01*
X34071769Y-104143318D01*
X34094627Y-104028397D01*
X38473000Y-104028397D01*
X38473000Y-104171603D01*
X38500938Y-104312058D01*
X38555741Y-104444364D01*
X38635302Y-104563436D01*
X38736564Y-104664698D01*
X38855636Y-104744259D01*
X38987942Y-104799062D01*
X39128397Y-104827000D01*
X39271603Y-104827000D01*
X39412058Y-104799062D01*
X39544364Y-104744259D01*
X39663436Y-104664698D01*
X39764698Y-104563436D01*
X39771003Y-104554000D01*
X42228997Y-104554000D01*
X42235302Y-104563436D01*
X42336564Y-104664698D01*
X42455636Y-104744259D01*
X42587942Y-104799062D01*
X42728397Y-104827000D01*
X42871603Y-104827000D01*
X43012058Y-104799062D01*
X43144364Y-104744259D01*
X43263436Y-104664698D01*
X43364698Y-104563436D01*
X43444259Y-104444364D01*
X43499062Y-104312058D01*
X43527000Y-104171603D01*
X43527000Y-104028397D01*
X43499062Y-103887942D01*
X43481959Y-103846653D01*
X43562097Y-103879847D01*
X43799151Y-103927000D01*
X44040849Y-103927000D01*
X44277903Y-103879847D01*
X44501202Y-103787353D01*
X44536032Y-103764080D01*
X45575525Y-103764080D01*
X45659208Y-104018261D01*
X45931775Y-104149158D01*
X46224642Y-104224365D01*
X46526553Y-104240991D01*
X46825907Y-104198397D01*
X47111199Y-104098222D01*
X47260792Y-104018261D01*
X47344475Y-103764080D01*
X46460000Y-102879605D01*
X45575525Y-103764080D01*
X44536032Y-103764080D01*
X44702167Y-103653073D01*
X44873073Y-103482167D01*
X45007353Y-103281202D01*
X45023507Y-103242204D01*
X45061778Y-103351199D01*
X45141739Y-103500792D01*
X45395920Y-103584475D01*
X46280395Y-102700000D01*
X46639605Y-102700000D01*
X47524080Y-103584475D01*
X47778261Y-103500792D01*
X47787962Y-103480592D01*
X47815475Y-103571290D01*
X47868960Y-103671354D01*
X47940939Y-103759061D01*
X48028646Y-103831040D01*
X48128710Y-103884525D01*
X48237285Y-103917461D01*
X48350200Y-103928582D01*
X49649800Y-103928582D01*
X49762715Y-103917461D01*
X49871290Y-103884525D01*
X49971354Y-103831040D01*
X50059061Y-103759061D01*
X50131040Y-103671354D01*
X50184525Y-103571290D01*
X50217461Y-103462715D01*
X50228582Y-103349800D01*
X50228582Y-102050200D01*
X50217461Y-101937285D01*
X50184525Y-101828710D01*
X50131040Y-101728646D01*
X50059061Y-101640939D01*
X49971354Y-101568960D01*
X49871290Y-101515475D01*
X49762715Y-101482539D01*
X49649800Y-101471418D01*
X48350200Y-101471418D01*
X48237285Y-101482539D01*
X48128710Y-101515475D01*
X48028646Y-101568960D01*
X47940939Y-101640939D01*
X47868960Y-101728646D01*
X47815475Y-101828710D01*
X47788359Y-101918099D01*
X47778261Y-101899208D01*
X47524080Y-101815525D01*
X46639605Y-102700000D01*
X46280395Y-102700000D01*
X45395920Y-101815525D01*
X45141739Y-101899208D01*
X45020751Y-102151142D01*
X45007353Y-102118798D01*
X44873073Y-101917833D01*
X44702167Y-101746927D01*
X44536033Y-101635920D01*
X45575525Y-101635920D01*
X46460000Y-102520395D01*
X47344475Y-101635920D01*
X47260792Y-101381739D01*
X46988225Y-101250842D01*
X46695358Y-101175635D01*
X46393447Y-101159009D01*
X46094093Y-101201603D01*
X45808801Y-101301778D01*
X45659208Y-101381739D01*
X45575525Y-101635920D01*
X44536033Y-101635920D01*
X44501202Y-101612647D01*
X44277903Y-101520153D01*
X44040849Y-101473000D01*
X43799151Y-101473000D01*
X43562097Y-101520153D01*
X43338798Y-101612647D01*
X43137833Y-101746927D01*
X42966927Y-101917833D01*
X42832647Y-102118798D01*
X42740153Y-102342097D01*
X42693000Y-102579151D01*
X42693000Y-102820849D01*
X42740153Y-103057903D01*
X42832647Y-103281202D01*
X42897415Y-103378134D01*
X42871603Y-103373000D01*
X42728397Y-103373000D01*
X42587942Y-103400938D01*
X42455636Y-103455741D01*
X42336564Y-103535302D01*
X42235302Y-103636564D01*
X42228997Y-103646000D01*
X39771003Y-103646000D01*
X39764698Y-103636564D01*
X39663436Y-103535302D01*
X39544364Y-103455741D01*
X39412058Y-103400938D01*
X39271603Y-103373000D01*
X39128397Y-103373000D01*
X38987942Y-103400938D01*
X38855636Y-103455741D01*
X38736564Y-103535302D01*
X38635302Y-103636564D01*
X38555741Y-103755636D01*
X38500938Y-103887942D01*
X38473000Y-104028397D01*
X34094627Y-104028397D01*
X34117000Y-103915924D01*
X34117000Y-103684076D01*
X34071769Y-103456682D01*
X33983044Y-103242481D01*
X33854236Y-103049706D01*
X33690294Y-102885764D01*
X33497519Y-102756956D01*
X33283318Y-102668231D01*
X33055924Y-102623000D01*
X32824076Y-102623000D01*
X32596682Y-102668231D01*
X32382481Y-102756956D01*
X32189706Y-102885764D01*
X32025764Y-103049706D01*
X31896956Y-103242481D01*
X31808231Y-103456682D01*
X31763000Y-103684076D01*
X31578582Y-103684076D01*
X31578582Y-102950000D01*
X31572268Y-102885897D01*
X31553570Y-102824257D01*
X31523206Y-102767450D01*
X31482343Y-102717657D01*
X31432550Y-102676794D01*
X31375743Y-102646430D01*
X31314103Y-102627732D01*
X31250000Y-102621418D01*
X29550000Y-102621418D01*
X29485897Y-102627732D01*
X29424257Y-102646430D01*
X29367450Y-102676794D01*
X29317657Y-102717657D01*
X29276794Y-102767450D01*
X29246430Y-102824257D01*
X29227732Y-102885897D01*
X29221418Y-102950000D01*
X28152000Y-102950000D01*
X28152000Y-99928397D01*
X28773000Y-99928397D01*
X28773000Y-100071603D01*
X28800938Y-100212058D01*
X28855741Y-100344364D01*
X28935302Y-100463436D01*
X29036564Y-100564698D01*
X29155636Y-100644259D01*
X29287942Y-100699062D01*
X29428397Y-100727000D01*
X29571603Y-100727000D01*
X29712058Y-100699062D01*
X29844364Y-100644259D01*
X29939038Y-100581000D01*
X32690519Y-100581000D01*
X32807483Y-100616480D01*
X32914292Y-100627000D01*
X33485708Y-100627000D01*
X33592517Y-100616480D01*
X33729557Y-100574910D01*
X33855853Y-100507403D01*
X33966554Y-100416554D01*
X34057403Y-100305853D01*
X34124910Y-100179557D01*
X34166480Y-100042517D01*
X34180517Y-99900000D01*
X34166480Y-99757483D01*
X34124910Y-99620443D01*
X34061762Y-99502303D01*
X34067336Y-99499033D01*
X34221112Y-99362283D01*
X34345255Y-99198160D01*
X34434994Y-99012972D01*
X34444666Y-98936123D01*
X34316998Y-98777000D01*
X33327000Y-98777000D01*
X33327000Y-98797000D01*
X33073000Y-98797000D01*
X33073000Y-98777000D01*
X32083002Y-98777000D01*
X31955334Y-98936123D01*
X31965006Y-99012972D01*
X32054745Y-99198160D01*
X32178888Y-99362283D01*
X32242667Y-99419000D01*
X29939038Y-99419000D01*
X29844364Y-99355741D01*
X29712058Y-99300938D01*
X29571603Y-99273000D01*
X29428397Y-99273000D01*
X29287942Y-99300938D01*
X29155636Y-99355741D01*
X29036564Y-99435302D01*
X28935302Y-99536564D01*
X28855741Y-99655636D01*
X28800938Y-99787942D01*
X28773000Y-99928397D01*
X28152000Y-99928397D01*
X28152000Y-98628397D01*
X40673000Y-98628397D01*
X40673000Y-98771603D01*
X40700938Y-98912058D01*
X40755741Y-99044364D01*
X40835302Y-99163436D01*
X40936564Y-99264698D01*
X41055636Y-99344259D01*
X41187942Y-99399062D01*
X41328397Y-99427000D01*
X41471603Y-99427000D01*
X41482734Y-99424786D01*
X42291805Y-100233858D01*
X42273000Y-100328397D01*
X42273000Y-100471603D01*
X42300938Y-100612058D01*
X42355741Y-100744364D01*
X42435302Y-100863436D01*
X42536564Y-100964698D01*
X42655636Y-101044259D01*
X42787942Y-101099062D01*
X42928397Y-101127000D01*
X43071603Y-101127000D01*
X43212058Y-101099062D01*
X43344364Y-101044259D01*
X43463436Y-100964698D01*
X43564698Y-100863436D01*
X43644259Y-100744364D01*
X43699062Y-100612058D01*
X43727000Y-100471603D01*
X43727000Y-100328397D01*
X43699062Y-100187942D01*
X43644259Y-100055636D01*
X43564698Y-99936564D01*
X43463436Y-99835302D01*
X43344364Y-99755741D01*
X43212058Y-99700938D01*
X43071603Y-99673000D01*
X43015053Y-99673000D01*
X42124786Y-98782734D01*
X42127000Y-98771603D01*
X42127000Y-98628397D01*
X42099062Y-98487942D01*
X42044259Y-98355636D01*
X41996445Y-98284076D01*
X59083000Y-98284076D01*
X59083000Y-98515924D01*
X59128231Y-98743318D01*
X59216956Y-98957519D01*
X59345764Y-99150294D01*
X59509706Y-99314236D01*
X59702481Y-99443044D01*
X59916682Y-99531769D01*
X60144076Y-99577000D01*
X60375924Y-99577000D01*
X60603318Y-99531769D01*
X60817519Y-99443044D01*
X61010294Y-99314236D01*
X61174236Y-99150294D01*
X61303044Y-98957519D01*
X61391769Y-98743318D01*
X61437000Y-98515924D01*
X61437000Y-98284076D01*
X61391769Y-98056682D01*
X61303044Y-97842481D01*
X61174236Y-97649706D01*
X61074530Y-97550000D01*
X64161418Y-97550000D01*
X64161418Y-99250000D01*
X64167732Y-99314103D01*
X64186430Y-99375743D01*
X64216794Y-99432550D01*
X64257657Y-99482343D01*
X64307450Y-99523206D01*
X64364257Y-99553570D01*
X64425897Y-99572268D01*
X64490000Y-99578582D01*
X66190000Y-99578582D01*
X66254103Y-99572268D01*
X66315743Y-99553570D01*
X66372550Y-99523206D01*
X66422343Y-99482343D01*
X66463206Y-99432550D01*
X66493570Y-99375743D01*
X66512268Y-99314103D01*
X66518582Y-99250000D01*
X66518582Y-97628397D01*
X69573000Y-97628397D01*
X69573000Y-97771603D01*
X69600938Y-97912058D01*
X69655741Y-98044364D01*
X69735302Y-98163436D01*
X69836564Y-98264698D01*
X69955636Y-98344259D01*
X70087942Y-98399062D01*
X70228397Y-98427000D01*
X70371603Y-98427000D01*
X70512058Y-98399062D01*
X70644364Y-98344259D01*
X70763436Y-98264698D01*
X70864698Y-98163436D01*
X70871003Y-98154000D01*
X71982110Y-98154000D01*
X72033446Y-98216554D01*
X72144147Y-98307403D01*
X72177068Y-98325000D01*
X72144147Y-98342597D01*
X72033446Y-98433446D01*
X71942597Y-98544147D01*
X71875090Y-98670443D01*
X71833520Y-98807483D01*
X71819483Y-98950000D01*
X71833520Y-99092517D01*
X71875090Y-99229557D01*
X71942597Y-99355853D01*
X72033446Y-99466554D01*
X72111798Y-99530855D01*
X72056336Y-99560500D01*
X71976236Y-99626236D01*
X71910500Y-99706336D01*
X71861654Y-99797720D01*
X71831575Y-99896879D01*
X71821418Y-100000000D01*
X71821418Y-100400000D01*
X71831575Y-100503121D01*
X71861654Y-100602280D01*
X71910500Y-100693664D01*
X71976236Y-100773764D01*
X72056336Y-100839500D01*
X72147720Y-100888346D01*
X72246879Y-100918425D01*
X72350000Y-100928582D01*
X73250000Y-100928582D01*
X73353121Y-100918425D01*
X73452280Y-100888346D01*
X73543664Y-100839500D01*
X73623764Y-100773764D01*
X73689500Y-100693664D01*
X73738346Y-100602280D01*
X73768425Y-100503121D01*
X73778582Y-100400000D01*
X73778582Y-100000000D01*
X73768425Y-99896879D01*
X73738346Y-99797720D01*
X73689500Y-99706336D01*
X73623764Y-99626236D01*
X73543664Y-99560500D01*
X73488202Y-99530855D01*
X73566554Y-99466554D01*
X73657403Y-99355853D01*
X73724910Y-99229557D01*
X73766480Y-99092517D01*
X73780517Y-98950000D01*
X73766480Y-98807483D01*
X73724910Y-98670443D01*
X73657403Y-98544147D01*
X73566554Y-98433446D01*
X73455853Y-98342597D01*
X73422932Y-98325000D01*
X73455853Y-98307403D01*
X73566554Y-98216554D01*
X73657403Y-98105853D01*
X73724910Y-97979557D01*
X73766480Y-97842517D01*
X73780517Y-97700000D01*
X73766480Y-97557483D01*
X73724910Y-97420443D01*
X73661762Y-97302303D01*
X73667336Y-97299033D01*
X73821112Y-97162283D01*
X73945255Y-96998160D01*
X74034994Y-96812972D01*
X74044666Y-96736123D01*
X73916998Y-96577000D01*
X72927000Y-96577000D01*
X72927000Y-96597000D01*
X72673000Y-96597000D01*
X72673000Y-96577000D01*
X71683002Y-96577000D01*
X71555334Y-96736123D01*
X71565006Y-96812972D01*
X71654745Y-96998160D01*
X71778888Y-97162283D01*
X71873028Y-97246000D01*
X70871003Y-97246000D01*
X70864698Y-97236564D01*
X70763436Y-97135302D01*
X70644364Y-97055741D01*
X70512058Y-97000938D01*
X70371603Y-96973000D01*
X70228397Y-96973000D01*
X70087942Y-97000938D01*
X69955636Y-97055741D01*
X69836564Y-97135302D01*
X69735302Y-97236564D01*
X69655741Y-97355636D01*
X69600938Y-97487942D01*
X69573000Y-97628397D01*
X66518582Y-97628397D01*
X66518582Y-97550000D01*
X66512268Y-97485897D01*
X66493570Y-97424257D01*
X66463206Y-97367450D01*
X66422343Y-97317657D01*
X66372550Y-97276794D01*
X66315743Y-97246430D01*
X66254103Y-97227732D01*
X66190000Y-97221418D01*
X64490000Y-97221418D01*
X64425897Y-97227732D01*
X64364257Y-97246430D01*
X64307450Y-97276794D01*
X64257657Y-97317657D01*
X64216794Y-97367450D01*
X64186430Y-97424257D01*
X64167732Y-97485897D01*
X64161418Y-97550000D01*
X61074530Y-97550000D01*
X61010294Y-97485764D01*
X60817519Y-97356956D01*
X60603318Y-97268231D01*
X60375924Y-97223000D01*
X60144076Y-97223000D01*
X59916682Y-97268231D01*
X59702481Y-97356956D01*
X59509706Y-97485764D01*
X59345764Y-97649706D01*
X59216956Y-97842481D01*
X59128231Y-98056682D01*
X59083000Y-98284076D01*
X41996445Y-98284076D01*
X41964698Y-98236564D01*
X41863436Y-98135302D01*
X41744364Y-98055741D01*
X41612058Y-98000938D01*
X41471603Y-97973000D01*
X41328397Y-97973000D01*
X41187942Y-98000938D01*
X41055636Y-98055741D01*
X40936564Y-98135302D01*
X40835302Y-98236564D01*
X40755741Y-98355636D01*
X40700938Y-98487942D01*
X40673000Y-98628397D01*
X28152000Y-98628397D01*
X28152000Y-98363877D01*
X31955334Y-98363877D01*
X32083002Y-98523000D01*
X33073000Y-98523000D01*
X33073000Y-98503000D01*
X33327000Y-98503000D01*
X33327000Y-98523000D01*
X34316998Y-98523000D01*
X34444666Y-98363877D01*
X34434994Y-98287028D01*
X34345255Y-98101840D01*
X34221112Y-97937717D01*
X34067336Y-97800967D01*
X34061762Y-97797697D01*
X34124910Y-97679557D01*
X34166480Y-97542517D01*
X34180517Y-97400000D01*
X34166480Y-97257483D01*
X34124910Y-97120443D01*
X34057403Y-96994147D01*
X33966554Y-96883446D01*
X33855853Y-96792597D01*
X33822932Y-96775000D01*
X33855853Y-96757403D01*
X33966554Y-96666554D01*
X34057403Y-96555853D01*
X34124910Y-96429557D01*
X34166480Y-96292517D01*
X34179150Y-96163877D01*
X71555334Y-96163877D01*
X71683002Y-96323000D01*
X72673000Y-96323000D01*
X72673000Y-96303000D01*
X72927000Y-96303000D01*
X72927000Y-96323000D01*
X73916998Y-96323000D01*
X74044666Y-96163877D01*
X74034994Y-96087028D01*
X73945255Y-95901840D01*
X73853851Y-95781000D01*
X74810866Y-95781000D01*
X74815564Y-95785698D01*
X74934636Y-95865259D01*
X75066942Y-95920062D01*
X75207397Y-95948000D01*
X75350603Y-95948000D01*
X75491058Y-95920062D01*
X75623364Y-95865259D01*
X75742436Y-95785698D01*
X75843698Y-95684436D01*
X75923259Y-95565364D01*
X75978062Y-95433058D01*
X76006000Y-95292603D01*
X76006000Y-95149397D01*
X75978062Y-95008942D01*
X75923259Y-94876636D01*
X75843698Y-94757564D01*
X75742436Y-94656302D01*
X75623364Y-94576741D01*
X75491058Y-94521938D01*
X75350603Y-94494000D01*
X75207397Y-94494000D01*
X75066942Y-94521938D01*
X74934636Y-94576741D01*
X74871391Y-94619000D01*
X73488025Y-94619000D01*
X73455853Y-94592597D01*
X73329557Y-94525090D01*
X73192517Y-94483520D01*
X73085708Y-94473000D01*
X72514292Y-94473000D01*
X72407483Y-94483520D01*
X72270443Y-94525090D01*
X72144147Y-94592597D01*
X72033446Y-94683446D01*
X71942597Y-94794147D01*
X71875090Y-94920443D01*
X71833520Y-95057483D01*
X71819483Y-95200000D01*
X71833520Y-95342517D01*
X71875090Y-95479557D01*
X71938238Y-95597697D01*
X71932664Y-95600967D01*
X71778888Y-95737717D01*
X71654745Y-95901840D01*
X71565006Y-96087028D01*
X71555334Y-96163877D01*
X34179150Y-96163877D01*
X34180517Y-96150000D01*
X34166480Y-96007483D01*
X34124910Y-95870443D01*
X34057403Y-95744147D01*
X33966554Y-95633446D01*
X33888202Y-95569145D01*
X33943664Y-95539500D01*
X34023764Y-95473764D01*
X34089500Y-95393664D01*
X34138346Y-95302280D01*
X34168425Y-95203121D01*
X34178582Y-95100000D01*
X34178582Y-94700000D01*
X34168425Y-94596879D01*
X34138346Y-94497720D01*
X34089500Y-94406336D01*
X34023764Y-94326236D01*
X33943664Y-94260500D01*
X33852280Y-94211654D01*
X33753121Y-94181575D01*
X33650000Y-94171418D01*
X32750000Y-94171418D01*
X32646879Y-94181575D01*
X32547720Y-94211654D01*
X32456336Y-94260500D01*
X32376236Y-94326236D01*
X32310500Y-94406336D01*
X32261654Y-94497720D01*
X32231575Y-94596879D01*
X32221418Y-94700000D01*
X32221418Y-95100000D01*
X32231575Y-95203121D01*
X32261654Y-95302280D01*
X32310500Y-95393664D01*
X32376236Y-95473764D01*
X32456336Y-95539500D01*
X32511798Y-95569145D01*
X32433446Y-95633446D01*
X32342597Y-95744147D01*
X32275090Y-95870443D01*
X32233520Y-96007483D01*
X32219483Y-96150000D01*
X32233520Y-96292517D01*
X32275090Y-96429557D01*
X32342597Y-96555853D01*
X32433446Y-96666554D01*
X32544147Y-96757403D01*
X32577068Y-96775000D01*
X32544147Y-96792597D01*
X32433446Y-96883446D01*
X32342597Y-96994147D01*
X32275090Y-97120443D01*
X32233520Y-97257483D01*
X32219483Y-97400000D01*
X32233520Y-97542517D01*
X32275090Y-97679557D01*
X32338238Y-97797697D01*
X32332664Y-97800967D01*
X32178888Y-97937717D01*
X32054745Y-98101840D01*
X31965006Y-98287028D01*
X31955334Y-98363877D01*
X28152000Y-98363877D01*
X28152000Y-90986123D01*
X31955334Y-90986123D01*
X31965006Y-91062972D01*
X32054745Y-91248160D01*
X32178888Y-91412283D01*
X32332664Y-91549033D01*
X32510164Y-91653155D01*
X32704567Y-91720648D01*
X32908401Y-91748918D01*
X33073000Y-91583762D01*
X33073000Y-90827000D01*
X33327000Y-90827000D01*
X33327000Y-91583762D01*
X33491599Y-91748918D01*
X33695433Y-91720648D01*
X33889836Y-91653155D01*
X34067336Y-91549033D01*
X34221112Y-91412283D01*
X34345255Y-91248160D01*
X34434994Y-91062972D01*
X34444666Y-90986123D01*
X34316998Y-90827000D01*
X33327000Y-90827000D01*
X33073000Y-90827000D01*
X32083002Y-90827000D01*
X31955334Y-90986123D01*
X28152000Y-90986123D01*
X28152000Y-90413877D01*
X31955334Y-90413877D01*
X32083002Y-90573000D01*
X33073000Y-90573000D01*
X33073000Y-90553000D01*
X33327000Y-90553000D01*
X33327000Y-90573000D01*
X34316998Y-90573000D01*
X34444666Y-90413877D01*
X34434994Y-90337028D01*
X34345255Y-90151840D01*
X34221112Y-89987717D01*
X34067336Y-89850967D01*
X34061762Y-89847697D01*
X34124910Y-89729557D01*
X34166480Y-89592517D01*
X34180517Y-89450000D01*
X34166480Y-89307483D01*
X34124910Y-89170443D01*
X34057403Y-89044147D01*
X33966554Y-88933446D01*
X33888202Y-88869145D01*
X33943664Y-88839500D01*
X34023764Y-88773764D01*
X34089500Y-88693664D01*
X34138346Y-88602280D01*
X34143247Y-88586123D01*
X71555334Y-88586123D01*
X71565006Y-88662972D01*
X71654745Y-88848160D01*
X71778888Y-89012283D01*
X71932664Y-89149033D01*
X71938238Y-89152303D01*
X71875090Y-89270443D01*
X71833520Y-89407483D01*
X71819483Y-89550000D01*
X71833520Y-89692517D01*
X71875090Y-89829557D01*
X71942597Y-89955853D01*
X72033446Y-90066554D01*
X72111798Y-90130855D01*
X72056336Y-90160500D01*
X71976236Y-90226236D01*
X71910500Y-90306336D01*
X71861654Y-90397720D01*
X71831575Y-90496879D01*
X71821418Y-90600000D01*
X71821418Y-91000000D01*
X71831575Y-91103121D01*
X71861654Y-91202280D01*
X71910500Y-91293664D01*
X71976236Y-91373764D01*
X72056336Y-91439500D01*
X72147720Y-91488346D01*
X72246879Y-91518425D01*
X72350000Y-91528582D01*
X73250000Y-91528582D01*
X73353121Y-91518425D01*
X73452280Y-91488346D01*
X73543664Y-91439500D01*
X73614947Y-91381000D01*
X75560962Y-91381000D01*
X75655636Y-91444259D01*
X75787942Y-91499062D01*
X75928397Y-91527000D01*
X76071603Y-91527000D01*
X76212058Y-91499062D01*
X76344364Y-91444259D01*
X76463436Y-91364698D01*
X76564698Y-91263436D01*
X76644259Y-91144364D01*
X76699062Y-91012058D01*
X76727000Y-90871603D01*
X76727000Y-90728397D01*
X76699062Y-90587942D01*
X76644259Y-90455636D01*
X76564698Y-90336564D01*
X76463436Y-90235302D01*
X76344364Y-90155741D01*
X76212058Y-90100938D01*
X76071603Y-90073000D01*
X75928397Y-90073000D01*
X75787942Y-90100938D01*
X75655636Y-90155741D01*
X75560962Y-90219000D01*
X73614947Y-90219000D01*
X73543664Y-90160500D01*
X73488202Y-90130855D01*
X73566554Y-90066554D01*
X73657403Y-89955853D01*
X73724910Y-89829557D01*
X73766480Y-89692517D01*
X73780517Y-89550000D01*
X73766480Y-89407483D01*
X73724910Y-89270443D01*
X73661762Y-89152303D01*
X73667336Y-89149033D01*
X73821112Y-89012283D01*
X73945255Y-88848160D01*
X74034994Y-88662972D01*
X74044666Y-88586123D01*
X73916998Y-88427000D01*
X72927000Y-88427000D01*
X72927000Y-88447000D01*
X72673000Y-88447000D01*
X72673000Y-88427000D01*
X71683002Y-88427000D01*
X71555334Y-88586123D01*
X34143247Y-88586123D01*
X34168425Y-88503121D01*
X34178582Y-88400000D01*
X34178582Y-88013877D01*
X71555334Y-88013877D01*
X71683002Y-88173000D01*
X72673000Y-88173000D01*
X72673000Y-87416238D01*
X72927000Y-87416238D01*
X72927000Y-88173000D01*
X73916998Y-88173000D01*
X74044666Y-88013877D01*
X74034994Y-87937028D01*
X73945255Y-87751840D01*
X73821112Y-87587717D01*
X73667336Y-87450967D01*
X73489836Y-87346845D01*
X73295433Y-87279352D01*
X73091599Y-87251082D01*
X72927000Y-87416238D01*
X72673000Y-87416238D01*
X72508401Y-87251082D01*
X72304567Y-87279352D01*
X72110164Y-87346845D01*
X71932664Y-87450967D01*
X71778888Y-87587717D01*
X71654745Y-87751840D01*
X71565006Y-87937028D01*
X71555334Y-88013877D01*
X34178582Y-88013877D01*
X34178582Y-88000000D01*
X34168425Y-87896879D01*
X34138346Y-87797720D01*
X34089500Y-87706336D01*
X34023764Y-87626236D01*
X33943664Y-87560500D01*
X33852280Y-87511654D01*
X33753121Y-87481575D01*
X33681000Y-87474471D01*
X33681000Y-86339038D01*
X33744259Y-86244364D01*
X33799062Y-86112058D01*
X33827000Y-85971603D01*
X33827000Y-85828397D01*
X33799062Y-85687942D01*
X33744259Y-85555636D01*
X33664698Y-85436564D01*
X33563436Y-85335302D01*
X33444364Y-85255741D01*
X33312058Y-85200938D01*
X33171603Y-85173000D01*
X33028397Y-85173000D01*
X32887942Y-85200938D01*
X32755636Y-85255741D01*
X32636564Y-85335302D01*
X32535302Y-85436564D01*
X32455741Y-85555636D01*
X32400938Y-85687942D01*
X32373000Y-85828397D01*
X32373000Y-85971603D01*
X32400938Y-86112058D01*
X32455741Y-86244364D01*
X32519000Y-86339039D01*
X32519001Y-87527005D01*
X32456336Y-87560500D01*
X32376236Y-87626236D01*
X32310500Y-87706336D01*
X32261654Y-87797720D01*
X32231575Y-87896879D01*
X32221418Y-88000000D01*
X32221418Y-88400000D01*
X32231575Y-88503121D01*
X32261654Y-88602280D01*
X32310500Y-88693664D01*
X32376236Y-88773764D01*
X32456336Y-88839500D01*
X32511798Y-88869145D01*
X32433446Y-88933446D01*
X32342597Y-89044147D01*
X32275090Y-89170443D01*
X32233520Y-89307483D01*
X32219483Y-89450000D01*
X32233520Y-89592517D01*
X32275090Y-89729557D01*
X32338238Y-89847697D01*
X32332664Y-89850967D01*
X32178888Y-89987717D01*
X32054745Y-90151840D01*
X31965006Y-90337028D01*
X31955334Y-90413877D01*
X28152000Y-90413877D01*
X28152000Y-84914292D01*
X39223000Y-84914292D01*
X39223000Y-85485707D01*
X39233520Y-85592516D01*
X39275090Y-85729556D01*
X39342597Y-85855852D01*
X39433446Y-85966553D01*
X39544147Y-86057403D01*
X39670443Y-86124910D01*
X39807483Y-86166480D01*
X39950000Y-86180517D01*
X40092516Y-86166480D01*
X40229556Y-86124910D01*
X40347697Y-86061762D01*
X40350967Y-86067336D01*
X40487717Y-86221112D01*
X40651840Y-86345255D01*
X40837028Y-86434994D01*
X40913877Y-86444666D01*
X41073000Y-86316998D01*
X41073000Y-85327000D01*
X41053000Y-85327000D01*
X41053000Y-85073000D01*
X41073000Y-85073000D01*
X41073000Y-84083002D01*
X41327000Y-84083002D01*
X41327000Y-85073000D01*
X41347000Y-85073000D01*
X41347000Y-85327000D01*
X41327000Y-85327000D01*
X41327000Y-86316998D01*
X41486123Y-86444666D01*
X41562972Y-86434994D01*
X41748160Y-86345255D01*
X41912283Y-86221112D01*
X42049033Y-86067336D01*
X42052303Y-86061762D01*
X42170443Y-86124910D01*
X42307483Y-86166480D01*
X42450000Y-86180517D01*
X42592516Y-86166480D01*
X42729556Y-86124910D01*
X42855852Y-86057403D01*
X42966553Y-85966554D01*
X43057403Y-85855853D01*
X43075000Y-85822931D01*
X43092597Y-85855852D01*
X43183446Y-85966553D01*
X43294147Y-86057403D01*
X43420443Y-86124910D01*
X43557483Y-86166480D01*
X43700000Y-86180517D01*
X43842516Y-86166480D01*
X43979556Y-86124910D01*
X44105852Y-86057403D01*
X44216553Y-85966554D01*
X44280855Y-85888202D01*
X44310500Y-85943664D01*
X44376236Y-86023764D01*
X44456336Y-86089500D01*
X44547720Y-86138346D01*
X44646879Y-86168425D01*
X44750000Y-86178582D01*
X45150000Y-86178582D01*
X45253121Y-86168425D01*
X45352280Y-86138346D01*
X45443664Y-86089500D01*
X45523764Y-86023764D01*
X45589500Y-85943664D01*
X45638346Y-85852280D01*
X45668425Y-85753121D01*
X45678582Y-85650000D01*
X45678582Y-84914292D01*
X49123000Y-84914292D01*
X49123000Y-85485707D01*
X49133520Y-85592516D01*
X49175090Y-85729556D01*
X49242597Y-85855852D01*
X49333446Y-85966553D01*
X49444147Y-86057403D01*
X49570443Y-86124910D01*
X49707483Y-86166480D01*
X49850000Y-86180517D01*
X49992516Y-86166480D01*
X50129556Y-86124910D01*
X50247697Y-86061762D01*
X50250967Y-86067336D01*
X50387717Y-86221112D01*
X50551840Y-86345255D01*
X50737028Y-86434994D01*
X50813877Y-86444666D01*
X50973000Y-86316998D01*
X50973000Y-85327000D01*
X50953000Y-85327000D01*
X50953000Y-85073000D01*
X50973000Y-85073000D01*
X50973000Y-84083002D01*
X51227000Y-84083002D01*
X51227000Y-85073000D01*
X51247000Y-85073000D01*
X51247000Y-85327000D01*
X51227000Y-85327000D01*
X51227000Y-86316998D01*
X51386123Y-86444666D01*
X51462972Y-86434994D01*
X51648160Y-86345255D01*
X51812283Y-86221112D01*
X51949033Y-86067336D01*
X51952303Y-86061762D01*
X52070443Y-86124910D01*
X52207483Y-86166480D01*
X52350000Y-86180517D01*
X52492516Y-86166480D01*
X52629556Y-86124910D01*
X52755852Y-86057403D01*
X52866553Y-85966554D01*
X52957403Y-85855853D01*
X52975000Y-85822931D01*
X52992597Y-85855852D01*
X53083446Y-85966553D01*
X53194147Y-86057403D01*
X53320443Y-86124910D01*
X53457483Y-86166480D01*
X53600000Y-86180517D01*
X53742516Y-86166480D01*
X53879556Y-86124910D01*
X54005852Y-86057403D01*
X54116553Y-85966554D01*
X54207403Y-85855853D01*
X54225000Y-85822931D01*
X54242597Y-85855852D01*
X54333446Y-85966553D01*
X54444147Y-86057403D01*
X54570443Y-86124910D01*
X54707483Y-86166480D01*
X54850000Y-86180517D01*
X54992516Y-86166480D01*
X55129556Y-86124910D01*
X55255852Y-86057403D01*
X55366553Y-85966554D01*
X55430855Y-85888202D01*
X55460500Y-85943664D01*
X55526236Y-86023764D01*
X55606336Y-86089500D01*
X55697720Y-86138346D01*
X55796879Y-86168425D01*
X55900000Y-86178582D01*
X56300000Y-86178582D01*
X56403121Y-86168425D01*
X56502280Y-86138346D01*
X56593664Y-86089500D01*
X56673764Y-86023764D01*
X56739500Y-85943664D01*
X56788346Y-85852280D01*
X56818425Y-85753121D01*
X56828582Y-85650000D01*
X56828582Y-84914292D01*
X60273000Y-84914292D01*
X60273000Y-85485707D01*
X60283520Y-85592516D01*
X60325090Y-85729556D01*
X60392597Y-85855852D01*
X60483446Y-85966553D01*
X60594147Y-86057403D01*
X60720443Y-86124910D01*
X60857483Y-86166480D01*
X61000000Y-86180517D01*
X61142516Y-86166480D01*
X61279556Y-86124910D01*
X61397697Y-86061762D01*
X61400967Y-86067336D01*
X61537717Y-86221112D01*
X61701840Y-86345255D01*
X61887028Y-86434994D01*
X61963877Y-86444666D01*
X62123000Y-86316998D01*
X62123000Y-85327000D01*
X62103000Y-85327000D01*
X62103000Y-85073000D01*
X62123000Y-85073000D01*
X62123000Y-84083002D01*
X62377000Y-84083002D01*
X62377000Y-85073000D01*
X62397000Y-85073000D01*
X62397000Y-85327000D01*
X62377000Y-85327000D01*
X62377000Y-86316998D01*
X62536123Y-86444666D01*
X62612972Y-86434994D01*
X62798160Y-86345255D01*
X62962283Y-86221112D01*
X63099033Y-86067336D01*
X63102303Y-86061762D01*
X63220443Y-86124910D01*
X63357483Y-86166480D01*
X63500000Y-86180517D01*
X63642516Y-86166480D01*
X63779556Y-86124910D01*
X63905852Y-86057403D01*
X64016553Y-85966554D01*
X64107403Y-85855853D01*
X64125000Y-85822931D01*
X64142597Y-85855852D01*
X64233446Y-85966553D01*
X64344147Y-86057403D01*
X64470443Y-86124910D01*
X64607483Y-86166480D01*
X64750000Y-86180517D01*
X64892516Y-86166480D01*
X65029556Y-86124910D01*
X65155852Y-86057403D01*
X65266553Y-85966554D01*
X65330855Y-85888202D01*
X65360500Y-85943664D01*
X65426236Y-86023764D01*
X65506336Y-86089500D01*
X65597720Y-86138346D01*
X65696879Y-86168425D01*
X65800000Y-86178582D01*
X66200000Y-86178582D01*
X66303121Y-86168425D01*
X66402280Y-86138346D01*
X66493664Y-86089500D01*
X66573764Y-86023764D01*
X66639500Y-85943664D01*
X66688346Y-85852280D01*
X66718425Y-85753121D01*
X66728582Y-85650000D01*
X66728582Y-84750000D01*
X66718425Y-84646879D01*
X66688346Y-84547720D01*
X66639500Y-84456336D01*
X66573764Y-84376236D01*
X66493664Y-84310500D01*
X66402280Y-84261654D01*
X66303121Y-84231575D01*
X66200000Y-84221418D01*
X65800000Y-84221418D01*
X65696879Y-84231575D01*
X65597720Y-84261654D01*
X65506336Y-84310500D01*
X65426236Y-84376236D01*
X65360500Y-84456336D01*
X65330855Y-84511798D01*
X65266554Y-84433446D01*
X65155853Y-84342597D01*
X65029557Y-84275090D01*
X64892517Y-84233520D01*
X64750000Y-84219483D01*
X64607484Y-84233520D01*
X64470444Y-84275090D01*
X64344148Y-84342597D01*
X64233447Y-84433446D01*
X64142597Y-84544147D01*
X64125000Y-84577068D01*
X64107403Y-84544147D01*
X64016554Y-84433446D01*
X63905853Y-84342597D01*
X63779557Y-84275090D01*
X63642517Y-84233520D01*
X63500000Y-84219483D01*
X63357484Y-84233520D01*
X63220444Y-84275090D01*
X63102303Y-84338238D01*
X63099033Y-84332664D01*
X62962283Y-84178888D01*
X62798160Y-84054745D01*
X62612972Y-83965006D01*
X62536123Y-83955334D01*
X62377000Y-84083002D01*
X62123000Y-84083002D01*
X61963877Y-83955334D01*
X61887028Y-83965006D01*
X61701840Y-84054745D01*
X61537717Y-84178888D01*
X61400967Y-84332664D01*
X61397697Y-84338238D01*
X61279557Y-84275090D01*
X61142517Y-84233520D01*
X61000000Y-84219483D01*
X60857484Y-84233520D01*
X60720444Y-84275090D01*
X60594148Y-84342597D01*
X60483447Y-84433446D01*
X60392597Y-84544147D01*
X60325090Y-84670443D01*
X60283520Y-84807483D01*
X60273000Y-84914292D01*
X56828582Y-84914292D01*
X56828582Y-84750000D01*
X56818425Y-84646879D01*
X56788346Y-84547720D01*
X56739500Y-84456336D01*
X56673764Y-84376236D01*
X56593664Y-84310500D01*
X56502280Y-84261654D01*
X56403121Y-84231575D01*
X56300000Y-84221418D01*
X55900000Y-84221418D01*
X55796879Y-84231575D01*
X55697720Y-84261654D01*
X55606336Y-84310500D01*
X55526236Y-84376236D01*
X55460500Y-84456336D01*
X55430855Y-84511798D01*
X55366554Y-84433446D01*
X55255853Y-84342597D01*
X55129557Y-84275090D01*
X54992517Y-84233520D01*
X54850000Y-84219483D01*
X54707484Y-84233520D01*
X54570444Y-84275090D01*
X54444148Y-84342597D01*
X54333447Y-84433446D01*
X54242597Y-84544147D01*
X54225000Y-84577068D01*
X54207403Y-84544147D01*
X54116554Y-84433446D01*
X54005853Y-84342597D01*
X53879557Y-84275090D01*
X53742517Y-84233520D01*
X53600000Y-84219483D01*
X53457484Y-84233520D01*
X53320444Y-84275090D01*
X53194148Y-84342597D01*
X53083447Y-84433446D01*
X52992597Y-84544147D01*
X52975000Y-84577068D01*
X52957403Y-84544147D01*
X52866554Y-84433446D01*
X52755853Y-84342597D01*
X52629557Y-84275090D01*
X52492517Y-84233520D01*
X52350000Y-84219483D01*
X52207484Y-84233520D01*
X52070444Y-84275090D01*
X51952303Y-84338238D01*
X51949033Y-84332664D01*
X51812283Y-84178888D01*
X51648160Y-84054745D01*
X51462972Y-83965006D01*
X51386123Y-83955334D01*
X51227000Y-84083002D01*
X50973000Y-84083002D01*
X50813877Y-83955334D01*
X50737028Y-83965006D01*
X50551840Y-84054745D01*
X50387717Y-84178888D01*
X50250967Y-84332664D01*
X50247697Y-84338238D01*
X50129557Y-84275090D01*
X49992517Y-84233520D01*
X49850000Y-84219483D01*
X49707484Y-84233520D01*
X49570444Y-84275090D01*
X49444148Y-84342597D01*
X49333447Y-84433446D01*
X49242597Y-84544147D01*
X49175090Y-84670443D01*
X49133520Y-84807483D01*
X49123000Y-84914292D01*
X45678582Y-84914292D01*
X45678582Y-84750000D01*
X45668425Y-84646879D01*
X45638346Y-84547720D01*
X45589500Y-84456336D01*
X45523764Y-84376236D01*
X45443664Y-84310500D01*
X45352280Y-84261654D01*
X45253121Y-84231575D01*
X45150000Y-84221418D01*
X44750000Y-84221418D01*
X44646879Y-84231575D01*
X44547720Y-84261654D01*
X44456336Y-84310500D01*
X44376236Y-84376236D01*
X44310500Y-84456336D01*
X44280855Y-84511798D01*
X44216554Y-84433446D01*
X44105853Y-84342597D01*
X43979557Y-84275090D01*
X43842517Y-84233520D01*
X43700000Y-84219483D01*
X43557484Y-84233520D01*
X43420444Y-84275090D01*
X43294148Y-84342597D01*
X43183447Y-84433446D01*
X43092597Y-84544147D01*
X43075000Y-84577068D01*
X43057403Y-84544147D01*
X42966554Y-84433446D01*
X42855853Y-84342597D01*
X42729557Y-84275090D01*
X42592517Y-84233520D01*
X42450000Y-84219483D01*
X42307484Y-84233520D01*
X42170444Y-84275090D01*
X42052303Y-84338238D01*
X42049033Y-84332664D01*
X41912283Y-84178888D01*
X41748160Y-84054745D01*
X41562972Y-83965006D01*
X41486123Y-83955334D01*
X41327000Y-84083002D01*
X41073000Y-84083002D01*
X40913877Y-83955334D01*
X40837028Y-83965006D01*
X40651840Y-84054745D01*
X40487717Y-84178888D01*
X40350967Y-84332664D01*
X40347697Y-84338238D01*
X40229557Y-84275090D01*
X40092517Y-84233520D01*
X39950000Y-84219483D01*
X39807484Y-84233520D01*
X39670444Y-84275090D01*
X39544148Y-84342597D01*
X39433447Y-84433446D01*
X39342597Y-84544147D01*
X39275090Y-84670443D01*
X39233520Y-84807483D01*
X39223000Y-84914292D01*
X28152000Y-84914292D01*
X28152000Y-83007439D01*
X28206956Y-82446962D01*
X28367568Y-81914988D01*
X28628444Y-81424348D01*
X28639279Y-81411062D01*
X33597000Y-81411062D01*
X33597000Y-81588938D01*
X33631702Y-81763395D01*
X33699772Y-81927731D01*
X33798594Y-82075629D01*
X33924371Y-82201406D01*
X34072269Y-82300228D01*
X34236605Y-82368298D01*
X34411062Y-82403000D01*
X34588938Y-82403000D01*
X34763395Y-82368298D01*
X34927731Y-82300228D01*
X35075629Y-82201406D01*
X35201406Y-82075629D01*
X35300228Y-81927731D01*
X35368298Y-81763395D01*
X35403000Y-81588938D01*
X35403000Y-81411062D01*
X70597000Y-81411062D01*
X70597000Y-81588938D01*
X70631702Y-81763395D01*
X70699772Y-81927731D01*
X70798594Y-82075629D01*
X70924371Y-82201406D01*
X71072269Y-82300228D01*
X71236605Y-82368298D01*
X71411062Y-82403000D01*
X71588938Y-82403000D01*
X71763395Y-82368298D01*
X71927731Y-82300228D01*
X72075629Y-82201406D01*
X72201406Y-82075629D01*
X72300228Y-81927731D01*
X72368298Y-81763395D01*
X72403000Y-81588938D01*
X72403000Y-81411062D01*
X72368298Y-81236605D01*
X72300228Y-81072269D01*
X72201406Y-80924371D01*
X72075629Y-80798594D01*
X71927731Y-80699772D01*
X71763395Y-80631702D01*
X71588938Y-80597000D01*
X71411062Y-80597000D01*
X71236605Y-80631702D01*
X71072269Y-80699772D01*
X70924371Y-80798594D01*
X70798594Y-80924371D01*
X70699772Y-81072269D01*
X70631702Y-81236605D01*
X70597000Y-81411062D01*
X35403000Y-81411062D01*
X35368298Y-81236605D01*
X35300228Y-81072269D01*
X35201406Y-80924371D01*
X35075629Y-80798594D01*
X34927731Y-80699772D01*
X34763395Y-80631702D01*
X34588938Y-80597000D01*
X34411062Y-80597000D01*
X34236605Y-80631702D01*
X34072269Y-80699772D01*
X33924371Y-80798594D01*
X33798594Y-80924371D01*
X33699772Y-81072269D01*
X33631702Y-81236605D01*
X33597000Y-81411062D01*
X28639279Y-81411062D01*
X28979661Y-80993714D01*
X29407826Y-80639506D01*
X29896641Y-80375205D01*
X30427477Y-80210883D01*
X30987283Y-80152045D01*
X31000243Y-80152000D01*
X74992561Y-80152000D01*
X75553038Y-80206956D01*
%TA.AperFunction,Conductor*%
D23*
G36*
X75553038Y-80206956D02*
G01*
X76085012Y-80367568D01*
X76575652Y-80628444D01*
X77006286Y-80979661D01*
X77360494Y-81407826D01*
X77624795Y-81896641D01*
X77789117Y-82427477D01*
X77847955Y-82987283D01*
X77848001Y-83000530D01*
X77848000Y-141992562D01*
X77793044Y-142553038D01*
X77632432Y-143085012D01*
X77371552Y-143575657D01*
X77020336Y-144006288D01*
X76592177Y-144360493D01*
X76103358Y-144624796D01*
X75572523Y-144789117D01*
X75012717Y-144847955D01*
X74999757Y-144848000D01*
X31007438Y-144848000D01*
X30446962Y-144793044D01*
X29914988Y-144632432D01*
X29424343Y-144371552D01*
X28993712Y-144020336D01*
X28639507Y-143592177D01*
X28541579Y-143411062D01*
X33597000Y-143411062D01*
X33597000Y-143588938D01*
X33631702Y-143763395D01*
X33699772Y-143927731D01*
X33798594Y-144075629D01*
X33924371Y-144201406D01*
X34072269Y-144300228D01*
X34236605Y-144368298D01*
X34411062Y-144403000D01*
X34588938Y-144403000D01*
X34763395Y-144368298D01*
X34927731Y-144300228D01*
X35075629Y-144201406D01*
X35201406Y-144075629D01*
X35300228Y-143927731D01*
X35368298Y-143763395D01*
X35403000Y-143588938D01*
X35403000Y-143411062D01*
X35368298Y-143236605D01*
X35300228Y-143072269D01*
X35201406Y-142924371D01*
X35075629Y-142798594D01*
X34927731Y-142699772D01*
X34763395Y-142631702D01*
X34588938Y-142597000D01*
X34411062Y-142597000D01*
X34236605Y-142631702D01*
X34072269Y-142699772D01*
X33924371Y-142798594D01*
X33798594Y-142924371D01*
X33699772Y-143072269D01*
X33631702Y-143236605D01*
X33597000Y-143411062D01*
X28541579Y-143411062D01*
X28375204Y-143103358D01*
X28210883Y-142572523D01*
X28152045Y-142012717D01*
X28152000Y-141999757D01*
X28152000Y-139350000D01*
X47471418Y-139350000D01*
X47471418Y-140250000D01*
X47481575Y-140353121D01*
X47511654Y-140452280D01*
X47560500Y-140543664D01*
X47626236Y-140623764D01*
X47706336Y-140689500D01*
X47797720Y-140738346D01*
X47896879Y-140768425D01*
X48000000Y-140778582D01*
X48400000Y-140778582D01*
X48503121Y-140768425D01*
X48602280Y-140738346D01*
X48693664Y-140689500D01*
X48773764Y-140623764D01*
X48839500Y-140543664D01*
X48869145Y-140488202D01*
X48933447Y-140566554D01*
X49044148Y-140657403D01*
X49170444Y-140724910D01*
X49307484Y-140766480D01*
X49450000Y-140780517D01*
X49592517Y-140766480D01*
X49729557Y-140724910D01*
X49847697Y-140661762D01*
X49850967Y-140667336D01*
X49987717Y-140821112D01*
X50151840Y-140945255D01*
X50337028Y-141034994D01*
X50413877Y-141044666D01*
X50573000Y-140916998D01*
X50573000Y-139927000D01*
X50827000Y-139927000D01*
X50827000Y-140916998D01*
X50986123Y-141044666D01*
X51062972Y-141034994D01*
X51248160Y-140945255D01*
X51412283Y-140821112D01*
X51549033Y-140667336D01*
X51653155Y-140489836D01*
X51720648Y-140295433D01*
X51748918Y-140091599D01*
X51583762Y-139927000D01*
X50827000Y-139927000D01*
X50573000Y-139927000D01*
X50553000Y-139927000D01*
X50553000Y-139673000D01*
X50573000Y-139673000D01*
X50573000Y-138683002D01*
X50827000Y-138683002D01*
X50827000Y-139673000D01*
X51583762Y-139673000D01*
X51748918Y-139508401D01*
X51726950Y-139350000D01*
X54471418Y-139350000D01*
X54471418Y-140250000D01*
X54481575Y-140353121D01*
X54511654Y-140452280D01*
X54560500Y-140543664D01*
X54626236Y-140623764D01*
X54706336Y-140689500D01*
X54797720Y-140738346D01*
X54896879Y-140768425D01*
X55000000Y-140778582D01*
X55400000Y-140778582D01*
X55503121Y-140768425D01*
X55602280Y-140738346D01*
X55693664Y-140689500D01*
X55773764Y-140623764D01*
X55839500Y-140543664D01*
X55869145Y-140488202D01*
X55933447Y-140566554D01*
X56044148Y-140657403D01*
X56170444Y-140724910D01*
X56307484Y-140766480D01*
X56450000Y-140780517D01*
X56592517Y-140766480D01*
X56729557Y-140724910D01*
X56847697Y-140661762D01*
X56850967Y-140667336D01*
X56987717Y-140821112D01*
X57151840Y-140945255D01*
X57337028Y-141034994D01*
X57413877Y-141044666D01*
X57573000Y-140916998D01*
X57573000Y-139927000D01*
X57827000Y-139927000D01*
X57827000Y-140916998D01*
X57986123Y-141044666D01*
X58062972Y-141034994D01*
X58248160Y-140945255D01*
X58412283Y-140821112D01*
X58549033Y-140667336D01*
X58653155Y-140489836D01*
X58720648Y-140295433D01*
X58748918Y-140091599D01*
X58583762Y-139927000D01*
X57827000Y-139927000D01*
X57573000Y-139927000D01*
X57553000Y-139927000D01*
X57553000Y-139673000D01*
X57573000Y-139673000D01*
X57573000Y-138683002D01*
X57827000Y-138683002D01*
X57827000Y-139673000D01*
X58583762Y-139673000D01*
X58748918Y-139508401D01*
X58720648Y-139304567D01*
X58653155Y-139110164D01*
X58549033Y-138932664D01*
X58412283Y-138778888D01*
X58248160Y-138654745D01*
X58062972Y-138565006D01*
X57986123Y-138555334D01*
X57827000Y-138683002D01*
X57573000Y-138683002D01*
X57413877Y-138555334D01*
X57337028Y-138565006D01*
X57151840Y-138654745D01*
X56987717Y-138778888D01*
X56850967Y-138932664D01*
X56847697Y-138938238D01*
X56729556Y-138875090D01*
X56592516Y-138833520D01*
X56450000Y-138819483D01*
X56307483Y-138833520D01*
X56170443Y-138875090D01*
X56044147Y-138942597D01*
X55933446Y-139033447D01*
X55869145Y-139111798D01*
X55839500Y-139056336D01*
X55773764Y-138976236D01*
X55693664Y-138910500D01*
X55602280Y-138861654D01*
X55503121Y-138831575D01*
X55400000Y-138821418D01*
X55000000Y-138821418D01*
X54896879Y-138831575D01*
X54797720Y-138861654D01*
X54706336Y-138910500D01*
X54626236Y-138976236D01*
X54560500Y-139056336D01*
X54511654Y-139147720D01*
X54481575Y-139246879D01*
X54471418Y-139350000D01*
X51726950Y-139350000D01*
X51720648Y-139304567D01*
X51653155Y-139110164D01*
X51549033Y-138932664D01*
X51412283Y-138778888D01*
X51248160Y-138654745D01*
X51062972Y-138565006D01*
X50986123Y-138555334D01*
X50827000Y-138683002D01*
X50573000Y-138683002D01*
X50413877Y-138555334D01*
X50337028Y-138565006D01*
X50151840Y-138654745D01*
X49987717Y-138778888D01*
X49850967Y-138932664D01*
X49847697Y-138938238D01*
X49729556Y-138875090D01*
X49592516Y-138833520D01*
X49450000Y-138819483D01*
X49307483Y-138833520D01*
X49170443Y-138875090D01*
X49044147Y-138942597D01*
X48933446Y-139033447D01*
X48869145Y-139111798D01*
X48839500Y-139056336D01*
X48773764Y-138976236D01*
X48693664Y-138910500D01*
X48602280Y-138861654D01*
X48503121Y-138831575D01*
X48400000Y-138821418D01*
X48000000Y-138821418D01*
X47896879Y-138831575D01*
X47797720Y-138861654D01*
X47706336Y-138910500D01*
X47626236Y-138976236D01*
X47560500Y-139056336D01*
X47511654Y-139147720D01*
X47481575Y-139246879D01*
X47471418Y-139350000D01*
X28152000Y-139350000D01*
X28152000Y-132550000D01*
X30521418Y-132550000D01*
X30521418Y-134650000D01*
X30527732Y-134714103D01*
X30546430Y-134775743D01*
X30576794Y-134832550D01*
X30617657Y-134882343D01*
X30667450Y-134923206D01*
X30724257Y-134953570D01*
X30785897Y-134972268D01*
X30850000Y-134978582D01*
X31159650Y-134978582D01*
X31022213Y-135070414D01*
X30830414Y-135262213D01*
X30679718Y-135487746D01*
X30575917Y-135738344D01*
X30523000Y-136004377D01*
X30523000Y-136275623D01*
X30575917Y-136541656D01*
X30679718Y-136792254D01*
X30830414Y-137017787D01*
X31022213Y-137209586D01*
X31247746Y-137360282D01*
X31498344Y-137464083D01*
X31764377Y-137517000D01*
X32035623Y-137517000D01*
X32301656Y-137464083D01*
X32552254Y-137360282D01*
X32777787Y-137209586D01*
X32969586Y-137017787D01*
X33120282Y-136792254D01*
X33224083Y-136541656D01*
X33277000Y-136275623D01*
X33277000Y-136004377D01*
X33224083Y-135738344D01*
X33120282Y-135487746D01*
X32969586Y-135262213D01*
X32777787Y-135070414D01*
X32640350Y-134978582D01*
X32950000Y-134978582D01*
X33014103Y-134972268D01*
X33075743Y-134953570D01*
X33132550Y-134923206D01*
X33182343Y-134882343D01*
X33223206Y-134832550D01*
X33253570Y-134775743D01*
X33272268Y-134714103D01*
X33278582Y-134650000D01*
X33278582Y-133618397D01*
X64353000Y-133618397D01*
X64353000Y-133761603D01*
X64380938Y-133902058D01*
X64435741Y-134034364D01*
X64499000Y-134129039D01*
X64499001Y-135435859D01*
X64465741Y-135485636D01*
X64410938Y-135617942D01*
X64383000Y-135758397D01*
X64383000Y-135901603D01*
X64410938Y-136042058D01*
X64465741Y-136174364D01*
X64545302Y-136293436D01*
X64646564Y-136394698D01*
X64765636Y-136474259D01*
X64897942Y-136529062D01*
X65038397Y-136557000D01*
X65181603Y-136557000D01*
X65322058Y-136529062D01*
X65454364Y-136474259D01*
X65573436Y-136394698D01*
X65674698Y-136293436D01*
X65754259Y-136174364D01*
X65809062Y-136042058D01*
X65837000Y-135901603D01*
X65837000Y-135758397D01*
X65809062Y-135617942D01*
X65754259Y-135485636D01*
X65674698Y-135366564D01*
X65661000Y-135352866D01*
X65661000Y-134713000D01*
X72721418Y-134713000D01*
X72721418Y-136813000D01*
X72727732Y-136877103D01*
X72746430Y-136938743D01*
X72776794Y-136995550D01*
X72817657Y-137045343D01*
X72867450Y-137086206D01*
X72924257Y-137116570D01*
X72985897Y-137135268D01*
X73050000Y-137141582D01*
X75150000Y-137141582D01*
X75214103Y-137135268D01*
X75275743Y-137116570D01*
X75332550Y-137086206D01*
X75382343Y-137045343D01*
X75423206Y-136995550D01*
X75453570Y-136938743D01*
X75472268Y-136877103D01*
X75478582Y-136813000D01*
X75478582Y-134713000D01*
X75472268Y-134648897D01*
X75453570Y-134587257D01*
X75423206Y-134530450D01*
X75382343Y-134480657D01*
X75332550Y-134439794D01*
X75275743Y-134409430D01*
X75214103Y-134390732D01*
X75150000Y-134384418D01*
X74840350Y-134384418D01*
X74977787Y-134292586D01*
X75169586Y-134100787D01*
X75320282Y-133875254D01*
X75424083Y-133624656D01*
X75477000Y-133358623D01*
X75477000Y-133087377D01*
X75424083Y-132821344D01*
X75320282Y-132570746D01*
X75169586Y-132345213D01*
X74977787Y-132153414D01*
X74752254Y-132002718D01*
X74501656Y-131898917D01*
X74235623Y-131846000D01*
X73964377Y-131846000D01*
X73698344Y-131898917D01*
X73447746Y-132002718D01*
X73222213Y-132153414D01*
X73030414Y-132345213D01*
X72879718Y-132570746D01*
X72775917Y-132821344D01*
X72723000Y-133087377D01*
X72723000Y-133358623D01*
X72775917Y-133624656D01*
X72879718Y-133875254D01*
X73030414Y-134100787D01*
X73222213Y-134292586D01*
X73359650Y-134384418D01*
X73050000Y-134384418D01*
X72985897Y-134390732D01*
X72924257Y-134409430D01*
X72867450Y-134439794D01*
X72817657Y-134480657D01*
X72776794Y-134530450D01*
X72746430Y-134587257D01*
X72727732Y-134648897D01*
X72721418Y-134713000D01*
X65661000Y-134713000D01*
X65661000Y-134129038D01*
X65724259Y-134034364D01*
X65779062Y-133902058D01*
X65807000Y-133761603D01*
X65807000Y-133618397D01*
X65779062Y-133477942D01*
X65724259Y-133345636D01*
X65644698Y-133226564D01*
X65543436Y-133125302D01*
X65424364Y-133045741D01*
X65292058Y-132990938D01*
X65151603Y-132963000D01*
X65008397Y-132963000D01*
X64867942Y-132990938D01*
X64735636Y-133045741D01*
X64616564Y-133125302D01*
X64515302Y-133226564D01*
X64435741Y-133345636D01*
X64380938Y-133477942D01*
X64353000Y-133618397D01*
X33278582Y-133618397D01*
X33278582Y-132550000D01*
X33272268Y-132485897D01*
X33253570Y-132424257D01*
X33223206Y-132367450D01*
X33182343Y-132317657D01*
X33132550Y-132276794D01*
X33075743Y-132246430D01*
X33014103Y-132227732D01*
X32950000Y-132221418D01*
X30850000Y-132221418D01*
X30785897Y-132227732D01*
X30724257Y-132246430D01*
X30667450Y-132276794D01*
X30617657Y-132317657D01*
X30576794Y-132367450D01*
X30546430Y-132424257D01*
X30527732Y-132485897D01*
X30521418Y-132550000D01*
X28152000Y-132550000D01*
X28152000Y-125850000D01*
X30521418Y-125850000D01*
X30521418Y-127950000D01*
X30527732Y-128014103D01*
X30546430Y-128075743D01*
X30576794Y-128132550D01*
X30617657Y-128182343D01*
X30667450Y-128223206D01*
X30724257Y-128253570D01*
X30785897Y-128272268D01*
X30850000Y-128278582D01*
X31159650Y-128278582D01*
X31022213Y-128370414D01*
X30830414Y-128562213D01*
X30679718Y-128787746D01*
X30575917Y-129038344D01*
X30523000Y-129304377D01*
X30523000Y-129575623D01*
X30575917Y-129841656D01*
X30679718Y-130092254D01*
X30830414Y-130317787D01*
X31022213Y-130509586D01*
X31247746Y-130660282D01*
X31498344Y-130764083D01*
X31764377Y-130817000D01*
X32035623Y-130817000D01*
X32301656Y-130764083D01*
X32552254Y-130660282D01*
X32749634Y-130528397D01*
X38473000Y-130528397D01*
X38473000Y-130671603D01*
X38500938Y-130812058D01*
X38555741Y-130944364D01*
X38635302Y-131063436D01*
X38736564Y-131164698D01*
X38855636Y-131244259D01*
X38987942Y-131299062D01*
X39128397Y-131327000D01*
X39271603Y-131327000D01*
X39412058Y-131299062D01*
X39544364Y-131244259D01*
X39639038Y-131181000D01*
X42660962Y-131181000D01*
X42755636Y-131244259D01*
X42887942Y-131299062D01*
X43028397Y-131327000D01*
X43171603Y-131327000D01*
X43312058Y-131299062D01*
X43337805Y-131288397D01*
X62073000Y-131288397D01*
X62073000Y-131431603D01*
X62100938Y-131572058D01*
X62155741Y-131704364D01*
X62235302Y-131823436D01*
X62336564Y-131924698D01*
X62455636Y-132004259D01*
X62587942Y-132059062D01*
X62728397Y-132087000D01*
X62871603Y-132087000D01*
X63012058Y-132059062D01*
X63144364Y-132004259D01*
X63239038Y-131941000D01*
X64640962Y-131941000D01*
X64735636Y-132004259D01*
X64867942Y-132059062D01*
X65008397Y-132087000D01*
X65151603Y-132087000D01*
X65292058Y-132059062D01*
X65424364Y-132004259D01*
X65543436Y-131924698D01*
X65644698Y-131823436D01*
X65724259Y-131704364D01*
X65779062Y-131572058D01*
X65807000Y-131431603D01*
X65807000Y-131288397D01*
X65779062Y-131147942D01*
X65724259Y-131015636D01*
X65644698Y-130896564D01*
X65543436Y-130795302D01*
X65424364Y-130715741D01*
X65292058Y-130660938D01*
X65151603Y-130633000D01*
X65008397Y-130633000D01*
X64867942Y-130660938D01*
X64735636Y-130715741D01*
X64640962Y-130779000D01*
X63239038Y-130779000D01*
X63144364Y-130715741D01*
X63012058Y-130660938D01*
X62871603Y-130633000D01*
X62728397Y-130633000D01*
X62587942Y-130660938D01*
X62455636Y-130715741D01*
X62336564Y-130795302D01*
X62235302Y-130896564D01*
X62155741Y-131015636D01*
X62100938Y-131147942D01*
X62073000Y-131288397D01*
X43337805Y-131288397D01*
X43444364Y-131244259D01*
X43563436Y-131164698D01*
X43664698Y-131063436D01*
X43744259Y-130944364D01*
X43799062Y-130812058D01*
X43827000Y-130671603D01*
X43827000Y-130528397D01*
X43799062Y-130387942D01*
X43744259Y-130255636D01*
X43664698Y-130136564D01*
X43563436Y-130035302D01*
X43444364Y-129955741D01*
X43312058Y-129900938D01*
X43171603Y-129873000D01*
X43028397Y-129873000D01*
X42887942Y-129900938D01*
X42755636Y-129955741D01*
X42660962Y-130019000D01*
X39639038Y-130019000D01*
X39544364Y-129955741D01*
X39412058Y-129900938D01*
X39271603Y-129873000D01*
X39128397Y-129873000D01*
X38987942Y-129900938D01*
X38855636Y-129955741D01*
X38736564Y-130035302D01*
X38635302Y-130136564D01*
X38555741Y-130255636D01*
X38500938Y-130387942D01*
X38473000Y-130528397D01*
X32749634Y-130528397D01*
X32777787Y-130509586D01*
X32969586Y-130317787D01*
X33120282Y-130092254D01*
X33224083Y-129841656D01*
X33277000Y-129575623D01*
X33277000Y-129304377D01*
X33224083Y-129038344D01*
X33120282Y-128787746D01*
X32969586Y-128562213D01*
X32777787Y-128370414D01*
X32640350Y-128278582D01*
X32950000Y-128278582D01*
X33014103Y-128272268D01*
X33075743Y-128253570D01*
X33132550Y-128223206D01*
X33182343Y-128182343D01*
X33223206Y-128132550D01*
X33253570Y-128075743D01*
X33272268Y-128014103D01*
X33274642Y-127990000D01*
X72721418Y-127990000D01*
X72721418Y-130090000D01*
X72727732Y-130154103D01*
X72746430Y-130215743D01*
X72776794Y-130272550D01*
X72817657Y-130322343D01*
X72867450Y-130363206D01*
X72924257Y-130393570D01*
X72985897Y-130412268D01*
X73050000Y-130418582D01*
X75150000Y-130418582D01*
X75214103Y-130412268D01*
X75275743Y-130393570D01*
X75332550Y-130363206D01*
X75382343Y-130322343D01*
X75423206Y-130272550D01*
X75453570Y-130215743D01*
X75472268Y-130154103D01*
X75478582Y-130090000D01*
X75478582Y-127990000D01*
X75472268Y-127925897D01*
X75453570Y-127864257D01*
X75423206Y-127807450D01*
X75382343Y-127757657D01*
X75332550Y-127716794D01*
X75275743Y-127686430D01*
X75214103Y-127667732D01*
X75150000Y-127661418D01*
X74840350Y-127661418D01*
X74977787Y-127569586D01*
X75169586Y-127377787D01*
X75320282Y-127152254D01*
X75424083Y-126901656D01*
X75477000Y-126635623D01*
X75477000Y-126364377D01*
X75424083Y-126098344D01*
X75320282Y-125847746D01*
X75169586Y-125622213D01*
X74977787Y-125430414D01*
X74752254Y-125279718D01*
X74501656Y-125175917D01*
X74235623Y-125123000D01*
X73964377Y-125123000D01*
X73698344Y-125175917D01*
X73447746Y-125279718D01*
X73222213Y-125430414D01*
X73030414Y-125622213D01*
X72879718Y-125847746D01*
X72775917Y-126098344D01*
X72723000Y-126364377D01*
X72723000Y-126635623D01*
X72775917Y-126901656D01*
X72879718Y-127152254D01*
X73030414Y-127377787D01*
X73222213Y-127569586D01*
X73359650Y-127661418D01*
X73050000Y-127661418D01*
X72985897Y-127667732D01*
X72924257Y-127686430D01*
X72867450Y-127716794D01*
X72817657Y-127757657D01*
X72776794Y-127807450D01*
X72746430Y-127864257D01*
X72727732Y-127925897D01*
X72721418Y-127990000D01*
X33274642Y-127990000D01*
X33278582Y-127950000D01*
X33278582Y-125850000D01*
X33272268Y-125785897D01*
X33253570Y-125724257D01*
X33223206Y-125667450D01*
X33182343Y-125617657D01*
X33132550Y-125576794D01*
X33075743Y-125546430D01*
X33014103Y-125527732D01*
X32950000Y-125521418D01*
X30850000Y-125521418D01*
X30785897Y-125527732D01*
X30724257Y-125546430D01*
X30667450Y-125576794D01*
X30617657Y-125617657D01*
X30576794Y-125667450D01*
X30546430Y-125724257D01*
X30527732Y-125785897D01*
X30521418Y-125850000D01*
X28152000Y-125850000D01*
X28152000Y-122684076D01*
X30783000Y-122684076D01*
X30783000Y-122915924D01*
X30828231Y-123143318D01*
X30916956Y-123357519D01*
X31045764Y-123550294D01*
X31209706Y-123714236D01*
X31402481Y-123843044D01*
X31616682Y-123931769D01*
X31844076Y-123977000D01*
X32075924Y-123977000D01*
X32303318Y-123931769D01*
X32517519Y-123843044D01*
X32710294Y-123714236D01*
X32874236Y-123550294D01*
X33003044Y-123357519D01*
X33091769Y-123143318D01*
X33137000Y-122915924D01*
X33137000Y-122684076D01*
X33091769Y-122456682D01*
X33003044Y-122242481D01*
X32874236Y-122049706D01*
X32774530Y-121950000D01*
X33321418Y-121950000D01*
X33321418Y-123650000D01*
X33327732Y-123714103D01*
X33346430Y-123775743D01*
X33376794Y-123832550D01*
X33417657Y-123882343D01*
X33467450Y-123923206D01*
X33524257Y-123953570D01*
X33585897Y-123972268D01*
X33650000Y-123978582D01*
X35350000Y-123978582D01*
X35414103Y-123972268D01*
X35475743Y-123953570D01*
X35532550Y-123923206D01*
X35582343Y-123882343D01*
X35623206Y-123832550D01*
X35653570Y-123775743D01*
X35672268Y-123714103D01*
X35678582Y-123650000D01*
X35678582Y-123250000D01*
X49911928Y-123250000D01*
X49924188Y-123374482D01*
X49960498Y-123494180D01*
X50019463Y-123604494D01*
X50098815Y-123701185D01*
X50195506Y-123780537D01*
X50305820Y-123839502D01*
X50425518Y-123875812D01*
X50550000Y-123888072D01*
X51114250Y-123885000D01*
X51273000Y-123726250D01*
X51273000Y-122527000D01*
X50073750Y-122527000D01*
X49915000Y-122685750D01*
X49911928Y-123250000D01*
X35678582Y-123250000D01*
X35678582Y-121950000D01*
X35672268Y-121885897D01*
X35653570Y-121824257D01*
X35623206Y-121767450D01*
X35582343Y-121717657D01*
X35532550Y-121676794D01*
X35475743Y-121646430D01*
X35414103Y-121627732D01*
X35350000Y-121621418D01*
X33650000Y-121621418D01*
X33585897Y-121627732D01*
X33524257Y-121646430D01*
X33467450Y-121676794D01*
X33417657Y-121717657D01*
X33376794Y-121767450D01*
X33346430Y-121824257D01*
X33327732Y-121885897D01*
X33321418Y-121950000D01*
X32774530Y-121950000D01*
X32710294Y-121885764D01*
X32517519Y-121756956D01*
X32303318Y-121668231D01*
X32075924Y-121623000D01*
X31844076Y-121623000D01*
X31616682Y-121668231D01*
X31402481Y-121756956D01*
X31209706Y-121885764D01*
X31045764Y-122049706D01*
X30916956Y-122242481D01*
X30828231Y-122456682D01*
X30783000Y-122684076D01*
X28152000Y-122684076D01*
X28152000Y-121550000D01*
X49911928Y-121550000D01*
X49915000Y-122114250D01*
X50073750Y-122273000D01*
X51273000Y-122273000D01*
X51273000Y-121073750D01*
X51527000Y-121073750D01*
X51527000Y-122273000D01*
X51547000Y-122273000D01*
X51547000Y-122527000D01*
X51527000Y-122527000D01*
X51527000Y-123726250D01*
X51685750Y-123885000D01*
X52250000Y-123888072D01*
X52374482Y-123875812D01*
X52494180Y-123839502D01*
X52604494Y-123780537D01*
X52701185Y-123701185D01*
X52780537Y-123604494D01*
X52839502Y-123494180D01*
X52875812Y-123374482D01*
X52888072Y-123250000D01*
X52886340Y-122931890D01*
X52896956Y-122957519D01*
X53025764Y-123150294D01*
X53189706Y-123314236D01*
X53382481Y-123443044D01*
X53596682Y-123531769D01*
X53824076Y-123577000D01*
X54055924Y-123577000D01*
X54283318Y-123531769D01*
X54497519Y-123443044D01*
X54690294Y-123314236D01*
X54854236Y-123150294D01*
X54983044Y-122957519D01*
X55071769Y-122743318D01*
X55117000Y-122515924D01*
X55117000Y-122284076D01*
X55071769Y-122056682D01*
X54983044Y-121842481D01*
X54970747Y-121824076D01*
X74123000Y-121824076D01*
X74123000Y-122055924D01*
X74168231Y-122283318D01*
X74256956Y-122497519D01*
X74385764Y-122690294D01*
X74549706Y-122854236D01*
X74742481Y-122983044D01*
X74956682Y-123071769D01*
X75184076Y-123117000D01*
X75415924Y-123117000D01*
X75643318Y-123071769D01*
X75857519Y-122983044D01*
X76050294Y-122854236D01*
X76214236Y-122690294D01*
X76343044Y-122497519D01*
X76431769Y-122283318D01*
X76477000Y-122055924D01*
X76477000Y-121824076D01*
X76431769Y-121596682D01*
X76343044Y-121382481D01*
X76214236Y-121189706D01*
X76050294Y-121025764D01*
X75857519Y-120896956D01*
X75643318Y-120808231D01*
X75415924Y-120763000D01*
X75184076Y-120763000D01*
X74956682Y-120808231D01*
X74742481Y-120896956D01*
X74549706Y-121025764D01*
X74385764Y-121189706D01*
X74256956Y-121382481D01*
X74168231Y-121596682D01*
X74123000Y-121824076D01*
X54970747Y-121824076D01*
X54854236Y-121649706D01*
X54690294Y-121485764D01*
X54497519Y-121356956D01*
X54283318Y-121268231D01*
X54055924Y-121223000D01*
X53824076Y-121223000D01*
X53596682Y-121268231D01*
X53382481Y-121356956D01*
X53189706Y-121485764D01*
X53025764Y-121649706D01*
X52896956Y-121842481D01*
X52886340Y-121868110D01*
X52888072Y-121550000D01*
X52875812Y-121425518D01*
X52839502Y-121305820D01*
X52780537Y-121195506D01*
X52701185Y-121098815D01*
X52604494Y-121019463D01*
X52494180Y-120960498D01*
X52374482Y-120924188D01*
X52250000Y-120911928D01*
X51685750Y-120915000D01*
X51527000Y-121073750D01*
X51273000Y-121073750D01*
X51114250Y-120915000D01*
X50550000Y-120911928D01*
X50425518Y-120924188D01*
X50305820Y-120960498D01*
X50195506Y-121019463D01*
X50098815Y-121098815D01*
X50019463Y-121195506D01*
X49960498Y-121305820D01*
X49924188Y-121425518D01*
X49911928Y-121550000D01*
X28152000Y-121550000D01*
X28152000Y-118830000D01*
X45421418Y-118830000D01*
X45421418Y-120530000D01*
X45427732Y-120594103D01*
X45446430Y-120655743D01*
X45476794Y-120712550D01*
X45517657Y-120762343D01*
X45567450Y-120803206D01*
X45624257Y-120833570D01*
X45685897Y-120852268D01*
X45750000Y-120858582D01*
X47450000Y-120858582D01*
X47514103Y-120852268D01*
X47575743Y-120833570D01*
X47632550Y-120803206D01*
X47682343Y-120762343D01*
X47723206Y-120712550D01*
X47753570Y-120655743D01*
X47772268Y-120594103D01*
X47778582Y-120530000D01*
X47778582Y-118830000D01*
X47772268Y-118765897D01*
X47753570Y-118704257D01*
X47723206Y-118647450D01*
X47682343Y-118597657D01*
X47632550Y-118556794D01*
X47619840Y-118550000D01*
X74121418Y-118550000D01*
X74121418Y-120250000D01*
X74127732Y-120314103D01*
X74146430Y-120375743D01*
X74176794Y-120432550D01*
X74217657Y-120482343D01*
X74267450Y-120523206D01*
X74324257Y-120553570D01*
X74385897Y-120572268D01*
X74450000Y-120578582D01*
X76150000Y-120578582D01*
X76214103Y-120572268D01*
X76275743Y-120553570D01*
X76332550Y-120523206D01*
X76382343Y-120482343D01*
X76423206Y-120432550D01*
X76453570Y-120375743D01*
X76472268Y-120314103D01*
X76478582Y-120250000D01*
X76478582Y-118550000D01*
X76472268Y-118485897D01*
X76453570Y-118424257D01*
X76423206Y-118367450D01*
X76382343Y-118317657D01*
X76332550Y-118276794D01*
X76275743Y-118246430D01*
X76214103Y-118227732D01*
X76150000Y-118221418D01*
X74450000Y-118221418D01*
X74385897Y-118227732D01*
X74324257Y-118246430D01*
X74267450Y-118276794D01*
X74217657Y-118317657D01*
X74176794Y-118367450D01*
X74146430Y-118424257D01*
X74127732Y-118485897D01*
X74121418Y-118550000D01*
X47619840Y-118550000D01*
X47575743Y-118526430D01*
X47514103Y-118507732D01*
X47450000Y-118501418D01*
X45750000Y-118501418D01*
X45685897Y-118507732D01*
X45624257Y-118526430D01*
X45567450Y-118556794D01*
X45517657Y-118597657D01*
X45476794Y-118647450D01*
X45446430Y-118704257D01*
X45427732Y-118765897D01*
X45421418Y-118830000D01*
X28152000Y-118830000D01*
X28152000Y-115328397D01*
X30873000Y-115328397D01*
X30873000Y-115471603D01*
X30900938Y-115612058D01*
X30955741Y-115744364D01*
X31035302Y-115863436D01*
X31136564Y-115964698D01*
X31255636Y-116044259D01*
X31387942Y-116099062D01*
X31528397Y-116127000D01*
X31671603Y-116127000D01*
X31812058Y-116099062D01*
X31944364Y-116044259D01*
X32063436Y-115964698D01*
X32164698Y-115863436D01*
X32171003Y-115854000D01*
X33528997Y-115854000D01*
X33535302Y-115863436D01*
X33636564Y-115964698D01*
X33755636Y-116044259D01*
X33887942Y-116099062D01*
X34028397Y-116127000D01*
X34171603Y-116127000D01*
X34265516Y-116108320D01*
X34257871Y-116185933D01*
X34266637Y-116274932D01*
X34292597Y-116360512D01*
X34294282Y-116363665D01*
X33282734Y-117375214D01*
X33271603Y-117373000D01*
X33128397Y-117373000D01*
X32987942Y-117400938D01*
X32855636Y-117455741D01*
X32736564Y-117535302D01*
X32635302Y-117636564D01*
X32555741Y-117755636D01*
X32500938Y-117887942D01*
X32473000Y-118028397D01*
X32473000Y-118171603D01*
X32500938Y-118312058D01*
X32555741Y-118444364D01*
X32635302Y-118563436D01*
X32736564Y-118664698D01*
X32855636Y-118744259D01*
X32987942Y-118799062D01*
X33128397Y-118827000D01*
X33271603Y-118827000D01*
X33412058Y-118799062D01*
X33544364Y-118744259D01*
X33663436Y-118664698D01*
X33764698Y-118563436D01*
X33844259Y-118444364D01*
X33899062Y-118312058D01*
X33927000Y-118171603D01*
X33927000Y-118028397D01*
X33924786Y-118017266D01*
X34917976Y-117024076D01*
X45423000Y-117024076D01*
X45423000Y-117255924D01*
X45468231Y-117483318D01*
X45556956Y-117697519D01*
X45685764Y-117890294D01*
X45849706Y-118054236D01*
X46042481Y-118183044D01*
X46256682Y-118271769D01*
X46484076Y-118317000D01*
X46715924Y-118317000D01*
X46943318Y-118271769D01*
X47157519Y-118183044D01*
X47350294Y-118054236D01*
X47514236Y-117890294D01*
X47643044Y-117697519D01*
X47731769Y-117483318D01*
X47777000Y-117255924D01*
X47777000Y-117024076D01*
X47731769Y-116796682D01*
X47643044Y-116582481D01*
X47514236Y-116389706D01*
X47350294Y-116225764D01*
X47157519Y-116096956D01*
X46943318Y-116008231D01*
X46715924Y-115963000D01*
X46484076Y-115963000D01*
X46256682Y-116008231D01*
X46042481Y-116096956D01*
X45849706Y-116225764D01*
X45685764Y-116389706D01*
X45556956Y-116582481D01*
X45468231Y-116796682D01*
X45423000Y-117024076D01*
X34917976Y-117024076D01*
X35017267Y-116924786D01*
X35028397Y-116927000D01*
X35171603Y-116927000D01*
X35312058Y-116899062D01*
X35444364Y-116844259D01*
X35563436Y-116764698D01*
X35664698Y-116663436D01*
X35744259Y-116544364D01*
X35799062Y-116412058D01*
X35827000Y-116271603D01*
X35827000Y-116128397D01*
X35799062Y-115987942D01*
X35744259Y-115855636D01*
X35664698Y-115736564D01*
X35563436Y-115635302D01*
X35444364Y-115555741D01*
X35312058Y-115500938D01*
X35171603Y-115473000D01*
X35028397Y-115473000D01*
X34887942Y-115500938D01*
X34815169Y-115531082D01*
X34827000Y-115471603D01*
X34827000Y-115328397D01*
X34799062Y-115187942D01*
X34744259Y-115055636D01*
X34664698Y-114936564D01*
X34563436Y-114835302D01*
X34444364Y-114755741D01*
X34312058Y-114700938D01*
X34171603Y-114673000D01*
X34028397Y-114673000D01*
X33887942Y-114700938D01*
X33755636Y-114755741D01*
X33636564Y-114835302D01*
X33535302Y-114936564D01*
X33528997Y-114946000D01*
X32171003Y-114946000D01*
X32164698Y-114936564D01*
X32063436Y-114835302D01*
X31944364Y-114755741D01*
X31812058Y-114700938D01*
X31671603Y-114673000D01*
X31528397Y-114673000D01*
X31387942Y-114700938D01*
X31255636Y-114755741D01*
X31136564Y-114835302D01*
X31035302Y-114936564D01*
X30955741Y-115055636D01*
X30900938Y-115187942D01*
X30873000Y-115328397D01*
X28152000Y-115328397D01*
X28152000Y-114484076D01*
X45423000Y-114484076D01*
X45423000Y-114715924D01*
X45468231Y-114943318D01*
X45556956Y-115157519D01*
X45685764Y-115350294D01*
X45849706Y-115514236D01*
X46042481Y-115643044D01*
X46256682Y-115731769D01*
X46484076Y-115777000D01*
X46715924Y-115777000D01*
X46943318Y-115731769D01*
X47157519Y-115643044D01*
X47350294Y-115514236D01*
X47514236Y-115350294D01*
X47643044Y-115157519D01*
X47731769Y-114943318D01*
X47777000Y-114715924D01*
X47777000Y-114484076D01*
X47731769Y-114256682D01*
X47729001Y-114249999D01*
X69796418Y-114249999D01*
X69796418Y-114950001D01*
X69807535Y-115062877D01*
X69840460Y-115171414D01*
X69893926Y-115271443D01*
X69965880Y-115359120D01*
X70053557Y-115431074D01*
X70153586Y-115484540D01*
X70262123Y-115517465D01*
X70374999Y-115528582D01*
X71625001Y-115528582D01*
X71737877Y-115517465D01*
X71846414Y-115484540D01*
X71946443Y-115431074D01*
X72034120Y-115359120D01*
X72106074Y-115271443D01*
X72159540Y-115171414D01*
X72192465Y-115062877D01*
X72203582Y-114950001D01*
X72203582Y-114249999D01*
X72192465Y-114137123D01*
X72159540Y-114028586D01*
X72106074Y-113928557D01*
X72034120Y-113840880D01*
X71946443Y-113768926D01*
X71846414Y-113715460D01*
X71737877Y-113682535D01*
X71625001Y-113671418D01*
X70374999Y-113671418D01*
X70262123Y-113682535D01*
X70153586Y-113715460D01*
X70053557Y-113768926D01*
X69965880Y-113840880D01*
X69893926Y-113928557D01*
X69840460Y-114028586D01*
X69807535Y-114137123D01*
X69796418Y-114249999D01*
X47729001Y-114249999D01*
X47643044Y-114042481D01*
X47514236Y-113849706D01*
X47350294Y-113685764D01*
X47157519Y-113556956D01*
X46943318Y-113468231D01*
X46715924Y-113423000D01*
X46484076Y-113423000D01*
X46256682Y-113468231D01*
X46042481Y-113556956D01*
X45849706Y-113685764D01*
X45685764Y-113849706D01*
X45556956Y-114042481D01*
X45468231Y-114256682D01*
X45423000Y-114484076D01*
X28152000Y-114484076D01*
X28152000Y-111928397D01*
X34473000Y-111928397D01*
X34473000Y-112071603D01*
X34500938Y-112212058D01*
X34555741Y-112344364D01*
X34635302Y-112463436D01*
X34736564Y-112564698D01*
X34855636Y-112644259D01*
X34987942Y-112699062D01*
X35128397Y-112727000D01*
X35271603Y-112727000D01*
X35412058Y-112699062D01*
X35544364Y-112644259D01*
X35663436Y-112564698D01*
X35764698Y-112463436D01*
X35771003Y-112454000D01*
X39928997Y-112454000D01*
X39935302Y-112463436D01*
X40036564Y-112564698D01*
X40155636Y-112644259D01*
X40287942Y-112699062D01*
X40428397Y-112727000D01*
X40571603Y-112727000D01*
X40712058Y-112699062D01*
X40844364Y-112644259D01*
X40910602Y-112600000D01*
X69793515Y-112600000D01*
X69811413Y-112781724D01*
X69864420Y-112956464D01*
X69950499Y-113117505D01*
X70066341Y-113258659D01*
X70207495Y-113374501D01*
X70368536Y-113460580D01*
X70543276Y-113513587D01*
X70679462Y-113527000D01*
X71320538Y-113527000D01*
X71456724Y-113513587D01*
X71631464Y-113460580D01*
X71792505Y-113374501D01*
X71933659Y-113258659D01*
X72049501Y-113117505D01*
X72135580Y-112956464D01*
X72188587Y-112781724D01*
X72206485Y-112600000D01*
X72188587Y-112418276D01*
X72135580Y-112243536D01*
X72049501Y-112082495D01*
X71933659Y-111941341D01*
X71792505Y-111825499D01*
X71631464Y-111739420D01*
X71456724Y-111686413D01*
X71320538Y-111673000D01*
X70679462Y-111673000D01*
X70543276Y-111686413D01*
X70368536Y-111739420D01*
X70207495Y-111825499D01*
X70066341Y-111941341D01*
X69950499Y-112082495D01*
X69864420Y-112243536D01*
X69811413Y-112418276D01*
X69793515Y-112600000D01*
X40910602Y-112600000D01*
X40963436Y-112564698D01*
X41064698Y-112463436D01*
X41144259Y-112344364D01*
X41199062Y-112212058D01*
X41227000Y-112071603D01*
X41227000Y-111928397D01*
X41199062Y-111787942D01*
X41144259Y-111655636D01*
X41064698Y-111536564D01*
X40963436Y-111435302D01*
X40844364Y-111355741D01*
X40712058Y-111300938D01*
X40571603Y-111273000D01*
X40428397Y-111273000D01*
X40287942Y-111300938D01*
X40155636Y-111355741D01*
X40036564Y-111435302D01*
X39935302Y-111536564D01*
X39928997Y-111546000D01*
X35771003Y-111546000D01*
X35764698Y-111536564D01*
X35663436Y-111435302D01*
X35544364Y-111355741D01*
X35412058Y-111300938D01*
X35271603Y-111273000D01*
X35128397Y-111273000D01*
X34987942Y-111300938D01*
X34855636Y-111355741D01*
X34736564Y-111435302D01*
X34635302Y-111536564D01*
X34555741Y-111655636D01*
X34500938Y-111787942D01*
X34473000Y-111928397D01*
X28152000Y-111928397D01*
X28152000Y-108690000D01*
X40021418Y-108690000D01*
X40021418Y-110390000D01*
X40027732Y-110454103D01*
X40046430Y-110515743D01*
X40076794Y-110572550D01*
X40117657Y-110622343D01*
X40167450Y-110663206D01*
X40224257Y-110693570D01*
X40285897Y-110712268D01*
X40350000Y-110718582D01*
X42050000Y-110718582D01*
X42114103Y-110712268D01*
X42175743Y-110693570D01*
X42232550Y-110663206D01*
X42282343Y-110622343D01*
X42323206Y-110572550D01*
X42353570Y-110515743D01*
X42372268Y-110454103D01*
X42378582Y-110390000D01*
X42378582Y-108690000D01*
X42372268Y-108625897D01*
X42353570Y-108564257D01*
X42323206Y-108507450D01*
X42282343Y-108457657D01*
X42232550Y-108416794D01*
X42175743Y-108386430D01*
X42114103Y-108367732D01*
X42050000Y-108361418D01*
X40350000Y-108361418D01*
X40285897Y-108367732D01*
X40224257Y-108386430D01*
X40167450Y-108416794D01*
X40117657Y-108457657D01*
X40076794Y-108507450D01*
X40046430Y-108564257D01*
X40027732Y-108625897D01*
X40021418Y-108690000D01*
X28152000Y-108690000D01*
X28152000Y-106884076D01*
X40023000Y-106884076D01*
X40023000Y-107115924D01*
X40068231Y-107343318D01*
X40156956Y-107557519D01*
X40285764Y-107750294D01*
X40449706Y-107914236D01*
X40642481Y-108043044D01*
X40856682Y-108131769D01*
X41084076Y-108177000D01*
X41315924Y-108177000D01*
X41543318Y-108131769D01*
X41757519Y-108043044D01*
X41950294Y-107914236D01*
X42114236Y-107750294D01*
X42243044Y-107557519D01*
X42331769Y-107343318D01*
X42377000Y-107115924D01*
X42377000Y-106884076D01*
X42331769Y-106656682D01*
X42243044Y-106442481D01*
X42114236Y-106249706D01*
X41950294Y-106085764D01*
X41757519Y-105956956D01*
X41543318Y-105868231D01*
X41315924Y-105823000D01*
X41084076Y-105823000D01*
X40856682Y-105868231D01*
X40642481Y-105956956D01*
X40449706Y-106085764D01*
X40285764Y-106249706D01*
X40156956Y-106442481D01*
X40068231Y-106656682D01*
X40023000Y-106884076D01*
X28152000Y-106884076D01*
X28152000Y-105617609D01*
X69531538Y-105617609D01*
X69535409Y-105655282D01*
X69627579Y-105880533D01*
X69761922Y-106083474D01*
X69933275Y-106256307D01*
X70135054Y-106392390D01*
X70174760Y-106409037D01*
X70153586Y-106415460D01*
X70053557Y-106468926D01*
X69965880Y-106540880D01*
X69893926Y-106628557D01*
X69840460Y-106728586D01*
X69807535Y-106837123D01*
X69796418Y-106949999D01*
X69796418Y-107650001D01*
X69807535Y-107762877D01*
X69840460Y-107871414D01*
X69893926Y-107971443D01*
X69965880Y-108059120D01*
X70053557Y-108131074D01*
X70153586Y-108184540D01*
X70262123Y-108217465D01*
X70374999Y-108228582D01*
X71625001Y-108228582D01*
X71737877Y-108217465D01*
X71846414Y-108184540D01*
X71946443Y-108131074D01*
X72034120Y-108059120D01*
X72106074Y-107971443D01*
X72159540Y-107871414D01*
X72192465Y-107762877D01*
X72203582Y-107650001D01*
X72203582Y-106949999D01*
X72192465Y-106837123D01*
X72159540Y-106728586D01*
X72106074Y-106628557D01*
X72034120Y-106540880D01*
X71946443Y-106468926D01*
X71846414Y-106415460D01*
X71825240Y-106409037D01*
X71864946Y-106392390D01*
X72066725Y-106256307D01*
X72238078Y-106083474D01*
X72372421Y-105880533D01*
X72464591Y-105655282D01*
X72468462Y-105617609D01*
X72343731Y-105427000D01*
X71127000Y-105427000D01*
X71127000Y-105447000D01*
X70873000Y-105447000D01*
X70873000Y-105427000D01*
X69656269Y-105427000D01*
X69531538Y-105617609D01*
X28152000Y-105617609D01*
X28152000Y-104982391D01*
X69531538Y-104982391D01*
X69656269Y-105173000D01*
X70873000Y-105173000D01*
X70873000Y-104065000D01*
X71127000Y-104065000D01*
X71127000Y-105173000D01*
X72343731Y-105173000D01*
X72468462Y-104982391D01*
X72464591Y-104944718D01*
X72372421Y-104719467D01*
X72238078Y-104516526D01*
X72066725Y-104343693D01*
X71864946Y-104207610D01*
X71640496Y-104113507D01*
X71402000Y-104065000D01*
X71127000Y-104065000D01*
X70873000Y-104065000D01*
X70598000Y-104065000D01*
X70359504Y-104113507D01*
X70135054Y-104207610D01*
X69933275Y-104343693D01*
X69761922Y-104516526D01*
X69627579Y-104719467D01*
X69535409Y-104944718D01*
X69531538Y-104982391D01*
X28152000Y-104982391D01*
X28152000Y-102950000D01*
X29221418Y-102950000D01*
X29221418Y-104650000D01*
X29227732Y-104714103D01*
X29246430Y-104775743D01*
X29276794Y-104832550D01*
X29317657Y-104882343D01*
X29367450Y-104923206D01*
X29424257Y-104953570D01*
X29485897Y-104972268D01*
X29550000Y-104978582D01*
X31250000Y-104978582D01*
X31314103Y-104972268D01*
X31375743Y-104953570D01*
X31432550Y-104923206D01*
X31482343Y-104882343D01*
X31523206Y-104832550D01*
X31553570Y-104775743D01*
X31572268Y-104714103D01*
X31578582Y-104650000D01*
X31578582Y-103684076D01*
X31763000Y-103684076D01*
X31763000Y-103915924D01*
X31808231Y-104143318D01*
X31896956Y-104357519D01*
X32025764Y-104550294D01*
X32189706Y-104714236D01*
X32382481Y-104843044D01*
X32596682Y-104931769D01*
X32824076Y-104977000D01*
X33055924Y-104977000D01*
X33283318Y-104931769D01*
X33497519Y-104843044D01*
X33690294Y-104714236D01*
X33854236Y-104550294D01*
X33983044Y-104357519D01*
X34071769Y-104143318D01*
X34094627Y-104028397D01*
X38473000Y-104028397D01*
X38473000Y-104171603D01*
X38500938Y-104312058D01*
X38555741Y-104444364D01*
X38635302Y-104563436D01*
X38736564Y-104664698D01*
X38855636Y-104744259D01*
X38987942Y-104799062D01*
X39128397Y-104827000D01*
X39271603Y-104827000D01*
X39412058Y-104799062D01*
X39544364Y-104744259D01*
X39663436Y-104664698D01*
X39764698Y-104563436D01*
X39771003Y-104554000D01*
X42228997Y-104554000D01*
X42235302Y-104563436D01*
X42336564Y-104664698D01*
X42455636Y-104744259D01*
X42587942Y-104799062D01*
X42728397Y-104827000D01*
X42871603Y-104827000D01*
X43012058Y-104799062D01*
X43144364Y-104744259D01*
X43263436Y-104664698D01*
X43364698Y-104563436D01*
X43444259Y-104444364D01*
X43499062Y-104312058D01*
X43527000Y-104171603D01*
X43527000Y-104028397D01*
X43499062Y-103887942D01*
X43481959Y-103846653D01*
X43562097Y-103879847D01*
X43799151Y-103927000D01*
X44040849Y-103927000D01*
X44277903Y-103879847D01*
X44501202Y-103787353D01*
X44536032Y-103764080D01*
X45575525Y-103764080D01*
X45659208Y-104018261D01*
X45931775Y-104149158D01*
X46224642Y-104224365D01*
X46526553Y-104240991D01*
X46825907Y-104198397D01*
X47111199Y-104098222D01*
X47260792Y-104018261D01*
X47344475Y-103764080D01*
X46460000Y-102879605D01*
X45575525Y-103764080D01*
X44536032Y-103764080D01*
X44702167Y-103653073D01*
X44873073Y-103482167D01*
X45007353Y-103281202D01*
X45023507Y-103242204D01*
X45061778Y-103351199D01*
X45141739Y-103500792D01*
X45395920Y-103584475D01*
X46280395Y-102700000D01*
X46639605Y-102700000D01*
X47524080Y-103584475D01*
X47778261Y-103500792D01*
X47787962Y-103480592D01*
X47815475Y-103571290D01*
X47868960Y-103671354D01*
X47940939Y-103759061D01*
X48028646Y-103831040D01*
X48128710Y-103884525D01*
X48237285Y-103917461D01*
X48350200Y-103928582D01*
X49649800Y-103928582D01*
X49762715Y-103917461D01*
X49871290Y-103884525D01*
X49971354Y-103831040D01*
X50059061Y-103759061D01*
X50131040Y-103671354D01*
X50184525Y-103571290D01*
X50217461Y-103462715D01*
X50228582Y-103349800D01*
X50228582Y-102050200D01*
X50217461Y-101937285D01*
X50184525Y-101828710D01*
X50131040Y-101728646D01*
X50059061Y-101640939D01*
X49971354Y-101568960D01*
X49871290Y-101515475D01*
X49762715Y-101482539D01*
X49649800Y-101471418D01*
X48350200Y-101471418D01*
X48237285Y-101482539D01*
X48128710Y-101515475D01*
X48028646Y-101568960D01*
X47940939Y-101640939D01*
X47868960Y-101728646D01*
X47815475Y-101828710D01*
X47788359Y-101918099D01*
X47778261Y-101899208D01*
X47524080Y-101815525D01*
X46639605Y-102700000D01*
X46280395Y-102700000D01*
X45395920Y-101815525D01*
X45141739Y-101899208D01*
X45020751Y-102151142D01*
X45007353Y-102118798D01*
X44873073Y-101917833D01*
X44702167Y-101746927D01*
X44536033Y-101635920D01*
X45575525Y-101635920D01*
X46460000Y-102520395D01*
X47344475Y-101635920D01*
X47260792Y-101381739D01*
X46988225Y-101250842D01*
X46695358Y-101175635D01*
X46393447Y-101159009D01*
X46094093Y-101201603D01*
X45808801Y-101301778D01*
X45659208Y-101381739D01*
X45575525Y-101635920D01*
X44536033Y-101635920D01*
X44501202Y-101612647D01*
X44277903Y-101520153D01*
X44040849Y-101473000D01*
X43799151Y-101473000D01*
X43562097Y-101520153D01*
X43338798Y-101612647D01*
X43137833Y-101746927D01*
X42966927Y-101917833D01*
X42832647Y-102118798D01*
X42740153Y-102342097D01*
X42693000Y-102579151D01*
X42693000Y-102820849D01*
X42740153Y-103057903D01*
X42832647Y-103281202D01*
X42897415Y-103378134D01*
X42871603Y-103373000D01*
X42728397Y-103373000D01*
X42587942Y-103400938D01*
X42455636Y-103455741D01*
X42336564Y-103535302D01*
X42235302Y-103636564D01*
X42228997Y-103646000D01*
X39771003Y-103646000D01*
X39764698Y-103636564D01*
X39663436Y-103535302D01*
X39544364Y-103455741D01*
X39412058Y-103400938D01*
X39271603Y-103373000D01*
X39128397Y-103373000D01*
X38987942Y-103400938D01*
X38855636Y-103455741D01*
X38736564Y-103535302D01*
X38635302Y-103636564D01*
X38555741Y-103755636D01*
X38500938Y-103887942D01*
X38473000Y-104028397D01*
X34094627Y-104028397D01*
X34117000Y-103915924D01*
X34117000Y-103684076D01*
X34071769Y-103456682D01*
X33983044Y-103242481D01*
X33854236Y-103049706D01*
X33690294Y-102885764D01*
X33497519Y-102756956D01*
X33283318Y-102668231D01*
X33055924Y-102623000D01*
X32824076Y-102623000D01*
X32596682Y-102668231D01*
X32382481Y-102756956D01*
X32189706Y-102885764D01*
X32025764Y-103049706D01*
X31896956Y-103242481D01*
X31808231Y-103456682D01*
X31763000Y-103684076D01*
X31578582Y-103684076D01*
X31578582Y-102950000D01*
X31572268Y-102885897D01*
X31553570Y-102824257D01*
X31523206Y-102767450D01*
X31482343Y-102717657D01*
X31432550Y-102676794D01*
X31375743Y-102646430D01*
X31314103Y-102627732D01*
X31250000Y-102621418D01*
X29550000Y-102621418D01*
X29485897Y-102627732D01*
X29424257Y-102646430D01*
X29367450Y-102676794D01*
X29317657Y-102717657D01*
X29276794Y-102767450D01*
X29246430Y-102824257D01*
X29227732Y-102885897D01*
X29221418Y-102950000D01*
X28152000Y-102950000D01*
X28152000Y-99928397D01*
X28773000Y-99928397D01*
X28773000Y-100071603D01*
X28800938Y-100212058D01*
X28855741Y-100344364D01*
X28935302Y-100463436D01*
X29036564Y-100564698D01*
X29155636Y-100644259D01*
X29287942Y-100699062D01*
X29428397Y-100727000D01*
X29571603Y-100727000D01*
X29712058Y-100699062D01*
X29844364Y-100644259D01*
X29939038Y-100581000D01*
X32690519Y-100581000D01*
X32807483Y-100616480D01*
X32914292Y-100627000D01*
X33485708Y-100627000D01*
X33592517Y-100616480D01*
X33729557Y-100574910D01*
X33855853Y-100507403D01*
X33966554Y-100416554D01*
X34057403Y-100305853D01*
X34124910Y-100179557D01*
X34166480Y-100042517D01*
X34180517Y-99900000D01*
X34166480Y-99757483D01*
X34124910Y-99620443D01*
X34061762Y-99502303D01*
X34067336Y-99499033D01*
X34221112Y-99362283D01*
X34345255Y-99198160D01*
X34434994Y-99012972D01*
X34444666Y-98936123D01*
X34316998Y-98777000D01*
X33327000Y-98777000D01*
X33327000Y-98797000D01*
X33073000Y-98797000D01*
X33073000Y-98777000D01*
X32083002Y-98777000D01*
X31955334Y-98936123D01*
X31965006Y-99012972D01*
X32054745Y-99198160D01*
X32178888Y-99362283D01*
X32242667Y-99419000D01*
X29939038Y-99419000D01*
X29844364Y-99355741D01*
X29712058Y-99300938D01*
X29571603Y-99273000D01*
X29428397Y-99273000D01*
X29287942Y-99300938D01*
X29155636Y-99355741D01*
X29036564Y-99435302D01*
X28935302Y-99536564D01*
X28855741Y-99655636D01*
X28800938Y-99787942D01*
X28773000Y-99928397D01*
X28152000Y-99928397D01*
X28152000Y-98628397D01*
X40673000Y-98628397D01*
X40673000Y-98771603D01*
X40700938Y-98912058D01*
X40755741Y-99044364D01*
X40835302Y-99163436D01*
X40936564Y-99264698D01*
X41055636Y-99344259D01*
X41187942Y-99399062D01*
X41328397Y-99427000D01*
X41471603Y-99427000D01*
X41482734Y-99424786D01*
X42291805Y-100233858D01*
X42273000Y-100328397D01*
X42273000Y-100471603D01*
X42300938Y-100612058D01*
X42355741Y-100744364D01*
X42435302Y-100863436D01*
X42536564Y-100964698D01*
X42655636Y-101044259D01*
X42787942Y-101099062D01*
X42928397Y-101127000D01*
X43071603Y-101127000D01*
X43212058Y-101099062D01*
X43344364Y-101044259D01*
X43463436Y-100964698D01*
X43564698Y-100863436D01*
X43644259Y-100744364D01*
X43699062Y-100612058D01*
X43727000Y-100471603D01*
X43727000Y-100328397D01*
X43699062Y-100187942D01*
X43644259Y-100055636D01*
X43564698Y-99936564D01*
X43463436Y-99835302D01*
X43344364Y-99755741D01*
X43212058Y-99700938D01*
X43071603Y-99673000D01*
X43015053Y-99673000D01*
X42124786Y-98782734D01*
X42127000Y-98771603D01*
X42127000Y-98628397D01*
X42099062Y-98487942D01*
X42044259Y-98355636D01*
X41996445Y-98284076D01*
X59083000Y-98284076D01*
X59083000Y-98515924D01*
X59128231Y-98743318D01*
X59216956Y-98957519D01*
X59345764Y-99150294D01*
X59509706Y-99314236D01*
X59702481Y-99443044D01*
X59916682Y-99531769D01*
X60144076Y-99577000D01*
X60375924Y-99577000D01*
X60603318Y-99531769D01*
X60817519Y-99443044D01*
X61010294Y-99314236D01*
X61174236Y-99150294D01*
X61303044Y-98957519D01*
X61391769Y-98743318D01*
X61437000Y-98515924D01*
X61437000Y-98284076D01*
X61391769Y-98056682D01*
X61303044Y-97842481D01*
X61174236Y-97649706D01*
X61074530Y-97550000D01*
X64161418Y-97550000D01*
X64161418Y-99250000D01*
X64167732Y-99314103D01*
X64186430Y-99375743D01*
X64216794Y-99432550D01*
X64257657Y-99482343D01*
X64307450Y-99523206D01*
X64364257Y-99553570D01*
X64425897Y-99572268D01*
X64490000Y-99578582D01*
X66190000Y-99578582D01*
X66254103Y-99572268D01*
X66315743Y-99553570D01*
X66372550Y-99523206D01*
X66422343Y-99482343D01*
X66463206Y-99432550D01*
X66493570Y-99375743D01*
X66512268Y-99314103D01*
X66518582Y-99250000D01*
X66518582Y-97628397D01*
X69573000Y-97628397D01*
X69573000Y-97771603D01*
X69600938Y-97912058D01*
X69655741Y-98044364D01*
X69735302Y-98163436D01*
X69836564Y-98264698D01*
X69955636Y-98344259D01*
X70087942Y-98399062D01*
X70228397Y-98427000D01*
X70371603Y-98427000D01*
X70512058Y-98399062D01*
X70644364Y-98344259D01*
X70763436Y-98264698D01*
X70864698Y-98163436D01*
X70871003Y-98154000D01*
X71982110Y-98154000D01*
X72033446Y-98216554D01*
X72144147Y-98307403D01*
X72177068Y-98325000D01*
X72144147Y-98342597D01*
X72033446Y-98433446D01*
X71942597Y-98544147D01*
X71875090Y-98670443D01*
X71833520Y-98807483D01*
X71819483Y-98950000D01*
X71833520Y-99092517D01*
X71875090Y-99229557D01*
X71942597Y-99355853D01*
X72033446Y-99466554D01*
X72111798Y-99530855D01*
X72056336Y-99560500D01*
X71976236Y-99626236D01*
X71910500Y-99706336D01*
X71861654Y-99797720D01*
X71831575Y-99896879D01*
X71821418Y-100000000D01*
X71821418Y-100400000D01*
X71831575Y-100503121D01*
X71861654Y-100602280D01*
X71910500Y-100693664D01*
X71976236Y-100773764D01*
X72056336Y-100839500D01*
X72147720Y-100888346D01*
X72246879Y-100918425D01*
X72350000Y-100928582D01*
X73250000Y-100928582D01*
X73353121Y-100918425D01*
X73452280Y-100888346D01*
X73543664Y-100839500D01*
X73623764Y-100773764D01*
X73689500Y-100693664D01*
X73738346Y-100602280D01*
X73768425Y-100503121D01*
X73778582Y-100400000D01*
X73778582Y-100000000D01*
X73768425Y-99896879D01*
X73738346Y-99797720D01*
X73689500Y-99706336D01*
X73623764Y-99626236D01*
X73543664Y-99560500D01*
X73488202Y-99530855D01*
X73566554Y-99466554D01*
X73657403Y-99355853D01*
X73724910Y-99229557D01*
X73766480Y-99092517D01*
X73780517Y-98950000D01*
X73766480Y-98807483D01*
X73724910Y-98670443D01*
X73657403Y-98544147D01*
X73566554Y-98433446D01*
X73455853Y-98342597D01*
X73422932Y-98325000D01*
X73455853Y-98307403D01*
X73566554Y-98216554D01*
X73657403Y-98105853D01*
X73724910Y-97979557D01*
X73766480Y-97842517D01*
X73780517Y-97700000D01*
X73766480Y-97557483D01*
X73724910Y-97420443D01*
X73661762Y-97302303D01*
X73667336Y-97299033D01*
X73821112Y-97162283D01*
X73945255Y-96998160D01*
X74034994Y-96812972D01*
X74044666Y-96736123D01*
X73916998Y-96577000D01*
X72927000Y-96577000D01*
X72927000Y-96597000D01*
X72673000Y-96597000D01*
X72673000Y-96577000D01*
X71683002Y-96577000D01*
X71555334Y-96736123D01*
X71565006Y-96812972D01*
X71654745Y-96998160D01*
X71778888Y-97162283D01*
X71873028Y-97246000D01*
X70871003Y-97246000D01*
X70864698Y-97236564D01*
X70763436Y-97135302D01*
X70644364Y-97055741D01*
X70512058Y-97000938D01*
X70371603Y-96973000D01*
X70228397Y-96973000D01*
X70087942Y-97000938D01*
X69955636Y-97055741D01*
X69836564Y-97135302D01*
X69735302Y-97236564D01*
X69655741Y-97355636D01*
X69600938Y-97487942D01*
X69573000Y-97628397D01*
X66518582Y-97628397D01*
X66518582Y-97550000D01*
X66512268Y-97485897D01*
X66493570Y-97424257D01*
X66463206Y-97367450D01*
X66422343Y-97317657D01*
X66372550Y-97276794D01*
X66315743Y-97246430D01*
X66254103Y-97227732D01*
X66190000Y-97221418D01*
X64490000Y-97221418D01*
X64425897Y-97227732D01*
X64364257Y-97246430D01*
X64307450Y-97276794D01*
X64257657Y-97317657D01*
X64216794Y-97367450D01*
X64186430Y-97424257D01*
X64167732Y-97485897D01*
X64161418Y-97550000D01*
X61074530Y-97550000D01*
X61010294Y-97485764D01*
X60817519Y-97356956D01*
X60603318Y-97268231D01*
X60375924Y-97223000D01*
X60144076Y-97223000D01*
X59916682Y-97268231D01*
X59702481Y-97356956D01*
X59509706Y-97485764D01*
X59345764Y-97649706D01*
X59216956Y-97842481D01*
X59128231Y-98056682D01*
X59083000Y-98284076D01*
X41996445Y-98284076D01*
X41964698Y-98236564D01*
X41863436Y-98135302D01*
X41744364Y-98055741D01*
X41612058Y-98000938D01*
X41471603Y-97973000D01*
X41328397Y-97973000D01*
X41187942Y-98000938D01*
X41055636Y-98055741D01*
X40936564Y-98135302D01*
X40835302Y-98236564D01*
X40755741Y-98355636D01*
X40700938Y-98487942D01*
X40673000Y-98628397D01*
X28152000Y-98628397D01*
X28152000Y-98363877D01*
X31955334Y-98363877D01*
X32083002Y-98523000D01*
X33073000Y-98523000D01*
X33073000Y-98503000D01*
X33327000Y-98503000D01*
X33327000Y-98523000D01*
X34316998Y-98523000D01*
X34444666Y-98363877D01*
X34434994Y-98287028D01*
X34345255Y-98101840D01*
X34221112Y-97937717D01*
X34067336Y-97800967D01*
X34061762Y-97797697D01*
X34124910Y-97679557D01*
X34166480Y-97542517D01*
X34180517Y-97400000D01*
X34166480Y-97257483D01*
X34124910Y-97120443D01*
X34057403Y-96994147D01*
X33966554Y-96883446D01*
X33855853Y-96792597D01*
X33822932Y-96775000D01*
X33855853Y-96757403D01*
X33966554Y-96666554D01*
X34057403Y-96555853D01*
X34124910Y-96429557D01*
X34166480Y-96292517D01*
X34179150Y-96163877D01*
X71555334Y-96163877D01*
X71683002Y-96323000D01*
X72673000Y-96323000D01*
X72673000Y-96303000D01*
X72927000Y-96303000D01*
X72927000Y-96323000D01*
X73916998Y-96323000D01*
X74044666Y-96163877D01*
X74034994Y-96087028D01*
X73945255Y-95901840D01*
X73853851Y-95781000D01*
X74810866Y-95781000D01*
X74815564Y-95785698D01*
X74934636Y-95865259D01*
X75066942Y-95920062D01*
X75207397Y-95948000D01*
X75350603Y-95948000D01*
X75491058Y-95920062D01*
X75623364Y-95865259D01*
X75742436Y-95785698D01*
X75843698Y-95684436D01*
X75923259Y-95565364D01*
X75978062Y-95433058D01*
X76006000Y-95292603D01*
X76006000Y-95149397D01*
X75978062Y-95008942D01*
X75923259Y-94876636D01*
X75843698Y-94757564D01*
X75742436Y-94656302D01*
X75623364Y-94576741D01*
X75491058Y-94521938D01*
X75350603Y-94494000D01*
X75207397Y-94494000D01*
X75066942Y-94521938D01*
X74934636Y-94576741D01*
X74871391Y-94619000D01*
X73488025Y-94619000D01*
X73455853Y-94592597D01*
X73329557Y-94525090D01*
X73192517Y-94483520D01*
X73085708Y-94473000D01*
X72514292Y-94473000D01*
X72407483Y-94483520D01*
X72270443Y-94525090D01*
X72144147Y-94592597D01*
X72033446Y-94683446D01*
X71942597Y-94794147D01*
X71875090Y-94920443D01*
X71833520Y-95057483D01*
X71819483Y-95200000D01*
X71833520Y-95342517D01*
X71875090Y-95479557D01*
X71938238Y-95597697D01*
X71932664Y-95600967D01*
X71778888Y-95737717D01*
X71654745Y-95901840D01*
X71565006Y-96087028D01*
X71555334Y-96163877D01*
X34179150Y-96163877D01*
X34180517Y-96150000D01*
X34166480Y-96007483D01*
X34124910Y-95870443D01*
X34057403Y-95744147D01*
X33966554Y-95633446D01*
X33888202Y-95569145D01*
X33943664Y-95539500D01*
X34023764Y-95473764D01*
X34089500Y-95393664D01*
X34138346Y-95302280D01*
X34168425Y-95203121D01*
X34178582Y-95100000D01*
X34178582Y-94700000D01*
X34168425Y-94596879D01*
X34138346Y-94497720D01*
X34089500Y-94406336D01*
X34023764Y-94326236D01*
X33943664Y-94260500D01*
X33852280Y-94211654D01*
X33753121Y-94181575D01*
X33650000Y-94171418D01*
X32750000Y-94171418D01*
X32646879Y-94181575D01*
X32547720Y-94211654D01*
X32456336Y-94260500D01*
X32376236Y-94326236D01*
X32310500Y-94406336D01*
X32261654Y-94497720D01*
X32231575Y-94596879D01*
X32221418Y-94700000D01*
X32221418Y-95100000D01*
X32231575Y-95203121D01*
X32261654Y-95302280D01*
X32310500Y-95393664D01*
X32376236Y-95473764D01*
X32456336Y-95539500D01*
X32511798Y-95569145D01*
X32433446Y-95633446D01*
X32342597Y-95744147D01*
X32275090Y-95870443D01*
X32233520Y-96007483D01*
X32219483Y-96150000D01*
X32233520Y-96292517D01*
X32275090Y-96429557D01*
X32342597Y-96555853D01*
X32433446Y-96666554D01*
X32544147Y-96757403D01*
X32577068Y-96775000D01*
X32544147Y-96792597D01*
X32433446Y-96883446D01*
X32342597Y-96994147D01*
X32275090Y-97120443D01*
X32233520Y-97257483D01*
X32219483Y-97400000D01*
X32233520Y-97542517D01*
X32275090Y-97679557D01*
X32338238Y-97797697D01*
X32332664Y-97800967D01*
X32178888Y-97937717D01*
X32054745Y-98101840D01*
X31965006Y-98287028D01*
X31955334Y-98363877D01*
X28152000Y-98363877D01*
X28152000Y-90986123D01*
X31955334Y-90986123D01*
X31965006Y-91062972D01*
X32054745Y-91248160D01*
X32178888Y-91412283D01*
X32332664Y-91549033D01*
X32510164Y-91653155D01*
X32704567Y-91720648D01*
X32908401Y-91748918D01*
X33073000Y-91583762D01*
X33073000Y-90827000D01*
X33327000Y-90827000D01*
X33327000Y-91583762D01*
X33491599Y-91748918D01*
X33695433Y-91720648D01*
X33889836Y-91653155D01*
X34067336Y-91549033D01*
X34221112Y-91412283D01*
X34345255Y-91248160D01*
X34434994Y-91062972D01*
X34444666Y-90986123D01*
X34316998Y-90827000D01*
X33327000Y-90827000D01*
X33073000Y-90827000D01*
X32083002Y-90827000D01*
X31955334Y-90986123D01*
X28152000Y-90986123D01*
X28152000Y-90413877D01*
X31955334Y-90413877D01*
X32083002Y-90573000D01*
X33073000Y-90573000D01*
X33073000Y-90553000D01*
X33327000Y-90553000D01*
X33327000Y-90573000D01*
X34316998Y-90573000D01*
X34444666Y-90413877D01*
X34434994Y-90337028D01*
X34345255Y-90151840D01*
X34221112Y-89987717D01*
X34067336Y-89850967D01*
X34061762Y-89847697D01*
X34124910Y-89729557D01*
X34166480Y-89592517D01*
X34180517Y-89450000D01*
X34166480Y-89307483D01*
X34124910Y-89170443D01*
X34057403Y-89044147D01*
X33966554Y-88933446D01*
X33888202Y-88869145D01*
X33943664Y-88839500D01*
X34023764Y-88773764D01*
X34089500Y-88693664D01*
X34138346Y-88602280D01*
X34143247Y-88586123D01*
X71555334Y-88586123D01*
X71565006Y-88662972D01*
X71654745Y-88848160D01*
X71778888Y-89012283D01*
X71932664Y-89149033D01*
X71938238Y-89152303D01*
X71875090Y-89270443D01*
X71833520Y-89407483D01*
X71819483Y-89550000D01*
X71833520Y-89692517D01*
X71875090Y-89829557D01*
X71942597Y-89955853D01*
X72033446Y-90066554D01*
X72111798Y-90130855D01*
X72056336Y-90160500D01*
X71976236Y-90226236D01*
X71910500Y-90306336D01*
X71861654Y-90397720D01*
X71831575Y-90496879D01*
X71821418Y-90600000D01*
X71821418Y-91000000D01*
X71831575Y-91103121D01*
X71861654Y-91202280D01*
X71910500Y-91293664D01*
X71976236Y-91373764D01*
X72056336Y-91439500D01*
X72147720Y-91488346D01*
X72246879Y-91518425D01*
X72350000Y-91528582D01*
X73250000Y-91528582D01*
X73353121Y-91518425D01*
X73452280Y-91488346D01*
X73543664Y-91439500D01*
X73614947Y-91381000D01*
X75560962Y-91381000D01*
X75655636Y-91444259D01*
X75787942Y-91499062D01*
X75928397Y-91527000D01*
X76071603Y-91527000D01*
X76212058Y-91499062D01*
X76344364Y-91444259D01*
X76463436Y-91364698D01*
X76564698Y-91263436D01*
X76644259Y-91144364D01*
X76699062Y-91012058D01*
X76727000Y-90871603D01*
X76727000Y-90728397D01*
X76699062Y-90587942D01*
X76644259Y-90455636D01*
X76564698Y-90336564D01*
X76463436Y-90235302D01*
X76344364Y-90155741D01*
X76212058Y-90100938D01*
X76071603Y-90073000D01*
X75928397Y-90073000D01*
X75787942Y-90100938D01*
X75655636Y-90155741D01*
X75560962Y-90219000D01*
X73614947Y-90219000D01*
X73543664Y-90160500D01*
X73488202Y-90130855D01*
X73566554Y-90066554D01*
X73657403Y-89955853D01*
X73724910Y-89829557D01*
X73766480Y-89692517D01*
X73780517Y-89550000D01*
X73766480Y-89407483D01*
X73724910Y-89270443D01*
X73661762Y-89152303D01*
X73667336Y-89149033D01*
X73821112Y-89012283D01*
X73945255Y-88848160D01*
X74034994Y-88662972D01*
X74044666Y-88586123D01*
X73916998Y-88427000D01*
X72927000Y-88427000D01*
X72927000Y-88447000D01*
X72673000Y-88447000D01*
X72673000Y-88427000D01*
X71683002Y-88427000D01*
X71555334Y-88586123D01*
X34143247Y-88586123D01*
X34168425Y-88503121D01*
X34178582Y-88400000D01*
X34178582Y-88013877D01*
X71555334Y-88013877D01*
X71683002Y-88173000D01*
X72673000Y-88173000D01*
X72673000Y-87416238D01*
X72927000Y-87416238D01*
X72927000Y-88173000D01*
X73916998Y-88173000D01*
X74044666Y-88013877D01*
X74034994Y-87937028D01*
X73945255Y-87751840D01*
X73821112Y-87587717D01*
X73667336Y-87450967D01*
X73489836Y-87346845D01*
X73295433Y-87279352D01*
X73091599Y-87251082D01*
X72927000Y-87416238D01*
X72673000Y-87416238D01*
X72508401Y-87251082D01*
X72304567Y-87279352D01*
X72110164Y-87346845D01*
X71932664Y-87450967D01*
X71778888Y-87587717D01*
X71654745Y-87751840D01*
X71565006Y-87937028D01*
X71555334Y-88013877D01*
X34178582Y-88013877D01*
X34178582Y-88000000D01*
X34168425Y-87896879D01*
X34138346Y-87797720D01*
X34089500Y-87706336D01*
X34023764Y-87626236D01*
X33943664Y-87560500D01*
X33852280Y-87511654D01*
X33753121Y-87481575D01*
X33681000Y-87474471D01*
X33681000Y-86339038D01*
X33744259Y-86244364D01*
X33799062Y-86112058D01*
X33827000Y-85971603D01*
X33827000Y-85828397D01*
X33799062Y-85687942D01*
X33744259Y-85555636D01*
X33664698Y-85436564D01*
X33563436Y-85335302D01*
X33444364Y-85255741D01*
X33312058Y-85200938D01*
X33171603Y-85173000D01*
X33028397Y-85173000D01*
X32887942Y-85200938D01*
X32755636Y-85255741D01*
X32636564Y-85335302D01*
X32535302Y-85436564D01*
X32455741Y-85555636D01*
X32400938Y-85687942D01*
X32373000Y-85828397D01*
X32373000Y-85971603D01*
X32400938Y-86112058D01*
X32455741Y-86244364D01*
X32519000Y-86339039D01*
X32519001Y-87527005D01*
X32456336Y-87560500D01*
X32376236Y-87626236D01*
X32310500Y-87706336D01*
X32261654Y-87797720D01*
X32231575Y-87896879D01*
X32221418Y-88000000D01*
X32221418Y-88400000D01*
X32231575Y-88503121D01*
X32261654Y-88602280D01*
X32310500Y-88693664D01*
X32376236Y-88773764D01*
X32456336Y-88839500D01*
X32511798Y-88869145D01*
X32433446Y-88933446D01*
X32342597Y-89044147D01*
X32275090Y-89170443D01*
X32233520Y-89307483D01*
X32219483Y-89450000D01*
X32233520Y-89592517D01*
X32275090Y-89729557D01*
X32338238Y-89847697D01*
X32332664Y-89850967D01*
X32178888Y-89987717D01*
X32054745Y-90151840D01*
X31965006Y-90337028D01*
X31955334Y-90413877D01*
X28152000Y-90413877D01*
X28152000Y-84914292D01*
X39223000Y-84914292D01*
X39223000Y-85485707D01*
X39233520Y-85592516D01*
X39275090Y-85729556D01*
X39342597Y-85855852D01*
X39433446Y-85966553D01*
X39544147Y-86057403D01*
X39670443Y-86124910D01*
X39807483Y-86166480D01*
X39950000Y-86180517D01*
X40092516Y-86166480D01*
X40229556Y-86124910D01*
X40347697Y-86061762D01*
X40350967Y-86067336D01*
X40487717Y-86221112D01*
X40651840Y-86345255D01*
X40837028Y-86434994D01*
X40913877Y-86444666D01*
X41073000Y-86316998D01*
X41073000Y-85327000D01*
X41053000Y-85327000D01*
X41053000Y-85073000D01*
X41073000Y-85073000D01*
X41073000Y-84083002D01*
X41327000Y-84083002D01*
X41327000Y-85073000D01*
X41347000Y-85073000D01*
X41347000Y-85327000D01*
X41327000Y-85327000D01*
X41327000Y-86316998D01*
X41486123Y-86444666D01*
X41562972Y-86434994D01*
X41748160Y-86345255D01*
X41912283Y-86221112D01*
X42049033Y-86067336D01*
X42052303Y-86061762D01*
X42170443Y-86124910D01*
X42307483Y-86166480D01*
X42450000Y-86180517D01*
X42592516Y-86166480D01*
X42729556Y-86124910D01*
X42855852Y-86057403D01*
X42966553Y-85966554D01*
X43057403Y-85855853D01*
X43075000Y-85822931D01*
X43092597Y-85855852D01*
X43183446Y-85966553D01*
X43294147Y-86057403D01*
X43420443Y-86124910D01*
X43557483Y-86166480D01*
X43700000Y-86180517D01*
X43842516Y-86166480D01*
X43979556Y-86124910D01*
X44105852Y-86057403D01*
X44216553Y-85966554D01*
X44280855Y-85888202D01*
X44310500Y-85943664D01*
X44376236Y-86023764D01*
X44456336Y-86089500D01*
X44547720Y-86138346D01*
X44646879Y-86168425D01*
X44750000Y-86178582D01*
X45150000Y-86178582D01*
X45253121Y-86168425D01*
X45352280Y-86138346D01*
X45443664Y-86089500D01*
X45523764Y-86023764D01*
X45589500Y-85943664D01*
X45638346Y-85852280D01*
X45668425Y-85753121D01*
X45678582Y-85650000D01*
X45678582Y-84914292D01*
X49123000Y-84914292D01*
X49123000Y-85485707D01*
X49133520Y-85592516D01*
X49175090Y-85729556D01*
X49242597Y-85855852D01*
X49333446Y-85966553D01*
X49444147Y-86057403D01*
X49570443Y-86124910D01*
X49707483Y-86166480D01*
X49850000Y-86180517D01*
X49992516Y-86166480D01*
X50129556Y-86124910D01*
X50247697Y-86061762D01*
X50250967Y-86067336D01*
X50387717Y-86221112D01*
X50551840Y-86345255D01*
X50737028Y-86434994D01*
X50813877Y-86444666D01*
X50973000Y-86316998D01*
X50973000Y-85327000D01*
X50953000Y-85327000D01*
X50953000Y-85073000D01*
X50973000Y-85073000D01*
X50973000Y-84083002D01*
X51227000Y-84083002D01*
X51227000Y-85073000D01*
X51247000Y-85073000D01*
X51247000Y-85327000D01*
X51227000Y-85327000D01*
X51227000Y-86316998D01*
X51386123Y-86444666D01*
X51462972Y-86434994D01*
X51648160Y-86345255D01*
X51812283Y-86221112D01*
X51949033Y-86067336D01*
X51952303Y-86061762D01*
X52070443Y-86124910D01*
X52207483Y-86166480D01*
X52350000Y-86180517D01*
X52492516Y-86166480D01*
X52629556Y-86124910D01*
X52755852Y-86057403D01*
X52866553Y-85966554D01*
X52957403Y-85855853D01*
X52975000Y-85822931D01*
X52992597Y-85855852D01*
X53083446Y-85966553D01*
X53194147Y-86057403D01*
X53320443Y-86124910D01*
X53457483Y-86166480D01*
X53600000Y-86180517D01*
X53742516Y-86166480D01*
X53879556Y-86124910D01*
X54005852Y-86057403D01*
X54116553Y-85966554D01*
X54207403Y-85855853D01*
X54225000Y-85822931D01*
X54242597Y-85855852D01*
X54333446Y-85966553D01*
X54444147Y-86057403D01*
X54570443Y-86124910D01*
X54707483Y-86166480D01*
X54850000Y-86180517D01*
X54992516Y-86166480D01*
X55129556Y-86124910D01*
X55255852Y-86057403D01*
X55366553Y-85966554D01*
X55430855Y-85888202D01*
X55460500Y-85943664D01*
X55526236Y-86023764D01*
X55606336Y-86089500D01*
X55697720Y-86138346D01*
X55796879Y-86168425D01*
X55900000Y-86178582D01*
X56300000Y-86178582D01*
X56403121Y-86168425D01*
X56502280Y-86138346D01*
X56593664Y-86089500D01*
X56673764Y-86023764D01*
X56739500Y-85943664D01*
X56788346Y-85852280D01*
X56818425Y-85753121D01*
X56828582Y-85650000D01*
X56828582Y-84914292D01*
X60273000Y-84914292D01*
X60273000Y-85485707D01*
X60283520Y-85592516D01*
X60325090Y-85729556D01*
X60392597Y-85855852D01*
X60483446Y-85966553D01*
X60594147Y-86057403D01*
X60720443Y-86124910D01*
X60857483Y-86166480D01*
X61000000Y-86180517D01*
X61142516Y-86166480D01*
X61279556Y-86124910D01*
X61397697Y-86061762D01*
X61400967Y-86067336D01*
X61537717Y-86221112D01*
X61701840Y-86345255D01*
X61887028Y-86434994D01*
X61963877Y-86444666D01*
X62123000Y-86316998D01*
X62123000Y-85327000D01*
X62103000Y-85327000D01*
X62103000Y-85073000D01*
X62123000Y-85073000D01*
X62123000Y-84083002D01*
X62377000Y-84083002D01*
X62377000Y-85073000D01*
X62397000Y-85073000D01*
X62397000Y-85327000D01*
X62377000Y-85327000D01*
X62377000Y-86316998D01*
X62536123Y-86444666D01*
X62612972Y-86434994D01*
X62798160Y-86345255D01*
X62962283Y-86221112D01*
X63099033Y-86067336D01*
X63102303Y-86061762D01*
X63220443Y-86124910D01*
X63357483Y-86166480D01*
X63500000Y-86180517D01*
X63642516Y-86166480D01*
X63779556Y-86124910D01*
X63905852Y-86057403D01*
X64016553Y-85966554D01*
X64107403Y-85855853D01*
X64125000Y-85822931D01*
X64142597Y-85855852D01*
X64233446Y-85966553D01*
X64344147Y-86057403D01*
X64470443Y-86124910D01*
X64607483Y-86166480D01*
X64750000Y-86180517D01*
X64892516Y-86166480D01*
X65029556Y-86124910D01*
X65155852Y-86057403D01*
X65266553Y-85966554D01*
X65330855Y-85888202D01*
X65360500Y-85943664D01*
X65426236Y-86023764D01*
X65506336Y-86089500D01*
X65597720Y-86138346D01*
X65696879Y-86168425D01*
X65800000Y-86178582D01*
X66200000Y-86178582D01*
X66303121Y-86168425D01*
X66402280Y-86138346D01*
X66493664Y-86089500D01*
X66573764Y-86023764D01*
X66639500Y-85943664D01*
X66688346Y-85852280D01*
X66718425Y-85753121D01*
X66728582Y-85650000D01*
X66728582Y-84750000D01*
X66718425Y-84646879D01*
X66688346Y-84547720D01*
X66639500Y-84456336D01*
X66573764Y-84376236D01*
X66493664Y-84310500D01*
X66402280Y-84261654D01*
X66303121Y-84231575D01*
X66200000Y-84221418D01*
X65800000Y-84221418D01*
X65696879Y-84231575D01*
X65597720Y-84261654D01*
X65506336Y-84310500D01*
X65426236Y-84376236D01*
X65360500Y-84456336D01*
X65330855Y-84511798D01*
X65266554Y-84433446D01*
X65155853Y-84342597D01*
X65029557Y-84275090D01*
X64892517Y-84233520D01*
X64750000Y-84219483D01*
X64607484Y-84233520D01*
X64470444Y-84275090D01*
X64344148Y-84342597D01*
X64233447Y-84433446D01*
X64142597Y-84544147D01*
X64125000Y-84577068D01*
X64107403Y-84544147D01*
X64016554Y-84433446D01*
X63905853Y-84342597D01*
X63779557Y-84275090D01*
X63642517Y-84233520D01*
X63500000Y-84219483D01*
X63357484Y-84233520D01*
X63220444Y-84275090D01*
X63102303Y-84338238D01*
X63099033Y-84332664D01*
X62962283Y-84178888D01*
X62798160Y-84054745D01*
X62612972Y-83965006D01*
X62536123Y-83955334D01*
X62377000Y-84083002D01*
X62123000Y-84083002D01*
X61963877Y-83955334D01*
X61887028Y-83965006D01*
X61701840Y-84054745D01*
X61537717Y-84178888D01*
X61400967Y-84332664D01*
X61397697Y-84338238D01*
X61279557Y-84275090D01*
X61142517Y-84233520D01*
X61000000Y-84219483D01*
X60857484Y-84233520D01*
X60720444Y-84275090D01*
X60594148Y-84342597D01*
X60483447Y-84433446D01*
X60392597Y-84544147D01*
X60325090Y-84670443D01*
X60283520Y-84807483D01*
X60273000Y-84914292D01*
X56828582Y-84914292D01*
X56828582Y-84750000D01*
X56818425Y-84646879D01*
X56788346Y-84547720D01*
X56739500Y-84456336D01*
X56673764Y-84376236D01*
X56593664Y-84310500D01*
X56502280Y-84261654D01*
X56403121Y-84231575D01*
X56300000Y-84221418D01*
X55900000Y-84221418D01*
X55796879Y-84231575D01*
X55697720Y-84261654D01*
X55606336Y-84310500D01*
X55526236Y-84376236D01*
X55460500Y-84456336D01*
X55430855Y-84511798D01*
X55366554Y-84433446D01*
X55255853Y-84342597D01*
X55129557Y-84275090D01*
X54992517Y-84233520D01*
X54850000Y-84219483D01*
X54707484Y-84233520D01*
X54570444Y-84275090D01*
X54444148Y-84342597D01*
X54333447Y-84433446D01*
X54242597Y-84544147D01*
X54225000Y-84577068D01*
X54207403Y-84544147D01*
X54116554Y-84433446D01*
X54005853Y-84342597D01*
X53879557Y-84275090D01*
X53742517Y-84233520D01*
X53600000Y-84219483D01*
X53457484Y-84233520D01*
X53320444Y-84275090D01*
X53194148Y-84342597D01*
X53083447Y-84433446D01*
X52992597Y-84544147D01*
X52975000Y-84577068D01*
X52957403Y-84544147D01*
X52866554Y-84433446D01*
X52755853Y-84342597D01*
X52629557Y-84275090D01*
X52492517Y-84233520D01*
X52350000Y-84219483D01*
X52207484Y-84233520D01*
X52070444Y-84275090D01*
X51952303Y-84338238D01*
X51949033Y-84332664D01*
X51812283Y-84178888D01*
X51648160Y-84054745D01*
X51462972Y-83965006D01*
X51386123Y-83955334D01*
X51227000Y-84083002D01*
X50973000Y-84083002D01*
X50813877Y-83955334D01*
X50737028Y-83965006D01*
X50551840Y-84054745D01*
X50387717Y-84178888D01*
X50250967Y-84332664D01*
X50247697Y-84338238D01*
X50129557Y-84275090D01*
X49992517Y-84233520D01*
X49850000Y-84219483D01*
X49707484Y-84233520D01*
X49570444Y-84275090D01*
X49444148Y-84342597D01*
X49333447Y-84433446D01*
X49242597Y-84544147D01*
X49175090Y-84670443D01*
X49133520Y-84807483D01*
X49123000Y-84914292D01*
X45678582Y-84914292D01*
X45678582Y-84750000D01*
X45668425Y-84646879D01*
X45638346Y-84547720D01*
X45589500Y-84456336D01*
X45523764Y-84376236D01*
X45443664Y-84310500D01*
X45352280Y-84261654D01*
X45253121Y-84231575D01*
X45150000Y-84221418D01*
X44750000Y-84221418D01*
X44646879Y-84231575D01*
X44547720Y-84261654D01*
X44456336Y-84310500D01*
X44376236Y-84376236D01*
X44310500Y-84456336D01*
X44280855Y-84511798D01*
X44216554Y-84433446D01*
X44105853Y-84342597D01*
X43979557Y-84275090D01*
X43842517Y-84233520D01*
X43700000Y-84219483D01*
X43557484Y-84233520D01*
X43420444Y-84275090D01*
X43294148Y-84342597D01*
X43183447Y-84433446D01*
X43092597Y-84544147D01*
X43075000Y-84577068D01*
X43057403Y-84544147D01*
X42966554Y-84433446D01*
X42855853Y-84342597D01*
X42729557Y-84275090D01*
X42592517Y-84233520D01*
X42450000Y-84219483D01*
X42307484Y-84233520D01*
X42170444Y-84275090D01*
X42052303Y-84338238D01*
X42049033Y-84332664D01*
X41912283Y-84178888D01*
X41748160Y-84054745D01*
X41562972Y-83965006D01*
X41486123Y-83955334D01*
X41327000Y-84083002D01*
X41073000Y-84083002D01*
X40913877Y-83955334D01*
X40837028Y-83965006D01*
X40651840Y-84054745D01*
X40487717Y-84178888D01*
X40350967Y-84332664D01*
X40347697Y-84338238D01*
X40229557Y-84275090D01*
X40092517Y-84233520D01*
X39950000Y-84219483D01*
X39807484Y-84233520D01*
X39670444Y-84275090D01*
X39544148Y-84342597D01*
X39433447Y-84433446D01*
X39342597Y-84544147D01*
X39275090Y-84670443D01*
X39233520Y-84807483D01*
X39223000Y-84914292D01*
X28152000Y-84914292D01*
X28152000Y-83007439D01*
X28206956Y-82446962D01*
X28367568Y-81914988D01*
X28628444Y-81424348D01*
X28639279Y-81411062D01*
X33597000Y-81411062D01*
X33597000Y-81588938D01*
X33631702Y-81763395D01*
X33699772Y-81927731D01*
X33798594Y-82075629D01*
X33924371Y-82201406D01*
X34072269Y-82300228D01*
X34236605Y-82368298D01*
X34411062Y-82403000D01*
X34588938Y-82403000D01*
X34763395Y-82368298D01*
X34927731Y-82300228D01*
X35075629Y-82201406D01*
X35201406Y-82075629D01*
X35300228Y-81927731D01*
X35368298Y-81763395D01*
X35403000Y-81588938D01*
X35403000Y-81411062D01*
X70597000Y-81411062D01*
X70597000Y-81588938D01*
X70631702Y-81763395D01*
X70699772Y-81927731D01*
X70798594Y-82075629D01*
X70924371Y-82201406D01*
X71072269Y-82300228D01*
X71236605Y-82368298D01*
X71411062Y-82403000D01*
X71588938Y-82403000D01*
X71763395Y-82368298D01*
X71927731Y-82300228D01*
X72075629Y-82201406D01*
X72201406Y-82075629D01*
X72300228Y-81927731D01*
X72368298Y-81763395D01*
X72403000Y-81588938D01*
X72403000Y-81411062D01*
X72368298Y-81236605D01*
X72300228Y-81072269D01*
X72201406Y-80924371D01*
X72075629Y-80798594D01*
X71927731Y-80699772D01*
X71763395Y-80631702D01*
X71588938Y-80597000D01*
X71411062Y-80597000D01*
X71236605Y-80631702D01*
X71072269Y-80699772D01*
X70924371Y-80798594D01*
X70798594Y-80924371D01*
X70699772Y-81072269D01*
X70631702Y-81236605D01*
X70597000Y-81411062D01*
X35403000Y-81411062D01*
X35368298Y-81236605D01*
X35300228Y-81072269D01*
X35201406Y-80924371D01*
X35075629Y-80798594D01*
X34927731Y-80699772D01*
X34763395Y-80631702D01*
X34588938Y-80597000D01*
X34411062Y-80597000D01*
X34236605Y-80631702D01*
X34072269Y-80699772D01*
X33924371Y-80798594D01*
X33798594Y-80924371D01*
X33699772Y-81072269D01*
X33631702Y-81236605D01*
X33597000Y-81411062D01*
X28639279Y-81411062D01*
X28979661Y-80993714D01*
X29407826Y-80639506D01*
X29896641Y-80375205D01*
X30427477Y-80210883D01*
X30987283Y-80152045D01*
X31000243Y-80152000D01*
X74992561Y-80152000D01*
X75553038Y-80206956D01*
G37*
%TD.AperFunction*%
%TD*%
M02*
