%TF.GenerationSoftware,KiCad,Pcbnew,5.1.10*%
%TF.CreationDate,2021-08-20T07:55:10+02:00*%
%TF.ProjectId,nsumo,6e73756d-6f2e-46b6-9963-61645f706362,rev?*%
%TF.SameCoordinates,Original*%
%TF.FileFunction,Copper,L1,Top*%
%TF.FilePolarity,Positive*%
%FSLAX46Y46*%
G04 Gerber Fmt 4.6, Leading zero omitted, Abs format (unit mm)*
G04 Created by KiCad (PCBNEW 5.1.10) date 2021-08-20 07:55:10*
%MOMM*%
%LPD*%
G01*
G04 APERTURE LIST*
%TA.AperFunction,ComponentPad*%
%ADD10C,2.100000*%
%TD*%
%TA.AperFunction,ComponentPad*%
%ADD11R,2.100000X2.100000*%
%TD*%
%TA.AperFunction,SMDPad,CuDef*%
%ADD12R,2.050000X0.450000*%
%TD*%
%TA.AperFunction,ComponentPad*%
%ADD13O,1.700000X1.700000*%
%TD*%
%TA.AperFunction,ComponentPad*%
%ADD14R,1.700000X1.700000*%
%TD*%
%TA.AperFunction,SMDPad,CuDef*%
%ADD15R,1.500000X2.000000*%
%TD*%
%TA.AperFunction,SMDPad,CuDef*%
%ADD16R,3.800000X2.000000*%
%TD*%
%TA.AperFunction,ComponentPad*%
%ADD17O,1.300000X0.800000*%
%TD*%
%TA.AperFunction,ComponentPad*%
%ADD18O,0.800000X1.300000*%
%TD*%
%TA.AperFunction,ComponentPad*%
%ADD19C,0.700000*%
%TD*%
%TA.AperFunction,ComponentPad*%
%ADD20C,4.400000*%
%TD*%
%TA.AperFunction,ComponentPad*%
%ADD21O,1.750000X1.200000*%
%TD*%
%TA.AperFunction,SMDPad,CuDef*%
%ADD22R,1.550000X1.300000*%
%TD*%
%TA.AperFunction,SMDPad,CuDef*%
%ADD23R,1.220000X0.650000*%
%TD*%
%TA.AperFunction,SMDPad,CuDef*%
%ADD24R,2.500000X1.900000*%
%TD*%
%TA.AperFunction,SMDPad,CuDef*%
%ADD25R,0.900000X1.200000*%
%TD*%
%TA.AperFunction,ComponentPad*%
%ADD26C,1.800000*%
%TD*%
%TA.AperFunction,ViaPad*%
%ADD27C,0.800000*%
%TD*%
%TA.AperFunction,Conductor*%
%ADD28C,0.254000*%
%TD*%
%TA.AperFunction,Conductor*%
%ADD29C,0.508000*%
%TD*%
%TA.AperFunction,Conductor*%
%ADD30C,0.355600*%
%TD*%
%TA.AperFunction,Conductor*%
%ADD31C,0.457200*%
%TD*%
%TA.AperFunction,Conductor*%
%ADD32C,0.762000*%
%TD*%
%TA.AperFunction,Conductor*%
%ADD33C,0.250000*%
%TD*%
%TA.AperFunction,Conductor*%
%ADD34C,0.200000*%
%TD*%
%TA.AperFunction,Conductor*%
%ADD35C,1.000000*%
%TD*%
%TA.AperFunction,Conductor*%
%ADD36C,0.800000*%
%TD*%
%TA.AperFunction,Conductor*%
%ADD37C,0.203200*%
%TD*%
%TA.AperFunction,Conductor*%
%ADD38C,0.100000*%
%TD*%
%TA.AperFunction,Conductor*%
%ADD39C,0.300000*%
%TD*%
G04 APERTURE END LIST*
%TO.P,C15,2*%
%TO.N,GND*%
%TA.AperFunction,SMDPad,CuDef*%
G36*
G01*
X67125000Y-106750000D02*
X68075000Y-106750000D01*
G75*
G02*
X68325000Y-107000000I0J-250000D01*
G01*
X68325000Y-107500000D01*
G75*
G02*
X68075000Y-107750000I-250000J0D01*
G01*
X67125000Y-107750000D01*
G75*
G02*
X66875000Y-107500000I0J250000D01*
G01*
X66875000Y-107000000D01*
G75*
G02*
X67125000Y-106750000I250000J0D01*
G01*
G37*
%TD.AperFunction*%
%TO.P,C15,1*%
%TO.N,+5V*%
%TA.AperFunction,SMDPad,CuDef*%
G36*
G01*
X67125000Y-104850000D02*
X68075000Y-104850000D01*
G75*
G02*
X68325000Y-105100000I0J-250000D01*
G01*
X68325000Y-105600000D01*
G75*
G02*
X68075000Y-105850000I-250000J0D01*
G01*
X67125000Y-105850000D01*
G75*
G02*
X66875000Y-105600000I0J250000D01*
G01*
X66875000Y-105100000D01*
G75*
G02*
X67125000Y-104850000I250000J0D01*
G01*
G37*
%TD.AperFunction*%
%TD*%
%TO.P,R16,1*%
%TO.N,+3V3*%
%TA.AperFunction,SMDPad,CuDef*%
G36*
G01*
X63349998Y-138675000D02*
X64250002Y-138675000D01*
G75*
G02*
X64500000Y-138924998I0J-249998D01*
G01*
X64500000Y-139450002D01*
G75*
G02*
X64250002Y-139700000I-249998J0D01*
G01*
X63349998Y-139700000D01*
G75*
G02*
X63100000Y-139450002I0J249998D01*
G01*
X63100000Y-138924998D01*
G75*
G02*
X63349998Y-138675000I249998J0D01*
G01*
G37*
%TD.AperFunction*%
%TO.P,R16,2*%
%TO.N,Net-(D9-Pad2)*%
%TA.AperFunction,SMDPad,CuDef*%
G36*
G01*
X63349998Y-140500000D02*
X64250002Y-140500000D01*
G75*
G02*
X64500000Y-140749998I0J-249998D01*
G01*
X64500000Y-141275002D01*
G75*
G02*
X64250002Y-141525000I-249998J0D01*
G01*
X63349998Y-141525000D01*
G75*
G02*
X63100000Y-141275002I0J249998D01*
G01*
X63100000Y-140749998D01*
G75*
G02*
X63349998Y-140500000I249998J0D01*
G01*
G37*
%TD.AperFunction*%
%TD*%
%TO.P,R14,1*%
%TO.N,+3V3*%
%TA.AperFunction,SMDPad,CuDef*%
G36*
G01*
X69612500Y-92049998D02*
X69612500Y-92950002D01*
G75*
G02*
X69362502Y-93200000I-249998J0D01*
G01*
X68837498Y-93200000D01*
G75*
G02*
X68587500Y-92950002I0J249998D01*
G01*
X68587500Y-92049998D01*
G75*
G02*
X68837498Y-91800000I249998J0D01*
G01*
X69362502Y-91800000D01*
G75*
G02*
X69612500Y-92049998I0J-249998D01*
G01*
G37*
%TD.AperFunction*%
%TO.P,R14,2*%
%TO.N,Net-(D8-Pad2)*%
%TA.AperFunction,SMDPad,CuDef*%
G36*
G01*
X67787500Y-92049998D02*
X67787500Y-92950002D01*
G75*
G02*
X67537502Y-93200000I-249998J0D01*
G01*
X67012498Y-93200000D01*
G75*
G02*
X66762500Y-92950002I0J249998D01*
G01*
X66762500Y-92049998D01*
G75*
G02*
X67012498Y-91800000I249998J0D01*
G01*
X67537502Y-91800000D01*
G75*
G02*
X67787500Y-92049998I0J-249998D01*
G01*
G37*
%TD.AperFunction*%
%TD*%
%TO.P,R13,1*%
%TO.N,+3V3*%
%TA.AperFunction,SMDPad,CuDef*%
G36*
G01*
X41449998Y-138875000D02*
X42350002Y-138875000D01*
G75*
G02*
X42600000Y-139124998I0J-249998D01*
G01*
X42600000Y-139650002D01*
G75*
G02*
X42350002Y-139900000I-249998J0D01*
G01*
X41449998Y-139900000D01*
G75*
G02*
X41200000Y-139650002I0J249998D01*
G01*
X41200000Y-139124998D01*
G75*
G02*
X41449998Y-138875000I249998J0D01*
G01*
G37*
%TD.AperFunction*%
%TO.P,R13,2*%
%TO.N,Net-(D7-Pad2)*%
%TA.AperFunction,SMDPad,CuDef*%
G36*
G01*
X41449998Y-140700000D02*
X42350002Y-140700000D01*
G75*
G02*
X42600000Y-140949998I0J-249998D01*
G01*
X42600000Y-141475002D01*
G75*
G02*
X42350002Y-141725000I-249998J0D01*
G01*
X41449998Y-141725000D01*
G75*
G02*
X41200000Y-141475002I0J249998D01*
G01*
X41200000Y-140949998D01*
G75*
G02*
X41449998Y-140700000I249998J0D01*
G01*
G37*
%TD.AperFunction*%
%TD*%
%TO.P,R11,1*%
%TO.N,+3V3*%
%TA.AperFunction,SMDPad,CuDef*%
G36*
G01*
X36575000Y-90450002D02*
X36575000Y-89549998D01*
G75*
G02*
X36824998Y-89300000I249998J0D01*
G01*
X37350002Y-89300000D01*
G75*
G02*
X37600000Y-89549998I0J-249998D01*
G01*
X37600000Y-90450002D01*
G75*
G02*
X37350002Y-90700000I-249998J0D01*
G01*
X36824998Y-90700000D01*
G75*
G02*
X36575000Y-90450002I0J249998D01*
G01*
G37*
%TD.AperFunction*%
%TO.P,R11,2*%
%TO.N,Net-(D1-Pad2)*%
%TA.AperFunction,SMDPad,CuDef*%
G36*
G01*
X38400000Y-90450002D02*
X38400000Y-89549998D01*
G75*
G02*
X38649998Y-89300000I249998J0D01*
G01*
X39175002Y-89300000D01*
G75*
G02*
X39425000Y-89549998I0J-249998D01*
G01*
X39425000Y-90450002D01*
G75*
G02*
X39175002Y-90700000I-249998J0D01*
G01*
X38649998Y-90700000D01*
G75*
G02*
X38400000Y-90450002I0J249998D01*
G01*
G37*
%TD.AperFunction*%
%TD*%
%TO.P,D9,2*%
%TO.N,Net-(D9-Pad2)*%
%TA.AperFunction,SMDPad,CuDef*%
G36*
G01*
X61743750Y-140650000D02*
X62256250Y-140650000D01*
G75*
G02*
X62475000Y-140868750I0J-218750D01*
G01*
X62475000Y-141306250D01*
G75*
G02*
X62256250Y-141525000I-218750J0D01*
G01*
X61743750Y-141525000D01*
G75*
G02*
X61525000Y-141306250I0J218750D01*
G01*
X61525000Y-140868750D01*
G75*
G02*
X61743750Y-140650000I218750J0D01*
G01*
G37*
%TD.AperFunction*%
%TO.P,D9,1*%
%TO.N,LD_BACK_RIGHT*%
%TA.AperFunction,SMDPad,CuDef*%
G36*
G01*
X61743750Y-139075000D02*
X62256250Y-139075000D01*
G75*
G02*
X62475000Y-139293750I0J-218750D01*
G01*
X62475000Y-139731250D01*
G75*
G02*
X62256250Y-139950000I-218750J0D01*
G01*
X61743750Y-139950000D01*
G75*
G02*
X61525000Y-139731250I0J218750D01*
G01*
X61525000Y-139293750D01*
G75*
G02*
X61743750Y-139075000I218750J0D01*
G01*
G37*
%TD.AperFunction*%
%TD*%
%TO.P,D8,2*%
%TO.N,Net-(D8-Pad2)*%
%TA.AperFunction,SMDPad,CuDef*%
G36*
G01*
X67962500Y-90343750D02*
X67962500Y-90856250D01*
G75*
G02*
X67743750Y-91075000I-218750J0D01*
G01*
X67306250Y-91075000D01*
G75*
G02*
X67087500Y-90856250I0J218750D01*
G01*
X67087500Y-90343750D01*
G75*
G02*
X67306250Y-90125000I218750J0D01*
G01*
X67743750Y-90125000D01*
G75*
G02*
X67962500Y-90343750I0J-218750D01*
G01*
G37*
%TD.AperFunction*%
%TO.P,D8,1*%
%TO.N,LD_FRONT_RIGHT*%
%TA.AperFunction,SMDPad,CuDef*%
G36*
G01*
X69537500Y-90343750D02*
X69537500Y-90856250D01*
G75*
G02*
X69318750Y-91075000I-218750J0D01*
G01*
X68881250Y-91075000D01*
G75*
G02*
X68662500Y-90856250I0J218750D01*
G01*
X68662500Y-90343750D01*
G75*
G02*
X68881250Y-90125000I218750J0D01*
G01*
X69318750Y-90125000D01*
G75*
G02*
X69537500Y-90343750I0J-218750D01*
G01*
G37*
%TD.AperFunction*%
%TD*%
%TO.P,D7,2*%
%TO.N,Net-(D7-Pad2)*%
%TA.AperFunction,SMDPad,CuDef*%
G36*
G01*
X43543750Y-140750000D02*
X44056250Y-140750000D01*
G75*
G02*
X44275000Y-140968750I0J-218750D01*
G01*
X44275000Y-141406250D01*
G75*
G02*
X44056250Y-141625000I-218750J0D01*
G01*
X43543750Y-141625000D01*
G75*
G02*
X43325000Y-141406250I0J218750D01*
G01*
X43325000Y-140968750D01*
G75*
G02*
X43543750Y-140750000I218750J0D01*
G01*
G37*
%TD.AperFunction*%
%TO.P,D7,1*%
%TO.N,LD_BACK_LEFT*%
%TA.AperFunction,SMDPad,CuDef*%
G36*
G01*
X43543750Y-139175000D02*
X44056250Y-139175000D01*
G75*
G02*
X44275000Y-139393750I0J-218750D01*
G01*
X44275000Y-139831250D01*
G75*
G02*
X44056250Y-140050000I-218750J0D01*
G01*
X43543750Y-140050000D01*
G75*
G02*
X43325000Y-139831250I0J218750D01*
G01*
X43325000Y-139393750D01*
G75*
G02*
X43543750Y-139175000I218750J0D01*
G01*
G37*
%TD.AperFunction*%
%TD*%
%TO.P,D1,2*%
%TO.N,Net-(D1-Pad2)*%
%TA.AperFunction,SMDPad,CuDef*%
G36*
G01*
X38237500Y-92156250D02*
X38237500Y-91643750D01*
G75*
G02*
X38456250Y-91425000I218750J0D01*
G01*
X38893750Y-91425000D01*
G75*
G02*
X39112500Y-91643750I0J-218750D01*
G01*
X39112500Y-92156250D01*
G75*
G02*
X38893750Y-92375000I-218750J0D01*
G01*
X38456250Y-92375000D01*
G75*
G02*
X38237500Y-92156250I0J218750D01*
G01*
G37*
%TD.AperFunction*%
%TO.P,D1,1*%
%TO.N,LD_FRONT_LEFT*%
%TA.AperFunction,SMDPad,CuDef*%
G36*
G01*
X36662500Y-92156250D02*
X36662500Y-91643750D01*
G75*
G02*
X36881250Y-91425000I218750J0D01*
G01*
X37318750Y-91425000D01*
G75*
G02*
X37537500Y-91643750I0J-218750D01*
G01*
X37537500Y-92156250D01*
G75*
G02*
X37318750Y-92375000I-218750J0D01*
G01*
X36881250Y-92375000D01*
G75*
G02*
X36662500Y-92156250I0J218750D01*
G01*
G37*
%TD.AperFunction*%
%TD*%
%TO.P,U7,8*%
%TO.N,Net-(SW2-Pad2)*%
%TA.AperFunction,SMDPad,CuDef*%
G36*
G01*
X71500000Y-119925000D02*
X71500000Y-119625000D01*
G75*
G02*
X71650000Y-119475000I150000J0D01*
G01*
X73000000Y-119475000D01*
G75*
G02*
X73150000Y-119625000I0J-150000D01*
G01*
X73150000Y-119925000D01*
G75*
G02*
X73000000Y-120075000I-150000J0D01*
G01*
X71650000Y-120075000D01*
G75*
G02*
X71500000Y-119925000I0J150000D01*
G01*
G37*
%TD.AperFunction*%
%TO.P,U7,7*%
%TA.AperFunction,SMDPad,CuDef*%
G36*
G01*
X71500000Y-121195000D02*
X71500000Y-120895000D01*
G75*
G02*
X71650000Y-120745000I150000J0D01*
G01*
X73000000Y-120745000D01*
G75*
G02*
X73150000Y-120895000I0J-150000D01*
G01*
X73150000Y-121195000D01*
G75*
G02*
X73000000Y-121345000I-150000J0D01*
G01*
X71650000Y-121345000D01*
G75*
G02*
X71500000Y-121195000I0J150000D01*
G01*
G37*
%TD.AperFunction*%
%TO.P,U7,6*%
%TA.AperFunction,SMDPad,CuDef*%
G36*
G01*
X71500000Y-122465000D02*
X71500000Y-122165000D01*
G75*
G02*
X71650000Y-122015000I150000J0D01*
G01*
X73000000Y-122015000D01*
G75*
G02*
X73150000Y-122165000I0J-150000D01*
G01*
X73150000Y-122465000D01*
G75*
G02*
X73000000Y-122615000I-150000J0D01*
G01*
X71650000Y-122615000D01*
G75*
G02*
X71500000Y-122465000I0J150000D01*
G01*
G37*
%TD.AperFunction*%
%TO.P,U7,5*%
%TA.AperFunction,SMDPad,CuDef*%
G36*
G01*
X71500000Y-123735000D02*
X71500000Y-123435000D01*
G75*
G02*
X71650000Y-123285000I150000J0D01*
G01*
X73000000Y-123285000D01*
G75*
G02*
X73150000Y-123435000I0J-150000D01*
G01*
X73150000Y-123735000D01*
G75*
G02*
X73000000Y-123885000I-150000J0D01*
G01*
X71650000Y-123885000D01*
G75*
G02*
X71500000Y-123735000I0J150000D01*
G01*
G37*
%TD.AperFunction*%
%TO.P,U7,4*%
%TO.N,GND*%
%TA.AperFunction,SMDPad,CuDef*%
G36*
G01*
X66250000Y-123735000D02*
X66250000Y-123435000D01*
G75*
G02*
X66400000Y-123285000I150000J0D01*
G01*
X67750000Y-123285000D01*
G75*
G02*
X67900000Y-123435000I0J-150000D01*
G01*
X67900000Y-123735000D01*
G75*
G02*
X67750000Y-123885000I-150000J0D01*
G01*
X66400000Y-123885000D01*
G75*
G02*
X66250000Y-123735000I0J150000D01*
G01*
G37*
%TD.AperFunction*%
%TO.P,U7,3*%
%TO.N,+BATT*%
%TA.AperFunction,SMDPad,CuDef*%
G36*
G01*
X66250000Y-122465000D02*
X66250000Y-122165000D01*
G75*
G02*
X66400000Y-122015000I150000J0D01*
G01*
X67750000Y-122015000D01*
G75*
G02*
X67900000Y-122165000I0J-150000D01*
G01*
X67900000Y-122465000D01*
G75*
G02*
X67750000Y-122615000I-150000J0D01*
G01*
X66400000Y-122615000D01*
G75*
G02*
X66250000Y-122465000I0J150000D01*
G01*
G37*
%TD.AperFunction*%
%TO.P,U7,2*%
%TA.AperFunction,SMDPad,CuDef*%
G36*
G01*
X66250000Y-121195000D02*
X66250000Y-120895000D01*
G75*
G02*
X66400000Y-120745000I150000J0D01*
G01*
X67750000Y-120745000D01*
G75*
G02*
X67900000Y-120895000I0J-150000D01*
G01*
X67900000Y-121195000D01*
G75*
G02*
X67750000Y-121345000I-150000J0D01*
G01*
X66400000Y-121345000D01*
G75*
G02*
X66250000Y-121195000I0J150000D01*
G01*
G37*
%TD.AperFunction*%
%TO.P,U7,1*%
%TA.AperFunction,SMDPad,CuDef*%
G36*
G01*
X66250000Y-119925000D02*
X66250000Y-119625000D01*
G75*
G02*
X66400000Y-119475000I150000J0D01*
G01*
X67750000Y-119475000D01*
G75*
G02*
X67900000Y-119625000I0J-150000D01*
G01*
X67900000Y-119925000D01*
G75*
G02*
X67750000Y-120075000I-150000J0D01*
G01*
X66400000Y-120075000D01*
G75*
G02*
X66250000Y-119925000I0J150000D01*
G01*
G37*
%TD.AperFunction*%
%TD*%
D10*
%TO.P,J17,2*%
%TO.N,ML_A02*%
X31900000Y-129440000D03*
D11*
%TO.P,J17,1*%
%TO.N,ML_A01*%
X31900000Y-126900000D03*
%TD*%
D10*
%TO.P,J16,2*%
%TO.N,ML_B01*%
X31900000Y-136140000D03*
D11*
%TO.P,J16,1*%
%TO.N,ML_B02*%
X31900000Y-133600000D03*
%TD*%
D12*
%TO.P,U6,24*%
%TO.N,+BATT*%
X44750000Y-127476000D03*
%TO.P,U6,23*%
%TO.N,MOTS_LEFT_PWM*%
X44750000Y-128126000D03*
%TO.P,U6,22*%
%TO.N,MOTS_LEFT_CH2*%
X44750000Y-128776000D03*
%TO.P,U6,21*%
%TO.N,MOTS_LEFT_CH1*%
X44750000Y-129426000D03*
%TO.P,U6,20*%
%TO.N,+3V3*%
X44750000Y-130076000D03*
%TO.P,U6,19*%
X44750000Y-130726000D03*
%TO.P,U6,18*%
%TO.N,GND*%
X44750000Y-131376000D03*
%TO.P,U6,17*%
%TO.N,MOTS_LEFT_CH1*%
X44750000Y-132026000D03*
%TO.P,U6,16*%
%TO.N,MOTS_LEFT_CH2*%
X44750000Y-132676000D03*
%TO.P,U6,15*%
%TO.N,MOTS_LEFT_PWM*%
X44750000Y-133326000D03*
%TO.P,U6,14*%
%TO.N,+BATT*%
X44750000Y-133976000D03*
%TO.P,U6,13*%
X44750000Y-134626000D03*
%TO.P,U6,12*%
%TO.N,ML_B01*%
X37250000Y-134626000D03*
%TO.P,U6,11*%
X37250000Y-133976000D03*
%TO.P,U6,10*%
%TO.N,GND*%
X37250000Y-133326000D03*
%TO.P,U6,9*%
X37250000Y-132676000D03*
%TO.P,U6,8*%
%TO.N,ML_B02*%
X37250000Y-132026000D03*
%TO.P,U6,7*%
X37250000Y-131376000D03*
%TO.P,U6,6*%
%TO.N,ML_A02*%
X37250000Y-130726000D03*
%TO.P,U6,5*%
X37250000Y-130076000D03*
%TO.P,U6,4*%
%TO.N,GND*%
X37250000Y-129426000D03*
%TO.P,U6,3*%
X37250000Y-128776000D03*
%TO.P,U6,2*%
%TO.N,ML_A01*%
X37250000Y-128126000D03*
%TO.P,U6,1*%
X37250000Y-127476000D03*
%TD*%
%TO.P,U3,24*%
%TO.N,+BATT*%
X61150000Y-134611000D03*
%TO.P,U3,23*%
%TO.N,MOTS_RIGHT_PWM*%
X61150000Y-133961000D03*
%TO.P,U3,22*%
%TO.N,MOTS_RIGHT_CH2*%
X61150000Y-133311000D03*
%TO.P,U3,21*%
%TO.N,MOTS_RIGHT_CH1*%
X61150000Y-132661000D03*
%TO.P,U3,20*%
%TO.N,+3V3*%
X61150000Y-132011000D03*
%TO.P,U3,19*%
X61150000Y-131361000D03*
%TO.P,U3,18*%
%TO.N,GND*%
X61150000Y-130711000D03*
%TO.P,U3,17*%
%TO.N,MOTS_RIGHT_CH1*%
X61150000Y-130061000D03*
%TO.P,U3,16*%
%TO.N,MOTS_RIGHT_CH2*%
X61150000Y-129411000D03*
%TO.P,U3,15*%
%TO.N,MOTS_RIGHT_PWM*%
X61150000Y-128761000D03*
%TO.P,U3,14*%
%TO.N,+BATT*%
X61150000Y-128111000D03*
%TO.P,U3,13*%
X61150000Y-127461000D03*
%TO.P,U3,12*%
%TO.N,MR_B01*%
X68650000Y-127461000D03*
%TO.P,U3,11*%
X68650000Y-128111000D03*
%TO.P,U3,10*%
%TO.N,GND*%
X68650000Y-128761000D03*
%TO.P,U3,9*%
X68650000Y-129411000D03*
%TO.P,U3,8*%
%TO.N,MR_B02*%
X68650000Y-130061000D03*
%TO.P,U3,7*%
X68650000Y-130711000D03*
%TO.P,U3,6*%
%TO.N,MR_A02*%
X68650000Y-131361000D03*
%TO.P,U3,5*%
X68650000Y-132011000D03*
%TO.P,U3,4*%
%TO.N,GND*%
X68650000Y-132661000D03*
%TO.P,U3,3*%
X68650000Y-133311000D03*
%TO.P,U3,2*%
%TO.N,MR_A01*%
X68650000Y-133961000D03*
%TO.P,U3,1*%
X68650000Y-134611000D03*
%TD*%
%TO.P,R4,1*%
%TO.N,Net-(C7-Pad1)*%
%TA.AperFunction,SMDPad,CuDef*%
G36*
G01*
X46862500Y-98450002D02*
X46862500Y-97549998D01*
G75*
G02*
X47112498Y-97300000I249998J0D01*
G01*
X47637502Y-97300000D01*
G75*
G02*
X47887500Y-97549998I0J-249998D01*
G01*
X47887500Y-98450002D01*
G75*
G02*
X47637502Y-98700000I-249998J0D01*
G01*
X47112498Y-98700000D01*
G75*
G02*
X46862500Y-98450002I0J249998D01*
G01*
G37*
%TD.AperFunction*%
%TO.P,R4,2*%
%TO.N,+3V3*%
%TA.AperFunction,SMDPad,CuDef*%
G36*
G01*
X48687500Y-98450002D02*
X48687500Y-97549998D01*
G75*
G02*
X48937498Y-97300000I249998J0D01*
G01*
X49462502Y-97300000D01*
G75*
G02*
X49712500Y-97549998I0J-249998D01*
G01*
X49712500Y-98450002D01*
G75*
G02*
X49462502Y-98700000I-249998J0D01*
G01*
X48937498Y-98700000D01*
G75*
G02*
X48687500Y-98450002I0J249998D01*
G01*
G37*
%TD.AperFunction*%
%TD*%
D13*
%TO.P,J13,3*%
%TO.N,+3V3*%
X60260000Y-98400000D03*
%TO.P,J13,2*%
%TO.N,GND*%
X62800000Y-98400000D03*
D14*
%TO.P,J13,1*%
%TO.N,+5V*%
X65340000Y-98400000D03*
%TD*%
%TO.P,F2,2*%
%TO.N,Net-(C2-Pad1)*%
%TA.AperFunction,SMDPad,CuDef*%
G36*
G01*
X60225000Y-106875000D02*
X58975000Y-106875000D01*
G75*
G02*
X58725000Y-106625000I0J250000D01*
G01*
X58725000Y-105875000D01*
G75*
G02*
X58975000Y-105625000I250000J0D01*
G01*
X60225000Y-105625000D01*
G75*
G02*
X60475000Y-105875000I0J-250000D01*
G01*
X60475000Y-106625000D01*
G75*
G02*
X60225000Y-106875000I-250000J0D01*
G01*
G37*
%TD.AperFunction*%
%TO.P,F2,1*%
%TO.N,+5V*%
%TA.AperFunction,SMDPad,CuDef*%
G36*
G01*
X60225000Y-109675000D02*
X58975000Y-109675000D01*
G75*
G02*
X58725000Y-109425000I0J250000D01*
G01*
X58725000Y-108675000D01*
G75*
G02*
X58975000Y-108425000I250000J0D01*
G01*
X60225000Y-108425000D01*
G75*
G02*
X60475000Y-108675000I0J-250000D01*
G01*
X60475000Y-109425000D01*
G75*
G02*
X60225000Y-109675000I-250000J0D01*
G01*
G37*
%TD.AperFunction*%
%TD*%
%TO.P,F1,2*%
%TO.N,Net-(C1-Pad1)*%
%TA.AperFunction,SMDPad,CuDef*%
G36*
G01*
X68525000Y-115825000D02*
X67275000Y-115825000D01*
G75*
G02*
X67025000Y-115575000I0J250000D01*
G01*
X67025000Y-114825000D01*
G75*
G02*
X67275000Y-114575000I250000J0D01*
G01*
X68525000Y-114575000D01*
G75*
G02*
X68775000Y-114825000I0J-250000D01*
G01*
X68775000Y-115575000D01*
G75*
G02*
X68525000Y-115825000I-250000J0D01*
G01*
G37*
%TD.AperFunction*%
%TO.P,F1,1*%
%TO.N,+BATT*%
%TA.AperFunction,SMDPad,CuDef*%
G36*
G01*
X68525000Y-118625000D02*
X67275000Y-118625000D01*
G75*
G02*
X67025000Y-118375000I0J250000D01*
G01*
X67025000Y-117625000D01*
G75*
G02*
X67275000Y-117375000I250000J0D01*
G01*
X68525000Y-117375000D01*
G75*
G02*
X68775000Y-117625000I0J-250000D01*
G01*
X68775000Y-118375000D01*
G75*
G02*
X68525000Y-118625000I-250000J0D01*
G01*
G37*
%TD.AperFunction*%
%TD*%
%TO.P,C3,2*%
%TO.N,GND*%
%TA.AperFunction,SMDPad,CuDef*%
G36*
G01*
X50550001Y-107575000D02*
X49249999Y-107575000D01*
G75*
G02*
X49000000Y-107325001I0J249999D01*
G01*
X49000000Y-106674999D01*
G75*
G02*
X49249999Y-106425000I249999J0D01*
G01*
X50550001Y-106425000D01*
G75*
G02*
X50800000Y-106674999I0J-249999D01*
G01*
X50800000Y-107325001D01*
G75*
G02*
X50550001Y-107575000I-249999J0D01*
G01*
G37*
%TD.AperFunction*%
%TO.P,C3,1*%
%TO.N,Net-(C3-Pad1)*%
%TA.AperFunction,SMDPad,CuDef*%
G36*
G01*
X50550001Y-110525000D02*
X49249999Y-110525000D01*
G75*
G02*
X49000000Y-110275001I0J249999D01*
G01*
X49000000Y-109624999D01*
G75*
G02*
X49249999Y-109375000I249999J0D01*
G01*
X50550001Y-109375000D01*
G75*
G02*
X50800000Y-109624999I0J-249999D01*
G01*
X50800000Y-110275001D01*
G75*
G02*
X50550001Y-110525000I-249999J0D01*
G01*
G37*
%TD.AperFunction*%
%TD*%
%TO.P,C14,2*%
%TO.N,GND*%
%TA.AperFunction,SMDPad,CuDef*%
G36*
G01*
X62090000Y-126005000D02*
X62090000Y-125055000D01*
G75*
G02*
X62340000Y-124805000I250000J0D01*
G01*
X62840000Y-124805000D01*
G75*
G02*
X63090000Y-125055000I0J-250000D01*
G01*
X63090000Y-126005000D01*
G75*
G02*
X62840000Y-126255000I-250000J0D01*
G01*
X62340000Y-126255000D01*
G75*
G02*
X62090000Y-126005000I0J250000D01*
G01*
G37*
%TD.AperFunction*%
%TO.P,C14,1*%
%TO.N,+BATT*%
%TA.AperFunction,SMDPad,CuDef*%
G36*
G01*
X60190000Y-126005000D02*
X60190000Y-125055000D01*
G75*
G02*
X60440000Y-124805000I250000J0D01*
G01*
X60940000Y-124805000D01*
G75*
G02*
X61190000Y-125055000I0J-250000D01*
G01*
X61190000Y-126005000D01*
G75*
G02*
X60940000Y-126255000I-250000J0D01*
G01*
X60440000Y-126255000D01*
G75*
G02*
X60190000Y-126005000I0J250000D01*
G01*
G37*
%TD.AperFunction*%
%TD*%
%TO.P,C13,2*%
%TO.N,GND*%
%TA.AperFunction,SMDPad,CuDef*%
G36*
G01*
X47875000Y-134950000D02*
X46925000Y-134950000D01*
G75*
G02*
X46675000Y-134700000I0J250000D01*
G01*
X46675000Y-134200000D01*
G75*
G02*
X46925000Y-133950000I250000J0D01*
G01*
X47875000Y-133950000D01*
G75*
G02*
X48125000Y-134200000I0J-250000D01*
G01*
X48125000Y-134700000D01*
G75*
G02*
X47875000Y-134950000I-250000J0D01*
G01*
G37*
%TD.AperFunction*%
%TO.P,C13,1*%
%TO.N,+BATT*%
%TA.AperFunction,SMDPad,CuDef*%
G36*
G01*
X47875000Y-136850000D02*
X46925000Y-136850000D01*
G75*
G02*
X46675000Y-136600000I0J250000D01*
G01*
X46675000Y-136100000D01*
G75*
G02*
X46925000Y-135850000I250000J0D01*
G01*
X47875000Y-135850000D01*
G75*
G02*
X48125000Y-136100000I0J-250000D01*
G01*
X48125000Y-136600000D01*
G75*
G02*
X47875000Y-136850000I-250000J0D01*
G01*
G37*
%TD.AperFunction*%
%TD*%
%TO.P,C12,2*%
%TO.N,GND*%
%TA.AperFunction,SMDPad,CuDef*%
G36*
G01*
X58085000Y-127550000D02*
X59035000Y-127550000D01*
G75*
G02*
X59285000Y-127800000I0J-250000D01*
G01*
X59285000Y-128300000D01*
G75*
G02*
X59035000Y-128550000I-250000J0D01*
G01*
X58085000Y-128550000D01*
G75*
G02*
X57835000Y-128300000I0J250000D01*
G01*
X57835000Y-127800000D01*
G75*
G02*
X58085000Y-127550000I250000J0D01*
G01*
G37*
%TD.AperFunction*%
%TO.P,C12,1*%
%TO.N,+BATT*%
%TA.AperFunction,SMDPad,CuDef*%
G36*
G01*
X58085000Y-125650000D02*
X59035000Y-125650000D01*
G75*
G02*
X59285000Y-125900000I0J-250000D01*
G01*
X59285000Y-126400000D01*
G75*
G02*
X59035000Y-126650000I-250000J0D01*
G01*
X58085000Y-126650000D01*
G75*
G02*
X57835000Y-126400000I0J250000D01*
G01*
X57835000Y-125900000D01*
G75*
G02*
X58085000Y-125650000I250000J0D01*
G01*
G37*
%TD.AperFunction*%
%TD*%
%TO.P,C11,2*%
%TO.N,GND*%
%TA.AperFunction,SMDPad,CuDef*%
G36*
G01*
X43350000Y-136075000D02*
X43350000Y-137025000D01*
G75*
G02*
X43100000Y-137275000I-250000J0D01*
G01*
X42600000Y-137275000D01*
G75*
G02*
X42350000Y-137025000I0J250000D01*
G01*
X42350000Y-136075000D01*
G75*
G02*
X42600000Y-135825000I250000J0D01*
G01*
X43100000Y-135825000D01*
G75*
G02*
X43350000Y-136075000I0J-250000D01*
G01*
G37*
%TD.AperFunction*%
%TO.P,C11,1*%
%TO.N,+BATT*%
%TA.AperFunction,SMDPad,CuDef*%
G36*
G01*
X45250000Y-136075000D02*
X45250000Y-137025000D01*
G75*
G02*
X45000000Y-137275000I-250000J0D01*
G01*
X44500000Y-137275000D01*
G75*
G02*
X44250000Y-137025000I0J250000D01*
G01*
X44250000Y-136075000D01*
G75*
G02*
X44500000Y-135825000I250000J0D01*
G01*
X45000000Y-135825000D01*
G75*
G02*
X45250000Y-136075000I0J-250000D01*
G01*
G37*
%TD.AperFunction*%
%TD*%
%TO.P,C10,1*%
%TO.N,+3V3*%
%TA.AperFunction,SMDPad,CuDef*%
G36*
G01*
X58995000Y-133350000D02*
X58045000Y-133350000D01*
G75*
G02*
X57795000Y-133100000I0J250000D01*
G01*
X57795000Y-132600000D01*
G75*
G02*
X58045000Y-132350000I250000J0D01*
G01*
X58995000Y-132350000D01*
G75*
G02*
X59245000Y-132600000I0J-250000D01*
G01*
X59245000Y-133100000D01*
G75*
G02*
X58995000Y-133350000I-250000J0D01*
G01*
G37*
%TD.AperFunction*%
%TO.P,C10,2*%
%TO.N,GND*%
%TA.AperFunction,SMDPad,CuDef*%
G36*
G01*
X58995000Y-131450000D02*
X58045000Y-131450000D01*
G75*
G02*
X57795000Y-131200000I0J250000D01*
G01*
X57795000Y-130700000D01*
G75*
G02*
X58045000Y-130450000I250000J0D01*
G01*
X58995000Y-130450000D01*
G75*
G02*
X59245000Y-130700000I0J-250000D01*
G01*
X59245000Y-131200000D01*
G75*
G02*
X58995000Y-131450000I-250000J0D01*
G01*
G37*
%TD.AperFunction*%
%TD*%
%TO.P,C9,2*%
%TO.N,GND*%
%TA.AperFunction,SMDPad,CuDef*%
G36*
G01*
X46925000Y-131750000D02*
X47875000Y-131750000D01*
G75*
G02*
X48125000Y-132000000I0J-250000D01*
G01*
X48125000Y-132500000D01*
G75*
G02*
X47875000Y-132750000I-250000J0D01*
G01*
X46925000Y-132750000D01*
G75*
G02*
X46675000Y-132500000I0J250000D01*
G01*
X46675000Y-132000000D01*
G75*
G02*
X46925000Y-131750000I250000J0D01*
G01*
G37*
%TD.AperFunction*%
%TO.P,C9,1*%
%TO.N,+3V3*%
%TA.AperFunction,SMDPad,CuDef*%
G36*
G01*
X46925000Y-129850000D02*
X47875000Y-129850000D01*
G75*
G02*
X48125000Y-130100000I0J-250000D01*
G01*
X48125000Y-130600000D01*
G75*
G02*
X47875000Y-130850000I-250000J0D01*
G01*
X46925000Y-130850000D01*
G75*
G02*
X46675000Y-130600000I0J250000D01*
G01*
X46675000Y-130100000D01*
G75*
G02*
X46925000Y-129850000I250000J0D01*
G01*
G37*
%TD.AperFunction*%
%TD*%
D15*
%TO.P,U5,1*%
%TO.N,GND*%
X52500000Y-107495000D03*
%TO.P,U5,3*%
%TO.N,Net-(C2-Pad1)*%
X57100000Y-107495000D03*
%TO.P,U5,2*%
%TO.N,+3V3*%
X54800000Y-107495000D03*
D16*
X54800000Y-101195000D03*
%TD*%
%TO.P,R9,2*%
%TO.N,SCL*%
%TA.AperFunction,SMDPad,CuDef*%
G36*
G01*
X30625002Y-107000000D02*
X29374998Y-107000000D01*
G75*
G02*
X29125000Y-106750002I0J249998D01*
G01*
X29125000Y-106124998D01*
G75*
G02*
X29374998Y-105875000I249998J0D01*
G01*
X30625002Y-105875000D01*
G75*
G02*
X30875000Y-106124998I0J-249998D01*
G01*
X30875000Y-106750002D01*
G75*
G02*
X30625002Y-107000000I-249998J0D01*
G01*
G37*
%TD.AperFunction*%
%TO.P,R9,1*%
%TO.N,+3V3*%
%TA.AperFunction,SMDPad,CuDef*%
G36*
G01*
X30625002Y-109925000D02*
X29374998Y-109925000D01*
G75*
G02*
X29125000Y-109675002I0J249998D01*
G01*
X29125000Y-109049998D01*
G75*
G02*
X29374998Y-108800000I249998J0D01*
G01*
X30625002Y-108800000D01*
G75*
G02*
X30875000Y-109049998I0J-249998D01*
G01*
X30875000Y-109675002D01*
G75*
G02*
X30625002Y-109925000I-249998J0D01*
G01*
G37*
%TD.AperFunction*%
%TD*%
%TO.P,R8,2*%
%TO.N,SDA*%
%TA.AperFunction,SMDPad,CuDef*%
G36*
G01*
X32925002Y-107000000D02*
X31674998Y-107000000D01*
G75*
G02*
X31425000Y-106750002I0J249998D01*
G01*
X31425000Y-106124998D01*
G75*
G02*
X31674998Y-105875000I249998J0D01*
G01*
X32925002Y-105875000D01*
G75*
G02*
X33175000Y-106124998I0J-249998D01*
G01*
X33175000Y-106750002D01*
G75*
G02*
X32925002Y-107000000I-249998J0D01*
G01*
G37*
%TD.AperFunction*%
%TO.P,R8,1*%
%TO.N,+3V3*%
%TA.AperFunction,SMDPad,CuDef*%
G36*
G01*
X32925002Y-109925000D02*
X31674998Y-109925000D01*
G75*
G02*
X31425000Y-109675002I0J249998D01*
G01*
X31425000Y-109049998D01*
G75*
G02*
X31674998Y-108800000I249998J0D01*
G01*
X32925002Y-108800000D01*
G75*
G02*
X33175000Y-109049998I0J-249998D01*
G01*
X33175000Y-109675002D01*
G75*
G02*
X32925002Y-109925000I-249998J0D01*
G01*
G37*
%TD.AperFunction*%
%TD*%
D17*
%TO.P,J1,5*%
%TO.N,+3V3*%
X33200000Y-99900000D03*
%TO.P,J1,4*%
%TO.N,GND*%
X33200000Y-98650000D03*
%TO.P,J1,3*%
%TO.N,SCL*%
X33200000Y-97400000D03*
%TO.P,J1,2*%
%TO.N,SDA*%
X33200000Y-96150000D03*
%TO.P,J1,1*%
%TO.N,XSHUT_LEFT*%
%TA.AperFunction,ComponentPad*%
G36*
G01*
X32750000Y-94500000D02*
X33650000Y-94500000D01*
G75*
G02*
X33850000Y-94700000I0J-200000D01*
G01*
X33850000Y-95100000D01*
G75*
G02*
X33650000Y-95300000I-200000J0D01*
G01*
X32750000Y-95300000D01*
G75*
G02*
X32550000Y-95100000I0J200000D01*
G01*
X32550000Y-94700000D01*
G75*
G02*
X32750000Y-94500000I200000J0D01*
G01*
G37*
%TD.AperFunction*%
%TD*%
D18*
%TO.P,J4,5*%
%TO.N,+3V3*%
X39950000Y-85200000D03*
%TO.P,J4,4*%
%TO.N,GND*%
X41200000Y-85200000D03*
%TO.P,J4,3*%
%TO.N,SCL*%
X42450000Y-85200000D03*
%TO.P,J4,2*%
%TO.N,SDA*%
X43700000Y-85200000D03*
%TO.P,J4,1*%
%TO.N,XSHUT_FLEFT*%
%TA.AperFunction,ComponentPad*%
G36*
G01*
X45350000Y-84750000D02*
X45350000Y-85650000D01*
G75*
G02*
X45150000Y-85850000I-200000J0D01*
G01*
X44750000Y-85850000D01*
G75*
G02*
X44550000Y-85650000I0J200000D01*
G01*
X44550000Y-84750000D01*
G75*
G02*
X44750000Y-84550000I200000J0D01*
G01*
X45150000Y-84550000D01*
G75*
G02*
X45350000Y-84750000I0J-200000D01*
G01*
G37*
%TD.AperFunction*%
%TD*%
%TO.P,J2,6*%
%TO.N,+3V3*%
X49850000Y-85200000D03*
%TO.P,J2,5*%
%TO.N,GND*%
X51100000Y-85200000D03*
%TO.P,J2,4*%
%TO.N,SCL*%
X52350000Y-85200000D03*
%TO.P,J2,3*%
%TO.N,SDA*%
X53600000Y-85200000D03*
%TO.P,J2,2*%
%TO.N,XSHUT_FRONT*%
X54850000Y-85200000D03*
%TO.P,J2,1*%
%TO.N,INT_FRONT*%
%TA.AperFunction,ComponentPad*%
G36*
G01*
X56500000Y-84750000D02*
X56500000Y-85650000D01*
G75*
G02*
X56300000Y-85850000I-200000J0D01*
G01*
X55900000Y-85850000D01*
G75*
G02*
X55700000Y-85650000I0J200000D01*
G01*
X55700000Y-84750000D01*
G75*
G02*
X55900000Y-84550000I200000J0D01*
G01*
X56300000Y-84550000D01*
G75*
G02*
X56500000Y-84750000I0J-200000D01*
G01*
G37*
%TD.AperFunction*%
%TD*%
D19*
%TO.P,H4,1*%
%TO.N,GND*%
X32166726Y-81833274D03*
X31000000Y-81350000D03*
X29833274Y-81833274D03*
X29350000Y-83000000D03*
X29833274Y-84166726D03*
X31000000Y-84650000D03*
X32166726Y-84166726D03*
X32650000Y-83000000D03*
D20*
X31000000Y-83000000D03*
%TD*%
D19*
%TO.P,H3,1*%
%TO.N,GND*%
X76166726Y-81833274D03*
X75000000Y-81350000D03*
X73833274Y-81833274D03*
X73350000Y-83000000D03*
X73833274Y-84166726D03*
X75000000Y-84650000D03*
X76166726Y-84166726D03*
X76650000Y-83000000D03*
D20*
X75000000Y-83000000D03*
%TD*%
D19*
%TO.P,H2,1*%
%TO.N,GND*%
X32166726Y-140833274D03*
X31000000Y-140350000D03*
X29833274Y-140833274D03*
X29350000Y-142000000D03*
X29833274Y-143166726D03*
X31000000Y-143650000D03*
X32166726Y-143166726D03*
X32650000Y-142000000D03*
D20*
X31000000Y-142000000D03*
%TD*%
D19*
%TO.P,H1,1*%
%TO.N,GND*%
X76166726Y-140833274D03*
X75000000Y-140350000D03*
X73833274Y-140833274D03*
X73350000Y-142000000D03*
X73833274Y-143166726D03*
X75000000Y-143650000D03*
X76166726Y-143166726D03*
X76650000Y-142000000D03*
D20*
X75000000Y-142000000D03*
%TD*%
D21*
%TO.P,J5,2*%
%TO.N,GND*%
X71000000Y-105300000D03*
%TO.P,J5,1*%
%TO.N,Net-(J3-Pad2)*%
%TA.AperFunction,ComponentPad*%
G36*
G01*
X71625001Y-107900000D02*
X70374999Y-107900000D01*
G75*
G02*
X70125000Y-107650001I0J249999D01*
G01*
X70125000Y-106949999D01*
G75*
G02*
X70374999Y-106700000I249999J0D01*
G01*
X71625001Y-106700000D01*
G75*
G02*
X71875000Y-106949999I0J-249999D01*
G01*
X71875000Y-107650001D01*
G75*
G02*
X71625001Y-107900000I-249999J0D01*
G01*
G37*
%TD.AperFunction*%
%TD*%
%TO.P,J3,2*%
%TO.N,Net-(J3-Pad2)*%
X71000000Y-112600000D03*
%TO.P,J3,1*%
%TO.N,Net-(J3-Pad1)*%
%TA.AperFunction,ComponentPad*%
G36*
G01*
X71625001Y-115200000D02*
X70374999Y-115200000D01*
G75*
G02*
X70125000Y-114950001I0J249999D01*
G01*
X70125000Y-114249999D01*
G75*
G02*
X70374999Y-114000000I249999J0D01*
G01*
X71625001Y-114000000D01*
G75*
G02*
X71875000Y-114249999I0J-249999D01*
G01*
X71875000Y-114950001D01*
G75*
G02*
X71625001Y-115200000I-249999J0D01*
G01*
G37*
%TD.AperFunction*%
%TD*%
D17*
%TO.P,J9,5*%
%TO.N,+3V3*%
X72800000Y-95200000D03*
%TO.P,J9,4*%
%TO.N,GND*%
X72800000Y-96450000D03*
%TO.P,J9,3*%
%TO.N,XSHUT_RIGHT*%
X72800000Y-97700000D03*
%TO.P,J9,2*%
%TO.N,SDA*%
X72800000Y-98950000D03*
%TO.P,J9,1*%
%TO.N,SCL*%
%TA.AperFunction,ComponentPad*%
G36*
G01*
X73250000Y-100600000D02*
X72350000Y-100600000D01*
G75*
G02*
X72150000Y-100400000I0J200000D01*
G01*
X72150000Y-100000000D01*
G75*
G02*
X72350000Y-99800000I200000J0D01*
G01*
X73250000Y-99800000D01*
G75*
G02*
X73450000Y-100000000I0J-200000D01*
G01*
X73450000Y-100400000D01*
G75*
G02*
X73250000Y-100600000I-200000J0D01*
G01*
G37*
%TD.AperFunction*%
%TD*%
D18*
%TO.P,J7,5*%
%TO.N,+3V3*%
X61000000Y-85200000D03*
%TO.P,J7,4*%
%TO.N,GND*%
X62250000Y-85200000D03*
%TO.P,J7,3*%
%TO.N,SCL*%
X63500000Y-85200000D03*
%TO.P,J7,2*%
%TO.N,SDA*%
X64750000Y-85200000D03*
%TO.P,J7,1*%
%TO.N,XSHUT_FRIGHT*%
%TA.AperFunction,ComponentPad*%
G36*
G01*
X66400000Y-84750000D02*
X66400000Y-85650000D01*
G75*
G02*
X66200000Y-85850000I-200000J0D01*
G01*
X65800000Y-85850000D01*
G75*
G02*
X65600000Y-85650000I0J200000D01*
G01*
X65600000Y-84750000D01*
G75*
G02*
X65800000Y-84550000I200000J0D01*
G01*
X66200000Y-84550000D01*
G75*
G02*
X66400000Y-84750000I0J-200000D01*
G01*
G37*
%TD.AperFunction*%
%TD*%
D13*
%TO.P,J6,2*%
%TO.N,SDA*%
X32940000Y-103800000D03*
D14*
%TO.P,J6,1*%
%TO.N,SCL*%
X30400000Y-103800000D03*
%TD*%
%TO.P,R5,2*%
%TO.N,Net-(D6-Pad2)*%
%TA.AperFunction,SMDPad,CuDef*%
G36*
G01*
X57900000Y-123650002D02*
X57900000Y-122749998D01*
G75*
G02*
X58149998Y-122500000I249998J0D01*
G01*
X58675002Y-122500000D01*
G75*
G02*
X58925000Y-122749998I0J-249998D01*
G01*
X58925000Y-123650002D01*
G75*
G02*
X58675002Y-123900000I-249998J0D01*
G01*
X58149998Y-123900000D01*
G75*
G02*
X57900000Y-123650002I0J249998D01*
G01*
G37*
%TD.AperFunction*%
%TO.P,R5,1*%
%TO.N,TEST_LED*%
%TA.AperFunction,SMDPad,CuDef*%
G36*
G01*
X56075000Y-123650002D02*
X56075000Y-122749998D01*
G75*
G02*
X56324998Y-122500000I249998J0D01*
G01*
X56850002Y-122500000D01*
G75*
G02*
X57100000Y-122749998I0J-249998D01*
G01*
X57100000Y-123650002D01*
G75*
G02*
X56850002Y-123900000I-249998J0D01*
G01*
X56324998Y-123900000D01*
G75*
G02*
X56075000Y-123650002I0J249998D01*
G01*
G37*
%TD.AperFunction*%
%TD*%
D13*
%TO.P,J12,2*%
%TO.N,TEST_LED*%
X53940000Y-122400000D03*
D14*
%TO.P,J12,1*%
%TO.N,GND*%
X51400000Y-122400000D03*
%TD*%
D13*
%TO.P,J11,3*%
%TO.N,+3V3*%
X46600000Y-114600000D03*
%TO.P,J11,2*%
%TO.N,RST*%
X46600000Y-117140000D03*
D14*
%TO.P,J11,1*%
%TO.N,SBWTCK*%
X46600000Y-119680000D03*
%TD*%
D13*
%TO.P,J8,2*%
%TO.N,UNUSED_2*%
X31960000Y-122800000D03*
D14*
%TO.P,J8,1*%
%TO.N,UNUSED_1*%
X34500000Y-122800000D03*
%TD*%
D13*
%TO.P,J10,2*%
%TO.N,UART_TX*%
X41200000Y-107000000D03*
D14*
%TO.P,J10,1*%
%TO.N,UART_RX*%
X41200000Y-109540000D03*
%TD*%
%TO.P,D5,2*%
%TO.N,Net-(D5-Pad2)*%
%TA.AperFunction,SMDPad,CuDef*%
G36*
G01*
X49262500Y-105356250D02*
X49262500Y-104843750D01*
G75*
G02*
X49481250Y-104625000I218750J0D01*
G01*
X49918750Y-104625000D01*
G75*
G02*
X50137500Y-104843750I0J-218750D01*
G01*
X50137500Y-105356250D01*
G75*
G02*
X49918750Y-105575000I-218750J0D01*
G01*
X49481250Y-105575000D01*
G75*
G02*
X49262500Y-105356250I0J218750D01*
G01*
G37*
%TD.AperFunction*%
%TO.P,D5,1*%
%TO.N,IR_RECEIVER*%
%TA.AperFunction,SMDPad,CuDef*%
G36*
G01*
X47687500Y-105356250D02*
X47687500Y-104843750D01*
G75*
G02*
X47906250Y-104625000I218750J0D01*
G01*
X48343750Y-104625000D01*
G75*
G02*
X48562500Y-104843750I0J-218750D01*
G01*
X48562500Y-105356250D01*
G75*
G02*
X48343750Y-105575000I-218750J0D01*
G01*
X47906250Y-105575000D01*
G75*
G02*
X47687500Y-105356250I0J218750D01*
G01*
G37*
%TD.AperFunction*%
%TD*%
D13*
%TO.P,SW2,2*%
%TO.N,Net-(SW2-Pad2)*%
X75300000Y-121940000D03*
D14*
%TO.P,SW2,1*%
%TO.N,Net-(J3-Pad1)*%
X75300000Y-119400000D03*
%TD*%
D22*
%TO.P,SW1,2*%
%TO.N,RST*%
X49650000Y-114950000D03*
%TO.P,SW1,1*%
%TO.N,GND*%
X49650000Y-119450000D03*
X57600000Y-119450000D03*
%TO.P,SW1,2*%
%TO.N,RST*%
X57600000Y-114950000D03*
%TD*%
D23*
%TO.P,U2,6*%
%TO.N,Net-(C4-Pad2)*%
X64051000Y-113046000D03*
%TO.P,U2,5*%
%TO.N,Net-(C1-Pad1)*%
X64051000Y-113996000D03*
%TO.P,U2,4*%
%TO.N,Net-(R3-Pad2)*%
X64051000Y-114946000D03*
%TO.P,U2,3*%
%TO.N,Net-(R12-Pad2)*%
X61431000Y-114946000D03*
%TO.P,U2,2*%
%TO.N,GND*%
X61431000Y-113996000D03*
%TO.P,U2,1*%
%TO.N,Net-(C4-Pad1)*%
X61431000Y-113046000D03*
%TD*%
%TO.P,R15,2*%
%TO.N,GND*%
%TA.AperFunction,SMDPad,CuDef*%
G36*
G01*
X61987500Y-117250002D02*
X61987500Y-116349998D01*
G75*
G02*
X62237498Y-116100000I249998J0D01*
G01*
X62762502Y-116100000D01*
G75*
G02*
X63012500Y-116349998I0J-249998D01*
G01*
X63012500Y-117250002D01*
G75*
G02*
X62762502Y-117500000I-249998J0D01*
G01*
X62237498Y-117500000D01*
G75*
G02*
X61987500Y-117250002I0J249998D01*
G01*
G37*
%TD.AperFunction*%
%TO.P,R15,1*%
%TO.N,Net-(R12-Pad2)*%
%TA.AperFunction,SMDPad,CuDef*%
G36*
G01*
X60162500Y-117250002D02*
X60162500Y-116349998D01*
G75*
G02*
X60412498Y-116100000I249998J0D01*
G01*
X60937502Y-116100000D01*
G75*
G02*
X61187500Y-116349998I0J-249998D01*
G01*
X61187500Y-117250002D01*
G75*
G02*
X60937502Y-117500000I-249998J0D01*
G01*
X60412498Y-117500000D01*
G75*
G02*
X60162500Y-117250002I0J249998D01*
G01*
G37*
%TD.AperFunction*%
%TD*%
%TO.P,R12,2*%
%TO.N,Net-(R12-Pad2)*%
%TA.AperFunction,SMDPad,CuDef*%
G36*
G01*
X58949998Y-112200000D02*
X59850002Y-112200000D01*
G75*
G02*
X60100000Y-112449998I0J-249998D01*
G01*
X60100000Y-112975002D01*
G75*
G02*
X59850002Y-113225000I-249998J0D01*
G01*
X58949998Y-113225000D01*
G75*
G02*
X58700000Y-112975002I0J249998D01*
G01*
X58700000Y-112449998D01*
G75*
G02*
X58949998Y-112200000I249998J0D01*
G01*
G37*
%TD.AperFunction*%
%TO.P,R12,1*%
%TO.N,+5V*%
%TA.AperFunction,SMDPad,CuDef*%
G36*
G01*
X58949998Y-110375000D02*
X59850002Y-110375000D01*
G75*
G02*
X60100000Y-110624998I0J-249998D01*
G01*
X60100000Y-111150002D01*
G75*
G02*
X59850002Y-111400000I-249998J0D01*
G01*
X58949998Y-111400000D01*
G75*
G02*
X58700000Y-111150002I0J249998D01*
G01*
X58700000Y-110624998D01*
G75*
G02*
X58949998Y-110375000I249998J0D01*
G01*
G37*
%TD.AperFunction*%
%TD*%
%TO.P,R3,2*%
%TO.N,Net-(R3-Pad2)*%
%TA.AperFunction,SMDPad,CuDef*%
G36*
G01*
X64600000Y-116349998D02*
X64600000Y-117250002D01*
G75*
G02*
X64350002Y-117500000I-249998J0D01*
G01*
X63824998Y-117500000D01*
G75*
G02*
X63575000Y-117250002I0J249998D01*
G01*
X63575000Y-116349998D01*
G75*
G02*
X63824998Y-116100000I249998J0D01*
G01*
X64350002Y-116100000D01*
G75*
G02*
X64600000Y-116349998I0J-249998D01*
G01*
G37*
%TD.AperFunction*%
%TO.P,R3,1*%
%TO.N,Net-(C1-Pad1)*%
%TA.AperFunction,SMDPad,CuDef*%
G36*
G01*
X66425000Y-116349998D02*
X66425000Y-117250002D01*
G75*
G02*
X66175002Y-117500000I-249998J0D01*
G01*
X65649998Y-117500000D01*
G75*
G02*
X65400000Y-117250002I0J249998D01*
G01*
X65400000Y-116349998D01*
G75*
G02*
X65649998Y-116100000I249998J0D01*
G01*
X66175002Y-116100000D01*
G75*
G02*
X66425000Y-116349998I0J-249998D01*
G01*
G37*
%TD.AperFunction*%
%TD*%
D24*
%TO.P,L1,2*%
%TO.N,+5V*%
X63700000Y-104450000D03*
%TO.P,L1,1*%
%TO.N,Net-(C4-Pad2)*%
X63700000Y-108550000D03*
%TD*%
D25*
%TO.P,D4,2*%
%TO.N,GND*%
X68000000Y-111000000D03*
%TO.P,D4,1*%
%TO.N,Net-(C4-Pad2)*%
X64700000Y-111000000D03*
%TD*%
%TO.P,C4,2*%
%TO.N,Net-(C4-Pad2)*%
%TA.AperFunction,SMDPad,CuDef*%
G36*
G01*
X62577000Y-111616000D02*
X62577000Y-110666000D01*
G75*
G02*
X62827000Y-110416000I250000J0D01*
G01*
X63327000Y-110416000D01*
G75*
G02*
X63577000Y-110666000I0J-250000D01*
G01*
X63577000Y-111616000D01*
G75*
G02*
X63327000Y-111866000I-250000J0D01*
G01*
X62827000Y-111866000D01*
G75*
G02*
X62577000Y-111616000I0J250000D01*
G01*
G37*
%TD.AperFunction*%
%TO.P,C4,1*%
%TO.N,Net-(C4-Pad1)*%
%TA.AperFunction,SMDPad,CuDef*%
G36*
G01*
X60677000Y-111616000D02*
X60677000Y-110666000D01*
G75*
G02*
X60927000Y-110416000I250000J0D01*
G01*
X61427000Y-110416000D01*
G75*
G02*
X61677000Y-110666000I0J-250000D01*
G01*
X61677000Y-111616000D01*
G75*
G02*
X61427000Y-111866000I-250000J0D01*
G01*
X60927000Y-111866000D01*
G75*
G02*
X60677000Y-111616000I0J250000D01*
G01*
G37*
%TD.AperFunction*%
%TD*%
%TO.P,C1,2*%
%TO.N,GND*%
%TA.AperFunction,SMDPad,CuDef*%
G36*
G01*
X67281000Y-113775000D02*
X67281000Y-112825000D01*
G75*
G02*
X67531000Y-112575000I250000J0D01*
G01*
X68031000Y-112575000D01*
G75*
G02*
X68281000Y-112825000I0J-250000D01*
G01*
X68281000Y-113775000D01*
G75*
G02*
X68031000Y-114025000I-250000J0D01*
G01*
X67531000Y-114025000D01*
G75*
G02*
X67281000Y-113775000I0J250000D01*
G01*
G37*
%TD.AperFunction*%
%TO.P,C1,1*%
%TO.N,Net-(C1-Pad1)*%
%TA.AperFunction,SMDPad,CuDef*%
G36*
G01*
X65381000Y-113775000D02*
X65381000Y-112825000D01*
G75*
G02*
X65631000Y-112575000I250000J0D01*
G01*
X66131000Y-112575000D01*
G75*
G02*
X66381000Y-112825000I0J-250000D01*
G01*
X66381000Y-113775000D01*
G75*
G02*
X66131000Y-114025000I-250000J0D01*
G01*
X65631000Y-114025000D01*
G75*
G02*
X65381000Y-113775000I0J250000D01*
G01*
G37*
%TD.AperFunction*%
%TD*%
%TO.P,R10,1*%
%TO.N,+3V3*%
%TA.AperFunction,SMDPad,CuDef*%
G36*
G01*
X50749998Y-96775000D02*
X51650002Y-96775000D01*
G75*
G02*
X51900000Y-97024998I0J-249998D01*
G01*
X51900000Y-97550002D01*
G75*
G02*
X51650002Y-97800000I-249998J0D01*
G01*
X50749998Y-97800000D01*
G75*
G02*
X50500000Y-97550002I0J249998D01*
G01*
X50500000Y-97024998D01*
G75*
G02*
X50749998Y-96775000I249998J0D01*
G01*
G37*
%TD.AperFunction*%
%TO.P,R10,2*%
%TO.N,Net-(D5-Pad2)*%
%TA.AperFunction,SMDPad,CuDef*%
G36*
G01*
X50749998Y-98600000D02*
X51650002Y-98600000D01*
G75*
G02*
X51900000Y-98849998I0J-249998D01*
G01*
X51900000Y-99375002D01*
G75*
G02*
X51650002Y-99625000I-249998J0D01*
G01*
X50749998Y-99625000D01*
G75*
G02*
X50500000Y-99375002I0J249998D01*
G01*
X50500000Y-98849998D01*
G75*
G02*
X50749998Y-98600000I249998J0D01*
G01*
G37*
%TD.AperFunction*%
%TD*%
%TO.P,R7,1*%
%TO.N,+5V*%
%TA.AperFunction,SMDPad,CuDef*%
G36*
G01*
X67837500Y-100749998D02*
X67837500Y-101650002D01*
G75*
G02*
X67587502Y-101900000I-249998J0D01*
G01*
X67062498Y-101900000D01*
G75*
G02*
X66812500Y-101650002I0J249998D01*
G01*
X66812500Y-100749998D01*
G75*
G02*
X67062498Y-100500000I249998J0D01*
G01*
X67587502Y-100500000D01*
G75*
G02*
X67837500Y-100749998I0J-249998D01*
G01*
G37*
%TD.AperFunction*%
%TO.P,R7,2*%
%TO.N,Net-(D3-Pad2)*%
%TA.AperFunction,SMDPad,CuDef*%
G36*
G01*
X66012500Y-100749998D02*
X66012500Y-101650002D01*
G75*
G02*
X65762502Y-101900000I-249998J0D01*
G01*
X65237498Y-101900000D01*
G75*
G02*
X64987500Y-101650002I0J249998D01*
G01*
X64987500Y-100749998D01*
G75*
G02*
X65237498Y-100500000I249998J0D01*
G01*
X65762502Y-100500000D01*
G75*
G02*
X66012500Y-100749998I0J-249998D01*
G01*
G37*
%TD.AperFunction*%
%TD*%
%TO.P,R6,2*%
%TO.N,Net-(D2-Pad2)*%
%TA.AperFunction,SMDPad,CuDef*%
G36*
G01*
X60050002Y-103100000D02*
X59149998Y-103100000D01*
G75*
G02*
X58900000Y-102850002I0J249998D01*
G01*
X58900000Y-102324998D01*
G75*
G02*
X59149998Y-102075000I249998J0D01*
G01*
X60050002Y-102075000D01*
G75*
G02*
X60300000Y-102324998I0J-249998D01*
G01*
X60300000Y-102850002D01*
G75*
G02*
X60050002Y-103100000I-249998J0D01*
G01*
G37*
%TD.AperFunction*%
%TO.P,R6,1*%
%TO.N,+3V3*%
%TA.AperFunction,SMDPad,CuDef*%
G36*
G01*
X60050002Y-104925000D02*
X59149998Y-104925000D01*
G75*
G02*
X58900000Y-104675002I0J249998D01*
G01*
X58900000Y-104149998D01*
G75*
G02*
X59149998Y-103900000I249998J0D01*
G01*
X60050002Y-103900000D01*
G75*
G02*
X60300000Y-104149998I0J-249998D01*
G01*
X60300000Y-104675002D01*
G75*
G02*
X60050002Y-104925000I-249998J0D01*
G01*
G37*
%TD.AperFunction*%
%TD*%
%TO.P,R2,2*%
%TO.N,Net-(C3-Pad1)*%
%TA.AperFunction,SMDPad,CuDef*%
G36*
G01*
X52687500Y-109349998D02*
X52687500Y-110250002D01*
G75*
G02*
X52437502Y-110500000I-249998J0D01*
G01*
X51912498Y-110500000D01*
G75*
G02*
X51662500Y-110250002I0J249998D01*
G01*
X51662500Y-109349998D01*
G75*
G02*
X51912498Y-109100000I249998J0D01*
G01*
X52437502Y-109100000D01*
G75*
G02*
X52687500Y-109349998I0J-249998D01*
G01*
G37*
%TD.AperFunction*%
%TO.P,R2,1*%
%TO.N,+3V3*%
%TA.AperFunction,SMDPad,CuDef*%
G36*
G01*
X54512500Y-109349998D02*
X54512500Y-110250002D01*
G75*
G02*
X54262502Y-110500000I-249998J0D01*
G01*
X53737498Y-110500000D01*
G75*
G02*
X53487500Y-110250002I0J249998D01*
G01*
X53487500Y-109349998D01*
G75*
G02*
X53737498Y-109100000I249998J0D01*
G01*
X54262502Y-109100000D01*
G75*
G02*
X54512500Y-109349998I0J-249998D01*
G01*
G37*
%TD.AperFunction*%
%TD*%
%TO.P,R1,2*%
%TO.N,+3V3*%
%TA.AperFunction,SMDPad,CuDef*%
G36*
G01*
X49550000Y-112725000D02*
X49550000Y-113275000D01*
G75*
G02*
X49350000Y-113475000I-200000J0D01*
G01*
X48950000Y-113475000D01*
G75*
G02*
X48750000Y-113275000I0J200000D01*
G01*
X48750000Y-112725000D01*
G75*
G02*
X48950000Y-112525000I200000J0D01*
G01*
X49350000Y-112525000D01*
G75*
G02*
X49550000Y-112725000I0J-200000D01*
G01*
G37*
%TD.AperFunction*%
%TO.P,R1,1*%
%TO.N,RST*%
%TA.AperFunction,SMDPad,CuDef*%
G36*
G01*
X51200000Y-112725000D02*
X51200000Y-113275000D01*
G75*
G02*
X51000000Y-113475000I-200000J0D01*
G01*
X50600000Y-113475000D01*
G75*
G02*
X50400000Y-113275000I0J200000D01*
G01*
X50400000Y-112725000D01*
G75*
G02*
X50600000Y-112525000I200000J0D01*
G01*
X51000000Y-112525000D01*
G75*
G02*
X51200000Y-112725000I0J-200000D01*
G01*
G37*
%TD.AperFunction*%
%TD*%
%TO.P,D2,2*%
%TO.N,Net-(D2-Pad2)*%
%TA.AperFunction,SMDPad,CuDef*%
G36*
G01*
X59650000Y-100743750D02*
X59650000Y-101256250D01*
G75*
G02*
X59431250Y-101475000I-218750J0D01*
G01*
X58993750Y-101475000D01*
G75*
G02*
X58775000Y-101256250I0J218750D01*
G01*
X58775000Y-100743750D01*
G75*
G02*
X58993750Y-100525000I218750J0D01*
G01*
X59431250Y-100525000D01*
G75*
G02*
X59650000Y-100743750I0J-218750D01*
G01*
G37*
%TD.AperFunction*%
%TO.P,D2,1*%
%TO.N,GND*%
%TA.AperFunction,SMDPad,CuDef*%
G36*
G01*
X61225000Y-100743750D02*
X61225000Y-101256250D01*
G75*
G02*
X61006250Y-101475000I-218750J0D01*
G01*
X60568750Y-101475000D01*
G75*
G02*
X60350000Y-101256250I0J218750D01*
G01*
X60350000Y-100743750D01*
G75*
G02*
X60568750Y-100525000I218750J0D01*
G01*
X61006250Y-100525000D01*
G75*
G02*
X61225000Y-100743750I0J-218750D01*
G01*
G37*
%TD.AperFunction*%
%TD*%
%TO.P,C8,2*%
%TO.N,GND*%
%TA.AperFunction,SMDPad,CuDef*%
G36*
G01*
X44450000Y-110975000D02*
X43950000Y-110975000D01*
G75*
G02*
X43725000Y-110750000I0J225000D01*
G01*
X43725000Y-110300000D01*
G75*
G02*
X43950000Y-110075000I225000J0D01*
G01*
X44450000Y-110075000D01*
G75*
G02*
X44675000Y-110300000I0J-225000D01*
G01*
X44675000Y-110750000D01*
G75*
G02*
X44450000Y-110975000I-225000J0D01*
G01*
G37*
%TD.AperFunction*%
%TO.P,C8,1*%
%TO.N,+3V3*%
%TA.AperFunction,SMDPad,CuDef*%
G36*
G01*
X44450000Y-112525000D02*
X43950000Y-112525000D01*
G75*
G02*
X43725000Y-112300000I0J225000D01*
G01*
X43725000Y-111850000D01*
G75*
G02*
X43950000Y-111625000I225000J0D01*
G01*
X44450000Y-111625000D01*
G75*
G02*
X44675000Y-111850000I0J-225000D01*
G01*
X44675000Y-112300000D01*
G75*
G02*
X44450000Y-112525000I-225000J0D01*
G01*
G37*
%TD.AperFunction*%
%TD*%
%TO.P,C7,2*%
%TO.N,GND*%
%TA.AperFunction,SMDPad,CuDef*%
G36*
G01*
X45925000Y-105350000D02*
X45925000Y-104850000D01*
G75*
G02*
X46150000Y-104625000I225000J0D01*
G01*
X46600000Y-104625000D01*
G75*
G02*
X46825000Y-104850000I0J-225000D01*
G01*
X46825000Y-105350000D01*
G75*
G02*
X46600000Y-105575000I-225000J0D01*
G01*
X46150000Y-105575000D01*
G75*
G02*
X45925000Y-105350000I0J225000D01*
G01*
G37*
%TD.AperFunction*%
%TO.P,C7,1*%
%TO.N,Net-(C7-Pad1)*%
%TA.AperFunction,SMDPad,CuDef*%
G36*
G01*
X44375000Y-105350000D02*
X44375000Y-104850000D01*
G75*
G02*
X44600000Y-104625000I225000J0D01*
G01*
X45050000Y-104625000D01*
G75*
G02*
X45275000Y-104850000I0J-225000D01*
G01*
X45275000Y-105350000D01*
G75*
G02*
X45050000Y-105575000I-225000J0D01*
G01*
X44600000Y-105575000D01*
G75*
G02*
X44375000Y-105350000I0J225000D01*
G01*
G37*
%TD.AperFunction*%
%TD*%
%TO.P,C6,2*%
%TO.N,GND*%
%TA.AperFunction,SMDPad,CuDef*%
G36*
G01*
X45950000Y-110975000D02*
X45450000Y-110975000D01*
G75*
G02*
X45225000Y-110750000I0J225000D01*
G01*
X45225000Y-110300000D01*
G75*
G02*
X45450000Y-110075000I225000J0D01*
G01*
X45950000Y-110075000D01*
G75*
G02*
X46175000Y-110300000I0J-225000D01*
G01*
X46175000Y-110750000D01*
G75*
G02*
X45950000Y-110975000I-225000J0D01*
G01*
G37*
%TD.AperFunction*%
%TO.P,C6,1*%
%TO.N,+3V3*%
%TA.AperFunction,SMDPad,CuDef*%
G36*
G01*
X45950000Y-112525000D02*
X45450000Y-112525000D01*
G75*
G02*
X45225000Y-112300000I0J225000D01*
G01*
X45225000Y-111850000D01*
G75*
G02*
X45450000Y-111625000I225000J0D01*
G01*
X45950000Y-111625000D01*
G75*
G02*
X46175000Y-111850000I0J-225000D01*
G01*
X46175000Y-112300000D01*
G75*
G02*
X45950000Y-112525000I-225000J0D01*
G01*
G37*
%TD.AperFunction*%
%TD*%
%TO.P,C5,2*%
%TO.N,GND*%
%TA.AperFunction,SMDPad,CuDef*%
G36*
G01*
X53500000Y-113250000D02*
X53500000Y-112750000D01*
G75*
G02*
X53725000Y-112525000I225000J0D01*
G01*
X54175000Y-112525000D01*
G75*
G02*
X54400000Y-112750000I0J-225000D01*
G01*
X54400000Y-113250000D01*
G75*
G02*
X54175000Y-113475000I-225000J0D01*
G01*
X53725000Y-113475000D01*
G75*
G02*
X53500000Y-113250000I0J225000D01*
G01*
G37*
%TD.AperFunction*%
%TO.P,C5,1*%
%TO.N,RST*%
%TA.AperFunction,SMDPad,CuDef*%
G36*
G01*
X51950000Y-113250000D02*
X51950000Y-112750000D01*
G75*
G02*
X52175000Y-112525000I225000J0D01*
G01*
X52625000Y-112525000D01*
G75*
G02*
X52850000Y-112750000I0J-225000D01*
G01*
X52850000Y-113250000D01*
G75*
G02*
X52625000Y-113475000I-225000J0D01*
G01*
X52175000Y-113475000D01*
G75*
G02*
X51950000Y-113250000I0J225000D01*
G01*
G37*
%TD.AperFunction*%
%TD*%
%TO.P,C2,2*%
%TO.N,GND*%
%TA.AperFunction,SMDPad,CuDef*%
G36*
G01*
X56150000Y-109325000D02*
X56150000Y-110275000D01*
G75*
G02*
X55900000Y-110525000I-250000J0D01*
G01*
X55400000Y-110525000D01*
G75*
G02*
X55150000Y-110275000I0J250000D01*
G01*
X55150000Y-109325000D01*
G75*
G02*
X55400000Y-109075000I250000J0D01*
G01*
X55900000Y-109075000D01*
G75*
G02*
X56150000Y-109325000I0J-250000D01*
G01*
G37*
%TD.AperFunction*%
%TO.P,C2,1*%
%TO.N,Net-(C2-Pad1)*%
%TA.AperFunction,SMDPad,CuDef*%
G36*
G01*
X58050000Y-109325000D02*
X58050000Y-110275000D01*
G75*
G02*
X57800000Y-110525000I-250000J0D01*
G01*
X57300000Y-110525000D01*
G75*
G02*
X57050000Y-110275000I0J250000D01*
G01*
X57050000Y-109325000D01*
G75*
G02*
X57300000Y-109075000I250000J0D01*
G01*
X57800000Y-109075000D01*
G75*
G02*
X58050000Y-109325000I0J-250000D01*
G01*
G37*
%TD.AperFunction*%
%TD*%
%TO.P,D3,2*%
%TO.N,Net-(D3-Pad2)*%
%TA.AperFunction,SMDPad,CuDef*%
G36*
G01*
X63450000Y-101256250D02*
X63450000Y-100743750D01*
G75*
G02*
X63668750Y-100525000I218750J0D01*
G01*
X64106250Y-100525000D01*
G75*
G02*
X64325000Y-100743750I0J-218750D01*
G01*
X64325000Y-101256250D01*
G75*
G02*
X64106250Y-101475000I-218750J0D01*
G01*
X63668750Y-101475000D01*
G75*
G02*
X63450000Y-101256250I0J218750D01*
G01*
G37*
%TD.AperFunction*%
%TO.P,D3,1*%
%TO.N,GND*%
%TA.AperFunction,SMDPad,CuDef*%
G36*
G01*
X61875000Y-101256250D02*
X61875000Y-100743750D01*
G75*
G02*
X62093750Y-100525000I218750J0D01*
G01*
X62531250Y-100525000D01*
G75*
G02*
X62750000Y-100743750I0J-218750D01*
G01*
X62750000Y-101256250D01*
G75*
G02*
X62531250Y-101475000I-218750J0D01*
G01*
X62093750Y-101475000D01*
G75*
G02*
X61875000Y-101256250I0J218750D01*
G01*
G37*
%TD.AperFunction*%
%TD*%
%TO.P,D6,2*%
%TO.N,Net-(D6-Pad2)*%
%TA.AperFunction,SMDPad,CuDef*%
G36*
G01*
X57650000Y-121556250D02*
X57650000Y-121043750D01*
G75*
G02*
X57868750Y-120825000I218750J0D01*
G01*
X58306250Y-120825000D01*
G75*
G02*
X58525000Y-121043750I0J-218750D01*
G01*
X58525000Y-121556250D01*
G75*
G02*
X58306250Y-121775000I-218750J0D01*
G01*
X57868750Y-121775000D01*
G75*
G02*
X57650000Y-121556250I0J218750D01*
G01*
G37*
%TD.AperFunction*%
%TO.P,D6,1*%
%TO.N,GND*%
%TA.AperFunction,SMDPad,CuDef*%
G36*
G01*
X56075000Y-121556250D02*
X56075000Y-121043750D01*
G75*
G02*
X56293750Y-120825000I218750J0D01*
G01*
X56731250Y-120825000D01*
G75*
G02*
X56950000Y-121043750I0J-218750D01*
G01*
X56950000Y-121556250D01*
G75*
G02*
X56731250Y-121775000I-218750J0D01*
G01*
X56293750Y-121775000D01*
G75*
G02*
X56075000Y-121556250I0J218750D01*
G01*
G37*
%TD.AperFunction*%
%TD*%
D26*
%TO.P,U1,3*%
%TO.N,Net-(C7-Pad1)*%
X43920000Y-102700000D03*
%TO.P,U1,2*%
%TO.N,GND*%
X46460000Y-102700000D03*
%TO.P,U1,1*%
%TO.N,IR_RECEIVER*%
%TA.AperFunction,ComponentPad*%
G36*
G01*
X49900000Y-102050200D02*
X49900000Y-103349800D01*
G75*
G02*
X49649800Y-103600000I-250200J0D01*
G01*
X48350200Y-103600000D01*
G75*
G02*
X48100000Y-103349800I0J250200D01*
G01*
X48100000Y-102050200D01*
G75*
G02*
X48350200Y-101800000I250200J0D01*
G01*
X49649800Y-101800000D01*
G75*
G02*
X49900000Y-102050200I0J-250200D01*
G01*
G37*
%TD.AperFunction*%
%TD*%
%TO.P,U4,28*%
%TO.N,GND*%
%TA.AperFunction,SMDPad,CuDef*%
G36*
G01*
X43733000Y-118838000D02*
X43933000Y-118838000D01*
G75*
G02*
X44033000Y-118938000I0J-100000D01*
G01*
X44033000Y-120213000D01*
G75*
G02*
X43933000Y-120313000I-100000J0D01*
G01*
X43733000Y-120313000D01*
G75*
G02*
X43633000Y-120213000I0J100000D01*
G01*
X43633000Y-118938000D01*
G75*
G02*
X43733000Y-118838000I100000J0D01*
G01*
G37*
%TD.AperFunction*%
%TO.P,U4,27*%
%TO.N,TEST_LED*%
%TA.AperFunction,SMDPad,CuDef*%
G36*
G01*
X43083000Y-118838000D02*
X43283000Y-118838000D01*
G75*
G02*
X43383000Y-118938000I0J-100000D01*
G01*
X43383000Y-120213000D01*
G75*
G02*
X43283000Y-120313000I-100000J0D01*
G01*
X43083000Y-120313000D01*
G75*
G02*
X42983000Y-120213000I0J100000D01*
G01*
X42983000Y-118938000D01*
G75*
G02*
X43083000Y-118838000I100000J0D01*
G01*
G37*
%TD.AperFunction*%
%TO.P,U4,26*%
%TO.N,MOTS_RIGHT_CH2*%
%TA.AperFunction,SMDPad,CuDef*%
G36*
G01*
X42433000Y-118838000D02*
X42633000Y-118838000D01*
G75*
G02*
X42733000Y-118938000I0J-100000D01*
G01*
X42733000Y-120213000D01*
G75*
G02*
X42633000Y-120313000I-100000J0D01*
G01*
X42433000Y-120313000D01*
G75*
G02*
X42333000Y-120213000I0J100000D01*
G01*
X42333000Y-118938000D01*
G75*
G02*
X42433000Y-118838000I100000J0D01*
G01*
G37*
%TD.AperFunction*%
%TO.P,U4,25*%
%TO.N,SBWTCK*%
%TA.AperFunction,SMDPad,CuDef*%
G36*
G01*
X41783000Y-118838000D02*
X41983000Y-118838000D01*
G75*
G02*
X42083000Y-118938000I0J-100000D01*
G01*
X42083000Y-120213000D01*
G75*
G02*
X41983000Y-120313000I-100000J0D01*
G01*
X41783000Y-120313000D01*
G75*
G02*
X41683000Y-120213000I0J100000D01*
G01*
X41683000Y-118938000D01*
G75*
G02*
X41783000Y-118838000I100000J0D01*
G01*
G37*
%TD.AperFunction*%
%TO.P,U4,24*%
%TO.N,RST*%
%TA.AperFunction,SMDPad,CuDef*%
G36*
G01*
X41133000Y-118838000D02*
X41333000Y-118838000D01*
G75*
G02*
X41433000Y-118938000I0J-100000D01*
G01*
X41433000Y-120213000D01*
G75*
G02*
X41333000Y-120313000I-100000J0D01*
G01*
X41133000Y-120313000D01*
G75*
G02*
X41033000Y-120213000I0J100000D01*
G01*
X41033000Y-118938000D01*
G75*
G02*
X41133000Y-118838000I100000J0D01*
G01*
G37*
%TD.AperFunction*%
%TO.P,U4,23*%
%TO.N,SDA*%
%TA.AperFunction,SMDPad,CuDef*%
G36*
G01*
X40483000Y-118838000D02*
X40683000Y-118838000D01*
G75*
G02*
X40783000Y-118938000I0J-100000D01*
G01*
X40783000Y-120213000D01*
G75*
G02*
X40683000Y-120313000I-100000J0D01*
G01*
X40483000Y-120313000D01*
G75*
G02*
X40383000Y-120213000I0J100000D01*
G01*
X40383000Y-118938000D01*
G75*
G02*
X40483000Y-118838000I100000J0D01*
G01*
G37*
%TD.AperFunction*%
%TO.P,U4,22*%
%TO.N,SCL*%
%TA.AperFunction,SMDPad,CuDef*%
G36*
G01*
X39833000Y-118838000D02*
X40033000Y-118838000D01*
G75*
G02*
X40133000Y-118938000I0J-100000D01*
G01*
X40133000Y-120213000D01*
G75*
G02*
X40033000Y-120313000I-100000J0D01*
G01*
X39833000Y-120313000D01*
G75*
G02*
X39733000Y-120213000I0J100000D01*
G01*
X39733000Y-118938000D01*
G75*
G02*
X39833000Y-118838000I100000J0D01*
G01*
G37*
%TD.AperFunction*%
%TO.P,U4,21*%
%TO.N,MOTS_RIGHT_CH1*%
%TA.AperFunction,SMDPad,CuDef*%
G36*
G01*
X39183000Y-118838000D02*
X39383000Y-118838000D01*
G75*
G02*
X39483000Y-118938000I0J-100000D01*
G01*
X39483000Y-120213000D01*
G75*
G02*
X39383000Y-120313000I-100000J0D01*
G01*
X39183000Y-120313000D01*
G75*
G02*
X39083000Y-120213000I0J100000D01*
G01*
X39083000Y-118938000D01*
G75*
G02*
X39183000Y-118838000I100000J0D01*
G01*
G37*
%TD.AperFunction*%
%TO.P,U4,20*%
%TO.N,MOTS_RIGHT_PWM*%
%TA.AperFunction,SMDPad,CuDef*%
G36*
G01*
X38533000Y-118838000D02*
X38733000Y-118838000D01*
G75*
G02*
X38833000Y-118938000I0J-100000D01*
G01*
X38833000Y-120213000D01*
G75*
G02*
X38733000Y-120313000I-100000J0D01*
G01*
X38533000Y-120313000D01*
G75*
G02*
X38433000Y-120213000I0J100000D01*
G01*
X38433000Y-118938000D01*
G75*
G02*
X38533000Y-118838000I100000J0D01*
G01*
G37*
%TD.AperFunction*%
%TO.P,U4,19*%
%TO.N,MOTS_LEFT_PWM*%
%TA.AperFunction,SMDPad,CuDef*%
G36*
G01*
X37883000Y-118838000D02*
X38083000Y-118838000D01*
G75*
G02*
X38183000Y-118938000I0J-100000D01*
G01*
X38183000Y-120213000D01*
G75*
G02*
X38083000Y-120313000I-100000J0D01*
G01*
X37883000Y-120313000D01*
G75*
G02*
X37783000Y-120213000I0J100000D01*
G01*
X37783000Y-118938000D01*
G75*
G02*
X37883000Y-118838000I100000J0D01*
G01*
G37*
%TD.AperFunction*%
%TO.P,U4,18*%
%TO.N,MOTS_LEFT_CH1*%
%TA.AperFunction,SMDPad,CuDef*%
G36*
G01*
X37233000Y-118838000D02*
X37433000Y-118838000D01*
G75*
G02*
X37533000Y-118938000I0J-100000D01*
G01*
X37533000Y-120213000D01*
G75*
G02*
X37433000Y-120313000I-100000J0D01*
G01*
X37233000Y-120313000D01*
G75*
G02*
X37133000Y-120213000I0J100000D01*
G01*
X37133000Y-118938000D01*
G75*
G02*
X37233000Y-118838000I100000J0D01*
G01*
G37*
%TD.AperFunction*%
%TO.P,U4,17*%
%TO.N,MOTS_LEFT_CH2*%
%TA.AperFunction,SMDPad,CuDef*%
G36*
G01*
X36583000Y-118838000D02*
X36783000Y-118838000D01*
G75*
G02*
X36883000Y-118938000I0J-100000D01*
G01*
X36883000Y-120213000D01*
G75*
G02*
X36783000Y-120313000I-100000J0D01*
G01*
X36583000Y-120313000D01*
G75*
G02*
X36483000Y-120213000I0J100000D01*
G01*
X36483000Y-118938000D01*
G75*
G02*
X36583000Y-118838000I100000J0D01*
G01*
G37*
%TD.AperFunction*%
%TO.P,U4,16*%
%TO.N,UNUSED_1*%
%TA.AperFunction,SMDPad,CuDef*%
G36*
G01*
X35933000Y-118838000D02*
X36133000Y-118838000D01*
G75*
G02*
X36233000Y-118938000I0J-100000D01*
G01*
X36233000Y-120213000D01*
G75*
G02*
X36133000Y-120313000I-100000J0D01*
G01*
X35933000Y-120313000D01*
G75*
G02*
X35833000Y-120213000I0J100000D01*
G01*
X35833000Y-118938000D01*
G75*
G02*
X35933000Y-118838000I100000J0D01*
G01*
G37*
%TD.AperFunction*%
%TO.P,U4,15*%
%TO.N,UNUSED_2*%
%TA.AperFunction,SMDPad,CuDef*%
G36*
G01*
X35283000Y-118838000D02*
X35483000Y-118838000D01*
G75*
G02*
X35583000Y-118938000I0J-100000D01*
G01*
X35583000Y-120213000D01*
G75*
G02*
X35483000Y-120313000I-100000J0D01*
G01*
X35283000Y-120313000D01*
G75*
G02*
X35183000Y-120213000I0J100000D01*
G01*
X35183000Y-118938000D01*
G75*
G02*
X35283000Y-118838000I100000J0D01*
G01*
G37*
%TD.AperFunction*%
%TO.P,U4,14*%
%TO.N,XSHUT_LEFT*%
%TA.AperFunction,SMDPad,CuDef*%
G36*
G01*
X35283000Y-113113000D02*
X35483000Y-113113000D01*
G75*
G02*
X35583000Y-113213000I0J-100000D01*
G01*
X35583000Y-114488000D01*
G75*
G02*
X35483000Y-114588000I-100000J0D01*
G01*
X35283000Y-114588000D01*
G75*
G02*
X35183000Y-114488000I0J100000D01*
G01*
X35183000Y-113213000D01*
G75*
G02*
X35283000Y-113113000I100000J0D01*
G01*
G37*
%TD.AperFunction*%
%TO.P,U4,13*%
%TO.N,XSHUT_FLEFT*%
%TA.AperFunction,SMDPad,CuDef*%
G36*
G01*
X35933000Y-113113000D02*
X36133000Y-113113000D01*
G75*
G02*
X36233000Y-113213000I0J-100000D01*
G01*
X36233000Y-114488000D01*
G75*
G02*
X36133000Y-114588000I-100000J0D01*
G01*
X35933000Y-114588000D01*
G75*
G02*
X35833000Y-114488000I0J100000D01*
G01*
X35833000Y-113213000D01*
G75*
G02*
X35933000Y-113113000I100000J0D01*
G01*
G37*
%TD.AperFunction*%
%TO.P,U4,12*%
%TO.N,XSHUT_FRONT*%
%TA.AperFunction,SMDPad,CuDef*%
G36*
G01*
X36583000Y-113113000D02*
X36783000Y-113113000D01*
G75*
G02*
X36883000Y-113213000I0J-100000D01*
G01*
X36883000Y-114488000D01*
G75*
G02*
X36783000Y-114588000I-100000J0D01*
G01*
X36583000Y-114588000D01*
G75*
G02*
X36483000Y-114488000I0J100000D01*
G01*
X36483000Y-113213000D01*
G75*
G02*
X36583000Y-113113000I100000J0D01*
G01*
G37*
%TD.AperFunction*%
%TO.P,U4,11*%
%TO.N,INT_FRONT*%
%TA.AperFunction,SMDPad,CuDef*%
G36*
G01*
X37233000Y-113113000D02*
X37433000Y-113113000D01*
G75*
G02*
X37533000Y-113213000I0J-100000D01*
G01*
X37533000Y-114488000D01*
G75*
G02*
X37433000Y-114588000I-100000J0D01*
G01*
X37233000Y-114588000D01*
G75*
G02*
X37133000Y-114488000I0J100000D01*
G01*
X37133000Y-113213000D01*
G75*
G02*
X37233000Y-113113000I100000J0D01*
G01*
G37*
%TD.AperFunction*%
%TO.P,U4,10*%
%TO.N,IR_RECEIVER*%
%TA.AperFunction,SMDPad,CuDef*%
G36*
G01*
X37883000Y-113113000D02*
X38083000Y-113113000D01*
G75*
G02*
X38183000Y-113213000I0J-100000D01*
G01*
X38183000Y-114488000D01*
G75*
G02*
X38083000Y-114588000I-100000J0D01*
G01*
X37883000Y-114588000D01*
G75*
G02*
X37783000Y-114488000I0J100000D01*
G01*
X37783000Y-113213000D01*
G75*
G02*
X37883000Y-113113000I100000J0D01*
G01*
G37*
%TD.AperFunction*%
%TO.P,U4,9*%
%TO.N,XSHUT_FRIGHT*%
%TA.AperFunction,SMDPad,CuDef*%
G36*
G01*
X38533000Y-113113000D02*
X38733000Y-113113000D01*
G75*
G02*
X38833000Y-113213000I0J-100000D01*
G01*
X38833000Y-114488000D01*
G75*
G02*
X38733000Y-114588000I-100000J0D01*
G01*
X38533000Y-114588000D01*
G75*
G02*
X38433000Y-114488000I0J100000D01*
G01*
X38433000Y-113213000D01*
G75*
G02*
X38533000Y-113113000I100000J0D01*
G01*
G37*
%TD.AperFunction*%
%TO.P,U4,8*%
%TO.N,XSHUT_RIGHT*%
%TA.AperFunction,SMDPad,CuDef*%
G36*
G01*
X39183000Y-113113000D02*
X39383000Y-113113000D01*
G75*
G02*
X39483000Y-113213000I0J-100000D01*
G01*
X39483000Y-114488000D01*
G75*
G02*
X39383000Y-114588000I-100000J0D01*
G01*
X39183000Y-114588000D01*
G75*
G02*
X39083000Y-114488000I0J100000D01*
G01*
X39083000Y-113213000D01*
G75*
G02*
X39183000Y-113113000I100000J0D01*
G01*
G37*
%TD.AperFunction*%
%TO.P,U4,7*%
%TO.N,LD_BACK_RIGHT*%
%TA.AperFunction,SMDPad,CuDef*%
G36*
G01*
X39833000Y-113113000D02*
X40033000Y-113113000D01*
G75*
G02*
X40133000Y-113213000I0J-100000D01*
G01*
X40133000Y-114488000D01*
G75*
G02*
X40033000Y-114588000I-100000J0D01*
G01*
X39833000Y-114588000D01*
G75*
G02*
X39733000Y-114488000I0J100000D01*
G01*
X39733000Y-113213000D01*
G75*
G02*
X39833000Y-113113000I100000J0D01*
G01*
G37*
%TD.AperFunction*%
%TO.P,U4,6*%
%TO.N,LD_BACK_LEFT*%
%TA.AperFunction,SMDPad,CuDef*%
G36*
G01*
X40483000Y-113113000D02*
X40683000Y-113113000D01*
G75*
G02*
X40783000Y-113213000I0J-100000D01*
G01*
X40783000Y-114488000D01*
G75*
G02*
X40683000Y-114588000I-100000J0D01*
G01*
X40483000Y-114588000D01*
G75*
G02*
X40383000Y-114488000I0J100000D01*
G01*
X40383000Y-113213000D01*
G75*
G02*
X40483000Y-113113000I100000J0D01*
G01*
G37*
%TD.AperFunction*%
%TO.P,U4,5*%
%TO.N,LD_FRONT_LEFT*%
%TA.AperFunction,SMDPad,CuDef*%
G36*
G01*
X41133000Y-113113000D02*
X41333000Y-113113000D01*
G75*
G02*
X41433000Y-113213000I0J-100000D01*
G01*
X41433000Y-114488000D01*
G75*
G02*
X41333000Y-114588000I-100000J0D01*
G01*
X41133000Y-114588000D01*
G75*
G02*
X41033000Y-114488000I0J100000D01*
G01*
X41033000Y-113213000D01*
G75*
G02*
X41133000Y-113113000I100000J0D01*
G01*
G37*
%TD.AperFunction*%
%TO.P,U4,4*%
%TO.N,UART_TX*%
%TA.AperFunction,SMDPad,CuDef*%
G36*
G01*
X41783000Y-113113000D02*
X41983000Y-113113000D01*
G75*
G02*
X42083000Y-113213000I0J-100000D01*
G01*
X42083000Y-114488000D01*
G75*
G02*
X41983000Y-114588000I-100000J0D01*
G01*
X41783000Y-114588000D01*
G75*
G02*
X41683000Y-114488000I0J100000D01*
G01*
X41683000Y-113213000D01*
G75*
G02*
X41783000Y-113113000I100000J0D01*
G01*
G37*
%TD.AperFunction*%
%TO.P,U4,3*%
%TO.N,UART_RX*%
%TA.AperFunction,SMDPad,CuDef*%
G36*
G01*
X42433000Y-113113000D02*
X42633000Y-113113000D01*
G75*
G02*
X42733000Y-113213000I0J-100000D01*
G01*
X42733000Y-114488000D01*
G75*
G02*
X42633000Y-114588000I-100000J0D01*
G01*
X42433000Y-114588000D01*
G75*
G02*
X42333000Y-114488000I0J100000D01*
G01*
X42333000Y-113213000D01*
G75*
G02*
X42433000Y-113113000I100000J0D01*
G01*
G37*
%TD.AperFunction*%
%TO.P,U4,2*%
%TO.N,LD_FRONT_RIGHT*%
%TA.AperFunction,SMDPad,CuDef*%
G36*
G01*
X43083000Y-113113000D02*
X43283000Y-113113000D01*
G75*
G02*
X43383000Y-113213000I0J-100000D01*
G01*
X43383000Y-114488000D01*
G75*
G02*
X43283000Y-114588000I-100000J0D01*
G01*
X43083000Y-114588000D01*
G75*
G02*
X42983000Y-114488000I0J100000D01*
G01*
X42983000Y-113213000D01*
G75*
G02*
X43083000Y-113113000I100000J0D01*
G01*
G37*
%TD.AperFunction*%
%TO.P,U4,1*%
%TO.N,+3V3*%
%TA.AperFunction,SMDPad,CuDef*%
G36*
G01*
X43733000Y-113113000D02*
X43933000Y-113113000D01*
G75*
G02*
X44033000Y-113213000I0J-100000D01*
G01*
X44033000Y-114488000D01*
G75*
G02*
X43933000Y-114588000I-100000J0D01*
G01*
X43733000Y-114588000D01*
G75*
G02*
X43633000Y-114488000I0J100000D01*
G01*
X43633000Y-113213000D01*
G75*
G02*
X43733000Y-113113000I100000J0D01*
G01*
G37*
%TD.AperFunction*%
%TD*%
D18*
%TO.P,J22,3*%
%TO.N,GND*%
X57700000Y-139800000D03*
%TO.P,J22,2*%
%TO.N,LD_BACK_RIGHT*%
X56450000Y-139800000D03*
%TO.P,J22,1*%
%TO.N,+3V3*%
%TA.AperFunction,ComponentPad*%
G36*
G01*
X54800000Y-140250000D02*
X54800000Y-139350000D01*
G75*
G02*
X55000000Y-139150000I200000J0D01*
G01*
X55400000Y-139150000D01*
G75*
G02*
X55600000Y-139350000I0J-200000D01*
G01*
X55600000Y-140250000D01*
G75*
G02*
X55400000Y-140450000I-200000J0D01*
G01*
X55000000Y-140450000D01*
G75*
G02*
X54800000Y-140250000I0J200000D01*
G01*
G37*
%TD.AperFunction*%
%TD*%
D17*
%TO.P,J21,3*%
%TO.N,GND*%
X72800000Y-88300000D03*
%TO.P,J21,2*%
%TO.N,LD_FRONT_RIGHT*%
X72800000Y-89550000D03*
%TO.P,J21,1*%
%TO.N,+3V3*%
%TA.AperFunction,ComponentPad*%
G36*
G01*
X73250000Y-91200000D02*
X72350000Y-91200000D01*
G75*
G02*
X72150000Y-91000000I0J200000D01*
G01*
X72150000Y-90600000D01*
G75*
G02*
X72350000Y-90400000I200000J0D01*
G01*
X73250000Y-90400000D01*
G75*
G02*
X73450000Y-90600000I0J-200000D01*
G01*
X73450000Y-91000000D01*
G75*
G02*
X73250000Y-91200000I-200000J0D01*
G01*
G37*
%TD.AperFunction*%
%TD*%
D18*
%TO.P,J20,3*%
%TO.N,GND*%
X50700000Y-139800000D03*
%TO.P,J20,2*%
%TO.N,LD_BACK_LEFT*%
X49450000Y-139800000D03*
%TO.P,J20,1*%
%TO.N,+3V3*%
%TA.AperFunction,ComponentPad*%
G36*
G01*
X47800000Y-140250000D02*
X47800000Y-139350000D01*
G75*
G02*
X48000000Y-139150000I200000J0D01*
G01*
X48400000Y-139150000D01*
G75*
G02*
X48600000Y-139350000I0J-200000D01*
G01*
X48600000Y-140250000D01*
G75*
G02*
X48400000Y-140450000I-200000J0D01*
G01*
X48000000Y-140450000D01*
G75*
G02*
X47800000Y-140250000I0J200000D01*
G01*
G37*
%TD.AperFunction*%
%TD*%
D17*
%TO.P,J19,3*%
%TO.N,GND*%
X33200000Y-90700000D03*
%TO.P,J19,2*%
%TO.N,LD_FRONT_LEFT*%
X33200000Y-89450000D03*
%TO.P,J19,1*%
%TO.N,+3V3*%
%TA.AperFunction,ComponentPad*%
G36*
G01*
X32750000Y-87800000D02*
X33650000Y-87800000D01*
G75*
G02*
X33850000Y-88000000I0J-200000D01*
G01*
X33850000Y-88400000D01*
G75*
G02*
X33650000Y-88600000I-200000J0D01*
G01*
X32750000Y-88600000D01*
G75*
G02*
X32550000Y-88400000I0J200000D01*
G01*
X32550000Y-88000000D01*
G75*
G02*
X32750000Y-87800000I200000J0D01*
G01*
G37*
%TD.AperFunction*%
%TD*%
D10*
%TO.P,J15,2*%
%TO.N,MR_A02*%
X74100000Y-133223000D03*
D11*
%TO.P,J15,1*%
%TO.N,MR_A01*%
X74100000Y-135763000D03*
%TD*%
D10*
%TO.P,J14,2*%
%TO.N,MR_B01*%
X74100000Y-126500000D03*
D11*
%TO.P,J14,1*%
%TO.N,MR_B02*%
X74100000Y-129040000D03*
%TD*%
D27*
%TO.N,GND*%
X48700000Y-134900000D03*
X67000000Y-111400000D03*
X60161000Y-113935000D03*
X62741000Y-113996000D03*
X44750000Y-119500000D03*
X62800000Y-124400000D03*
X62000000Y-124400000D03*
X45700000Y-109500000D03*
X44200000Y-109500000D03*
X48200000Y-107800000D03*
X55800000Y-111100000D03*
X55800000Y-112000000D03*
X57320000Y-128530000D03*
X57310000Y-127680000D03*
X68900000Y-113300000D03*
X35650000Y-132700000D03*
X35650000Y-133500000D03*
X35600000Y-128600000D03*
X53100000Y-105800000D03*
X52220000Y-105830000D03*
X52220000Y-104950000D03*
X41700000Y-136100000D03*
X41700000Y-136900000D03*
X57600000Y-118200000D03*
X49600000Y-118200000D03*
X35600000Y-129400000D03*
X53090000Y-104900000D03*
X49900000Y-108300000D03*
X68770000Y-123720000D03*
X67900000Y-124500000D03*
X68760000Y-124540000D03*
X63000000Y-118100000D03*
X67300000Y-108400000D03*
X67300000Y-109300000D03*
X68100000Y-108400000D03*
X62100000Y-118100000D03*
X70320000Y-128590000D03*
X70320000Y-129400000D03*
X70320000Y-132580000D03*
X70300000Y-133380000D03*
X57300000Y-130788000D03*
X57300000Y-131600000D03*
X48700000Y-134100000D03*
X48800000Y-131800000D03*
X48800000Y-132599000D03*
X55000000Y-112900000D03*
X55800000Y-112900000D03*
X55000000Y-112000000D03*
X51370000Y-104950000D03*
X51400000Y-105830000D03*
X53080000Y-104060000D03*
X52220000Y-104080000D03*
X51390000Y-104100000D03*
%TO.N,+3V3*%
X39200000Y-130600000D03*
X43100000Y-130600000D03*
X75279000Y-95221000D03*
X29500000Y-100000000D03*
X33100000Y-85900000D03*
X76000000Y-90800000D03*
X62800000Y-131360000D03*
X65080000Y-133690000D03*
X65110000Y-135830000D03*
X65080000Y-131360000D03*
%TO.N,IR_RECEIVER*%
X39200000Y-104100000D03*
X42800000Y-104100000D03*
%TO.N,LD_FRONT_LEFT*%
X40500000Y-112000000D03*
X35200000Y-112000000D03*
%TO.N,LD_BACK_LEFT*%
X35100000Y-116200000D03*
X33200000Y-118100000D03*
%TO.N,LD_FRONT_RIGHT*%
X43000000Y-100400000D03*
X41400000Y-98700000D03*
%TO.N,LD_BACK_RIGHT*%
X34100000Y-115400000D03*
X31600000Y-115400000D03*
%TO.N,XSHUT_RIGHT*%
X70300000Y-97700000D03*
%TD*%
D28*
%TO.N,GND*%
X37148000Y-132676000D02*
X37148000Y-133326000D01*
X62836998Y-113996000D02*
X62840998Y-114000000D01*
X61431000Y-113996000D02*
X62836998Y-113996000D01*
X44674500Y-119575500D02*
X44750000Y-119500000D01*
X43833000Y-119575500D02*
X44674500Y-119575500D01*
D29*
X44200000Y-110600000D02*
X44200000Y-109500000D01*
X51911158Y-108000000D02*
X52458079Y-107453079D01*
X55650000Y-109800000D02*
X55650000Y-110250000D01*
X45700000Y-110625000D02*
X45700000Y-109400000D01*
X62581000Y-125702000D02*
X62581000Y-125381000D01*
X68854000Y-113346000D02*
X68900000Y-113300000D01*
X67781000Y-113346000D02*
X68854000Y-113346000D01*
D30*
X35624000Y-132676000D02*
X35600000Y-132700000D01*
D29*
X43912510Y-119500000D02*
X43837010Y-119575500D01*
X44750000Y-119500000D02*
X43912510Y-119500000D01*
D30*
X68669600Y-132661000D02*
X69061000Y-132661000D01*
D29*
X52500000Y-107495000D02*
X52500000Y-106900000D01*
X53900000Y-113050000D02*
X53950000Y-113000000D01*
X57600000Y-119450000D02*
X57600000Y-118200000D01*
D28*
X49650000Y-118050000D02*
X49600000Y-118000000D01*
D29*
X49650000Y-119450000D02*
X49650000Y-118250000D01*
X49650000Y-118250000D02*
X49600000Y-118200000D01*
D31*
X37127601Y-132700000D02*
X37148000Y-132679601D01*
D29*
X53850000Y-113100000D02*
X53950000Y-113000000D01*
D32*
X52500000Y-106400000D02*
X53100000Y-105800000D01*
X52500000Y-106400000D02*
X51900000Y-105800000D01*
X52500000Y-107495000D02*
X52500000Y-106400000D01*
X51900000Y-104700000D02*
X53100000Y-104700000D01*
X53100000Y-104700000D02*
X53100000Y-105800000D01*
X53000000Y-105800000D02*
X51900000Y-104700000D01*
X53100000Y-105800000D02*
X53000000Y-105800000D01*
X52000000Y-105800000D02*
X53100000Y-104700000D01*
X51900000Y-105800000D02*
X52000000Y-105800000D01*
X53100000Y-105800000D02*
X51900000Y-105800000D01*
X51900000Y-104700000D02*
X51900000Y-105800000D01*
X51900000Y-106895000D02*
X52500000Y-107495000D01*
X51900000Y-105800000D02*
X51900000Y-106895000D01*
X53100000Y-106895000D02*
X52500000Y-107495000D01*
X53100000Y-105800000D02*
X53100000Y-106895000D01*
X62741000Y-113996000D02*
X61431000Y-113996000D01*
X60222000Y-113996000D02*
X61431000Y-113996000D01*
X60161000Y-113935000D02*
X60222000Y-113996000D01*
X49900000Y-108300000D02*
X49900000Y-107000000D01*
X49100000Y-107800000D02*
X49900000Y-107000000D01*
X48200000Y-107800000D02*
X49100000Y-107800000D01*
X48700000Y-108300000D02*
X48200000Y-107800000D01*
X49900000Y-108300000D02*
X48700000Y-108300000D01*
X52005000Y-107000000D02*
X52500000Y-107495000D01*
X49900000Y-107000000D02*
X52005000Y-107000000D01*
X50705000Y-107495000D02*
X49900000Y-108300000D01*
X52500000Y-107495000D02*
X50705000Y-107495000D01*
D29*
X61100000Y-100925000D02*
X60975000Y-100800000D01*
X67600000Y-111400000D02*
X67000000Y-111400000D01*
X68000000Y-111000000D02*
X67600000Y-111400000D01*
X46375000Y-102785000D02*
X46460000Y-102700000D01*
X46375000Y-105000000D02*
X46375000Y-102785000D01*
X62512500Y-98587500D02*
X62600000Y-98500000D01*
X60975000Y-101000000D02*
X62612500Y-101000000D01*
X62512500Y-100212500D02*
X62512500Y-98587500D01*
X62512500Y-100800000D02*
X62512500Y-100212500D01*
X62800000Y-98400000D02*
X62800000Y-99175000D01*
X61725000Y-101000000D02*
X62512500Y-100212500D01*
X60975000Y-101000000D02*
X61725000Y-101000000D01*
X62500000Y-101000000D02*
X61737500Y-100237500D01*
X62612500Y-101000000D02*
X62500000Y-101000000D01*
X62612500Y-100712500D02*
X61937500Y-100037500D01*
X62612500Y-101000000D02*
X62612500Y-100712500D01*
X61937500Y-100037500D02*
X61737500Y-100237500D01*
X62800000Y-99175000D02*
X61937500Y-100037500D01*
X61900000Y-101000000D02*
X61437500Y-100537500D01*
X62612500Y-101000000D02*
X61900000Y-101000000D01*
X61437500Y-100537500D02*
X60975000Y-101000000D01*
X61737500Y-100237500D02*
X61437500Y-100537500D01*
X62800000Y-100812500D02*
X62612500Y-101000000D01*
X62800000Y-98400000D02*
X62800000Y-100812500D01*
D28*
X67781000Y-111219000D02*
X68000000Y-111000000D01*
D29*
X62741000Y-116559000D02*
X62500000Y-116800000D01*
X62741000Y-113996000D02*
X62741000Y-116559000D01*
X68000000Y-111000000D02*
X68000000Y-109500000D01*
X67400000Y-108900000D02*
X67400000Y-108400000D01*
X68000000Y-109500000D02*
X67900000Y-109400000D01*
X67400000Y-108400000D02*
X67400000Y-107075000D01*
X67900000Y-109400000D02*
X67400000Y-108900000D01*
X68000000Y-113081000D02*
X67781000Y-113300000D01*
X68000000Y-111000000D02*
X68000000Y-113081000D01*
D30*
X59089000Y-130711000D02*
X58900000Y-130900000D01*
D28*
X57600000Y-119450000D02*
X57600000Y-119500000D01*
X56512500Y-120587500D02*
X56512500Y-121300000D01*
X57600000Y-119500000D02*
X56512500Y-120587500D01*
D33*
X68635000Y-123585000D02*
X68770000Y-123720000D01*
X67075000Y-123585000D02*
X68635000Y-123585000D01*
X68770000Y-124530000D02*
X68760000Y-124540000D01*
X68770000Y-123720000D02*
X68770000Y-124530000D01*
X67940000Y-124540000D02*
X67900000Y-124500000D01*
X68760000Y-124540000D02*
X67940000Y-124540000D01*
X52220000Y-104950000D02*
X51370000Y-104950000D01*
X52220000Y-105830000D02*
X51330000Y-105830000D01*
X53090000Y-104070000D02*
X53080000Y-104060000D01*
X53090000Y-104950000D02*
X53090000Y-104070000D01*
D34*
X52280000Y-104060000D02*
X52220000Y-104000000D01*
X53080000Y-104060000D02*
X52280000Y-104060000D01*
X51400000Y-104000000D02*
X51390000Y-103990000D01*
X52220000Y-104000000D02*
X51400000Y-104000000D01*
D31*
%TO.N,Net-(C1-Pad1)*%
X65439000Y-113996000D02*
X65881000Y-113554000D01*
X64051000Y-113996000D02*
X65439000Y-113996000D01*
D28*
X66176000Y-115500000D02*
X65875000Y-115199000D01*
D35*
X65875000Y-113352000D02*
X65881000Y-113346000D01*
X65875000Y-115199000D02*
X65875000Y-113352000D01*
X65876000Y-115200000D02*
X65875000Y-115199000D01*
X68000000Y-115200000D02*
X65876000Y-115200000D01*
X65912500Y-115236500D02*
X65876000Y-115200000D01*
X65912500Y-116800000D02*
X65912500Y-115236500D01*
D29*
%TO.N,Net-(C2-Pad1)*%
X57470000Y-107125000D02*
X57100000Y-107495000D01*
X57550000Y-107945000D02*
X57100000Y-107495000D01*
X57550000Y-109800000D02*
X57550000Y-107945000D01*
X57100000Y-107495000D02*
X57305000Y-107495000D01*
X58550000Y-106250000D02*
X59600000Y-106250000D01*
X57305000Y-107495000D02*
X58550000Y-106250000D01*
%TO.N,+5V*%
X59400000Y-109200000D02*
X59600000Y-109000000D01*
X59400000Y-110887500D02*
X59400000Y-109200000D01*
X59600000Y-109000000D02*
X60000000Y-109000000D01*
X65112500Y-98527500D02*
X65140000Y-98500000D01*
X67400000Y-101275000D02*
X67325000Y-101200000D01*
X66325000Y-104450000D02*
X67400000Y-105525000D01*
X63700000Y-104450000D02*
X66325000Y-104450000D01*
X67250000Y-104450000D02*
X67400000Y-104300000D01*
X63700000Y-104450000D02*
X67250000Y-104450000D01*
X67400000Y-104300000D02*
X67400000Y-101275000D01*
X67400000Y-105525000D02*
X67400000Y-104300000D01*
X67325000Y-100385000D02*
X65340000Y-98400000D01*
X67325000Y-101200000D02*
X67325000Y-100385000D01*
%TO.N,+3V3*%
X77200000Y-106500000D02*
X77200000Y-105600000D01*
D28*
X61454600Y-131996000D02*
X61469600Y-132011000D01*
D33*
X53489000Y-100941000D02*
X53235000Y-101195000D01*
D29*
X44069999Y-112180001D02*
X44200000Y-112050000D01*
X54800000Y-107495000D02*
X54800000Y-105987000D01*
X54000000Y-108295000D02*
X54000000Y-109800000D01*
X54800000Y-107495000D02*
X54000000Y-108295000D01*
X54580000Y-100975000D02*
X54800000Y-101195000D01*
X53600000Y-111400000D02*
X54000000Y-111000000D01*
X54000000Y-111000000D02*
X54000000Y-109800000D01*
X49150000Y-111450000D02*
X49200000Y-111400000D01*
X49150000Y-113000000D02*
X49150000Y-111450000D01*
X49200000Y-111400000D02*
X53600000Y-111400000D01*
X48200000Y-111400000D02*
X49200000Y-111400000D01*
X45725000Y-112050000D02*
X45800000Y-111975000D01*
X44200000Y-112050000D02*
X45725000Y-112050000D01*
X47625000Y-111975000D02*
X48000000Y-111600000D01*
X48000000Y-111600000D02*
X48200000Y-111400000D01*
X47800000Y-111800000D02*
X48000000Y-111600000D01*
X46600000Y-112000000D02*
X46625000Y-111975000D01*
X46600000Y-114600000D02*
X46600000Y-112000000D01*
X46625000Y-111975000D02*
X47625000Y-111975000D01*
X45800000Y-111975000D02*
X46625000Y-111975000D01*
X75279000Y-99721000D02*
X75279000Y-100521000D01*
D31*
X75279000Y-100079000D02*
X75279000Y-99721000D01*
D29*
X75279000Y-100521000D02*
X74200000Y-101600000D01*
X75279000Y-99721000D02*
X75279000Y-95221000D01*
X75279000Y-92721000D02*
X75279000Y-95221000D01*
X71600000Y-85800000D02*
X74200000Y-85800000D01*
X74200000Y-85800000D02*
X76000000Y-87600000D01*
X67800000Y-82000000D02*
X71600000Y-85800000D01*
X76000000Y-92000000D02*
X75279000Y-92721000D01*
X38000000Y-82000000D02*
X34400000Y-85600000D01*
X34400000Y-85600000D02*
X34100000Y-85900000D01*
X31200000Y-85900000D02*
X29500000Y-87600000D01*
X30000000Y-109362500D02*
X28862500Y-109362500D01*
X28600000Y-109100000D02*
X28600000Y-107800000D01*
X28862500Y-109362500D02*
X28600000Y-109100000D01*
X28600000Y-107800000D02*
X28600000Y-108300000D01*
X29500000Y-87600000D02*
X29500000Y-100000000D01*
X29500000Y-100600000D02*
X29500000Y-100000000D01*
X28600000Y-101500000D02*
X29500000Y-100600000D01*
X28600000Y-107800000D02*
X28600000Y-101500000D01*
X39950000Y-82050000D02*
X40000000Y-82000000D01*
X39500000Y-82000000D02*
X38000000Y-82000000D01*
X39950000Y-82450000D02*
X39500000Y-82000000D01*
X40000000Y-82000000D02*
X39500000Y-82000000D01*
X39950000Y-85200000D02*
X39950000Y-82450000D01*
X39950000Y-82450000D02*
X39950000Y-82050000D01*
X39950000Y-82450000D02*
X40400000Y-82000000D01*
X40400000Y-82000000D02*
X40000000Y-82000000D01*
X49850000Y-82050000D02*
X49800000Y-82000000D01*
X49500000Y-82000000D02*
X49800000Y-82000000D01*
X49850000Y-82450000D02*
X49400000Y-82000000D01*
X49400000Y-82000000D02*
X40400000Y-82000000D01*
X49500000Y-82000000D02*
X49400000Y-82000000D01*
X49850000Y-85200000D02*
X49850000Y-82650000D01*
X49850000Y-82650000D02*
X49850000Y-82050000D01*
X49850000Y-82450000D02*
X50300000Y-82000000D01*
X49850000Y-82650000D02*
X49850000Y-82450000D01*
X49800000Y-82000000D02*
X50300000Y-82000000D01*
X61000000Y-82100000D02*
X61100000Y-82000000D01*
X61100000Y-82400000D02*
X61500000Y-82000000D01*
X61000000Y-82400000D02*
X61100000Y-82400000D01*
X61500000Y-82000000D02*
X67800000Y-82000000D01*
X61100000Y-82000000D02*
X61500000Y-82000000D01*
X61000000Y-82400000D02*
X61000000Y-82100000D01*
X61000000Y-82500000D02*
X60500000Y-82000000D01*
X61000000Y-83000000D02*
X61000000Y-82500000D01*
X60500000Y-82000000D02*
X61100000Y-82000000D01*
X61000000Y-85200000D02*
X61000000Y-83000000D01*
X50300000Y-82000000D02*
X60500000Y-82000000D01*
X61000000Y-83000000D02*
X61000000Y-82400000D01*
D28*
X44348000Y-130726000D02*
X44674000Y-130726000D01*
D29*
X30000000Y-109362500D02*
X32400000Y-109362500D01*
D30*
X61469600Y-131361000D02*
X61139000Y-131361000D01*
D29*
X40700000Y-137900000D02*
X40475000Y-137675000D01*
D35*
X54800000Y-107495000D02*
X54800000Y-104200000D01*
X54800000Y-107495000D02*
X54800000Y-105800000D01*
X56400000Y-104200000D02*
X54800000Y-104200000D01*
X56200000Y-104200000D02*
X54800000Y-102800000D01*
X56400000Y-104200000D02*
X56200000Y-104200000D01*
X54800000Y-104200000D02*
X54800000Y-102800000D01*
X54800000Y-102500000D02*
X54800000Y-101195000D01*
X54800000Y-102800000D02*
X54800000Y-102500000D01*
D29*
X56587000Y-104200000D02*
X57400000Y-104200000D01*
D35*
X56500000Y-104200000D02*
X54800000Y-102500000D01*
X57400000Y-104200000D02*
X56500000Y-104200000D01*
D29*
X57400000Y-104200000D02*
X59600000Y-104200000D01*
D35*
X59600000Y-104200000D02*
X56400000Y-104200000D01*
D29*
X33000000Y-85900000D02*
X33100000Y-85900000D01*
X34100000Y-85900000D02*
X33000000Y-85900000D01*
X33000000Y-85900000D02*
X31200000Y-85900000D01*
X54105000Y-100500000D02*
X54800000Y-101195000D01*
X57495000Y-98500000D02*
X56497500Y-99497500D01*
X60060000Y-98500000D02*
X57495000Y-98500000D01*
X56497500Y-99497500D02*
X54800000Y-101195000D01*
X56795000Y-99200000D02*
X56497500Y-99497500D01*
X66500000Y-96700000D02*
X69300000Y-99500000D01*
X60900000Y-96700000D02*
X66500000Y-96700000D01*
X69300000Y-99500000D02*
X69000000Y-99200000D01*
X71400000Y-101600000D02*
X69300000Y-99500000D01*
X76000000Y-90800000D02*
X76000000Y-92000000D01*
X76000000Y-87600000D02*
X76000000Y-90800000D01*
X60260000Y-97340000D02*
X60900000Y-96700000D01*
X60260000Y-98400000D02*
X60260000Y-97340000D01*
X77200000Y-104400000D02*
X77200000Y-106500000D01*
X74400000Y-101600000D02*
X77200000Y-104400000D01*
X73700000Y-101600000D02*
X74400000Y-101600000D01*
X74200000Y-101600000D02*
X73700000Y-101600000D01*
X73700000Y-101600000D02*
X71400000Y-101600000D01*
X76600000Y-124500000D02*
X77200000Y-123900000D01*
X76600000Y-136700000D02*
X76600000Y-124500000D01*
X77200000Y-123900000D02*
X77200000Y-106500000D01*
D28*
X62799000Y-131361000D02*
X62800000Y-131360000D01*
X61150000Y-131361000D02*
X62799000Y-131361000D01*
D29*
X65080000Y-133690000D02*
X65080000Y-131360000D01*
X62800000Y-131360000D02*
X62460000Y-131700000D01*
X62460000Y-131700000D02*
X61489000Y-131700000D01*
X47400000Y-130350000D02*
X44850000Y-130350000D01*
X43915685Y-130350000D02*
X44850000Y-130350000D01*
X43665685Y-130600000D02*
X43915685Y-130350000D01*
X43100000Y-130600000D02*
X43665685Y-130600000D01*
X39200000Y-130600000D02*
X39200000Y-136400000D01*
X39200000Y-136400000D02*
X40950000Y-138150000D01*
X40950000Y-138150000D02*
X40475000Y-137675000D01*
X47050000Y-138550000D02*
X47500000Y-138100000D01*
X40950000Y-138150000D02*
X41350000Y-138550000D01*
X55200000Y-139800000D02*
X55200000Y-138100000D01*
X48200000Y-139800000D02*
X48200000Y-138200000D01*
X48200000Y-138200000D02*
X48100000Y-138100000D01*
X48100000Y-138100000D02*
X55200000Y-138100000D01*
X47500000Y-138100000D02*
X48100000Y-138100000D01*
X75200000Y-138100000D02*
X76600000Y-136700000D01*
X65110000Y-138090000D02*
X65100000Y-138100000D01*
X65110000Y-135830000D02*
X65110000Y-138090000D01*
X65100000Y-138100000D02*
X75200000Y-138100000D01*
X49200000Y-98000000D02*
X49600000Y-98000000D01*
X50312500Y-97287500D02*
X51200000Y-97287500D01*
X49600000Y-98000000D02*
X50312500Y-97287500D01*
X51200000Y-97287500D02*
X51787500Y-97287500D01*
X51787500Y-97287500D02*
X53800000Y-99300000D01*
X71100000Y-92500000D02*
X72800000Y-90800000D01*
X69100000Y-92500000D02*
X71100000Y-92500000D01*
X35287500Y-88200000D02*
X37087500Y-90000000D01*
X33200000Y-88200000D02*
X35287500Y-88200000D01*
X63800000Y-139187500D02*
X63800000Y-138100000D01*
X63800000Y-138100000D02*
X65100000Y-138100000D01*
X55200000Y-138100000D02*
X63800000Y-138100000D01*
X41900000Y-138600000D02*
X41950000Y-138550000D01*
X41900000Y-139387500D02*
X41900000Y-138600000D01*
X41950000Y-138550000D02*
X47050000Y-138550000D01*
X41350000Y-138550000D02*
X41950000Y-138550000D01*
D28*
%TO.N,RST*%
X41233000Y-119575500D02*
X41233000Y-118838000D01*
X46190010Y-117782990D02*
X46212000Y-117761000D01*
X41233000Y-118390000D02*
X41233000Y-119575500D01*
X42123000Y-117500000D02*
X41233000Y-118390000D01*
X49700000Y-115000000D02*
X49650000Y-114950000D01*
X49650000Y-114950000D02*
X49650000Y-114600000D01*
X42483000Y-117140000D02*
X41233000Y-118390000D01*
X46600000Y-117140000D02*
X42483000Y-117140000D01*
X52400000Y-113000000D02*
X50800000Y-113000000D01*
X50800000Y-113800000D02*
X50800000Y-113000000D01*
X49650000Y-114950000D02*
X50800000Y-113800000D01*
X46600000Y-117140000D02*
X48360000Y-117140000D01*
X49650000Y-115850000D02*
X49650000Y-114950000D01*
X48360000Y-117140000D02*
X49650000Y-115850000D01*
X57600000Y-114950000D02*
X52450000Y-114950000D01*
X52450000Y-114950000D02*
X49650000Y-114950000D01*
D29*
%TO.N,Net-(C7-Pad1)*%
X44825000Y-105000000D02*
X44825000Y-104325000D01*
X44825000Y-103605000D02*
X43920000Y-102700000D01*
X44825000Y-105000000D02*
X44825000Y-103605000D01*
X47375000Y-99245000D02*
X47375000Y-98000000D01*
X43920000Y-102700000D02*
X47375000Y-99245000D01*
D31*
%TO.N,+BATT*%
X63675399Y-134614601D02*
X61469600Y-134614601D01*
D29*
X44698600Y-136683800D02*
X44634800Y-136620000D01*
D35*
X67600000Y-118770000D02*
X67025000Y-119345000D01*
X67025000Y-119345000D02*
X67025000Y-121575000D01*
D32*
X44900000Y-136700000D02*
X44750000Y-136550000D01*
X65500000Y-124100000D02*
X65500000Y-123300000D01*
X66050000Y-124650000D02*
X65500000Y-124100000D01*
X65500000Y-124100000D02*
X65500000Y-122300000D01*
D36*
X65500000Y-122300000D02*
X65500000Y-121000000D01*
X65500000Y-123300000D02*
X65500000Y-122300000D01*
D32*
X66600000Y-125200000D02*
X66050000Y-124650000D01*
X66439000Y-127461000D02*
X66600000Y-127300000D01*
X66600000Y-126800000D02*
X65939000Y-127461000D01*
X66600000Y-126700000D02*
X66600000Y-126800000D01*
X65939000Y-127461000D02*
X66439000Y-127461000D01*
X66600000Y-127300000D02*
X66600000Y-126700000D01*
X66600000Y-126700000D02*
X66600000Y-125200000D01*
X65761000Y-127461000D02*
X66600000Y-128300000D01*
X65461000Y-127461000D02*
X65761000Y-127461000D01*
X66600000Y-128300000D02*
X66600000Y-127300000D01*
X61150000Y-127461000D02*
X65461000Y-127461000D01*
X65461000Y-127461000D02*
X65939000Y-127461000D01*
X66600000Y-133621882D02*
X66600000Y-128300000D01*
X66600000Y-134100000D02*
X66600000Y-133621882D01*
X65932999Y-134767001D02*
X66600000Y-134100000D01*
X60582999Y-134767001D02*
X65932999Y-134767001D01*
X60050000Y-135300000D02*
X60582999Y-134767001D01*
X44634800Y-136500000D02*
X44659800Y-136525000D01*
X44348000Y-134132001D02*
X44634800Y-134418801D01*
X60050000Y-135300000D02*
X50000000Y-135300000D01*
X41800000Y-127300000D02*
X43000000Y-127300000D01*
X43000000Y-127300000D02*
X45500000Y-127300000D01*
X42300000Y-127300000D02*
X43000000Y-127300000D01*
X40600000Y-133900000D02*
X40600000Y-128300000D01*
X41326000Y-134626000D02*
X40600000Y-133900000D01*
X44348000Y-134626000D02*
X41326000Y-134626000D01*
X41600000Y-127300000D02*
X40600000Y-128300000D01*
X43000000Y-127300000D02*
X41600000Y-127300000D01*
D29*
%TO.N,Net-(D3-Pad2)*%
X64087500Y-101112500D02*
X64087500Y-100800000D01*
X65300000Y-101000000D02*
X65500000Y-101200000D01*
X63887500Y-101000000D02*
X65300000Y-101000000D01*
D28*
%TO.N,Net-(D5-Pad2)*%
X50500000Y-103800000D02*
X49700000Y-104600000D01*
X49700000Y-104600000D02*
X49700000Y-105100000D01*
X50500000Y-103800000D02*
X50500000Y-100600000D01*
X51200000Y-99900000D02*
X51200000Y-99112500D01*
X50500000Y-100600000D02*
X51200000Y-99900000D01*
%TO.N,IR_RECEIVER*%
X49700000Y-103400000D02*
X49000000Y-102700000D01*
X37983000Y-105317000D02*
X39200000Y-104100000D01*
X37983000Y-113850500D02*
X37983000Y-105317000D01*
X42800000Y-104312500D02*
X42800000Y-104100000D01*
X42800000Y-105000000D02*
X42800000Y-104100000D01*
D33*
X43600000Y-105800000D02*
X44200000Y-106400000D01*
D28*
X43800000Y-106000000D02*
X43600000Y-105800000D01*
X43600000Y-105800000D02*
X42800000Y-105000000D01*
D33*
X48125000Y-105975000D02*
X47700000Y-106400000D01*
X48125000Y-105100000D02*
X48125000Y-105975000D01*
X44200000Y-106400000D02*
X47700000Y-106400000D01*
D28*
X48125000Y-103575000D02*
X48678967Y-103021033D01*
X48125000Y-105100000D02*
X48125000Y-103575000D01*
%TO.N,Net-(D6-Pad2)*%
X58000000Y-121500000D02*
X57800000Y-121300000D01*
X58412500Y-123200000D02*
X58412500Y-122512500D01*
X58087500Y-122187500D02*
X58087500Y-121300000D01*
X58412500Y-122512500D02*
X58087500Y-122187500D01*
%TO.N,SCL*%
X39933000Y-118533000D02*
X39600000Y-118200000D01*
X39933000Y-119575500D02*
X39933000Y-118533000D01*
X30200000Y-104200000D02*
X30400000Y-104000000D01*
X30400000Y-104000000D02*
X30400000Y-101400000D01*
X30400000Y-101400000D02*
X31800000Y-100000000D01*
X32296000Y-97500000D02*
X33200000Y-97500000D01*
X31800000Y-97996000D02*
X32296000Y-97500000D01*
X31800000Y-100000000D02*
X31800000Y-97996000D01*
X42450000Y-85650000D02*
X42450000Y-85200000D01*
X32300000Y-97500000D02*
X30900000Y-96100000D01*
X33200000Y-97500000D02*
X32300000Y-97500000D01*
X42450000Y-85200000D02*
X42450000Y-84296000D01*
X63500000Y-86104000D02*
X63500000Y-85200000D01*
X63204000Y-86400000D02*
X63500000Y-86104000D01*
X73450000Y-100200000D02*
X74300000Y-99350000D01*
X72800000Y-100200000D02*
X73450000Y-100200000D01*
X63500000Y-84296000D02*
X63500000Y-85200000D01*
X64696000Y-83100000D02*
X63500000Y-84296000D01*
X42450000Y-86104000D02*
X41854000Y-86700000D01*
X42450000Y-85200000D02*
X42450000Y-86104000D01*
X30900000Y-88000000D02*
X30900000Y-88400000D01*
X30900000Y-96100000D02*
X30900000Y-88400000D01*
X47000000Y-83900000D02*
X47000000Y-86100000D01*
X47400000Y-86500000D02*
X49500000Y-86500000D01*
X47000000Y-86100000D02*
X47400000Y-86500000D01*
X52350000Y-85200000D02*
X52350000Y-86150000D01*
X52000000Y-86500000D02*
X49300000Y-86500000D01*
X52350000Y-86150000D02*
X52000000Y-86500000D01*
X49300000Y-86500000D02*
X49500000Y-86500000D01*
X49200000Y-86500000D02*
X49300000Y-86500000D01*
X61000000Y-86400000D02*
X63204000Y-86400000D01*
X60400000Y-86400000D02*
X61000000Y-86400000D01*
X64696000Y-83100000D02*
X67400000Y-83100000D01*
X67400000Y-83100000D02*
X68400000Y-84100000D01*
X68400000Y-84100000D02*
X68400000Y-85600000D01*
X69300000Y-86500000D02*
X73800000Y-86500000D01*
X68400000Y-85600000D02*
X69300000Y-86500000D01*
X75100000Y-87800000D02*
X73800000Y-86500000D01*
X74300000Y-93500000D02*
X74300000Y-92100000D01*
X74300000Y-99350000D02*
X74300000Y-93500000D01*
X75100000Y-91300000D02*
X75100000Y-90800000D01*
X74300000Y-92100000D02*
X75100000Y-91300000D01*
X75100000Y-90800000D02*
X75100000Y-87800000D01*
X75100000Y-91000000D02*
X75100000Y-90800000D01*
X31800000Y-86700000D02*
X32400000Y-86700000D01*
X30900000Y-87600000D02*
X31800000Y-86700000D01*
X30900000Y-88400000D02*
X30900000Y-87600000D01*
X32400000Y-86700000D02*
X32200000Y-86700000D01*
X41854000Y-86700000D02*
X32400000Y-86700000D01*
X46200000Y-83100000D02*
X46550000Y-83450000D01*
X43400000Y-83100000D02*
X46200000Y-83100000D01*
X42450000Y-84050000D02*
X43400000Y-83100000D01*
X42450000Y-85200000D02*
X42450000Y-84050000D01*
X46550000Y-83450000D02*
X47000000Y-83900000D01*
X46400000Y-83300000D02*
X46550000Y-83450000D01*
X58500000Y-86400000D02*
X61000000Y-86400000D01*
X58100000Y-86000000D02*
X58500000Y-86400000D01*
X58100000Y-84000000D02*
X58100000Y-86000000D01*
X57200000Y-83100000D02*
X58100000Y-84000000D01*
X52350000Y-84150000D02*
X53400000Y-83100000D01*
X53400000Y-83100000D02*
X57200000Y-83100000D01*
X52350000Y-85200000D02*
X52350000Y-84150000D01*
X39300000Y-117900000D02*
X39933000Y-118533000D01*
X32500000Y-111100000D02*
X32500000Y-116200000D01*
X34200000Y-117900000D02*
X39300000Y-117900000D01*
X33600000Y-110000000D02*
X32500000Y-111100000D01*
X33600000Y-108700000D02*
X33600000Y-110000000D01*
X32800000Y-107900000D02*
X33600000Y-108700000D01*
X30300000Y-107500000D02*
X30700000Y-107900000D01*
X32500000Y-116200000D02*
X34200000Y-117900000D01*
X30700000Y-107900000D02*
X32800000Y-107900000D01*
X30300000Y-106437500D02*
X30300000Y-107500000D01*
X30400000Y-106337500D02*
X30300000Y-106437500D01*
X30400000Y-104000000D02*
X30400000Y-106337500D01*
%TO.N,SDA*%
X72800000Y-98950000D02*
X73250000Y-98950000D01*
X32700000Y-106437500D02*
X32940000Y-106197500D01*
X32940000Y-106197500D02*
X32940000Y-104000000D01*
X32940000Y-104000000D02*
X32940000Y-102460000D01*
X32940000Y-102460000D02*
X34500000Y-100900000D01*
X34104000Y-96250000D02*
X33200000Y-96250000D01*
X34500000Y-96646000D02*
X34104000Y-96250000D01*
X34500000Y-100900000D02*
X34500000Y-96646000D01*
X64750000Y-86104000D02*
X64750000Y-85200000D01*
X63454000Y-87400000D02*
X64750000Y-86104000D01*
X31900000Y-95854000D02*
X32296000Y-96250000D01*
X31900000Y-87800000D02*
X31900000Y-95854000D01*
X32400000Y-87300000D02*
X31900000Y-87800000D01*
X32296000Y-96250000D02*
X33200000Y-96250000D01*
X43700000Y-85200000D02*
X43700000Y-86000000D01*
X42400000Y-87300000D02*
X42000000Y-87300000D01*
X43700000Y-86000000D02*
X42400000Y-87300000D01*
X42000000Y-87300000D02*
X32400000Y-87300000D01*
X42200000Y-87300000D02*
X42000000Y-87300000D01*
X53600000Y-86600000D02*
X53600000Y-85900000D01*
X46800000Y-87300000D02*
X52900000Y-87300000D01*
X46100000Y-84400000D02*
X46100000Y-86600000D01*
X52900000Y-87300000D02*
X53600000Y-86600000D01*
X45700000Y-84000000D02*
X46100000Y-84400000D01*
X44100000Y-84000000D02*
X45700000Y-84000000D01*
X43700000Y-84400000D02*
X44100000Y-84000000D01*
X43700000Y-85200000D02*
X43700000Y-84400000D01*
X46100000Y-86600000D02*
X46800000Y-87300000D01*
X53600000Y-85900000D02*
X53600000Y-85200000D01*
X53600000Y-86274127D02*
X53600000Y-85900000D01*
X53600000Y-85200000D02*
X53600000Y-84400000D01*
X53600000Y-84400000D02*
X54000000Y-84000000D01*
X54000000Y-84000000D02*
X56800000Y-84000000D01*
X56800000Y-84000000D02*
X57200000Y-84400000D01*
X59695306Y-87400000D02*
X59900000Y-87400000D01*
X59900000Y-87400000D02*
X63454000Y-87400000D01*
X57200000Y-84400000D02*
X57200000Y-86900000D01*
X57700000Y-87400000D02*
X59900000Y-87400000D01*
X57200000Y-86900000D02*
X57700000Y-87400000D01*
X71896000Y-98950000D02*
X72800000Y-98950000D01*
X71200000Y-98254000D02*
X71896000Y-98950000D01*
X74200000Y-91100000D02*
X71200000Y-94100000D01*
X74200000Y-87800000D02*
X74200000Y-91100000D01*
X67400000Y-86100000D02*
X68600000Y-87300000D01*
X73700000Y-87300000D02*
X74200000Y-87800000D01*
X67400000Y-84500000D02*
X67400000Y-86100000D01*
X68600000Y-87300000D02*
X73700000Y-87300000D01*
X66900000Y-84000000D02*
X67400000Y-84500000D01*
X65100000Y-84000000D02*
X66900000Y-84000000D01*
X64750000Y-84350000D02*
X65100000Y-84000000D01*
X64750000Y-85200000D02*
X64750000Y-84350000D01*
X71200000Y-94100000D02*
X71200000Y-98254000D01*
D33*
X32400000Y-106437500D02*
X33262500Y-106437500D01*
D28*
X33437500Y-106437500D02*
X32200000Y-106437500D01*
X34200000Y-110245990D02*
X34200000Y-107200000D01*
X33345990Y-111100000D02*
X34200000Y-110245990D01*
X34200000Y-107200000D02*
X33437500Y-106437500D01*
X33345990Y-115845990D02*
X33345990Y-111100000D01*
X34600000Y-117100000D02*
X33345990Y-115845990D01*
X40583000Y-119575500D02*
X40583000Y-118183000D01*
X40583000Y-118183000D02*
X39500000Y-117100000D01*
X39500000Y-117100000D02*
X34600000Y-117100000D01*
D35*
%TO.N,Net-(J3-Pad1)*%
X71000000Y-114600000D02*
X73000000Y-114600000D01*
X75200000Y-116800000D02*
X75200000Y-119400000D01*
X73000000Y-114600000D02*
X75200000Y-116800000D01*
D33*
%TO.N,LD_FRONT_LEFT*%
X33200000Y-89450000D02*
X34950000Y-89450000D01*
X34950000Y-89450000D02*
X35500000Y-90000000D01*
X41233000Y-112733000D02*
X41233000Y-113850500D01*
X40500000Y-112000000D02*
X41233000Y-112733000D01*
D28*
X35200000Y-111500000D02*
X35500000Y-111200000D01*
X35200000Y-112000000D02*
X35200000Y-111500000D01*
X35500000Y-111200000D02*
X35500000Y-110900000D01*
X37100000Y-91900000D02*
X35500000Y-91900000D01*
X35500000Y-91900000D02*
X35500000Y-110900000D01*
X35500000Y-90000000D02*
X35500000Y-91900000D01*
%TO.N,LD_BACK_LEFT*%
X49450000Y-139800000D02*
X49450000Y-140950000D01*
X30700000Y-138400000D02*
X29400000Y-137100000D01*
X33700000Y-138400000D02*
X30700000Y-138400000D01*
X29400000Y-137100000D02*
X29400000Y-124600000D01*
X40583000Y-113850500D02*
X40583000Y-115217000D01*
X39614067Y-116185933D02*
X40583000Y-115217000D01*
X34800000Y-116185933D02*
X39614067Y-116185933D01*
X33200000Y-118100000D02*
X29400000Y-121900000D01*
X29400000Y-121900000D02*
X29400000Y-122400000D01*
D33*
X29400000Y-124600000D02*
X29400000Y-122400000D01*
D28*
X49450000Y-140950000D02*
X49450000Y-141550000D01*
X49450000Y-141550000D02*
X49200000Y-141800000D01*
X36300000Y-141000000D02*
X33700000Y-138400000D01*
X36400000Y-141100000D02*
X36300000Y-141000000D01*
X37500000Y-142200000D02*
X36900000Y-141600000D01*
X41600000Y-142200000D02*
X37500000Y-142200000D01*
X37100000Y-141800000D02*
X36900000Y-141600000D01*
X36900000Y-141600000D02*
X36300000Y-141000000D01*
X48800000Y-142200000D02*
X49450000Y-141550000D01*
X48000000Y-142200000D02*
X48800000Y-142200000D01*
X43800000Y-139612500D02*
X45312500Y-139612500D01*
X45312500Y-139612500D02*
X45600000Y-139900000D01*
X45600000Y-142200000D02*
X41600000Y-142200000D01*
X45600000Y-139900000D02*
X45600000Y-142200000D01*
X48000000Y-142200000D02*
X45600000Y-142200000D01*
%TO.N,LD_FRONT_RIGHT*%
X41800000Y-101600000D02*
X43000000Y-100400000D01*
X41800000Y-105200000D02*
X41800000Y-101600000D01*
X43183000Y-106583000D02*
X41800000Y-105200000D01*
X43183000Y-113850500D02*
X43183000Y-106583000D01*
X60550000Y-89550000D02*
X65550000Y-89550000D01*
X41400000Y-98700000D02*
X45000000Y-95100000D01*
X55000000Y-95100000D02*
X56700000Y-93400000D01*
X45000000Y-95100000D02*
X55000000Y-95100000D01*
X56700000Y-93400000D02*
X60550000Y-89550000D01*
X55600000Y-94500000D02*
X56700000Y-93400000D01*
X69100000Y-89600000D02*
X69150000Y-89550000D01*
X69100000Y-90600000D02*
X69100000Y-89600000D01*
X72800000Y-89550000D02*
X69150000Y-89550000D01*
X69150000Y-89550000D02*
X65550000Y-89550000D01*
%TO.N,LD_BACK_RIGHT*%
X39933000Y-113733000D02*
X40000000Y-113666000D01*
X39933000Y-113850500D02*
X39933000Y-113733000D01*
X56450000Y-139800000D02*
X56450000Y-141550000D01*
D33*
X28700000Y-123500000D02*
X28700000Y-123800000D01*
D28*
X28700000Y-123800000D02*
X28700000Y-123600000D01*
X39933000Y-114867000D02*
X39933000Y-113850500D01*
X39400000Y-115400000D02*
X39933000Y-114867000D01*
X34300000Y-115400000D02*
X39400000Y-115400000D01*
D33*
X28700000Y-121700000D02*
X28700000Y-123500000D01*
D28*
X28700000Y-120796322D02*
X28700000Y-121300000D01*
X28700000Y-121300000D02*
X28700000Y-121700000D01*
X28700000Y-121000000D02*
X28700000Y-121300000D01*
X31800000Y-115400000D02*
X31800000Y-115500000D01*
X28700000Y-118300000D02*
X28700000Y-118800000D01*
X31600000Y-115400000D02*
X28700000Y-118300000D01*
X28700000Y-118800000D02*
X28700000Y-121000000D01*
X28700000Y-118600000D02*
X28700000Y-118800000D01*
X28700000Y-137400000D02*
X30300000Y-139000000D01*
X28700000Y-123800000D02*
X28700000Y-137400000D01*
X30300000Y-139000000D02*
X33200000Y-139000000D01*
X60387500Y-139512500D02*
X62000000Y-139512500D01*
X58450000Y-141450000D02*
X60387500Y-139512500D01*
X56450000Y-141450000D02*
X58450000Y-141450000D01*
X56450000Y-139800000D02*
X56450000Y-141450000D01*
X56450000Y-141450000D02*
X56450000Y-141650000D01*
X37200000Y-143000000D02*
X36400000Y-142200000D01*
X40700000Y-143000000D02*
X37200000Y-143000000D01*
X36400000Y-142200000D02*
X36800000Y-142600000D01*
X33200000Y-139000000D02*
X36400000Y-142200000D01*
X39700000Y-143000000D02*
X40700000Y-143000000D01*
X55100000Y-143000000D02*
X56100000Y-142000000D01*
X51600000Y-143000000D02*
X55100000Y-143000000D01*
X56100000Y-142000000D02*
X55500000Y-142600000D01*
X56450000Y-141650000D02*
X56100000Y-142000000D01*
X40700000Y-143000000D02*
X51600000Y-143000000D01*
%TO.N,MOTS_RIGHT_PWM*%
X61469600Y-128761000D02*
X63548961Y-128760999D01*
X63548961Y-128760999D02*
X63793981Y-129006019D01*
X63793981Y-129006019D02*
X63927001Y-129139039D01*
X59961000Y-133961000D02*
X61469600Y-133961000D01*
X38633000Y-122633000D02*
X38633000Y-119575500D01*
X39600000Y-123600000D02*
X38633000Y-122633000D01*
X46600000Y-123600000D02*
X39600000Y-123600000D01*
X56961000Y-133961000D02*
X46600000Y-123600000D01*
X61469600Y-133961000D02*
X56961000Y-133961000D01*
X62598600Y-133961000D02*
X61469600Y-133961000D01*
X63539000Y-133961000D02*
X62598600Y-133961000D01*
X64333421Y-133166579D02*
X63900000Y-133600000D01*
X64333421Y-129545459D02*
X64333421Y-133166579D01*
X63793981Y-129006019D02*
X64333421Y-129545459D01*
X63900000Y-133600000D02*
X63539000Y-133961000D01*
X64000000Y-133500000D02*
X63900000Y-133600000D01*
%TO.N,MOTS_LEFT_PWM*%
X44750000Y-128126000D02*
X42974000Y-128126000D01*
X43126000Y-133326000D02*
X44750000Y-133326000D01*
X41566579Y-131766579D02*
X43126000Y-133326000D01*
X41566579Y-129533421D02*
X41566579Y-131766579D01*
X42974000Y-128126000D02*
X41566579Y-129533421D01*
X49474000Y-133326000D02*
X48474000Y-133326000D01*
X49800000Y-133000000D02*
X49474000Y-133326000D01*
X49800000Y-128000000D02*
X49800000Y-133000000D01*
X46200000Y-124400000D02*
X49800000Y-128000000D01*
X39200000Y-124400000D02*
X46200000Y-124400000D01*
X37983000Y-123183000D02*
X39200000Y-124400000D01*
X37983000Y-119575500D02*
X37983000Y-123183000D01*
X48474000Y-133326000D02*
X44498000Y-133326000D01*
X48674000Y-133326000D02*
X48474000Y-133326000D01*
D29*
%TO.N,Net-(C3-Pad1)*%
X50100000Y-109800000D02*
X50000000Y-109900000D01*
X52175000Y-109800000D02*
X50100000Y-109800000D01*
D33*
%TO.N,Net-(C4-Pad1)*%
X61304000Y-112919000D02*
X61431000Y-113046000D01*
X61431000Y-113046000D02*
X61558000Y-113046000D01*
D31*
X61431000Y-111395000D02*
X61177000Y-111141000D01*
X61431000Y-113046000D02*
X61431000Y-111395000D01*
D29*
%TO.N,Net-(D2-Pad2)*%
X59400000Y-102175000D02*
X59600000Y-102375000D01*
X59400000Y-100800000D02*
X59400000Y-102175000D01*
D35*
%TO.N,Net-(J3-Pad2)*%
X71000000Y-107400000D02*
X71000000Y-112600000D01*
D33*
%TO.N,Net-(C4-Pad2)*%
X64203000Y-113198000D02*
X64051000Y-113046000D01*
X64051000Y-113046000D02*
X64098000Y-113046000D01*
D31*
X64051000Y-113046000D02*
X64051000Y-112999000D01*
X63331000Y-110887000D02*
X63077000Y-111141000D01*
D29*
X64051000Y-111151000D02*
X64041000Y-111141000D01*
X64051000Y-113046000D02*
X64051000Y-111151000D01*
D35*
X64041000Y-111141000D02*
X64587000Y-111141000D01*
X63077000Y-111141000D02*
X64041000Y-111141000D01*
D29*
X63077000Y-109173000D02*
X63700000Y-108550000D01*
X63077000Y-111141000D02*
X63077000Y-109173000D01*
X64700000Y-109550000D02*
X63700000Y-108550000D01*
X64700000Y-111000000D02*
X64700000Y-109550000D01*
X64041000Y-108891000D02*
X63700000Y-108550000D01*
X64041000Y-111141000D02*
X64041000Y-108891000D01*
D33*
%TO.N,Net-(R12-Pad2)*%
X61426000Y-114951000D02*
X61431000Y-114946000D01*
D29*
X61431000Y-114946000D02*
X59346000Y-114946000D01*
X59346000Y-114946000D02*
X59000000Y-114600000D01*
X59000000Y-113000000D02*
X59400000Y-112600000D01*
X59000000Y-113112500D02*
X59400000Y-112712500D01*
X59000000Y-114600000D02*
X59000000Y-113112500D01*
X60675000Y-115702000D02*
X61431000Y-114946000D01*
X60675000Y-116800000D02*
X60675000Y-115702000D01*
D33*
%TO.N,Net-(R3-Pad2)*%
X63722000Y-114946000D02*
X64051000Y-114946000D01*
D29*
X64087500Y-114982500D02*
X64051000Y-114946000D01*
X64087500Y-116800000D02*
X64087500Y-114982500D01*
D35*
%TO.N,Net-(SW2-Pad2)*%
X72010000Y-122540000D02*
X71975000Y-122575000D01*
X71975000Y-122575000D02*
X71975000Y-123155000D01*
X72030000Y-121940000D02*
X71975000Y-121885000D01*
X75200000Y-121940000D02*
X72030000Y-121940000D01*
D28*
%TO.N,SBWTCK*%
X47239000Y-119761000D02*
X47250000Y-119750000D01*
X46212000Y-119761000D02*
X47239000Y-119761000D01*
X45170000Y-118250000D02*
X46600000Y-119680000D01*
X41883000Y-118617000D02*
X42250000Y-118250000D01*
X42250000Y-118250000D02*
X45170000Y-118250000D01*
X41883000Y-119575500D02*
X41883000Y-118617000D01*
D33*
%TO.N,XSHUT_LEFT*%
X33200000Y-94900000D02*
X34150000Y-94900000D01*
D28*
X34150000Y-94900000D02*
X34954010Y-95704010D01*
X34400000Y-111208020D02*
X34954010Y-110654010D01*
X34400000Y-113400000D02*
X34400000Y-111208020D01*
X34850500Y-113850500D02*
X34400000Y-113400000D01*
X35383000Y-113850500D02*
X34850500Y-113850500D01*
X34954010Y-95704010D02*
X34954010Y-110654010D01*
%TO.N,XSHUT_FRONT*%
X54850000Y-86850000D02*
X54850000Y-85200000D01*
X51900000Y-89800000D02*
X52700000Y-89000000D01*
X52700000Y-89000000D02*
X54850000Y-86850000D01*
X52600000Y-89100000D02*
X52700000Y-89000000D01*
X44700000Y-89800000D02*
X51900000Y-89800000D01*
X36683000Y-97817000D02*
X37150000Y-97350000D01*
X36683000Y-113850500D02*
X36683000Y-97817000D01*
X37150000Y-97350000D02*
X44700000Y-89800000D01*
X36878990Y-97621010D02*
X37150000Y-97350000D01*
%TO.N,INT_FRONT*%
X56100000Y-88100000D02*
X52300000Y-91900000D01*
X56100000Y-85200000D02*
X56100000Y-88100000D01*
X37333000Y-103433000D02*
X37333000Y-99067000D01*
X52300000Y-91900000D02*
X44500000Y-91900000D01*
X37333000Y-99067000D02*
X44500000Y-91900000D01*
X37333000Y-113850500D02*
X37333000Y-103433000D01*
%TO.N,XSHUT_FLEFT*%
X44688000Y-84726000D02*
X44688000Y-84980000D01*
X44950000Y-86092067D02*
X44950000Y-85200000D01*
X36033000Y-99467000D02*
X36033000Y-96767000D01*
X36033000Y-113850500D02*
X36033000Y-99467000D01*
X44950000Y-87850000D02*
X44950000Y-85200000D01*
X36033000Y-96767000D02*
X44950000Y-87850000D01*
%TO.N,XSHUT_FRIGHT*%
X66000000Y-85600000D02*
X66000000Y-85200000D01*
X64300000Y-88700000D02*
X66000000Y-87000000D01*
X58500000Y-88700000D02*
X64300000Y-88700000D01*
X54100000Y-93100000D02*
X58500000Y-88700000D01*
X38633000Y-106067000D02*
X40000000Y-104700000D01*
X66000000Y-87000000D02*
X66000000Y-85200000D01*
X38633000Y-113850500D02*
X38633000Y-106067000D01*
X40000000Y-98100000D02*
X45000000Y-93100000D01*
X40000000Y-99200000D02*
X40000000Y-98100000D01*
X45000000Y-93100000D02*
X54100000Y-93100000D01*
X40000000Y-104700000D02*
X40000000Y-99200000D01*
%TO.N,UNUSED_2*%
X31960000Y-122800000D02*
X31960000Y-121540000D01*
X33924500Y-119575500D02*
X32350000Y-121150000D01*
X35383000Y-119575500D02*
X33924500Y-119575500D01*
X32350000Y-121150000D02*
X32500000Y-121000000D01*
X31960000Y-121540000D02*
X32350000Y-121150000D01*
%TO.N,UNUSED_1*%
X34500000Y-122800000D02*
X34500000Y-121600000D01*
X34500000Y-121600000D02*
X34900000Y-121200000D01*
X34900000Y-121200000D02*
X35600000Y-121200000D01*
X36033000Y-120767000D02*
X36033000Y-119575500D01*
X35600000Y-121200000D02*
X36033000Y-120767000D01*
%TO.N,XSHUT_RIGHT*%
X39283000Y-113850500D02*
X39283000Y-113594000D01*
X39283000Y-113850500D02*
X39283000Y-113848000D01*
X44000000Y-97800000D02*
X45000000Y-96800000D01*
X44000000Y-97824038D02*
X44000000Y-97800000D01*
X40800000Y-101024038D02*
X44000000Y-97824038D01*
X40800000Y-105100000D02*
X40800000Y-101024038D01*
X39283000Y-106617000D02*
X40800000Y-105100000D01*
X39283000Y-113850500D02*
X39283000Y-106617000D01*
X45000000Y-96800000D02*
X45500000Y-96300000D01*
X57100000Y-96300000D02*
X57600000Y-95800000D01*
X68400000Y-95800000D02*
X70300000Y-97700000D01*
X57600000Y-95800000D02*
X68400000Y-95800000D01*
X45500000Y-96300000D02*
X57100000Y-96300000D01*
%TO.N,TEST_LED*%
X43183000Y-119575500D02*
X43183000Y-120583000D01*
X43183000Y-120583000D02*
X43600000Y-121000000D01*
X52740000Y-121000000D02*
X54140000Y-122400000D01*
X43600000Y-121000000D02*
X52740000Y-121000000D01*
X54000000Y-122540000D02*
X54140000Y-122400000D01*
X54540000Y-123000000D02*
X53940000Y-122400000D01*
X54740000Y-123200000D02*
X53940000Y-122400000D01*
X56587500Y-123200000D02*
X54740000Y-123200000D01*
%TO.N,MOTS_RIGHT_CH2*%
X42533000Y-121133000D02*
X43200000Y-121800000D01*
X42533000Y-119575500D02*
X42533000Y-121133000D01*
X43400000Y-122000000D02*
X42533000Y-121133000D01*
X47800000Y-122000000D02*
X43400000Y-122000000D01*
X61469600Y-129411000D02*
X61371601Y-129313001D01*
X55211000Y-129411000D02*
X54350000Y-128550000D01*
X61150000Y-129411000D02*
X55211000Y-129411000D01*
X54350000Y-128550000D02*
X47800000Y-122000000D01*
X55113001Y-129313001D02*
X54350000Y-128550000D01*
D37*
X62959225Y-133311000D02*
X61150000Y-133311000D01*
X63904811Y-132365414D02*
X62959225Y-133311000D01*
X63904811Y-130234586D02*
X63904811Y-132365414D01*
X63081224Y-129411000D02*
X63904811Y-130234586D01*
X61150000Y-129411000D02*
X63081224Y-129411000D01*
D28*
%TO.N,MOTS_RIGHT_CH1*%
X39283000Y-120266886D02*
X39283000Y-119575500D01*
X39283000Y-119575500D02*
X39283000Y-122283000D01*
X39283000Y-122283000D02*
X39800000Y-122800000D01*
X39800000Y-122800000D02*
X47200000Y-122800000D01*
X54461000Y-130061000D02*
X54150000Y-129750000D01*
X61150000Y-130061000D02*
X54461000Y-130061000D01*
X47200000Y-122800000D02*
X54150000Y-129750000D01*
D37*
X63501601Y-132198399D02*
X63039000Y-132661000D01*
X63039000Y-132661000D02*
X61150000Y-132661000D01*
X63501601Y-130401601D02*
X63501601Y-132198399D01*
X63161000Y-130061000D02*
X63501601Y-130401601D01*
X61150000Y-130061000D02*
X63161000Y-130061000D01*
%TO.N,MOTS_LEFT_CH2*%
X42953775Y-128776000D02*
X44750000Y-128776000D01*
X41995189Y-129734586D02*
X42953775Y-128776000D01*
X41995189Y-131565414D02*
X41995189Y-129734586D01*
X43105776Y-132676000D02*
X41995189Y-131565414D01*
X44750000Y-132676000D02*
X43105776Y-132676000D01*
D28*
X46900000Y-127400000D02*
X46900000Y-128200000D01*
X45300000Y-125800000D02*
X46900000Y-127400000D01*
X38200000Y-125800000D02*
X45300000Y-125800000D01*
X46324000Y-128776000D02*
X44750000Y-128776000D01*
X46900000Y-128200000D02*
X46324000Y-128776000D01*
X36683000Y-124283000D02*
X38200000Y-125800000D01*
X36683000Y-119575500D02*
X36683000Y-124283000D01*
%TO.N,MOTS_LEFT_CH1*%
X38800000Y-125200000D02*
X37333000Y-123733000D01*
X45800000Y-125200000D02*
X38800000Y-125200000D01*
X37333000Y-119575500D02*
X37333000Y-123733000D01*
D37*
X44750000Y-132026000D02*
X43026000Y-132026000D01*
X42398399Y-131398399D02*
X42398399Y-129901601D01*
X43026000Y-132026000D02*
X42398399Y-131398399D01*
X42874000Y-129426000D02*
X44750000Y-129426000D01*
X42398399Y-129901601D02*
X42874000Y-129426000D01*
D28*
X44750000Y-129426000D02*
X46474000Y-129426000D01*
X46474000Y-129426000D02*
X47900000Y-128000000D01*
X47900000Y-127300000D02*
X45800000Y-125200000D01*
X47900000Y-128000000D02*
X47900000Y-127300000D01*
%TO.N,UART_TX*%
X41883000Y-113850500D02*
X41883000Y-113113000D01*
X39900000Y-108300000D02*
X41200000Y-107000000D01*
X39900000Y-110700000D02*
X39900000Y-108300000D01*
X40200000Y-111000000D02*
X39900000Y-110700000D01*
X40700000Y-111000000D02*
X40200000Y-111000000D01*
X41883000Y-112183000D02*
X40700000Y-111000000D01*
X41883000Y-113850500D02*
X41883000Y-112183000D01*
%TO.N,UART_RX*%
X42545991Y-113837509D02*
X42533000Y-113850500D01*
X42533000Y-113850500D02*
X42533000Y-111733000D01*
X41200000Y-110400000D02*
X41200000Y-109540000D01*
X42533000Y-111733000D02*
X41200000Y-110400000D01*
D29*
%TO.N,MR_B01*%
X68819600Y-127461000D02*
X71139000Y-127461000D01*
X72100000Y-126500000D02*
X73950000Y-126500000D01*
X71139000Y-127461000D02*
X72100000Y-126500000D01*
D28*
%TO.N,MR_B02*%
X68669600Y-130061000D02*
X68439000Y-130061000D01*
X68669600Y-130711000D02*
X68311000Y-130711000D01*
D31*
X73882000Y-128905000D02*
X73882000Y-129413000D01*
D29*
X73882000Y-129040000D02*
X73760000Y-129040000D01*
X73950000Y-129040000D02*
X72260000Y-129040000D01*
X72260000Y-129040000D02*
X70900000Y-130400000D01*
X70900000Y-130400000D02*
X69130600Y-130400000D01*
X69130600Y-130400000D02*
X68800000Y-130400000D01*
D31*
%TO.N,MR_A02*%
X73882000Y-133223000D02*
X74644000Y-133223000D01*
D29*
X74100000Y-133223000D02*
X72323000Y-133223000D01*
X72323000Y-133223000D02*
X70800000Y-131700000D01*
X70800000Y-131700000D02*
X68700000Y-131700000D01*
D31*
%TO.N,MR_A01*%
X68669600Y-134611000D02*
X68797000Y-134611000D01*
D29*
X74100000Y-135763000D02*
X72063000Y-135763000D01*
X70911000Y-134611000D02*
X68650000Y-134611000D01*
X72063000Y-135763000D02*
X70911000Y-134611000D01*
D31*
%TO.N,ML_B01*%
X37148000Y-134626000D02*
X37148000Y-134632000D01*
D29*
X37250000Y-134626000D02*
X35974000Y-134626000D01*
X34460000Y-136140000D02*
X31900000Y-136140000D01*
X35974000Y-134626000D02*
X34460000Y-136140000D01*
D28*
%TO.N,ML_B02*%
X37148000Y-131376000D02*
X37576000Y-131376000D01*
X37148000Y-131376000D02*
X37276000Y-131376000D01*
D29*
X33486078Y-133600000D02*
X33400000Y-133600000D01*
X35900000Y-131700000D02*
X35386078Y-131700000D01*
X35386078Y-131700000D02*
X33486078Y-133600000D01*
X31900000Y-133600000D02*
X33400000Y-133600000D01*
X35900000Y-131700000D02*
X36924000Y-131700000D01*
%TO.N,ML_A02*%
X31900000Y-129440000D02*
X33640000Y-129440000D01*
X33640000Y-129440000D02*
X34600000Y-130400000D01*
X34600000Y-130400000D02*
X36924000Y-130400000D01*
%TO.N,ML_A01*%
X32000000Y-126500000D02*
X32304798Y-126500000D01*
X33900000Y-126900000D02*
X31900000Y-126900000D01*
X34476000Y-127476000D02*
X33900000Y-126900000D01*
X37250000Y-127476000D02*
X34476000Y-127476000D01*
%TO.N,Net-(D1-Pad2)*%
X38912500Y-90000000D02*
X38912500Y-90787500D01*
X38675000Y-91025000D02*
X38675000Y-91900000D01*
X38912500Y-90787500D02*
X38675000Y-91025000D01*
%TO.N,Net-(D7-Pad2)*%
X43775000Y-141212500D02*
X43800000Y-141187500D01*
X41900000Y-141212500D02*
X43775000Y-141212500D01*
%TO.N,Net-(D8-Pad2)*%
X67275000Y-92500000D02*
X67275000Y-91525000D01*
X67525000Y-91275000D02*
X67525000Y-90600000D01*
X67275000Y-91525000D02*
X67525000Y-91275000D01*
%TO.N,Net-(D9-Pad2)*%
X62075000Y-141012500D02*
X62000000Y-141087500D01*
X63800000Y-141012500D02*
X62075000Y-141012500D01*
%TD*%
D28*
%TO.N,+3V3*%
X45119717Y-111547375D02*
X45281623Y-111596488D01*
X45450000Y-111613072D01*
X45950000Y-111613072D01*
X46118377Y-111596488D01*
X46280283Y-111547375D01*
X46318402Y-111527000D01*
X47873000Y-111527000D01*
X47873000Y-114673000D01*
X43994450Y-114673000D01*
X44006890Y-114631991D01*
X44021072Y-114488000D01*
X44021072Y-113213000D01*
X44006890Y-113069009D01*
X43964890Y-112930552D01*
X43945000Y-112893341D01*
X43945000Y-111612580D01*
X43950000Y-111613072D01*
X44450000Y-111613072D01*
X44618377Y-111596488D01*
X44780283Y-111547375D01*
X44818402Y-111527000D01*
X45081598Y-111527000D01*
X45119717Y-111547375D01*
%TA.AperFunction,Conductor*%
D38*
G36*
X45119717Y-111547375D02*
G01*
X45281623Y-111596488D01*
X45450000Y-111613072D01*
X45950000Y-111613072D01*
X46118377Y-111596488D01*
X46280283Y-111547375D01*
X46318402Y-111527000D01*
X47873000Y-111527000D01*
X47873000Y-114673000D01*
X43994450Y-114673000D01*
X44006890Y-114631991D01*
X44021072Y-114488000D01*
X44021072Y-113213000D01*
X44006890Y-113069009D01*
X43964890Y-112930552D01*
X43945000Y-112893341D01*
X43945000Y-111612580D01*
X43950000Y-111613072D01*
X44450000Y-111613072D01*
X44618377Y-111596488D01*
X44780283Y-111547375D01*
X44818402Y-111527000D01*
X45081598Y-111527000D01*
X45119717Y-111547375D01*
G37*
%TD.AperFunction*%
%TD*%
D28*
%TO.N,+3V3*%
X49773000Y-113673000D02*
X48027000Y-113673000D01*
X48027000Y-111627000D01*
X49773000Y-111627000D01*
X49773000Y-113673000D01*
%TA.AperFunction,Conductor*%
D38*
G36*
X49773000Y-113673000D02*
G01*
X48027000Y-113673000D01*
X48027000Y-111627000D01*
X49773000Y-111627000D01*
X49773000Y-113673000D01*
G37*
%TD.AperFunction*%
%TD*%
D28*
%TO.N,+3V3*%
X44383713Y-114673000D02*
X43994450Y-114673000D01*
X44006890Y-114631991D01*
X44021072Y-114488000D01*
X44021072Y-113213000D01*
X44006890Y-113069009D01*
X43964890Y-112930552D01*
X43945000Y-112893341D01*
X43945000Y-111612580D01*
X43950000Y-111613072D01*
X44450000Y-111613072D01*
X44618377Y-111596488D01*
X44656182Y-111585020D01*
X44383713Y-114673000D01*
%TA.AperFunction,Conductor*%
D38*
G36*
X44383713Y-114673000D02*
G01*
X43994450Y-114673000D01*
X44006890Y-114631991D01*
X44021072Y-114488000D01*
X44021072Y-113213000D01*
X44006890Y-113069009D01*
X43964890Y-112930552D01*
X43945000Y-112893341D01*
X43945000Y-111612580D01*
X43950000Y-111613072D01*
X44450000Y-111613072D01*
X44618377Y-111596488D01*
X44656182Y-111585020D01*
X44383713Y-114673000D01*
G37*
%TD.AperFunction*%
%TD*%
D28*
%TO.N,+3V3*%
X44580251Y-114673000D02*
X43827000Y-114673000D01*
X43827000Y-111527000D01*
X44765310Y-111527000D01*
X44580251Y-114673000D01*
%TA.AperFunction,Conductor*%
D38*
G36*
X44580251Y-114673000D02*
G01*
X43827000Y-114673000D01*
X43827000Y-111527000D01*
X44765310Y-111527000D01*
X44580251Y-114673000D01*
G37*
%TD.AperFunction*%
%TD*%
D28*
%TO.N,+BATT*%
X68173000Y-122503641D02*
X65227000Y-122503641D01*
X65227000Y-118857641D01*
X68173000Y-118857641D01*
X68173000Y-122503641D01*
%TA.AperFunction,Conductor*%
D38*
G36*
X68173000Y-122503641D02*
G01*
X65227000Y-122503641D01*
X65227000Y-118857641D01*
X68173000Y-118857641D01*
X68173000Y-122503641D01*
G37*
%TD.AperFunction*%
%TD*%
D28*
%TO.N,+BATT*%
X68863241Y-122503000D02*
X67017241Y-122503000D01*
X67026759Y-117487879D01*
X68872759Y-117487879D01*
X68863241Y-122503000D01*
%TA.AperFunction,Conductor*%
D38*
G36*
X68863241Y-122503000D02*
G01*
X67017241Y-122503000D01*
X67026759Y-117487879D01*
X68872759Y-117487879D01*
X68863241Y-122503000D01*
G37*
%TD.AperFunction*%
%TD*%
D28*
%TO.N,Net-(SW2-Pad2)*%
X73541994Y-123993000D02*
X71196002Y-123993000D01*
X71158006Y-119177000D01*
X73503998Y-119177000D01*
X73541994Y-123993000D01*
%TA.AperFunction,Conductor*%
D38*
G36*
X73541994Y-123993000D02*
G01*
X71196002Y-123993000D01*
X71158006Y-119177000D01*
X73503998Y-119177000D01*
X73541994Y-123993000D01*
G37*
%TD.AperFunction*%
%TD*%
D28*
%TO.N,GND*%
X38073000Y-129473000D02*
X35477000Y-129473000D01*
X35477000Y-128727000D01*
X38073000Y-128727000D01*
X38073000Y-129473000D01*
%TA.AperFunction,Conductor*%
D38*
G36*
X38073000Y-129473000D02*
G01*
X35477000Y-129473000D01*
X35477000Y-128727000D01*
X38073000Y-128727000D01*
X38073000Y-129473000D01*
G37*
%TD.AperFunction*%
%TD*%
D28*
%TO.N,GND*%
X38073000Y-133373000D02*
X35677000Y-133373000D01*
X35677000Y-132627000D01*
X38073000Y-132627000D01*
X38073000Y-133373000D01*
%TA.AperFunction,Conductor*%
D38*
G36*
X38073000Y-133373000D02*
G01*
X35677000Y-133373000D01*
X35677000Y-132627000D01*
X38073000Y-132627000D01*
X38073000Y-133373000D01*
G37*
%TD.AperFunction*%
%TD*%
D39*
%TO.N,+3V3*%
X56550000Y-103600000D02*
X56552882Y-103629264D01*
X56561418Y-103657403D01*
X56575280Y-103683336D01*
X56593934Y-103706066D01*
X56616664Y-103724720D01*
X56642597Y-103738582D01*
X56670736Y-103747118D01*
X56700000Y-103750000D01*
X60450000Y-103750000D01*
X60450000Y-104850000D01*
X56100000Y-104850000D01*
X56070736Y-104852882D01*
X56042597Y-104861418D01*
X56016664Y-104875280D01*
X55993934Y-104893934D01*
X55968876Y-104927154D01*
X55065451Y-106553319D01*
X54450000Y-105937868D01*
X54450000Y-102050000D01*
X56550000Y-102050000D01*
X56550000Y-103600000D01*
%TA.AperFunction,Conductor*%
D38*
G36*
X56550000Y-103600000D02*
G01*
X56552882Y-103629264D01*
X56561418Y-103657403D01*
X56575280Y-103683336D01*
X56593934Y-103706066D01*
X56616664Y-103724720D01*
X56642597Y-103738582D01*
X56670736Y-103747118D01*
X56700000Y-103750000D01*
X60450000Y-103750000D01*
X60450000Y-104850000D01*
X56100000Y-104850000D01*
X56070736Y-104852882D01*
X56042597Y-104861418D01*
X56016664Y-104875280D01*
X55993934Y-104893934D01*
X55968876Y-104927154D01*
X55065451Y-106553319D01*
X54450000Y-105937868D01*
X54450000Y-102050000D01*
X56550000Y-102050000D01*
X56550000Y-103600000D01*
G37*
%TD.AperFunction*%
%TD*%
D28*
%TO.N,+3V3*%
X54573000Y-106673000D02*
X54227000Y-106673000D01*
X54227000Y-101727000D01*
X54573000Y-101727000D01*
X54573000Y-106673000D01*
%TA.AperFunction,Conductor*%
D38*
G36*
X54573000Y-106673000D02*
G01*
X54227000Y-106673000D01*
X54227000Y-101727000D01*
X54573000Y-101727000D01*
X54573000Y-106673000D01*
G37*
%TD.AperFunction*%
%TD*%
D28*
%TO.N,+3V3*%
X47773000Y-115573000D02*
X45427000Y-115573000D01*
X45427000Y-113227000D01*
X47773000Y-113227000D01*
X47773000Y-115573000D01*
%TA.AperFunction,Conductor*%
D38*
G36*
X47773000Y-115573000D02*
G01*
X45427000Y-115573000D01*
X45427000Y-113227000D01*
X47773000Y-113227000D01*
X47773000Y-115573000D01*
G37*
%TD.AperFunction*%
%TD*%
D28*
%TO.N,GND*%
X69115291Y-123436419D02*
X69140712Y-124826091D01*
X68029839Y-124852967D01*
X67641180Y-124844524D01*
X67265294Y-123427774D01*
X69115291Y-123436419D01*
%TA.AperFunction,Conductor*%
D38*
G36*
X69115291Y-123436419D02*
G01*
X69140712Y-124826091D01*
X68029839Y-124852967D01*
X67641180Y-124844524D01*
X67265294Y-123427774D01*
X69115291Y-123436419D01*
G37*
%TD.AperFunction*%
%TD*%
D28*
%TO.N,Net-(C4-Pad2)*%
X64973000Y-111673000D02*
X62627000Y-111673000D01*
X62627000Y-107727000D01*
X64973000Y-107727000D01*
X64973000Y-111673000D01*
%TA.AperFunction,Conductor*%
D38*
G36*
X64973000Y-111673000D02*
G01*
X62627000Y-111673000D01*
X62627000Y-107727000D01*
X64973000Y-107727000D01*
X64973000Y-111673000D01*
G37*
%TD.AperFunction*%
%TD*%
D28*
%TO.N,GND*%
X68373000Y-111473000D02*
X67027000Y-111473000D01*
X67027000Y-106727000D01*
X68373000Y-106727000D01*
X68373000Y-111473000D01*
%TA.AperFunction,Conductor*%
D38*
G36*
X68373000Y-111473000D02*
G01*
X67027000Y-111473000D01*
X67027000Y-106727000D01*
X68373000Y-106727000D01*
X68373000Y-111473000D01*
G37*
%TD.AperFunction*%
%TD*%
D28*
%TO.N,GND*%
X68873000Y-113873000D02*
X67227000Y-113873000D01*
X67227000Y-112700000D01*
X67225724Y-112682039D01*
X67046433Y-111427000D01*
X68873000Y-111427000D01*
X68873000Y-113873000D01*
%TA.AperFunction,Conductor*%
D38*
G36*
X68873000Y-113873000D02*
G01*
X67227000Y-113873000D01*
X67227000Y-112700000D01*
X67225724Y-112682039D01*
X67046433Y-111427000D01*
X68873000Y-111427000D01*
X68873000Y-113873000D01*
G37*
%TD.AperFunction*%
%TD*%
D28*
%TO.N,+5V*%
X68373000Y-105773000D02*
X61327000Y-105773000D01*
X61327000Y-103327000D01*
X66500000Y-103327000D01*
X66524776Y-103324560D01*
X66548601Y-103317333D01*
X66570557Y-103305597D01*
X66589803Y-103289803D01*
X66605597Y-103270557D01*
X66617333Y-103248601D01*
X66624560Y-103224776D01*
X66627000Y-103200000D01*
X66627000Y-100727000D01*
X68373000Y-100727000D01*
X68373000Y-105773000D01*
%TA.AperFunction,Conductor*%
D38*
G36*
X68373000Y-105773000D02*
G01*
X61327000Y-105773000D01*
X61327000Y-103327000D01*
X66500000Y-103327000D01*
X66524776Y-103324560D01*
X66548601Y-103317333D01*
X66570557Y-103305597D01*
X66589803Y-103289803D01*
X66605597Y-103270557D01*
X66617333Y-103248601D01*
X66624560Y-103224776D01*
X66627000Y-103200000D01*
X66627000Y-100727000D01*
X68373000Y-100727000D01*
X68373000Y-105773000D01*
G37*
%TD.AperFunction*%
%TD*%
D28*
%TO.N,+5V*%
X61919463Y-105754494D02*
X61998815Y-105851185D01*
X62095506Y-105930537D01*
X62173000Y-105971959D01*
X62173000Y-106647394D01*
X61710197Y-107110197D01*
X61694403Y-107129443D01*
X61682667Y-107151399D01*
X61675440Y-107175224D01*
X61673000Y-107200000D01*
X61673000Y-107973000D01*
X61327000Y-107973000D01*
X61327000Y-105727000D01*
X61904767Y-105727000D01*
X61919463Y-105754494D01*
%TA.AperFunction,Conductor*%
D38*
G36*
X61919463Y-105754494D02*
G01*
X61998815Y-105851185D01*
X62095506Y-105930537D01*
X62173000Y-105971959D01*
X62173000Y-106647394D01*
X61710197Y-107110197D01*
X61694403Y-107129443D01*
X61682667Y-107151399D01*
X61675440Y-107175224D01*
X61673000Y-107200000D01*
X61673000Y-107973000D01*
X61327000Y-107973000D01*
X61327000Y-105727000D01*
X61904767Y-105727000D01*
X61919463Y-105754494D01*
G37*
%TD.AperFunction*%
%TD*%
D28*
%TO.N,+5V*%
X61673000Y-108052282D02*
X60342372Y-109573000D01*
X58827000Y-109573000D01*
X58827000Y-108227000D01*
X61200000Y-108227000D01*
X61224776Y-108224560D01*
X61248601Y-108217333D01*
X61270557Y-108205597D01*
X61289803Y-108189803D01*
X61305597Y-108170557D01*
X61317333Y-108148601D01*
X61324560Y-108124776D01*
X61327000Y-108100000D01*
X61327000Y-107627000D01*
X61673000Y-107627000D01*
X61673000Y-108052282D01*
%TA.AperFunction,Conductor*%
D38*
G36*
X61673000Y-108052282D02*
G01*
X60342372Y-109573000D01*
X58827000Y-109573000D01*
X58827000Y-108227000D01*
X61200000Y-108227000D01*
X61224776Y-108224560D01*
X61248601Y-108217333D01*
X61270557Y-108205597D01*
X61289803Y-108189803D01*
X61305597Y-108170557D01*
X61317333Y-108148601D01*
X61324560Y-108124776D01*
X61327000Y-108100000D01*
X61327000Y-107627000D01*
X61673000Y-107627000D01*
X61673000Y-108052282D01*
G37*
%TD.AperFunction*%
%TD*%
D28*
%TO.N,+5V*%
X61380689Y-108273000D02*
X60576203Y-108273000D01*
X60617017Y-108150560D01*
X61275857Y-106927000D01*
X61464814Y-106927000D01*
X61380689Y-108273000D01*
%TA.AperFunction,Conductor*%
D38*
G36*
X61380689Y-108273000D02*
G01*
X60576203Y-108273000D01*
X60617017Y-108150560D01*
X61275857Y-106927000D01*
X61464814Y-106927000D01*
X61380689Y-108273000D01*
G37*
%TD.AperFunction*%
%TD*%
D28*
%TO.N,GND*%
X62873000Y-117700000D02*
X62875440Y-117724776D01*
X62882667Y-117748601D01*
X62894403Y-117770557D01*
X62910197Y-117789803D01*
X62929443Y-117805597D01*
X62951399Y-117817333D01*
X62975224Y-117824560D01*
X63000000Y-117827000D01*
X63273000Y-117827000D01*
X63273000Y-118373000D01*
X61827000Y-118373000D01*
X61827000Y-115927000D01*
X62873000Y-115927000D01*
X62873000Y-117700000D01*
%TA.AperFunction,Conductor*%
D38*
G36*
X62873000Y-117700000D02*
G01*
X62875440Y-117724776D01*
X62882667Y-117748601D01*
X62894403Y-117770557D01*
X62910197Y-117789803D01*
X62929443Y-117805597D01*
X62951399Y-117817333D01*
X62975224Y-117824560D01*
X63000000Y-117827000D01*
X63273000Y-117827000D01*
X63273000Y-118373000D01*
X61827000Y-118373000D01*
X61827000Y-115927000D01*
X62873000Y-115927000D01*
X62873000Y-117700000D01*
G37*
%TD.AperFunction*%
%TD*%
D28*
%TO.N,+3V3*%
X55673000Y-108373000D02*
X55127000Y-108373000D01*
X55127000Y-104727000D01*
X55673000Y-104727000D01*
X55673000Y-108373000D01*
%TA.AperFunction,Conductor*%
D38*
G36*
X55673000Y-108373000D02*
G01*
X55127000Y-108373000D01*
X55127000Y-104727000D01*
X55673000Y-104727000D01*
X55673000Y-108373000D01*
G37*
%TD.AperFunction*%
%TD*%
D28*
%TO.N,GND*%
X52078380Y-108384008D02*
X50093965Y-108573000D01*
X48027000Y-108573000D01*
X48027000Y-107427000D01*
X49000000Y-107427000D01*
X49024776Y-107424560D01*
X49048601Y-107417333D01*
X49070557Y-107405597D01*
X49089803Y-107389803D01*
X49105597Y-107370557D01*
X49117333Y-107348601D01*
X49124560Y-107324776D01*
X49127000Y-107300000D01*
X49127000Y-106527000D01*
X52166809Y-106527000D01*
X52078380Y-108384008D01*
%TA.AperFunction,Conductor*%
D38*
G36*
X52078380Y-108384008D02*
G01*
X50093965Y-108573000D01*
X48027000Y-108573000D01*
X48027000Y-107427000D01*
X49000000Y-107427000D01*
X49024776Y-107424560D01*
X49048601Y-107417333D01*
X49070557Y-107405597D01*
X49089803Y-107389803D01*
X49105597Y-107370557D01*
X49117333Y-107348601D01*
X49124560Y-107324776D01*
X49127000Y-107300000D01*
X49127000Y-106527000D01*
X52166809Y-106527000D01*
X52078380Y-108384008D01*
G37*
%TD.AperFunction*%
%TD*%
D28*
%TO.N,+3V3*%
X60873000Y-99170012D02*
X56702953Y-99073034D01*
X56678126Y-99074898D01*
X56654140Y-99081569D01*
X56631917Y-99092791D01*
X56612310Y-99108134D01*
X56596072Y-99127007D01*
X56583829Y-99148684D01*
X56576050Y-99172334D01*
X56573000Y-99200000D01*
X56573000Y-102473000D01*
X52727000Y-102473000D01*
X52727000Y-98227000D01*
X56100000Y-98227000D01*
X56124776Y-98224560D01*
X56148601Y-98217333D01*
X56170557Y-98205597D01*
X56182651Y-98196426D01*
X56846981Y-97627000D01*
X60873000Y-97627000D01*
X60873000Y-99170012D01*
%TA.AperFunction,Conductor*%
D38*
G36*
X60873000Y-99170012D02*
G01*
X56702953Y-99073034D01*
X56678126Y-99074898D01*
X56654140Y-99081569D01*
X56631917Y-99092791D01*
X56612310Y-99108134D01*
X56596072Y-99127007D01*
X56583829Y-99148684D01*
X56576050Y-99172334D01*
X56573000Y-99200000D01*
X56573000Y-102473000D01*
X52727000Y-102473000D01*
X52727000Y-98227000D01*
X56100000Y-98227000D01*
X56124776Y-98224560D01*
X56148601Y-98217333D01*
X56170557Y-98205597D01*
X56182651Y-98196426D01*
X56846981Y-97627000D01*
X60873000Y-97627000D01*
X60873000Y-99170012D01*
G37*
%TD.AperFunction*%
%TD*%
D28*
%TO.N,MR_B01*%
X69573000Y-128207418D02*
X67727000Y-128207418D01*
X67727000Y-127373254D01*
X69573000Y-127373254D01*
X69573000Y-128207418D01*
%TA.AperFunction,Conductor*%
D38*
G36*
X69573000Y-128207418D02*
G01*
X67727000Y-128207418D01*
X67727000Y-127373254D01*
X69573000Y-127373254D01*
X69573000Y-128207418D01*
G37*
%TD.AperFunction*%
%TD*%
D28*
%TO.N,MR_B02*%
X69573001Y-130773000D02*
X67727001Y-130773000D01*
X67727001Y-130027000D01*
X69573001Y-130027000D01*
X69573001Y-130773000D01*
%TA.AperFunction,Conductor*%
D38*
G36*
X69573001Y-130773000D02*
G01*
X67727001Y-130773000D01*
X67727001Y-130027000D01*
X69573001Y-130027000D01*
X69573001Y-130773000D01*
G37*
%TD.AperFunction*%
%TD*%
D28*
%TO.N,MR_A02*%
X69573000Y-132073000D02*
X67727000Y-132073000D01*
X67727000Y-131327000D01*
X69573000Y-131327000D01*
X69573000Y-132073000D01*
%TA.AperFunction,Conductor*%
D38*
G36*
X69573000Y-132073000D02*
G01*
X67727000Y-132073000D01*
X67727000Y-131327000D01*
X69573000Y-131327000D01*
X69573000Y-132073000D01*
G37*
%TD.AperFunction*%
%TD*%
D28*
%TO.N,MR_A01*%
X69573000Y-134673000D02*
X67727000Y-134673000D01*
X67727000Y-133927000D01*
X69573000Y-133927000D01*
X69573000Y-134673000D01*
%TA.AperFunction,Conductor*%
D38*
G36*
X69573000Y-134673000D02*
G01*
X67727000Y-134673000D01*
X67727000Y-133927000D01*
X69573000Y-133927000D01*
X69573000Y-134673000D01*
G37*
%TD.AperFunction*%
%TD*%
D28*
%TO.N,GND*%
X70483000Y-129483000D02*
X67757000Y-129483000D01*
X67757000Y-128677000D01*
X70483000Y-128677000D01*
X70483000Y-129483000D01*
%TA.AperFunction,Conductor*%
D38*
G36*
X70483000Y-129483000D02*
G01*
X67757000Y-129483000D01*
X67757000Y-128677000D01*
X70483000Y-128677000D01*
X70483000Y-129483000D01*
G37*
%TD.AperFunction*%
%TD*%
D28*
%TO.N,GND*%
X70383000Y-133413000D02*
X69731671Y-133413000D01*
X69675000Y-133407418D01*
X67757000Y-133407418D01*
X67757000Y-132564582D01*
X69675000Y-132564582D01*
X69739103Y-132558268D01*
X69743283Y-132557000D01*
X70383000Y-132557000D01*
X70383000Y-133413000D01*
%TA.AperFunction,Conductor*%
D38*
G36*
X70383000Y-133413000D02*
G01*
X69731671Y-133413000D01*
X69675000Y-133407418D01*
X67757000Y-133407418D01*
X67757000Y-132564582D01*
X69675000Y-132564582D01*
X69739103Y-132558268D01*
X69743283Y-132557000D01*
X70383000Y-132557000D01*
X70383000Y-133413000D01*
G37*
%TD.AperFunction*%
%TD*%
D28*
%TO.N,GND*%
X59473000Y-128773000D02*
X57227000Y-128773000D01*
X57227000Y-127427000D01*
X59473000Y-127427000D01*
X59473000Y-128773000D01*
%TA.AperFunction,Conductor*%
D38*
G36*
X59473000Y-128773000D02*
G01*
X57227000Y-128773000D01*
X57227000Y-127427000D01*
X59473000Y-127427000D01*
X59473000Y-128773000D01*
G37*
%TD.AperFunction*%
%TD*%
D28*
%TO.N,+3V3*%
X62073000Y-132073000D02*
X60227000Y-132073000D01*
X60227000Y-131327000D01*
X62073000Y-131327000D01*
X62073000Y-132073000D01*
%TA.AperFunction,Conductor*%
D38*
G36*
X62073000Y-132073000D02*
G01*
X60227000Y-132073000D01*
X60227000Y-131327000D01*
X62073000Y-131327000D01*
X62073000Y-132073000D01*
G37*
%TD.AperFunction*%
%TD*%
D28*
%TO.N,+BATT*%
X61173000Y-126900000D02*
X61175440Y-126924776D01*
X61182667Y-126948601D01*
X61194403Y-126970557D01*
X61210197Y-126989803D01*
X61229443Y-127005597D01*
X61251399Y-127017333D01*
X61275224Y-127024560D01*
X61300000Y-127027000D01*
X62173000Y-127027000D01*
X62173000Y-128207418D01*
X60127000Y-128207418D01*
X60127000Y-126700000D01*
X60124560Y-126675224D01*
X60117333Y-126651399D01*
X60105597Y-126629443D01*
X60089803Y-126610197D01*
X60070557Y-126594403D01*
X60048601Y-126582667D01*
X60024776Y-126575440D01*
X60000000Y-126573000D01*
X57827000Y-126573000D01*
X57827000Y-125627000D01*
X59500000Y-125627000D01*
X59524776Y-125624560D01*
X59548601Y-125617333D01*
X59570557Y-125605597D01*
X59589803Y-125589803D01*
X59605597Y-125570557D01*
X59617333Y-125548601D01*
X59624560Y-125524776D01*
X59627000Y-125500000D01*
X59627000Y-124827000D01*
X61173000Y-124827000D01*
X61173000Y-126900000D01*
%TA.AperFunction,Conductor*%
D38*
G36*
X61173000Y-126900000D02*
G01*
X61175440Y-126924776D01*
X61182667Y-126948601D01*
X61194403Y-126970557D01*
X61210197Y-126989803D01*
X61229443Y-127005597D01*
X61251399Y-127017333D01*
X61275224Y-127024560D01*
X61300000Y-127027000D01*
X62173000Y-127027000D01*
X62173000Y-128207418D01*
X60127000Y-128207418D01*
X60127000Y-126700000D01*
X60124560Y-126675224D01*
X60117333Y-126651399D01*
X60105597Y-126629443D01*
X60089803Y-126610197D01*
X60070557Y-126594403D01*
X60048601Y-126582667D01*
X60024776Y-126575440D01*
X60000000Y-126573000D01*
X57827000Y-126573000D01*
X57827000Y-125627000D01*
X59500000Y-125627000D01*
X59524776Y-125624560D01*
X59548601Y-125617333D01*
X59570557Y-125605597D01*
X59589803Y-125589803D01*
X59605597Y-125570557D01*
X59617333Y-125548601D01*
X59624560Y-125524776D01*
X59627000Y-125500000D01*
X59627000Y-124827000D01*
X61173000Y-124827000D01*
X61173000Y-126900000D01*
G37*
%TD.AperFunction*%
%TD*%
D28*
%TO.N,GND*%
X62973000Y-126173000D02*
X62227000Y-126173000D01*
X62227000Y-124900000D01*
X62224560Y-124875224D01*
X62217333Y-124851399D01*
X62205597Y-124829443D01*
X62189803Y-124810197D01*
X62170557Y-124794403D01*
X62148601Y-124782667D01*
X62124776Y-124775440D01*
X62100000Y-124773000D01*
X61927000Y-124773000D01*
X61927000Y-124327000D01*
X62973000Y-124327000D01*
X62973000Y-126173000D01*
%TA.AperFunction,Conductor*%
D38*
G36*
X62973000Y-126173000D02*
G01*
X62227000Y-126173000D01*
X62227000Y-124900000D01*
X62224560Y-124875224D01*
X62217333Y-124851399D01*
X62205597Y-124829443D01*
X62189803Y-124810197D01*
X62170557Y-124794403D01*
X62148601Y-124782667D01*
X62124776Y-124775440D01*
X62100000Y-124773000D01*
X61927000Y-124773000D01*
X61927000Y-124327000D01*
X62973000Y-124327000D01*
X62973000Y-126173000D01*
G37*
%TD.AperFunction*%
%TD*%
D28*
%TO.N,+BATT*%
X45673000Y-135400000D02*
X45675440Y-135424776D01*
X45682667Y-135448601D01*
X45694403Y-135470557D01*
X45710197Y-135489803D01*
X45729443Y-135505597D01*
X45755407Y-135518914D01*
X46555407Y-135818914D01*
X46579463Y-135825329D01*
X46600000Y-135827000D01*
X49000000Y-135827000D01*
X49024776Y-135824560D01*
X49048601Y-135817333D01*
X49070557Y-135805597D01*
X49084374Y-135794921D01*
X49900000Y-135069920D01*
X50591154Y-135684279D01*
X48762352Y-136873000D01*
X46000000Y-136873000D01*
X45975224Y-136875440D01*
X45951399Y-136882667D01*
X45929443Y-136894403D01*
X45915626Y-136905079D01*
X45501715Y-137273000D01*
X44373320Y-137273000D01*
X44326945Y-135696266D01*
X44323777Y-135671572D01*
X44315853Y-135647971D01*
X44297564Y-135618697D01*
X43827000Y-135054020D01*
X43827000Y-133927000D01*
X45673000Y-133927000D01*
X45673000Y-135400000D01*
%TA.AperFunction,Conductor*%
D38*
G36*
X45673000Y-135400000D02*
G01*
X45675440Y-135424776D01*
X45682667Y-135448601D01*
X45694403Y-135470557D01*
X45710197Y-135489803D01*
X45729443Y-135505597D01*
X45755407Y-135518914D01*
X46555407Y-135818914D01*
X46579463Y-135825329D01*
X46600000Y-135827000D01*
X49000000Y-135827000D01*
X49024776Y-135824560D01*
X49048601Y-135817333D01*
X49070557Y-135805597D01*
X49084374Y-135794921D01*
X49900000Y-135069920D01*
X50591154Y-135684279D01*
X48762352Y-136873000D01*
X46000000Y-136873000D01*
X45975224Y-136875440D01*
X45951399Y-136882667D01*
X45929443Y-136894403D01*
X45915626Y-136905079D01*
X45501715Y-137273000D01*
X44373320Y-137273000D01*
X44326945Y-135696266D01*
X44323777Y-135671572D01*
X44315853Y-135647971D01*
X44297564Y-135618697D01*
X43827000Y-135054020D01*
X43827000Y-133927000D01*
X45673000Y-133927000D01*
X45673000Y-135400000D01*
G37*
%TD.AperFunction*%
%TD*%
D28*
%TO.N,GND*%
X48773000Y-134973000D02*
X46727000Y-134973000D01*
X46727000Y-134027000D01*
X48773000Y-134027000D01*
X48773000Y-134973000D01*
%TA.AperFunction,Conductor*%
D38*
G36*
X48773000Y-134973000D02*
G01*
X46727000Y-134973000D01*
X46727000Y-134027000D01*
X48773000Y-134027000D01*
X48773000Y-134973000D01*
G37*
%TD.AperFunction*%
%TD*%
D28*
%TO.N,GND*%
X43273000Y-137173000D02*
X41427000Y-137173000D01*
X41427000Y-135827000D01*
X43273000Y-135827000D01*
X43273000Y-137173000D01*
%TA.AperFunction,Conductor*%
D38*
G36*
X43273000Y-137173000D02*
G01*
X41427000Y-137173000D01*
X41427000Y-135827000D01*
X43273000Y-135827000D01*
X43273000Y-137173000D01*
G37*
%TD.AperFunction*%
%TD*%
D28*
%TO.N,+3V3*%
X45573000Y-130773000D02*
X43827000Y-130773000D01*
X43827000Y-130027000D01*
X45573000Y-130027000D01*
X45573000Y-130773000D01*
%TA.AperFunction,Conductor*%
D38*
G36*
X45573000Y-130773000D02*
G01*
X43827000Y-130773000D01*
X43827000Y-130027000D01*
X45573000Y-130027000D01*
X45573000Y-130773000D01*
G37*
%TD.AperFunction*%
%TD*%
D28*
%TO.N,GND*%
X61973000Y-130773000D02*
X59900000Y-130773000D01*
X59875224Y-130775440D01*
X59851399Y-130782667D01*
X59829443Y-130794403D01*
X59818697Y-130802436D01*
X59254020Y-131273000D01*
X57800000Y-131273000D01*
X57775224Y-131275440D01*
X57751399Y-131282667D01*
X57729443Y-131294403D01*
X57710197Y-131310197D01*
X57247394Y-131773000D01*
X57127000Y-131773000D01*
X57127000Y-130713670D01*
X57907032Y-130627000D01*
X61973000Y-130627000D01*
X61973000Y-130773000D01*
%TA.AperFunction,Conductor*%
D38*
G36*
X61973000Y-130773000D02*
G01*
X59900000Y-130773000D01*
X59875224Y-130775440D01*
X59851399Y-130782667D01*
X59829443Y-130794403D01*
X59818697Y-130802436D01*
X59254020Y-131273000D01*
X57800000Y-131273000D01*
X57775224Y-131275440D01*
X57751399Y-131282667D01*
X57729443Y-131294403D01*
X57710197Y-131310197D01*
X57247394Y-131773000D01*
X57127000Y-131773000D01*
X57127000Y-130713670D01*
X57907032Y-130627000D01*
X61973000Y-130627000D01*
X61973000Y-130773000D01*
G37*
%TD.AperFunction*%
%TD*%
D28*
%TO.N,+3V3*%
X60985066Y-132073000D02*
X60100000Y-132073000D01*
X60075224Y-132075440D01*
X60051399Y-132082667D01*
X60023800Y-132098400D01*
X59223800Y-132698400D01*
X59205443Y-132715218D01*
X59190720Y-132735294D01*
X59180196Y-132757857D01*
X59174276Y-132782039D01*
X59173000Y-132800000D01*
X59173000Y-133273000D01*
X57827000Y-133273000D01*
X57827000Y-132427000D01*
X58900000Y-132427000D01*
X58924776Y-132424560D01*
X58948601Y-132417333D01*
X58970557Y-132405597D01*
X58985817Y-132393619D01*
X60149401Y-131327000D01*
X61059666Y-131327000D01*
X60985066Y-132073000D01*
%TA.AperFunction,Conductor*%
D38*
G36*
X60985066Y-132073000D02*
G01*
X60100000Y-132073000D01*
X60075224Y-132075440D01*
X60051399Y-132082667D01*
X60023800Y-132098400D01*
X59223800Y-132698400D01*
X59205443Y-132715218D01*
X59190720Y-132735294D01*
X59180196Y-132757857D01*
X59174276Y-132782039D01*
X59173000Y-132800000D01*
X59173000Y-133273000D01*
X57827000Y-133273000D01*
X57827000Y-132427000D01*
X58900000Y-132427000D01*
X58924776Y-132424560D01*
X58948601Y-132417333D01*
X58970557Y-132405597D01*
X58985817Y-132393619D01*
X60149401Y-131327000D01*
X61059666Y-131327000D01*
X60985066Y-132073000D01*
G37*
%TD.AperFunction*%
%TD*%
D28*
%TO.N,GND*%
X46838323Y-131811018D02*
X46861167Y-131820917D01*
X46885503Y-131826170D01*
X46900000Y-131827000D01*
X48173000Y-131827000D01*
X48173000Y-132673000D01*
X46627000Y-132673000D01*
X46627000Y-132000000D01*
X46624560Y-131975224D01*
X46617333Y-131951399D01*
X46605597Y-131929443D01*
X46589803Y-131910197D01*
X46563010Y-131889733D01*
X46012832Y-131575346D01*
X46007343Y-131568657D01*
X45957550Y-131527794D01*
X45900743Y-131497430D01*
X45839103Y-131478732D01*
X45834821Y-131478310D01*
X45816016Y-131474014D01*
X45800000Y-131473000D01*
X45780909Y-131473000D01*
X45775000Y-131472418D01*
X43827000Y-131472418D01*
X43827000Y-131327000D01*
X45967091Y-131327000D01*
X46838323Y-131811018D01*
%TA.AperFunction,Conductor*%
D38*
G36*
X46838323Y-131811018D02*
G01*
X46861167Y-131820917D01*
X46885503Y-131826170D01*
X46900000Y-131827000D01*
X48173000Y-131827000D01*
X48173000Y-132673000D01*
X46627000Y-132673000D01*
X46627000Y-132000000D01*
X46624560Y-131975224D01*
X46617333Y-131951399D01*
X46605597Y-131929443D01*
X46589803Y-131910197D01*
X46563010Y-131889733D01*
X46012832Y-131575346D01*
X46007343Y-131568657D01*
X45957550Y-131527794D01*
X45900743Y-131497430D01*
X45839103Y-131478732D01*
X45834821Y-131478310D01*
X45816016Y-131474014D01*
X45800000Y-131473000D01*
X45780909Y-131473000D01*
X45775000Y-131472418D01*
X43827000Y-131472418D01*
X43827000Y-131327000D01*
X45967091Y-131327000D01*
X46838323Y-131811018D01*
G37*
%TD.AperFunction*%
%TD*%
D28*
%TO.N,GND*%
X48773000Y-132673000D02*
X46727000Y-132673000D01*
X46727000Y-131827000D01*
X48773000Y-131827000D01*
X48773000Y-132673000D01*
%TA.AperFunction,Conductor*%
D38*
G36*
X48773000Y-132673000D02*
G01*
X46727000Y-132673000D01*
X46727000Y-131827000D01*
X48773000Y-131827000D01*
X48773000Y-132673000D01*
G37*
%TD.AperFunction*%
%TD*%
D28*
%TO.N,ML_A02*%
X38123000Y-130773000D02*
X36377000Y-130773000D01*
X36377000Y-130027000D01*
X38123000Y-130027000D01*
X38123000Y-130773000D01*
%TA.AperFunction,Conductor*%
D38*
G36*
X38123000Y-130773000D02*
G01*
X36377000Y-130773000D01*
X36377000Y-130027000D01*
X38123000Y-130027000D01*
X38123000Y-130773000D01*
G37*
%TD.AperFunction*%
%TD*%
D28*
%TO.N,ML_B02*%
X38123000Y-132122418D02*
X37159211Y-132122418D01*
X37148000Y-132121314D01*
X37136790Y-132122418D01*
X36377000Y-132122418D01*
X36377000Y-131279582D01*
X38123000Y-131279582D01*
X38123000Y-132122418D01*
%TA.AperFunction,Conductor*%
D38*
G36*
X38123000Y-132122418D02*
G01*
X37159211Y-132122418D01*
X37148000Y-132121314D01*
X37136790Y-132122418D01*
X36377000Y-132122418D01*
X36377000Y-131279582D01*
X38123000Y-131279582D01*
X38123000Y-132122418D01*
G37*
%TD.AperFunction*%
%TD*%
D28*
%TO.N,ML_B01*%
X38123000Y-134723000D02*
X36377000Y-134723000D01*
X36377000Y-133879582D01*
X38123000Y-133879582D01*
X38123000Y-134723000D01*
%TA.AperFunction,Conductor*%
D38*
G36*
X38123000Y-134723000D02*
G01*
X36377000Y-134723000D01*
X36377000Y-133879582D01*
X38123000Y-133879582D01*
X38123000Y-134723000D01*
G37*
%TD.AperFunction*%
%TD*%
D28*
%TO.N,ML_A01*%
X38123000Y-128222418D02*
X36377000Y-128222418D01*
X36377000Y-127377000D01*
X38123000Y-127377000D01*
X38123000Y-128222418D01*
%TA.AperFunction,Conductor*%
D38*
G36*
X38123000Y-128222418D02*
G01*
X36377000Y-128222418D01*
X36377000Y-127377000D01*
X38123000Y-127377000D01*
X38123000Y-128222418D01*
G37*
%TD.AperFunction*%
%TD*%
D28*
%TO.N,GND*%
X56173000Y-113273000D02*
X53527000Y-113273000D01*
X53527000Y-112327000D01*
X54500000Y-112327000D01*
X54524776Y-112324560D01*
X54548601Y-112317333D01*
X54570557Y-112305597D01*
X54589803Y-112289803D01*
X55289803Y-111589803D01*
X55305597Y-111570557D01*
X55317333Y-111548601D01*
X55324560Y-111524776D01*
X55327000Y-111500000D01*
X55327000Y-109227000D01*
X56173000Y-109227000D01*
X56173000Y-113273000D01*
%TA.AperFunction,Conductor*%
D38*
G36*
X56173000Y-113273000D02*
G01*
X53527000Y-113273000D01*
X53527000Y-112327000D01*
X54500000Y-112327000D01*
X54524776Y-112324560D01*
X54548601Y-112317333D01*
X54570557Y-112305597D01*
X54589803Y-112289803D01*
X55289803Y-111589803D01*
X55305597Y-111570557D01*
X55317333Y-111548601D01*
X55324560Y-111524776D01*
X55327000Y-111500000D01*
X55327000Y-109227000D01*
X56173000Y-109227000D01*
X56173000Y-113273000D01*
G37*
%TD.AperFunction*%
%TD*%
D28*
%TO.N,GND*%
X53393000Y-107173000D02*
X51047000Y-107173000D01*
X51047000Y-103547000D01*
X53393000Y-103547000D01*
X53393000Y-107173000D01*
%TA.AperFunction,Conductor*%
D38*
G36*
X53393000Y-107173000D02*
G01*
X51047000Y-107173000D01*
X51047000Y-103547000D01*
X53393000Y-103547000D01*
X53393000Y-107173000D01*
G37*
%TD.AperFunction*%
%TD*%
M02*
