%TF.GenerationSoftware,KiCad,Pcbnew,5.1.10*%
%TF.CreationDate,2021-08-20T07:55:10+02:00*%
%TF.ProjectId,nsumo,6e73756d-6f2e-46b6-9963-61645f706362,rev?*%
%TF.SameCoordinates,Original*%
%TF.FileFunction,Soldermask,Bot*%
%TF.FilePolarity,Negative*%
%FSLAX46Y46*%
G04 Gerber Fmt 4.6, Leading zero omitted, Abs format (unit mm)*
G04 Created by KiCad (PCBNEW 5.1.10) date 2021-08-20 07:55:10*
%MOMM*%
%LPD*%
G01*
G04 APERTURE LIST*
%ADD10C,2.200000*%
%ADD11C,1.448000*%
%ADD12O,1.800000X1.800000*%
%ADD13O,1.400000X0.900000*%
%ADD14O,0.900000X1.400000*%
%ADD15C,0.800000*%
%ADD16C,4.500000*%
%ADD17O,1.850000X1.300000*%
%ADD18C,1.900000*%
G04 APERTURE END LIST*
D10*
%TO.C,J17*%
X31900000Y-129440000D03*
G36*
G01*
X30850000Y-125800000D02*
X32950000Y-125800000D01*
G75*
G02*
X33000000Y-125850000I0J-50000D01*
G01*
X33000000Y-127950000D01*
G75*
G02*
X32950000Y-128000000I-50000J0D01*
G01*
X30850000Y-128000000D01*
G75*
G02*
X30800000Y-127950000I0J50000D01*
G01*
X30800000Y-125850000D01*
G75*
G02*
X30850000Y-125800000I50000J0D01*
G01*
G37*
%TD*%
%TO.C,J16*%
X31900000Y-136140000D03*
G36*
G01*
X30850000Y-132500000D02*
X32950000Y-132500000D01*
G75*
G02*
X33000000Y-132550000I0J-50000D01*
G01*
X33000000Y-134650000D01*
G75*
G02*
X32950000Y-134700000I-50000J0D01*
G01*
X30850000Y-134700000D01*
G75*
G02*
X30800000Y-134650000I0J50000D01*
G01*
X30800000Y-132550000D01*
G75*
G02*
X30850000Y-132500000I50000J0D01*
G01*
G37*
%TD*%
D11*
%TO.C,REF\u002A\u002A*%
X34500000Y-143500000D03*
%TD*%
%TO.C,REF\u002A\u002A*%
X34500000Y-81500000D03*
%TD*%
%TO.C,REF\u002A\u002A*%
X71500000Y-81500000D03*
%TD*%
D12*
%TO.C,J13*%
X60260000Y-98400000D03*
X62800000Y-98400000D03*
G36*
G01*
X64490000Y-97500000D02*
X66190000Y-97500000D01*
G75*
G02*
X66240000Y-97550000I0J-50000D01*
G01*
X66240000Y-99250000D01*
G75*
G02*
X66190000Y-99300000I-50000J0D01*
G01*
X64490000Y-99300000D01*
G75*
G02*
X64440000Y-99250000I0J50000D01*
G01*
X64440000Y-97550000D01*
G75*
G02*
X64490000Y-97500000I50000J0D01*
G01*
G37*
%TD*%
D13*
%TO.C,J1*%
X33200000Y-99900000D03*
X33200000Y-98650000D03*
X33200000Y-97400000D03*
X33200000Y-96150000D03*
G36*
G01*
X32725000Y-94450000D02*
X33675000Y-94450000D01*
G75*
G02*
X33900000Y-94675000I0J-225000D01*
G01*
X33900000Y-95125000D01*
G75*
G02*
X33675000Y-95350000I-225000J0D01*
G01*
X32725000Y-95350000D01*
G75*
G02*
X32500000Y-95125000I0J225000D01*
G01*
X32500000Y-94675000D01*
G75*
G02*
X32725000Y-94450000I225000J0D01*
G01*
G37*
%TD*%
D14*
%TO.C,J4*%
X39950000Y-85200000D03*
X41200000Y-85200000D03*
X42450000Y-85200000D03*
X43700000Y-85200000D03*
G36*
G01*
X45400000Y-84725000D02*
X45400000Y-85675000D01*
G75*
G02*
X45175000Y-85900000I-225000J0D01*
G01*
X44725000Y-85900000D01*
G75*
G02*
X44500000Y-85675000I0J225000D01*
G01*
X44500000Y-84725000D01*
G75*
G02*
X44725000Y-84500000I225000J0D01*
G01*
X45175000Y-84500000D01*
G75*
G02*
X45400000Y-84725000I0J-225000D01*
G01*
G37*
%TD*%
%TO.C,J2*%
X49850000Y-85200000D03*
X51100000Y-85200000D03*
X52350000Y-85200000D03*
X53600000Y-85200000D03*
X54850000Y-85200000D03*
G36*
G01*
X56550000Y-84725000D02*
X56550000Y-85675000D01*
G75*
G02*
X56325000Y-85900000I-225000J0D01*
G01*
X55875000Y-85900000D01*
G75*
G02*
X55650000Y-85675000I0J225000D01*
G01*
X55650000Y-84725000D01*
G75*
G02*
X55875000Y-84500000I225000J0D01*
G01*
X56325000Y-84500000D01*
G75*
G02*
X56550000Y-84725000I0J-225000D01*
G01*
G37*
%TD*%
D15*
%TO.C,H4*%
X32166726Y-81833274D03*
X31000000Y-81350000D03*
X29833274Y-81833274D03*
X29350000Y-83000000D03*
X29833274Y-84166726D03*
X31000000Y-84650000D03*
X32166726Y-84166726D03*
X32650000Y-83000000D03*
D16*
X31000000Y-83000000D03*
%TD*%
D15*
%TO.C,H3*%
X76166726Y-81833274D03*
X75000000Y-81350000D03*
X73833274Y-81833274D03*
X73350000Y-83000000D03*
X73833274Y-84166726D03*
X75000000Y-84650000D03*
X76166726Y-84166726D03*
X76650000Y-83000000D03*
D16*
X75000000Y-83000000D03*
%TD*%
D15*
%TO.C,H2*%
X32166726Y-140833274D03*
X31000000Y-140350000D03*
X29833274Y-140833274D03*
X29350000Y-142000000D03*
X29833274Y-143166726D03*
X31000000Y-143650000D03*
X32166726Y-143166726D03*
X32650000Y-142000000D03*
D16*
X31000000Y-142000000D03*
%TD*%
D15*
%TO.C,H1*%
X76166726Y-140833274D03*
X75000000Y-140350000D03*
X73833274Y-140833274D03*
X73350000Y-142000000D03*
X73833274Y-143166726D03*
X75000000Y-143650000D03*
X76166726Y-143166726D03*
X76650000Y-142000000D03*
D16*
X75000000Y-142000000D03*
%TD*%
D17*
%TO.C,J5*%
X71000000Y-105300000D03*
G36*
G01*
X71654168Y-107950000D02*
X70345832Y-107950000D01*
G75*
G02*
X70075000Y-107679168I0J270832D01*
G01*
X70075000Y-106920832D01*
G75*
G02*
X70345832Y-106650000I270832J0D01*
G01*
X71654168Y-106650000D01*
G75*
G02*
X71925000Y-106920832I0J-270832D01*
G01*
X71925000Y-107679168D01*
G75*
G02*
X71654168Y-107950000I-270832J0D01*
G01*
G37*
%TD*%
%TO.C,J3*%
X71000000Y-112600000D03*
G36*
G01*
X71654168Y-115250000D02*
X70345832Y-115250000D01*
G75*
G02*
X70075000Y-114979168I0J270832D01*
G01*
X70075000Y-114220832D01*
G75*
G02*
X70345832Y-113950000I270832J0D01*
G01*
X71654168Y-113950000D01*
G75*
G02*
X71925000Y-114220832I0J-270832D01*
G01*
X71925000Y-114979168D01*
G75*
G02*
X71654168Y-115250000I-270832J0D01*
G01*
G37*
%TD*%
D13*
%TO.C,J9*%
X72800000Y-95200000D03*
X72800000Y-96450000D03*
X72800000Y-97700000D03*
X72800000Y-98950000D03*
G36*
G01*
X73275000Y-100650000D02*
X72325000Y-100650000D01*
G75*
G02*
X72100000Y-100425000I0J225000D01*
G01*
X72100000Y-99975000D01*
G75*
G02*
X72325000Y-99750000I225000J0D01*
G01*
X73275000Y-99750000D01*
G75*
G02*
X73500000Y-99975000I0J-225000D01*
G01*
X73500000Y-100425000D01*
G75*
G02*
X73275000Y-100650000I-225000J0D01*
G01*
G37*
%TD*%
D14*
%TO.C,J7*%
X61000000Y-85200000D03*
X62250000Y-85200000D03*
X63500000Y-85200000D03*
X64750000Y-85200000D03*
G36*
G01*
X66450000Y-84725000D02*
X66450000Y-85675000D01*
G75*
G02*
X66225000Y-85900000I-225000J0D01*
G01*
X65775000Y-85900000D01*
G75*
G02*
X65550000Y-85675000I0J225000D01*
G01*
X65550000Y-84725000D01*
G75*
G02*
X65775000Y-84500000I225000J0D01*
G01*
X66225000Y-84500000D01*
G75*
G02*
X66450000Y-84725000I0J-225000D01*
G01*
G37*
%TD*%
D12*
%TO.C,J6*%
X32940000Y-103800000D03*
G36*
G01*
X31250000Y-104700000D02*
X29550000Y-104700000D01*
G75*
G02*
X29500000Y-104650000I0J50000D01*
G01*
X29500000Y-102950000D01*
G75*
G02*
X29550000Y-102900000I50000J0D01*
G01*
X31250000Y-102900000D01*
G75*
G02*
X31300000Y-102950000I0J-50000D01*
G01*
X31300000Y-104650000D01*
G75*
G02*
X31250000Y-104700000I-50000J0D01*
G01*
G37*
%TD*%
%TO.C,J12*%
X53940000Y-122400000D03*
G36*
G01*
X52250000Y-123300000D02*
X50550000Y-123300000D01*
G75*
G02*
X50500000Y-123250000I0J50000D01*
G01*
X50500000Y-121550000D01*
G75*
G02*
X50550000Y-121500000I50000J0D01*
G01*
X52250000Y-121500000D01*
G75*
G02*
X52300000Y-121550000I0J-50000D01*
G01*
X52300000Y-123250000D01*
G75*
G02*
X52250000Y-123300000I-50000J0D01*
G01*
G37*
%TD*%
%TO.C,J11*%
X46600000Y-114600000D03*
X46600000Y-117140000D03*
G36*
G01*
X47500000Y-118830000D02*
X47500000Y-120530000D01*
G75*
G02*
X47450000Y-120580000I-50000J0D01*
G01*
X45750000Y-120580000D01*
G75*
G02*
X45700000Y-120530000I0J50000D01*
G01*
X45700000Y-118830000D01*
G75*
G02*
X45750000Y-118780000I50000J0D01*
G01*
X47450000Y-118780000D01*
G75*
G02*
X47500000Y-118830000I0J-50000D01*
G01*
G37*
%TD*%
%TO.C,J8*%
X31960000Y-122800000D03*
G36*
G01*
X33650000Y-121900000D02*
X35350000Y-121900000D01*
G75*
G02*
X35400000Y-121950000I0J-50000D01*
G01*
X35400000Y-123650000D01*
G75*
G02*
X35350000Y-123700000I-50000J0D01*
G01*
X33650000Y-123700000D01*
G75*
G02*
X33600000Y-123650000I0J50000D01*
G01*
X33600000Y-121950000D01*
G75*
G02*
X33650000Y-121900000I50000J0D01*
G01*
G37*
%TD*%
%TO.C,J10*%
X41200000Y-107000000D03*
G36*
G01*
X42100000Y-108690000D02*
X42100000Y-110390000D01*
G75*
G02*
X42050000Y-110440000I-50000J0D01*
G01*
X40350000Y-110440000D01*
G75*
G02*
X40300000Y-110390000I0J50000D01*
G01*
X40300000Y-108690000D01*
G75*
G02*
X40350000Y-108640000I50000J0D01*
G01*
X42050000Y-108640000D01*
G75*
G02*
X42100000Y-108690000I0J-50000D01*
G01*
G37*
%TD*%
%TO.C,SW2*%
X75300000Y-121940000D03*
G36*
G01*
X74400000Y-120250000D02*
X74400000Y-118550000D01*
G75*
G02*
X74450000Y-118500000I50000J0D01*
G01*
X76150000Y-118500000D01*
G75*
G02*
X76200000Y-118550000I0J-50000D01*
G01*
X76200000Y-120250000D01*
G75*
G02*
X76150000Y-120300000I-50000J0D01*
G01*
X74450000Y-120300000D01*
G75*
G02*
X74400000Y-120250000I0J50000D01*
G01*
G37*
%TD*%
D18*
%TO.C,U1*%
X43920000Y-102700000D03*
X46460000Y-102700000D03*
G36*
G01*
X49950000Y-102014100D02*
X49950000Y-103385900D01*
G75*
G02*
X49685900Y-103650000I-264100J0D01*
G01*
X48314100Y-103650000D01*
G75*
G02*
X48050000Y-103385900I0J264100D01*
G01*
X48050000Y-102014100D01*
G75*
G02*
X48314100Y-101750000I264100J0D01*
G01*
X49685900Y-101750000D01*
G75*
G02*
X49950000Y-102014100I0J-264100D01*
G01*
G37*
%TD*%
D14*
%TO.C,J22*%
X57700000Y-139800000D03*
X56450000Y-139800000D03*
G36*
G01*
X54750000Y-140275000D02*
X54750000Y-139325000D01*
G75*
G02*
X54975000Y-139100000I225000J0D01*
G01*
X55425000Y-139100000D01*
G75*
G02*
X55650000Y-139325000I0J-225000D01*
G01*
X55650000Y-140275000D01*
G75*
G02*
X55425000Y-140500000I-225000J0D01*
G01*
X54975000Y-140500000D01*
G75*
G02*
X54750000Y-140275000I0J225000D01*
G01*
G37*
%TD*%
D13*
%TO.C,J21*%
X72800000Y-88300000D03*
X72800000Y-89550000D03*
G36*
G01*
X73275000Y-91250000D02*
X72325000Y-91250000D01*
G75*
G02*
X72100000Y-91025000I0J225000D01*
G01*
X72100000Y-90575000D01*
G75*
G02*
X72325000Y-90350000I225000J0D01*
G01*
X73275000Y-90350000D01*
G75*
G02*
X73500000Y-90575000I0J-225000D01*
G01*
X73500000Y-91025000D01*
G75*
G02*
X73275000Y-91250000I-225000J0D01*
G01*
G37*
%TD*%
D14*
%TO.C,J20*%
X50700000Y-139800000D03*
X49450000Y-139800000D03*
G36*
G01*
X47750000Y-140275000D02*
X47750000Y-139325000D01*
G75*
G02*
X47975000Y-139100000I225000J0D01*
G01*
X48425000Y-139100000D01*
G75*
G02*
X48650000Y-139325000I0J-225000D01*
G01*
X48650000Y-140275000D01*
G75*
G02*
X48425000Y-140500000I-225000J0D01*
G01*
X47975000Y-140500000D01*
G75*
G02*
X47750000Y-140275000I0J225000D01*
G01*
G37*
%TD*%
D13*
%TO.C,J19*%
X33200000Y-90700000D03*
X33200000Y-89450000D03*
G36*
G01*
X32725000Y-87750000D02*
X33675000Y-87750000D01*
G75*
G02*
X33900000Y-87975000I0J-225000D01*
G01*
X33900000Y-88425000D01*
G75*
G02*
X33675000Y-88650000I-225000J0D01*
G01*
X32725000Y-88650000D01*
G75*
G02*
X32500000Y-88425000I0J225000D01*
G01*
X32500000Y-87975000D01*
G75*
G02*
X32725000Y-87750000I225000J0D01*
G01*
G37*
%TD*%
D10*
%TO.C,J15*%
X74100000Y-133223000D03*
G36*
G01*
X75150000Y-136863000D02*
X73050000Y-136863000D01*
G75*
G02*
X73000000Y-136813000I0J50000D01*
G01*
X73000000Y-134713000D01*
G75*
G02*
X73050000Y-134663000I50000J0D01*
G01*
X75150000Y-134663000D01*
G75*
G02*
X75200000Y-134713000I0J-50000D01*
G01*
X75200000Y-136813000D01*
G75*
G02*
X75150000Y-136863000I-50000J0D01*
G01*
G37*
%TD*%
%TO.C,J14*%
X74100000Y-126500000D03*
G36*
G01*
X75150000Y-130140000D02*
X73050000Y-130140000D01*
G75*
G02*
X73000000Y-130090000I0J50000D01*
G01*
X73000000Y-127990000D01*
G75*
G02*
X73050000Y-127940000I50000J0D01*
G01*
X75150000Y-127940000D01*
G75*
G02*
X75200000Y-127990000I0J-50000D01*
G01*
X75200000Y-130090000D01*
G75*
G02*
X75150000Y-130140000I-50000J0D01*
G01*
G37*
%TD*%
M02*
