%TF.GenerationSoftware,KiCad,Pcbnew,5.1.10*%
%TF.CreationDate,2021-08-20T07:55:10+02:00*%
%TF.ProjectId,nsumo,6e73756d-6f2e-46b6-9963-61645f706362,rev?*%
%TF.SameCoordinates,Original*%
%TF.FileFunction,Paste,Top*%
%TF.FilePolarity,Positive*%
%FSLAX46Y46*%
G04 Gerber Fmt 4.6, Leading zero omitted, Abs format (unit mm)*
G04 Created by KiCad (PCBNEW 5.1.10) date 2021-08-20 07:55:10*
%MOMM*%
%LPD*%
G01*
G04 APERTURE LIST*
%ADD10R,2.050000X0.450000*%
%ADD11R,1.500000X2.000000*%
%ADD12R,3.800000X2.000000*%
%ADD13R,1.550000X1.300000*%
%ADD14R,1.220000X0.650000*%
%ADD15R,2.500000X1.900000*%
%ADD16R,0.900000X1.200000*%
G04 APERTURE END LIST*
%TO.C,C15*%
G36*
G01*
X67125000Y-106750000D02*
X68075000Y-106750000D01*
G75*
G02*
X68325000Y-107000000I0J-250000D01*
G01*
X68325000Y-107500000D01*
G75*
G02*
X68075000Y-107750000I-250000J0D01*
G01*
X67125000Y-107750000D01*
G75*
G02*
X66875000Y-107500000I0J250000D01*
G01*
X66875000Y-107000000D01*
G75*
G02*
X67125000Y-106750000I250000J0D01*
G01*
G37*
G36*
G01*
X67125000Y-104850000D02*
X68075000Y-104850000D01*
G75*
G02*
X68325000Y-105100000I0J-250000D01*
G01*
X68325000Y-105600000D01*
G75*
G02*
X68075000Y-105850000I-250000J0D01*
G01*
X67125000Y-105850000D01*
G75*
G02*
X66875000Y-105600000I0J250000D01*
G01*
X66875000Y-105100000D01*
G75*
G02*
X67125000Y-104850000I250000J0D01*
G01*
G37*
%TD*%
%TO.C,R16*%
G36*
G01*
X63349998Y-138675000D02*
X64250002Y-138675000D01*
G75*
G02*
X64500000Y-138924998I0J-249998D01*
G01*
X64500000Y-139450002D01*
G75*
G02*
X64250002Y-139700000I-249998J0D01*
G01*
X63349998Y-139700000D01*
G75*
G02*
X63100000Y-139450002I0J249998D01*
G01*
X63100000Y-138924998D01*
G75*
G02*
X63349998Y-138675000I249998J0D01*
G01*
G37*
G36*
G01*
X63349998Y-140500000D02*
X64250002Y-140500000D01*
G75*
G02*
X64500000Y-140749998I0J-249998D01*
G01*
X64500000Y-141275002D01*
G75*
G02*
X64250002Y-141525000I-249998J0D01*
G01*
X63349998Y-141525000D01*
G75*
G02*
X63100000Y-141275002I0J249998D01*
G01*
X63100000Y-140749998D01*
G75*
G02*
X63349998Y-140500000I249998J0D01*
G01*
G37*
%TD*%
%TO.C,R14*%
G36*
G01*
X69612500Y-92049998D02*
X69612500Y-92950002D01*
G75*
G02*
X69362502Y-93200000I-249998J0D01*
G01*
X68837498Y-93200000D01*
G75*
G02*
X68587500Y-92950002I0J249998D01*
G01*
X68587500Y-92049998D01*
G75*
G02*
X68837498Y-91800000I249998J0D01*
G01*
X69362502Y-91800000D01*
G75*
G02*
X69612500Y-92049998I0J-249998D01*
G01*
G37*
G36*
G01*
X67787500Y-92049998D02*
X67787500Y-92950002D01*
G75*
G02*
X67537502Y-93200000I-249998J0D01*
G01*
X67012498Y-93200000D01*
G75*
G02*
X66762500Y-92950002I0J249998D01*
G01*
X66762500Y-92049998D01*
G75*
G02*
X67012498Y-91800000I249998J0D01*
G01*
X67537502Y-91800000D01*
G75*
G02*
X67787500Y-92049998I0J-249998D01*
G01*
G37*
%TD*%
%TO.C,R13*%
G36*
G01*
X41449998Y-138875000D02*
X42350002Y-138875000D01*
G75*
G02*
X42600000Y-139124998I0J-249998D01*
G01*
X42600000Y-139650002D01*
G75*
G02*
X42350002Y-139900000I-249998J0D01*
G01*
X41449998Y-139900000D01*
G75*
G02*
X41200000Y-139650002I0J249998D01*
G01*
X41200000Y-139124998D01*
G75*
G02*
X41449998Y-138875000I249998J0D01*
G01*
G37*
G36*
G01*
X41449998Y-140700000D02*
X42350002Y-140700000D01*
G75*
G02*
X42600000Y-140949998I0J-249998D01*
G01*
X42600000Y-141475002D01*
G75*
G02*
X42350002Y-141725000I-249998J0D01*
G01*
X41449998Y-141725000D01*
G75*
G02*
X41200000Y-141475002I0J249998D01*
G01*
X41200000Y-140949998D01*
G75*
G02*
X41449998Y-140700000I249998J0D01*
G01*
G37*
%TD*%
%TO.C,R11*%
G36*
G01*
X36575000Y-90450002D02*
X36575000Y-89549998D01*
G75*
G02*
X36824998Y-89300000I249998J0D01*
G01*
X37350002Y-89300000D01*
G75*
G02*
X37600000Y-89549998I0J-249998D01*
G01*
X37600000Y-90450002D01*
G75*
G02*
X37350002Y-90700000I-249998J0D01*
G01*
X36824998Y-90700000D01*
G75*
G02*
X36575000Y-90450002I0J249998D01*
G01*
G37*
G36*
G01*
X38400000Y-90450002D02*
X38400000Y-89549998D01*
G75*
G02*
X38649998Y-89300000I249998J0D01*
G01*
X39175002Y-89300000D01*
G75*
G02*
X39425000Y-89549998I0J-249998D01*
G01*
X39425000Y-90450002D01*
G75*
G02*
X39175002Y-90700000I-249998J0D01*
G01*
X38649998Y-90700000D01*
G75*
G02*
X38400000Y-90450002I0J249998D01*
G01*
G37*
%TD*%
%TO.C,D9*%
G36*
G01*
X61743750Y-140650000D02*
X62256250Y-140650000D01*
G75*
G02*
X62475000Y-140868750I0J-218750D01*
G01*
X62475000Y-141306250D01*
G75*
G02*
X62256250Y-141525000I-218750J0D01*
G01*
X61743750Y-141525000D01*
G75*
G02*
X61525000Y-141306250I0J218750D01*
G01*
X61525000Y-140868750D01*
G75*
G02*
X61743750Y-140650000I218750J0D01*
G01*
G37*
G36*
G01*
X61743750Y-139075000D02*
X62256250Y-139075000D01*
G75*
G02*
X62475000Y-139293750I0J-218750D01*
G01*
X62475000Y-139731250D01*
G75*
G02*
X62256250Y-139950000I-218750J0D01*
G01*
X61743750Y-139950000D01*
G75*
G02*
X61525000Y-139731250I0J218750D01*
G01*
X61525000Y-139293750D01*
G75*
G02*
X61743750Y-139075000I218750J0D01*
G01*
G37*
%TD*%
%TO.C,D8*%
G36*
G01*
X67962500Y-90343750D02*
X67962500Y-90856250D01*
G75*
G02*
X67743750Y-91075000I-218750J0D01*
G01*
X67306250Y-91075000D01*
G75*
G02*
X67087500Y-90856250I0J218750D01*
G01*
X67087500Y-90343750D01*
G75*
G02*
X67306250Y-90125000I218750J0D01*
G01*
X67743750Y-90125000D01*
G75*
G02*
X67962500Y-90343750I0J-218750D01*
G01*
G37*
G36*
G01*
X69537500Y-90343750D02*
X69537500Y-90856250D01*
G75*
G02*
X69318750Y-91075000I-218750J0D01*
G01*
X68881250Y-91075000D01*
G75*
G02*
X68662500Y-90856250I0J218750D01*
G01*
X68662500Y-90343750D01*
G75*
G02*
X68881250Y-90125000I218750J0D01*
G01*
X69318750Y-90125000D01*
G75*
G02*
X69537500Y-90343750I0J-218750D01*
G01*
G37*
%TD*%
%TO.C,D7*%
G36*
G01*
X43543750Y-140750000D02*
X44056250Y-140750000D01*
G75*
G02*
X44275000Y-140968750I0J-218750D01*
G01*
X44275000Y-141406250D01*
G75*
G02*
X44056250Y-141625000I-218750J0D01*
G01*
X43543750Y-141625000D01*
G75*
G02*
X43325000Y-141406250I0J218750D01*
G01*
X43325000Y-140968750D01*
G75*
G02*
X43543750Y-140750000I218750J0D01*
G01*
G37*
G36*
G01*
X43543750Y-139175000D02*
X44056250Y-139175000D01*
G75*
G02*
X44275000Y-139393750I0J-218750D01*
G01*
X44275000Y-139831250D01*
G75*
G02*
X44056250Y-140050000I-218750J0D01*
G01*
X43543750Y-140050000D01*
G75*
G02*
X43325000Y-139831250I0J218750D01*
G01*
X43325000Y-139393750D01*
G75*
G02*
X43543750Y-139175000I218750J0D01*
G01*
G37*
%TD*%
%TO.C,D1*%
G36*
G01*
X38237500Y-92156250D02*
X38237500Y-91643750D01*
G75*
G02*
X38456250Y-91425000I218750J0D01*
G01*
X38893750Y-91425000D01*
G75*
G02*
X39112500Y-91643750I0J-218750D01*
G01*
X39112500Y-92156250D01*
G75*
G02*
X38893750Y-92375000I-218750J0D01*
G01*
X38456250Y-92375000D01*
G75*
G02*
X38237500Y-92156250I0J218750D01*
G01*
G37*
G36*
G01*
X36662500Y-92156250D02*
X36662500Y-91643750D01*
G75*
G02*
X36881250Y-91425000I218750J0D01*
G01*
X37318750Y-91425000D01*
G75*
G02*
X37537500Y-91643750I0J-218750D01*
G01*
X37537500Y-92156250D01*
G75*
G02*
X37318750Y-92375000I-218750J0D01*
G01*
X36881250Y-92375000D01*
G75*
G02*
X36662500Y-92156250I0J218750D01*
G01*
G37*
%TD*%
%TO.C,U7*%
G36*
G01*
X71500000Y-119925000D02*
X71500000Y-119625000D01*
G75*
G02*
X71650000Y-119475000I150000J0D01*
G01*
X73000000Y-119475000D01*
G75*
G02*
X73150000Y-119625000I0J-150000D01*
G01*
X73150000Y-119925000D01*
G75*
G02*
X73000000Y-120075000I-150000J0D01*
G01*
X71650000Y-120075000D01*
G75*
G02*
X71500000Y-119925000I0J150000D01*
G01*
G37*
G36*
G01*
X71500000Y-121195000D02*
X71500000Y-120895000D01*
G75*
G02*
X71650000Y-120745000I150000J0D01*
G01*
X73000000Y-120745000D01*
G75*
G02*
X73150000Y-120895000I0J-150000D01*
G01*
X73150000Y-121195000D01*
G75*
G02*
X73000000Y-121345000I-150000J0D01*
G01*
X71650000Y-121345000D01*
G75*
G02*
X71500000Y-121195000I0J150000D01*
G01*
G37*
G36*
G01*
X71500000Y-122465000D02*
X71500000Y-122165000D01*
G75*
G02*
X71650000Y-122015000I150000J0D01*
G01*
X73000000Y-122015000D01*
G75*
G02*
X73150000Y-122165000I0J-150000D01*
G01*
X73150000Y-122465000D01*
G75*
G02*
X73000000Y-122615000I-150000J0D01*
G01*
X71650000Y-122615000D01*
G75*
G02*
X71500000Y-122465000I0J150000D01*
G01*
G37*
G36*
G01*
X71500000Y-123735000D02*
X71500000Y-123435000D01*
G75*
G02*
X71650000Y-123285000I150000J0D01*
G01*
X73000000Y-123285000D01*
G75*
G02*
X73150000Y-123435000I0J-150000D01*
G01*
X73150000Y-123735000D01*
G75*
G02*
X73000000Y-123885000I-150000J0D01*
G01*
X71650000Y-123885000D01*
G75*
G02*
X71500000Y-123735000I0J150000D01*
G01*
G37*
G36*
G01*
X66250000Y-123735000D02*
X66250000Y-123435000D01*
G75*
G02*
X66400000Y-123285000I150000J0D01*
G01*
X67750000Y-123285000D01*
G75*
G02*
X67900000Y-123435000I0J-150000D01*
G01*
X67900000Y-123735000D01*
G75*
G02*
X67750000Y-123885000I-150000J0D01*
G01*
X66400000Y-123885000D01*
G75*
G02*
X66250000Y-123735000I0J150000D01*
G01*
G37*
G36*
G01*
X66250000Y-122465000D02*
X66250000Y-122165000D01*
G75*
G02*
X66400000Y-122015000I150000J0D01*
G01*
X67750000Y-122015000D01*
G75*
G02*
X67900000Y-122165000I0J-150000D01*
G01*
X67900000Y-122465000D01*
G75*
G02*
X67750000Y-122615000I-150000J0D01*
G01*
X66400000Y-122615000D01*
G75*
G02*
X66250000Y-122465000I0J150000D01*
G01*
G37*
G36*
G01*
X66250000Y-121195000D02*
X66250000Y-120895000D01*
G75*
G02*
X66400000Y-120745000I150000J0D01*
G01*
X67750000Y-120745000D01*
G75*
G02*
X67900000Y-120895000I0J-150000D01*
G01*
X67900000Y-121195000D01*
G75*
G02*
X67750000Y-121345000I-150000J0D01*
G01*
X66400000Y-121345000D01*
G75*
G02*
X66250000Y-121195000I0J150000D01*
G01*
G37*
G36*
G01*
X66250000Y-119925000D02*
X66250000Y-119625000D01*
G75*
G02*
X66400000Y-119475000I150000J0D01*
G01*
X67750000Y-119475000D01*
G75*
G02*
X67900000Y-119625000I0J-150000D01*
G01*
X67900000Y-119925000D01*
G75*
G02*
X67750000Y-120075000I-150000J0D01*
G01*
X66400000Y-120075000D01*
G75*
G02*
X66250000Y-119925000I0J150000D01*
G01*
G37*
%TD*%
D10*
%TO.C,U6*%
X44750000Y-127476000D03*
X44750000Y-128126000D03*
X44750000Y-128776000D03*
X44750000Y-129426000D03*
X44750000Y-130076000D03*
X44750000Y-130726000D03*
X44750000Y-131376000D03*
X44750000Y-132026000D03*
X44750000Y-132676000D03*
X44750000Y-133326000D03*
X44750000Y-133976000D03*
X44750000Y-134626000D03*
X37250000Y-134626000D03*
X37250000Y-133976000D03*
X37250000Y-133326000D03*
X37250000Y-132676000D03*
X37250000Y-132026000D03*
X37250000Y-131376000D03*
X37250000Y-130726000D03*
X37250000Y-130076000D03*
X37250000Y-129426000D03*
X37250000Y-128776000D03*
X37250000Y-128126000D03*
X37250000Y-127476000D03*
%TD*%
%TO.C,U3*%
X61150000Y-134611000D03*
X61150000Y-133961000D03*
X61150000Y-133311000D03*
X61150000Y-132661000D03*
X61150000Y-132011000D03*
X61150000Y-131361000D03*
X61150000Y-130711000D03*
X61150000Y-130061000D03*
X61150000Y-129411000D03*
X61150000Y-128761000D03*
X61150000Y-128111000D03*
X61150000Y-127461000D03*
X68650000Y-127461000D03*
X68650000Y-128111000D03*
X68650000Y-128761000D03*
X68650000Y-129411000D03*
X68650000Y-130061000D03*
X68650000Y-130711000D03*
X68650000Y-131361000D03*
X68650000Y-132011000D03*
X68650000Y-132661000D03*
X68650000Y-133311000D03*
X68650000Y-133961000D03*
X68650000Y-134611000D03*
%TD*%
%TO.C,R4*%
G36*
G01*
X46862500Y-98450002D02*
X46862500Y-97549998D01*
G75*
G02*
X47112498Y-97300000I249998J0D01*
G01*
X47637502Y-97300000D01*
G75*
G02*
X47887500Y-97549998I0J-249998D01*
G01*
X47887500Y-98450002D01*
G75*
G02*
X47637502Y-98700000I-249998J0D01*
G01*
X47112498Y-98700000D01*
G75*
G02*
X46862500Y-98450002I0J249998D01*
G01*
G37*
G36*
G01*
X48687500Y-98450002D02*
X48687500Y-97549998D01*
G75*
G02*
X48937498Y-97300000I249998J0D01*
G01*
X49462502Y-97300000D01*
G75*
G02*
X49712500Y-97549998I0J-249998D01*
G01*
X49712500Y-98450002D01*
G75*
G02*
X49462502Y-98700000I-249998J0D01*
G01*
X48937498Y-98700000D01*
G75*
G02*
X48687500Y-98450002I0J249998D01*
G01*
G37*
%TD*%
%TO.C,F2*%
G36*
G01*
X60225000Y-106875000D02*
X58975000Y-106875000D01*
G75*
G02*
X58725000Y-106625000I0J250000D01*
G01*
X58725000Y-105875000D01*
G75*
G02*
X58975000Y-105625000I250000J0D01*
G01*
X60225000Y-105625000D01*
G75*
G02*
X60475000Y-105875000I0J-250000D01*
G01*
X60475000Y-106625000D01*
G75*
G02*
X60225000Y-106875000I-250000J0D01*
G01*
G37*
G36*
G01*
X60225000Y-109675000D02*
X58975000Y-109675000D01*
G75*
G02*
X58725000Y-109425000I0J250000D01*
G01*
X58725000Y-108675000D01*
G75*
G02*
X58975000Y-108425000I250000J0D01*
G01*
X60225000Y-108425000D01*
G75*
G02*
X60475000Y-108675000I0J-250000D01*
G01*
X60475000Y-109425000D01*
G75*
G02*
X60225000Y-109675000I-250000J0D01*
G01*
G37*
%TD*%
%TO.C,F1*%
G36*
G01*
X68525000Y-115825000D02*
X67275000Y-115825000D01*
G75*
G02*
X67025000Y-115575000I0J250000D01*
G01*
X67025000Y-114825000D01*
G75*
G02*
X67275000Y-114575000I250000J0D01*
G01*
X68525000Y-114575000D01*
G75*
G02*
X68775000Y-114825000I0J-250000D01*
G01*
X68775000Y-115575000D01*
G75*
G02*
X68525000Y-115825000I-250000J0D01*
G01*
G37*
G36*
G01*
X68525000Y-118625000D02*
X67275000Y-118625000D01*
G75*
G02*
X67025000Y-118375000I0J250000D01*
G01*
X67025000Y-117625000D01*
G75*
G02*
X67275000Y-117375000I250000J0D01*
G01*
X68525000Y-117375000D01*
G75*
G02*
X68775000Y-117625000I0J-250000D01*
G01*
X68775000Y-118375000D01*
G75*
G02*
X68525000Y-118625000I-250000J0D01*
G01*
G37*
%TD*%
%TO.C,C3*%
G36*
G01*
X50550001Y-107575000D02*
X49249999Y-107575000D01*
G75*
G02*
X49000000Y-107325001I0J249999D01*
G01*
X49000000Y-106674999D01*
G75*
G02*
X49249999Y-106425000I249999J0D01*
G01*
X50550001Y-106425000D01*
G75*
G02*
X50800000Y-106674999I0J-249999D01*
G01*
X50800000Y-107325001D01*
G75*
G02*
X50550001Y-107575000I-249999J0D01*
G01*
G37*
G36*
G01*
X50550001Y-110525000D02*
X49249999Y-110525000D01*
G75*
G02*
X49000000Y-110275001I0J249999D01*
G01*
X49000000Y-109624999D01*
G75*
G02*
X49249999Y-109375000I249999J0D01*
G01*
X50550001Y-109375000D01*
G75*
G02*
X50800000Y-109624999I0J-249999D01*
G01*
X50800000Y-110275001D01*
G75*
G02*
X50550001Y-110525000I-249999J0D01*
G01*
G37*
%TD*%
%TO.C,C14*%
G36*
G01*
X62090000Y-126005000D02*
X62090000Y-125055000D01*
G75*
G02*
X62340000Y-124805000I250000J0D01*
G01*
X62840000Y-124805000D01*
G75*
G02*
X63090000Y-125055000I0J-250000D01*
G01*
X63090000Y-126005000D01*
G75*
G02*
X62840000Y-126255000I-250000J0D01*
G01*
X62340000Y-126255000D01*
G75*
G02*
X62090000Y-126005000I0J250000D01*
G01*
G37*
G36*
G01*
X60190000Y-126005000D02*
X60190000Y-125055000D01*
G75*
G02*
X60440000Y-124805000I250000J0D01*
G01*
X60940000Y-124805000D01*
G75*
G02*
X61190000Y-125055000I0J-250000D01*
G01*
X61190000Y-126005000D01*
G75*
G02*
X60940000Y-126255000I-250000J0D01*
G01*
X60440000Y-126255000D01*
G75*
G02*
X60190000Y-126005000I0J250000D01*
G01*
G37*
%TD*%
%TO.C,C13*%
G36*
G01*
X47875000Y-134950000D02*
X46925000Y-134950000D01*
G75*
G02*
X46675000Y-134700000I0J250000D01*
G01*
X46675000Y-134200000D01*
G75*
G02*
X46925000Y-133950000I250000J0D01*
G01*
X47875000Y-133950000D01*
G75*
G02*
X48125000Y-134200000I0J-250000D01*
G01*
X48125000Y-134700000D01*
G75*
G02*
X47875000Y-134950000I-250000J0D01*
G01*
G37*
G36*
G01*
X47875000Y-136850000D02*
X46925000Y-136850000D01*
G75*
G02*
X46675000Y-136600000I0J250000D01*
G01*
X46675000Y-136100000D01*
G75*
G02*
X46925000Y-135850000I250000J0D01*
G01*
X47875000Y-135850000D01*
G75*
G02*
X48125000Y-136100000I0J-250000D01*
G01*
X48125000Y-136600000D01*
G75*
G02*
X47875000Y-136850000I-250000J0D01*
G01*
G37*
%TD*%
%TO.C,C12*%
G36*
G01*
X58085000Y-127550000D02*
X59035000Y-127550000D01*
G75*
G02*
X59285000Y-127800000I0J-250000D01*
G01*
X59285000Y-128300000D01*
G75*
G02*
X59035000Y-128550000I-250000J0D01*
G01*
X58085000Y-128550000D01*
G75*
G02*
X57835000Y-128300000I0J250000D01*
G01*
X57835000Y-127800000D01*
G75*
G02*
X58085000Y-127550000I250000J0D01*
G01*
G37*
G36*
G01*
X58085000Y-125650000D02*
X59035000Y-125650000D01*
G75*
G02*
X59285000Y-125900000I0J-250000D01*
G01*
X59285000Y-126400000D01*
G75*
G02*
X59035000Y-126650000I-250000J0D01*
G01*
X58085000Y-126650000D01*
G75*
G02*
X57835000Y-126400000I0J250000D01*
G01*
X57835000Y-125900000D01*
G75*
G02*
X58085000Y-125650000I250000J0D01*
G01*
G37*
%TD*%
%TO.C,C11*%
G36*
G01*
X43350000Y-136075000D02*
X43350000Y-137025000D01*
G75*
G02*
X43100000Y-137275000I-250000J0D01*
G01*
X42600000Y-137275000D01*
G75*
G02*
X42350000Y-137025000I0J250000D01*
G01*
X42350000Y-136075000D01*
G75*
G02*
X42600000Y-135825000I250000J0D01*
G01*
X43100000Y-135825000D01*
G75*
G02*
X43350000Y-136075000I0J-250000D01*
G01*
G37*
G36*
G01*
X45250000Y-136075000D02*
X45250000Y-137025000D01*
G75*
G02*
X45000000Y-137275000I-250000J0D01*
G01*
X44500000Y-137275000D01*
G75*
G02*
X44250000Y-137025000I0J250000D01*
G01*
X44250000Y-136075000D01*
G75*
G02*
X44500000Y-135825000I250000J0D01*
G01*
X45000000Y-135825000D01*
G75*
G02*
X45250000Y-136075000I0J-250000D01*
G01*
G37*
%TD*%
%TO.C,C10*%
G36*
G01*
X58995000Y-133350000D02*
X58045000Y-133350000D01*
G75*
G02*
X57795000Y-133100000I0J250000D01*
G01*
X57795000Y-132600000D01*
G75*
G02*
X58045000Y-132350000I250000J0D01*
G01*
X58995000Y-132350000D01*
G75*
G02*
X59245000Y-132600000I0J-250000D01*
G01*
X59245000Y-133100000D01*
G75*
G02*
X58995000Y-133350000I-250000J0D01*
G01*
G37*
G36*
G01*
X58995000Y-131450000D02*
X58045000Y-131450000D01*
G75*
G02*
X57795000Y-131200000I0J250000D01*
G01*
X57795000Y-130700000D01*
G75*
G02*
X58045000Y-130450000I250000J0D01*
G01*
X58995000Y-130450000D01*
G75*
G02*
X59245000Y-130700000I0J-250000D01*
G01*
X59245000Y-131200000D01*
G75*
G02*
X58995000Y-131450000I-250000J0D01*
G01*
G37*
%TD*%
%TO.C,C9*%
G36*
G01*
X46925000Y-131750000D02*
X47875000Y-131750000D01*
G75*
G02*
X48125000Y-132000000I0J-250000D01*
G01*
X48125000Y-132500000D01*
G75*
G02*
X47875000Y-132750000I-250000J0D01*
G01*
X46925000Y-132750000D01*
G75*
G02*
X46675000Y-132500000I0J250000D01*
G01*
X46675000Y-132000000D01*
G75*
G02*
X46925000Y-131750000I250000J0D01*
G01*
G37*
G36*
G01*
X46925000Y-129850000D02*
X47875000Y-129850000D01*
G75*
G02*
X48125000Y-130100000I0J-250000D01*
G01*
X48125000Y-130600000D01*
G75*
G02*
X47875000Y-130850000I-250000J0D01*
G01*
X46925000Y-130850000D01*
G75*
G02*
X46675000Y-130600000I0J250000D01*
G01*
X46675000Y-130100000D01*
G75*
G02*
X46925000Y-129850000I250000J0D01*
G01*
G37*
%TD*%
D11*
%TO.C,U5*%
X52500000Y-107495000D03*
X57100000Y-107495000D03*
X54800000Y-107495000D03*
D12*
X54800000Y-101195000D03*
%TD*%
%TO.C,R9*%
G36*
G01*
X30625002Y-107000000D02*
X29374998Y-107000000D01*
G75*
G02*
X29125000Y-106750002I0J249998D01*
G01*
X29125000Y-106124998D01*
G75*
G02*
X29374998Y-105875000I249998J0D01*
G01*
X30625002Y-105875000D01*
G75*
G02*
X30875000Y-106124998I0J-249998D01*
G01*
X30875000Y-106750002D01*
G75*
G02*
X30625002Y-107000000I-249998J0D01*
G01*
G37*
G36*
G01*
X30625002Y-109925000D02*
X29374998Y-109925000D01*
G75*
G02*
X29125000Y-109675002I0J249998D01*
G01*
X29125000Y-109049998D01*
G75*
G02*
X29374998Y-108800000I249998J0D01*
G01*
X30625002Y-108800000D01*
G75*
G02*
X30875000Y-109049998I0J-249998D01*
G01*
X30875000Y-109675002D01*
G75*
G02*
X30625002Y-109925000I-249998J0D01*
G01*
G37*
%TD*%
%TO.C,R8*%
G36*
G01*
X32925002Y-107000000D02*
X31674998Y-107000000D01*
G75*
G02*
X31425000Y-106750002I0J249998D01*
G01*
X31425000Y-106124998D01*
G75*
G02*
X31674998Y-105875000I249998J0D01*
G01*
X32925002Y-105875000D01*
G75*
G02*
X33175000Y-106124998I0J-249998D01*
G01*
X33175000Y-106750002D01*
G75*
G02*
X32925002Y-107000000I-249998J0D01*
G01*
G37*
G36*
G01*
X32925002Y-109925000D02*
X31674998Y-109925000D01*
G75*
G02*
X31425000Y-109675002I0J249998D01*
G01*
X31425000Y-109049998D01*
G75*
G02*
X31674998Y-108800000I249998J0D01*
G01*
X32925002Y-108800000D01*
G75*
G02*
X33175000Y-109049998I0J-249998D01*
G01*
X33175000Y-109675002D01*
G75*
G02*
X32925002Y-109925000I-249998J0D01*
G01*
G37*
%TD*%
%TO.C,R5*%
G36*
G01*
X57900000Y-123650002D02*
X57900000Y-122749998D01*
G75*
G02*
X58149998Y-122500000I249998J0D01*
G01*
X58675002Y-122500000D01*
G75*
G02*
X58925000Y-122749998I0J-249998D01*
G01*
X58925000Y-123650002D01*
G75*
G02*
X58675002Y-123900000I-249998J0D01*
G01*
X58149998Y-123900000D01*
G75*
G02*
X57900000Y-123650002I0J249998D01*
G01*
G37*
G36*
G01*
X56075000Y-123650002D02*
X56075000Y-122749998D01*
G75*
G02*
X56324998Y-122500000I249998J0D01*
G01*
X56850002Y-122500000D01*
G75*
G02*
X57100000Y-122749998I0J-249998D01*
G01*
X57100000Y-123650002D01*
G75*
G02*
X56850002Y-123900000I-249998J0D01*
G01*
X56324998Y-123900000D01*
G75*
G02*
X56075000Y-123650002I0J249998D01*
G01*
G37*
%TD*%
%TO.C,D5*%
G36*
G01*
X49262500Y-105356250D02*
X49262500Y-104843750D01*
G75*
G02*
X49481250Y-104625000I218750J0D01*
G01*
X49918750Y-104625000D01*
G75*
G02*
X50137500Y-104843750I0J-218750D01*
G01*
X50137500Y-105356250D01*
G75*
G02*
X49918750Y-105575000I-218750J0D01*
G01*
X49481250Y-105575000D01*
G75*
G02*
X49262500Y-105356250I0J218750D01*
G01*
G37*
G36*
G01*
X47687500Y-105356250D02*
X47687500Y-104843750D01*
G75*
G02*
X47906250Y-104625000I218750J0D01*
G01*
X48343750Y-104625000D01*
G75*
G02*
X48562500Y-104843750I0J-218750D01*
G01*
X48562500Y-105356250D01*
G75*
G02*
X48343750Y-105575000I-218750J0D01*
G01*
X47906250Y-105575000D01*
G75*
G02*
X47687500Y-105356250I0J218750D01*
G01*
G37*
%TD*%
D13*
%TO.C,SW1*%
X49650000Y-114950000D03*
X49650000Y-119450000D03*
X57600000Y-119450000D03*
X57600000Y-114950000D03*
%TD*%
D14*
%TO.C,U2*%
X64051000Y-113046000D03*
X64051000Y-113996000D03*
X64051000Y-114946000D03*
X61431000Y-114946000D03*
X61431000Y-113996000D03*
X61431000Y-113046000D03*
%TD*%
%TO.C,R15*%
G36*
G01*
X61987500Y-117250002D02*
X61987500Y-116349998D01*
G75*
G02*
X62237498Y-116100000I249998J0D01*
G01*
X62762502Y-116100000D01*
G75*
G02*
X63012500Y-116349998I0J-249998D01*
G01*
X63012500Y-117250002D01*
G75*
G02*
X62762502Y-117500000I-249998J0D01*
G01*
X62237498Y-117500000D01*
G75*
G02*
X61987500Y-117250002I0J249998D01*
G01*
G37*
G36*
G01*
X60162500Y-117250002D02*
X60162500Y-116349998D01*
G75*
G02*
X60412498Y-116100000I249998J0D01*
G01*
X60937502Y-116100000D01*
G75*
G02*
X61187500Y-116349998I0J-249998D01*
G01*
X61187500Y-117250002D01*
G75*
G02*
X60937502Y-117500000I-249998J0D01*
G01*
X60412498Y-117500000D01*
G75*
G02*
X60162500Y-117250002I0J249998D01*
G01*
G37*
%TD*%
%TO.C,R12*%
G36*
G01*
X58949998Y-112200000D02*
X59850002Y-112200000D01*
G75*
G02*
X60100000Y-112449998I0J-249998D01*
G01*
X60100000Y-112975002D01*
G75*
G02*
X59850002Y-113225000I-249998J0D01*
G01*
X58949998Y-113225000D01*
G75*
G02*
X58700000Y-112975002I0J249998D01*
G01*
X58700000Y-112449998D01*
G75*
G02*
X58949998Y-112200000I249998J0D01*
G01*
G37*
G36*
G01*
X58949998Y-110375000D02*
X59850002Y-110375000D01*
G75*
G02*
X60100000Y-110624998I0J-249998D01*
G01*
X60100000Y-111150002D01*
G75*
G02*
X59850002Y-111400000I-249998J0D01*
G01*
X58949998Y-111400000D01*
G75*
G02*
X58700000Y-111150002I0J249998D01*
G01*
X58700000Y-110624998D01*
G75*
G02*
X58949998Y-110375000I249998J0D01*
G01*
G37*
%TD*%
%TO.C,R3*%
G36*
G01*
X64600000Y-116349998D02*
X64600000Y-117250002D01*
G75*
G02*
X64350002Y-117500000I-249998J0D01*
G01*
X63824998Y-117500000D01*
G75*
G02*
X63575000Y-117250002I0J249998D01*
G01*
X63575000Y-116349998D01*
G75*
G02*
X63824998Y-116100000I249998J0D01*
G01*
X64350002Y-116100000D01*
G75*
G02*
X64600000Y-116349998I0J-249998D01*
G01*
G37*
G36*
G01*
X66425000Y-116349998D02*
X66425000Y-117250002D01*
G75*
G02*
X66175002Y-117500000I-249998J0D01*
G01*
X65649998Y-117500000D01*
G75*
G02*
X65400000Y-117250002I0J249998D01*
G01*
X65400000Y-116349998D01*
G75*
G02*
X65649998Y-116100000I249998J0D01*
G01*
X66175002Y-116100000D01*
G75*
G02*
X66425000Y-116349998I0J-249998D01*
G01*
G37*
%TD*%
D15*
%TO.C,L1*%
X63700000Y-104450000D03*
X63700000Y-108550000D03*
%TD*%
D16*
%TO.C,D4*%
X68000000Y-111000000D03*
X64700000Y-111000000D03*
%TD*%
%TO.C,C4*%
G36*
G01*
X62577000Y-111616000D02*
X62577000Y-110666000D01*
G75*
G02*
X62827000Y-110416000I250000J0D01*
G01*
X63327000Y-110416000D01*
G75*
G02*
X63577000Y-110666000I0J-250000D01*
G01*
X63577000Y-111616000D01*
G75*
G02*
X63327000Y-111866000I-250000J0D01*
G01*
X62827000Y-111866000D01*
G75*
G02*
X62577000Y-111616000I0J250000D01*
G01*
G37*
G36*
G01*
X60677000Y-111616000D02*
X60677000Y-110666000D01*
G75*
G02*
X60927000Y-110416000I250000J0D01*
G01*
X61427000Y-110416000D01*
G75*
G02*
X61677000Y-110666000I0J-250000D01*
G01*
X61677000Y-111616000D01*
G75*
G02*
X61427000Y-111866000I-250000J0D01*
G01*
X60927000Y-111866000D01*
G75*
G02*
X60677000Y-111616000I0J250000D01*
G01*
G37*
%TD*%
%TO.C,C1*%
G36*
G01*
X67281000Y-113775000D02*
X67281000Y-112825000D01*
G75*
G02*
X67531000Y-112575000I250000J0D01*
G01*
X68031000Y-112575000D01*
G75*
G02*
X68281000Y-112825000I0J-250000D01*
G01*
X68281000Y-113775000D01*
G75*
G02*
X68031000Y-114025000I-250000J0D01*
G01*
X67531000Y-114025000D01*
G75*
G02*
X67281000Y-113775000I0J250000D01*
G01*
G37*
G36*
G01*
X65381000Y-113775000D02*
X65381000Y-112825000D01*
G75*
G02*
X65631000Y-112575000I250000J0D01*
G01*
X66131000Y-112575000D01*
G75*
G02*
X66381000Y-112825000I0J-250000D01*
G01*
X66381000Y-113775000D01*
G75*
G02*
X66131000Y-114025000I-250000J0D01*
G01*
X65631000Y-114025000D01*
G75*
G02*
X65381000Y-113775000I0J250000D01*
G01*
G37*
%TD*%
%TO.C,R10*%
G36*
G01*
X50749998Y-96775000D02*
X51650002Y-96775000D01*
G75*
G02*
X51900000Y-97024998I0J-249998D01*
G01*
X51900000Y-97550002D01*
G75*
G02*
X51650002Y-97800000I-249998J0D01*
G01*
X50749998Y-97800000D01*
G75*
G02*
X50500000Y-97550002I0J249998D01*
G01*
X50500000Y-97024998D01*
G75*
G02*
X50749998Y-96775000I249998J0D01*
G01*
G37*
G36*
G01*
X50749998Y-98600000D02*
X51650002Y-98600000D01*
G75*
G02*
X51900000Y-98849998I0J-249998D01*
G01*
X51900000Y-99375002D01*
G75*
G02*
X51650002Y-99625000I-249998J0D01*
G01*
X50749998Y-99625000D01*
G75*
G02*
X50500000Y-99375002I0J249998D01*
G01*
X50500000Y-98849998D01*
G75*
G02*
X50749998Y-98600000I249998J0D01*
G01*
G37*
%TD*%
%TO.C,R7*%
G36*
G01*
X67837500Y-100749998D02*
X67837500Y-101650002D01*
G75*
G02*
X67587502Y-101900000I-249998J0D01*
G01*
X67062498Y-101900000D01*
G75*
G02*
X66812500Y-101650002I0J249998D01*
G01*
X66812500Y-100749998D01*
G75*
G02*
X67062498Y-100500000I249998J0D01*
G01*
X67587502Y-100500000D01*
G75*
G02*
X67837500Y-100749998I0J-249998D01*
G01*
G37*
G36*
G01*
X66012500Y-100749998D02*
X66012500Y-101650002D01*
G75*
G02*
X65762502Y-101900000I-249998J0D01*
G01*
X65237498Y-101900000D01*
G75*
G02*
X64987500Y-101650002I0J249998D01*
G01*
X64987500Y-100749998D01*
G75*
G02*
X65237498Y-100500000I249998J0D01*
G01*
X65762502Y-100500000D01*
G75*
G02*
X66012500Y-100749998I0J-249998D01*
G01*
G37*
%TD*%
%TO.C,R6*%
G36*
G01*
X60050002Y-103100000D02*
X59149998Y-103100000D01*
G75*
G02*
X58900000Y-102850002I0J249998D01*
G01*
X58900000Y-102324998D01*
G75*
G02*
X59149998Y-102075000I249998J0D01*
G01*
X60050002Y-102075000D01*
G75*
G02*
X60300000Y-102324998I0J-249998D01*
G01*
X60300000Y-102850002D01*
G75*
G02*
X60050002Y-103100000I-249998J0D01*
G01*
G37*
G36*
G01*
X60050002Y-104925000D02*
X59149998Y-104925000D01*
G75*
G02*
X58900000Y-104675002I0J249998D01*
G01*
X58900000Y-104149998D01*
G75*
G02*
X59149998Y-103900000I249998J0D01*
G01*
X60050002Y-103900000D01*
G75*
G02*
X60300000Y-104149998I0J-249998D01*
G01*
X60300000Y-104675002D01*
G75*
G02*
X60050002Y-104925000I-249998J0D01*
G01*
G37*
%TD*%
%TO.C,R2*%
G36*
G01*
X52687500Y-109349998D02*
X52687500Y-110250002D01*
G75*
G02*
X52437502Y-110500000I-249998J0D01*
G01*
X51912498Y-110500000D01*
G75*
G02*
X51662500Y-110250002I0J249998D01*
G01*
X51662500Y-109349998D01*
G75*
G02*
X51912498Y-109100000I249998J0D01*
G01*
X52437502Y-109100000D01*
G75*
G02*
X52687500Y-109349998I0J-249998D01*
G01*
G37*
G36*
G01*
X54512500Y-109349998D02*
X54512500Y-110250002D01*
G75*
G02*
X54262502Y-110500000I-249998J0D01*
G01*
X53737498Y-110500000D01*
G75*
G02*
X53487500Y-110250002I0J249998D01*
G01*
X53487500Y-109349998D01*
G75*
G02*
X53737498Y-109100000I249998J0D01*
G01*
X54262502Y-109100000D01*
G75*
G02*
X54512500Y-109349998I0J-249998D01*
G01*
G37*
%TD*%
%TO.C,R1*%
G36*
G01*
X49550000Y-112725000D02*
X49550000Y-113275000D01*
G75*
G02*
X49350000Y-113475000I-200000J0D01*
G01*
X48950000Y-113475000D01*
G75*
G02*
X48750000Y-113275000I0J200000D01*
G01*
X48750000Y-112725000D01*
G75*
G02*
X48950000Y-112525000I200000J0D01*
G01*
X49350000Y-112525000D01*
G75*
G02*
X49550000Y-112725000I0J-200000D01*
G01*
G37*
G36*
G01*
X51200000Y-112725000D02*
X51200000Y-113275000D01*
G75*
G02*
X51000000Y-113475000I-200000J0D01*
G01*
X50600000Y-113475000D01*
G75*
G02*
X50400000Y-113275000I0J200000D01*
G01*
X50400000Y-112725000D01*
G75*
G02*
X50600000Y-112525000I200000J0D01*
G01*
X51000000Y-112525000D01*
G75*
G02*
X51200000Y-112725000I0J-200000D01*
G01*
G37*
%TD*%
%TO.C,D2*%
G36*
G01*
X59650000Y-100743750D02*
X59650000Y-101256250D01*
G75*
G02*
X59431250Y-101475000I-218750J0D01*
G01*
X58993750Y-101475000D01*
G75*
G02*
X58775000Y-101256250I0J218750D01*
G01*
X58775000Y-100743750D01*
G75*
G02*
X58993750Y-100525000I218750J0D01*
G01*
X59431250Y-100525000D01*
G75*
G02*
X59650000Y-100743750I0J-218750D01*
G01*
G37*
G36*
G01*
X61225000Y-100743750D02*
X61225000Y-101256250D01*
G75*
G02*
X61006250Y-101475000I-218750J0D01*
G01*
X60568750Y-101475000D01*
G75*
G02*
X60350000Y-101256250I0J218750D01*
G01*
X60350000Y-100743750D01*
G75*
G02*
X60568750Y-100525000I218750J0D01*
G01*
X61006250Y-100525000D01*
G75*
G02*
X61225000Y-100743750I0J-218750D01*
G01*
G37*
%TD*%
%TO.C,C8*%
G36*
G01*
X44450000Y-110975000D02*
X43950000Y-110975000D01*
G75*
G02*
X43725000Y-110750000I0J225000D01*
G01*
X43725000Y-110300000D01*
G75*
G02*
X43950000Y-110075000I225000J0D01*
G01*
X44450000Y-110075000D01*
G75*
G02*
X44675000Y-110300000I0J-225000D01*
G01*
X44675000Y-110750000D01*
G75*
G02*
X44450000Y-110975000I-225000J0D01*
G01*
G37*
G36*
G01*
X44450000Y-112525000D02*
X43950000Y-112525000D01*
G75*
G02*
X43725000Y-112300000I0J225000D01*
G01*
X43725000Y-111850000D01*
G75*
G02*
X43950000Y-111625000I225000J0D01*
G01*
X44450000Y-111625000D01*
G75*
G02*
X44675000Y-111850000I0J-225000D01*
G01*
X44675000Y-112300000D01*
G75*
G02*
X44450000Y-112525000I-225000J0D01*
G01*
G37*
%TD*%
%TO.C,C7*%
G36*
G01*
X45925000Y-105350000D02*
X45925000Y-104850000D01*
G75*
G02*
X46150000Y-104625000I225000J0D01*
G01*
X46600000Y-104625000D01*
G75*
G02*
X46825000Y-104850000I0J-225000D01*
G01*
X46825000Y-105350000D01*
G75*
G02*
X46600000Y-105575000I-225000J0D01*
G01*
X46150000Y-105575000D01*
G75*
G02*
X45925000Y-105350000I0J225000D01*
G01*
G37*
G36*
G01*
X44375000Y-105350000D02*
X44375000Y-104850000D01*
G75*
G02*
X44600000Y-104625000I225000J0D01*
G01*
X45050000Y-104625000D01*
G75*
G02*
X45275000Y-104850000I0J-225000D01*
G01*
X45275000Y-105350000D01*
G75*
G02*
X45050000Y-105575000I-225000J0D01*
G01*
X44600000Y-105575000D01*
G75*
G02*
X44375000Y-105350000I0J225000D01*
G01*
G37*
%TD*%
%TO.C,C6*%
G36*
G01*
X45950000Y-110975000D02*
X45450000Y-110975000D01*
G75*
G02*
X45225000Y-110750000I0J225000D01*
G01*
X45225000Y-110300000D01*
G75*
G02*
X45450000Y-110075000I225000J0D01*
G01*
X45950000Y-110075000D01*
G75*
G02*
X46175000Y-110300000I0J-225000D01*
G01*
X46175000Y-110750000D01*
G75*
G02*
X45950000Y-110975000I-225000J0D01*
G01*
G37*
G36*
G01*
X45950000Y-112525000D02*
X45450000Y-112525000D01*
G75*
G02*
X45225000Y-112300000I0J225000D01*
G01*
X45225000Y-111850000D01*
G75*
G02*
X45450000Y-111625000I225000J0D01*
G01*
X45950000Y-111625000D01*
G75*
G02*
X46175000Y-111850000I0J-225000D01*
G01*
X46175000Y-112300000D01*
G75*
G02*
X45950000Y-112525000I-225000J0D01*
G01*
G37*
%TD*%
%TO.C,C5*%
G36*
G01*
X53500000Y-113250000D02*
X53500000Y-112750000D01*
G75*
G02*
X53725000Y-112525000I225000J0D01*
G01*
X54175000Y-112525000D01*
G75*
G02*
X54400000Y-112750000I0J-225000D01*
G01*
X54400000Y-113250000D01*
G75*
G02*
X54175000Y-113475000I-225000J0D01*
G01*
X53725000Y-113475000D01*
G75*
G02*
X53500000Y-113250000I0J225000D01*
G01*
G37*
G36*
G01*
X51950000Y-113250000D02*
X51950000Y-112750000D01*
G75*
G02*
X52175000Y-112525000I225000J0D01*
G01*
X52625000Y-112525000D01*
G75*
G02*
X52850000Y-112750000I0J-225000D01*
G01*
X52850000Y-113250000D01*
G75*
G02*
X52625000Y-113475000I-225000J0D01*
G01*
X52175000Y-113475000D01*
G75*
G02*
X51950000Y-113250000I0J225000D01*
G01*
G37*
%TD*%
%TO.C,C2*%
G36*
G01*
X56150000Y-109325000D02*
X56150000Y-110275000D01*
G75*
G02*
X55900000Y-110525000I-250000J0D01*
G01*
X55400000Y-110525000D01*
G75*
G02*
X55150000Y-110275000I0J250000D01*
G01*
X55150000Y-109325000D01*
G75*
G02*
X55400000Y-109075000I250000J0D01*
G01*
X55900000Y-109075000D01*
G75*
G02*
X56150000Y-109325000I0J-250000D01*
G01*
G37*
G36*
G01*
X58050000Y-109325000D02*
X58050000Y-110275000D01*
G75*
G02*
X57800000Y-110525000I-250000J0D01*
G01*
X57300000Y-110525000D01*
G75*
G02*
X57050000Y-110275000I0J250000D01*
G01*
X57050000Y-109325000D01*
G75*
G02*
X57300000Y-109075000I250000J0D01*
G01*
X57800000Y-109075000D01*
G75*
G02*
X58050000Y-109325000I0J-250000D01*
G01*
G37*
%TD*%
%TO.C,D3*%
G36*
G01*
X63450000Y-101256250D02*
X63450000Y-100743750D01*
G75*
G02*
X63668750Y-100525000I218750J0D01*
G01*
X64106250Y-100525000D01*
G75*
G02*
X64325000Y-100743750I0J-218750D01*
G01*
X64325000Y-101256250D01*
G75*
G02*
X64106250Y-101475000I-218750J0D01*
G01*
X63668750Y-101475000D01*
G75*
G02*
X63450000Y-101256250I0J218750D01*
G01*
G37*
G36*
G01*
X61875000Y-101256250D02*
X61875000Y-100743750D01*
G75*
G02*
X62093750Y-100525000I218750J0D01*
G01*
X62531250Y-100525000D01*
G75*
G02*
X62750000Y-100743750I0J-218750D01*
G01*
X62750000Y-101256250D01*
G75*
G02*
X62531250Y-101475000I-218750J0D01*
G01*
X62093750Y-101475000D01*
G75*
G02*
X61875000Y-101256250I0J218750D01*
G01*
G37*
%TD*%
%TO.C,D6*%
G36*
G01*
X57650000Y-121556250D02*
X57650000Y-121043750D01*
G75*
G02*
X57868750Y-120825000I218750J0D01*
G01*
X58306250Y-120825000D01*
G75*
G02*
X58525000Y-121043750I0J-218750D01*
G01*
X58525000Y-121556250D01*
G75*
G02*
X58306250Y-121775000I-218750J0D01*
G01*
X57868750Y-121775000D01*
G75*
G02*
X57650000Y-121556250I0J218750D01*
G01*
G37*
G36*
G01*
X56075000Y-121556250D02*
X56075000Y-121043750D01*
G75*
G02*
X56293750Y-120825000I218750J0D01*
G01*
X56731250Y-120825000D01*
G75*
G02*
X56950000Y-121043750I0J-218750D01*
G01*
X56950000Y-121556250D01*
G75*
G02*
X56731250Y-121775000I-218750J0D01*
G01*
X56293750Y-121775000D01*
G75*
G02*
X56075000Y-121556250I0J218750D01*
G01*
G37*
%TD*%
%TO.C,U4*%
G36*
G01*
X43733000Y-118838000D02*
X43933000Y-118838000D01*
G75*
G02*
X44033000Y-118938000I0J-100000D01*
G01*
X44033000Y-120213000D01*
G75*
G02*
X43933000Y-120313000I-100000J0D01*
G01*
X43733000Y-120313000D01*
G75*
G02*
X43633000Y-120213000I0J100000D01*
G01*
X43633000Y-118938000D01*
G75*
G02*
X43733000Y-118838000I100000J0D01*
G01*
G37*
G36*
G01*
X43083000Y-118838000D02*
X43283000Y-118838000D01*
G75*
G02*
X43383000Y-118938000I0J-100000D01*
G01*
X43383000Y-120213000D01*
G75*
G02*
X43283000Y-120313000I-100000J0D01*
G01*
X43083000Y-120313000D01*
G75*
G02*
X42983000Y-120213000I0J100000D01*
G01*
X42983000Y-118938000D01*
G75*
G02*
X43083000Y-118838000I100000J0D01*
G01*
G37*
G36*
G01*
X42433000Y-118838000D02*
X42633000Y-118838000D01*
G75*
G02*
X42733000Y-118938000I0J-100000D01*
G01*
X42733000Y-120213000D01*
G75*
G02*
X42633000Y-120313000I-100000J0D01*
G01*
X42433000Y-120313000D01*
G75*
G02*
X42333000Y-120213000I0J100000D01*
G01*
X42333000Y-118938000D01*
G75*
G02*
X42433000Y-118838000I100000J0D01*
G01*
G37*
G36*
G01*
X41783000Y-118838000D02*
X41983000Y-118838000D01*
G75*
G02*
X42083000Y-118938000I0J-100000D01*
G01*
X42083000Y-120213000D01*
G75*
G02*
X41983000Y-120313000I-100000J0D01*
G01*
X41783000Y-120313000D01*
G75*
G02*
X41683000Y-120213000I0J100000D01*
G01*
X41683000Y-118938000D01*
G75*
G02*
X41783000Y-118838000I100000J0D01*
G01*
G37*
G36*
G01*
X41133000Y-118838000D02*
X41333000Y-118838000D01*
G75*
G02*
X41433000Y-118938000I0J-100000D01*
G01*
X41433000Y-120213000D01*
G75*
G02*
X41333000Y-120313000I-100000J0D01*
G01*
X41133000Y-120313000D01*
G75*
G02*
X41033000Y-120213000I0J100000D01*
G01*
X41033000Y-118938000D01*
G75*
G02*
X41133000Y-118838000I100000J0D01*
G01*
G37*
G36*
G01*
X40483000Y-118838000D02*
X40683000Y-118838000D01*
G75*
G02*
X40783000Y-118938000I0J-100000D01*
G01*
X40783000Y-120213000D01*
G75*
G02*
X40683000Y-120313000I-100000J0D01*
G01*
X40483000Y-120313000D01*
G75*
G02*
X40383000Y-120213000I0J100000D01*
G01*
X40383000Y-118938000D01*
G75*
G02*
X40483000Y-118838000I100000J0D01*
G01*
G37*
G36*
G01*
X39833000Y-118838000D02*
X40033000Y-118838000D01*
G75*
G02*
X40133000Y-118938000I0J-100000D01*
G01*
X40133000Y-120213000D01*
G75*
G02*
X40033000Y-120313000I-100000J0D01*
G01*
X39833000Y-120313000D01*
G75*
G02*
X39733000Y-120213000I0J100000D01*
G01*
X39733000Y-118938000D01*
G75*
G02*
X39833000Y-118838000I100000J0D01*
G01*
G37*
G36*
G01*
X39183000Y-118838000D02*
X39383000Y-118838000D01*
G75*
G02*
X39483000Y-118938000I0J-100000D01*
G01*
X39483000Y-120213000D01*
G75*
G02*
X39383000Y-120313000I-100000J0D01*
G01*
X39183000Y-120313000D01*
G75*
G02*
X39083000Y-120213000I0J100000D01*
G01*
X39083000Y-118938000D01*
G75*
G02*
X39183000Y-118838000I100000J0D01*
G01*
G37*
G36*
G01*
X38533000Y-118838000D02*
X38733000Y-118838000D01*
G75*
G02*
X38833000Y-118938000I0J-100000D01*
G01*
X38833000Y-120213000D01*
G75*
G02*
X38733000Y-120313000I-100000J0D01*
G01*
X38533000Y-120313000D01*
G75*
G02*
X38433000Y-120213000I0J100000D01*
G01*
X38433000Y-118938000D01*
G75*
G02*
X38533000Y-118838000I100000J0D01*
G01*
G37*
G36*
G01*
X37883000Y-118838000D02*
X38083000Y-118838000D01*
G75*
G02*
X38183000Y-118938000I0J-100000D01*
G01*
X38183000Y-120213000D01*
G75*
G02*
X38083000Y-120313000I-100000J0D01*
G01*
X37883000Y-120313000D01*
G75*
G02*
X37783000Y-120213000I0J100000D01*
G01*
X37783000Y-118938000D01*
G75*
G02*
X37883000Y-118838000I100000J0D01*
G01*
G37*
G36*
G01*
X37233000Y-118838000D02*
X37433000Y-118838000D01*
G75*
G02*
X37533000Y-118938000I0J-100000D01*
G01*
X37533000Y-120213000D01*
G75*
G02*
X37433000Y-120313000I-100000J0D01*
G01*
X37233000Y-120313000D01*
G75*
G02*
X37133000Y-120213000I0J100000D01*
G01*
X37133000Y-118938000D01*
G75*
G02*
X37233000Y-118838000I100000J0D01*
G01*
G37*
G36*
G01*
X36583000Y-118838000D02*
X36783000Y-118838000D01*
G75*
G02*
X36883000Y-118938000I0J-100000D01*
G01*
X36883000Y-120213000D01*
G75*
G02*
X36783000Y-120313000I-100000J0D01*
G01*
X36583000Y-120313000D01*
G75*
G02*
X36483000Y-120213000I0J100000D01*
G01*
X36483000Y-118938000D01*
G75*
G02*
X36583000Y-118838000I100000J0D01*
G01*
G37*
G36*
G01*
X35933000Y-118838000D02*
X36133000Y-118838000D01*
G75*
G02*
X36233000Y-118938000I0J-100000D01*
G01*
X36233000Y-120213000D01*
G75*
G02*
X36133000Y-120313000I-100000J0D01*
G01*
X35933000Y-120313000D01*
G75*
G02*
X35833000Y-120213000I0J100000D01*
G01*
X35833000Y-118938000D01*
G75*
G02*
X35933000Y-118838000I100000J0D01*
G01*
G37*
G36*
G01*
X35283000Y-118838000D02*
X35483000Y-118838000D01*
G75*
G02*
X35583000Y-118938000I0J-100000D01*
G01*
X35583000Y-120213000D01*
G75*
G02*
X35483000Y-120313000I-100000J0D01*
G01*
X35283000Y-120313000D01*
G75*
G02*
X35183000Y-120213000I0J100000D01*
G01*
X35183000Y-118938000D01*
G75*
G02*
X35283000Y-118838000I100000J0D01*
G01*
G37*
G36*
G01*
X35283000Y-113113000D02*
X35483000Y-113113000D01*
G75*
G02*
X35583000Y-113213000I0J-100000D01*
G01*
X35583000Y-114488000D01*
G75*
G02*
X35483000Y-114588000I-100000J0D01*
G01*
X35283000Y-114588000D01*
G75*
G02*
X35183000Y-114488000I0J100000D01*
G01*
X35183000Y-113213000D01*
G75*
G02*
X35283000Y-113113000I100000J0D01*
G01*
G37*
G36*
G01*
X35933000Y-113113000D02*
X36133000Y-113113000D01*
G75*
G02*
X36233000Y-113213000I0J-100000D01*
G01*
X36233000Y-114488000D01*
G75*
G02*
X36133000Y-114588000I-100000J0D01*
G01*
X35933000Y-114588000D01*
G75*
G02*
X35833000Y-114488000I0J100000D01*
G01*
X35833000Y-113213000D01*
G75*
G02*
X35933000Y-113113000I100000J0D01*
G01*
G37*
G36*
G01*
X36583000Y-113113000D02*
X36783000Y-113113000D01*
G75*
G02*
X36883000Y-113213000I0J-100000D01*
G01*
X36883000Y-114488000D01*
G75*
G02*
X36783000Y-114588000I-100000J0D01*
G01*
X36583000Y-114588000D01*
G75*
G02*
X36483000Y-114488000I0J100000D01*
G01*
X36483000Y-113213000D01*
G75*
G02*
X36583000Y-113113000I100000J0D01*
G01*
G37*
G36*
G01*
X37233000Y-113113000D02*
X37433000Y-113113000D01*
G75*
G02*
X37533000Y-113213000I0J-100000D01*
G01*
X37533000Y-114488000D01*
G75*
G02*
X37433000Y-114588000I-100000J0D01*
G01*
X37233000Y-114588000D01*
G75*
G02*
X37133000Y-114488000I0J100000D01*
G01*
X37133000Y-113213000D01*
G75*
G02*
X37233000Y-113113000I100000J0D01*
G01*
G37*
G36*
G01*
X37883000Y-113113000D02*
X38083000Y-113113000D01*
G75*
G02*
X38183000Y-113213000I0J-100000D01*
G01*
X38183000Y-114488000D01*
G75*
G02*
X38083000Y-114588000I-100000J0D01*
G01*
X37883000Y-114588000D01*
G75*
G02*
X37783000Y-114488000I0J100000D01*
G01*
X37783000Y-113213000D01*
G75*
G02*
X37883000Y-113113000I100000J0D01*
G01*
G37*
G36*
G01*
X38533000Y-113113000D02*
X38733000Y-113113000D01*
G75*
G02*
X38833000Y-113213000I0J-100000D01*
G01*
X38833000Y-114488000D01*
G75*
G02*
X38733000Y-114588000I-100000J0D01*
G01*
X38533000Y-114588000D01*
G75*
G02*
X38433000Y-114488000I0J100000D01*
G01*
X38433000Y-113213000D01*
G75*
G02*
X38533000Y-113113000I100000J0D01*
G01*
G37*
G36*
G01*
X39183000Y-113113000D02*
X39383000Y-113113000D01*
G75*
G02*
X39483000Y-113213000I0J-100000D01*
G01*
X39483000Y-114488000D01*
G75*
G02*
X39383000Y-114588000I-100000J0D01*
G01*
X39183000Y-114588000D01*
G75*
G02*
X39083000Y-114488000I0J100000D01*
G01*
X39083000Y-113213000D01*
G75*
G02*
X39183000Y-113113000I100000J0D01*
G01*
G37*
G36*
G01*
X39833000Y-113113000D02*
X40033000Y-113113000D01*
G75*
G02*
X40133000Y-113213000I0J-100000D01*
G01*
X40133000Y-114488000D01*
G75*
G02*
X40033000Y-114588000I-100000J0D01*
G01*
X39833000Y-114588000D01*
G75*
G02*
X39733000Y-114488000I0J100000D01*
G01*
X39733000Y-113213000D01*
G75*
G02*
X39833000Y-113113000I100000J0D01*
G01*
G37*
G36*
G01*
X40483000Y-113113000D02*
X40683000Y-113113000D01*
G75*
G02*
X40783000Y-113213000I0J-100000D01*
G01*
X40783000Y-114488000D01*
G75*
G02*
X40683000Y-114588000I-100000J0D01*
G01*
X40483000Y-114588000D01*
G75*
G02*
X40383000Y-114488000I0J100000D01*
G01*
X40383000Y-113213000D01*
G75*
G02*
X40483000Y-113113000I100000J0D01*
G01*
G37*
G36*
G01*
X41133000Y-113113000D02*
X41333000Y-113113000D01*
G75*
G02*
X41433000Y-113213000I0J-100000D01*
G01*
X41433000Y-114488000D01*
G75*
G02*
X41333000Y-114588000I-100000J0D01*
G01*
X41133000Y-114588000D01*
G75*
G02*
X41033000Y-114488000I0J100000D01*
G01*
X41033000Y-113213000D01*
G75*
G02*
X41133000Y-113113000I100000J0D01*
G01*
G37*
G36*
G01*
X41783000Y-113113000D02*
X41983000Y-113113000D01*
G75*
G02*
X42083000Y-113213000I0J-100000D01*
G01*
X42083000Y-114488000D01*
G75*
G02*
X41983000Y-114588000I-100000J0D01*
G01*
X41783000Y-114588000D01*
G75*
G02*
X41683000Y-114488000I0J100000D01*
G01*
X41683000Y-113213000D01*
G75*
G02*
X41783000Y-113113000I100000J0D01*
G01*
G37*
G36*
G01*
X42433000Y-113113000D02*
X42633000Y-113113000D01*
G75*
G02*
X42733000Y-113213000I0J-100000D01*
G01*
X42733000Y-114488000D01*
G75*
G02*
X42633000Y-114588000I-100000J0D01*
G01*
X42433000Y-114588000D01*
G75*
G02*
X42333000Y-114488000I0J100000D01*
G01*
X42333000Y-113213000D01*
G75*
G02*
X42433000Y-113113000I100000J0D01*
G01*
G37*
G36*
G01*
X43083000Y-113113000D02*
X43283000Y-113113000D01*
G75*
G02*
X43383000Y-113213000I0J-100000D01*
G01*
X43383000Y-114488000D01*
G75*
G02*
X43283000Y-114588000I-100000J0D01*
G01*
X43083000Y-114588000D01*
G75*
G02*
X42983000Y-114488000I0J100000D01*
G01*
X42983000Y-113213000D01*
G75*
G02*
X43083000Y-113113000I100000J0D01*
G01*
G37*
G36*
G01*
X43733000Y-113113000D02*
X43933000Y-113113000D01*
G75*
G02*
X44033000Y-113213000I0J-100000D01*
G01*
X44033000Y-114488000D01*
G75*
G02*
X43933000Y-114588000I-100000J0D01*
G01*
X43733000Y-114588000D01*
G75*
G02*
X43633000Y-114488000I0J100000D01*
G01*
X43633000Y-113213000D01*
G75*
G02*
X43733000Y-113113000I100000J0D01*
G01*
G37*
%TD*%
M02*
