M48
; DRILL file {KiCad 5.1.10} date Fri Aug 20 07:55:01 2021
; FORMAT={-:-/ absolute / inch / decimal}
; #@! TF.CreationDate,2021-08-20T07:55:01+02:00
; #@! TF.GenerationSoftware,Kicad,Pcbnew,5.1.10
; #@! TF.FileFunction,Plated,1,2,PTH
FMAT,2
INCH
T1C0.0157
T2C0.0197
T3C0.0295
T4C0.0354
T5C0.0394
T6C0.0433
T7C0.0866
%
G90
G05
T1
X1.1555Y-3.2677
X1.1555Y-5.5906
X1.1614Y-3.937
X1.1745Y-3.2218
X1.1745Y-3.3137
X1.1745Y-5.5446
X1.1745Y-5.6365
X1.2205Y-3.2028
X1.2205Y-3.3327
X1.2205Y-5.5256
X1.2205Y-5.6555
X1.2441Y-4.5433
X1.2664Y-3.2218
X1.2664Y-3.3137
X1.2664Y-5.5446
X1.2664Y-5.6365
X1.2854Y-3.2677
X1.2854Y-5.5906
X1.3031Y-3.3819
X1.3071Y-4.6496
X1.3425Y-4.5433
X1.3819Y-4.5748
X1.3858Y-4.4094
X1.4016Y-5.063
X1.4016Y-5.0945
X1.4035Y-5.2244
X1.4035Y-5.2559
X1.5433Y-4.0984
X1.5433Y-5.1417
X1.5945Y-4.4094
X1.6299Y-3.8858
X1.6417Y-5.3583
X1.6417Y-5.3898
X1.685Y-4.0984
X1.6929Y-3.9528
X1.6969Y-5.1417
X1.7402Y-4.311
X1.7618Y-4.7047
X1.7992Y-4.311
X1.8976Y-4.2441
X1.9173Y-5.2795
X1.9173Y-5.311
X1.9213Y-5.189
X1.9213Y-5.2204
X1.9528Y-4.6535
X1.9646Y-4.2638
X2.0224Y-4.1319
X2.0232Y-4.0984
X2.0236Y-4.1665
X2.0559Y-4.0976
X2.0559Y-4.1319
X2.0559Y-4.1665
X2.0898Y-4.0969
X2.0902Y-4.1299
X2.0906Y-4.1654
X2.1654Y-4.4094
X2.1654Y-4.4449
X2.1969Y-4.374
X2.1969Y-4.4094
X2.1969Y-4.4449
X2.2559Y-5.1491
X2.2559Y-5.1811
X2.2563Y-5.0268
X2.2567Y-5.0602
X2.2677Y-4.6535
X2.3685Y-4.4856
X2.4409Y-4.8976
X2.4449Y-4.6496
X2.4701Y-4.488
X2.4724Y-4.8976
X2.4724Y-5.1717
X2.4803Y-4.6496
X2.5622Y-5.1717
X2.5622Y-5.2634
X2.5634Y-5.3476
X2.6378Y-4.3858
X2.6496Y-4.2677
X2.6496Y-4.3031
X2.6732Y-4.9016
X2.6811Y-4.2677
X2.7071Y-4.9031
X2.7075Y-4.8709
X2.7126Y-4.4606
X2.7677Y-3.8465
X2.7677Y-5.2512
X2.7685Y-5.0626
X2.7685Y-5.0945
X2.7685Y-5.2197
X2.8878Y-3.2677
X2.8878Y-5.5906
X2.9068Y-3.2218
X2.9068Y-3.3137
X2.9068Y-5.5446
X2.9068Y-5.6365
X2.9528Y-3.2028
X2.9528Y-3.3327
X2.9528Y-5.5256
X2.9528Y-5.6555
X2.9637Y-3.7489
X2.9921Y-3.5748
X2.9987Y-3.2218
X2.9987Y-3.3137
X2.9987Y-5.5446
X2.9987Y-5.6365
X3.0177Y-3.2677
X3.0177Y-5.5906
T2
X1.3071Y-3.4724
X1.3071Y-3.5217
X1.3071Y-3.5709
X1.3071Y-3.7362
X1.3071Y-3.7854
X1.3071Y-3.8346
X1.3071Y-3.8839
X1.3071Y-3.9331
X1.5728Y-3.3543
X1.622Y-3.3543
X1.6713Y-3.3543
X1.7205Y-3.3543
X1.7697Y-3.3543
X1.8976Y-5.5039
X1.9469Y-5.5039
X1.9626Y-3.3543
X1.9961Y-5.5039
X2.0118Y-3.3543
X2.061Y-3.3543
X2.1102Y-3.3543
X2.1594Y-3.3543
X2.1732Y-5.5039
X2.2087Y-3.3543
X2.2224Y-5.5039
X2.2717Y-5.5039
X2.4016Y-3.3543
X2.4508Y-3.3543
X2.5Y-3.3543
X2.5492Y-3.3543
X2.5984Y-3.3543
X2.8661Y-3.4764
X2.8661Y-3.5256
X2.8661Y-3.5748
X2.8661Y-3.748
X2.8661Y-3.7972
X2.8661Y-3.8465
X2.8661Y-3.8957
X2.8661Y-3.9449
T3
X2.7953Y-4.1457
X2.7953Y-4.2244
X2.7953Y-4.4331
X2.7953Y-4.5118
T4
X1.7291Y-4.0433
X1.8291Y-4.0433
X1.9291Y-4.0433
T5
X1.1969Y-4.0866
X1.2583Y-4.8346
X1.2969Y-4.0866
X1.3583Y-4.8346
X1.622Y-4.2126
X1.622Y-4.3126
X1.8346Y-4.5118
X1.8346Y-4.6118
X1.8346Y-4.7118
X2.0236Y-4.8189
X2.1236Y-4.8189
X2.3724Y-3.874
X2.4724Y-3.874
X2.5724Y-3.874
X2.9646Y-4.7008
X2.9646Y-4.8008
T6
X1.2559Y-4.9961
X1.2559Y-5.0961
X1.2559Y-5.2598
X1.2559Y-5.3598
X2.9173Y-4.9803
X2.9173Y-5.0803
X2.9173Y-5.245
X2.9173Y-5.345
T7
X1.2205Y-3.2677
X1.2205Y-5.5906
X2.9528Y-3.2677
X2.9528Y-5.5906
T0
M30
