%TF.GenerationSoftware,KiCad,Pcbnew,5.1.10*%
%TF.CreationDate,2021-06-13T09:42:38+02:00*%
%TF.ProjectId,nsumo,6e73756d-6f2e-46b6-9963-61645f706362,rev?*%
%TF.SameCoordinates,Original*%
%TF.FileFunction,Copper,L2,Bot*%
%TF.FilePolarity,Positive*%
%FSLAX46Y46*%
G04 Gerber Fmt 4.6, Leading zero omitted, Abs format (unit mm)*
G04 Created by KiCad (PCBNEW 5.1.10) date 2021-06-13 09:42:38*
%MOMM*%
%LPD*%
G01*
G04 APERTURE LIST*
%TA.AperFunction,ComponentPad*%
%ADD10O,0.800000X1.300000*%
%TD*%
%TA.AperFunction,ComponentPad*%
%ADD11O,1.300000X0.800000*%
%TD*%
%TA.AperFunction,ComponentPad*%
%ADD12C,2.100000*%
%TD*%
%TA.AperFunction,ComponentPad*%
%ADD13R,2.100000X2.100000*%
%TD*%
%TA.AperFunction,ComponentPad*%
%ADD14C,0.700000*%
%TD*%
%TA.AperFunction,ComponentPad*%
%ADD15C,4.400000*%
%TD*%
%TA.AperFunction,ComponentPad*%
%ADD16O,1.750000X1.200000*%
%TD*%
%TA.AperFunction,ComponentPad*%
%ADD17O,1.700000X1.700000*%
%TD*%
%TA.AperFunction,ComponentPad*%
%ADD18R,1.700000X1.700000*%
%TD*%
%TA.AperFunction,ComponentPad*%
%ADD19R,0.850000X0.850000*%
%TD*%
%TA.AperFunction,ComponentPad*%
%ADD20C,1.800000*%
%TD*%
%TA.AperFunction,ViaPad*%
%ADD21C,0.800000*%
%TD*%
%TA.AperFunction,Conductor*%
%ADD22C,0.508000*%
%TD*%
%TA.AperFunction,Conductor*%
%ADD23C,0.254000*%
%TD*%
%TA.AperFunction,Conductor*%
%ADD24C,0.100000*%
%TD*%
G04 APERTURE END LIST*
%TO.P,J22,1*%
%TO.N,+5V*%
%TA.AperFunction,ComponentPad*%
G36*
G01*
X54800000Y-140250000D02*
X54800000Y-139350000D01*
G75*
G02*
X55000000Y-139150000I200000J0D01*
G01*
X55400000Y-139150000D01*
G75*
G02*
X55600000Y-139350000I0J-200000D01*
G01*
X55600000Y-140250000D01*
G75*
G02*
X55400000Y-140450000I-200000J0D01*
G01*
X55000000Y-140450000D01*
G75*
G02*
X54800000Y-140250000I0J200000D01*
G01*
G37*
%TD.AperFunction*%
D10*
%TO.P,J22,2*%
%TO.N,LD_BACK_RIGHT*%
X56450000Y-139800000D03*
%TO.P,J22,3*%
%TO.N,GND*%
X57700000Y-139800000D03*
%TD*%
D11*
%TO.P,J21,3*%
%TO.N,+5V*%
X72800000Y-88300000D03*
%TO.P,J21,2*%
%TO.N,LD_FRONT_RIGHT*%
X72800000Y-89550000D03*
%TO.P,J21,1*%
%TO.N,GND*%
%TA.AperFunction,ComponentPad*%
G36*
G01*
X73250000Y-91200000D02*
X72350000Y-91200000D01*
G75*
G02*
X72150000Y-91000000I0J200000D01*
G01*
X72150000Y-90600000D01*
G75*
G02*
X72350000Y-90400000I200000J0D01*
G01*
X73250000Y-90400000D01*
G75*
G02*
X73450000Y-90600000I0J-200000D01*
G01*
X73450000Y-91000000D01*
G75*
G02*
X73250000Y-91200000I-200000J0D01*
G01*
G37*
%TD.AperFunction*%
%TD*%
D10*
%TO.P,J20,3*%
%TO.N,GND*%
X50700000Y-139800000D03*
%TO.P,J20,2*%
%TO.N,LD_BACK_LEFT*%
X49450000Y-139800000D03*
%TO.P,J20,1*%
%TO.N,+5V*%
%TA.AperFunction,ComponentPad*%
G36*
G01*
X47800000Y-140250000D02*
X47800000Y-139350000D01*
G75*
G02*
X48000000Y-139150000I200000J0D01*
G01*
X48400000Y-139150000D01*
G75*
G02*
X48600000Y-139350000I0J-200000D01*
G01*
X48600000Y-140250000D01*
G75*
G02*
X48400000Y-140450000I-200000J0D01*
G01*
X48000000Y-140450000D01*
G75*
G02*
X47800000Y-140250000I0J200000D01*
G01*
G37*
%TD.AperFunction*%
%TD*%
D11*
%TO.P,J19,3*%
%TO.N,GND*%
X33200000Y-90700000D03*
%TO.P,J19,2*%
%TO.N,LD_FRONT_LEFT*%
X33200000Y-89450000D03*
%TO.P,J19,1*%
%TO.N,+5V*%
%TA.AperFunction,ComponentPad*%
G36*
G01*
X32750000Y-87800000D02*
X33650000Y-87800000D01*
G75*
G02*
X33850000Y-88000000I0J-200000D01*
G01*
X33850000Y-88400000D01*
G75*
G02*
X33650000Y-88600000I-200000J0D01*
G01*
X32750000Y-88600000D01*
G75*
G02*
X32550000Y-88400000I0J200000D01*
G01*
X32550000Y-88000000D01*
G75*
G02*
X32750000Y-87800000I200000J0D01*
G01*
G37*
%TD.AperFunction*%
%TD*%
D12*
%TO.P,J18,2*%
%TO.N,Net-(J18-Pad2)*%
X32000000Y-135740000D03*
D13*
%TO.P,J18,1*%
%TO.N,Net-(J18-Pad1)*%
X32000000Y-133200000D03*
%TD*%
D12*
%TO.P,J17,2*%
%TO.N,Net-(J17-Pad2)*%
X32000000Y-129040000D03*
D13*
%TO.P,J17,1*%
%TO.N,Net-(J17-Pad1)*%
X32000000Y-126500000D03*
%TD*%
D12*
%TO.P,J15,2*%
%TO.N,Net-(J15-Pad2)*%
X73950000Y-133223000D03*
D13*
%TO.P,J15,1*%
%TO.N,Net-(J15-Pad1)*%
X73950000Y-135763000D03*
%TD*%
D12*
%TO.P,J14,2*%
%TO.N,Net-(J14-Pad2)*%
X73950000Y-126500000D03*
D13*
%TO.P,J14,1*%
%TO.N,Net-(J14-Pad1)*%
X73950000Y-129040000D03*
%TD*%
D11*
%TO.P,J1,5*%
%TO.N,+3V3*%
X33200000Y-99900000D03*
%TO.P,J1,4*%
%TO.N,GND*%
X33200000Y-98650000D03*
%TO.P,J1,3*%
%TO.N,SCL*%
X33200000Y-97400000D03*
%TO.P,J1,2*%
%TO.N,SDA*%
X33200000Y-96150000D03*
%TO.P,J1,1*%
%TO.N,xshut_left*%
%TA.AperFunction,ComponentPad*%
G36*
G01*
X32750000Y-94500000D02*
X33650000Y-94500000D01*
G75*
G02*
X33850000Y-94700000I0J-200000D01*
G01*
X33850000Y-95100000D01*
G75*
G02*
X33650000Y-95300000I-200000J0D01*
G01*
X32750000Y-95300000D01*
G75*
G02*
X32550000Y-95100000I0J200000D01*
G01*
X32550000Y-94700000D01*
G75*
G02*
X32750000Y-94500000I200000J0D01*
G01*
G37*
%TD.AperFunction*%
%TD*%
D10*
%TO.P,J4,5*%
%TO.N,+3V3*%
X39950000Y-85200000D03*
%TO.P,J4,4*%
%TO.N,GND*%
X41200000Y-85200000D03*
%TO.P,J4,3*%
%TO.N,SCL*%
X42450000Y-85200000D03*
%TO.P,J4,2*%
%TO.N,SDA*%
X43700000Y-85200000D03*
%TO.P,J4,1*%
%TO.N,xshut_front_left*%
%TA.AperFunction,ComponentPad*%
G36*
G01*
X45350000Y-84750000D02*
X45350000Y-85650000D01*
G75*
G02*
X45150000Y-85850000I-200000J0D01*
G01*
X44750000Y-85850000D01*
G75*
G02*
X44550000Y-85650000I0J200000D01*
G01*
X44550000Y-84750000D01*
G75*
G02*
X44750000Y-84550000I200000J0D01*
G01*
X45150000Y-84550000D01*
G75*
G02*
X45350000Y-84750000I0J-200000D01*
G01*
G37*
%TD.AperFunction*%
%TD*%
%TO.P,J2,6*%
%TO.N,+3V3*%
X49850000Y-85200000D03*
%TO.P,J2,5*%
%TO.N,GND*%
X51100000Y-85200000D03*
%TO.P,J2,4*%
%TO.N,SCL*%
X52350000Y-85200000D03*
%TO.P,J2,3*%
%TO.N,SDA*%
X53600000Y-85200000D03*
%TO.P,J2,2*%
%TO.N,xshut_front*%
X54850000Y-85200000D03*
%TO.P,J2,1*%
%TO.N,RS_FRONT_INT*%
%TA.AperFunction,ComponentPad*%
G36*
G01*
X56500000Y-84750000D02*
X56500000Y-85650000D01*
G75*
G02*
X56300000Y-85850000I-200000J0D01*
G01*
X55900000Y-85850000D01*
G75*
G02*
X55700000Y-85650000I0J200000D01*
G01*
X55700000Y-84750000D01*
G75*
G02*
X55900000Y-84550000I200000J0D01*
G01*
X56300000Y-84550000D01*
G75*
G02*
X56500000Y-84750000I0J-200000D01*
G01*
G37*
%TD.AperFunction*%
%TD*%
D14*
%TO.P,H4,1*%
%TO.N,GND*%
X32166726Y-81833274D03*
X31000000Y-81350000D03*
X29833274Y-81833274D03*
X29350000Y-83000000D03*
X29833274Y-84166726D03*
X31000000Y-84650000D03*
X32166726Y-84166726D03*
X32650000Y-83000000D03*
D15*
X31000000Y-83000000D03*
%TD*%
D14*
%TO.P,H3,1*%
%TO.N,GND*%
X76166726Y-81833274D03*
X75000000Y-81350000D03*
X73833274Y-81833274D03*
X73350000Y-83000000D03*
X73833274Y-84166726D03*
X75000000Y-84650000D03*
X76166726Y-84166726D03*
X76650000Y-83000000D03*
D15*
X75000000Y-83000000D03*
%TD*%
D14*
%TO.P,H2,1*%
%TO.N,GND*%
X32166726Y-140833274D03*
X31000000Y-140350000D03*
X29833274Y-140833274D03*
X29350000Y-142000000D03*
X29833274Y-143166726D03*
X31000000Y-143650000D03*
X32166726Y-143166726D03*
X32650000Y-142000000D03*
D15*
X31000000Y-142000000D03*
%TD*%
D14*
%TO.P,H1,1*%
%TO.N,GND*%
X76166726Y-140833274D03*
X75000000Y-140350000D03*
X73833274Y-140833274D03*
X73350000Y-142000000D03*
X73833274Y-143166726D03*
X75000000Y-143650000D03*
X76166726Y-143166726D03*
X76650000Y-142000000D03*
D15*
X75000000Y-142000000D03*
%TD*%
D16*
%TO.P,J5,2*%
%TO.N,GND*%
X71000000Y-105300000D03*
%TO.P,J5,1*%
%TO.N,Net-(J3-Pad2)*%
%TA.AperFunction,ComponentPad*%
G36*
G01*
X71625001Y-107900000D02*
X70374999Y-107900000D01*
G75*
G02*
X70125000Y-107650001I0J249999D01*
G01*
X70125000Y-106949999D01*
G75*
G02*
X70374999Y-106700000I249999J0D01*
G01*
X71625001Y-106700000D01*
G75*
G02*
X71875000Y-106949999I0J-249999D01*
G01*
X71875000Y-107650001D01*
G75*
G02*
X71625001Y-107900000I-249999J0D01*
G01*
G37*
%TD.AperFunction*%
%TD*%
%TO.P,J3,2*%
%TO.N,Net-(J3-Pad2)*%
X71000000Y-112600000D03*
%TO.P,J3,1*%
%TO.N,Net-(J3-Pad1)*%
%TA.AperFunction,ComponentPad*%
G36*
G01*
X71625001Y-115200000D02*
X70374999Y-115200000D01*
G75*
G02*
X70125000Y-114950001I0J249999D01*
G01*
X70125000Y-114249999D01*
G75*
G02*
X70374999Y-114000000I249999J0D01*
G01*
X71625001Y-114000000D01*
G75*
G02*
X71875000Y-114249999I0J-249999D01*
G01*
X71875000Y-114950001D01*
G75*
G02*
X71625001Y-115200000I-249999J0D01*
G01*
G37*
%TD.AperFunction*%
%TD*%
D11*
%TO.P,J9,5*%
%TO.N,+3V3*%
X72800000Y-95200000D03*
%TO.P,J9,4*%
%TO.N,GND*%
X72800000Y-96450000D03*
%TO.P,J9,3*%
%TO.N,xshut_right*%
X72800000Y-97700000D03*
%TO.P,J9,2*%
%TO.N,SDA*%
X72800000Y-98950000D03*
%TO.P,J9,1*%
%TO.N,SCL*%
%TA.AperFunction,ComponentPad*%
G36*
G01*
X73250000Y-100600000D02*
X72350000Y-100600000D01*
G75*
G02*
X72150000Y-100400000I0J200000D01*
G01*
X72150000Y-100000000D01*
G75*
G02*
X72350000Y-99800000I200000J0D01*
G01*
X73250000Y-99800000D01*
G75*
G02*
X73450000Y-100000000I0J-200000D01*
G01*
X73450000Y-100400000D01*
G75*
G02*
X73250000Y-100600000I-200000J0D01*
G01*
G37*
%TD.AperFunction*%
%TD*%
D10*
%TO.P,J7,5*%
%TO.N,+3V3*%
X61000000Y-85200000D03*
%TO.P,J7,4*%
%TO.N,GND*%
X62250000Y-85200000D03*
%TO.P,J7,3*%
%TO.N,SCL*%
X63500000Y-85200000D03*
%TO.P,J7,2*%
%TO.N,SDA*%
X64750000Y-85200000D03*
%TO.P,J7,1*%
%TO.N,xshut_front_right*%
%TA.AperFunction,ComponentPad*%
G36*
G01*
X66400000Y-84750000D02*
X66400000Y-85650000D01*
G75*
G02*
X66200000Y-85850000I-200000J0D01*
G01*
X65800000Y-85850000D01*
G75*
G02*
X65600000Y-85650000I0J200000D01*
G01*
X65600000Y-84750000D01*
G75*
G02*
X65800000Y-84550000I200000J0D01*
G01*
X66200000Y-84550000D01*
G75*
G02*
X66400000Y-84750000I0J-200000D01*
G01*
G37*
%TD.AperFunction*%
%TD*%
D17*
%TO.P,J6,2*%
%TO.N,SDA*%
X32940000Y-103800000D03*
D18*
%TO.P,J6,1*%
%TO.N,SCL*%
X30400000Y-103800000D03*
%TD*%
D17*
%TO.P,J12,2*%
%TO.N,P26UNUSED*%
X54140000Y-122400000D03*
D18*
%TO.P,J12,1*%
%TO.N,GND*%
X51600000Y-122400000D03*
%TD*%
D17*
%TO.P,J11,3*%
%TO.N,+3V3*%
X46600000Y-114600000D03*
%TO.P,J11,2*%
%TO.N,RST*%
X46600000Y-117140000D03*
D18*
%TO.P,J11,1*%
%TO.N,SBWTCK*%
X46600000Y-119680000D03*
%TD*%
D17*
%TO.P,J8,2*%
%TO.N,P13UNUSED*%
X32600000Y-115340000D03*
D18*
%TO.P,J8,1*%
%TO.N,P14UNUSED*%
X32600000Y-112800000D03*
%TD*%
D17*
%TO.P,J10,2*%
%TO.N,Net-(J10-Pad2)*%
X41800000Y-105260000D03*
D18*
%TO.P,J10,1*%
%TO.N,Net-(J10-Pad1)*%
X41800000Y-107800000D03*
%TD*%
D17*
%TO.P,SW2,2*%
%TO.N,Net-(SW2-Pad2)*%
X75200000Y-121940000D03*
D18*
%TO.P,SW2,1*%
%TO.N,Net-(J3-Pad1)*%
X75200000Y-119400000D03*
%TD*%
D19*
%TO.P,TP2,1*%
%TO.N,+5V*%
X66200000Y-103000000D03*
%TD*%
%TO.P,TP1,1*%
%TO.N,+3V3*%
X61800000Y-102800000D03*
%TD*%
D20*
%TO.P,U1,3*%
%TO.N,Net-(C7-Pad1)*%
X44920000Y-102700000D03*
%TO.P,U1,2*%
%TO.N,GND*%
X47460000Y-102700000D03*
%TO.P,U1,1*%
%TO.N,Net-(D5-Pad2)*%
%TA.AperFunction,ComponentPad*%
G36*
G01*
X50900000Y-102050200D02*
X50900000Y-103349800D01*
G75*
G02*
X50649800Y-103600000I-250200J0D01*
G01*
X49350200Y-103600000D01*
G75*
G02*
X49100000Y-103349800I0J250200D01*
G01*
X49100000Y-102050200D01*
G75*
G02*
X49350200Y-101800000I250200J0D01*
G01*
X50649800Y-101800000D01*
G75*
G02*
X50900000Y-102050200I0J-250200D01*
G01*
G37*
%TD.AperFunction*%
%TD*%
D21*
%TO.N,GND*%
X57900000Y-130050000D03*
X47950000Y-135100000D03*
X66900000Y-111000000D03*
X60161000Y-113935000D03*
X62741000Y-113996000D03*
X44750000Y-119500000D03*
X62800000Y-115600000D03*
X62800000Y-124150000D03*
X68800000Y-123200000D03*
X61800000Y-124150000D03*
X48050000Y-131700000D03*
X47950000Y-134100000D03*
X45800000Y-109400000D03*
X44200000Y-109400000D03*
X62200000Y-100800000D03*
X48200000Y-107800000D03*
X56400000Y-111000000D03*
X53850000Y-114450000D03*
X57700000Y-128350000D03*
X57700000Y-127100000D03*
X56500000Y-122700000D03*
X68900000Y-113300000D03*
X35650000Y-132700000D03*
X35650000Y-133731000D03*
X38800000Y-128700000D03*
X70200000Y-132588000D03*
X70200000Y-133550000D03*
X67100000Y-129500000D03*
X70250000Y-128700000D03*
X68500000Y-101200000D03*
X53100000Y-105800000D03*
X51900000Y-105800000D03*
X51900000Y-104700000D03*
X41650000Y-135900000D03*
X41600000Y-136900000D03*
X57600000Y-118200000D03*
X49600000Y-118200000D03*
X38800000Y-129600000D03*
X53100000Y-104700000D03*
X49900000Y-108300000D03*
X68800000Y-124400000D03*
X67700000Y-124400000D03*
%TO.N,+5V*%
X48300000Y-142800000D03*
X55200000Y-142900000D03*
X77000000Y-88300000D03*
X72200000Y-84600000D03*
X33600000Y-84600000D03*
%TO.N,+3V3*%
X39224000Y-131032000D03*
X42780000Y-130778000D03*
X63190000Y-131544000D03*
X65984000Y-131544000D03*
X65063870Y-127638130D03*
X63200000Y-129488000D03*
X75279000Y-95221000D03*
X29500000Y-100000000D03*
%TO.N,xshut_right*%
X70300000Y-97700000D03*
%TD*%
D22*
%TO.N,+5V*%
X48300000Y-139900000D02*
X48200000Y-139800000D01*
X48300000Y-142800000D02*
X48300000Y-139900000D01*
X55200000Y-142900000D02*
X55200000Y-139800000D01*
X72800000Y-88300000D02*
X72800000Y-85600000D01*
X72800000Y-85200000D02*
X72800000Y-85600000D01*
X72200000Y-84600000D02*
X72800000Y-85200000D01*
X33200001Y-84999999D02*
X33600000Y-84600000D01*
X33200000Y-88200000D02*
X33200001Y-84999999D01*
X72800000Y-88300000D02*
X77000000Y-88300000D01*
%TO.N,+3V3*%
X63190000Y-131544000D02*
X65984000Y-131544000D01*
X63264933Y-129437067D02*
X63264933Y-129488000D01*
X65063870Y-127638130D02*
X63264933Y-129437067D01*
X75258000Y-95200000D02*
X75279000Y-95221000D01*
X72800000Y-95200000D02*
X75258000Y-95200000D01*
X33200000Y-100000000D02*
X29500000Y-100000000D01*
X42526000Y-131032000D02*
X42780000Y-130778000D01*
X39224000Y-131032000D02*
X42526000Y-131032000D01*
D23*
%TO.N,xshut_right*%
X72800000Y-97700000D02*
X70300000Y-97700000D01*
%TD*%
%TO.N,GND*%
X75553038Y-80206956D02*
X76085012Y-80367568D01*
X76575652Y-80628444D01*
X77006286Y-80979661D01*
X77360494Y-81407826D01*
X77624795Y-81896641D01*
X77789117Y-82427477D01*
X77847955Y-82987283D01*
X77848001Y-83000530D01*
X77848000Y-141992562D01*
X77793044Y-142553038D01*
X77632432Y-143085012D01*
X77371552Y-143575657D01*
X77020336Y-144006288D01*
X76592177Y-144360493D01*
X76103358Y-144624796D01*
X75572523Y-144789117D01*
X75012717Y-144847955D01*
X74999757Y-144848000D01*
X31007438Y-144848000D01*
X30446962Y-144793044D01*
X29914988Y-144632432D01*
X29424343Y-144371552D01*
X28993712Y-144020336D01*
X28639507Y-143592177D01*
X28541579Y-143411062D01*
X33597000Y-143411062D01*
X33597000Y-143588938D01*
X33631702Y-143763395D01*
X33699772Y-143927731D01*
X33798594Y-144075629D01*
X33924371Y-144201406D01*
X34072269Y-144300228D01*
X34236605Y-144368298D01*
X34411062Y-144403000D01*
X34588938Y-144403000D01*
X34763395Y-144368298D01*
X34927731Y-144300228D01*
X35075629Y-144201406D01*
X35201406Y-144075629D01*
X35300228Y-143927731D01*
X35368298Y-143763395D01*
X35403000Y-143588938D01*
X35403000Y-143411062D01*
X35368298Y-143236605D01*
X35300228Y-143072269D01*
X35201406Y-142924371D01*
X35075629Y-142798594D01*
X34927731Y-142699772D01*
X34763395Y-142631702D01*
X34588938Y-142597000D01*
X34411062Y-142597000D01*
X34236605Y-142631702D01*
X34072269Y-142699772D01*
X33924371Y-142798594D01*
X33798594Y-142924371D01*
X33699772Y-143072269D01*
X33631702Y-143236605D01*
X33597000Y-143411062D01*
X28541579Y-143411062D01*
X28375204Y-143103358D01*
X28210883Y-142572523D01*
X28152045Y-142012717D01*
X28152000Y-141999757D01*
X28152000Y-139350000D01*
X47471418Y-139350000D01*
X47471418Y-140250000D01*
X47481575Y-140353121D01*
X47511654Y-140452280D01*
X47560500Y-140543664D01*
X47626236Y-140623764D01*
X47706336Y-140689500D01*
X47719001Y-140696269D01*
X47719000Y-142360962D01*
X47655741Y-142455636D01*
X47600938Y-142587942D01*
X47573000Y-142728397D01*
X47573000Y-142871603D01*
X47600938Y-143012058D01*
X47655741Y-143144364D01*
X47735302Y-143263436D01*
X47836564Y-143364698D01*
X47955636Y-143444259D01*
X48087942Y-143499062D01*
X48228397Y-143527000D01*
X48371603Y-143527000D01*
X48512058Y-143499062D01*
X48644364Y-143444259D01*
X48763436Y-143364698D01*
X48864698Y-143263436D01*
X48944259Y-143144364D01*
X48999062Y-143012058D01*
X49027000Y-142871603D01*
X49027000Y-142728397D01*
X48999062Y-142587942D01*
X48944259Y-142455636D01*
X48881000Y-142360962D01*
X48881000Y-140502647D01*
X48933447Y-140566554D01*
X49044148Y-140657403D01*
X49170444Y-140724910D01*
X49307484Y-140766480D01*
X49450000Y-140780517D01*
X49592517Y-140766480D01*
X49729557Y-140724910D01*
X49855853Y-140657403D01*
X49966554Y-140566554D01*
X50057403Y-140455853D01*
X50124910Y-140329557D01*
X50166480Y-140192517D01*
X50177000Y-140085708D01*
X50177000Y-139514292D01*
X50166480Y-139407483D01*
X50149043Y-139350000D01*
X54471418Y-139350000D01*
X54471418Y-140250000D01*
X54481575Y-140353121D01*
X54511654Y-140452280D01*
X54560500Y-140543664D01*
X54619001Y-140614948D01*
X54619000Y-142460962D01*
X54555741Y-142555636D01*
X54500938Y-142687942D01*
X54473000Y-142828397D01*
X54473000Y-142971603D01*
X54500938Y-143112058D01*
X54555741Y-143244364D01*
X54635302Y-143363436D01*
X54736564Y-143464698D01*
X54855636Y-143544259D01*
X54987942Y-143599062D01*
X55128397Y-143627000D01*
X55271603Y-143627000D01*
X55412058Y-143599062D01*
X55544364Y-143544259D01*
X55663436Y-143464698D01*
X55764698Y-143363436D01*
X55844259Y-143244364D01*
X55899062Y-143112058D01*
X55927000Y-142971603D01*
X55927000Y-142828397D01*
X55899062Y-142687942D01*
X55844259Y-142555636D01*
X55781000Y-142460962D01*
X55781000Y-140614947D01*
X55839500Y-140543664D01*
X55869145Y-140488202D01*
X55933447Y-140566554D01*
X56044148Y-140657403D01*
X56170444Y-140724910D01*
X56307484Y-140766480D01*
X56450000Y-140780517D01*
X56592517Y-140766480D01*
X56729557Y-140724910D01*
X56855853Y-140657403D01*
X56966554Y-140566554D01*
X57057403Y-140455853D01*
X57124910Y-140329557D01*
X57166480Y-140192517D01*
X57177000Y-140085708D01*
X57177000Y-139514292D01*
X57166480Y-139407483D01*
X57124910Y-139270443D01*
X57057403Y-139144147D01*
X56966553Y-139033446D01*
X56855852Y-138942597D01*
X56729556Y-138875090D01*
X56592516Y-138833520D01*
X56450000Y-138819483D01*
X56307483Y-138833520D01*
X56170443Y-138875090D01*
X56044147Y-138942597D01*
X55933446Y-139033447D01*
X55869145Y-139111798D01*
X55839500Y-139056336D01*
X55773764Y-138976236D01*
X55693664Y-138910500D01*
X55602280Y-138861654D01*
X55503121Y-138831575D01*
X55400000Y-138821418D01*
X55000000Y-138821418D01*
X54896879Y-138831575D01*
X54797720Y-138861654D01*
X54706336Y-138910500D01*
X54626236Y-138976236D01*
X54560500Y-139056336D01*
X54511654Y-139147720D01*
X54481575Y-139246879D01*
X54471418Y-139350000D01*
X50149043Y-139350000D01*
X50124910Y-139270443D01*
X50057403Y-139144147D01*
X49966553Y-139033446D01*
X49855852Y-138942597D01*
X49729556Y-138875090D01*
X49592516Y-138833520D01*
X49450000Y-138819483D01*
X49307483Y-138833520D01*
X49170443Y-138875090D01*
X49044147Y-138942597D01*
X48933446Y-139033447D01*
X48869145Y-139111798D01*
X48839500Y-139056336D01*
X48773764Y-138976236D01*
X48693664Y-138910500D01*
X48602280Y-138861654D01*
X48503121Y-138831575D01*
X48400000Y-138821418D01*
X48000000Y-138821418D01*
X47896879Y-138831575D01*
X47797720Y-138861654D01*
X47706336Y-138910500D01*
X47626236Y-138976236D01*
X47560500Y-139056336D01*
X47511654Y-139147720D01*
X47481575Y-139246879D01*
X47471418Y-139350000D01*
X28152000Y-139350000D01*
X28152000Y-132150000D01*
X30621418Y-132150000D01*
X30621418Y-134250000D01*
X30627732Y-134314103D01*
X30646430Y-134375743D01*
X30676794Y-134432550D01*
X30717657Y-134482343D01*
X30767450Y-134523206D01*
X30824257Y-134553570D01*
X30885897Y-134572268D01*
X30950000Y-134578582D01*
X31259650Y-134578582D01*
X31122213Y-134670414D01*
X30930414Y-134862213D01*
X30779718Y-135087746D01*
X30675917Y-135338344D01*
X30623000Y-135604377D01*
X30623000Y-135875623D01*
X30675917Y-136141656D01*
X30779718Y-136392254D01*
X30930414Y-136617787D01*
X31122213Y-136809586D01*
X31347746Y-136960282D01*
X31598344Y-137064083D01*
X31864377Y-137117000D01*
X32135623Y-137117000D01*
X32401656Y-137064083D01*
X32652254Y-136960282D01*
X32877787Y-136809586D01*
X33069586Y-136617787D01*
X33220282Y-136392254D01*
X33324083Y-136141656D01*
X33377000Y-135875623D01*
X33377000Y-135604377D01*
X33324083Y-135338344D01*
X33220282Y-135087746D01*
X33069586Y-134862213D01*
X32920373Y-134713000D01*
X72571418Y-134713000D01*
X72571418Y-136813000D01*
X72577732Y-136877103D01*
X72596430Y-136938743D01*
X72626794Y-136995550D01*
X72667657Y-137045343D01*
X72717450Y-137086206D01*
X72774257Y-137116570D01*
X72835897Y-137135268D01*
X72900000Y-137141582D01*
X75000000Y-137141582D01*
X75064103Y-137135268D01*
X75125743Y-137116570D01*
X75182550Y-137086206D01*
X75232343Y-137045343D01*
X75273206Y-136995550D01*
X75303570Y-136938743D01*
X75322268Y-136877103D01*
X75328582Y-136813000D01*
X75328582Y-134713000D01*
X75322268Y-134648897D01*
X75303570Y-134587257D01*
X75273206Y-134530450D01*
X75232343Y-134480657D01*
X75182550Y-134439794D01*
X75125743Y-134409430D01*
X75064103Y-134390732D01*
X75000000Y-134384418D01*
X74690350Y-134384418D01*
X74827787Y-134292586D01*
X75019586Y-134100787D01*
X75170282Y-133875254D01*
X75274083Y-133624656D01*
X75327000Y-133358623D01*
X75327000Y-133087377D01*
X75274083Y-132821344D01*
X75170282Y-132570746D01*
X75019586Y-132345213D01*
X74827787Y-132153414D01*
X74602254Y-132002718D01*
X74351656Y-131898917D01*
X74085623Y-131846000D01*
X73814377Y-131846000D01*
X73548344Y-131898917D01*
X73297746Y-132002718D01*
X73072213Y-132153414D01*
X72880414Y-132345213D01*
X72729718Y-132570746D01*
X72625917Y-132821344D01*
X72573000Y-133087377D01*
X72573000Y-133358623D01*
X72625917Y-133624656D01*
X72729718Y-133875254D01*
X72880414Y-134100787D01*
X73072213Y-134292586D01*
X73209650Y-134384418D01*
X72900000Y-134384418D01*
X72835897Y-134390732D01*
X72774257Y-134409430D01*
X72717450Y-134439794D01*
X72667657Y-134480657D01*
X72626794Y-134530450D01*
X72596430Y-134587257D01*
X72577732Y-134648897D01*
X72571418Y-134713000D01*
X32920373Y-134713000D01*
X32877787Y-134670414D01*
X32740350Y-134578582D01*
X33050000Y-134578582D01*
X33114103Y-134572268D01*
X33175743Y-134553570D01*
X33232550Y-134523206D01*
X33282343Y-134482343D01*
X33323206Y-134432550D01*
X33353570Y-134375743D01*
X33372268Y-134314103D01*
X33378582Y-134250000D01*
X33378582Y-132150000D01*
X33372268Y-132085897D01*
X33353570Y-132024257D01*
X33323206Y-131967450D01*
X33282343Y-131917657D01*
X33232550Y-131876794D01*
X33175743Y-131846430D01*
X33114103Y-131827732D01*
X33050000Y-131821418D01*
X30950000Y-131821418D01*
X30885897Y-131827732D01*
X30824257Y-131846430D01*
X30767450Y-131876794D01*
X30717657Y-131917657D01*
X30676794Y-131967450D01*
X30646430Y-132024257D01*
X30627732Y-132085897D01*
X30621418Y-132150000D01*
X28152000Y-132150000D01*
X28152000Y-130960397D01*
X38497000Y-130960397D01*
X38497000Y-131103603D01*
X38524938Y-131244058D01*
X38579741Y-131376364D01*
X38659302Y-131495436D01*
X38760564Y-131596698D01*
X38879636Y-131676259D01*
X39011942Y-131731062D01*
X39152397Y-131759000D01*
X39295603Y-131759000D01*
X39436058Y-131731062D01*
X39568364Y-131676259D01*
X39663038Y-131613000D01*
X42497460Y-131613000D01*
X42526000Y-131615811D01*
X42554540Y-131613000D01*
X42639896Y-131604593D01*
X42749415Y-131571371D01*
X42850348Y-131517421D01*
X42869924Y-131501356D01*
X42992058Y-131477062D01*
X43003320Y-131472397D01*
X62463000Y-131472397D01*
X62463000Y-131615603D01*
X62490938Y-131756058D01*
X62545741Y-131888364D01*
X62625302Y-132007436D01*
X62726564Y-132108698D01*
X62845636Y-132188259D01*
X62977942Y-132243062D01*
X63118397Y-132271000D01*
X63261603Y-132271000D01*
X63402058Y-132243062D01*
X63534364Y-132188259D01*
X63629038Y-132125000D01*
X65544962Y-132125000D01*
X65639636Y-132188259D01*
X65771942Y-132243062D01*
X65912397Y-132271000D01*
X66055603Y-132271000D01*
X66196058Y-132243062D01*
X66328364Y-132188259D01*
X66447436Y-132108698D01*
X66548698Y-132007436D01*
X66628259Y-131888364D01*
X66683062Y-131756058D01*
X66711000Y-131615603D01*
X66711000Y-131472397D01*
X66683062Y-131331942D01*
X66628259Y-131199636D01*
X66548698Y-131080564D01*
X66447436Y-130979302D01*
X66328364Y-130899741D01*
X66196058Y-130844938D01*
X66055603Y-130817000D01*
X65912397Y-130817000D01*
X65771942Y-130844938D01*
X65639636Y-130899741D01*
X65544962Y-130963000D01*
X63629038Y-130963000D01*
X63534364Y-130899741D01*
X63402058Y-130844938D01*
X63261603Y-130817000D01*
X63118397Y-130817000D01*
X62977942Y-130844938D01*
X62845636Y-130899741D01*
X62726564Y-130979302D01*
X62625302Y-131080564D01*
X62545741Y-131199636D01*
X62490938Y-131331942D01*
X62463000Y-131472397D01*
X43003320Y-131472397D01*
X43124364Y-131422259D01*
X43243436Y-131342698D01*
X43344698Y-131241436D01*
X43424259Y-131122364D01*
X43479062Y-130990058D01*
X43507000Y-130849603D01*
X43507000Y-130706397D01*
X43479062Y-130565942D01*
X43424259Y-130433636D01*
X43344698Y-130314564D01*
X43243436Y-130213302D01*
X43124364Y-130133741D01*
X42992058Y-130078938D01*
X42851603Y-130051000D01*
X42708397Y-130051000D01*
X42567942Y-130078938D01*
X42435636Y-130133741D01*
X42316564Y-130213302D01*
X42215302Y-130314564D01*
X42135741Y-130433636D01*
X42128549Y-130451000D01*
X39663038Y-130451000D01*
X39568364Y-130387741D01*
X39436058Y-130332938D01*
X39295603Y-130305000D01*
X39152397Y-130305000D01*
X39011942Y-130332938D01*
X38879636Y-130387741D01*
X38760564Y-130467302D01*
X38659302Y-130568564D01*
X38579741Y-130687636D01*
X38524938Y-130819942D01*
X38497000Y-130960397D01*
X28152000Y-130960397D01*
X28152000Y-125450000D01*
X30621418Y-125450000D01*
X30621418Y-127550000D01*
X30627732Y-127614103D01*
X30646430Y-127675743D01*
X30676794Y-127732550D01*
X30717657Y-127782343D01*
X30767450Y-127823206D01*
X30824257Y-127853570D01*
X30885897Y-127872268D01*
X30950000Y-127878582D01*
X31259650Y-127878582D01*
X31122213Y-127970414D01*
X30930414Y-128162213D01*
X30779718Y-128387746D01*
X30675917Y-128638344D01*
X30623000Y-128904377D01*
X30623000Y-129175623D01*
X30675917Y-129441656D01*
X30779718Y-129692254D01*
X30930414Y-129917787D01*
X31122213Y-130109586D01*
X31347746Y-130260282D01*
X31598344Y-130364083D01*
X31864377Y-130417000D01*
X32135623Y-130417000D01*
X32401656Y-130364083D01*
X32652254Y-130260282D01*
X32877787Y-130109586D01*
X33069586Y-129917787D01*
X33220282Y-129692254D01*
X33324083Y-129441656D01*
X33329107Y-129416397D01*
X62473000Y-129416397D01*
X62473000Y-129559603D01*
X62500938Y-129700058D01*
X62555741Y-129832364D01*
X62635302Y-129951436D01*
X62736564Y-130052698D01*
X62855636Y-130132259D01*
X62987942Y-130187062D01*
X63128397Y-130215000D01*
X63271603Y-130215000D01*
X63412058Y-130187062D01*
X63544364Y-130132259D01*
X63663436Y-130052698D01*
X63764698Y-129951436D01*
X63844259Y-129832364D01*
X63899062Y-129700058D01*
X63917799Y-129605858D01*
X65164252Y-128359405D01*
X65275928Y-128337192D01*
X65408234Y-128282389D01*
X65527306Y-128202828D01*
X65628568Y-128101566D01*
X65703113Y-127990000D01*
X72571418Y-127990000D01*
X72571418Y-130090000D01*
X72577732Y-130154103D01*
X72596430Y-130215743D01*
X72626794Y-130272550D01*
X72667657Y-130322343D01*
X72717450Y-130363206D01*
X72774257Y-130393570D01*
X72835897Y-130412268D01*
X72900000Y-130418582D01*
X75000000Y-130418582D01*
X75064103Y-130412268D01*
X75125743Y-130393570D01*
X75182550Y-130363206D01*
X75232343Y-130322343D01*
X75273206Y-130272550D01*
X75303570Y-130215743D01*
X75322268Y-130154103D01*
X75328582Y-130090000D01*
X75328582Y-127990000D01*
X75322268Y-127925897D01*
X75303570Y-127864257D01*
X75273206Y-127807450D01*
X75232343Y-127757657D01*
X75182550Y-127716794D01*
X75125743Y-127686430D01*
X75064103Y-127667732D01*
X75000000Y-127661418D01*
X74690350Y-127661418D01*
X74827787Y-127569586D01*
X75019586Y-127377787D01*
X75170282Y-127152254D01*
X75274083Y-126901656D01*
X75327000Y-126635623D01*
X75327000Y-126364377D01*
X75274083Y-126098344D01*
X75170282Y-125847746D01*
X75019586Y-125622213D01*
X74827787Y-125430414D01*
X74602254Y-125279718D01*
X74351656Y-125175917D01*
X74085623Y-125123000D01*
X73814377Y-125123000D01*
X73548344Y-125175917D01*
X73297746Y-125279718D01*
X73072213Y-125430414D01*
X72880414Y-125622213D01*
X72729718Y-125847746D01*
X72625917Y-126098344D01*
X72573000Y-126364377D01*
X72573000Y-126635623D01*
X72625917Y-126901656D01*
X72729718Y-127152254D01*
X72880414Y-127377787D01*
X73072213Y-127569586D01*
X73209650Y-127661418D01*
X72900000Y-127661418D01*
X72835897Y-127667732D01*
X72774257Y-127686430D01*
X72717450Y-127716794D01*
X72667657Y-127757657D01*
X72626794Y-127807450D01*
X72596430Y-127864257D01*
X72577732Y-127925897D01*
X72571418Y-127990000D01*
X65703113Y-127990000D01*
X65708129Y-127982494D01*
X65762932Y-127850188D01*
X65790870Y-127709733D01*
X65790870Y-127566527D01*
X65762932Y-127426072D01*
X65708129Y-127293766D01*
X65628568Y-127174694D01*
X65527306Y-127073432D01*
X65408234Y-126993871D01*
X65275928Y-126939068D01*
X65135473Y-126911130D01*
X64992267Y-126911130D01*
X64851812Y-126939068D01*
X64719506Y-126993871D01*
X64600434Y-127073432D01*
X64499172Y-127174694D01*
X64419611Y-127293766D01*
X64364808Y-127426072D01*
X64342595Y-127537748D01*
X63117095Y-128763248D01*
X62987942Y-128788938D01*
X62855636Y-128843741D01*
X62736564Y-128923302D01*
X62635302Y-129024564D01*
X62555741Y-129143636D01*
X62500938Y-129275942D01*
X62473000Y-129416397D01*
X33329107Y-129416397D01*
X33377000Y-129175623D01*
X33377000Y-128904377D01*
X33324083Y-128638344D01*
X33220282Y-128387746D01*
X33069586Y-128162213D01*
X32877787Y-127970414D01*
X32740350Y-127878582D01*
X33050000Y-127878582D01*
X33114103Y-127872268D01*
X33175743Y-127853570D01*
X33232550Y-127823206D01*
X33282343Y-127782343D01*
X33323206Y-127732550D01*
X33353570Y-127675743D01*
X33372268Y-127614103D01*
X33378582Y-127550000D01*
X33378582Y-125450000D01*
X33372268Y-125385897D01*
X33353570Y-125324257D01*
X33323206Y-125267450D01*
X33282343Y-125217657D01*
X33232550Y-125176794D01*
X33175743Y-125146430D01*
X33114103Y-125127732D01*
X33050000Y-125121418D01*
X30950000Y-125121418D01*
X30885897Y-125127732D01*
X30824257Y-125146430D01*
X30767450Y-125176794D01*
X30717657Y-125217657D01*
X30676794Y-125267450D01*
X30646430Y-125324257D01*
X30627732Y-125385897D01*
X30621418Y-125450000D01*
X28152000Y-125450000D01*
X28152000Y-122284076D01*
X52963000Y-122284076D01*
X52963000Y-122515924D01*
X53008231Y-122743318D01*
X53096956Y-122957519D01*
X53225764Y-123150294D01*
X53389706Y-123314236D01*
X53582481Y-123443044D01*
X53796682Y-123531769D01*
X54024076Y-123577000D01*
X54255924Y-123577000D01*
X54483318Y-123531769D01*
X54697519Y-123443044D01*
X54890294Y-123314236D01*
X55054236Y-123150294D01*
X55183044Y-122957519D01*
X55271769Y-122743318D01*
X55317000Y-122515924D01*
X55317000Y-122284076D01*
X55271769Y-122056682D01*
X55183044Y-121842481D01*
X55170747Y-121824076D01*
X74023000Y-121824076D01*
X74023000Y-122055924D01*
X74068231Y-122283318D01*
X74156956Y-122497519D01*
X74285764Y-122690294D01*
X74449706Y-122854236D01*
X74642481Y-122983044D01*
X74856682Y-123071769D01*
X75084076Y-123117000D01*
X75315924Y-123117000D01*
X75543318Y-123071769D01*
X75757519Y-122983044D01*
X75950294Y-122854236D01*
X76114236Y-122690294D01*
X76243044Y-122497519D01*
X76331769Y-122283318D01*
X76377000Y-122055924D01*
X76377000Y-121824076D01*
X76331769Y-121596682D01*
X76243044Y-121382481D01*
X76114236Y-121189706D01*
X75950294Y-121025764D01*
X75757519Y-120896956D01*
X75543318Y-120808231D01*
X75315924Y-120763000D01*
X75084076Y-120763000D01*
X74856682Y-120808231D01*
X74642481Y-120896956D01*
X74449706Y-121025764D01*
X74285764Y-121189706D01*
X74156956Y-121382481D01*
X74068231Y-121596682D01*
X74023000Y-121824076D01*
X55170747Y-121824076D01*
X55054236Y-121649706D01*
X54890294Y-121485764D01*
X54697519Y-121356956D01*
X54483318Y-121268231D01*
X54255924Y-121223000D01*
X54024076Y-121223000D01*
X53796682Y-121268231D01*
X53582481Y-121356956D01*
X53389706Y-121485764D01*
X53225764Y-121649706D01*
X53096956Y-121842481D01*
X53008231Y-122056682D01*
X52963000Y-122284076D01*
X28152000Y-122284076D01*
X28152000Y-118830000D01*
X45421418Y-118830000D01*
X45421418Y-120530000D01*
X45427732Y-120594103D01*
X45446430Y-120655743D01*
X45476794Y-120712550D01*
X45517657Y-120762343D01*
X45567450Y-120803206D01*
X45624257Y-120833570D01*
X45685897Y-120852268D01*
X45750000Y-120858582D01*
X47450000Y-120858582D01*
X47514103Y-120852268D01*
X47575743Y-120833570D01*
X47632550Y-120803206D01*
X47682343Y-120762343D01*
X47723206Y-120712550D01*
X47753570Y-120655743D01*
X47772268Y-120594103D01*
X47778582Y-120530000D01*
X47778582Y-118830000D01*
X47772268Y-118765897D01*
X47753570Y-118704257D01*
X47723206Y-118647450D01*
X47682343Y-118597657D01*
X47632550Y-118556794D01*
X47619840Y-118550000D01*
X74021418Y-118550000D01*
X74021418Y-120250000D01*
X74027732Y-120314103D01*
X74046430Y-120375743D01*
X74076794Y-120432550D01*
X74117657Y-120482343D01*
X74167450Y-120523206D01*
X74224257Y-120553570D01*
X74285897Y-120572268D01*
X74350000Y-120578582D01*
X76050000Y-120578582D01*
X76114103Y-120572268D01*
X76175743Y-120553570D01*
X76232550Y-120523206D01*
X76282343Y-120482343D01*
X76323206Y-120432550D01*
X76353570Y-120375743D01*
X76372268Y-120314103D01*
X76378582Y-120250000D01*
X76378582Y-118550000D01*
X76372268Y-118485897D01*
X76353570Y-118424257D01*
X76323206Y-118367450D01*
X76282343Y-118317657D01*
X76232550Y-118276794D01*
X76175743Y-118246430D01*
X76114103Y-118227732D01*
X76050000Y-118221418D01*
X74350000Y-118221418D01*
X74285897Y-118227732D01*
X74224257Y-118246430D01*
X74167450Y-118276794D01*
X74117657Y-118317657D01*
X74076794Y-118367450D01*
X74046430Y-118424257D01*
X74027732Y-118485897D01*
X74021418Y-118550000D01*
X47619840Y-118550000D01*
X47575743Y-118526430D01*
X47514103Y-118507732D01*
X47450000Y-118501418D01*
X45750000Y-118501418D01*
X45685897Y-118507732D01*
X45624257Y-118526430D01*
X45567450Y-118556794D01*
X45517657Y-118597657D01*
X45476794Y-118647450D01*
X45446430Y-118704257D01*
X45427732Y-118765897D01*
X45421418Y-118830000D01*
X28152000Y-118830000D01*
X28152000Y-117024076D01*
X45423000Y-117024076D01*
X45423000Y-117255924D01*
X45468231Y-117483318D01*
X45556956Y-117697519D01*
X45685764Y-117890294D01*
X45849706Y-118054236D01*
X46042481Y-118183044D01*
X46256682Y-118271769D01*
X46484076Y-118317000D01*
X46715924Y-118317000D01*
X46943318Y-118271769D01*
X47157519Y-118183044D01*
X47350294Y-118054236D01*
X47514236Y-117890294D01*
X47643044Y-117697519D01*
X47731769Y-117483318D01*
X47777000Y-117255924D01*
X47777000Y-117024076D01*
X47731769Y-116796682D01*
X47643044Y-116582481D01*
X47514236Y-116389706D01*
X47350294Y-116225764D01*
X47157519Y-116096956D01*
X46943318Y-116008231D01*
X46715924Y-115963000D01*
X46484076Y-115963000D01*
X46256682Y-116008231D01*
X46042481Y-116096956D01*
X45849706Y-116225764D01*
X45685764Y-116389706D01*
X45556956Y-116582481D01*
X45468231Y-116796682D01*
X45423000Y-117024076D01*
X28152000Y-117024076D01*
X28152000Y-115224076D01*
X31423000Y-115224076D01*
X31423000Y-115455924D01*
X31468231Y-115683318D01*
X31556956Y-115897519D01*
X31685764Y-116090294D01*
X31849706Y-116254236D01*
X32042481Y-116383044D01*
X32256682Y-116471769D01*
X32484076Y-116517000D01*
X32715924Y-116517000D01*
X32943318Y-116471769D01*
X33157519Y-116383044D01*
X33350294Y-116254236D01*
X33514236Y-116090294D01*
X33643044Y-115897519D01*
X33731769Y-115683318D01*
X33777000Y-115455924D01*
X33777000Y-115224076D01*
X33731769Y-114996682D01*
X33643044Y-114782481D01*
X33514236Y-114589706D01*
X33408606Y-114484076D01*
X45423000Y-114484076D01*
X45423000Y-114715924D01*
X45468231Y-114943318D01*
X45556956Y-115157519D01*
X45685764Y-115350294D01*
X45849706Y-115514236D01*
X46042481Y-115643044D01*
X46256682Y-115731769D01*
X46484076Y-115777000D01*
X46715924Y-115777000D01*
X46943318Y-115731769D01*
X47157519Y-115643044D01*
X47350294Y-115514236D01*
X47514236Y-115350294D01*
X47643044Y-115157519D01*
X47731769Y-114943318D01*
X47777000Y-114715924D01*
X47777000Y-114484076D01*
X47731769Y-114256682D01*
X47729001Y-114249999D01*
X69796418Y-114249999D01*
X69796418Y-114950001D01*
X69807535Y-115062877D01*
X69840460Y-115171414D01*
X69893926Y-115271443D01*
X69965880Y-115359120D01*
X70053557Y-115431074D01*
X70153586Y-115484540D01*
X70262123Y-115517465D01*
X70374999Y-115528582D01*
X71625001Y-115528582D01*
X71737877Y-115517465D01*
X71846414Y-115484540D01*
X71946443Y-115431074D01*
X72034120Y-115359120D01*
X72106074Y-115271443D01*
X72159540Y-115171414D01*
X72192465Y-115062877D01*
X72203582Y-114950001D01*
X72203582Y-114249999D01*
X72192465Y-114137123D01*
X72159540Y-114028586D01*
X72106074Y-113928557D01*
X72034120Y-113840880D01*
X71946443Y-113768926D01*
X71846414Y-113715460D01*
X71737877Y-113682535D01*
X71625001Y-113671418D01*
X70374999Y-113671418D01*
X70262123Y-113682535D01*
X70153586Y-113715460D01*
X70053557Y-113768926D01*
X69965880Y-113840880D01*
X69893926Y-113928557D01*
X69840460Y-114028586D01*
X69807535Y-114137123D01*
X69796418Y-114249999D01*
X47729001Y-114249999D01*
X47643044Y-114042481D01*
X47514236Y-113849706D01*
X47350294Y-113685764D01*
X47157519Y-113556956D01*
X46943318Y-113468231D01*
X46715924Y-113423000D01*
X46484076Y-113423000D01*
X46256682Y-113468231D01*
X46042481Y-113556956D01*
X45849706Y-113685764D01*
X45685764Y-113849706D01*
X45556956Y-114042481D01*
X45468231Y-114256682D01*
X45423000Y-114484076D01*
X33408606Y-114484076D01*
X33350294Y-114425764D01*
X33157519Y-114296956D01*
X32943318Y-114208231D01*
X32715924Y-114163000D01*
X32484076Y-114163000D01*
X32256682Y-114208231D01*
X32042481Y-114296956D01*
X31849706Y-114425764D01*
X31685764Y-114589706D01*
X31556956Y-114782481D01*
X31468231Y-114996682D01*
X31423000Y-115224076D01*
X28152000Y-115224076D01*
X28152000Y-111950000D01*
X31421418Y-111950000D01*
X31421418Y-113650000D01*
X31427732Y-113714103D01*
X31446430Y-113775743D01*
X31476794Y-113832550D01*
X31517657Y-113882343D01*
X31567450Y-113923206D01*
X31624257Y-113953570D01*
X31685897Y-113972268D01*
X31750000Y-113978582D01*
X33450000Y-113978582D01*
X33514103Y-113972268D01*
X33575743Y-113953570D01*
X33632550Y-113923206D01*
X33682343Y-113882343D01*
X33723206Y-113832550D01*
X33753570Y-113775743D01*
X33772268Y-113714103D01*
X33778582Y-113650000D01*
X33778582Y-112600000D01*
X69793515Y-112600000D01*
X69811413Y-112781724D01*
X69864420Y-112956464D01*
X69950499Y-113117505D01*
X70066341Y-113258659D01*
X70207495Y-113374501D01*
X70368536Y-113460580D01*
X70543276Y-113513587D01*
X70679462Y-113527000D01*
X71320538Y-113527000D01*
X71456724Y-113513587D01*
X71631464Y-113460580D01*
X71792505Y-113374501D01*
X71933659Y-113258659D01*
X72049501Y-113117505D01*
X72135580Y-112956464D01*
X72188587Y-112781724D01*
X72206485Y-112600000D01*
X72188587Y-112418276D01*
X72135580Y-112243536D01*
X72049501Y-112082495D01*
X71933659Y-111941341D01*
X71792505Y-111825499D01*
X71631464Y-111739420D01*
X71456724Y-111686413D01*
X71320538Y-111673000D01*
X70679462Y-111673000D01*
X70543276Y-111686413D01*
X70368536Y-111739420D01*
X70207495Y-111825499D01*
X70066341Y-111941341D01*
X69950499Y-112082495D01*
X69864420Y-112243536D01*
X69811413Y-112418276D01*
X69793515Y-112600000D01*
X33778582Y-112600000D01*
X33778582Y-111950000D01*
X33772268Y-111885897D01*
X33753570Y-111824257D01*
X33723206Y-111767450D01*
X33682343Y-111717657D01*
X33632550Y-111676794D01*
X33575743Y-111646430D01*
X33514103Y-111627732D01*
X33450000Y-111621418D01*
X31750000Y-111621418D01*
X31685897Y-111627732D01*
X31624257Y-111646430D01*
X31567450Y-111676794D01*
X31517657Y-111717657D01*
X31476794Y-111767450D01*
X31446430Y-111824257D01*
X31427732Y-111885897D01*
X31421418Y-111950000D01*
X28152000Y-111950000D01*
X28152000Y-106950000D01*
X40621418Y-106950000D01*
X40621418Y-108650000D01*
X40627732Y-108714103D01*
X40646430Y-108775743D01*
X40676794Y-108832550D01*
X40717657Y-108882343D01*
X40767450Y-108923206D01*
X40824257Y-108953570D01*
X40885897Y-108972268D01*
X40950000Y-108978582D01*
X42650000Y-108978582D01*
X42714103Y-108972268D01*
X42775743Y-108953570D01*
X42832550Y-108923206D01*
X42882343Y-108882343D01*
X42923206Y-108832550D01*
X42953570Y-108775743D01*
X42972268Y-108714103D01*
X42978582Y-108650000D01*
X42978582Y-106950000D01*
X42978582Y-106949999D01*
X69796418Y-106949999D01*
X69796418Y-107650001D01*
X69807535Y-107762877D01*
X69840460Y-107871414D01*
X69893926Y-107971443D01*
X69965880Y-108059120D01*
X70053557Y-108131074D01*
X70153586Y-108184540D01*
X70262123Y-108217465D01*
X70374999Y-108228582D01*
X71625001Y-108228582D01*
X71737877Y-108217465D01*
X71846414Y-108184540D01*
X71946443Y-108131074D01*
X72034120Y-108059120D01*
X72106074Y-107971443D01*
X72159540Y-107871414D01*
X72192465Y-107762877D01*
X72203582Y-107650001D01*
X72203582Y-106949999D01*
X72192465Y-106837123D01*
X72159540Y-106728586D01*
X72106074Y-106628557D01*
X72034120Y-106540880D01*
X71946443Y-106468926D01*
X71846414Y-106415460D01*
X71737877Y-106382535D01*
X71625001Y-106371418D01*
X70374999Y-106371418D01*
X70262123Y-106382535D01*
X70153586Y-106415460D01*
X70053557Y-106468926D01*
X69965880Y-106540880D01*
X69893926Y-106628557D01*
X69840460Y-106728586D01*
X69807535Y-106837123D01*
X69796418Y-106949999D01*
X42978582Y-106949999D01*
X42972268Y-106885897D01*
X42953570Y-106824257D01*
X42923206Y-106767450D01*
X42882343Y-106717657D01*
X42832550Y-106676794D01*
X42775743Y-106646430D01*
X42714103Y-106627732D01*
X42650000Y-106621418D01*
X40950000Y-106621418D01*
X40885897Y-106627732D01*
X40824257Y-106646430D01*
X40767450Y-106676794D01*
X40717657Y-106717657D01*
X40676794Y-106767450D01*
X40646430Y-106824257D01*
X40627732Y-106885897D01*
X40621418Y-106950000D01*
X28152000Y-106950000D01*
X28152000Y-105144076D01*
X40623000Y-105144076D01*
X40623000Y-105375924D01*
X40668231Y-105603318D01*
X40756956Y-105817519D01*
X40885764Y-106010294D01*
X41049706Y-106174236D01*
X41242481Y-106303044D01*
X41456682Y-106391769D01*
X41684076Y-106437000D01*
X41915924Y-106437000D01*
X42143318Y-106391769D01*
X42357519Y-106303044D01*
X42550294Y-106174236D01*
X42714236Y-106010294D01*
X42843044Y-105817519D01*
X42931769Y-105603318D01*
X42977000Y-105375924D01*
X42977000Y-105144076D01*
X42931769Y-104916682D01*
X42843044Y-104702481D01*
X42714236Y-104509706D01*
X42550294Y-104345764D01*
X42357519Y-104216956D01*
X42143318Y-104128231D01*
X41915924Y-104083000D01*
X41684076Y-104083000D01*
X41456682Y-104128231D01*
X41242481Y-104216956D01*
X41049706Y-104345764D01*
X40885764Y-104509706D01*
X40756956Y-104702481D01*
X40668231Y-104916682D01*
X40623000Y-105144076D01*
X28152000Y-105144076D01*
X28152000Y-102950000D01*
X29221418Y-102950000D01*
X29221418Y-104650000D01*
X29227732Y-104714103D01*
X29246430Y-104775743D01*
X29276794Y-104832550D01*
X29317657Y-104882343D01*
X29367450Y-104923206D01*
X29424257Y-104953570D01*
X29485897Y-104972268D01*
X29550000Y-104978582D01*
X31250000Y-104978582D01*
X31314103Y-104972268D01*
X31375743Y-104953570D01*
X31432550Y-104923206D01*
X31482343Y-104882343D01*
X31523206Y-104832550D01*
X31553570Y-104775743D01*
X31572268Y-104714103D01*
X31578582Y-104650000D01*
X31578582Y-103684076D01*
X31763000Y-103684076D01*
X31763000Y-103915924D01*
X31808231Y-104143318D01*
X31896956Y-104357519D01*
X32025764Y-104550294D01*
X32189706Y-104714236D01*
X32382481Y-104843044D01*
X32596682Y-104931769D01*
X32824076Y-104977000D01*
X33055924Y-104977000D01*
X33283318Y-104931769D01*
X33497519Y-104843044D01*
X33690294Y-104714236D01*
X33854236Y-104550294D01*
X33983044Y-104357519D01*
X34071769Y-104143318D01*
X34117000Y-103915924D01*
X34117000Y-103684076D01*
X34071769Y-103456682D01*
X33983044Y-103242481D01*
X33854236Y-103049706D01*
X33690294Y-102885764D01*
X33497519Y-102756956D01*
X33283318Y-102668231D01*
X33055924Y-102623000D01*
X32824076Y-102623000D01*
X32596682Y-102668231D01*
X32382481Y-102756956D01*
X32189706Y-102885764D01*
X32025764Y-103049706D01*
X31896956Y-103242481D01*
X31808231Y-103456682D01*
X31763000Y-103684076D01*
X31578582Y-103684076D01*
X31578582Y-102950000D01*
X31572268Y-102885897D01*
X31553570Y-102824257D01*
X31523206Y-102767450D01*
X31482343Y-102717657D01*
X31432550Y-102676794D01*
X31375743Y-102646430D01*
X31314103Y-102627732D01*
X31250000Y-102621418D01*
X29550000Y-102621418D01*
X29485897Y-102627732D01*
X29424257Y-102646430D01*
X29367450Y-102676794D01*
X29317657Y-102717657D01*
X29276794Y-102767450D01*
X29246430Y-102824257D01*
X29227732Y-102885897D01*
X29221418Y-102950000D01*
X28152000Y-102950000D01*
X28152000Y-102579151D01*
X43693000Y-102579151D01*
X43693000Y-102820849D01*
X43740153Y-103057903D01*
X43832647Y-103281202D01*
X43966927Y-103482167D01*
X44137833Y-103653073D01*
X44338798Y-103787353D01*
X44562097Y-103879847D01*
X44799151Y-103927000D01*
X45040849Y-103927000D01*
X45277903Y-103879847D01*
X45501202Y-103787353D01*
X45702167Y-103653073D01*
X45873073Y-103482167D01*
X46007353Y-103281202D01*
X46099847Y-103057903D01*
X46147000Y-102820849D01*
X46147000Y-102579151D01*
X46099847Y-102342097D01*
X46007353Y-102118798D01*
X45961518Y-102050200D01*
X48771418Y-102050200D01*
X48771418Y-103349800D01*
X48782539Y-103462715D01*
X48815475Y-103571290D01*
X48868960Y-103671354D01*
X48940939Y-103759061D01*
X49028646Y-103831040D01*
X49128710Y-103884525D01*
X49237285Y-103917461D01*
X49350200Y-103928582D01*
X50649800Y-103928582D01*
X50762715Y-103917461D01*
X50871290Y-103884525D01*
X50971354Y-103831040D01*
X51059061Y-103759061D01*
X51131040Y-103671354D01*
X51184525Y-103571290D01*
X51217461Y-103462715D01*
X51228582Y-103349800D01*
X51228582Y-102375000D01*
X61046418Y-102375000D01*
X61046418Y-103225000D01*
X61052732Y-103289103D01*
X61071430Y-103350743D01*
X61101794Y-103407550D01*
X61142657Y-103457343D01*
X61192450Y-103498206D01*
X61249257Y-103528570D01*
X61310897Y-103547268D01*
X61375000Y-103553582D01*
X62225000Y-103553582D01*
X62289103Y-103547268D01*
X62350743Y-103528570D01*
X62407550Y-103498206D01*
X62457343Y-103457343D01*
X62498206Y-103407550D01*
X62528570Y-103350743D01*
X62547268Y-103289103D01*
X62553582Y-103225000D01*
X62553582Y-102575000D01*
X65446418Y-102575000D01*
X65446418Y-103425000D01*
X65452732Y-103489103D01*
X65471430Y-103550743D01*
X65501794Y-103607550D01*
X65542657Y-103657343D01*
X65592450Y-103698206D01*
X65649257Y-103728570D01*
X65710897Y-103747268D01*
X65775000Y-103753582D01*
X66625000Y-103753582D01*
X66689103Y-103747268D01*
X66750743Y-103728570D01*
X66807550Y-103698206D01*
X66857343Y-103657343D01*
X66898206Y-103607550D01*
X66928570Y-103550743D01*
X66947268Y-103489103D01*
X66953582Y-103425000D01*
X66953582Y-102575000D01*
X66947268Y-102510897D01*
X66928570Y-102449257D01*
X66898206Y-102392450D01*
X66857343Y-102342657D01*
X66807550Y-102301794D01*
X66750743Y-102271430D01*
X66689103Y-102252732D01*
X66625000Y-102246418D01*
X65775000Y-102246418D01*
X65710897Y-102252732D01*
X65649257Y-102271430D01*
X65592450Y-102301794D01*
X65542657Y-102342657D01*
X65501794Y-102392450D01*
X65471430Y-102449257D01*
X65452732Y-102510897D01*
X65446418Y-102575000D01*
X62553582Y-102575000D01*
X62553582Y-102375000D01*
X62547268Y-102310897D01*
X62528570Y-102249257D01*
X62498206Y-102192450D01*
X62457343Y-102142657D01*
X62407550Y-102101794D01*
X62350743Y-102071430D01*
X62289103Y-102052732D01*
X62225000Y-102046418D01*
X61375000Y-102046418D01*
X61310897Y-102052732D01*
X61249257Y-102071430D01*
X61192450Y-102101794D01*
X61142657Y-102142657D01*
X61101794Y-102192450D01*
X61071430Y-102249257D01*
X61052732Y-102310897D01*
X61046418Y-102375000D01*
X51228582Y-102375000D01*
X51228582Y-102050200D01*
X51217461Y-101937285D01*
X51184525Y-101828710D01*
X51131040Y-101728646D01*
X51059061Y-101640939D01*
X50971354Y-101568960D01*
X50871290Y-101515475D01*
X50762715Y-101482539D01*
X50649800Y-101471418D01*
X49350200Y-101471418D01*
X49237285Y-101482539D01*
X49128710Y-101515475D01*
X49028646Y-101568960D01*
X48940939Y-101640939D01*
X48868960Y-101728646D01*
X48815475Y-101828710D01*
X48782539Y-101937285D01*
X48771418Y-102050200D01*
X45961518Y-102050200D01*
X45873073Y-101917833D01*
X45702167Y-101746927D01*
X45501202Y-101612647D01*
X45277903Y-101520153D01*
X45040849Y-101473000D01*
X44799151Y-101473000D01*
X44562097Y-101520153D01*
X44338798Y-101612647D01*
X44137833Y-101746927D01*
X43966927Y-101917833D01*
X43832647Y-102118798D01*
X43740153Y-102342097D01*
X43693000Y-102579151D01*
X28152000Y-102579151D01*
X28152000Y-99928397D01*
X28773000Y-99928397D01*
X28773000Y-100071603D01*
X28800938Y-100212058D01*
X28855741Y-100344364D01*
X28935302Y-100463436D01*
X29036564Y-100564698D01*
X29155636Y-100644259D01*
X29287942Y-100699062D01*
X29428397Y-100727000D01*
X29571603Y-100727000D01*
X29712058Y-100699062D01*
X29844364Y-100644259D01*
X29939038Y-100581000D01*
X32690519Y-100581000D01*
X32807483Y-100616480D01*
X32914292Y-100627000D01*
X33485708Y-100627000D01*
X33592517Y-100616480D01*
X33729557Y-100574910D01*
X33855853Y-100507403D01*
X33966554Y-100416554D01*
X34057403Y-100305853D01*
X34124910Y-100179557D01*
X34166480Y-100042517D01*
X34180517Y-99900000D01*
X34166480Y-99757483D01*
X34124910Y-99620443D01*
X34057403Y-99494147D01*
X33966554Y-99383446D01*
X33855853Y-99292597D01*
X33729557Y-99225090D01*
X33592517Y-99183520D01*
X33485708Y-99173000D01*
X32914292Y-99173000D01*
X32807483Y-99183520D01*
X32670443Y-99225090D01*
X32544147Y-99292597D01*
X32433446Y-99383446D01*
X32404268Y-99419000D01*
X29939038Y-99419000D01*
X29844364Y-99355741D01*
X29712058Y-99300938D01*
X29571603Y-99273000D01*
X29428397Y-99273000D01*
X29287942Y-99300938D01*
X29155636Y-99355741D01*
X29036564Y-99435302D01*
X28935302Y-99536564D01*
X28855741Y-99655636D01*
X28800938Y-99787942D01*
X28773000Y-99928397D01*
X28152000Y-99928397D01*
X28152000Y-96150000D01*
X32219483Y-96150000D01*
X32233520Y-96292517D01*
X32275090Y-96429557D01*
X32342597Y-96555853D01*
X32433446Y-96666554D01*
X32544147Y-96757403D01*
X32577068Y-96775000D01*
X32544147Y-96792597D01*
X32433446Y-96883446D01*
X32342597Y-96994147D01*
X32275090Y-97120443D01*
X32233520Y-97257483D01*
X32219483Y-97400000D01*
X32233520Y-97542517D01*
X32275090Y-97679557D01*
X32342597Y-97805853D01*
X32433446Y-97916554D01*
X32544147Y-98007403D01*
X32670443Y-98074910D01*
X32807483Y-98116480D01*
X32914292Y-98127000D01*
X33485708Y-98127000D01*
X33592517Y-98116480D01*
X33729557Y-98074910D01*
X33855853Y-98007403D01*
X33966554Y-97916554D01*
X34057403Y-97805853D01*
X34124910Y-97679557D01*
X34140428Y-97628397D01*
X69573000Y-97628397D01*
X69573000Y-97771603D01*
X69600938Y-97912058D01*
X69655741Y-98044364D01*
X69735302Y-98163436D01*
X69836564Y-98264698D01*
X69955636Y-98344259D01*
X70087942Y-98399062D01*
X70228397Y-98427000D01*
X70371603Y-98427000D01*
X70512058Y-98399062D01*
X70644364Y-98344259D01*
X70763436Y-98264698D01*
X70864698Y-98163436D01*
X70871003Y-98154000D01*
X71982110Y-98154000D01*
X72033446Y-98216554D01*
X72144147Y-98307403D01*
X72177068Y-98325000D01*
X72144147Y-98342597D01*
X72033446Y-98433446D01*
X71942597Y-98544147D01*
X71875090Y-98670443D01*
X71833520Y-98807483D01*
X71819483Y-98950000D01*
X71833520Y-99092517D01*
X71875090Y-99229557D01*
X71942597Y-99355853D01*
X72033446Y-99466554D01*
X72111798Y-99530855D01*
X72056336Y-99560500D01*
X71976236Y-99626236D01*
X71910500Y-99706336D01*
X71861654Y-99797720D01*
X71831575Y-99896879D01*
X71821418Y-100000000D01*
X71821418Y-100400000D01*
X71831575Y-100503121D01*
X71861654Y-100602280D01*
X71910500Y-100693664D01*
X71976236Y-100773764D01*
X72056336Y-100839500D01*
X72147720Y-100888346D01*
X72246879Y-100918425D01*
X72350000Y-100928582D01*
X73250000Y-100928582D01*
X73353121Y-100918425D01*
X73452280Y-100888346D01*
X73543664Y-100839500D01*
X73623764Y-100773764D01*
X73689500Y-100693664D01*
X73738346Y-100602280D01*
X73768425Y-100503121D01*
X73778582Y-100400000D01*
X73778582Y-100000000D01*
X73768425Y-99896879D01*
X73738346Y-99797720D01*
X73689500Y-99706336D01*
X73623764Y-99626236D01*
X73543664Y-99560500D01*
X73488202Y-99530855D01*
X73566554Y-99466554D01*
X73657403Y-99355853D01*
X73724910Y-99229557D01*
X73766480Y-99092517D01*
X73780517Y-98950000D01*
X73766480Y-98807483D01*
X73724910Y-98670443D01*
X73657403Y-98544147D01*
X73566554Y-98433446D01*
X73455853Y-98342597D01*
X73422932Y-98325000D01*
X73455853Y-98307403D01*
X73566554Y-98216554D01*
X73657403Y-98105853D01*
X73724910Y-97979557D01*
X73766480Y-97842517D01*
X73780517Y-97700000D01*
X73766480Y-97557483D01*
X73724910Y-97420443D01*
X73657403Y-97294147D01*
X73566554Y-97183446D01*
X73455853Y-97092597D01*
X73329557Y-97025090D01*
X73192517Y-96983520D01*
X73085708Y-96973000D01*
X72514292Y-96973000D01*
X72407483Y-96983520D01*
X72270443Y-97025090D01*
X72144147Y-97092597D01*
X72033446Y-97183446D01*
X71982110Y-97246000D01*
X70871003Y-97246000D01*
X70864698Y-97236564D01*
X70763436Y-97135302D01*
X70644364Y-97055741D01*
X70512058Y-97000938D01*
X70371603Y-96973000D01*
X70228397Y-96973000D01*
X70087942Y-97000938D01*
X69955636Y-97055741D01*
X69836564Y-97135302D01*
X69735302Y-97236564D01*
X69655741Y-97355636D01*
X69600938Y-97487942D01*
X69573000Y-97628397D01*
X34140428Y-97628397D01*
X34166480Y-97542517D01*
X34180517Y-97400000D01*
X34166480Y-97257483D01*
X34124910Y-97120443D01*
X34057403Y-96994147D01*
X33966554Y-96883446D01*
X33855853Y-96792597D01*
X33822932Y-96775000D01*
X33855853Y-96757403D01*
X33966554Y-96666554D01*
X34057403Y-96555853D01*
X34124910Y-96429557D01*
X34166480Y-96292517D01*
X34180517Y-96150000D01*
X34166480Y-96007483D01*
X34124910Y-95870443D01*
X34057403Y-95744147D01*
X33966554Y-95633446D01*
X33888202Y-95569145D01*
X33943664Y-95539500D01*
X34023764Y-95473764D01*
X34089500Y-95393664D01*
X34138346Y-95302280D01*
X34168425Y-95203121D01*
X34168732Y-95200000D01*
X71819483Y-95200000D01*
X71833520Y-95342517D01*
X71875090Y-95479557D01*
X71942597Y-95605853D01*
X72033446Y-95716554D01*
X72144147Y-95807403D01*
X72270443Y-95874910D01*
X72407483Y-95916480D01*
X72514292Y-95927000D01*
X73085708Y-95927000D01*
X73192517Y-95916480D01*
X73329557Y-95874910D01*
X73455853Y-95807403D01*
X73488025Y-95781000D01*
X74810866Y-95781000D01*
X74815564Y-95785698D01*
X74934636Y-95865259D01*
X75066942Y-95920062D01*
X75207397Y-95948000D01*
X75350603Y-95948000D01*
X75491058Y-95920062D01*
X75623364Y-95865259D01*
X75742436Y-95785698D01*
X75843698Y-95684436D01*
X75923259Y-95565364D01*
X75978062Y-95433058D01*
X76006000Y-95292603D01*
X76006000Y-95149397D01*
X75978062Y-95008942D01*
X75923259Y-94876636D01*
X75843698Y-94757564D01*
X75742436Y-94656302D01*
X75623364Y-94576741D01*
X75491058Y-94521938D01*
X75350603Y-94494000D01*
X75207397Y-94494000D01*
X75066942Y-94521938D01*
X74934636Y-94576741D01*
X74871391Y-94619000D01*
X73488025Y-94619000D01*
X73455853Y-94592597D01*
X73329557Y-94525090D01*
X73192517Y-94483520D01*
X73085708Y-94473000D01*
X72514292Y-94473000D01*
X72407483Y-94483520D01*
X72270443Y-94525090D01*
X72144147Y-94592597D01*
X72033446Y-94683446D01*
X71942597Y-94794147D01*
X71875090Y-94920443D01*
X71833520Y-95057483D01*
X71819483Y-95200000D01*
X34168732Y-95200000D01*
X34178582Y-95100000D01*
X34178582Y-94700000D01*
X34168425Y-94596879D01*
X34138346Y-94497720D01*
X34089500Y-94406336D01*
X34023764Y-94326236D01*
X33943664Y-94260500D01*
X33852280Y-94211654D01*
X33753121Y-94181575D01*
X33650000Y-94171418D01*
X32750000Y-94171418D01*
X32646879Y-94181575D01*
X32547720Y-94211654D01*
X32456336Y-94260500D01*
X32376236Y-94326236D01*
X32310500Y-94406336D01*
X32261654Y-94497720D01*
X32231575Y-94596879D01*
X32221418Y-94700000D01*
X32221418Y-95100000D01*
X32231575Y-95203121D01*
X32261654Y-95302280D01*
X32310500Y-95393664D01*
X32376236Y-95473764D01*
X32456336Y-95539500D01*
X32511798Y-95569145D01*
X32433446Y-95633446D01*
X32342597Y-95744147D01*
X32275090Y-95870443D01*
X32233520Y-96007483D01*
X32219483Y-96150000D01*
X28152000Y-96150000D01*
X28152000Y-89450000D01*
X32219483Y-89450000D01*
X32233520Y-89592517D01*
X32275090Y-89729557D01*
X32342597Y-89855853D01*
X32433446Y-89966554D01*
X32544147Y-90057403D01*
X32670443Y-90124910D01*
X32807483Y-90166480D01*
X32914292Y-90177000D01*
X33485708Y-90177000D01*
X33592517Y-90166480D01*
X33729557Y-90124910D01*
X33855853Y-90057403D01*
X33966554Y-89966554D01*
X34057403Y-89855853D01*
X34124910Y-89729557D01*
X34166480Y-89592517D01*
X34180517Y-89450000D01*
X34166480Y-89307483D01*
X34124910Y-89170443D01*
X34057403Y-89044147D01*
X33966554Y-88933446D01*
X33888202Y-88869145D01*
X33943664Y-88839500D01*
X34023764Y-88773764D01*
X34089500Y-88693664D01*
X34138346Y-88602280D01*
X34168425Y-88503121D01*
X34178582Y-88400000D01*
X34178582Y-88000000D01*
X34168425Y-87896879D01*
X34138346Y-87797720D01*
X34089500Y-87706336D01*
X34023764Y-87626236D01*
X33943664Y-87560500D01*
X33852280Y-87511654D01*
X33780999Y-87490032D01*
X33781001Y-85305240D01*
X33812058Y-85299062D01*
X33944364Y-85244259D01*
X34063436Y-85164698D01*
X34164698Y-85063436D01*
X34244259Y-84944364D01*
X34256715Y-84914292D01*
X39223000Y-84914292D01*
X39223000Y-85485707D01*
X39233520Y-85592516D01*
X39275090Y-85729556D01*
X39342597Y-85855852D01*
X39433446Y-85966553D01*
X39544147Y-86057403D01*
X39670443Y-86124910D01*
X39807483Y-86166480D01*
X39950000Y-86180517D01*
X40092516Y-86166480D01*
X40229556Y-86124910D01*
X40355852Y-86057403D01*
X40466553Y-85966554D01*
X40557403Y-85855853D01*
X40624910Y-85729557D01*
X40666480Y-85592517D01*
X40677000Y-85485708D01*
X40677000Y-84914292D01*
X41723000Y-84914292D01*
X41723000Y-85485707D01*
X41733520Y-85592516D01*
X41775090Y-85729556D01*
X41842597Y-85855852D01*
X41933446Y-85966553D01*
X42044147Y-86057403D01*
X42170443Y-86124910D01*
X42307483Y-86166480D01*
X42450000Y-86180517D01*
X42592516Y-86166480D01*
X42729556Y-86124910D01*
X42855852Y-86057403D01*
X42966553Y-85966554D01*
X43057403Y-85855853D01*
X43075000Y-85822931D01*
X43092597Y-85855852D01*
X43183446Y-85966553D01*
X43294147Y-86057403D01*
X43420443Y-86124910D01*
X43557483Y-86166480D01*
X43700000Y-86180517D01*
X43842516Y-86166480D01*
X43979556Y-86124910D01*
X44105852Y-86057403D01*
X44216553Y-85966554D01*
X44280855Y-85888202D01*
X44310500Y-85943664D01*
X44376236Y-86023764D01*
X44456336Y-86089500D01*
X44547720Y-86138346D01*
X44646879Y-86168425D01*
X44750000Y-86178582D01*
X45150000Y-86178582D01*
X45253121Y-86168425D01*
X45352280Y-86138346D01*
X45443664Y-86089500D01*
X45523764Y-86023764D01*
X45589500Y-85943664D01*
X45638346Y-85852280D01*
X45668425Y-85753121D01*
X45678582Y-85650000D01*
X45678582Y-84914292D01*
X49123000Y-84914292D01*
X49123000Y-85485707D01*
X49133520Y-85592516D01*
X49175090Y-85729556D01*
X49242597Y-85855852D01*
X49333446Y-85966553D01*
X49444147Y-86057403D01*
X49570443Y-86124910D01*
X49707483Y-86166480D01*
X49850000Y-86180517D01*
X49992516Y-86166480D01*
X50129556Y-86124910D01*
X50255852Y-86057403D01*
X50366553Y-85966554D01*
X50457403Y-85855853D01*
X50524910Y-85729557D01*
X50566480Y-85592517D01*
X50577000Y-85485708D01*
X50577000Y-84914292D01*
X51623000Y-84914292D01*
X51623000Y-85485707D01*
X51633520Y-85592516D01*
X51675090Y-85729556D01*
X51742597Y-85855852D01*
X51833446Y-85966553D01*
X51944147Y-86057403D01*
X52070443Y-86124910D01*
X52207483Y-86166480D01*
X52350000Y-86180517D01*
X52492516Y-86166480D01*
X52629556Y-86124910D01*
X52755852Y-86057403D01*
X52866553Y-85966554D01*
X52957403Y-85855853D01*
X52975000Y-85822931D01*
X52992597Y-85855852D01*
X53083446Y-85966553D01*
X53194147Y-86057403D01*
X53320443Y-86124910D01*
X53457483Y-86166480D01*
X53600000Y-86180517D01*
X53742516Y-86166480D01*
X53879556Y-86124910D01*
X54005852Y-86057403D01*
X54116553Y-85966554D01*
X54207403Y-85855853D01*
X54225000Y-85822931D01*
X54242597Y-85855852D01*
X54333446Y-85966553D01*
X54444147Y-86057403D01*
X54570443Y-86124910D01*
X54707483Y-86166480D01*
X54850000Y-86180517D01*
X54992516Y-86166480D01*
X55129556Y-86124910D01*
X55255852Y-86057403D01*
X55366553Y-85966554D01*
X55430855Y-85888202D01*
X55460500Y-85943664D01*
X55526236Y-86023764D01*
X55606336Y-86089500D01*
X55697720Y-86138346D01*
X55796879Y-86168425D01*
X55900000Y-86178582D01*
X56300000Y-86178582D01*
X56403121Y-86168425D01*
X56502280Y-86138346D01*
X56593664Y-86089500D01*
X56673764Y-86023764D01*
X56739500Y-85943664D01*
X56788346Y-85852280D01*
X56818425Y-85753121D01*
X56828582Y-85650000D01*
X56828582Y-84914292D01*
X60273000Y-84914292D01*
X60273000Y-85485707D01*
X60283520Y-85592516D01*
X60325090Y-85729556D01*
X60392597Y-85855852D01*
X60483446Y-85966553D01*
X60594147Y-86057403D01*
X60720443Y-86124910D01*
X60857483Y-86166480D01*
X61000000Y-86180517D01*
X61142516Y-86166480D01*
X61279556Y-86124910D01*
X61405852Y-86057403D01*
X61516553Y-85966554D01*
X61607403Y-85855853D01*
X61674910Y-85729557D01*
X61716480Y-85592517D01*
X61727000Y-85485708D01*
X61727000Y-84914292D01*
X62773000Y-84914292D01*
X62773000Y-85485707D01*
X62783520Y-85592516D01*
X62825090Y-85729556D01*
X62892597Y-85855852D01*
X62983446Y-85966553D01*
X63094147Y-86057403D01*
X63220443Y-86124910D01*
X63357483Y-86166480D01*
X63500000Y-86180517D01*
X63642516Y-86166480D01*
X63779556Y-86124910D01*
X63905852Y-86057403D01*
X64016553Y-85966554D01*
X64107403Y-85855853D01*
X64125000Y-85822931D01*
X64142597Y-85855852D01*
X64233446Y-85966553D01*
X64344147Y-86057403D01*
X64470443Y-86124910D01*
X64607483Y-86166480D01*
X64750000Y-86180517D01*
X64892516Y-86166480D01*
X65029556Y-86124910D01*
X65155852Y-86057403D01*
X65266553Y-85966554D01*
X65330855Y-85888202D01*
X65360500Y-85943664D01*
X65426236Y-86023764D01*
X65506336Y-86089500D01*
X65597720Y-86138346D01*
X65696879Y-86168425D01*
X65800000Y-86178582D01*
X66200000Y-86178582D01*
X66303121Y-86168425D01*
X66402280Y-86138346D01*
X66493664Y-86089500D01*
X66573764Y-86023764D01*
X66639500Y-85943664D01*
X66688346Y-85852280D01*
X66718425Y-85753121D01*
X66728582Y-85650000D01*
X66728582Y-84750000D01*
X66718425Y-84646879D01*
X66688346Y-84547720D01*
X66678018Y-84528397D01*
X71473000Y-84528397D01*
X71473000Y-84671603D01*
X71500938Y-84812058D01*
X71555741Y-84944364D01*
X71635302Y-85063436D01*
X71736564Y-85164698D01*
X71855636Y-85244259D01*
X71987942Y-85299062D01*
X72099618Y-85321276D01*
X72219000Y-85440658D01*
X72219000Y-85628540D01*
X72219001Y-85628550D01*
X72219000Y-87652587D01*
X72144147Y-87692597D01*
X72033446Y-87783446D01*
X71942597Y-87894147D01*
X71875090Y-88020443D01*
X71833520Y-88157483D01*
X71819483Y-88300000D01*
X71833520Y-88442517D01*
X71875090Y-88579557D01*
X71942597Y-88705853D01*
X72033446Y-88816554D01*
X72144147Y-88907403D01*
X72177068Y-88925000D01*
X72144147Y-88942597D01*
X72033446Y-89033446D01*
X71942597Y-89144147D01*
X71875090Y-89270443D01*
X71833520Y-89407483D01*
X71819483Y-89550000D01*
X71833520Y-89692517D01*
X71875090Y-89829557D01*
X71942597Y-89955853D01*
X72033446Y-90066554D01*
X72144147Y-90157403D01*
X72270443Y-90224910D01*
X72407483Y-90266480D01*
X72514292Y-90277000D01*
X73085708Y-90277000D01*
X73192517Y-90266480D01*
X73329557Y-90224910D01*
X73455853Y-90157403D01*
X73566554Y-90066554D01*
X73657403Y-89955853D01*
X73724910Y-89829557D01*
X73766480Y-89692517D01*
X73780517Y-89550000D01*
X73766480Y-89407483D01*
X73724910Y-89270443D01*
X73657403Y-89144147D01*
X73566554Y-89033446D01*
X73455853Y-88942597D01*
X73422932Y-88925000D01*
X73455853Y-88907403D01*
X73488025Y-88881000D01*
X76560962Y-88881000D01*
X76655636Y-88944259D01*
X76787942Y-88999062D01*
X76928397Y-89027000D01*
X77071603Y-89027000D01*
X77212058Y-88999062D01*
X77344364Y-88944259D01*
X77463436Y-88864698D01*
X77564698Y-88763436D01*
X77644259Y-88644364D01*
X77699062Y-88512058D01*
X77727000Y-88371603D01*
X77727000Y-88228397D01*
X77699062Y-88087942D01*
X77644259Y-87955636D01*
X77564698Y-87836564D01*
X77463436Y-87735302D01*
X77344364Y-87655741D01*
X77212058Y-87600938D01*
X77071603Y-87573000D01*
X76928397Y-87573000D01*
X76787942Y-87600938D01*
X76655636Y-87655741D01*
X76560962Y-87719000D01*
X73488025Y-87719000D01*
X73455853Y-87692597D01*
X73381000Y-87652587D01*
X73381000Y-85228539D01*
X73383811Y-85199999D01*
X73372593Y-85086104D01*
X73339371Y-84976585D01*
X73322148Y-84944364D01*
X73285421Y-84875652D01*
X73212817Y-84787183D01*
X73190646Y-84768988D01*
X72921276Y-84499618D01*
X72899062Y-84387942D01*
X72844259Y-84255636D01*
X72764698Y-84136564D01*
X72663436Y-84035302D01*
X72544364Y-83955741D01*
X72412058Y-83900938D01*
X72271603Y-83873000D01*
X72128397Y-83873000D01*
X71987942Y-83900938D01*
X71855636Y-83955741D01*
X71736564Y-84035302D01*
X71635302Y-84136564D01*
X71555741Y-84255636D01*
X71500938Y-84387942D01*
X71473000Y-84528397D01*
X66678018Y-84528397D01*
X66639500Y-84456336D01*
X66573764Y-84376236D01*
X66493664Y-84310500D01*
X66402280Y-84261654D01*
X66303121Y-84231575D01*
X66200000Y-84221418D01*
X65800000Y-84221418D01*
X65696879Y-84231575D01*
X65597720Y-84261654D01*
X65506336Y-84310500D01*
X65426236Y-84376236D01*
X65360500Y-84456336D01*
X65330855Y-84511798D01*
X65266554Y-84433446D01*
X65155853Y-84342597D01*
X65029557Y-84275090D01*
X64892517Y-84233520D01*
X64750000Y-84219483D01*
X64607484Y-84233520D01*
X64470444Y-84275090D01*
X64344148Y-84342597D01*
X64233447Y-84433446D01*
X64142597Y-84544147D01*
X64125000Y-84577068D01*
X64107403Y-84544147D01*
X64016554Y-84433446D01*
X63905853Y-84342597D01*
X63779557Y-84275090D01*
X63642517Y-84233520D01*
X63500000Y-84219483D01*
X63357484Y-84233520D01*
X63220444Y-84275090D01*
X63094148Y-84342597D01*
X62983447Y-84433446D01*
X62892597Y-84544147D01*
X62825090Y-84670443D01*
X62783520Y-84807483D01*
X62773000Y-84914292D01*
X61727000Y-84914292D01*
X61716480Y-84807483D01*
X61674910Y-84670443D01*
X61607403Y-84544147D01*
X61516554Y-84433446D01*
X61405853Y-84342597D01*
X61279557Y-84275090D01*
X61142517Y-84233520D01*
X61000000Y-84219483D01*
X60857484Y-84233520D01*
X60720444Y-84275090D01*
X60594148Y-84342597D01*
X60483447Y-84433446D01*
X60392597Y-84544147D01*
X60325090Y-84670443D01*
X60283520Y-84807483D01*
X60273000Y-84914292D01*
X56828582Y-84914292D01*
X56828582Y-84750000D01*
X56818425Y-84646879D01*
X56788346Y-84547720D01*
X56739500Y-84456336D01*
X56673764Y-84376236D01*
X56593664Y-84310500D01*
X56502280Y-84261654D01*
X56403121Y-84231575D01*
X56300000Y-84221418D01*
X55900000Y-84221418D01*
X55796879Y-84231575D01*
X55697720Y-84261654D01*
X55606336Y-84310500D01*
X55526236Y-84376236D01*
X55460500Y-84456336D01*
X55430855Y-84511798D01*
X55366554Y-84433446D01*
X55255853Y-84342597D01*
X55129557Y-84275090D01*
X54992517Y-84233520D01*
X54850000Y-84219483D01*
X54707484Y-84233520D01*
X54570444Y-84275090D01*
X54444148Y-84342597D01*
X54333447Y-84433446D01*
X54242597Y-84544147D01*
X54225000Y-84577068D01*
X54207403Y-84544147D01*
X54116554Y-84433446D01*
X54005853Y-84342597D01*
X53879557Y-84275090D01*
X53742517Y-84233520D01*
X53600000Y-84219483D01*
X53457484Y-84233520D01*
X53320444Y-84275090D01*
X53194148Y-84342597D01*
X53083447Y-84433446D01*
X52992597Y-84544147D01*
X52975000Y-84577068D01*
X52957403Y-84544147D01*
X52866554Y-84433446D01*
X52755853Y-84342597D01*
X52629557Y-84275090D01*
X52492517Y-84233520D01*
X52350000Y-84219483D01*
X52207484Y-84233520D01*
X52070444Y-84275090D01*
X51944148Y-84342597D01*
X51833447Y-84433446D01*
X51742597Y-84544147D01*
X51675090Y-84670443D01*
X51633520Y-84807483D01*
X51623000Y-84914292D01*
X50577000Y-84914292D01*
X50566480Y-84807483D01*
X50524910Y-84670443D01*
X50457403Y-84544147D01*
X50366554Y-84433446D01*
X50255853Y-84342597D01*
X50129557Y-84275090D01*
X49992517Y-84233520D01*
X49850000Y-84219483D01*
X49707484Y-84233520D01*
X49570444Y-84275090D01*
X49444148Y-84342597D01*
X49333447Y-84433446D01*
X49242597Y-84544147D01*
X49175090Y-84670443D01*
X49133520Y-84807483D01*
X49123000Y-84914292D01*
X45678582Y-84914292D01*
X45678582Y-84750000D01*
X45668425Y-84646879D01*
X45638346Y-84547720D01*
X45589500Y-84456336D01*
X45523764Y-84376236D01*
X45443664Y-84310500D01*
X45352280Y-84261654D01*
X45253121Y-84231575D01*
X45150000Y-84221418D01*
X44750000Y-84221418D01*
X44646879Y-84231575D01*
X44547720Y-84261654D01*
X44456336Y-84310500D01*
X44376236Y-84376236D01*
X44310500Y-84456336D01*
X44280855Y-84511798D01*
X44216554Y-84433446D01*
X44105853Y-84342597D01*
X43979557Y-84275090D01*
X43842517Y-84233520D01*
X43700000Y-84219483D01*
X43557484Y-84233520D01*
X43420444Y-84275090D01*
X43294148Y-84342597D01*
X43183447Y-84433446D01*
X43092597Y-84544147D01*
X43075000Y-84577068D01*
X43057403Y-84544147D01*
X42966554Y-84433446D01*
X42855853Y-84342597D01*
X42729557Y-84275090D01*
X42592517Y-84233520D01*
X42450000Y-84219483D01*
X42307484Y-84233520D01*
X42170444Y-84275090D01*
X42044148Y-84342597D01*
X41933447Y-84433446D01*
X41842597Y-84544147D01*
X41775090Y-84670443D01*
X41733520Y-84807483D01*
X41723000Y-84914292D01*
X40677000Y-84914292D01*
X40666480Y-84807483D01*
X40624910Y-84670443D01*
X40557403Y-84544147D01*
X40466554Y-84433446D01*
X40355853Y-84342597D01*
X40229557Y-84275090D01*
X40092517Y-84233520D01*
X39950000Y-84219483D01*
X39807484Y-84233520D01*
X39670444Y-84275090D01*
X39544148Y-84342597D01*
X39433447Y-84433446D01*
X39342597Y-84544147D01*
X39275090Y-84670443D01*
X39233520Y-84807483D01*
X39223000Y-84914292D01*
X34256715Y-84914292D01*
X34299062Y-84812058D01*
X34327000Y-84671603D01*
X34327000Y-84528397D01*
X34299062Y-84387942D01*
X34244259Y-84255636D01*
X34164698Y-84136564D01*
X34063436Y-84035302D01*
X33944364Y-83955741D01*
X33812058Y-83900938D01*
X33671603Y-83873000D01*
X33528397Y-83873000D01*
X33387942Y-83900938D01*
X33255636Y-83955741D01*
X33136564Y-84035302D01*
X33035302Y-84136564D01*
X32955741Y-84255636D01*
X32900938Y-84387942D01*
X32878724Y-84499618D01*
X32809356Y-84568987D01*
X32787185Y-84587182D01*
X32738193Y-84646879D01*
X32714580Y-84675652D01*
X32660630Y-84776585D01*
X32627408Y-84886104D01*
X32616190Y-84999999D01*
X32619002Y-85028549D01*
X32619000Y-87490032D01*
X32547720Y-87511654D01*
X32456336Y-87560500D01*
X32376236Y-87626236D01*
X32310500Y-87706336D01*
X32261654Y-87797720D01*
X32231575Y-87896879D01*
X32221418Y-88000000D01*
X32221418Y-88400000D01*
X32231575Y-88503121D01*
X32261654Y-88602280D01*
X32310500Y-88693664D01*
X32376236Y-88773764D01*
X32456336Y-88839500D01*
X32511798Y-88869145D01*
X32433446Y-88933446D01*
X32342597Y-89044147D01*
X32275090Y-89170443D01*
X32233520Y-89307483D01*
X32219483Y-89450000D01*
X28152000Y-89450000D01*
X28152000Y-83007439D01*
X28206956Y-82446962D01*
X28367568Y-81914988D01*
X28628444Y-81424348D01*
X28639279Y-81411062D01*
X33597000Y-81411062D01*
X33597000Y-81588938D01*
X33631702Y-81763395D01*
X33699772Y-81927731D01*
X33798594Y-82075629D01*
X33924371Y-82201406D01*
X34072269Y-82300228D01*
X34236605Y-82368298D01*
X34411062Y-82403000D01*
X34588938Y-82403000D01*
X34763395Y-82368298D01*
X34927731Y-82300228D01*
X35075629Y-82201406D01*
X35201406Y-82075629D01*
X35300228Y-81927731D01*
X35368298Y-81763395D01*
X35403000Y-81588938D01*
X35403000Y-81411062D01*
X70597000Y-81411062D01*
X70597000Y-81588938D01*
X70631702Y-81763395D01*
X70699772Y-81927731D01*
X70798594Y-82075629D01*
X70924371Y-82201406D01*
X71072269Y-82300228D01*
X71236605Y-82368298D01*
X71411062Y-82403000D01*
X71588938Y-82403000D01*
X71763395Y-82368298D01*
X71927731Y-82300228D01*
X72075629Y-82201406D01*
X72201406Y-82075629D01*
X72300228Y-81927731D01*
X72368298Y-81763395D01*
X72403000Y-81588938D01*
X72403000Y-81411062D01*
X72368298Y-81236605D01*
X72300228Y-81072269D01*
X72201406Y-80924371D01*
X72075629Y-80798594D01*
X71927731Y-80699772D01*
X71763395Y-80631702D01*
X71588938Y-80597000D01*
X71411062Y-80597000D01*
X71236605Y-80631702D01*
X71072269Y-80699772D01*
X70924371Y-80798594D01*
X70798594Y-80924371D01*
X70699772Y-81072269D01*
X70631702Y-81236605D01*
X70597000Y-81411062D01*
X35403000Y-81411062D01*
X35368298Y-81236605D01*
X35300228Y-81072269D01*
X35201406Y-80924371D01*
X35075629Y-80798594D01*
X34927731Y-80699772D01*
X34763395Y-80631702D01*
X34588938Y-80597000D01*
X34411062Y-80597000D01*
X34236605Y-80631702D01*
X34072269Y-80699772D01*
X33924371Y-80798594D01*
X33798594Y-80924371D01*
X33699772Y-81072269D01*
X33631702Y-81236605D01*
X33597000Y-81411062D01*
X28639279Y-81411062D01*
X28979661Y-80993714D01*
X29407826Y-80639506D01*
X29896641Y-80375205D01*
X30427477Y-80210883D01*
X30987283Y-80152045D01*
X31000243Y-80152000D01*
X74992561Y-80152000D01*
X75553038Y-80206956D01*
%TA.AperFunction,Conductor*%
D24*
G36*
X75553038Y-80206956D02*
G01*
X76085012Y-80367568D01*
X76575652Y-80628444D01*
X77006286Y-80979661D01*
X77360494Y-81407826D01*
X77624795Y-81896641D01*
X77789117Y-82427477D01*
X77847955Y-82987283D01*
X77848001Y-83000530D01*
X77848000Y-141992562D01*
X77793044Y-142553038D01*
X77632432Y-143085012D01*
X77371552Y-143575657D01*
X77020336Y-144006288D01*
X76592177Y-144360493D01*
X76103358Y-144624796D01*
X75572523Y-144789117D01*
X75012717Y-144847955D01*
X74999757Y-144848000D01*
X31007438Y-144848000D01*
X30446962Y-144793044D01*
X29914988Y-144632432D01*
X29424343Y-144371552D01*
X28993712Y-144020336D01*
X28639507Y-143592177D01*
X28541579Y-143411062D01*
X33597000Y-143411062D01*
X33597000Y-143588938D01*
X33631702Y-143763395D01*
X33699772Y-143927731D01*
X33798594Y-144075629D01*
X33924371Y-144201406D01*
X34072269Y-144300228D01*
X34236605Y-144368298D01*
X34411062Y-144403000D01*
X34588938Y-144403000D01*
X34763395Y-144368298D01*
X34927731Y-144300228D01*
X35075629Y-144201406D01*
X35201406Y-144075629D01*
X35300228Y-143927731D01*
X35368298Y-143763395D01*
X35403000Y-143588938D01*
X35403000Y-143411062D01*
X35368298Y-143236605D01*
X35300228Y-143072269D01*
X35201406Y-142924371D01*
X35075629Y-142798594D01*
X34927731Y-142699772D01*
X34763395Y-142631702D01*
X34588938Y-142597000D01*
X34411062Y-142597000D01*
X34236605Y-142631702D01*
X34072269Y-142699772D01*
X33924371Y-142798594D01*
X33798594Y-142924371D01*
X33699772Y-143072269D01*
X33631702Y-143236605D01*
X33597000Y-143411062D01*
X28541579Y-143411062D01*
X28375204Y-143103358D01*
X28210883Y-142572523D01*
X28152045Y-142012717D01*
X28152000Y-141999757D01*
X28152000Y-139350000D01*
X47471418Y-139350000D01*
X47471418Y-140250000D01*
X47481575Y-140353121D01*
X47511654Y-140452280D01*
X47560500Y-140543664D01*
X47626236Y-140623764D01*
X47706336Y-140689500D01*
X47719001Y-140696269D01*
X47719000Y-142360962D01*
X47655741Y-142455636D01*
X47600938Y-142587942D01*
X47573000Y-142728397D01*
X47573000Y-142871603D01*
X47600938Y-143012058D01*
X47655741Y-143144364D01*
X47735302Y-143263436D01*
X47836564Y-143364698D01*
X47955636Y-143444259D01*
X48087942Y-143499062D01*
X48228397Y-143527000D01*
X48371603Y-143527000D01*
X48512058Y-143499062D01*
X48644364Y-143444259D01*
X48763436Y-143364698D01*
X48864698Y-143263436D01*
X48944259Y-143144364D01*
X48999062Y-143012058D01*
X49027000Y-142871603D01*
X49027000Y-142728397D01*
X48999062Y-142587942D01*
X48944259Y-142455636D01*
X48881000Y-142360962D01*
X48881000Y-140502647D01*
X48933447Y-140566554D01*
X49044148Y-140657403D01*
X49170444Y-140724910D01*
X49307484Y-140766480D01*
X49450000Y-140780517D01*
X49592517Y-140766480D01*
X49729557Y-140724910D01*
X49855853Y-140657403D01*
X49966554Y-140566554D01*
X50057403Y-140455853D01*
X50124910Y-140329557D01*
X50166480Y-140192517D01*
X50177000Y-140085708D01*
X50177000Y-139514292D01*
X50166480Y-139407483D01*
X50149043Y-139350000D01*
X54471418Y-139350000D01*
X54471418Y-140250000D01*
X54481575Y-140353121D01*
X54511654Y-140452280D01*
X54560500Y-140543664D01*
X54619001Y-140614948D01*
X54619000Y-142460962D01*
X54555741Y-142555636D01*
X54500938Y-142687942D01*
X54473000Y-142828397D01*
X54473000Y-142971603D01*
X54500938Y-143112058D01*
X54555741Y-143244364D01*
X54635302Y-143363436D01*
X54736564Y-143464698D01*
X54855636Y-143544259D01*
X54987942Y-143599062D01*
X55128397Y-143627000D01*
X55271603Y-143627000D01*
X55412058Y-143599062D01*
X55544364Y-143544259D01*
X55663436Y-143464698D01*
X55764698Y-143363436D01*
X55844259Y-143244364D01*
X55899062Y-143112058D01*
X55927000Y-142971603D01*
X55927000Y-142828397D01*
X55899062Y-142687942D01*
X55844259Y-142555636D01*
X55781000Y-142460962D01*
X55781000Y-140614947D01*
X55839500Y-140543664D01*
X55869145Y-140488202D01*
X55933447Y-140566554D01*
X56044148Y-140657403D01*
X56170444Y-140724910D01*
X56307484Y-140766480D01*
X56450000Y-140780517D01*
X56592517Y-140766480D01*
X56729557Y-140724910D01*
X56855853Y-140657403D01*
X56966554Y-140566554D01*
X57057403Y-140455853D01*
X57124910Y-140329557D01*
X57166480Y-140192517D01*
X57177000Y-140085708D01*
X57177000Y-139514292D01*
X57166480Y-139407483D01*
X57124910Y-139270443D01*
X57057403Y-139144147D01*
X56966553Y-139033446D01*
X56855852Y-138942597D01*
X56729556Y-138875090D01*
X56592516Y-138833520D01*
X56450000Y-138819483D01*
X56307483Y-138833520D01*
X56170443Y-138875090D01*
X56044147Y-138942597D01*
X55933446Y-139033447D01*
X55869145Y-139111798D01*
X55839500Y-139056336D01*
X55773764Y-138976236D01*
X55693664Y-138910500D01*
X55602280Y-138861654D01*
X55503121Y-138831575D01*
X55400000Y-138821418D01*
X55000000Y-138821418D01*
X54896879Y-138831575D01*
X54797720Y-138861654D01*
X54706336Y-138910500D01*
X54626236Y-138976236D01*
X54560500Y-139056336D01*
X54511654Y-139147720D01*
X54481575Y-139246879D01*
X54471418Y-139350000D01*
X50149043Y-139350000D01*
X50124910Y-139270443D01*
X50057403Y-139144147D01*
X49966553Y-139033446D01*
X49855852Y-138942597D01*
X49729556Y-138875090D01*
X49592516Y-138833520D01*
X49450000Y-138819483D01*
X49307483Y-138833520D01*
X49170443Y-138875090D01*
X49044147Y-138942597D01*
X48933446Y-139033447D01*
X48869145Y-139111798D01*
X48839500Y-139056336D01*
X48773764Y-138976236D01*
X48693664Y-138910500D01*
X48602280Y-138861654D01*
X48503121Y-138831575D01*
X48400000Y-138821418D01*
X48000000Y-138821418D01*
X47896879Y-138831575D01*
X47797720Y-138861654D01*
X47706336Y-138910500D01*
X47626236Y-138976236D01*
X47560500Y-139056336D01*
X47511654Y-139147720D01*
X47481575Y-139246879D01*
X47471418Y-139350000D01*
X28152000Y-139350000D01*
X28152000Y-132150000D01*
X30621418Y-132150000D01*
X30621418Y-134250000D01*
X30627732Y-134314103D01*
X30646430Y-134375743D01*
X30676794Y-134432550D01*
X30717657Y-134482343D01*
X30767450Y-134523206D01*
X30824257Y-134553570D01*
X30885897Y-134572268D01*
X30950000Y-134578582D01*
X31259650Y-134578582D01*
X31122213Y-134670414D01*
X30930414Y-134862213D01*
X30779718Y-135087746D01*
X30675917Y-135338344D01*
X30623000Y-135604377D01*
X30623000Y-135875623D01*
X30675917Y-136141656D01*
X30779718Y-136392254D01*
X30930414Y-136617787D01*
X31122213Y-136809586D01*
X31347746Y-136960282D01*
X31598344Y-137064083D01*
X31864377Y-137117000D01*
X32135623Y-137117000D01*
X32401656Y-137064083D01*
X32652254Y-136960282D01*
X32877787Y-136809586D01*
X33069586Y-136617787D01*
X33220282Y-136392254D01*
X33324083Y-136141656D01*
X33377000Y-135875623D01*
X33377000Y-135604377D01*
X33324083Y-135338344D01*
X33220282Y-135087746D01*
X33069586Y-134862213D01*
X32920373Y-134713000D01*
X72571418Y-134713000D01*
X72571418Y-136813000D01*
X72577732Y-136877103D01*
X72596430Y-136938743D01*
X72626794Y-136995550D01*
X72667657Y-137045343D01*
X72717450Y-137086206D01*
X72774257Y-137116570D01*
X72835897Y-137135268D01*
X72900000Y-137141582D01*
X75000000Y-137141582D01*
X75064103Y-137135268D01*
X75125743Y-137116570D01*
X75182550Y-137086206D01*
X75232343Y-137045343D01*
X75273206Y-136995550D01*
X75303570Y-136938743D01*
X75322268Y-136877103D01*
X75328582Y-136813000D01*
X75328582Y-134713000D01*
X75322268Y-134648897D01*
X75303570Y-134587257D01*
X75273206Y-134530450D01*
X75232343Y-134480657D01*
X75182550Y-134439794D01*
X75125743Y-134409430D01*
X75064103Y-134390732D01*
X75000000Y-134384418D01*
X74690350Y-134384418D01*
X74827787Y-134292586D01*
X75019586Y-134100787D01*
X75170282Y-133875254D01*
X75274083Y-133624656D01*
X75327000Y-133358623D01*
X75327000Y-133087377D01*
X75274083Y-132821344D01*
X75170282Y-132570746D01*
X75019586Y-132345213D01*
X74827787Y-132153414D01*
X74602254Y-132002718D01*
X74351656Y-131898917D01*
X74085623Y-131846000D01*
X73814377Y-131846000D01*
X73548344Y-131898917D01*
X73297746Y-132002718D01*
X73072213Y-132153414D01*
X72880414Y-132345213D01*
X72729718Y-132570746D01*
X72625917Y-132821344D01*
X72573000Y-133087377D01*
X72573000Y-133358623D01*
X72625917Y-133624656D01*
X72729718Y-133875254D01*
X72880414Y-134100787D01*
X73072213Y-134292586D01*
X73209650Y-134384418D01*
X72900000Y-134384418D01*
X72835897Y-134390732D01*
X72774257Y-134409430D01*
X72717450Y-134439794D01*
X72667657Y-134480657D01*
X72626794Y-134530450D01*
X72596430Y-134587257D01*
X72577732Y-134648897D01*
X72571418Y-134713000D01*
X32920373Y-134713000D01*
X32877787Y-134670414D01*
X32740350Y-134578582D01*
X33050000Y-134578582D01*
X33114103Y-134572268D01*
X33175743Y-134553570D01*
X33232550Y-134523206D01*
X33282343Y-134482343D01*
X33323206Y-134432550D01*
X33353570Y-134375743D01*
X33372268Y-134314103D01*
X33378582Y-134250000D01*
X33378582Y-132150000D01*
X33372268Y-132085897D01*
X33353570Y-132024257D01*
X33323206Y-131967450D01*
X33282343Y-131917657D01*
X33232550Y-131876794D01*
X33175743Y-131846430D01*
X33114103Y-131827732D01*
X33050000Y-131821418D01*
X30950000Y-131821418D01*
X30885897Y-131827732D01*
X30824257Y-131846430D01*
X30767450Y-131876794D01*
X30717657Y-131917657D01*
X30676794Y-131967450D01*
X30646430Y-132024257D01*
X30627732Y-132085897D01*
X30621418Y-132150000D01*
X28152000Y-132150000D01*
X28152000Y-130960397D01*
X38497000Y-130960397D01*
X38497000Y-131103603D01*
X38524938Y-131244058D01*
X38579741Y-131376364D01*
X38659302Y-131495436D01*
X38760564Y-131596698D01*
X38879636Y-131676259D01*
X39011942Y-131731062D01*
X39152397Y-131759000D01*
X39295603Y-131759000D01*
X39436058Y-131731062D01*
X39568364Y-131676259D01*
X39663038Y-131613000D01*
X42497460Y-131613000D01*
X42526000Y-131615811D01*
X42554540Y-131613000D01*
X42639896Y-131604593D01*
X42749415Y-131571371D01*
X42850348Y-131517421D01*
X42869924Y-131501356D01*
X42992058Y-131477062D01*
X43003320Y-131472397D01*
X62463000Y-131472397D01*
X62463000Y-131615603D01*
X62490938Y-131756058D01*
X62545741Y-131888364D01*
X62625302Y-132007436D01*
X62726564Y-132108698D01*
X62845636Y-132188259D01*
X62977942Y-132243062D01*
X63118397Y-132271000D01*
X63261603Y-132271000D01*
X63402058Y-132243062D01*
X63534364Y-132188259D01*
X63629038Y-132125000D01*
X65544962Y-132125000D01*
X65639636Y-132188259D01*
X65771942Y-132243062D01*
X65912397Y-132271000D01*
X66055603Y-132271000D01*
X66196058Y-132243062D01*
X66328364Y-132188259D01*
X66447436Y-132108698D01*
X66548698Y-132007436D01*
X66628259Y-131888364D01*
X66683062Y-131756058D01*
X66711000Y-131615603D01*
X66711000Y-131472397D01*
X66683062Y-131331942D01*
X66628259Y-131199636D01*
X66548698Y-131080564D01*
X66447436Y-130979302D01*
X66328364Y-130899741D01*
X66196058Y-130844938D01*
X66055603Y-130817000D01*
X65912397Y-130817000D01*
X65771942Y-130844938D01*
X65639636Y-130899741D01*
X65544962Y-130963000D01*
X63629038Y-130963000D01*
X63534364Y-130899741D01*
X63402058Y-130844938D01*
X63261603Y-130817000D01*
X63118397Y-130817000D01*
X62977942Y-130844938D01*
X62845636Y-130899741D01*
X62726564Y-130979302D01*
X62625302Y-131080564D01*
X62545741Y-131199636D01*
X62490938Y-131331942D01*
X62463000Y-131472397D01*
X43003320Y-131472397D01*
X43124364Y-131422259D01*
X43243436Y-131342698D01*
X43344698Y-131241436D01*
X43424259Y-131122364D01*
X43479062Y-130990058D01*
X43507000Y-130849603D01*
X43507000Y-130706397D01*
X43479062Y-130565942D01*
X43424259Y-130433636D01*
X43344698Y-130314564D01*
X43243436Y-130213302D01*
X43124364Y-130133741D01*
X42992058Y-130078938D01*
X42851603Y-130051000D01*
X42708397Y-130051000D01*
X42567942Y-130078938D01*
X42435636Y-130133741D01*
X42316564Y-130213302D01*
X42215302Y-130314564D01*
X42135741Y-130433636D01*
X42128549Y-130451000D01*
X39663038Y-130451000D01*
X39568364Y-130387741D01*
X39436058Y-130332938D01*
X39295603Y-130305000D01*
X39152397Y-130305000D01*
X39011942Y-130332938D01*
X38879636Y-130387741D01*
X38760564Y-130467302D01*
X38659302Y-130568564D01*
X38579741Y-130687636D01*
X38524938Y-130819942D01*
X38497000Y-130960397D01*
X28152000Y-130960397D01*
X28152000Y-125450000D01*
X30621418Y-125450000D01*
X30621418Y-127550000D01*
X30627732Y-127614103D01*
X30646430Y-127675743D01*
X30676794Y-127732550D01*
X30717657Y-127782343D01*
X30767450Y-127823206D01*
X30824257Y-127853570D01*
X30885897Y-127872268D01*
X30950000Y-127878582D01*
X31259650Y-127878582D01*
X31122213Y-127970414D01*
X30930414Y-128162213D01*
X30779718Y-128387746D01*
X30675917Y-128638344D01*
X30623000Y-128904377D01*
X30623000Y-129175623D01*
X30675917Y-129441656D01*
X30779718Y-129692254D01*
X30930414Y-129917787D01*
X31122213Y-130109586D01*
X31347746Y-130260282D01*
X31598344Y-130364083D01*
X31864377Y-130417000D01*
X32135623Y-130417000D01*
X32401656Y-130364083D01*
X32652254Y-130260282D01*
X32877787Y-130109586D01*
X33069586Y-129917787D01*
X33220282Y-129692254D01*
X33324083Y-129441656D01*
X33329107Y-129416397D01*
X62473000Y-129416397D01*
X62473000Y-129559603D01*
X62500938Y-129700058D01*
X62555741Y-129832364D01*
X62635302Y-129951436D01*
X62736564Y-130052698D01*
X62855636Y-130132259D01*
X62987942Y-130187062D01*
X63128397Y-130215000D01*
X63271603Y-130215000D01*
X63412058Y-130187062D01*
X63544364Y-130132259D01*
X63663436Y-130052698D01*
X63764698Y-129951436D01*
X63844259Y-129832364D01*
X63899062Y-129700058D01*
X63917799Y-129605858D01*
X65164252Y-128359405D01*
X65275928Y-128337192D01*
X65408234Y-128282389D01*
X65527306Y-128202828D01*
X65628568Y-128101566D01*
X65703113Y-127990000D01*
X72571418Y-127990000D01*
X72571418Y-130090000D01*
X72577732Y-130154103D01*
X72596430Y-130215743D01*
X72626794Y-130272550D01*
X72667657Y-130322343D01*
X72717450Y-130363206D01*
X72774257Y-130393570D01*
X72835897Y-130412268D01*
X72900000Y-130418582D01*
X75000000Y-130418582D01*
X75064103Y-130412268D01*
X75125743Y-130393570D01*
X75182550Y-130363206D01*
X75232343Y-130322343D01*
X75273206Y-130272550D01*
X75303570Y-130215743D01*
X75322268Y-130154103D01*
X75328582Y-130090000D01*
X75328582Y-127990000D01*
X75322268Y-127925897D01*
X75303570Y-127864257D01*
X75273206Y-127807450D01*
X75232343Y-127757657D01*
X75182550Y-127716794D01*
X75125743Y-127686430D01*
X75064103Y-127667732D01*
X75000000Y-127661418D01*
X74690350Y-127661418D01*
X74827787Y-127569586D01*
X75019586Y-127377787D01*
X75170282Y-127152254D01*
X75274083Y-126901656D01*
X75327000Y-126635623D01*
X75327000Y-126364377D01*
X75274083Y-126098344D01*
X75170282Y-125847746D01*
X75019586Y-125622213D01*
X74827787Y-125430414D01*
X74602254Y-125279718D01*
X74351656Y-125175917D01*
X74085623Y-125123000D01*
X73814377Y-125123000D01*
X73548344Y-125175917D01*
X73297746Y-125279718D01*
X73072213Y-125430414D01*
X72880414Y-125622213D01*
X72729718Y-125847746D01*
X72625917Y-126098344D01*
X72573000Y-126364377D01*
X72573000Y-126635623D01*
X72625917Y-126901656D01*
X72729718Y-127152254D01*
X72880414Y-127377787D01*
X73072213Y-127569586D01*
X73209650Y-127661418D01*
X72900000Y-127661418D01*
X72835897Y-127667732D01*
X72774257Y-127686430D01*
X72717450Y-127716794D01*
X72667657Y-127757657D01*
X72626794Y-127807450D01*
X72596430Y-127864257D01*
X72577732Y-127925897D01*
X72571418Y-127990000D01*
X65703113Y-127990000D01*
X65708129Y-127982494D01*
X65762932Y-127850188D01*
X65790870Y-127709733D01*
X65790870Y-127566527D01*
X65762932Y-127426072D01*
X65708129Y-127293766D01*
X65628568Y-127174694D01*
X65527306Y-127073432D01*
X65408234Y-126993871D01*
X65275928Y-126939068D01*
X65135473Y-126911130D01*
X64992267Y-126911130D01*
X64851812Y-126939068D01*
X64719506Y-126993871D01*
X64600434Y-127073432D01*
X64499172Y-127174694D01*
X64419611Y-127293766D01*
X64364808Y-127426072D01*
X64342595Y-127537748D01*
X63117095Y-128763248D01*
X62987942Y-128788938D01*
X62855636Y-128843741D01*
X62736564Y-128923302D01*
X62635302Y-129024564D01*
X62555741Y-129143636D01*
X62500938Y-129275942D01*
X62473000Y-129416397D01*
X33329107Y-129416397D01*
X33377000Y-129175623D01*
X33377000Y-128904377D01*
X33324083Y-128638344D01*
X33220282Y-128387746D01*
X33069586Y-128162213D01*
X32877787Y-127970414D01*
X32740350Y-127878582D01*
X33050000Y-127878582D01*
X33114103Y-127872268D01*
X33175743Y-127853570D01*
X33232550Y-127823206D01*
X33282343Y-127782343D01*
X33323206Y-127732550D01*
X33353570Y-127675743D01*
X33372268Y-127614103D01*
X33378582Y-127550000D01*
X33378582Y-125450000D01*
X33372268Y-125385897D01*
X33353570Y-125324257D01*
X33323206Y-125267450D01*
X33282343Y-125217657D01*
X33232550Y-125176794D01*
X33175743Y-125146430D01*
X33114103Y-125127732D01*
X33050000Y-125121418D01*
X30950000Y-125121418D01*
X30885897Y-125127732D01*
X30824257Y-125146430D01*
X30767450Y-125176794D01*
X30717657Y-125217657D01*
X30676794Y-125267450D01*
X30646430Y-125324257D01*
X30627732Y-125385897D01*
X30621418Y-125450000D01*
X28152000Y-125450000D01*
X28152000Y-122284076D01*
X52963000Y-122284076D01*
X52963000Y-122515924D01*
X53008231Y-122743318D01*
X53096956Y-122957519D01*
X53225764Y-123150294D01*
X53389706Y-123314236D01*
X53582481Y-123443044D01*
X53796682Y-123531769D01*
X54024076Y-123577000D01*
X54255924Y-123577000D01*
X54483318Y-123531769D01*
X54697519Y-123443044D01*
X54890294Y-123314236D01*
X55054236Y-123150294D01*
X55183044Y-122957519D01*
X55271769Y-122743318D01*
X55317000Y-122515924D01*
X55317000Y-122284076D01*
X55271769Y-122056682D01*
X55183044Y-121842481D01*
X55170747Y-121824076D01*
X74023000Y-121824076D01*
X74023000Y-122055924D01*
X74068231Y-122283318D01*
X74156956Y-122497519D01*
X74285764Y-122690294D01*
X74449706Y-122854236D01*
X74642481Y-122983044D01*
X74856682Y-123071769D01*
X75084076Y-123117000D01*
X75315924Y-123117000D01*
X75543318Y-123071769D01*
X75757519Y-122983044D01*
X75950294Y-122854236D01*
X76114236Y-122690294D01*
X76243044Y-122497519D01*
X76331769Y-122283318D01*
X76377000Y-122055924D01*
X76377000Y-121824076D01*
X76331769Y-121596682D01*
X76243044Y-121382481D01*
X76114236Y-121189706D01*
X75950294Y-121025764D01*
X75757519Y-120896956D01*
X75543318Y-120808231D01*
X75315924Y-120763000D01*
X75084076Y-120763000D01*
X74856682Y-120808231D01*
X74642481Y-120896956D01*
X74449706Y-121025764D01*
X74285764Y-121189706D01*
X74156956Y-121382481D01*
X74068231Y-121596682D01*
X74023000Y-121824076D01*
X55170747Y-121824076D01*
X55054236Y-121649706D01*
X54890294Y-121485764D01*
X54697519Y-121356956D01*
X54483318Y-121268231D01*
X54255924Y-121223000D01*
X54024076Y-121223000D01*
X53796682Y-121268231D01*
X53582481Y-121356956D01*
X53389706Y-121485764D01*
X53225764Y-121649706D01*
X53096956Y-121842481D01*
X53008231Y-122056682D01*
X52963000Y-122284076D01*
X28152000Y-122284076D01*
X28152000Y-118830000D01*
X45421418Y-118830000D01*
X45421418Y-120530000D01*
X45427732Y-120594103D01*
X45446430Y-120655743D01*
X45476794Y-120712550D01*
X45517657Y-120762343D01*
X45567450Y-120803206D01*
X45624257Y-120833570D01*
X45685897Y-120852268D01*
X45750000Y-120858582D01*
X47450000Y-120858582D01*
X47514103Y-120852268D01*
X47575743Y-120833570D01*
X47632550Y-120803206D01*
X47682343Y-120762343D01*
X47723206Y-120712550D01*
X47753570Y-120655743D01*
X47772268Y-120594103D01*
X47778582Y-120530000D01*
X47778582Y-118830000D01*
X47772268Y-118765897D01*
X47753570Y-118704257D01*
X47723206Y-118647450D01*
X47682343Y-118597657D01*
X47632550Y-118556794D01*
X47619840Y-118550000D01*
X74021418Y-118550000D01*
X74021418Y-120250000D01*
X74027732Y-120314103D01*
X74046430Y-120375743D01*
X74076794Y-120432550D01*
X74117657Y-120482343D01*
X74167450Y-120523206D01*
X74224257Y-120553570D01*
X74285897Y-120572268D01*
X74350000Y-120578582D01*
X76050000Y-120578582D01*
X76114103Y-120572268D01*
X76175743Y-120553570D01*
X76232550Y-120523206D01*
X76282343Y-120482343D01*
X76323206Y-120432550D01*
X76353570Y-120375743D01*
X76372268Y-120314103D01*
X76378582Y-120250000D01*
X76378582Y-118550000D01*
X76372268Y-118485897D01*
X76353570Y-118424257D01*
X76323206Y-118367450D01*
X76282343Y-118317657D01*
X76232550Y-118276794D01*
X76175743Y-118246430D01*
X76114103Y-118227732D01*
X76050000Y-118221418D01*
X74350000Y-118221418D01*
X74285897Y-118227732D01*
X74224257Y-118246430D01*
X74167450Y-118276794D01*
X74117657Y-118317657D01*
X74076794Y-118367450D01*
X74046430Y-118424257D01*
X74027732Y-118485897D01*
X74021418Y-118550000D01*
X47619840Y-118550000D01*
X47575743Y-118526430D01*
X47514103Y-118507732D01*
X47450000Y-118501418D01*
X45750000Y-118501418D01*
X45685897Y-118507732D01*
X45624257Y-118526430D01*
X45567450Y-118556794D01*
X45517657Y-118597657D01*
X45476794Y-118647450D01*
X45446430Y-118704257D01*
X45427732Y-118765897D01*
X45421418Y-118830000D01*
X28152000Y-118830000D01*
X28152000Y-117024076D01*
X45423000Y-117024076D01*
X45423000Y-117255924D01*
X45468231Y-117483318D01*
X45556956Y-117697519D01*
X45685764Y-117890294D01*
X45849706Y-118054236D01*
X46042481Y-118183044D01*
X46256682Y-118271769D01*
X46484076Y-118317000D01*
X46715924Y-118317000D01*
X46943318Y-118271769D01*
X47157519Y-118183044D01*
X47350294Y-118054236D01*
X47514236Y-117890294D01*
X47643044Y-117697519D01*
X47731769Y-117483318D01*
X47777000Y-117255924D01*
X47777000Y-117024076D01*
X47731769Y-116796682D01*
X47643044Y-116582481D01*
X47514236Y-116389706D01*
X47350294Y-116225764D01*
X47157519Y-116096956D01*
X46943318Y-116008231D01*
X46715924Y-115963000D01*
X46484076Y-115963000D01*
X46256682Y-116008231D01*
X46042481Y-116096956D01*
X45849706Y-116225764D01*
X45685764Y-116389706D01*
X45556956Y-116582481D01*
X45468231Y-116796682D01*
X45423000Y-117024076D01*
X28152000Y-117024076D01*
X28152000Y-115224076D01*
X31423000Y-115224076D01*
X31423000Y-115455924D01*
X31468231Y-115683318D01*
X31556956Y-115897519D01*
X31685764Y-116090294D01*
X31849706Y-116254236D01*
X32042481Y-116383044D01*
X32256682Y-116471769D01*
X32484076Y-116517000D01*
X32715924Y-116517000D01*
X32943318Y-116471769D01*
X33157519Y-116383044D01*
X33350294Y-116254236D01*
X33514236Y-116090294D01*
X33643044Y-115897519D01*
X33731769Y-115683318D01*
X33777000Y-115455924D01*
X33777000Y-115224076D01*
X33731769Y-114996682D01*
X33643044Y-114782481D01*
X33514236Y-114589706D01*
X33408606Y-114484076D01*
X45423000Y-114484076D01*
X45423000Y-114715924D01*
X45468231Y-114943318D01*
X45556956Y-115157519D01*
X45685764Y-115350294D01*
X45849706Y-115514236D01*
X46042481Y-115643044D01*
X46256682Y-115731769D01*
X46484076Y-115777000D01*
X46715924Y-115777000D01*
X46943318Y-115731769D01*
X47157519Y-115643044D01*
X47350294Y-115514236D01*
X47514236Y-115350294D01*
X47643044Y-115157519D01*
X47731769Y-114943318D01*
X47777000Y-114715924D01*
X47777000Y-114484076D01*
X47731769Y-114256682D01*
X47729001Y-114249999D01*
X69796418Y-114249999D01*
X69796418Y-114950001D01*
X69807535Y-115062877D01*
X69840460Y-115171414D01*
X69893926Y-115271443D01*
X69965880Y-115359120D01*
X70053557Y-115431074D01*
X70153586Y-115484540D01*
X70262123Y-115517465D01*
X70374999Y-115528582D01*
X71625001Y-115528582D01*
X71737877Y-115517465D01*
X71846414Y-115484540D01*
X71946443Y-115431074D01*
X72034120Y-115359120D01*
X72106074Y-115271443D01*
X72159540Y-115171414D01*
X72192465Y-115062877D01*
X72203582Y-114950001D01*
X72203582Y-114249999D01*
X72192465Y-114137123D01*
X72159540Y-114028586D01*
X72106074Y-113928557D01*
X72034120Y-113840880D01*
X71946443Y-113768926D01*
X71846414Y-113715460D01*
X71737877Y-113682535D01*
X71625001Y-113671418D01*
X70374999Y-113671418D01*
X70262123Y-113682535D01*
X70153586Y-113715460D01*
X70053557Y-113768926D01*
X69965880Y-113840880D01*
X69893926Y-113928557D01*
X69840460Y-114028586D01*
X69807535Y-114137123D01*
X69796418Y-114249999D01*
X47729001Y-114249999D01*
X47643044Y-114042481D01*
X47514236Y-113849706D01*
X47350294Y-113685764D01*
X47157519Y-113556956D01*
X46943318Y-113468231D01*
X46715924Y-113423000D01*
X46484076Y-113423000D01*
X46256682Y-113468231D01*
X46042481Y-113556956D01*
X45849706Y-113685764D01*
X45685764Y-113849706D01*
X45556956Y-114042481D01*
X45468231Y-114256682D01*
X45423000Y-114484076D01*
X33408606Y-114484076D01*
X33350294Y-114425764D01*
X33157519Y-114296956D01*
X32943318Y-114208231D01*
X32715924Y-114163000D01*
X32484076Y-114163000D01*
X32256682Y-114208231D01*
X32042481Y-114296956D01*
X31849706Y-114425764D01*
X31685764Y-114589706D01*
X31556956Y-114782481D01*
X31468231Y-114996682D01*
X31423000Y-115224076D01*
X28152000Y-115224076D01*
X28152000Y-111950000D01*
X31421418Y-111950000D01*
X31421418Y-113650000D01*
X31427732Y-113714103D01*
X31446430Y-113775743D01*
X31476794Y-113832550D01*
X31517657Y-113882343D01*
X31567450Y-113923206D01*
X31624257Y-113953570D01*
X31685897Y-113972268D01*
X31750000Y-113978582D01*
X33450000Y-113978582D01*
X33514103Y-113972268D01*
X33575743Y-113953570D01*
X33632550Y-113923206D01*
X33682343Y-113882343D01*
X33723206Y-113832550D01*
X33753570Y-113775743D01*
X33772268Y-113714103D01*
X33778582Y-113650000D01*
X33778582Y-112600000D01*
X69793515Y-112600000D01*
X69811413Y-112781724D01*
X69864420Y-112956464D01*
X69950499Y-113117505D01*
X70066341Y-113258659D01*
X70207495Y-113374501D01*
X70368536Y-113460580D01*
X70543276Y-113513587D01*
X70679462Y-113527000D01*
X71320538Y-113527000D01*
X71456724Y-113513587D01*
X71631464Y-113460580D01*
X71792505Y-113374501D01*
X71933659Y-113258659D01*
X72049501Y-113117505D01*
X72135580Y-112956464D01*
X72188587Y-112781724D01*
X72206485Y-112600000D01*
X72188587Y-112418276D01*
X72135580Y-112243536D01*
X72049501Y-112082495D01*
X71933659Y-111941341D01*
X71792505Y-111825499D01*
X71631464Y-111739420D01*
X71456724Y-111686413D01*
X71320538Y-111673000D01*
X70679462Y-111673000D01*
X70543276Y-111686413D01*
X70368536Y-111739420D01*
X70207495Y-111825499D01*
X70066341Y-111941341D01*
X69950499Y-112082495D01*
X69864420Y-112243536D01*
X69811413Y-112418276D01*
X69793515Y-112600000D01*
X33778582Y-112600000D01*
X33778582Y-111950000D01*
X33772268Y-111885897D01*
X33753570Y-111824257D01*
X33723206Y-111767450D01*
X33682343Y-111717657D01*
X33632550Y-111676794D01*
X33575743Y-111646430D01*
X33514103Y-111627732D01*
X33450000Y-111621418D01*
X31750000Y-111621418D01*
X31685897Y-111627732D01*
X31624257Y-111646430D01*
X31567450Y-111676794D01*
X31517657Y-111717657D01*
X31476794Y-111767450D01*
X31446430Y-111824257D01*
X31427732Y-111885897D01*
X31421418Y-111950000D01*
X28152000Y-111950000D01*
X28152000Y-106950000D01*
X40621418Y-106950000D01*
X40621418Y-108650000D01*
X40627732Y-108714103D01*
X40646430Y-108775743D01*
X40676794Y-108832550D01*
X40717657Y-108882343D01*
X40767450Y-108923206D01*
X40824257Y-108953570D01*
X40885897Y-108972268D01*
X40950000Y-108978582D01*
X42650000Y-108978582D01*
X42714103Y-108972268D01*
X42775743Y-108953570D01*
X42832550Y-108923206D01*
X42882343Y-108882343D01*
X42923206Y-108832550D01*
X42953570Y-108775743D01*
X42972268Y-108714103D01*
X42978582Y-108650000D01*
X42978582Y-106950000D01*
X42978582Y-106949999D01*
X69796418Y-106949999D01*
X69796418Y-107650001D01*
X69807535Y-107762877D01*
X69840460Y-107871414D01*
X69893926Y-107971443D01*
X69965880Y-108059120D01*
X70053557Y-108131074D01*
X70153586Y-108184540D01*
X70262123Y-108217465D01*
X70374999Y-108228582D01*
X71625001Y-108228582D01*
X71737877Y-108217465D01*
X71846414Y-108184540D01*
X71946443Y-108131074D01*
X72034120Y-108059120D01*
X72106074Y-107971443D01*
X72159540Y-107871414D01*
X72192465Y-107762877D01*
X72203582Y-107650001D01*
X72203582Y-106949999D01*
X72192465Y-106837123D01*
X72159540Y-106728586D01*
X72106074Y-106628557D01*
X72034120Y-106540880D01*
X71946443Y-106468926D01*
X71846414Y-106415460D01*
X71737877Y-106382535D01*
X71625001Y-106371418D01*
X70374999Y-106371418D01*
X70262123Y-106382535D01*
X70153586Y-106415460D01*
X70053557Y-106468926D01*
X69965880Y-106540880D01*
X69893926Y-106628557D01*
X69840460Y-106728586D01*
X69807535Y-106837123D01*
X69796418Y-106949999D01*
X42978582Y-106949999D01*
X42972268Y-106885897D01*
X42953570Y-106824257D01*
X42923206Y-106767450D01*
X42882343Y-106717657D01*
X42832550Y-106676794D01*
X42775743Y-106646430D01*
X42714103Y-106627732D01*
X42650000Y-106621418D01*
X40950000Y-106621418D01*
X40885897Y-106627732D01*
X40824257Y-106646430D01*
X40767450Y-106676794D01*
X40717657Y-106717657D01*
X40676794Y-106767450D01*
X40646430Y-106824257D01*
X40627732Y-106885897D01*
X40621418Y-106950000D01*
X28152000Y-106950000D01*
X28152000Y-105144076D01*
X40623000Y-105144076D01*
X40623000Y-105375924D01*
X40668231Y-105603318D01*
X40756956Y-105817519D01*
X40885764Y-106010294D01*
X41049706Y-106174236D01*
X41242481Y-106303044D01*
X41456682Y-106391769D01*
X41684076Y-106437000D01*
X41915924Y-106437000D01*
X42143318Y-106391769D01*
X42357519Y-106303044D01*
X42550294Y-106174236D01*
X42714236Y-106010294D01*
X42843044Y-105817519D01*
X42931769Y-105603318D01*
X42977000Y-105375924D01*
X42977000Y-105144076D01*
X42931769Y-104916682D01*
X42843044Y-104702481D01*
X42714236Y-104509706D01*
X42550294Y-104345764D01*
X42357519Y-104216956D01*
X42143318Y-104128231D01*
X41915924Y-104083000D01*
X41684076Y-104083000D01*
X41456682Y-104128231D01*
X41242481Y-104216956D01*
X41049706Y-104345764D01*
X40885764Y-104509706D01*
X40756956Y-104702481D01*
X40668231Y-104916682D01*
X40623000Y-105144076D01*
X28152000Y-105144076D01*
X28152000Y-102950000D01*
X29221418Y-102950000D01*
X29221418Y-104650000D01*
X29227732Y-104714103D01*
X29246430Y-104775743D01*
X29276794Y-104832550D01*
X29317657Y-104882343D01*
X29367450Y-104923206D01*
X29424257Y-104953570D01*
X29485897Y-104972268D01*
X29550000Y-104978582D01*
X31250000Y-104978582D01*
X31314103Y-104972268D01*
X31375743Y-104953570D01*
X31432550Y-104923206D01*
X31482343Y-104882343D01*
X31523206Y-104832550D01*
X31553570Y-104775743D01*
X31572268Y-104714103D01*
X31578582Y-104650000D01*
X31578582Y-103684076D01*
X31763000Y-103684076D01*
X31763000Y-103915924D01*
X31808231Y-104143318D01*
X31896956Y-104357519D01*
X32025764Y-104550294D01*
X32189706Y-104714236D01*
X32382481Y-104843044D01*
X32596682Y-104931769D01*
X32824076Y-104977000D01*
X33055924Y-104977000D01*
X33283318Y-104931769D01*
X33497519Y-104843044D01*
X33690294Y-104714236D01*
X33854236Y-104550294D01*
X33983044Y-104357519D01*
X34071769Y-104143318D01*
X34117000Y-103915924D01*
X34117000Y-103684076D01*
X34071769Y-103456682D01*
X33983044Y-103242481D01*
X33854236Y-103049706D01*
X33690294Y-102885764D01*
X33497519Y-102756956D01*
X33283318Y-102668231D01*
X33055924Y-102623000D01*
X32824076Y-102623000D01*
X32596682Y-102668231D01*
X32382481Y-102756956D01*
X32189706Y-102885764D01*
X32025764Y-103049706D01*
X31896956Y-103242481D01*
X31808231Y-103456682D01*
X31763000Y-103684076D01*
X31578582Y-103684076D01*
X31578582Y-102950000D01*
X31572268Y-102885897D01*
X31553570Y-102824257D01*
X31523206Y-102767450D01*
X31482343Y-102717657D01*
X31432550Y-102676794D01*
X31375743Y-102646430D01*
X31314103Y-102627732D01*
X31250000Y-102621418D01*
X29550000Y-102621418D01*
X29485897Y-102627732D01*
X29424257Y-102646430D01*
X29367450Y-102676794D01*
X29317657Y-102717657D01*
X29276794Y-102767450D01*
X29246430Y-102824257D01*
X29227732Y-102885897D01*
X29221418Y-102950000D01*
X28152000Y-102950000D01*
X28152000Y-102579151D01*
X43693000Y-102579151D01*
X43693000Y-102820849D01*
X43740153Y-103057903D01*
X43832647Y-103281202D01*
X43966927Y-103482167D01*
X44137833Y-103653073D01*
X44338798Y-103787353D01*
X44562097Y-103879847D01*
X44799151Y-103927000D01*
X45040849Y-103927000D01*
X45277903Y-103879847D01*
X45501202Y-103787353D01*
X45702167Y-103653073D01*
X45873073Y-103482167D01*
X46007353Y-103281202D01*
X46099847Y-103057903D01*
X46147000Y-102820849D01*
X46147000Y-102579151D01*
X46099847Y-102342097D01*
X46007353Y-102118798D01*
X45961518Y-102050200D01*
X48771418Y-102050200D01*
X48771418Y-103349800D01*
X48782539Y-103462715D01*
X48815475Y-103571290D01*
X48868960Y-103671354D01*
X48940939Y-103759061D01*
X49028646Y-103831040D01*
X49128710Y-103884525D01*
X49237285Y-103917461D01*
X49350200Y-103928582D01*
X50649800Y-103928582D01*
X50762715Y-103917461D01*
X50871290Y-103884525D01*
X50971354Y-103831040D01*
X51059061Y-103759061D01*
X51131040Y-103671354D01*
X51184525Y-103571290D01*
X51217461Y-103462715D01*
X51228582Y-103349800D01*
X51228582Y-102375000D01*
X61046418Y-102375000D01*
X61046418Y-103225000D01*
X61052732Y-103289103D01*
X61071430Y-103350743D01*
X61101794Y-103407550D01*
X61142657Y-103457343D01*
X61192450Y-103498206D01*
X61249257Y-103528570D01*
X61310897Y-103547268D01*
X61375000Y-103553582D01*
X62225000Y-103553582D01*
X62289103Y-103547268D01*
X62350743Y-103528570D01*
X62407550Y-103498206D01*
X62457343Y-103457343D01*
X62498206Y-103407550D01*
X62528570Y-103350743D01*
X62547268Y-103289103D01*
X62553582Y-103225000D01*
X62553582Y-102575000D01*
X65446418Y-102575000D01*
X65446418Y-103425000D01*
X65452732Y-103489103D01*
X65471430Y-103550743D01*
X65501794Y-103607550D01*
X65542657Y-103657343D01*
X65592450Y-103698206D01*
X65649257Y-103728570D01*
X65710897Y-103747268D01*
X65775000Y-103753582D01*
X66625000Y-103753582D01*
X66689103Y-103747268D01*
X66750743Y-103728570D01*
X66807550Y-103698206D01*
X66857343Y-103657343D01*
X66898206Y-103607550D01*
X66928570Y-103550743D01*
X66947268Y-103489103D01*
X66953582Y-103425000D01*
X66953582Y-102575000D01*
X66947268Y-102510897D01*
X66928570Y-102449257D01*
X66898206Y-102392450D01*
X66857343Y-102342657D01*
X66807550Y-102301794D01*
X66750743Y-102271430D01*
X66689103Y-102252732D01*
X66625000Y-102246418D01*
X65775000Y-102246418D01*
X65710897Y-102252732D01*
X65649257Y-102271430D01*
X65592450Y-102301794D01*
X65542657Y-102342657D01*
X65501794Y-102392450D01*
X65471430Y-102449257D01*
X65452732Y-102510897D01*
X65446418Y-102575000D01*
X62553582Y-102575000D01*
X62553582Y-102375000D01*
X62547268Y-102310897D01*
X62528570Y-102249257D01*
X62498206Y-102192450D01*
X62457343Y-102142657D01*
X62407550Y-102101794D01*
X62350743Y-102071430D01*
X62289103Y-102052732D01*
X62225000Y-102046418D01*
X61375000Y-102046418D01*
X61310897Y-102052732D01*
X61249257Y-102071430D01*
X61192450Y-102101794D01*
X61142657Y-102142657D01*
X61101794Y-102192450D01*
X61071430Y-102249257D01*
X61052732Y-102310897D01*
X61046418Y-102375000D01*
X51228582Y-102375000D01*
X51228582Y-102050200D01*
X51217461Y-101937285D01*
X51184525Y-101828710D01*
X51131040Y-101728646D01*
X51059061Y-101640939D01*
X50971354Y-101568960D01*
X50871290Y-101515475D01*
X50762715Y-101482539D01*
X50649800Y-101471418D01*
X49350200Y-101471418D01*
X49237285Y-101482539D01*
X49128710Y-101515475D01*
X49028646Y-101568960D01*
X48940939Y-101640939D01*
X48868960Y-101728646D01*
X48815475Y-101828710D01*
X48782539Y-101937285D01*
X48771418Y-102050200D01*
X45961518Y-102050200D01*
X45873073Y-101917833D01*
X45702167Y-101746927D01*
X45501202Y-101612647D01*
X45277903Y-101520153D01*
X45040849Y-101473000D01*
X44799151Y-101473000D01*
X44562097Y-101520153D01*
X44338798Y-101612647D01*
X44137833Y-101746927D01*
X43966927Y-101917833D01*
X43832647Y-102118798D01*
X43740153Y-102342097D01*
X43693000Y-102579151D01*
X28152000Y-102579151D01*
X28152000Y-99928397D01*
X28773000Y-99928397D01*
X28773000Y-100071603D01*
X28800938Y-100212058D01*
X28855741Y-100344364D01*
X28935302Y-100463436D01*
X29036564Y-100564698D01*
X29155636Y-100644259D01*
X29287942Y-100699062D01*
X29428397Y-100727000D01*
X29571603Y-100727000D01*
X29712058Y-100699062D01*
X29844364Y-100644259D01*
X29939038Y-100581000D01*
X32690519Y-100581000D01*
X32807483Y-100616480D01*
X32914292Y-100627000D01*
X33485708Y-100627000D01*
X33592517Y-100616480D01*
X33729557Y-100574910D01*
X33855853Y-100507403D01*
X33966554Y-100416554D01*
X34057403Y-100305853D01*
X34124910Y-100179557D01*
X34166480Y-100042517D01*
X34180517Y-99900000D01*
X34166480Y-99757483D01*
X34124910Y-99620443D01*
X34057403Y-99494147D01*
X33966554Y-99383446D01*
X33855853Y-99292597D01*
X33729557Y-99225090D01*
X33592517Y-99183520D01*
X33485708Y-99173000D01*
X32914292Y-99173000D01*
X32807483Y-99183520D01*
X32670443Y-99225090D01*
X32544147Y-99292597D01*
X32433446Y-99383446D01*
X32404268Y-99419000D01*
X29939038Y-99419000D01*
X29844364Y-99355741D01*
X29712058Y-99300938D01*
X29571603Y-99273000D01*
X29428397Y-99273000D01*
X29287942Y-99300938D01*
X29155636Y-99355741D01*
X29036564Y-99435302D01*
X28935302Y-99536564D01*
X28855741Y-99655636D01*
X28800938Y-99787942D01*
X28773000Y-99928397D01*
X28152000Y-99928397D01*
X28152000Y-96150000D01*
X32219483Y-96150000D01*
X32233520Y-96292517D01*
X32275090Y-96429557D01*
X32342597Y-96555853D01*
X32433446Y-96666554D01*
X32544147Y-96757403D01*
X32577068Y-96775000D01*
X32544147Y-96792597D01*
X32433446Y-96883446D01*
X32342597Y-96994147D01*
X32275090Y-97120443D01*
X32233520Y-97257483D01*
X32219483Y-97400000D01*
X32233520Y-97542517D01*
X32275090Y-97679557D01*
X32342597Y-97805853D01*
X32433446Y-97916554D01*
X32544147Y-98007403D01*
X32670443Y-98074910D01*
X32807483Y-98116480D01*
X32914292Y-98127000D01*
X33485708Y-98127000D01*
X33592517Y-98116480D01*
X33729557Y-98074910D01*
X33855853Y-98007403D01*
X33966554Y-97916554D01*
X34057403Y-97805853D01*
X34124910Y-97679557D01*
X34140428Y-97628397D01*
X69573000Y-97628397D01*
X69573000Y-97771603D01*
X69600938Y-97912058D01*
X69655741Y-98044364D01*
X69735302Y-98163436D01*
X69836564Y-98264698D01*
X69955636Y-98344259D01*
X70087942Y-98399062D01*
X70228397Y-98427000D01*
X70371603Y-98427000D01*
X70512058Y-98399062D01*
X70644364Y-98344259D01*
X70763436Y-98264698D01*
X70864698Y-98163436D01*
X70871003Y-98154000D01*
X71982110Y-98154000D01*
X72033446Y-98216554D01*
X72144147Y-98307403D01*
X72177068Y-98325000D01*
X72144147Y-98342597D01*
X72033446Y-98433446D01*
X71942597Y-98544147D01*
X71875090Y-98670443D01*
X71833520Y-98807483D01*
X71819483Y-98950000D01*
X71833520Y-99092517D01*
X71875090Y-99229557D01*
X71942597Y-99355853D01*
X72033446Y-99466554D01*
X72111798Y-99530855D01*
X72056336Y-99560500D01*
X71976236Y-99626236D01*
X71910500Y-99706336D01*
X71861654Y-99797720D01*
X71831575Y-99896879D01*
X71821418Y-100000000D01*
X71821418Y-100400000D01*
X71831575Y-100503121D01*
X71861654Y-100602280D01*
X71910500Y-100693664D01*
X71976236Y-100773764D01*
X72056336Y-100839500D01*
X72147720Y-100888346D01*
X72246879Y-100918425D01*
X72350000Y-100928582D01*
X73250000Y-100928582D01*
X73353121Y-100918425D01*
X73452280Y-100888346D01*
X73543664Y-100839500D01*
X73623764Y-100773764D01*
X73689500Y-100693664D01*
X73738346Y-100602280D01*
X73768425Y-100503121D01*
X73778582Y-100400000D01*
X73778582Y-100000000D01*
X73768425Y-99896879D01*
X73738346Y-99797720D01*
X73689500Y-99706336D01*
X73623764Y-99626236D01*
X73543664Y-99560500D01*
X73488202Y-99530855D01*
X73566554Y-99466554D01*
X73657403Y-99355853D01*
X73724910Y-99229557D01*
X73766480Y-99092517D01*
X73780517Y-98950000D01*
X73766480Y-98807483D01*
X73724910Y-98670443D01*
X73657403Y-98544147D01*
X73566554Y-98433446D01*
X73455853Y-98342597D01*
X73422932Y-98325000D01*
X73455853Y-98307403D01*
X73566554Y-98216554D01*
X73657403Y-98105853D01*
X73724910Y-97979557D01*
X73766480Y-97842517D01*
X73780517Y-97700000D01*
X73766480Y-97557483D01*
X73724910Y-97420443D01*
X73657403Y-97294147D01*
X73566554Y-97183446D01*
X73455853Y-97092597D01*
X73329557Y-97025090D01*
X73192517Y-96983520D01*
X73085708Y-96973000D01*
X72514292Y-96973000D01*
X72407483Y-96983520D01*
X72270443Y-97025090D01*
X72144147Y-97092597D01*
X72033446Y-97183446D01*
X71982110Y-97246000D01*
X70871003Y-97246000D01*
X70864698Y-97236564D01*
X70763436Y-97135302D01*
X70644364Y-97055741D01*
X70512058Y-97000938D01*
X70371603Y-96973000D01*
X70228397Y-96973000D01*
X70087942Y-97000938D01*
X69955636Y-97055741D01*
X69836564Y-97135302D01*
X69735302Y-97236564D01*
X69655741Y-97355636D01*
X69600938Y-97487942D01*
X69573000Y-97628397D01*
X34140428Y-97628397D01*
X34166480Y-97542517D01*
X34180517Y-97400000D01*
X34166480Y-97257483D01*
X34124910Y-97120443D01*
X34057403Y-96994147D01*
X33966554Y-96883446D01*
X33855853Y-96792597D01*
X33822932Y-96775000D01*
X33855853Y-96757403D01*
X33966554Y-96666554D01*
X34057403Y-96555853D01*
X34124910Y-96429557D01*
X34166480Y-96292517D01*
X34180517Y-96150000D01*
X34166480Y-96007483D01*
X34124910Y-95870443D01*
X34057403Y-95744147D01*
X33966554Y-95633446D01*
X33888202Y-95569145D01*
X33943664Y-95539500D01*
X34023764Y-95473764D01*
X34089500Y-95393664D01*
X34138346Y-95302280D01*
X34168425Y-95203121D01*
X34168732Y-95200000D01*
X71819483Y-95200000D01*
X71833520Y-95342517D01*
X71875090Y-95479557D01*
X71942597Y-95605853D01*
X72033446Y-95716554D01*
X72144147Y-95807403D01*
X72270443Y-95874910D01*
X72407483Y-95916480D01*
X72514292Y-95927000D01*
X73085708Y-95927000D01*
X73192517Y-95916480D01*
X73329557Y-95874910D01*
X73455853Y-95807403D01*
X73488025Y-95781000D01*
X74810866Y-95781000D01*
X74815564Y-95785698D01*
X74934636Y-95865259D01*
X75066942Y-95920062D01*
X75207397Y-95948000D01*
X75350603Y-95948000D01*
X75491058Y-95920062D01*
X75623364Y-95865259D01*
X75742436Y-95785698D01*
X75843698Y-95684436D01*
X75923259Y-95565364D01*
X75978062Y-95433058D01*
X76006000Y-95292603D01*
X76006000Y-95149397D01*
X75978062Y-95008942D01*
X75923259Y-94876636D01*
X75843698Y-94757564D01*
X75742436Y-94656302D01*
X75623364Y-94576741D01*
X75491058Y-94521938D01*
X75350603Y-94494000D01*
X75207397Y-94494000D01*
X75066942Y-94521938D01*
X74934636Y-94576741D01*
X74871391Y-94619000D01*
X73488025Y-94619000D01*
X73455853Y-94592597D01*
X73329557Y-94525090D01*
X73192517Y-94483520D01*
X73085708Y-94473000D01*
X72514292Y-94473000D01*
X72407483Y-94483520D01*
X72270443Y-94525090D01*
X72144147Y-94592597D01*
X72033446Y-94683446D01*
X71942597Y-94794147D01*
X71875090Y-94920443D01*
X71833520Y-95057483D01*
X71819483Y-95200000D01*
X34168732Y-95200000D01*
X34178582Y-95100000D01*
X34178582Y-94700000D01*
X34168425Y-94596879D01*
X34138346Y-94497720D01*
X34089500Y-94406336D01*
X34023764Y-94326236D01*
X33943664Y-94260500D01*
X33852280Y-94211654D01*
X33753121Y-94181575D01*
X33650000Y-94171418D01*
X32750000Y-94171418D01*
X32646879Y-94181575D01*
X32547720Y-94211654D01*
X32456336Y-94260500D01*
X32376236Y-94326236D01*
X32310500Y-94406336D01*
X32261654Y-94497720D01*
X32231575Y-94596879D01*
X32221418Y-94700000D01*
X32221418Y-95100000D01*
X32231575Y-95203121D01*
X32261654Y-95302280D01*
X32310500Y-95393664D01*
X32376236Y-95473764D01*
X32456336Y-95539500D01*
X32511798Y-95569145D01*
X32433446Y-95633446D01*
X32342597Y-95744147D01*
X32275090Y-95870443D01*
X32233520Y-96007483D01*
X32219483Y-96150000D01*
X28152000Y-96150000D01*
X28152000Y-89450000D01*
X32219483Y-89450000D01*
X32233520Y-89592517D01*
X32275090Y-89729557D01*
X32342597Y-89855853D01*
X32433446Y-89966554D01*
X32544147Y-90057403D01*
X32670443Y-90124910D01*
X32807483Y-90166480D01*
X32914292Y-90177000D01*
X33485708Y-90177000D01*
X33592517Y-90166480D01*
X33729557Y-90124910D01*
X33855853Y-90057403D01*
X33966554Y-89966554D01*
X34057403Y-89855853D01*
X34124910Y-89729557D01*
X34166480Y-89592517D01*
X34180517Y-89450000D01*
X34166480Y-89307483D01*
X34124910Y-89170443D01*
X34057403Y-89044147D01*
X33966554Y-88933446D01*
X33888202Y-88869145D01*
X33943664Y-88839500D01*
X34023764Y-88773764D01*
X34089500Y-88693664D01*
X34138346Y-88602280D01*
X34168425Y-88503121D01*
X34178582Y-88400000D01*
X34178582Y-88000000D01*
X34168425Y-87896879D01*
X34138346Y-87797720D01*
X34089500Y-87706336D01*
X34023764Y-87626236D01*
X33943664Y-87560500D01*
X33852280Y-87511654D01*
X33780999Y-87490032D01*
X33781001Y-85305240D01*
X33812058Y-85299062D01*
X33944364Y-85244259D01*
X34063436Y-85164698D01*
X34164698Y-85063436D01*
X34244259Y-84944364D01*
X34256715Y-84914292D01*
X39223000Y-84914292D01*
X39223000Y-85485707D01*
X39233520Y-85592516D01*
X39275090Y-85729556D01*
X39342597Y-85855852D01*
X39433446Y-85966553D01*
X39544147Y-86057403D01*
X39670443Y-86124910D01*
X39807483Y-86166480D01*
X39950000Y-86180517D01*
X40092516Y-86166480D01*
X40229556Y-86124910D01*
X40355852Y-86057403D01*
X40466553Y-85966554D01*
X40557403Y-85855853D01*
X40624910Y-85729557D01*
X40666480Y-85592517D01*
X40677000Y-85485708D01*
X40677000Y-84914292D01*
X41723000Y-84914292D01*
X41723000Y-85485707D01*
X41733520Y-85592516D01*
X41775090Y-85729556D01*
X41842597Y-85855852D01*
X41933446Y-85966553D01*
X42044147Y-86057403D01*
X42170443Y-86124910D01*
X42307483Y-86166480D01*
X42450000Y-86180517D01*
X42592516Y-86166480D01*
X42729556Y-86124910D01*
X42855852Y-86057403D01*
X42966553Y-85966554D01*
X43057403Y-85855853D01*
X43075000Y-85822931D01*
X43092597Y-85855852D01*
X43183446Y-85966553D01*
X43294147Y-86057403D01*
X43420443Y-86124910D01*
X43557483Y-86166480D01*
X43700000Y-86180517D01*
X43842516Y-86166480D01*
X43979556Y-86124910D01*
X44105852Y-86057403D01*
X44216553Y-85966554D01*
X44280855Y-85888202D01*
X44310500Y-85943664D01*
X44376236Y-86023764D01*
X44456336Y-86089500D01*
X44547720Y-86138346D01*
X44646879Y-86168425D01*
X44750000Y-86178582D01*
X45150000Y-86178582D01*
X45253121Y-86168425D01*
X45352280Y-86138346D01*
X45443664Y-86089500D01*
X45523764Y-86023764D01*
X45589500Y-85943664D01*
X45638346Y-85852280D01*
X45668425Y-85753121D01*
X45678582Y-85650000D01*
X45678582Y-84914292D01*
X49123000Y-84914292D01*
X49123000Y-85485707D01*
X49133520Y-85592516D01*
X49175090Y-85729556D01*
X49242597Y-85855852D01*
X49333446Y-85966553D01*
X49444147Y-86057403D01*
X49570443Y-86124910D01*
X49707483Y-86166480D01*
X49850000Y-86180517D01*
X49992516Y-86166480D01*
X50129556Y-86124910D01*
X50255852Y-86057403D01*
X50366553Y-85966554D01*
X50457403Y-85855853D01*
X50524910Y-85729557D01*
X50566480Y-85592517D01*
X50577000Y-85485708D01*
X50577000Y-84914292D01*
X51623000Y-84914292D01*
X51623000Y-85485707D01*
X51633520Y-85592516D01*
X51675090Y-85729556D01*
X51742597Y-85855852D01*
X51833446Y-85966553D01*
X51944147Y-86057403D01*
X52070443Y-86124910D01*
X52207483Y-86166480D01*
X52350000Y-86180517D01*
X52492516Y-86166480D01*
X52629556Y-86124910D01*
X52755852Y-86057403D01*
X52866553Y-85966554D01*
X52957403Y-85855853D01*
X52975000Y-85822931D01*
X52992597Y-85855852D01*
X53083446Y-85966553D01*
X53194147Y-86057403D01*
X53320443Y-86124910D01*
X53457483Y-86166480D01*
X53600000Y-86180517D01*
X53742516Y-86166480D01*
X53879556Y-86124910D01*
X54005852Y-86057403D01*
X54116553Y-85966554D01*
X54207403Y-85855853D01*
X54225000Y-85822931D01*
X54242597Y-85855852D01*
X54333446Y-85966553D01*
X54444147Y-86057403D01*
X54570443Y-86124910D01*
X54707483Y-86166480D01*
X54850000Y-86180517D01*
X54992516Y-86166480D01*
X55129556Y-86124910D01*
X55255852Y-86057403D01*
X55366553Y-85966554D01*
X55430855Y-85888202D01*
X55460500Y-85943664D01*
X55526236Y-86023764D01*
X55606336Y-86089500D01*
X55697720Y-86138346D01*
X55796879Y-86168425D01*
X55900000Y-86178582D01*
X56300000Y-86178582D01*
X56403121Y-86168425D01*
X56502280Y-86138346D01*
X56593664Y-86089500D01*
X56673764Y-86023764D01*
X56739500Y-85943664D01*
X56788346Y-85852280D01*
X56818425Y-85753121D01*
X56828582Y-85650000D01*
X56828582Y-84914292D01*
X60273000Y-84914292D01*
X60273000Y-85485707D01*
X60283520Y-85592516D01*
X60325090Y-85729556D01*
X60392597Y-85855852D01*
X60483446Y-85966553D01*
X60594147Y-86057403D01*
X60720443Y-86124910D01*
X60857483Y-86166480D01*
X61000000Y-86180517D01*
X61142516Y-86166480D01*
X61279556Y-86124910D01*
X61405852Y-86057403D01*
X61516553Y-85966554D01*
X61607403Y-85855853D01*
X61674910Y-85729557D01*
X61716480Y-85592517D01*
X61727000Y-85485708D01*
X61727000Y-84914292D01*
X62773000Y-84914292D01*
X62773000Y-85485707D01*
X62783520Y-85592516D01*
X62825090Y-85729556D01*
X62892597Y-85855852D01*
X62983446Y-85966553D01*
X63094147Y-86057403D01*
X63220443Y-86124910D01*
X63357483Y-86166480D01*
X63500000Y-86180517D01*
X63642516Y-86166480D01*
X63779556Y-86124910D01*
X63905852Y-86057403D01*
X64016553Y-85966554D01*
X64107403Y-85855853D01*
X64125000Y-85822931D01*
X64142597Y-85855852D01*
X64233446Y-85966553D01*
X64344147Y-86057403D01*
X64470443Y-86124910D01*
X64607483Y-86166480D01*
X64750000Y-86180517D01*
X64892516Y-86166480D01*
X65029556Y-86124910D01*
X65155852Y-86057403D01*
X65266553Y-85966554D01*
X65330855Y-85888202D01*
X65360500Y-85943664D01*
X65426236Y-86023764D01*
X65506336Y-86089500D01*
X65597720Y-86138346D01*
X65696879Y-86168425D01*
X65800000Y-86178582D01*
X66200000Y-86178582D01*
X66303121Y-86168425D01*
X66402280Y-86138346D01*
X66493664Y-86089500D01*
X66573764Y-86023764D01*
X66639500Y-85943664D01*
X66688346Y-85852280D01*
X66718425Y-85753121D01*
X66728582Y-85650000D01*
X66728582Y-84750000D01*
X66718425Y-84646879D01*
X66688346Y-84547720D01*
X66678018Y-84528397D01*
X71473000Y-84528397D01*
X71473000Y-84671603D01*
X71500938Y-84812058D01*
X71555741Y-84944364D01*
X71635302Y-85063436D01*
X71736564Y-85164698D01*
X71855636Y-85244259D01*
X71987942Y-85299062D01*
X72099618Y-85321276D01*
X72219000Y-85440658D01*
X72219000Y-85628540D01*
X72219001Y-85628550D01*
X72219000Y-87652587D01*
X72144147Y-87692597D01*
X72033446Y-87783446D01*
X71942597Y-87894147D01*
X71875090Y-88020443D01*
X71833520Y-88157483D01*
X71819483Y-88300000D01*
X71833520Y-88442517D01*
X71875090Y-88579557D01*
X71942597Y-88705853D01*
X72033446Y-88816554D01*
X72144147Y-88907403D01*
X72177068Y-88925000D01*
X72144147Y-88942597D01*
X72033446Y-89033446D01*
X71942597Y-89144147D01*
X71875090Y-89270443D01*
X71833520Y-89407483D01*
X71819483Y-89550000D01*
X71833520Y-89692517D01*
X71875090Y-89829557D01*
X71942597Y-89955853D01*
X72033446Y-90066554D01*
X72144147Y-90157403D01*
X72270443Y-90224910D01*
X72407483Y-90266480D01*
X72514292Y-90277000D01*
X73085708Y-90277000D01*
X73192517Y-90266480D01*
X73329557Y-90224910D01*
X73455853Y-90157403D01*
X73566554Y-90066554D01*
X73657403Y-89955853D01*
X73724910Y-89829557D01*
X73766480Y-89692517D01*
X73780517Y-89550000D01*
X73766480Y-89407483D01*
X73724910Y-89270443D01*
X73657403Y-89144147D01*
X73566554Y-89033446D01*
X73455853Y-88942597D01*
X73422932Y-88925000D01*
X73455853Y-88907403D01*
X73488025Y-88881000D01*
X76560962Y-88881000D01*
X76655636Y-88944259D01*
X76787942Y-88999062D01*
X76928397Y-89027000D01*
X77071603Y-89027000D01*
X77212058Y-88999062D01*
X77344364Y-88944259D01*
X77463436Y-88864698D01*
X77564698Y-88763436D01*
X77644259Y-88644364D01*
X77699062Y-88512058D01*
X77727000Y-88371603D01*
X77727000Y-88228397D01*
X77699062Y-88087942D01*
X77644259Y-87955636D01*
X77564698Y-87836564D01*
X77463436Y-87735302D01*
X77344364Y-87655741D01*
X77212058Y-87600938D01*
X77071603Y-87573000D01*
X76928397Y-87573000D01*
X76787942Y-87600938D01*
X76655636Y-87655741D01*
X76560962Y-87719000D01*
X73488025Y-87719000D01*
X73455853Y-87692597D01*
X73381000Y-87652587D01*
X73381000Y-85228539D01*
X73383811Y-85199999D01*
X73372593Y-85086104D01*
X73339371Y-84976585D01*
X73322148Y-84944364D01*
X73285421Y-84875652D01*
X73212817Y-84787183D01*
X73190646Y-84768988D01*
X72921276Y-84499618D01*
X72899062Y-84387942D01*
X72844259Y-84255636D01*
X72764698Y-84136564D01*
X72663436Y-84035302D01*
X72544364Y-83955741D01*
X72412058Y-83900938D01*
X72271603Y-83873000D01*
X72128397Y-83873000D01*
X71987942Y-83900938D01*
X71855636Y-83955741D01*
X71736564Y-84035302D01*
X71635302Y-84136564D01*
X71555741Y-84255636D01*
X71500938Y-84387942D01*
X71473000Y-84528397D01*
X66678018Y-84528397D01*
X66639500Y-84456336D01*
X66573764Y-84376236D01*
X66493664Y-84310500D01*
X66402280Y-84261654D01*
X66303121Y-84231575D01*
X66200000Y-84221418D01*
X65800000Y-84221418D01*
X65696879Y-84231575D01*
X65597720Y-84261654D01*
X65506336Y-84310500D01*
X65426236Y-84376236D01*
X65360500Y-84456336D01*
X65330855Y-84511798D01*
X65266554Y-84433446D01*
X65155853Y-84342597D01*
X65029557Y-84275090D01*
X64892517Y-84233520D01*
X64750000Y-84219483D01*
X64607484Y-84233520D01*
X64470444Y-84275090D01*
X64344148Y-84342597D01*
X64233447Y-84433446D01*
X64142597Y-84544147D01*
X64125000Y-84577068D01*
X64107403Y-84544147D01*
X64016554Y-84433446D01*
X63905853Y-84342597D01*
X63779557Y-84275090D01*
X63642517Y-84233520D01*
X63500000Y-84219483D01*
X63357484Y-84233520D01*
X63220444Y-84275090D01*
X63094148Y-84342597D01*
X62983447Y-84433446D01*
X62892597Y-84544147D01*
X62825090Y-84670443D01*
X62783520Y-84807483D01*
X62773000Y-84914292D01*
X61727000Y-84914292D01*
X61716480Y-84807483D01*
X61674910Y-84670443D01*
X61607403Y-84544147D01*
X61516554Y-84433446D01*
X61405853Y-84342597D01*
X61279557Y-84275090D01*
X61142517Y-84233520D01*
X61000000Y-84219483D01*
X60857484Y-84233520D01*
X60720444Y-84275090D01*
X60594148Y-84342597D01*
X60483447Y-84433446D01*
X60392597Y-84544147D01*
X60325090Y-84670443D01*
X60283520Y-84807483D01*
X60273000Y-84914292D01*
X56828582Y-84914292D01*
X56828582Y-84750000D01*
X56818425Y-84646879D01*
X56788346Y-84547720D01*
X56739500Y-84456336D01*
X56673764Y-84376236D01*
X56593664Y-84310500D01*
X56502280Y-84261654D01*
X56403121Y-84231575D01*
X56300000Y-84221418D01*
X55900000Y-84221418D01*
X55796879Y-84231575D01*
X55697720Y-84261654D01*
X55606336Y-84310500D01*
X55526236Y-84376236D01*
X55460500Y-84456336D01*
X55430855Y-84511798D01*
X55366554Y-84433446D01*
X55255853Y-84342597D01*
X55129557Y-84275090D01*
X54992517Y-84233520D01*
X54850000Y-84219483D01*
X54707484Y-84233520D01*
X54570444Y-84275090D01*
X54444148Y-84342597D01*
X54333447Y-84433446D01*
X54242597Y-84544147D01*
X54225000Y-84577068D01*
X54207403Y-84544147D01*
X54116554Y-84433446D01*
X54005853Y-84342597D01*
X53879557Y-84275090D01*
X53742517Y-84233520D01*
X53600000Y-84219483D01*
X53457484Y-84233520D01*
X53320444Y-84275090D01*
X53194148Y-84342597D01*
X53083447Y-84433446D01*
X52992597Y-84544147D01*
X52975000Y-84577068D01*
X52957403Y-84544147D01*
X52866554Y-84433446D01*
X52755853Y-84342597D01*
X52629557Y-84275090D01*
X52492517Y-84233520D01*
X52350000Y-84219483D01*
X52207484Y-84233520D01*
X52070444Y-84275090D01*
X51944148Y-84342597D01*
X51833447Y-84433446D01*
X51742597Y-84544147D01*
X51675090Y-84670443D01*
X51633520Y-84807483D01*
X51623000Y-84914292D01*
X50577000Y-84914292D01*
X50566480Y-84807483D01*
X50524910Y-84670443D01*
X50457403Y-84544147D01*
X50366554Y-84433446D01*
X50255853Y-84342597D01*
X50129557Y-84275090D01*
X49992517Y-84233520D01*
X49850000Y-84219483D01*
X49707484Y-84233520D01*
X49570444Y-84275090D01*
X49444148Y-84342597D01*
X49333447Y-84433446D01*
X49242597Y-84544147D01*
X49175090Y-84670443D01*
X49133520Y-84807483D01*
X49123000Y-84914292D01*
X45678582Y-84914292D01*
X45678582Y-84750000D01*
X45668425Y-84646879D01*
X45638346Y-84547720D01*
X45589500Y-84456336D01*
X45523764Y-84376236D01*
X45443664Y-84310500D01*
X45352280Y-84261654D01*
X45253121Y-84231575D01*
X45150000Y-84221418D01*
X44750000Y-84221418D01*
X44646879Y-84231575D01*
X44547720Y-84261654D01*
X44456336Y-84310500D01*
X44376236Y-84376236D01*
X44310500Y-84456336D01*
X44280855Y-84511798D01*
X44216554Y-84433446D01*
X44105853Y-84342597D01*
X43979557Y-84275090D01*
X43842517Y-84233520D01*
X43700000Y-84219483D01*
X43557484Y-84233520D01*
X43420444Y-84275090D01*
X43294148Y-84342597D01*
X43183447Y-84433446D01*
X43092597Y-84544147D01*
X43075000Y-84577068D01*
X43057403Y-84544147D01*
X42966554Y-84433446D01*
X42855853Y-84342597D01*
X42729557Y-84275090D01*
X42592517Y-84233520D01*
X42450000Y-84219483D01*
X42307484Y-84233520D01*
X42170444Y-84275090D01*
X42044148Y-84342597D01*
X41933447Y-84433446D01*
X41842597Y-84544147D01*
X41775090Y-84670443D01*
X41733520Y-84807483D01*
X41723000Y-84914292D01*
X40677000Y-84914292D01*
X40666480Y-84807483D01*
X40624910Y-84670443D01*
X40557403Y-84544147D01*
X40466554Y-84433446D01*
X40355853Y-84342597D01*
X40229557Y-84275090D01*
X40092517Y-84233520D01*
X39950000Y-84219483D01*
X39807484Y-84233520D01*
X39670444Y-84275090D01*
X39544148Y-84342597D01*
X39433447Y-84433446D01*
X39342597Y-84544147D01*
X39275090Y-84670443D01*
X39233520Y-84807483D01*
X39223000Y-84914292D01*
X34256715Y-84914292D01*
X34299062Y-84812058D01*
X34327000Y-84671603D01*
X34327000Y-84528397D01*
X34299062Y-84387942D01*
X34244259Y-84255636D01*
X34164698Y-84136564D01*
X34063436Y-84035302D01*
X33944364Y-83955741D01*
X33812058Y-83900938D01*
X33671603Y-83873000D01*
X33528397Y-83873000D01*
X33387942Y-83900938D01*
X33255636Y-83955741D01*
X33136564Y-84035302D01*
X33035302Y-84136564D01*
X32955741Y-84255636D01*
X32900938Y-84387942D01*
X32878724Y-84499618D01*
X32809356Y-84568987D01*
X32787185Y-84587182D01*
X32738193Y-84646879D01*
X32714580Y-84675652D01*
X32660630Y-84776585D01*
X32627408Y-84886104D01*
X32616190Y-84999999D01*
X32619002Y-85028549D01*
X32619000Y-87490032D01*
X32547720Y-87511654D01*
X32456336Y-87560500D01*
X32376236Y-87626236D01*
X32310500Y-87706336D01*
X32261654Y-87797720D01*
X32231575Y-87896879D01*
X32221418Y-88000000D01*
X32221418Y-88400000D01*
X32231575Y-88503121D01*
X32261654Y-88602280D01*
X32310500Y-88693664D01*
X32376236Y-88773764D01*
X32456336Y-88839500D01*
X32511798Y-88869145D01*
X32433446Y-88933446D01*
X32342597Y-89044147D01*
X32275090Y-89170443D01*
X32233520Y-89307483D01*
X32219483Y-89450000D01*
X28152000Y-89450000D01*
X28152000Y-83007439D01*
X28206956Y-82446962D01*
X28367568Y-81914988D01*
X28628444Y-81424348D01*
X28639279Y-81411062D01*
X33597000Y-81411062D01*
X33597000Y-81588938D01*
X33631702Y-81763395D01*
X33699772Y-81927731D01*
X33798594Y-82075629D01*
X33924371Y-82201406D01*
X34072269Y-82300228D01*
X34236605Y-82368298D01*
X34411062Y-82403000D01*
X34588938Y-82403000D01*
X34763395Y-82368298D01*
X34927731Y-82300228D01*
X35075629Y-82201406D01*
X35201406Y-82075629D01*
X35300228Y-81927731D01*
X35368298Y-81763395D01*
X35403000Y-81588938D01*
X35403000Y-81411062D01*
X70597000Y-81411062D01*
X70597000Y-81588938D01*
X70631702Y-81763395D01*
X70699772Y-81927731D01*
X70798594Y-82075629D01*
X70924371Y-82201406D01*
X71072269Y-82300228D01*
X71236605Y-82368298D01*
X71411062Y-82403000D01*
X71588938Y-82403000D01*
X71763395Y-82368298D01*
X71927731Y-82300228D01*
X72075629Y-82201406D01*
X72201406Y-82075629D01*
X72300228Y-81927731D01*
X72368298Y-81763395D01*
X72403000Y-81588938D01*
X72403000Y-81411062D01*
X72368298Y-81236605D01*
X72300228Y-81072269D01*
X72201406Y-80924371D01*
X72075629Y-80798594D01*
X71927731Y-80699772D01*
X71763395Y-80631702D01*
X71588938Y-80597000D01*
X71411062Y-80597000D01*
X71236605Y-80631702D01*
X71072269Y-80699772D01*
X70924371Y-80798594D01*
X70798594Y-80924371D01*
X70699772Y-81072269D01*
X70631702Y-81236605D01*
X70597000Y-81411062D01*
X35403000Y-81411062D01*
X35368298Y-81236605D01*
X35300228Y-81072269D01*
X35201406Y-80924371D01*
X35075629Y-80798594D01*
X34927731Y-80699772D01*
X34763395Y-80631702D01*
X34588938Y-80597000D01*
X34411062Y-80597000D01*
X34236605Y-80631702D01*
X34072269Y-80699772D01*
X33924371Y-80798594D01*
X33798594Y-80924371D01*
X33699772Y-81072269D01*
X33631702Y-81236605D01*
X33597000Y-81411062D01*
X28639279Y-81411062D01*
X28979661Y-80993714D01*
X29407826Y-80639506D01*
X29896641Y-80375205D01*
X30427477Y-80210883D01*
X30987283Y-80152045D01*
X31000243Y-80152000D01*
X74992561Y-80152000D01*
X75553038Y-80206956D01*
G37*
%TD.AperFunction*%
%TD*%
M02*
