%TF.GenerationSoftware,KiCad,Pcbnew,5.1.10*%
%TF.CreationDate,2021-06-15T07:02:33+02:00*%
%TF.ProjectId,nsumo,6e73756d-6f2e-46b6-9963-61645f706362,rev?*%
%TF.SameCoordinates,Original*%
%TF.FileFunction,Legend,Top*%
%TF.FilePolarity,Positive*%
%FSLAX46Y46*%
G04 Gerber Fmt 4.6, Leading zero omitted, Abs format (unit mm)*
G04 Created by KiCad (PCBNEW 5.1.10) date 2021-06-15 07:02:33*
%MOMM*%
%LPD*%
G01*
G04 APERTURE LIST*
%ADD10C,0.120000*%
%ADD11C,0.150000*%
%ADD12C,0.500000*%
%ADD13C,0.125000*%
G04 APERTURE END LIST*
D10*
X65050000Y-101200000D02*
G75*
G03*
X65050000Y-101200000I-50000J0D01*
G01*
X58550000Y-100800000D02*
G75*
G03*
X58550000Y-100800000I-50000J0D01*
G01*
D11*
X74819047Y-116961904D02*
X75352380Y-116961904D01*
X75009523Y-117761904D01*
X75657142Y-117685714D02*
X75695238Y-117723809D01*
X75657142Y-117761904D01*
X75619047Y-117723809D01*
X75657142Y-117685714D01*
X75657142Y-117761904D01*
X76380952Y-117228571D02*
X76380952Y-117761904D01*
X76190476Y-116923809D02*
X76000000Y-117495238D01*
X76495238Y-117495238D01*
X76685714Y-116961904D02*
X76952380Y-117761904D01*
X77219047Y-116961904D01*
X74719047Y-109561904D02*
X75214285Y-109561904D01*
X74947619Y-109866666D01*
X75061904Y-109866666D01*
X75138095Y-109904761D01*
X75176190Y-109942857D01*
X75214285Y-110019047D01*
X75214285Y-110209523D01*
X75176190Y-110285714D01*
X75138095Y-110323809D01*
X75061904Y-110361904D01*
X74833333Y-110361904D01*
X74757142Y-110323809D01*
X74719047Y-110285714D01*
X75557142Y-110285714D02*
X75595238Y-110323809D01*
X75557142Y-110361904D01*
X75519047Y-110323809D01*
X75557142Y-110285714D01*
X75557142Y-110361904D01*
X75861904Y-109561904D02*
X76395238Y-109561904D01*
X76052380Y-110361904D01*
X76585714Y-109561904D02*
X76852380Y-110361904D01*
X77119047Y-109561904D01*
D10*
X56850000Y-126400000D02*
G75*
G03*
X56850000Y-126400000I-50000J0D01*
G01*
X51050000Y-105200000D02*
G75*
G03*
X51050000Y-105200000I-50000J0D01*
G01*
D11*
X66495238Y-111757142D02*
X67104761Y-111757142D01*
X65495238Y-110557142D02*
X66104761Y-110557142D01*
X65800000Y-110861904D02*
X65800000Y-110252380D01*
D10*
X60500000Y-113000000D02*
G75*
G03*
X60500000Y-113000000I-50000J0D01*
G01*
D11*
X68995238Y-112607142D02*
X69604761Y-112607142D01*
X68995238Y-105257142D02*
X69604761Y-105257142D01*
X40161904Y-109261904D02*
X39361904Y-109261904D01*
X39361904Y-108957142D01*
X39400000Y-108880952D01*
X39438095Y-108842857D01*
X39514285Y-108804761D01*
X39628571Y-108804761D01*
X39704761Y-108842857D01*
X39742857Y-108880952D01*
X39780952Y-108957142D01*
X39780952Y-109261904D01*
X40161904Y-108042857D02*
X40161904Y-108500000D01*
X40161904Y-108271428D02*
X39361904Y-108271428D01*
X39476190Y-108347619D01*
X39552380Y-108423809D01*
X39590476Y-108500000D01*
X40085714Y-107700000D02*
X40123809Y-107661904D01*
X40161904Y-107700000D01*
X40123809Y-107738095D01*
X40085714Y-107700000D01*
X40161904Y-107700000D01*
X39361904Y-107395238D02*
X39361904Y-106900000D01*
X39666666Y-107166666D01*
X39666666Y-107052380D01*
X39704761Y-106976190D01*
X39742857Y-106938095D01*
X39819047Y-106900000D01*
X40009523Y-106900000D01*
X40085714Y-106938095D01*
X40123809Y-106976190D01*
X40161904Y-107052380D01*
X40161904Y-107280952D01*
X40123809Y-107357142D01*
X40085714Y-107395238D01*
X40161904Y-106361904D02*
X39361904Y-106361904D01*
X39361904Y-106057142D01*
X39400000Y-105980952D01*
X39438095Y-105942857D01*
X39514285Y-105904761D01*
X39628571Y-105904761D01*
X39704761Y-105942857D01*
X39742857Y-105980952D01*
X39780952Y-106057142D01*
X39780952Y-106361904D01*
X40161904Y-105142857D02*
X40161904Y-105600000D01*
X40161904Y-105371428D02*
X39361904Y-105371428D01*
X39476190Y-105447619D01*
X39552380Y-105523809D01*
X39590476Y-105600000D01*
X40085714Y-104800000D02*
X40123809Y-104761904D01*
X40161904Y-104800000D01*
X40123809Y-104838095D01*
X40085714Y-104800000D01*
X40161904Y-104800000D01*
X39628571Y-104076190D02*
X40161904Y-104076190D01*
X39323809Y-104266666D02*
X39895238Y-104457142D01*
X39895238Y-103961904D01*
D10*
X70150000Y-134700000D02*
G75*
G03*
X70150000Y-134700000I-50000J0D01*
G01*
X65950000Y-119700000D02*
G75*
G03*
X65950000Y-119700000I-50000J0D01*
G01*
X44650000Y-113700000D02*
G75*
G03*
X44650000Y-113700000I-50000J0D01*
G01*
X35800000Y-127450000D02*
G75*
G03*
X35800000Y-127450000I-50000J0D01*
G01*
D11*
X35704761Y-116461904D02*
X35704761Y-117033333D01*
X35666666Y-117147619D01*
X35590476Y-117223809D01*
X35476190Y-117261904D01*
X35400000Y-117261904D01*
X36466666Y-117261904D02*
X36085714Y-117261904D01*
X36085714Y-116461904D01*
X37190476Y-117185714D02*
X37152380Y-117223809D01*
X37038095Y-117261904D01*
X36961904Y-117261904D01*
X36847619Y-117223809D01*
X36771428Y-117147619D01*
X36733333Y-117071428D01*
X36695238Y-116919047D01*
X36695238Y-116804761D01*
X36733333Y-116652380D01*
X36771428Y-116576190D01*
X36847619Y-116500000D01*
X36961904Y-116461904D01*
X37038095Y-116461904D01*
X37152380Y-116500000D01*
X37190476Y-116538095D01*
X37761904Y-116461904D02*
X37761904Y-117033333D01*
X37723809Y-117147619D01*
X37647619Y-117223809D01*
X37533333Y-117261904D01*
X37457142Y-117261904D01*
X38523809Y-117261904D02*
X38142857Y-117261904D01*
X38142857Y-116461904D01*
X39247619Y-117185714D02*
X39209523Y-117223809D01*
X39095238Y-117261904D01*
X39019047Y-117261904D01*
X38904761Y-117223809D01*
X38828571Y-117147619D01*
X38790476Y-117071428D01*
X38752380Y-116919047D01*
X38752380Y-116804761D01*
X38790476Y-116652380D01*
X38828571Y-116576190D01*
X38904761Y-116500000D01*
X39019047Y-116461904D01*
X39095238Y-116461904D01*
X39209523Y-116500000D01*
X39247619Y-116538095D01*
X39819047Y-116461904D02*
X39819047Y-117033333D01*
X39780952Y-117147619D01*
X39704761Y-117223809D01*
X39590476Y-117261904D01*
X39514285Y-117261904D01*
X40580952Y-117261904D02*
X40200000Y-117261904D01*
X40200000Y-116461904D01*
X41304761Y-117185714D02*
X41266666Y-117223809D01*
X41152380Y-117261904D01*
X41076190Y-117261904D01*
X40961904Y-117223809D01*
X40885714Y-117147619D01*
X40847619Y-117071428D01*
X40809523Y-116919047D01*
X40809523Y-116804761D01*
X40847619Y-116652380D01*
X40885714Y-116576190D01*
X40961904Y-116500000D01*
X41076190Y-116461904D01*
X41152380Y-116461904D01*
X41266666Y-116500000D01*
X41304761Y-116538095D01*
X41876190Y-116461904D02*
X41876190Y-117033333D01*
X41838095Y-117147619D01*
X41761904Y-117223809D01*
X41647619Y-117261904D01*
X41571428Y-117261904D01*
X42638095Y-117261904D02*
X42257142Y-117261904D01*
X42257142Y-116461904D01*
X43361904Y-117185714D02*
X43323809Y-117223809D01*
X43209523Y-117261904D01*
X43133333Y-117261904D01*
X43019047Y-117223809D01*
X42942857Y-117147619D01*
X42904761Y-117071428D01*
X42866666Y-116919047D01*
X42866666Y-116804761D01*
X42904761Y-116652380D01*
X42942857Y-116576190D01*
X43019047Y-116500000D01*
X43133333Y-116461904D01*
X43209523Y-116461904D01*
X43323809Y-116500000D01*
X43361904Y-116538095D01*
X47700000Y-95361904D02*
X47433333Y-94980952D01*
X47242857Y-95361904D02*
X47242857Y-94561904D01*
X47547619Y-94561904D01*
X47623809Y-94600000D01*
X47661904Y-94638095D01*
X47700000Y-94714285D01*
X47700000Y-94828571D01*
X47661904Y-94904761D01*
X47623809Y-94942857D01*
X47547619Y-94980952D01*
X47242857Y-94980952D01*
X48347619Y-95323809D02*
X48271428Y-95361904D01*
X48119047Y-95361904D01*
X48042857Y-95323809D01*
X48004761Y-95247619D01*
X48004761Y-94942857D01*
X48042857Y-94866666D01*
X48119047Y-94828571D01*
X48271428Y-94828571D01*
X48347619Y-94866666D01*
X48385714Y-94942857D01*
X48385714Y-95019047D01*
X48004761Y-95095238D01*
X48652380Y-94828571D02*
X48842857Y-95361904D01*
X49033333Y-94828571D01*
X49757142Y-95361904D02*
X49300000Y-95361904D01*
X49528571Y-95361904D02*
X49528571Y-94561904D01*
X49452380Y-94676190D01*
X49376190Y-94752380D01*
X49300000Y-94790476D01*
X50290476Y-95628571D02*
X50290476Y-94485714D01*
X50823809Y-94638095D02*
X50861904Y-94600000D01*
X50938095Y-94561904D01*
X51128571Y-94561904D01*
X51204761Y-94600000D01*
X51242857Y-94638095D01*
X51280952Y-94714285D01*
X51280952Y-94790476D01*
X51242857Y-94904761D01*
X50785714Y-95361904D01*
X51280952Y-95361904D01*
X51776190Y-94561904D02*
X51852380Y-94561904D01*
X51928571Y-94600000D01*
X51966666Y-94638095D01*
X52004761Y-94714285D01*
X52042857Y-94866666D01*
X52042857Y-95057142D01*
X52004761Y-95209523D01*
X51966666Y-95285714D01*
X51928571Y-95323809D01*
X51852380Y-95361904D01*
X51776190Y-95361904D01*
X51700000Y-95323809D01*
X51661904Y-95285714D01*
X51623809Y-95209523D01*
X51585714Y-95057142D01*
X51585714Y-94866666D01*
X51623809Y-94714285D01*
X51661904Y-94638095D01*
X51700000Y-94600000D01*
X51776190Y-94561904D01*
X52347619Y-94638095D02*
X52385714Y-94600000D01*
X52461904Y-94561904D01*
X52652380Y-94561904D01*
X52728571Y-94600000D01*
X52766666Y-94638095D01*
X52804761Y-94714285D01*
X52804761Y-94790476D01*
X52766666Y-94904761D01*
X52309523Y-95361904D01*
X52804761Y-95361904D01*
X53300000Y-94561904D02*
X53376190Y-94561904D01*
X53452380Y-94600000D01*
X53490476Y-94638095D01*
X53528571Y-94714285D01*
X53566666Y-94866666D01*
X53566666Y-95057142D01*
X53528571Y-95209523D01*
X53490476Y-95285714D01*
X53452380Y-95323809D01*
X53376190Y-95361904D01*
X53300000Y-95361904D01*
X53223809Y-95323809D01*
X53185714Y-95285714D01*
X53147619Y-95209523D01*
X53109523Y-95057142D01*
X53109523Y-94866666D01*
X53147619Y-94714285D01*
X53185714Y-94638095D01*
X53223809Y-94600000D01*
X53300000Y-94561904D01*
X53909523Y-95057142D02*
X54519047Y-95057142D01*
X55052380Y-94561904D02*
X55128571Y-94561904D01*
X55204761Y-94600000D01*
X55242857Y-94638095D01*
X55280952Y-94714285D01*
X55319047Y-94866666D01*
X55319047Y-95057142D01*
X55280952Y-95209523D01*
X55242857Y-95285714D01*
X55204761Y-95323809D01*
X55128571Y-95361904D01*
X55052380Y-95361904D01*
X54976190Y-95323809D01*
X54938095Y-95285714D01*
X54900000Y-95209523D01*
X54861904Y-95057142D01*
X54861904Y-94866666D01*
X54900000Y-94714285D01*
X54938095Y-94638095D01*
X54976190Y-94600000D01*
X55052380Y-94561904D01*
X56004761Y-94561904D02*
X55852380Y-94561904D01*
X55776190Y-94600000D01*
X55738095Y-94638095D01*
X55661904Y-94752380D01*
X55623809Y-94904761D01*
X55623809Y-95209523D01*
X55661904Y-95285714D01*
X55700000Y-95323809D01*
X55776190Y-95361904D01*
X55928571Y-95361904D01*
X56004761Y-95323809D01*
X56042857Y-95285714D01*
X56080952Y-95209523D01*
X56080952Y-95019047D01*
X56042857Y-94942857D01*
X56004761Y-94904761D01*
X55928571Y-94866666D01*
X55776190Y-94866666D01*
X55700000Y-94904761D01*
X55661904Y-94942857D01*
X55623809Y-95019047D01*
X56423809Y-95057142D02*
X57033333Y-95057142D01*
X57566666Y-94561904D02*
X57642857Y-94561904D01*
X57719047Y-94600000D01*
X57757142Y-94638095D01*
X57795238Y-94714285D01*
X57833333Y-94866666D01*
X57833333Y-95057142D01*
X57795238Y-95209523D01*
X57757142Y-95285714D01*
X57719047Y-95323809D01*
X57642857Y-95361904D01*
X57566666Y-95361904D01*
X57490476Y-95323809D01*
X57452380Y-95285714D01*
X57414285Y-95209523D01*
X57376190Y-95057142D01*
X57376190Y-94866666D01*
X57414285Y-94714285D01*
X57452380Y-94638095D01*
X57490476Y-94600000D01*
X57566666Y-94561904D01*
X58595238Y-95361904D02*
X58138095Y-95361904D01*
X58366666Y-95361904D02*
X58366666Y-94561904D01*
X58290476Y-94676190D01*
X58214285Y-94752380D01*
X58138095Y-94790476D01*
X70490476Y-139061904D02*
X70490476Y-138261904D01*
X70757142Y-138833333D01*
X71023809Y-138261904D01*
X71023809Y-139061904D01*
X71557142Y-138261904D02*
X71709523Y-138261904D01*
X71785714Y-138300000D01*
X71861904Y-138376190D01*
X71900000Y-138528571D01*
X71900000Y-138795238D01*
X71861904Y-138947619D01*
X71785714Y-139023809D01*
X71709523Y-139061904D01*
X71557142Y-139061904D01*
X71480952Y-139023809D01*
X71404761Y-138947619D01*
X71366666Y-138795238D01*
X71366666Y-138528571D01*
X71404761Y-138376190D01*
X71480952Y-138300000D01*
X71557142Y-138261904D01*
X72128571Y-138261904D02*
X72585714Y-138261904D01*
X72357142Y-139061904D02*
X72357142Y-138261904D01*
X72661904Y-139138095D02*
X73271428Y-139138095D01*
X73728571Y-138642857D02*
X73842857Y-138680952D01*
X73880952Y-138719047D01*
X73919047Y-138795238D01*
X73919047Y-138909523D01*
X73880952Y-138985714D01*
X73842857Y-139023809D01*
X73766666Y-139061904D01*
X73461904Y-139061904D01*
X73461904Y-138261904D01*
X73728571Y-138261904D01*
X73804761Y-138300000D01*
X73842857Y-138338095D01*
X73880952Y-138414285D01*
X73880952Y-138490476D01*
X73842857Y-138566666D01*
X73804761Y-138604761D01*
X73728571Y-138642857D01*
X73461904Y-138642857D01*
X74719047Y-139061904D02*
X74452380Y-138680952D01*
X74261904Y-139061904D02*
X74261904Y-138261904D01*
X74566666Y-138261904D01*
X74642857Y-138300000D01*
X74680952Y-138338095D01*
X74719047Y-138414285D01*
X74719047Y-138528571D01*
X74680952Y-138604761D01*
X74642857Y-138642857D01*
X74566666Y-138680952D01*
X74261904Y-138680952D01*
X75061904Y-139061904D02*
X75061904Y-138261904D01*
X75861904Y-138300000D02*
X75785714Y-138261904D01*
X75671428Y-138261904D01*
X75557142Y-138300000D01*
X75480952Y-138376190D01*
X75442857Y-138452380D01*
X75404761Y-138604761D01*
X75404761Y-138719047D01*
X75442857Y-138871428D01*
X75480952Y-138947619D01*
X75557142Y-139023809D01*
X75671428Y-139061904D01*
X75747619Y-139061904D01*
X75861904Y-139023809D01*
X75900000Y-138985714D01*
X75900000Y-138719047D01*
X75747619Y-138719047D01*
X76242857Y-139061904D02*
X76242857Y-138261904D01*
X76242857Y-138642857D02*
X76700000Y-138642857D01*
X76700000Y-139061904D02*
X76700000Y-138261904D01*
X76966666Y-138261904D02*
X77423809Y-138261904D01*
X77195238Y-139061904D02*
X77195238Y-138261904D01*
D12*
X47338095Y-92904761D02*
X47338095Y-90904761D01*
X48480952Y-92904761D01*
X48480952Y-90904761D01*
X49338095Y-92809523D02*
X49623809Y-92904761D01*
X50100000Y-92904761D01*
X50290476Y-92809523D01*
X50385714Y-92714285D01*
X50480952Y-92523809D01*
X50480952Y-92333333D01*
X50385714Y-92142857D01*
X50290476Y-92047619D01*
X50100000Y-91952380D01*
X49719047Y-91857142D01*
X49528571Y-91761904D01*
X49433333Y-91666666D01*
X49338095Y-91476190D01*
X49338095Y-91285714D01*
X49433333Y-91095238D01*
X49528571Y-91000000D01*
X49719047Y-90904761D01*
X50195238Y-90904761D01*
X50480952Y-91000000D01*
X51338095Y-90904761D02*
X51338095Y-92523809D01*
X51433333Y-92714285D01*
X51528571Y-92809523D01*
X51719047Y-92904761D01*
X52100000Y-92904761D01*
X52290476Y-92809523D01*
X52385714Y-92714285D01*
X52480952Y-92523809D01*
X52480952Y-90904761D01*
X53433333Y-92904761D02*
X53433333Y-90904761D01*
X54100000Y-92333333D01*
X54766666Y-90904761D01*
X54766666Y-92904761D01*
X56100000Y-90904761D02*
X56480952Y-90904761D01*
X56671428Y-91000000D01*
X56861904Y-91190476D01*
X56957142Y-91571428D01*
X56957142Y-92238095D01*
X56861904Y-92619047D01*
X56671428Y-92809523D01*
X56480952Y-92904761D01*
X56100000Y-92904761D01*
X55909523Y-92809523D01*
X55719047Y-92619047D01*
X55623809Y-92238095D01*
X55623809Y-91571428D01*
X55719047Y-91190476D01*
X55909523Y-91000000D01*
X56100000Y-90904761D01*
D11*
X76095238Y-123857142D02*
X76704761Y-123857142D01*
X76400000Y-124161904D02*
X76400000Y-123552380D01*
X28771428Y-138961904D02*
X28771428Y-138161904D01*
X29038095Y-138733333D01*
X29304761Y-138161904D01*
X29304761Y-138961904D01*
X29838095Y-138161904D02*
X29990476Y-138161904D01*
X30066666Y-138200000D01*
X30142857Y-138276190D01*
X30180952Y-138428571D01*
X30180952Y-138695238D01*
X30142857Y-138847619D01*
X30066666Y-138923809D01*
X29990476Y-138961904D01*
X29838095Y-138961904D01*
X29761904Y-138923809D01*
X29685714Y-138847619D01*
X29647619Y-138695238D01*
X29647619Y-138428571D01*
X29685714Y-138276190D01*
X29761904Y-138200000D01*
X29838095Y-138161904D01*
X30409523Y-138161904D02*
X30866666Y-138161904D01*
X30638095Y-138961904D02*
X30638095Y-138161904D01*
X30942857Y-139038095D02*
X31552380Y-139038095D01*
X32009523Y-138542857D02*
X32123809Y-138580952D01*
X32161904Y-138619047D01*
X32200000Y-138695238D01*
X32200000Y-138809523D01*
X32161904Y-138885714D01*
X32123809Y-138923809D01*
X32047619Y-138961904D01*
X31742857Y-138961904D01*
X31742857Y-138161904D01*
X32009523Y-138161904D01*
X32085714Y-138200000D01*
X32123809Y-138238095D01*
X32161904Y-138314285D01*
X32161904Y-138390476D01*
X32123809Y-138466666D01*
X32085714Y-138504761D01*
X32009523Y-138542857D01*
X31742857Y-138542857D01*
X32923809Y-138961904D02*
X32542857Y-138961904D01*
X32542857Y-138161904D01*
X33190476Y-138542857D02*
X33457142Y-138542857D01*
X33571428Y-138961904D02*
X33190476Y-138961904D01*
X33190476Y-138161904D01*
X33571428Y-138161904D01*
X34180952Y-138542857D02*
X33914285Y-138542857D01*
X33914285Y-138961904D02*
X33914285Y-138161904D01*
X34295238Y-138161904D01*
X34485714Y-138161904D02*
X34942857Y-138161904D01*
X34714285Y-138961904D02*
X34714285Y-138161904D01*
X28828571Y-123861904D02*
X28828571Y-123061904D01*
X29095238Y-123633333D01*
X29361904Y-123061904D01*
X29361904Y-123861904D01*
X29895238Y-123061904D02*
X30047619Y-123061904D01*
X30123809Y-123100000D01*
X30200000Y-123176190D01*
X30238095Y-123328571D01*
X30238095Y-123595238D01*
X30200000Y-123747619D01*
X30123809Y-123823809D01*
X30047619Y-123861904D01*
X29895238Y-123861904D01*
X29819047Y-123823809D01*
X29742857Y-123747619D01*
X29704761Y-123595238D01*
X29704761Y-123328571D01*
X29742857Y-123176190D01*
X29819047Y-123100000D01*
X29895238Y-123061904D01*
X30466666Y-123061904D02*
X30923809Y-123061904D01*
X30695238Y-123861904D02*
X30695238Y-123061904D01*
X31000000Y-123938095D02*
X31609523Y-123938095D01*
X32066666Y-123442857D02*
X31800000Y-123442857D01*
X31800000Y-123861904D02*
X31800000Y-123061904D01*
X32180952Y-123061904D01*
X32866666Y-123861904D02*
X32485714Y-123861904D01*
X32485714Y-123061904D01*
X33133333Y-123442857D02*
X33400000Y-123442857D01*
X33514285Y-123861904D02*
X33133333Y-123861904D01*
X33133333Y-123061904D01*
X33514285Y-123061904D01*
X34123809Y-123442857D02*
X33857142Y-123442857D01*
X33857142Y-123861904D02*
X33857142Y-123061904D01*
X34238095Y-123061904D01*
X34428571Y-123061904D02*
X34885714Y-123061904D01*
X34657142Y-123861904D02*
X34657142Y-123061904D01*
D13*
X45323809Y-121461904D02*
X45780952Y-121461904D01*
X45552380Y-122261904D02*
X45552380Y-121461904D01*
X46047619Y-121842857D02*
X46314285Y-121842857D01*
X46428571Y-122261904D02*
X46047619Y-122261904D01*
X46047619Y-121461904D01*
X46428571Y-121461904D01*
X46733333Y-122223809D02*
X46847619Y-122261904D01*
X47038095Y-122261904D01*
X47114285Y-122223809D01*
X47152380Y-122185714D01*
X47190476Y-122109523D01*
X47190476Y-122033333D01*
X47152380Y-121957142D01*
X47114285Y-121919047D01*
X47038095Y-121880952D01*
X46885714Y-121842857D01*
X46809523Y-121804761D01*
X46771428Y-121766666D01*
X46733333Y-121690476D01*
X46733333Y-121614285D01*
X46771428Y-121538095D01*
X46809523Y-121500000D01*
X46885714Y-121461904D01*
X47076190Y-121461904D01*
X47190476Y-121500000D01*
X47419047Y-121461904D02*
X47876190Y-121461904D01*
X47647619Y-122261904D02*
X47647619Y-121461904D01*
D11*
X50690476Y-124000000D02*
X50614285Y-123961904D01*
X50500000Y-123961904D01*
X50385714Y-124000000D01*
X50309523Y-124076190D01*
X50271428Y-124152380D01*
X50233333Y-124304761D01*
X50233333Y-124419047D01*
X50271428Y-124571428D01*
X50309523Y-124647619D01*
X50385714Y-124723809D01*
X50500000Y-124761904D01*
X50576190Y-124761904D01*
X50690476Y-124723809D01*
X50728571Y-124685714D01*
X50728571Y-124419047D01*
X50576190Y-124419047D01*
X51071428Y-124761904D02*
X51071428Y-123961904D01*
X51528571Y-124761904D01*
X51528571Y-123961904D01*
X51909523Y-124761904D02*
X51909523Y-123961904D01*
X52100000Y-123961904D01*
X52214285Y-124000000D01*
X52290476Y-124076190D01*
X52328571Y-124152380D01*
X52366666Y-124304761D01*
X52366666Y-124419047D01*
X52328571Y-124571428D01*
X52290476Y-124647619D01*
X52214285Y-124723809D01*
X52100000Y-124761904D01*
X51909523Y-124761904D01*
X55838095Y-121761904D02*
X55838095Y-120961904D01*
X56142857Y-120961904D01*
X56219047Y-121000000D01*
X56257142Y-121038095D01*
X56295238Y-121114285D01*
X56295238Y-121228571D01*
X56257142Y-121304761D01*
X56219047Y-121342857D01*
X56142857Y-121380952D01*
X55838095Y-121380952D01*
X56600000Y-121038095D02*
X56638095Y-121000000D01*
X56714285Y-120961904D01*
X56904761Y-120961904D01*
X56980952Y-121000000D01*
X57019047Y-121038095D01*
X57057142Y-121114285D01*
X57057142Y-121190476D01*
X57019047Y-121304761D01*
X56561904Y-121761904D01*
X57057142Y-121761904D01*
X57400000Y-121685714D02*
X57438095Y-121723809D01*
X57400000Y-121761904D01*
X57361904Y-121723809D01*
X57400000Y-121685714D01*
X57400000Y-121761904D01*
X58123809Y-120961904D02*
X57971428Y-120961904D01*
X57895238Y-121000000D01*
X57857142Y-121038095D01*
X57780952Y-121152380D01*
X57742857Y-121304761D01*
X57742857Y-121609523D01*
X57780952Y-121685714D01*
X57819047Y-121723809D01*
X57895238Y-121761904D01*
X58047619Y-121761904D01*
X58123809Y-121723809D01*
X58161904Y-121685714D01*
X58200000Y-121609523D01*
X58200000Y-121419047D01*
X58161904Y-121342857D01*
X58123809Y-121304761D01*
X58047619Y-121266666D01*
X57895238Y-121266666D01*
X57819047Y-121304761D01*
X57780952Y-121342857D01*
X57742857Y-121419047D01*
D13*
X47561904Y-113090476D02*
X47561904Y-112595238D01*
X47866666Y-112861904D01*
X47866666Y-112747619D01*
X47904761Y-112671428D01*
X47942857Y-112633333D01*
X48019047Y-112595238D01*
X48209523Y-112595238D01*
X48285714Y-112633333D01*
X48323809Y-112671428D01*
X48361904Y-112747619D01*
X48361904Y-112976190D01*
X48323809Y-113052380D01*
X48285714Y-113090476D01*
X47561904Y-112366666D02*
X48361904Y-112100000D01*
X47561904Y-111833333D01*
X47561904Y-111642857D02*
X47561904Y-111147619D01*
X47866666Y-111414285D01*
X47866666Y-111300000D01*
X47904761Y-111223809D01*
X47942857Y-111185714D01*
X48019047Y-111147619D01*
X48209523Y-111147619D01*
X48285714Y-111185714D01*
X48323809Y-111223809D01*
X48361904Y-111300000D01*
X48361904Y-111528571D01*
X48323809Y-111604761D01*
X48285714Y-111642857D01*
X49061904Y-117538095D02*
X48680952Y-117804761D01*
X49061904Y-117995238D02*
X48261904Y-117995238D01*
X48261904Y-117690476D01*
X48300000Y-117614285D01*
X48338095Y-117576190D01*
X48414285Y-117538095D01*
X48528571Y-117538095D01*
X48604761Y-117576190D01*
X48642857Y-117614285D01*
X48680952Y-117690476D01*
X48680952Y-117995238D01*
X49023809Y-117233333D02*
X49061904Y-117119047D01*
X49061904Y-116928571D01*
X49023809Y-116852380D01*
X48985714Y-116814285D01*
X48909523Y-116776190D01*
X48833333Y-116776190D01*
X48757142Y-116814285D01*
X48719047Y-116852380D01*
X48680952Y-116928571D01*
X48642857Y-117080952D01*
X48604761Y-117157142D01*
X48566666Y-117195238D01*
X48490476Y-117233333D01*
X48414285Y-117233333D01*
X48338095Y-117195238D01*
X48300000Y-117157142D01*
X48261904Y-117080952D01*
X48261904Y-116890476D01*
X48300000Y-116776190D01*
X48261904Y-116547619D02*
X48261904Y-116090476D01*
X49061904Y-116319047D02*
X48261904Y-116319047D01*
D11*
X65761904Y-100161904D02*
X65380952Y-100161904D01*
X65380952Y-99361904D01*
X66028571Y-99742857D02*
X66295238Y-99742857D01*
X66409523Y-100161904D02*
X66028571Y-100161904D01*
X66028571Y-99361904D01*
X66409523Y-99361904D01*
X66752380Y-100161904D02*
X66752380Y-99361904D01*
X66942857Y-99361904D01*
X67057142Y-99400000D01*
X67133333Y-99476190D01*
X67171428Y-99552380D01*
X67209523Y-99704761D01*
X67209523Y-99819047D01*
X67171428Y-99971428D01*
X67133333Y-100047619D01*
X67057142Y-100123809D01*
X66942857Y-100161904D01*
X66752380Y-100161904D01*
X67933333Y-99361904D02*
X67552380Y-99361904D01*
X67514285Y-99742857D01*
X67552380Y-99704761D01*
X67628571Y-99666666D01*
X67819047Y-99666666D01*
X67895238Y-99704761D01*
X67933333Y-99742857D01*
X67971428Y-99819047D01*
X67971428Y-100009523D01*
X67933333Y-100085714D01*
X67895238Y-100123809D01*
X67819047Y-100161904D01*
X67628571Y-100161904D01*
X67552380Y-100123809D01*
X67514285Y-100085714D01*
X68200000Y-99361904D02*
X68466666Y-100161904D01*
X68733333Y-99361904D01*
X57680952Y-99561904D02*
X57300000Y-99561904D01*
X57300000Y-98761904D01*
X57947619Y-99142857D02*
X58214285Y-99142857D01*
X58328571Y-99561904D02*
X57947619Y-99561904D01*
X57947619Y-98761904D01*
X58328571Y-98761904D01*
X58671428Y-99561904D02*
X58671428Y-98761904D01*
X58861904Y-98761904D01*
X58976190Y-98800000D01*
X59052380Y-98876190D01*
X59090476Y-98952380D01*
X59128571Y-99104761D01*
X59128571Y-99219047D01*
X59090476Y-99371428D01*
X59052380Y-99447619D01*
X58976190Y-99523809D01*
X58861904Y-99561904D01*
X58671428Y-99561904D01*
X59395238Y-98761904D02*
X59890476Y-98761904D01*
X59623809Y-99066666D01*
X59738095Y-99066666D01*
X59814285Y-99104761D01*
X59852380Y-99142857D01*
X59890476Y-99219047D01*
X59890476Y-99409523D01*
X59852380Y-99485714D01*
X59814285Y-99523809D01*
X59738095Y-99561904D01*
X59509523Y-99561904D01*
X59433333Y-99523809D01*
X59395238Y-99485714D01*
X60119047Y-98761904D02*
X60385714Y-99561904D01*
X60652380Y-98761904D01*
X60842857Y-98761904D02*
X61338095Y-98761904D01*
X61071428Y-99066666D01*
X61185714Y-99066666D01*
X61261904Y-99104761D01*
X61299999Y-99142857D01*
X61338095Y-99219047D01*
X61338095Y-99409523D01*
X61299999Y-99485714D01*
X61261904Y-99523809D01*
X61185714Y-99561904D01*
X60957142Y-99561904D01*
X60880952Y-99523809D01*
X60842857Y-99485714D01*
X67200000Y-102161904D02*
X67657142Y-102161904D01*
X67428571Y-102961904D02*
X67428571Y-102161904D01*
X67923809Y-102542857D02*
X68190476Y-102542857D01*
X68304761Y-102961904D02*
X67923809Y-102961904D01*
X67923809Y-102161904D01*
X68304761Y-102161904D01*
X68609523Y-102923809D02*
X68723809Y-102961904D01*
X68914285Y-102961904D01*
X68990476Y-102923809D01*
X69028571Y-102885714D01*
X69066666Y-102809523D01*
X69066666Y-102733333D01*
X69028571Y-102657142D01*
X68990476Y-102619047D01*
X68914285Y-102580952D01*
X68761904Y-102542857D01*
X68685714Y-102504761D01*
X68647619Y-102466666D01*
X68609523Y-102390476D01*
X68609523Y-102314285D01*
X68647619Y-102238095D01*
X68685714Y-102200000D01*
X68761904Y-102161904D01*
X68952380Y-102161904D01*
X69066666Y-102200000D01*
X69295238Y-102161904D02*
X69752380Y-102161904D01*
X69523809Y-102961904D02*
X69523809Y-102161904D01*
X70400000Y-102161904D02*
X70019047Y-102161904D01*
X69980952Y-102542857D01*
X70019047Y-102504761D01*
X70095238Y-102466666D01*
X70285714Y-102466666D01*
X70361904Y-102504761D01*
X70400000Y-102542857D01*
X70438095Y-102619047D01*
X70438095Y-102809523D01*
X70400000Y-102885714D01*
X70361904Y-102923809D01*
X70285714Y-102961904D01*
X70095238Y-102961904D01*
X70019047Y-102923809D01*
X69980952Y-102885714D01*
X70666666Y-102161904D02*
X70933333Y-102961904D01*
X71200000Y-102161904D01*
X61961904Y-102080952D02*
X61961904Y-101623809D01*
X62761904Y-101852380D02*
X61961904Y-101852380D01*
X62342857Y-101357142D02*
X62342857Y-101090476D01*
X62761904Y-100976190D02*
X62761904Y-101357142D01*
X61961904Y-101357142D01*
X61961904Y-100976190D01*
X62723809Y-100671428D02*
X62761904Y-100557142D01*
X62761904Y-100366666D01*
X62723809Y-100290476D01*
X62685714Y-100252380D01*
X62609523Y-100214285D01*
X62533333Y-100214285D01*
X62457142Y-100252380D01*
X62419047Y-100290476D01*
X62380952Y-100366666D01*
X62342857Y-100519047D01*
X62304761Y-100595238D01*
X62266666Y-100633333D01*
X62190476Y-100671428D01*
X62114285Y-100671428D01*
X62038095Y-100633333D01*
X62000000Y-100595238D01*
X61961904Y-100519047D01*
X61961904Y-100328571D01*
X62000000Y-100214285D01*
X61961904Y-99985714D02*
X61961904Y-99528571D01*
X62761904Y-99757142D02*
X61961904Y-99757142D01*
X61961904Y-99338095D02*
X61961904Y-98842857D01*
X62266666Y-99109523D01*
X62266666Y-98995238D01*
X62304761Y-98919047D01*
X62342857Y-98880952D01*
X62419047Y-98842857D01*
X62609523Y-98842857D01*
X62685714Y-98880952D01*
X62723809Y-98919047D01*
X62761904Y-98995238D01*
X62761904Y-99223809D01*
X62723809Y-99300000D01*
X62685714Y-99338095D01*
X61961904Y-98614285D02*
X62761904Y-98347619D01*
X61961904Y-98080952D01*
X61961904Y-97890476D02*
X61961904Y-97395238D01*
X62266666Y-97661904D01*
X62266666Y-97547619D01*
X62304761Y-97471428D01*
X62342857Y-97433333D01*
X62419047Y-97395238D01*
X62609523Y-97395238D01*
X62685714Y-97433333D01*
X62723809Y-97471428D01*
X62761904Y-97547619D01*
X62761904Y-97776190D01*
X62723809Y-97852380D01*
X62685714Y-97890476D01*
X77623809Y-121714285D02*
X77661904Y-121638095D01*
X77661904Y-121485714D01*
X77623809Y-121409523D01*
X77547619Y-121371428D01*
X77509523Y-121371428D01*
X77433333Y-121409523D01*
X77395238Y-121485714D01*
X77395238Y-121600000D01*
X77357142Y-121676190D01*
X77280952Y-121714285D01*
X77242857Y-121714285D01*
X77166666Y-121676190D01*
X77128571Y-121600000D01*
X77128571Y-121485714D01*
X77166666Y-121409523D01*
X77128571Y-121104761D02*
X77661904Y-120952380D01*
X77280952Y-120800000D01*
X77661904Y-120647619D01*
X77128571Y-120495238D01*
X77661904Y-120190476D02*
X77128571Y-120190476D01*
X76861904Y-120190476D02*
X76900000Y-120228571D01*
X76938095Y-120190476D01*
X76900000Y-120152380D01*
X76861904Y-120190476D01*
X76938095Y-120190476D01*
X77128571Y-119923809D02*
X77128571Y-119619047D01*
X76861904Y-119809523D02*
X77547619Y-119809523D01*
X77623809Y-119771428D01*
X77661904Y-119695238D01*
X77661904Y-119619047D01*
X77623809Y-119009523D02*
X77661904Y-119085714D01*
X77661904Y-119238095D01*
X77623809Y-119314285D01*
X77585714Y-119352380D01*
X77509523Y-119390476D01*
X77280952Y-119390476D01*
X77204761Y-119352380D01*
X77166666Y-119314285D01*
X77128571Y-119238095D01*
X77128571Y-119085714D01*
X77166666Y-119009523D01*
X77661904Y-118666666D02*
X76861904Y-118666666D01*
X77661904Y-118323809D02*
X77242857Y-118323809D01*
X77166666Y-118361904D01*
X77128571Y-118438095D01*
X77128571Y-118552380D01*
X77166666Y-118628571D01*
X77204761Y-118666666D01*
X69045238Y-114657142D02*
X69654761Y-114657142D01*
X69350000Y-114961904D02*
X69350000Y-114352380D01*
X69045238Y-107257142D02*
X69654761Y-107257142D01*
X69350000Y-107561904D02*
X69350000Y-106952380D01*
X75590476Y-102089000D02*
X75514285Y-102050904D01*
X75400000Y-102050904D01*
X75285714Y-102089000D01*
X75209523Y-102165190D01*
X75171428Y-102241380D01*
X75133333Y-102393761D01*
X75133333Y-102508047D01*
X75171428Y-102660428D01*
X75209523Y-102736619D01*
X75285714Y-102812809D01*
X75400000Y-102850904D01*
X75476190Y-102850904D01*
X75590476Y-102812809D01*
X75628571Y-102774714D01*
X75628571Y-102508047D01*
X75476190Y-102508047D01*
X75971428Y-102850904D02*
X75971428Y-102050904D01*
X76428571Y-102850904D01*
X76428571Y-102050904D01*
X76809523Y-102850904D02*
X76809523Y-102050904D01*
X77000000Y-102050904D01*
X77114285Y-102089000D01*
X77190476Y-102165190D01*
X77228571Y-102241380D01*
X77266666Y-102393761D01*
X77266666Y-102508047D01*
X77228571Y-102660428D01*
X77190476Y-102736619D01*
X77114285Y-102812809D01*
X77000000Y-102850904D01*
X76809523Y-102850904D01*
X44938095Y-139309523D02*
X44938095Y-138928571D01*
X45738095Y-138928571D01*
X44938095Y-139576190D02*
X45738095Y-139576190D01*
X45738095Y-139766666D01*
X45700000Y-139880952D01*
X45623809Y-139957142D01*
X45547619Y-139995238D01*
X45395238Y-140033333D01*
X45280952Y-140033333D01*
X45128571Y-139995238D01*
X45052380Y-139957142D01*
X44976190Y-139880952D01*
X44938095Y-139766666D01*
X44938095Y-139576190D01*
X44861904Y-140185714D02*
X44861904Y-140795238D01*
X45357142Y-141252380D02*
X45319047Y-141366666D01*
X45280952Y-141404761D01*
X45204761Y-141442857D01*
X45090476Y-141442857D01*
X45014285Y-141404761D01*
X44976190Y-141366666D01*
X44938095Y-141290476D01*
X44938095Y-140985714D01*
X45738095Y-140985714D01*
X45738095Y-141252380D01*
X45700000Y-141328571D01*
X45661904Y-141366666D01*
X45585714Y-141404761D01*
X45509523Y-141404761D01*
X45433333Y-141366666D01*
X45395238Y-141328571D01*
X45357142Y-141252380D01*
X45357142Y-140985714D01*
X44938095Y-142166666D02*
X44938095Y-141785714D01*
X45738095Y-141785714D01*
X45357142Y-142433333D02*
X45357142Y-142700000D01*
X44938095Y-142814285D02*
X44938095Y-142433333D01*
X45738095Y-142433333D01*
X45738095Y-142814285D01*
X45357142Y-143423809D02*
X45357142Y-143157142D01*
X44938095Y-143157142D02*
X45738095Y-143157142D01*
X45738095Y-143538095D01*
X45738095Y-143728571D02*
X45738095Y-144185714D01*
X44938095Y-143957142D02*
X45738095Y-143957142D01*
X60861904Y-143971428D02*
X60861904Y-144352380D01*
X60061904Y-144352380D01*
X60861904Y-143704761D02*
X60061904Y-143704761D01*
X60061904Y-143514285D01*
X60100000Y-143400000D01*
X60176190Y-143323809D01*
X60252380Y-143285714D01*
X60404761Y-143247619D01*
X60519047Y-143247619D01*
X60671428Y-143285714D01*
X60747619Y-143323809D01*
X60823809Y-143400000D01*
X60861904Y-143514285D01*
X60861904Y-143704761D01*
X60938095Y-143095238D02*
X60938095Y-142485714D01*
X60442857Y-142028571D02*
X60480952Y-141914285D01*
X60519047Y-141876190D01*
X60595238Y-141838095D01*
X60709523Y-141838095D01*
X60785714Y-141876190D01*
X60823809Y-141914285D01*
X60861904Y-141990476D01*
X60861904Y-142295238D01*
X60061904Y-142295238D01*
X60061904Y-142028571D01*
X60100000Y-141952380D01*
X60138095Y-141914285D01*
X60214285Y-141876190D01*
X60290476Y-141876190D01*
X60366666Y-141914285D01*
X60404761Y-141952380D01*
X60442857Y-142028571D01*
X60442857Y-142295238D01*
X60861904Y-141038095D02*
X60480952Y-141304761D01*
X60861904Y-141495238D02*
X60061904Y-141495238D01*
X60061904Y-141190476D01*
X60100000Y-141114285D01*
X60138095Y-141076190D01*
X60214285Y-141038095D01*
X60328571Y-141038095D01*
X60404761Y-141076190D01*
X60442857Y-141114285D01*
X60480952Y-141190476D01*
X60480952Y-141495238D01*
X60861904Y-140695238D02*
X60061904Y-140695238D01*
X60100000Y-139895238D02*
X60061904Y-139971428D01*
X60061904Y-140085714D01*
X60100000Y-140200000D01*
X60176190Y-140276190D01*
X60252380Y-140314285D01*
X60404761Y-140352380D01*
X60519047Y-140352380D01*
X60671428Y-140314285D01*
X60747619Y-140276190D01*
X60823809Y-140200000D01*
X60861904Y-140085714D01*
X60861904Y-140009523D01*
X60823809Y-139895238D01*
X60785714Y-139857142D01*
X60519047Y-139857142D01*
X60519047Y-140009523D01*
X60861904Y-139514285D02*
X60061904Y-139514285D01*
X60442857Y-139514285D02*
X60442857Y-139057142D01*
X60861904Y-139057142D02*
X60061904Y-139057142D01*
X60061904Y-138790476D02*
X60061904Y-138333333D01*
X60861904Y-138561904D02*
X60061904Y-138561904D01*
X49161904Y-142800000D02*
X49161904Y-142647619D01*
X49200000Y-142571428D01*
X49276190Y-142495238D01*
X49428571Y-142457142D01*
X49695238Y-142457142D01*
X49847619Y-142495238D01*
X49923809Y-142571428D01*
X49961904Y-142647619D01*
X49961904Y-142800000D01*
X49923809Y-142876190D01*
X49847619Y-142952380D01*
X49695238Y-142990476D01*
X49428571Y-142990476D01*
X49276190Y-142952380D01*
X49200000Y-142876190D01*
X49161904Y-142800000D01*
X49161904Y-142114285D02*
X49809523Y-142114285D01*
X49885714Y-142076190D01*
X49923809Y-142038095D01*
X49961904Y-141961904D01*
X49961904Y-141809523D01*
X49923809Y-141733333D01*
X49885714Y-141695238D01*
X49809523Y-141657142D01*
X49161904Y-141657142D01*
X49161904Y-141390476D02*
X49161904Y-140933333D01*
X49961904Y-141161904D02*
X49161904Y-141161904D01*
X47961904Y-141752380D02*
X47961904Y-142133333D01*
X48342857Y-142171428D01*
X48304761Y-142133333D01*
X48266666Y-142057142D01*
X48266666Y-141866666D01*
X48304761Y-141790476D01*
X48342857Y-141752380D01*
X48419047Y-141714285D01*
X48609523Y-141714285D01*
X48685714Y-141752380D01*
X48723809Y-141790476D01*
X48761904Y-141866666D01*
X48761904Y-142057142D01*
X48723809Y-142133333D01*
X48685714Y-142171428D01*
X47961904Y-141485714D02*
X48761904Y-141219047D01*
X47961904Y-140952380D01*
X50400000Y-142609523D02*
X50361904Y-142685714D01*
X50361904Y-142800000D01*
X50400000Y-142914285D01*
X50476190Y-142990476D01*
X50552380Y-143028571D01*
X50704761Y-143066666D01*
X50819047Y-143066666D01*
X50971428Y-143028571D01*
X51047619Y-142990476D01*
X51123809Y-142914285D01*
X51161904Y-142800000D01*
X51161904Y-142723809D01*
X51123809Y-142609523D01*
X51085714Y-142571428D01*
X50819047Y-142571428D01*
X50819047Y-142723809D01*
X51161904Y-142228571D02*
X50361904Y-142228571D01*
X51161904Y-141771428D01*
X50361904Y-141771428D01*
X51161904Y-141390476D02*
X50361904Y-141390476D01*
X50361904Y-141200000D01*
X50400000Y-141085714D01*
X50476190Y-141009523D01*
X50552380Y-140971428D01*
X50704761Y-140933333D01*
X50819047Y-140933333D01*
X50971428Y-140971428D01*
X51047619Y-141009523D01*
X51123809Y-141085714D01*
X51161904Y-141200000D01*
X51161904Y-141390476D01*
X56061904Y-142800000D02*
X56061904Y-142647619D01*
X56100000Y-142571428D01*
X56176190Y-142495238D01*
X56328571Y-142457142D01*
X56595238Y-142457142D01*
X56747619Y-142495238D01*
X56823809Y-142571428D01*
X56861904Y-142647619D01*
X56861904Y-142800000D01*
X56823809Y-142876190D01*
X56747619Y-142952380D01*
X56595238Y-142990476D01*
X56328571Y-142990476D01*
X56176190Y-142952380D01*
X56100000Y-142876190D01*
X56061904Y-142800000D01*
X56061904Y-142114285D02*
X56709523Y-142114285D01*
X56785714Y-142076190D01*
X56823809Y-142038095D01*
X56861904Y-141961904D01*
X56861904Y-141809523D01*
X56823809Y-141733333D01*
X56785714Y-141695238D01*
X56709523Y-141657142D01*
X56061904Y-141657142D01*
X56061904Y-141390476D02*
X56061904Y-140933333D01*
X56861904Y-141161904D02*
X56061904Y-141161904D01*
X54861904Y-141752380D02*
X54861904Y-142133333D01*
X55242857Y-142171428D01*
X55204761Y-142133333D01*
X55166666Y-142057142D01*
X55166666Y-141866666D01*
X55204761Y-141790476D01*
X55242857Y-141752380D01*
X55319047Y-141714285D01*
X55509523Y-141714285D01*
X55585714Y-141752380D01*
X55623809Y-141790476D01*
X55661904Y-141866666D01*
X55661904Y-142057142D01*
X55623809Y-142133333D01*
X55585714Y-142171428D01*
X54861904Y-141485714D02*
X55661904Y-141219047D01*
X54861904Y-140952380D01*
X57300000Y-142609523D02*
X57261904Y-142685714D01*
X57261904Y-142800000D01*
X57300000Y-142914285D01*
X57376190Y-142990476D01*
X57452380Y-143028571D01*
X57604761Y-143066666D01*
X57719047Y-143066666D01*
X57871428Y-143028571D01*
X57947619Y-142990476D01*
X58023809Y-142914285D01*
X58061904Y-142800000D01*
X58061904Y-142723809D01*
X58023809Y-142609523D01*
X57985714Y-142571428D01*
X57719047Y-142571428D01*
X57719047Y-142723809D01*
X58061904Y-142228571D02*
X57261904Y-142228571D01*
X58061904Y-141771428D01*
X57261904Y-141771428D01*
X58061904Y-141390476D02*
X57261904Y-141390476D01*
X57261904Y-141200000D01*
X57300000Y-141085714D01*
X57376190Y-141009523D01*
X57452380Y-140971428D01*
X57604761Y-140933333D01*
X57719047Y-140933333D01*
X57871428Y-140971428D01*
X57947619Y-141009523D01*
X58023809Y-141085714D01*
X58061904Y-141200000D01*
X58061904Y-141390476D01*
X55638095Y-82376190D02*
X56438095Y-82376190D01*
X55638095Y-82757142D02*
X56438095Y-82757142D01*
X55638095Y-83214285D01*
X56438095Y-83214285D01*
X56438095Y-83480952D02*
X56438095Y-83938095D01*
X55638095Y-83709523D02*
X56438095Y-83709523D01*
X55238095Y-81014285D02*
X54438095Y-81547619D01*
X55238095Y-81547619D02*
X54438095Y-81014285D01*
X54476190Y-81814285D02*
X54438095Y-81928571D01*
X54438095Y-82119047D01*
X54476190Y-82195238D01*
X54514285Y-82233333D01*
X54590476Y-82271428D01*
X54666666Y-82271428D01*
X54742857Y-82233333D01*
X54780952Y-82195238D01*
X54819047Y-82119047D01*
X54857142Y-81966666D01*
X54895238Y-81890476D01*
X54933333Y-81852380D01*
X55009523Y-81814285D01*
X55085714Y-81814285D01*
X55161904Y-81852380D01*
X55200000Y-81890476D01*
X55238095Y-81966666D01*
X55238095Y-82157142D01*
X55200000Y-82271428D01*
X54438095Y-82614285D02*
X55238095Y-82614285D01*
X54857142Y-82614285D02*
X54857142Y-83071428D01*
X54438095Y-83071428D02*
X55238095Y-83071428D01*
X55238095Y-83452380D02*
X54590476Y-83452380D01*
X54514285Y-83490476D01*
X54476190Y-83528571D01*
X54438095Y-83604761D01*
X54438095Y-83757142D01*
X54476190Y-83833333D01*
X54514285Y-83871428D01*
X54590476Y-83909523D01*
X55238095Y-83909523D01*
X50238095Y-82047619D02*
X50238095Y-82542857D01*
X49933333Y-82276190D01*
X49933333Y-82390476D01*
X49895238Y-82466666D01*
X49857142Y-82504761D01*
X49780952Y-82542857D01*
X49590476Y-82542857D01*
X49514285Y-82504761D01*
X49476190Y-82466666D01*
X49438095Y-82390476D01*
X49438095Y-82161904D01*
X49476190Y-82085714D01*
X49514285Y-82047619D01*
X49971428Y-82809523D02*
X49438095Y-83000000D01*
X49971428Y-83190476D01*
X50238095Y-83419047D02*
X50238095Y-83914285D01*
X49933333Y-83647619D01*
X49933333Y-83761904D01*
X49895238Y-83838095D01*
X49857142Y-83876190D01*
X49780952Y-83914285D01*
X49590476Y-83914285D01*
X49514285Y-83876190D01*
X49476190Y-83838095D01*
X49438095Y-83761904D01*
X49438095Y-83533333D01*
X49476190Y-83457142D01*
X49514285Y-83419047D01*
X51400000Y-82390476D02*
X51438095Y-82314285D01*
X51438095Y-82200000D01*
X51400000Y-82085714D01*
X51323809Y-82009523D01*
X51247619Y-81971428D01*
X51095238Y-81933333D01*
X50980952Y-81933333D01*
X50828571Y-81971428D01*
X50752380Y-82009523D01*
X50676190Y-82085714D01*
X50638095Y-82200000D01*
X50638095Y-82276190D01*
X50676190Y-82390476D01*
X50714285Y-82428571D01*
X50980952Y-82428571D01*
X50980952Y-82276190D01*
X50638095Y-82771428D02*
X51438095Y-82771428D01*
X50638095Y-83228571D01*
X51438095Y-83228571D01*
X50638095Y-83609523D02*
X51438095Y-83609523D01*
X51438095Y-83800000D01*
X51400000Y-83914285D01*
X51323809Y-83990476D01*
X51247619Y-84028571D01*
X51095238Y-84066666D01*
X50980952Y-84066666D01*
X50828571Y-84028571D01*
X50752380Y-83990476D01*
X50676190Y-83914285D01*
X50638095Y-83800000D01*
X50638095Y-83609523D01*
X53276190Y-81928571D02*
X53238095Y-82042857D01*
X53238095Y-82233333D01*
X53276190Y-82309523D01*
X53314285Y-82347619D01*
X53390476Y-82385714D01*
X53466666Y-82385714D01*
X53542857Y-82347619D01*
X53580952Y-82309523D01*
X53619047Y-82233333D01*
X53657142Y-82080952D01*
X53695238Y-82004761D01*
X53733333Y-81966666D01*
X53809523Y-81928571D01*
X53885714Y-81928571D01*
X53961904Y-81966666D01*
X54000000Y-82004761D01*
X54038095Y-82080952D01*
X54038095Y-82271428D01*
X54000000Y-82385714D01*
X53238095Y-82728571D02*
X54038095Y-82728571D01*
X54038095Y-82919047D01*
X54000000Y-83033333D01*
X53923809Y-83109523D01*
X53847619Y-83147619D01*
X53695238Y-83185714D01*
X53580952Y-83185714D01*
X53428571Y-83147619D01*
X53352380Y-83109523D01*
X53276190Y-83033333D01*
X53238095Y-82919047D01*
X53238095Y-82728571D01*
X53466666Y-83490476D02*
X53466666Y-83871428D01*
X53238095Y-83414285D02*
X54038095Y-83680952D01*
X53238095Y-83947619D01*
X51976190Y-82047619D02*
X51938095Y-82161904D01*
X51938095Y-82352380D01*
X51976190Y-82428571D01*
X52014285Y-82466666D01*
X52090476Y-82504761D01*
X52166666Y-82504761D01*
X52242857Y-82466666D01*
X52280952Y-82428571D01*
X52319047Y-82352380D01*
X52357142Y-82200000D01*
X52395238Y-82123809D01*
X52433333Y-82085714D01*
X52509523Y-82047619D01*
X52585714Y-82047619D01*
X52661904Y-82085714D01*
X52700000Y-82123809D01*
X52738095Y-82200000D01*
X52738095Y-82390476D01*
X52700000Y-82504761D01*
X52014285Y-83304761D02*
X51976190Y-83266666D01*
X51938095Y-83152380D01*
X51938095Y-83076190D01*
X51976190Y-82961904D01*
X52052380Y-82885714D01*
X52128571Y-82847619D01*
X52280952Y-82809523D01*
X52395238Y-82809523D01*
X52547619Y-82847619D01*
X52623809Y-82885714D01*
X52700000Y-82961904D01*
X52738095Y-83076190D01*
X52738095Y-83152380D01*
X52700000Y-83266666D01*
X52661904Y-83304761D01*
X51938095Y-84028571D02*
X51938095Y-83647619D01*
X52738095Y-83647619D01*
X74300000Y-89061904D02*
X74452380Y-89061904D01*
X74528571Y-89100000D01*
X74604761Y-89176190D01*
X74642857Y-89328571D01*
X74642857Y-89595238D01*
X74604761Y-89747619D01*
X74528571Y-89823809D01*
X74452380Y-89861904D01*
X74300000Y-89861904D01*
X74223809Y-89823809D01*
X74147619Y-89747619D01*
X74109523Y-89595238D01*
X74109523Y-89328571D01*
X74147619Y-89176190D01*
X74223809Y-89100000D01*
X74300000Y-89061904D01*
X74985714Y-89061904D02*
X74985714Y-89709523D01*
X75023809Y-89785714D01*
X75061904Y-89823809D01*
X75138095Y-89861904D01*
X75290476Y-89861904D01*
X75366666Y-89823809D01*
X75404761Y-89785714D01*
X75442857Y-89709523D01*
X75442857Y-89061904D01*
X75709523Y-89061904D02*
X76166666Y-89061904D01*
X75938095Y-89861904D02*
X75938095Y-89061904D01*
X74647619Y-87861904D02*
X74266666Y-87861904D01*
X74228571Y-88242857D01*
X74266666Y-88204761D01*
X74342857Y-88166666D01*
X74533333Y-88166666D01*
X74609523Y-88204761D01*
X74647619Y-88242857D01*
X74685714Y-88319047D01*
X74685714Y-88509523D01*
X74647619Y-88585714D01*
X74609523Y-88623809D01*
X74533333Y-88661904D01*
X74342857Y-88661904D01*
X74266666Y-88623809D01*
X74228571Y-88585714D01*
X74914285Y-87861904D02*
X75180952Y-88661904D01*
X75447619Y-87861904D01*
X74490476Y-90400000D02*
X74414285Y-90361904D01*
X74300000Y-90361904D01*
X74185714Y-90400000D01*
X74109523Y-90476190D01*
X74071428Y-90552380D01*
X74033333Y-90704761D01*
X74033333Y-90819047D01*
X74071428Y-90971428D01*
X74109523Y-91047619D01*
X74185714Y-91123809D01*
X74300000Y-91161904D01*
X74376190Y-91161904D01*
X74490476Y-91123809D01*
X74528571Y-91085714D01*
X74528571Y-90819047D01*
X74376190Y-90819047D01*
X74871428Y-91161904D02*
X74871428Y-90361904D01*
X75328571Y-91161904D01*
X75328571Y-90361904D01*
X75709523Y-91161904D02*
X75709523Y-90361904D01*
X75900000Y-90361904D01*
X76014285Y-90400000D01*
X76090476Y-90476190D01*
X76128571Y-90552380D01*
X76166666Y-90704761D01*
X76166666Y-90819047D01*
X76128571Y-90971428D01*
X76090476Y-91047619D01*
X76014285Y-91123809D01*
X75900000Y-91161904D01*
X75709523Y-91161904D01*
X73847619Y-93761904D02*
X74342857Y-93761904D01*
X74076190Y-94066666D01*
X74190476Y-94066666D01*
X74266666Y-94104761D01*
X74304761Y-94142857D01*
X74342857Y-94219047D01*
X74342857Y-94409523D01*
X74304761Y-94485714D01*
X74266666Y-94523809D01*
X74190476Y-94561904D01*
X73961904Y-94561904D01*
X73885714Y-94523809D01*
X73847619Y-94485714D01*
X74609523Y-94028571D02*
X74800000Y-94561904D01*
X74990476Y-94028571D01*
X75219047Y-93761904D02*
X75714285Y-93761904D01*
X75447619Y-94066666D01*
X75561904Y-94066666D01*
X75638095Y-94104761D01*
X75676190Y-94142857D01*
X75714285Y-94219047D01*
X75714285Y-94409523D01*
X75676190Y-94485714D01*
X75638095Y-94523809D01*
X75561904Y-94561904D01*
X75333333Y-94561904D01*
X75257142Y-94523809D01*
X75219047Y-94485714D01*
X74047619Y-97923809D02*
X74161904Y-97961904D01*
X74352380Y-97961904D01*
X74428571Y-97923809D01*
X74466666Y-97885714D01*
X74504761Y-97809523D01*
X74504761Y-97733333D01*
X74466666Y-97657142D01*
X74428571Y-97619047D01*
X74352380Y-97580952D01*
X74200000Y-97542857D01*
X74123809Y-97504761D01*
X74085714Y-97466666D01*
X74047619Y-97390476D01*
X74047619Y-97314285D01*
X74085714Y-97238095D01*
X74123809Y-97200000D01*
X74200000Y-97161904D01*
X74390476Y-97161904D01*
X74504761Y-97200000D01*
X75304761Y-97885714D02*
X75266666Y-97923809D01*
X75152380Y-97961904D01*
X75076190Y-97961904D01*
X74961904Y-97923809D01*
X74885714Y-97847619D01*
X74847619Y-97771428D01*
X74809523Y-97619047D01*
X74809523Y-97504761D01*
X74847619Y-97352380D01*
X74885714Y-97276190D01*
X74961904Y-97200000D01*
X75076190Y-97161904D01*
X75152380Y-97161904D01*
X75266666Y-97200000D01*
X75304761Y-97238095D01*
X76028571Y-97961904D02*
X75647619Y-97961904D01*
X75647619Y-97161904D01*
X74014285Y-99761904D02*
X74547619Y-100561904D01*
X74547619Y-99761904D02*
X74014285Y-100561904D01*
X74814285Y-100523809D02*
X74928571Y-100561904D01*
X75119047Y-100561904D01*
X75195238Y-100523809D01*
X75233333Y-100485714D01*
X75271428Y-100409523D01*
X75271428Y-100333333D01*
X75233333Y-100257142D01*
X75195238Y-100219047D01*
X75119047Y-100180952D01*
X74966666Y-100142857D01*
X74890476Y-100104761D01*
X74852380Y-100066666D01*
X74814285Y-99990476D01*
X74814285Y-99914285D01*
X74852380Y-99838095D01*
X74890476Y-99800000D01*
X74966666Y-99761904D01*
X75157142Y-99761904D01*
X75271428Y-99800000D01*
X75614285Y-100561904D02*
X75614285Y-99761904D01*
X75614285Y-100142857D02*
X76071428Y-100142857D01*
X76071428Y-100561904D02*
X76071428Y-99761904D01*
X76452380Y-99761904D02*
X76452380Y-100409523D01*
X76490476Y-100485714D01*
X76528571Y-100523809D01*
X76604761Y-100561904D01*
X76757142Y-100561904D01*
X76833333Y-100523809D01*
X76871428Y-100485714D01*
X76909523Y-100409523D01*
X76909523Y-99761904D01*
X74390476Y-95900000D02*
X74314285Y-95861904D01*
X74200000Y-95861904D01*
X74085714Y-95900000D01*
X74009523Y-95976190D01*
X73971428Y-96052380D01*
X73933333Y-96204761D01*
X73933333Y-96319047D01*
X73971428Y-96471428D01*
X74009523Y-96547619D01*
X74085714Y-96623809D01*
X74200000Y-96661904D01*
X74276190Y-96661904D01*
X74390476Y-96623809D01*
X74428571Y-96585714D01*
X74428571Y-96319047D01*
X74276190Y-96319047D01*
X74771428Y-96661904D02*
X74771428Y-95861904D01*
X75228571Y-96661904D01*
X75228571Y-95861904D01*
X75609523Y-96661904D02*
X75609523Y-95861904D01*
X75800000Y-95861904D01*
X75914285Y-95900000D01*
X75990476Y-95976190D01*
X76028571Y-96052380D01*
X76066666Y-96204761D01*
X76066666Y-96319047D01*
X76028571Y-96471428D01*
X75990476Y-96547619D01*
X75914285Y-96623809D01*
X75800000Y-96661904D01*
X75609523Y-96661904D01*
X74128571Y-99223809D02*
X74242857Y-99261904D01*
X74433333Y-99261904D01*
X74509523Y-99223809D01*
X74547619Y-99185714D01*
X74585714Y-99109523D01*
X74585714Y-99033333D01*
X74547619Y-98957142D01*
X74509523Y-98919047D01*
X74433333Y-98880952D01*
X74280952Y-98842857D01*
X74204761Y-98804761D01*
X74166666Y-98766666D01*
X74128571Y-98690476D01*
X74128571Y-98614285D01*
X74166666Y-98538095D01*
X74204761Y-98500000D01*
X74280952Y-98461904D01*
X74471428Y-98461904D01*
X74585714Y-98500000D01*
X74928571Y-99261904D02*
X74928571Y-98461904D01*
X75119047Y-98461904D01*
X75233333Y-98500000D01*
X75309523Y-98576190D01*
X75347619Y-98652380D01*
X75385714Y-98804761D01*
X75385714Y-98919047D01*
X75347619Y-99071428D01*
X75309523Y-99147619D01*
X75233333Y-99223809D01*
X75119047Y-99261904D01*
X74928571Y-99261904D01*
X75690476Y-99033333D02*
X76071428Y-99033333D01*
X75614285Y-99261904D02*
X75880952Y-98461904D01*
X76147619Y-99261904D01*
X66438095Y-81014285D02*
X65638095Y-81547619D01*
X66438095Y-81547619D02*
X65638095Y-81014285D01*
X65676190Y-81814285D02*
X65638095Y-81928571D01*
X65638095Y-82119047D01*
X65676190Y-82195238D01*
X65714285Y-82233333D01*
X65790476Y-82271428D01*
X65866666Y-82271428D01*
X65942857Y-82233333D01*
X65980952Y-82195238D01*
X66019047Y-82119047D01*
X66057142Y-81966666D01*
X66095238Y-81890476D01*
X66133333Y-81852380D01*
X66209523Y-81814285D01*
X66285714Y-81814285D01*
X66361904Y-81852380D01*
X66400000Y-81890476D01*
X66438095Y-81966666D01*
X66438095Y-82157142D01*
X66400000Y-82271428D01*
X65638095Y-82614285D02*
X66438095Y-82614285D01*
X66057142Y-82614285D02*
X66057142Y-83071428D01*
X65638095Y-83071428D02*
X66438095Y-83071428D01*
X66438095Y-83452380D02*
X65790476Y-83452380D01*
X65714285Y-83490476D01*
X65676190Y-83528571D01*
X65638095Y-83604761D01*
X65638095Y-83757142D01*
X65676190Y-83833333D01*
X65714285Y-83871428D01*
X65790476Y-83909523D01*
X66438095Y-83909523D01*
X61338095Y-82047619D02*
X61338095Y-82542857D01*
X61033333Y-82276190D01*
X61033333Y-82390476D01*
X60995238Y-82466666D01*
X60957142Y-82504761D01*
X60880952Y-82542857D01*
X60690476Y-82542857D01*
X60614285Y-82504761D01*
X60576190Y-82466666D01*
X60538095Y-82390476D01*
X60538095Y-82161904D01*
X60576190Y-82085714D01*
X60614285Y-82047619D01*
X61071428Y-82809523D02*
X60538095Y-83000000D01*
X61071428Y-83190476D01*
X61338095Y-83419047D02*
X61338095Y-83914285D01*
X61033333Y-83647619D01*
X61033333Y-83761904D01*
X60995238Y-83838095D01*
X60957142Y-83876190D01*
X60880952Y-83914285D01*
X60690476Y-83914285D01*
X60614285Y-83876190D01*
X60576190Y-83838095D01*
X60538095Y-83761904D01*
X60538095Y-83533333D01*
X60576190Y-83457142D01*
X60614285Y-83419047D01*
X62500000Y-82390476D02*
X62538095Y-82314285D01*
X62538095Y-82200000D01*
X62500000Y-82085714D01*
X62423809Y-82009523D01*
X62347619Y-81971428D01*
X62195238Y-81933333D01*
X62080952Y-81933333D01*
X61928571Y-81971428D01*
X61852380Y-82009523D01*
X61776190Y-82085714D01*
X61738095Y-82200000D01*
X61738095Y-82276190D01*
X61776190Y-82390476D01*
X61814285Y-82428571D01*
X62080952Y-82428571D01*
X62080952Y-82276190D01*
X61738095Y-82771428D02*
X62538095Y-82771428D01*
X61738095Y-83228571D01*
X62538095Y-83228571D01*
X61738095Y-83609523D02*
X62538095Y-83609523D01*
X62538095Y-83800000D01*
X62500000Y-83914285D01*
X62423809Y-83990476D01*
X62347619Y-84028571D01*
X62195238Y-84066666D01*
X62080952Y-84066666D01*
X61928571Y-84028571D01*
X61852380Y-83990476D01*
X61776190Y-83914285D01*
X61738095Y-83800000D01*
X61738095Y-83609523D01*
X64376190Y-81928571D02*
X64338095Y-82042857D01*
X64338095Y-82233333D01*
X64376190Y-82309523D01*
X64414285Y-82347619D01*
X64490476Y-82385714D01*
X64566666Y-82385714D01*
X64642857Y-82347619D01*
X64680952Y-82309523D01*
X64719047Y-82233333D01*
X64757142Y-82080952D01*
X64795238Y-82004761D01*
X64833333Y-81966666D01*
X64909523Y-81928571D01*
X64985714Y-81928571D01*
X65061904Y-81966666D01*
X65100000Y-82004761D01*
X65138095Y-82080952D01*
X65138095Y-82271428D01*
X65100000Y-82385714D01*
X64338095Y-82728571D02*
X65138095Y-82728571D01*
X65138095Y-82919047D01*
X65100000Y-83033333D01*
X65023809Y-83109523D01*
X64947619Y-83147619D01*
X64795238Y-83185714D01*
X64680952Y-83185714D01*
X64528571Y-83147619D01*
X64452380Y-83109523D01*
X64376190Y-83033333D01*
X64338095Y-82919047D01*
X64338095Y-82728571D01*
X64566666Y-83490476D02*
X64566666Y-83871428D01*
X64338095Y-83414285D02*
X65138095Y-83680952D01*
X64338095Y-83947619D01*
X63076190Y-82047619D02*
X63038095Y-82161904D01*
X63038095Y-82352380D01*
X63076190Y-82428571D01*
X63114285Y-82466666D01*
X63190476Y-82504761D01*
X63266666Y-82504761D01*
X63342857Y-82466666D01*
X63380952Y-82428571D01*
X63419047Y-82352380D01*
X63457142Y-82200000D01*
X63495238Y-82123809D01*
X63533333Y-82085714D01*
X63609523Y-82047619D01*
X63685714Y-82047619D01*
X63761904Y-82085714D01*
X63800000Y-82123809D01*
X63838095Y-82200000D01*
X63838095Y-82390476D01*
X63800000Y-82504761D01*
X63114285Y-83304761D02*
X63076190Y-83266666D01*
X63038095Y-83152380D01*
X63038095Y-83076190D01*
X63076190Y-82961904D01*
X63152380Y-82885714D01*
X63228571Y-82847619D01*
X63380952Y-82809523D01*
X63495238Y-82809523D01*
X63647619Y-82847619D01*
X63723809Y-82885714D01*
X63800000Y-82961904D01*
X63838095Y-83076190D01*
X63838095Y-83152380D01*
X63800000Y-83266666D01*
X63761904Y-83304761D01*
X63038095Y-84028571D02*
X63038095Y-83647619D01*
X63838095Y-83647619D01*
X45338095Y-81014285D02*
X44538095Y-81547619D01*
X45338095Y-81547619D02*
X44538095Y-81014285D01*
X44576190Y-81814285D02*
X44538095Y-81928571D01*
X44538095Y-82119047D01*
X44576190Y-82195238D01*
X44614285Y-82233333D01*
X44690476Y-82271428D01*
X44766666Y-82271428D01*
X44842857Y-82233333D01*
X44880952Y-82195238D01*
X44919047Y-82119047D01*
X44957142Y-81966666D01*
X44995238Y-81890476D01*
X45033333Y-81852380D01*
X45109523Y-81814285D01*
X45185714Y-81814285D01*
X45261904Y-81852380D01*
X45300000Y-81890476D01*
X45338095Y-81966666D01*
X45338095Y-82157142D01*
X45300000Y-82271428D01*
X44538095Y-82614285D02*
X45338095Y-82614285D01*
X44957142Y-82614285D02*
X44957142Y-83071428D01*
X44538095Y-83071428D02*
X45338095Y-83071428D01*
X45338095Y-83452380D02*
X44690476Y-83452380D01*
X44614285Y-83490476D01*
X44576190Y-83528571D01*
X44538095Y-83604761D01*
X44538095Y-83757142D01*
X44576190Y-83833333D01*
X44614285Y-83871428D01*
X44690476Y-83909523D01*
X45338095Y-83909523D01*
X41976190Y-82047619D02*
X41938095Y-82161904D01*
X41938095Y-82352380D01*
X41976190Y-82428571D01*
X42014285Y-82466666D01*
X42090476Y-82504761D01*
X42166666Y-82504761D01*
X42242857Y-82466666D01*
X42280952Y-82428571D01*
X42319047Y-82352380D01*
X42357142Y-82200000D01*
X42395238Y-82123809D01*
X42433333Y-82085714D01*
X42509523Y-82047619D01*
X42585714Y-82047619D01*
X42661904Y-82085714D01*
X42700000Y-82123809D01*
X42738095Y-82200000D01*
X42738095Y-82390476D01*
X42700000Y-82504761D01*
X42014285Y-83304761D02*
X41976190Y-83266666D01*
X41938095Y-83152380D01*
X41938095Y-83076190D01*
X41976190Y-82961904D01*
X42052380Y-82885714D01*
X42128571Y-82847619D01*
X42280952Y-82809523D01*
X42395238Y-82809523D01*
X42547619Y-82847619D01*
X42623809Y-82885714D01*
X42700000Y-82961904D01*
X42738095Y-83076190D01*
X42738095Y-83152380D01*
X42700000Y-83266666D01*
X42661904Y-83304761D01*
X41938095Y-84028571D02*
X41938095Y-83647619D01*
X42738095Y-83647619D01*
X43276190Y-81928571D02*
X43238095Y-82042857D01*
X43238095Y-82233333D01*
X43276190Y-82309523D01*
X43314285Y-82347619D01*
X43390476Y-82385714D01*
X43466666Y-82385714D01*
X43542857Y-82347619D01*
X43580952Y-82309523D01*
X43619047Y-82233333D01*
X43657142Y-82080952D01*
X43695238Y-82004761D01*
X43733333Y-81966666D01*
X43809523Y-81928571D01*
X43885714Y-81928571D01*
X43961904Y-81966666D01*
X44000000Y-82004761D01*
X44038095Y-82080952D01*
X44038095Y-82271428D01*
X44000000Y-82385714D01*
X43238095Y-82728571D02*
X44038095Y-82728571D01*
X44038095Y-82919047D01*
X44000000Y-83033333D01*
X43923809Y-83109523D01*
X43847619Y-83147619D01*
X43695238Y-83185714D01*
X43580952Y-83185714D01*
X43428571Y-83147619D01*
X43352380Y-83109523D01*
X43276190Y-83033333D01*
X43238095Y-82919047D01*
X43238095Y-82728571D01*
X43466666Y-83490476D02*
X43466666Y-83871428D01*
X43238095Y-83414285D02*
X44038095Y-83680952D01*
X43238095Y-83947619D01*
X40238095Y-82047619D02*
X40238095Y-82542857D01*
X39933333Y-82276190D01*
X39933333Y-82390476D01*
X39895238Y-82466666D01*
X39857142Y-82504761D01*
X39780952Y-82542857D01*
X39590476Y-82542857D01*
X39514285Y-82504761D01*
X39476190Y-82466666D01*
X39438095Y-82390476D01*
X39438095Y-82161904D01*
X39476190Y-82085714D01*
X39514285Y-82047619D01*
X39971428Y-82809523D02*
X39438095Y-83000000D01*
X39971428Y-83190476D01*
X40238095Y-83419047D02*
X40238095Y-83914285D01*
X39933333Y-83647619D01*
X39933333Y-83761904D01*
X39895238Y-83838095D01*
X39857142Y-83876190D01*
X39780952Y-83914285D01*
X39590476Y-83914285D01*
X39514285Y-83876190D01*
X39476190Y-83838095D01*
X39438095Y-83761904D01*
X39438095Y-83533333D01*
X39476190Y-83457142D01*
X39514285Y-83419047D01*
X41400000Y-82390476D02*
X41438095Y-82314285D01*
X41438095Y-82200000D01*
X41400000Y-82085714D01*
X41323809Y-82009523D01*
X41247619Y-81971428D01*
X41095238Y-81933333D01*
X40980952Y-81933333D01*
X40828571Y-81971428D01*
X40752380Y-82009523D01*
X40676190Y-82085714D01*
X40638095Y-82200000D01*
X40638095Y-82276190D01*
X40676190Y-82390476D01*
X40714285Y-82428571D01*
X40980952Y-82428571D01*
X40980952Y-82276190D01*
X40638095Y-82771428D02*
X41438095Y-82771428D01*
X40638095Y-83228571D01*
X41438095Y-83228571D01*
X40638095Y-83609523D02*
X41438095Y-83609523D01*
X41438095Y-83800000D01*
X41400000Y-83914285D01*
X41323809Y-83990476D01*
X41247619Y-84028571D01*
X41095238Y-84066666D01*
X40980952Y-84066666D01*
X40828571Y-84028571D01*
X40752380Y-83990476D01*
X40676190Y-83914285D01*
X40638095Y-83800000D01*
X40638095Y-83609523D01*
X30047619Y-99561904D02*
X30542857Y-99561904D01*
X30276190Y-99866666D01*
X30390476Y-99866666D01*
X30466666Y-99904761D01*
X30504761Y-99942857D01*
X30542857Y-100019047D01*
X30542857Y-100209523D01*
X30504761Y-100285714D01*
X30466666Y-100323809D01*
X30390476Y-100361904D01*
X30161904Y-100361904D01*
X30085714Y-100323809D01*
X30047619Y-100285714D01*
X30809523Y-99828571D02*
X31000000Y-100361904D01*
X31190476Y-99828571D01*
X31419047Y-99561904D02*
X31914285Y-99561904D01*
X31647619Y-99866666D01*
X31761904Y-99866666D01*
X31838095Y-99904761D01*
X31876190Y-99942857D01*
X31914285Y-100019047D01*
X31914285Y-100209523D01*
X31876190Y-100285714D01*
X31838095Y-100323809D01*
X31761904Y-100361904D01*
X31533333Y-100361904D01*
X31457142Y-100323809D01*
X31419047Y-100285714D01*
X30390476Y-98400000D02*
X30314285Y-98361904D01*
X30200000Y-98361904D01*
X30085714Y-98400000D01*
X30009523Y-98476190D01*
X29971428Y-98552380D01*
X29933333Y-98704761D01*
X29933333Y-98819047D01*
X29971428Y-98971428D01*
X30009523Y-99047619D01*
X30085714Y-99123809D01*
X30200000Y-99161904D01*
X30276190Y-99161904D01*
X30390476Y-99123809D01*
X30428571Y-99085714D01*
X30428571Y-98819047D01*
X30276190Y-98819047D01*
X30771428Y-99161904D02*
X30771428Y-98361904D01*
X31228571Y-99161904D01*
X31228571Y-98361904D01*
X31609523Y-99161904D02*
X31609523Y-98361904D01*
X31800000Y-98361904D01*
X31914285Y-98400000D01*
X31990476Y-98476190D01*
X32028571Y-98552380D01*
X32066666Y-98704761D01*
X32066666Y-98819047D01*
X32028571Y-98971428D01*
X31990476Y-99047619D01*
X31914285Y-99123809D01*
X31800000Y-99161904D01*
X31609523Y-99161904D01*
X30047619Y-97823809D02*
X30161904Y-97861904D01*
X30352380Y-97861904D01*
X30428571Y-97823809D01*
X30466666Y-97785714D01*
X30504761Y-97709523D01*
X30504761Y-97633333D01*
X30466666Y-97557142D01*
X30428571Y-97519047D01*
X30352380Y-97480952D01*
X30200000Y-97442857D01*
X30123809Y-97404761D01*
X30085714Y-97366666D01*
X30047619Y-97290476D01*
X30047619Y-97214285D01*
X30085714Y-97138095D01*
X30123809Y-97100000D01*
X30200000Y-97061904D01*
X30390476Y-97061904D01*
X30504761Y-97100000D01*
X31304761Y-97785714D02*
X31266666Y-97823809D01*
X31152380Y-97861904D01*
X31076190Y-97861904D01*
X30961904Y-97823809D01*
X30885714Y-97747619D01*
X30847619Y-97671428D01*
X30809523Y-97519047D01*
X30809523Y-97404761D01*
X30847619Y-97252380D01*
X30885714Y-97176190D01*
X30961904Y-97100000D01*
X31076190Y-97061904D01*
X31152380Y-97061904D01*
X31266666Y-97100000D01*
X31304761Y-97138095D01*
X32028571Y-97861904D02*
X31647619Y-97861904D01*
X31647619Y-97061904D01*
X29928571Y-96523809D02*
X30042857Y-96561904D01*
X30233333Y-96561904D01*
X30309523Y-96523809D01*
X30347619Y-96485714D01*
X30385714Y-96409523D01*
X30385714Y-96333333D01*
X30347619Y-96257142D01*
X30309523Y-96219047D01*
X30233333Y-96180952D01*
X30080952Y-96142857D01*
X30004761Y-96104761D01*
X29966666Y-96066666D01*
X29928571Y-95990476D01*
X29928571Y-95914285D01*
X29966666Y-95838095D01*
X30004761Y-95800000D01*
X30080952Y-95761904D01*
X30271428Y-95761904D01*
X30385714Y-95800000D01*
X30728571Y-96561904D02*
X30728571Y-95761904D01*
X30919047Y-95761904D01*
X31033333Y-95800000D01*
X31109523Y-95876190D01*
X31147619Y-95952380D01*
X31185714Y-96104761D01*
X31185714Y-96219047D01*
X31147619Y-96371428D01*
X31109523Y-96447619D01*
X31033333Y-96523809D01*
X30919047Y-96561904D01*
X30728571Y-96561904D01*
X31490476Y-96333333D02*
X31871428Y-96333333D01*
X31414285Y-96561904D02*
X31680952Y-95761904D01*
X31947619Y-96561904D01*
X29014285Y-94461904D02*
X29547619Y-95261904D01*
X29547619Y-94461904D02*
X29014285Y-95261904D01*
X29814285Y-95223809D02*
X29928571Y-95261904D01*
X30119047Y-95261904D01*
X30195238Y-95223809D01*
X30233333Y-95185714D01*
X30271428Y-95109523D01*
X30271428Y-95033333D01*
X30233333Y-94957142D01*
X30195238Y-94919047D01*
X30119047Y-94880952D01*
X29966666Y-94842857D01*
X29890476Y-94804761D01*
X29852380Y-94766666D01*
X29814285Y-94690476D01*
X29814285Y-94614285D01*
X29852380Y-94538095D01*
X29890476Y-94500000D01*
X29966666Y-94461904D01*
X30157142Y-94461904D01*
X30271428Y-94500000D01*
X30614285Y-95261904D02*
X30614285Y-94461904D01*
X30614285Y-94842857D02*
X31071428Y-94842857D01*
X31071428Y-95261904D02*
X31071428Y-94461904D01*
X31452380Y-94461904D02*
X31452380Y-95109523D01*
X31490476Y-95185714D01*
X31528571Y-95223809D01*
X31604761Y-95261904D01*
X31757142Y-95261904D01*
X31833333Y-95223809D01*
X31871428Y-95185714D01*
X31909523Y-95109523D01*
X31909523Y-94461904D01*
X31347619Y-87861904D02*
X30966666Y-87861904D01*
X30928571Y-88242857D01*
X30966666Y-88204761D01*
X31042857Y-88166666D01*
X31233333Y-88166666D01*
X31309523Y-88204761D01*
X31347619Y-88242857D01*
X31385714Y-88319047D01*
X31385714Y-88509523D01*
X31347619Y-88585714D01*
X31309523Y-88623809D01*
X31233333Y-88661904D01*
X31042857Y-88661904D01*
X30966666Y-88623809D01*
X30928571Y-88585714D01*
X31614285Y-87861904D02*
X31880952Y-88661904D01*
X32147619Y-87861904D01*
X30300000Y-89061904D02*
X30452380Y-89061904D01*
X30528571Y-89100000D01*
X30604761Y-89176190D01*
X30642857Y-89328571D01*
X30642857Y-89595238D01*
X30604761Y-89747619D01*
X30528571Y-89823809D01*
X30452380Y-89861904D01*
X30300000Y-89861904D01*
X30223809Y-89823809D01*
X30147619Y-89747619D01*
X30109523Y-89595238D01*
X30109523Y-89328571D01*
X30147619Y-89176190D01*
X30223809Y-89100000D01*
X30300000Y-89061904D01*
X30985714Y-89061904D02*
X30985714Y-89709523D01*
X31023809Y-89785714D01*
X31061904Y-89823809D01*
X31138095Y-89861904D01*
X31290476Y-89861904D01*
X31366666Y-89823809D01*
X31404761Y-89785714D01*
X31442857Y-89709523D01*
X31442857Y-89061904D01*
X31709523Y-89061904D02*
X32166666Y-89061904D01*
X31938095Y-89861904D02*
X31938095Y-89061904D01*
X30490476Y-90300000D02*
X30414285Y-90261904D01*
X30300000Y-90261904D01*
X30185714Y-90300000D01*
X30109523Y-90376190D01*
X30071428Y-90452380D01*
X30033333Y-90604761D01*
X30033333Y-90719047D01*
X30071428Y-90871428D01*
X30109523Y-90947619D01*
X30185714Y-91023809D01*
X30300000Y-91061904D01*
X30376190Y-91061904D01*
X30490476Y-91023809D01*
X30528571Y-90985714D01*
X30528571Y-90719047D01*
X30376190Y-90719047D01*
X30871428Y-91061904D02*
X30871428Y-90261904D01*
X31328571Y-91061904D01*
X31328571Y-90261904D01*
X31709523Y-91061904D02*
X31709523Y-90261904D01*
X31900000Y-90261904D01*
X32014285Y-90300000D01*
X32090476Y-90376190D01*
X32128571Y-90452380D01*
X32166666Y-90604761D01*
X32166666Y-90719047D01*
X32128571Y-90871428D01*
X32090476Y-90947619D01*
X32014285Y-91023809D01*
X31900000Y-91061904D01*
X31709523Y-91061904D01*
X69938095Y-86785714D02*
X69938095Y-86404761D01*
X70738095Y-86404761D01*
X69938095Y-87052380D02*
X70738095Y-87052380D01*
X70738095Y-87242857D01*
X70700000Y-87357142D01*
X70623809Y-87433333D01*
X70547619Y-87471428D01*
X70395238Y-87509523D01*
X70280952Y-87509523D01*
X70128571Y-87471428D01*
X70052380Y-87433333D01*
X69976190Y-87357142D01*
X69938095Y-87242857D01*
X69938095Y-87052380D01*
X69861904Y-87661904D02*
X69861904Y-88271428D01*
X70357142Y-88728571D02*
X70357142Y-88461904D01*
X69938095Y-88461904D02*
X70738095Y-88461904D01*
X70738095Y-88842857D01*
X69938095Y-89604761D02*
X70319047Y-89338095D01*
X69938095Y-89147619D02*
X70738095Y-89147619D01*
X70738095Y-89452380D01*
X70700000Y-89528571D01*
X70661904Y-89566666D01*
X70585714Y-89604761D01*
X70471428Y-89604761D01*
X70395238Y-89566666D01*
X70357142Y-89528571D01*
X70319047Y-89452380D01*
X70319047Y-89147619D01*
X69938095Y-89947619D02*
X70738095Y-89947619D01*
X70700000Y-90747619D02*
X70738095Y-90671428D01*
X70738095Y-90557142D01*
X70700000Y-90442857D01*
X70623809Y-90366666D01*
X70547619Y-90328571D01*
X70395238Y-90290476D01*
X70280952Y-90290476D01*
X70128571Y-90328571D01*
X70052380Y-90366666D01*
X69976190Y-90442857D01*
X69938095Y-90557142D01*
X69938095Y-90633333D01*
X69976190Y-90747619D01*
X70014285Y-90785714D01*
X70280952Y-90785714D01*
X70280952Y-90633333D01*
X69938095Y-91128571D02*
X70738095Y-91128571D01*
X70357142Y-91128571D02*
X70357142Y-91585714D01*
X69938095Y-91585714D02*
X70738095Y-91585714D01*
X70738095Y-91852380D02*
X70738095Y-92309523D01*
X69938095Y-92080952D02*
X70738095Y-92080952D01*
X69838095Y-94204761D02*
X70219047Y-93938095D01*
X69838095Y-93747619D02*
X70638095Y-93747619D01*
X70638095Y-94052380D01*
X70600000Y-94128571D01*
X70561904Y-94166666D01*
X70485714Y-94204761D01*
X70371428Y-94204761D01*
X70295238Y-94166666D01*
X70257142Y-94128571D01*
X70219047Y-94052380D01*
X70219047Y-93747619D01*
X70066666Y-94509523D02*
X70066666Y-94890476D01*
X69838095Y-94433333D02*
X70638095Y-94700000D01*
X69838095Y-94966666D01*
X69838095Y-95233333D02*
X70638095Y-95233333D01*
X69838095Y-95690476D01*
X70638095Y-95690476D01*
X70600000Y-96490476D02*
X70638095Y-96414285D01*
X70638095Y-96300000D01*
X70600000Y-96185714D01*
X70523809Y-96109523D01*
X70447619Y-96071428D01*
X70295238Y-96033333D01*
X70180952Y-96033333D01*
X70028571Y-96071428D01*
X69952380Y-96109523D01*
X69876190Y-96185714D01*
X69838095Y-96300000D01*
X69838095Y-96376190D01*
X69876190Y-96490476D01*
X69914285Y-96528571D01*
X70180952Y-96528571D01*
X70180952Y-96376190D01*
X70257142Y-96871428D02*
X70257142Y-97138095D01*
X69838095Y-97252380D02*
X69838095Y-96871428D01*
X70638095Y-96871428D01*
X70638095Y-97252380D01*
X69761904Y-97404761D02*
X69761904Y-98014285D01*
X69838095Y-98661904D02*
X70219047Y-98395238D01*
X69838095Y-98204761D02*
X70638095Y-98204761D01*
X70638095Y-98509523D01*
X70600000Y-98585714D01*
X70561904Y-98623809D01*
X70485714Y-98661904D01*
X70371428Y-98661904D01*
X70295238Y-98623809D01*
X70257142Y-98585714D01*
X70219047Y-98509523D01*
X70219047Y-98204761D01*
X69838095Y-99004761D02*
X70638095Y-99004761D01*
X70600000Y-99804761D02*
X70638095Y-99728571D01*
X70638095Y-99614285D01*
X70600000Y-99500000D01*
X70523809Y-99423809D01*
X70447619Y-99385714D01*
X70295238Y-99347619D01*
X70180952Y-99347619D01*
X70028571Y-99385714D01*
X69952380Y-99423809D01*
X69876190Y-99500000D01*
X69838095Y-99614285D01*
X69838095Y-99690476D01*
X69876190Y-99804761D01*
X69914285Y-99842857D01*
X70180952Y-99842857D01*
X70180952Y-99690476D01*
X69838095Y-100185714D02*
X70638095Y-100185714D01*
X70257142Y-100185714D02*
X70257142Y-100642857D01*
X69838095Y-100642857D02*
X70638095Y-100642857D01*
X70638095Y-100909523D02*
X70638095Y-101366666D01*
X69838095Y-101138095D02*
X70638095Y-101138095D01*
X59761904Y-88261904D02*
X59495238Y-87880952D01*
X59304761Y-88261904D02*
X59304761Y-87461904D01*
X59609523Y-87461904D01*
X59685714Y-87500000D01*
X59723809Y-87538095D01*
X59761904Y-87614285D01*
X59761904Y-87728571D01*
X59723809Y-87804761D01*
X59685714Y-87842857D01*
X59609523Y-87880952D01*
X59304761Y-87880952D01*
X60066666Y-88033333D02*
X60447619Y-88033333D01*
X59990476Y-88261904D02*
X60257142Y-87461904D01*
X60523809Y-88261904D01*
X60790476Y-88261904D02*
X60790476Y-87461904D01*
X61247619Y-88261904D01*
X61247619Y-87461904D01*
X62047619Y-87500000D02*
X61971428Y-87461904D01*
X61857142Y-87461904D01*
X61742857Y-87500000D01*
X61666666Y-87576190D01*
X61628571Y-87652380D01*
X61590476Y-87804761D01*
X61590476Y-87919047D01*
X61628571Y-88071428D01*
X61666666Y-88147619D01*
X61742857Y-88223809D01*
X61857142Y-88261904D01*
X61933333Y-88261904D01*
X62047619Y-88223809D01*
X62085714Y-88185714D01*
X62085714Y-87919047D01*
X61933333Y-87919047D01*
X62428571Y-87842857D02*
X62695238Y-87842857D01*
X62809523Y-88261904D02*
X62428571Y-88261904D01*
X62428571Y-87461904D01*
X62809523Y-87461904D01*
X62961904Y-88338095D02*
X63571428Y-88338095D01*
X64028571Y-87842857D02*
X63761904Y-87842857D01*
X63761904Y-88261904D02*
X63761904Y-87461904D01*
X64142857Y-87461904D01*
X64904761Y-88261904D02*
X64638095Y-87880952D01*
X64447619Y-88261904D02*
X64447619Y-87461904D01*
X64752380Y-87461904D01*
X64828571Y-87500000D01*
X64866666Y-87538095D01*
X64904761Y-87614285D01*
X64904761Y-87728571D01*
X64866666Y-87804761D01*
X64828571Y-87842857D01*
X64752380Y-87880952D01*
X64447619Y-87880952D01*
X65247619Y-88261904D02*
X65247619Y-87461904D01*
X66047619Y-87500000D02*
X65971428Y-87461904D01*
X65857142Y-87461904D01*
X65742857Y-87500000D01*
X65666666Y-87576190D01*
X65628571Y-87652380D01*
X65590476Y-87804761D01*
X65590476Y-87919047D01*
X65628571Y-88071428D01*
X65666666Y-88147619D01*
X65742857Y-88223809D01*
X65857142Y-88261904D01*
X65933333Y-88261904D01*
X66047619Y-88223809D01*
X66085714Y-88185714D01*
X66085714Y-87919047D01*
X65933333Y-87919047D01*
X66428571Y-88261904D02*
X66428571Y-87461904D01*
X66428571Y-87842857D02*
X66885714Y-87842857D01*
X66885714Y-88261904D02*
X66885714Y-87461904D01*
X67152380Y-87461904D02*
X67609523Y-87461904D01*
X67380952Y-88261904D02*
X67380952Y-87461904D01*
X49733333Y-88261904D02*
X49466666Y-87880952D01*
X49276190Y-88261904D02*
X49276190Y-87461904D01*
X49580952Y-87461904D01*
X49657142Y-87500000D01*
X49695238Y-87538095D01*
X49733333Y-87614285D01*
X49733333Y-87728571D01*
X49695238Y-87804761D01*
X49657142Y-87842857D01*
X49580952Y-87880952D01*
X49276190Y-87880952D01*
X50038095Y-88033333D02*
X50419047Y-88033333D01*
X49961904Y-88261904D02*
X50228571Y-87461904D01*
X50495238Y-88261904D01*
X50761904Y-88261904D02*
X50761904Y-87461904D01*
X51219047Y-88261904D01*
X51219047Y-87461904D01*
X52019047Y-87500000D02*
X51942857Y-87461904D01*
X51828571Y-87461904D01*
X51714285Y-87500000D01*
X51638095Y-87576190D01*
X51600000Y-87652380D01*
X51561904Y-87804761D01*
X51561904Y-87919047D01*
X51600000Y-88071428D01*
X51638095Y-88147619D01*
X51714285Y-88223809D01*
X51828571Y-88261904D01*
X51904761Y-88261904D01*
X52019047Y-88223809D01*
X52057142Y-88185714D01*
X52057142Y-87919047D01*
X51904761Y-87919047D01*
X52400000Y-87842857D02*
X52666666Y-87842857D01*
X52780952Y-88261904D02*
X52400000Y-88261904D01*
X52400000Y-87461904D01*
X52780952Y-87461904D01*
X52933333Y-88338095D02*
X53542857Y-88338095D01*
X54000000Y-87842857D02*
X53733333Y-87842857D01*
X53733333Y-88261904D02*
X53733333Y-87461904D01*
X54114285Y-87461904D01*
X54876190Y-88261904D02*
X54609523Y-87880952D01*
X54419047Y-88261904D02*
X54419047Y-87461904D01*
X54723809Y-87461904D01*
X54800000Y-87500000D01*
X54838095Y-87538095D01*
X54876190Y-87614285D01*
X54876190Y-87728571D01*
X54838095Y-87804761D01*
X54800000Y-87842857D01*
X54723809Y-87880952D01*
X54419047Y-87880952D01*
X55371428Y-87461904D02*
X55523809Y-87461904D01*
X55600000Y-87500000D01*
X55676190Y-87576190D01*
X55714285Y-87728571D01*
X55714285Y-87995238D01*
X55676190Y-88147619D01*
X55600000Y-88223809D01*
X55523809Y-88261904D01*
X55371428Y-88261904D01*
X55295238Y-88223809D01*
X55219047Y-88147619D01*
X55180952Y-87995238D01*
X55180952Y-87728571D01*
X55219047Y-87576190D01*
X55295238Y-87500000D01*
X55371428Y-87461904D01*
X56057142Y-88261904D02*
X56057142Y-87461904D01*
X56514285Y-88261904D01*
X56514285Y-87461904D01*
X56780952Y-87461904D02*
X57238095Y-87461904D01*
X57009523Y-88261904D02*
X57009523Y-87461904D01*
X38942857Y-88261904D02*
X38676190Y-87880952D01*
X38485714Y-88261904D02*
X38485714Y-87461904D01*
X38790476Y-87461904D01*
X38866666Y-87500000D01*
X38904761Y-87538095D01*
X38942857Y-87614285D01*
X38942857Y-87728571D01*
X38904761Y-87804761D01*
X38866666Y-87842857D01*
X38790476Y-87880952D01*
X38485714Y-87880952D01*
X39247619Y-88033333D02*
X39628571Y-88033333D01*
X39171428Y-88261904D02*
X39438095Y-87461904D01*
X39704761Y-88261904D01*
X39971428Y-88261904D02*
X39971428Y-87461904D01*
X40428571Y-88261904D01*
X40428571Y-87461904D01*
X41228571Y-87500000D02*
X41152380Y-87461904D01*
X41038095Y-87461904D01*
X40923809Y-87500000D01*
X40847619Y-87576190D01*
X40809523Y-87652380D01*
X40771428Y-87804761D01*
X40771428Y-87919047D01*
X40809523Y-88071428D01*
X40847619Y-88147619D01*
X40923809Y-88223809D01*
X41038095Y-88261904D01*
X41114285Y-88261904D01*
X41228571Y-88223809D01*
X41266666Y-88185714D01*
X41266666Y-87919047D01*
X41114285Y-87919047D01*
X41609523Y-87842857D02*
X41876190Y-87842857D01*
X41990476Y-88261904D02*
X41609523Y-88261904D01*
X41609523Y-87461904D01*
X41990476Y-87461904D01*
X42142857Y-88338095D02*
X42752380Y-88338095D01*
X43209523Y-87842857D02*
X42942857Y-87842857D01*
X42942857Y-88261904D02*
X42942857Y-87461904D01*
X43323809Y-87461904D01*
X44009523Y-88261904D02*
X43628571Y-88261904D01*
X43628571Y-87461904D01*
X44276190Y-87842857D02*
X44542857Y-87842857D01*
X44657142Y-88261904D02*
X44276190Y-88261904D01*
X44276190Y-87461904D01*
X44657142Y-87461904D01*
X45266666Y-87842857D02*
X45000000Y-87842857D01*
X45000000Y-88261904D02*
X45000000Y-87461904D01*
X45380952Y-87461904D01*
X45571428Y-87461904D02*
X46028571Y-87461904D01*
X45800000Y-88261904D02*
X45800000Y-87461904D01*
X35961904Y-91633333D02*
X35961904Y-92014285D01*
X35161904Y-92014285D01*
X35961904Y-91366666D02*
X35161904Y-91366666D01*
X35161904Y-91176190D01*
X35200000Y-91061904D01*
X35276190Y-90985714D01*
X35352380Y-90947619D01*
X35504761Y-90909523D01*
X35619047Y-90909523D01*
X35771428Y-90947619D01*
X35847619Y-90985714D01*
X35923809Y-91061904D01*
X35961904Y-91176190D01*
X35961904Y-91366666D01*
X36038095Y-90757142D02*
X36038095Y-90147619D01*
X35542857Y-89690476D02*
X35542857Y-89957142D01*
X35961904Y-89957142D02*
X35161904Y-89957142D01*
X35161904Y-89576190D01*
X35961904Y-88890476D02*
X35961904Y-89271428D01*
X35161904Y-89271428D01*
X35542857Y-88623809D02*
X35542857Y-88357142D01*
X35961904Y-88242857D02*
X35961904Y-88623809D01*
X35161904Y-88623809D01*
X35161904Y-88242857D01*
X35542857Y-87633333D02*
X35542857Y-87900000D01*
X35961904Y-87900000D02*
X35161904Y-87900000D01*
X35161904Y-87519047D01*
X35161904Y-87328571D02*
X35161904Y-86871428D01*
X35961904Y-87100000D02*
X35161904Y-87100000D01*
X35861904Y-100314285D02*
X35480952Y-100580952D01*
X35861904Y-100771428D02*
X35061904Y-100771428D01*
X35061904Y-100466666D01*
X35100000Y-100390476D01*
X35138095Y-100352380D01*
X35214285Y-100314285D01*
X35328571Y-100314285D01*
X35404761Y-100352380D01*
X35442857Y-100390476D01*
X35480952Y-100466666D01*
X35480952Y-100771428D01*
X35633333Y-100009523D02*
X35633333Y-99628571D01*
X35861904Y-100085714D02*
X35061904Y-99819047D01*
X35861904Y-99552380D01*
X35861904Y-99285714D02*
X35061904Y-99285714D01*
X35861904Y-98828571D01*
X35061904Y-98828571D01*
X35100000Y-98028571D02*
X35061904Y-98104761D01*
X35061904Y-98219047D01*
X35100000Y-98333333D01*
X35176190Y-98409523D01*
X35252380Y-98447619D01*
X35404761Y-98485714D01*
X35519047Y-98485714D01*
X35671428Y-98447619D01*
X35747619Y-98409523D01*
X35823809Y-98333333D01*
X35861904Y-98219047D01*
X35861904Y-98142857D01*
X35823809Y-98028571D01*
X35785714Y-97990476D01*
X35519047Y-97990476D01*
X35519047Y-98142857D01*
X35442857Y-97647619D02*
X35442857Y-97380952D01*
X35861904Y-97266666D02*
X35861904Y-97647619D01*
X35061904Y-97647619D01*
X35061904Y-97266666D01*
X35938095Y-97114285D02*
X35938095Y-96504761D01*
X35861904Y-95933333D02*
X35861904Y-96314285D01*
X35061904Y-96314285D01*
X35442857Y-95666666D02*
X35442857Y-95400000D01*
X35861904Y-95285714D02*
X35861904Y-95666666D01*
X35061904Y-95666666D01*
X35061904Y-95285714D01*
X35442857Y-94676190D02*
X35442857Y-94942857D01*
X35861904Y-94942857D02*
X35061904Y-94942857D01*
X35061904Y-94561904D01*
X35061904Y-94371428D02*
X35061904Y-93914285D01*
X35861904Y-94142857D02*
X35061904Y-94142857D01*
X29447619Y-102523809D02*
X29561904Y-102561904D01*
X29752380Y-102561904D01*
X29828571Y-102523809D01*
X29866666Y-102485714D01*
X29904761Y-102409523D01*
X29904761Y-102333333D01*
X29866666Y-102257142D01*
X29828571Y-102219047D01*
X29752380Y-102180952D01*
X29600000Y-102142857D01*
X29523809Y-102104761D01*
X29485714Y-102066666D01*
X29447619Y-101990476D01*
X29447619Y-101914285D01*
X29485714Y-101838095D01*
X29523809Y-101800000D01*
X29600000Y-101761904D01*
X29790476Y-101761904D01*
X29904761Y-101800000D01*
X30704761Y-102485714D02*
X30666666Y-102523809D01*
X30552380Y-102561904D01*
X30476190Y-102561904D01*
X30361904Y-102523809D01*
X30285714Y-102447619D01*
X30247619Y-102371428D01*
X30209523Y-102219047D01*
X30209523Y-102104761D01*
X30247619Y-101952380D01*
X30285714Y-101876190D01*
X30361904Y-101800000D01*
X30476190Y-101761904D01*
X30552380Y-101761904D01*
X30666666Y-101800000D01*
X30704761Y-101838095D01*
X31428571Y-102561904D02*
X31047619Y-102561904D01*
X31047619Y-101761904D01*
X35623809Y-104771428D02*
X35661904Y-104657142D01*
X35661904Y-104466666D01*
X35623809Y-104390476D01*
X35585714Y-104352380D01*
X35509523Y-104314285D01*
X35433333Y-104314285D01*
X35357142Y-104352380D01*
X35319047Y-104390476D01*
X35280952Y-104466666D01*
X35242857Y-104619047D01*
X35204761Y-104695238D01*
X35166666Y-104733333D01*
X35090476Y-104771428D01*
X35014285Y-104771428D01*
X34938095Y-104733333D01*
X34900000Y-104695238D01*
X34861904Y-104619047D01*
X34861904Y-104428571D01*
X34900000Y-104314285D01*
X35661904Y-103971428D02*
X34861904Y-103971428D01*
X34861904Y-103780952D01*
X34900000Y-103666666D01*
X34976190Y-103590476D01*
X35052380Y-103552380D01*
X35204761Y-103514285D01*
X35319047Y-103514285D01*
X35471428Y-103552380D01*
X35547619Y-103590476D01*
X35623809Y-103666666D01*
X35661904Y-103780952D01*
X35661904Y-103971428D01*
X35433333Y-103209523D02*
X35433333Y-102828571D01*
X35661904Y-103285714D02*
X34861904Y-103019047D01*
X35661904Y-102752380D01*
X30861904Y-117261904D02*
X30061904Y-117261904D01*
X30061904Y-116957142D01*
X30100000Y-116880952D01*
X30138095Y-116842857D01*
X30214285Y-116804761D01*
X30328571Y-116804761D01*
X30404761Y-116842857D01*
X30442857Y-116880952D01*
X30480952Y-116957142D01*
X30480952Y-117261904D01*
X30861904Y-116042857D02*
X30861904Y-116500000D01*
X30861904Y-116271428D02*
X30061904Y-116271428D01*
X30176190Y-116347619D01*
X30252380Y-116423809D01*
X30290476Y-116500000D01*
X30785714Y-115700000D02*
X30823809Y-115661904D01*
X30861904Y-115700000D01*
X30823809Y-115738095D01*
X30785714Y-115700000D01*
X30861904Y-115700000D01*
X30061904Y-115395238D02*
X30061904Y-114900000D01*
X30366666Y-115166666D01*
X30366666Y-115052380D01*
X30404761Y-114976190D01*
X30442857Y-114938095D01*
X30519047Y-114900000D01*
X30709523Y-114900000D01*
X30785714Y-114938095D01*
X30823809Y-114976190D01*
X30861904Y-115052380D01*
X30861904Y-115280952D01*
X30823809Y-115357142D01*
X30785714Y-115395238D01*
X30861904Y-114061904D02*
X30061904Y-114061904D01*
X30061904Y-113757142D01*
X30100000Y-113680952D01*
X30138095Y-113642857D01*
X30214285Y-113604761D01*
X30328571Y-113604761D01*
X30404761Y-113642857D01*
X30442857Y-113680952D01*
X30480952Y-113757142D01*
X30480952Y-114061904D01*
X30861904Y-112842857D02*
X30861904Y-113300000D01*
X30861904Y-113071428D02*
X30061904Y-113071428D01*
X30176190Y-113147619D01*
X30252380Y-113223809D01*
X30290476Y-113300000D01*
X30785714Y-112500000D02*
X30823809Y-112461904D01*
X30861904Y-112500000D01*
X30823809Y-112538095D01*
X30785714Y-112500000D01*
X30861904Y-112500000D01*
X30328571Y-111776190D02*
X30861904Y-111776190D01*
X30023809Y-111966666D02*
X30595238Y-112157142D01*
X30595238Y-111661904D01*
D10*
%TO.C,F2*%
X58690000Y-108252064D02*
X58690000Y-107047936D01*
X60510000Y-108252064D02*
X60510000Y-107047936D01*
%TO.C,F1*%
X66990000Y-117202064D02*
X66990000Y-115997936D01*
X68810000Y-117202064D02*
X68810000Y-115997936D01*
%TO.C,U7*%
X69800000Y-124160000D02*
X71750000Y-124160000D01*
X69800000Y-124160000D02*
X67850000Y-124160000D01*
X69800000Y-119040000D02*
X71750000Y-119040000D01*
X69800000Y-119040000D02*
X66350000Y-119040000D01*
%TO.C,C3*%
X50810000Y-109186252D02*
X50810000Y-107763748D01*
X48990000Y-109186252D02*
X48990000Y-107763748D01*
%TO.C,J22*%
X59310000Y-144360000D02*
X56450000Y-144360000D01*
X59310000Y-138640000D02*
X59310000Y-144360000D01*
X58240000Y-138640000D02*
X59310000Y-138640000D01*
X58240000Y-138940000D02*
X58240000Y-138640000D01*
X56450000Y-138940000D02*
X58240000Y-138940000D01*
X53590000Y-144360000D02*
X56450000Y-144360000D01*
X53590000Y-138640000D02*
X53590000Y-144360000D01*
X54660000Y-138640000D02*
X53590000Y-138640000D01*
X54660000Y-138940000D02*
X54660000Y-138640000D01*
X56450000Y-138940000D02*
X54660000Y-138940000D01*
X54950000Y-138350000D02*
X54450000Y-138350000D01*
X54950000Y-138650000D02*
X54950000Y-138350000D01*
%TO.C,J21*%
X71650000Y-91050000D02*
X71350000Y-91050000D01*
X71350000Y-91050000D02*
X71350000Y-91550000D01*
X71940000Y-89550000D02*
X71940000Y-91340000D01*
X71940000Y-91340000D02*
X71640000Y-91340000D01*
X71640000Y-91340000D02*
X71640000Y-92410000D01*
X71640000Y-92410000D02*
X77360000Y-92410000D01*
X77360000Y-92410000D02*
X77360000Y-89550000D01*
X71940000Y-89550000D02*
X71940000Y-87760000D01*
X71940000Y-87760000D02*
X71640000Y-87760000D01*
X71640000Y-87760000D02*
X71640000Y-86690000D01*
X71640000Y-86690000D02*
X77360000Y-86690000D01*
X77360000Y-86690000D02*
X77360000Y-89550000D01*
%TO.C,J20*%
X47950000Y-138650000D02*
X47950000Y-138350000D01*
X47950000Y-138350000D02*
X47450000Y-138350000D01*
X49450000Y-138940000D02*
X47660000Y-138940000D01*
X47660000Y-138940000D02*
X47660000Y-138640000D01*
X47660000Y-138640000D02*
X46590000Y-138640000D01*
X46590000Y-138640000D02*
X46590000Y-144360000D01*
X46590000Y-144360000D02*
X49450000Y-144360000D01*
X49450000Y-138940000D02*
X51240000Y-138940000D01*
X51240000Y-138940000D02*
X51240000Y-138640000D01*
X51240000Y-138640000D02*
X52310000Y-138640000D01*
X52310000Y-138640000D02*
X52310000Y-144360000D01*
X52310000Y-144360000D02*
X49450000Y-144360000D01*
%TO.C,J19*%
X34350000Y-87950000D02*
X34650000Y-87950000D01*
X34650000Y-87950000D02*
X34650000Y-87450000D01*
X34060000Y-89450000D02*
X34060000Y-87660000D01*
X34060000Y-87660000D02*
X34360000Y-87660000D01*
X34360000Y-87660000D02*
X34360000Y-86590000D01*
X34360000Y-86590000D02*
X28640000Y-86590000D01*
X28640000Y-86590000D02*
X28640000Y-89450000D01*
X34060000Y-89450000D02*
X34060000Y-91240000D01*
X34060000Y-91240000D02*
X34360000Y-91240000D01*
X34360000Y-91240000D02*
X34360000Y-92310000D01*
X34360000Y-92310000D02*
X28640000Y-92310000D01*
X28640000Y-92310000D02*
X28640000Y-89450000D01*
%TO.C,J18*%
X28390000Y-131340000D02*
X28390000Y-131740000D01*
X29030000Y-131340000D02*
X28390000Y-131340000D01*
X35370000Y-137360000D02*
X28630000Y-137360000D01*
X35370000Y-131580000D02*
X28630000Y-131580000D01*
X28630000Y-131580000D02*
X28630000Y-137360000D01*
X35370000Y-131580000D02*
X35370000Y-137360000D01*
X34250000Y-131580000D02*
X34250000Y-137360000D01*
X29150000Y-131580000D02*
X29150000Y-137360000D01*
%TO.C,J17*%
X28390000Y-124640000D02*
X28390000Y-125040000D01*
X29030000Y-124640000D02*
X28390000Y-124640000D01*
X35370000Y-130660000D02*
X28630000Y-130660000D01*
X35370000Y-124880000D02*
X28630000Y-124880000D01*
X28630000Y-124880000D02*
X28630000Y-130660000D01*
X35370000Y-124880000D02*
X35370000Y-130660000D01*
X34250000Y-124880000D02*
X34250000Y-130660000D01*
X29150000Y-124880000D02*
X29150000Y-130660000D01*
%TO.C,J15*%
X77560000Y-137623000D02*
X77560000Y-137223000D01*
X76920000Y-137623000D02*
X77560000Y-137623000D01*
X70580000Y-131603000D02*
X77320000Y-131603000D01*
X70580000Y-137383000D02*
X77320000Y-137383000D01*
X77320000Y-137383000D02*
X77320000Y-131603000D01*
X70580000Y-137383000D02*
X70580000Y-131603000D01*
X71700000Y-137383000D02*
X71700000Y-131603000D01*
X76800000Y-137383000D02*
X76800000Y-131603000D01*
%TO.C,J14*%
X77560000Y-130900000D02*
X77560000Y-130500000D01*
X76920000Y-130900000D02*
X77560000Y-130900000D01*
X70580000Y-124880000D02*
X77320000Y-124880000D01*
X70580000Y-130660000D02*
X77320000Y-130660000D01*
X77320000Y-130660000D02*
X77320000Y-124880000D01*
X70580000Y-130660000D02*
X70580000Y-124880000D01*
X71700000Y-130660000D02*
X71700000Y-124880000D01*
X76800000Y-130660000D02*
X76800000Y-124880000D01*
%TO.C,C14*%
X61588748Y-124765000D02*
X62111252Y-124765000D01*
X61588748Y-126235000D02*
X62111252Y-126235000D01*
%TO.C,C13*%
X45865000Y-135861252D02*
X45865000Y-135338748D01*
X47335000Y-135861252D02*
X47335000Y-135338748D01*
%TO.C,C12*%
X59835000Y-126388748D02*
X59835000Y-126911252D01*
X58365000Y-126388748D02*
X58365000Y-126911252D01*
%TO.C,C11*%
X44061252Y-137285000D02*
X43538748Y-137285000D01*
X44061252Y-135815000D02*
X43538748Y-135815000D01*
%TO.C,C10*%
X58565000Y-131361252D02*
X58565000Y-130838748D01*
X60035000Y-131361252D02*
X60035000Y-130838748D01*
%TO.C,C9*%
X47335000Y-130488748D02*
X47335000Y-131011252D01*
X45865000Y-130488748D02*
X45865000Y-131011252D01*
%TO.C,U5*%
X58210000Y-102435000D02*
X56950000Y-102435000D01*
X51390000Y-102435000D02*
X52650000Y-102435000D01*
X58210000Y-106195000D02*
X58210000Y-102435000D01*
X51390000Y-108445000D02*
X51390000Y-102435000D01*
%TO.C,R9*%
X29090000Y-108627064D02*
X29090000Y-107172936D01*
X30910000Y-108627064D02*
X30910000Y-107172936D01*
%TO.C,R8*%
X31490000Y-108627064D02*
X31490000Y-107172936D01*
X33310000Y-108627064D02*
X33310000Y-107172936D01*
%TO.C,J1*%
X34350000Y-94650000D02*
X34650000Y-94650000D01*
X34650000Y-94650000D02*
X34650000Y-94150000D01*
X34060000Y-97400000D02*
X34060000Y-94360000D01*
X34060000Y-94360000D02*
X34360000Y-94360000D01*
X34360000Y-94360000D02*
X34360000Y-93290000D01*
X34360000Y-93290000D02*
X28640000Y-93290000D01*
X28640000Y-93290000D02*
X28640000Y-97400000D01*
X34060000Y-97400000D02*
X34060000Y-100440000D01*
X34060000Y-100440000D02*
X34360000Y-100440000D01*
X34360000Y-100440000D02*
X34360000Y-101510000D01*
X34360000Y-101510000D02*
X28640000Y-101510000D01*
X28640000Y-101510000D02*
X28640000Y-97400000D01*
%TO.C,J4*%
X45200000Y-86350000D02*
X45200000Y-86650000D01*
X45200000Y-86650000D02*
X45700000Y-86650000D01*
X42450000Y-86060000D02*
X45490000Y-86060000D01*
X45490000Y-86060000D02*
X45490000Y-86360000D01*
X45490000Y-86360000D02*
X46560000Y-86360000D01*
X46560000Y-86360000D02*
X46560000Y-80640000D01*
X46560000Y-80640000D02*
X42450000Y-80640000D01*
X42450000Y-86060000D02*
X39410000Y-86060000D01*
X39410000Y-86060000D02*
X39410000Y-86360000D01*
X39410000Y-86360000D02*
X38340000Y-86360000D01*
X38340000Y-86360000D02*
X38340000Y-80640000D01*
X38340000Y-80640000D02*
X42450000Y-80640000D01*
%TO.C,J2*%
X56350000Y-86350000D02*
X56350000Y-86650000D01*
X56350000Y-86650000D02*
X56850000Y-86650000D01*
X52975000Y-86060000D02*
X56640000Y-86060000D01*
X56640000Y-86060000D02*
X56640000Y-86360000D01*
X56640000Y-86360000D02*
X57710000Y-86360000D01*
X57710000Y-86360000D02*
X57710000Y-80640000D01*
X57710000Y-80640000D02*
X52975000Y-80640000D01*
X52975000Y-86060000D02*
X49310000Y-86060000D01*
X49310000Y-86060000D02*
X49310000Y-86360000D01*
X49310000Y-86360000D02*
X48240000Y-86360000D01*
X48240000Y-86360000D02*
X48240000Y-80640000D01*
X48240000Y-80640000D02*
X52975000Y-80640000D01*
%TO.C,J5*%
X71140000Y-108160000D02*
X71140000Y-108440000D01*
X71140000Y-108440000D02*
X69540000Y-108440000D01*
X69540000Y-108440000D02*
X69540000Y-109360000D01*
X69540000Y-109360000D02*
X77360000Y-109360000D01*
X77360000Y-109360000D02*
X77360000Y-103240000D01*
X77360000Y-103240000D02*
X69540000Y-103240000D01*
X69540000Y-103240000D02*
X69540000Y-104160000D01*
X69540000Y-104160000D02*
X71140000Y-104160000D01*
X71140000Y-104160000D02*
X71140000Y-104440000D01*
X77360000Y-106800000D02*
X73000000Y-106800000D01*
X73000000Y-106800000D02*
X73000000Y-105800000D01*
X73000000Y-105800000D02*
X77360000Y-105800000D01*
X71140000Y-109360000D02*
X71140000Y-108440000D01*
X71140000Y-103240000D02*
X71140000Y-104160000D01*
X73500000Y-108600000D02*
X75100000Y-108600000D01*
X75100000Y-108600000D02*
X75100000Y-107600000D01*
X75100000Y-107600000D02*
X73500000Y-107600000D01*
X73500000Y-107600000D02*
X73500000Y-108600000D01*
X73500000Y-104000000D02*
X75100000Y-104000000D01*
X75100000Y-104000000D02*
X75100000Y-105000000D01*
X75100000Y-105000000D02*
X73500000Y-105000000D01*
X73500000Y-105000000D02*
X73500000Y-104000000D01*
X75100000Y-107600000D02*
X77360000Y-107600000D01*
X75100000Y-108100000D02*
X77360000Y-108100000D01*
X71140000Y-108160000D02*
X69925000Y-108160000D01*
%TO.C,J3*%
X71140000Y-115460000D02*
X71140000Y-115740000D01*
X71140000Y-115740000D02*
X69540000Y-115740000D01*
X69540000Y-115740000D02*
X69540000Y-116660000D01*
X69540000Y-116660000D02*
X77360000Y-116660000D01*
X77360000Y-116660000D02*
X77360000Y-110540000D01*
X77360000Y-110540000D02*
X69540000Y-110540000D01*
X69540000Y-110540000D02*
X69540000Y-111460000D01*
X69540000Y-111460000D02*
X71140000Y-111460000D01*
X71140000Y-111460000D02*
X71140000Y-111740000D01*
X77360000Y-114100000D02*
X73000000Y-114100000D01*
X73000000Y-114100000D02*
X73000000Y-113100000D01*
X73000000Y-113100000D02*
X77360000Y-113100000D01*
X71140000Y-116660000D02*
X71140000Y-115740000D01*
X71140000Y-110540000D02*
X71140000Y-111460000D01*
X73500000Y-115900000D02*
X75100000Y-115900000D01*
X75100000Y-115900000D02*
X75100000Y-114900000D01*
X75100000Y-114900000D02*
X73500000Y-114900000D01*
X73500000Y-114900000D02*
X73500000Y-115900000D01*
X73500000Y-111300000D02*
X75100000Y-111300000D01*
X75100000Y-111300000D02*
X75100000Y-112300000D01*
X75100000Y-112300000D02*
X73500000Y-112300000D01*
X73500000Y-112300000D02*
X73500000Y-111300000D01*
X75100000Y-114900000D02*
X77360000Y-114900000D01*
X75100000Y-115400000D02*
X77360000Y-115400000D01*
X71140000Y-115460000D02*
X69925000Y-115460000D01*
%TO.C,J9*%
X71650000Y-100450000D02*
X71350000Y-100450000D01*
X71350000Y-100450000D02*
X71350000Y-100950000D01*
X71940000Y-97700000D02*
X71940000Y-100740000D01*
X71940000Y-100740000D02*
X71640000Y-100740000D01*
X71640000Y-100740000D02*
X71640000Y-101810000D01*
X71640000Y-101810000D02*
X77360000Y-101810000D01*
X77360000Y-101810000D02*
X77360000Y-97700000D01*
X71940000Y-97700000D02*
X71940000Y-94660000D01*
X71940000Y-94660000D02*
X71640000Y-94660000D01*
X71640000Y-94660000D02*
X71640000Y-93590000D01*
X71640000Y-93590000D02*
X77360000Y-93590000D01*
X77360000Y-93590000D02*
X77360000Y-97700000D01*
%TO.C,J7*%
X66250000Y-86350000D02*
X66250000Y-86650000D01*
X66250000Y-86650000D02*
X66750000Y-86650000D01*
X63500000Y-86060000D02*
X66540000Y-86060000D01*
X66540000Y-86060000D02*
X66540000Y-86360000D01*
X66540000Y-86360000D02*
X67610000Y-86360000D01*
X67610000Y-86360000D02*
X67610000Y-80640000D01*
X67610000Y-80640000D02*
X63500000Y-80640000D01*
X63500000Y-86060000D02*
X60460000Y-86060000D01*
X60460000Y-86060000D02*
X60460000Y-86360000D01*
X60460000Y-86360000D02*
X59390000Y-86360000D01*
X59390000Y-86360000D02*
X59390000Y-80640000D01*
X59390000Y-80640000D02*
X63500000Y-80640000D01*
%TO.C,J6*%
X34270000Y-105130000D02*
X34270000Y-102470000D01*
X31670000Y-105130000D02*
X34270000Y-105130000D01*
X31670000Y-102470000D02*
X34270000Y-102470000D01*
X31670000Y-105130000D02*
X31670000Y-102470000D01*
X30400000Y-105130000D02*
X29070000Y-105130000D01*
X29070000Y-105130000D02*
X29070000Y-103800000D01*
%TO.C,R5*%
X53972936Y-124465000D02*
X54427064Y-124465000D01*
X53972936Y-125935000D02*
X54427064Y-125935000D01*
%TO.C,J12*%
X55470000Y-123730000D02*
X55470000Y-121070000D01*
X52870000Y-123730000D02*
X55470000Y-123730000D01*
X52870000Y-121070000D02*
X55470000Y-121070000D01*
X52870000Y-123730000D02*
X52870000Y-121070000D01*
X51600000Y-123730000D02*
X50270000Y-123730000D01*
X50270000Y-123730000D02*
X50270000Y-122400000D01*
%TO.C,J11*%
X47930000Y-113270000D02*
X45270000Y-113270000D01*
X47930000Y-118410000D02*
X47930000Y-113270000D01*
X45270000Y-118410000D02*
X45270000Y-113270000D01*
X47930000Y-118410000D02*
X45270000Y-118410000D01*
X47930000Y-119680000D02*
X47930000Y-121010000D01*
X47930000Y-121010000D02*
X46600000Y-121010000D01*
%TO.C,J8*%
X31270000Y-116670000D02*
X33930000Y-116670000D01*
X31270000Y-114070000D02*
X31270000Y-116670000D01*
X33930000Y-114070000D02*
X33930000Y-116670000D01*
X31270000Y-114070000D02*
X33930000Y-114070000D01*
X31270000Y-112800000D02*
X31270000Y-111470000D01*
X31270000Y-111470000D02*
X32600000Y-111470000D01*
%TO.C,J10*%
X43130000Y-103930000D02*
X40470000Y-103930000D01*
X43130000Y-106530000D02*
X43130000Y-103930000D01*
X40470000Y-106530000D02*
X40470000Y-103930000D01*
X43130000Y-106530000D02*
X40470000Y-106530000D01*
X43130000Y-107800000D02*
X43130000Y-109130000D01*
X43130000Y-109130000D02*
X41800000Y-109130000D01*
%TO.C,D5*%
X50212500Y-104465000D02*
X47927500Y-104465000D01*
X47927500Y-104465000D02*
X47927500Y-105935000D01*
X47927500Y-105935000D02*
X50212500Y-105935000D01*
%TO.C,SW2*%
X73970000Y-123270000D02*
X76630000Y-123270000D01*
X73970000Y-120670000D02*
X73970000Y-123270000D01*
X76630000Y-120670000D02*
X76630000Y-123270000D01*
X73970000Y-120670000D02*
X76630000Y-120670000D01*
X73970000Y-119400000D02*
X73970000Y-118070000D01*
X73970000Y-118070000D02*
X75300000Y-118070000D01*
%TO.C,SW1*%
X50395000Y-120430000D02*
X50395000Y-120400000D01*
X50395000Y-113970000D02*
X50395000Y-114000000D01*
X56855000Y-113970000D02*
X56855000Y-114000000D01*
X56855000Y-120400000D02*
X56855000Y-120430000D01*
X50395000Y-118500000D02*
X50395000Y-115900000D01*
X56855000Y-120430000D02*
X50395000Y-120430000D01*
X56855000Y-118500000D02*
X56855000Y-115900000D01*
X56855000Y-113970000D02*
X50395000Y-113970000D01*
%TO.C,U2*%
X61861000Y-115556000D02*
X63621000Y-115556000D01*
X63621000Y-112486000D02*
X61191000Y-112486000D01*
%TO.C,TP2*%
X66895000Y-102315000D02*
X65505000Y-102315000D01*
X66895000Y-102315000D02*
X66895000Y-102440000D01*
X65505000Y-102315000D02*
X65505000Y-102440000D01*
X66895000Y-102315000D02*
X66808276Y-102315000D01*
X65591724Y-102315000D02*
X65505000Y-102315000D01*
X66895000Y-103000000D02*
X66895000Y-103685000D01*
X66895000Y-103685000D02*
X66200000Y-103685000D01*
%TO.C,R15*%
X61465000Y-117827064D02*
X61465000Y-117372936D01*
X62935000Y-117827064D02*
X62935000Y-117372936D01*
%TO.C,R14*%
X60460436Y-119665000D02*
X60914564Y-119665000D01*
X60460436Y-121135000D02*
X60914564Y-121135000D01*
%TO.C,R13*%
X60735000Y-117372936D02*
X60735000Y-117827064D01*
X59265000Y-117372936D02*
X59265000Y-117827064D01*
%TO.C,R12*%
X60135000Y-111572936D02*
X60135000Y-112027064D01*
X58665000Y-111572936D02*
X58665000Y-112027064D01*
%TO.C,R3*%
X65227064Y-117535000D02*
X64772936Y-117535000D01*
X65227064Y-116065000D02*
X64772936Y-116065000D01*
%TO.C,L1*%
X61250000Y-104300000D02*
X61250000Y-105450000D01*
X61250000Y-109700000D02*
X61250000Y-108550000D01*
X66850000Y-104300000D02*
X66850000Y-105450000D01*
X66850000Y-109700000D02*
X66850000Y-108550000D01*
X66850000Y-104300000D02*
X61250000Y-104300000D01*
X66850000Y-109700000D02*
X61250000Y-109700000D01*
%TO.C,D4*%
X64100000Y-110000000D02*
X64100000Y-112000000D01*
X64100000Y-112000000D02*
X68000000Y-112000000D01*
X64100000Y-110000000D02*
X68000000Y-110000000D01*
%TO.C,C4*%
X61865748Y-110406000D02*
X62388252Y-110406000D01*
X61865748Y-111876000D02*
X62388252Y-111876000D01*
%TO.C,C1*%
X66569748Y-112565000D02*
X67092252Y-112565000D01*
X66569748Y-114035000D02*
X67092252Y-114035000D01*
%TO.C,TP1*%
X62485000Y-103695000D02*
X62485000Y-102305000D01*
X62485000Y-103695000D02*
X62360000Y-103695000D01*
X62485000Y-102305000D02*
X62360000Y-102305000D01*
X62485000Y-103695000D02*
X62485000Y-103608276D01*
X62485000Y-102391724D02*
X62485000Y-102305000D01*
X61800000Y-103695000D02*
X61115000Y-103695000D01*
X61115000Y-103695000D02*
X61115000Y-103000000D01*
%TO.C,R10*%
X45739564Y-107735000D02*
X45285436Y-107735000D01*
X45739564Y-106265000D02*
X45285436Y-106265000D01*
%TO.C,R7*%
X63265000Y-102627064D02*
X63265000Y-102172936D01*
X64735000Y-102627064D02*
X64735000Y-102172936D01*
%TO.C,R6*%
X58865000Y-103514564D02*
X58865000Y-103060436D01*
X60335000Y-103514564D02*
X60335000Y-103060436D01*
%TO.C,R4*%
X42477500Y-102037258D02*
X42477500Y-101562742D01*
X43522500Y-102037258D02*
X43522500Y-101562742D01*
%TO.C,R2*%
X53314564Y-110535000D02*
X52860436Y-110535000D01*
X53314564Y-109065000D02*
X52860436Y-109065000D01*
%TO.C,R1*%
X50212258Y-113522500D02*
X49737742Y-113522500D01*
X50212258Y-112477500D02*
X49737742Y-112477500D01*
%TO.C,D2*%
X59387500Y-101535000D02*
X61672500Y-101535000D01*
X61672500Y-101535000D02*
X61672500Y-100065000D01*
X61672500Y-100065000D02*
X59387500Y-100065000D01*
%TO.C,C8*%
X43690000Y-111440580D02*
X43690000Y-111159420D01*
X44710000Y-111440580D02*
X44710000Y-111159420D01*
%TO.C,C7*%
X45684420Y-104690000D02*
X45965580Y-104690000D01*
X45684420Y-105710000D02*
X45965580Y-105710000D01*
%TO.C,C6*%
X45190000Y-111440580D02*
X45190000Y-111159420D01*
X46210000Y-111440580D02*
X46210000Y-111159420D01*
%TO.C,C5*%
X53034420Y-112490000D02*
X53315580Y-112490000D01*
X53034420Y-113510000D02*
X53315580Y-113510000D01*
%TO.C,C2*%
X56861252Y-110535000D02*
X56338748Y-110535000D01*
X56861252Y-109065000D02*
X56338748Y-109065000D01*
D11*
%TO.C,U6*%
X37873000Y-126726000D02*
X37873000Y-126951000D01*
X43623000Y-126726000D02*
X43623000Y-127026000D01*
X43623000Y-135376000D02*
X43623000Y-135076000D01*
X37873000Y-135376000D02*
X37873000Y-135076000D01*
X37873000Y-126726000D02*
X43623000Y-126726000D01*
X37873000Y-135376000D02*
X43623000Y-135376000D01*
X37873000Y-126951000D02*
X36273000Y-126951000D01*
%TO.C,U3*%
X67944600Y-135361000D02*
X67944600Y-135136000D01*
X62194600Y-135361000D02*
X62194600Y-135061000D01*
X62194600Y-126711000D02*
X62194600Y-127011000D01*
X67944600Y-126711000D02*
X67944600Y-127011000D01*
X67944600Y-135361000D02*
X62194600Y-135361000D01*
X67944600Y-126711000D02*
X62194600Y-126711000D01*
X67944600Y-135136000D02*
X69544600Y-135136000D01*
D10*
%TO.C,D3*%
X65800000Y-101935000D02*
X68085000Y-101935000D01*
X68085000Y-101935000D02*
X68085000Y-100465000D01*
X68085000Y-100465000D02*
X65800000Y-100465000D01*
%TO.C,D6*%
X57535000Y-125500000D02*
X57535000Y-123215000D01*
X57535000Y-123215000D02*
X56065000Y-123215000D01*
X56065000Y-123215000D02*
X56065000Y-125500000D01*
%TO.C,U1*%
X44860000Y-103860000D02*
X44860000Y-104210000D01*
X44860000Y-104210000D02*
X47460000Y-104210000D01*
X44860000Y-101540000D02*
X44860000Y-101200000D01*
X44860000Y-101200000D02*
X49950000Y-101200000D01*
X49559917Y-101198264D02*
G75*
G03*
X45360000Y-101200000I-2099917J-101736D01*
G01*
%TO.C,U4*%
X34648000Y-116713000D02*
X34648000Y-119023000D01*
X34648000Y-119023000D02*
X34923000Y-119023000D01*
X34648000Y-116713000D02*
X34648000Y-114403000D01*
X34648000Y-114403000D02*
X34923000Y-114403000D01*
X44568000Y-116713000D02*
X44568000Y-119023000D01*
X44568000Y-119023000D02*
X44293000Y-119023000D01*
X44568000Y-116713000D02*
X44568000Y-114403000D01*
X44568000Y-114403000D02*
X44293000Y-114403000D01*
X44293000Y-114403000D02*
X44293000Y-113113000D01*
%TO.C,F2*%
D11*
X59333333Y-107642857D02*
X59066666Y-107642857D01*
X59066666Y-108061904D02*
X59066666Y-107261904D01*
X59447619Y-107261904D01*
X59714285Y-107338095D02*
X59752380Y-107300000D01*
X59828571Y-107261904D01*
X60019047Y-107261904D01*
X60095238Y-107300000D01*
X60133333Y-107338095D01*
X60171428Y-107414285D01*
X60171428Y-107490476D01*
X60133333Y-107604761D01*
X59676190Y-108061904D01*
X60171428Y-108061904D01*
%TO.C,F1*%
X67633333Y-116655357D02*
X67366666Y-116655357D01*
X67366666Y-117074404D02*
X67366666Y-116274404D01*
X67747619Y-116274404D01*
X68471428Y-117074404D02*
X68014285Y-117074404D01*
X68242857Y-117074404D02*
X68242857Y-116274404D01*
X68166666Y-116388690D01*
X68090476Y-116464880D01*
X68014285Y-116502976D01*
%TO.C,U7*%
X69538095Y-117652380D02*
X69538095Y-118461904D01*
X69585714Y-118557142D01*
X69633333Y-118604761D01*
X69728571Y-118652380D01*
X69919047Y-118652380D01*
X70014285Y-118604761D01*
X70061904Y-118557142D01*
X70109523Y-118461904D01*
X70109523Y-117652380D01*
X70490476Y-117652380D02*
X71157142Y-117652380D01*
X70728571Y-118652380D01*
%TO.C,C3*%
X48685714Y-109133333D02*
X48723809Y-109171428D01*
X48761904Y-109285714D01*
X48761904Y-109361904D01*
X48723809Y-109476190D01*
X48647619Y-109552380D01*
X48571428Y-109590476D01*
X48419047Y-109628571D01*
X48304761Y-109628571D01*
X48152380Y-109590476D01*
X48076190Y-109552380D01*
X48000000Y-109476190D01*
X47961904Y-109361904D01*
X47961904Y-109285714D01*
X48000000Y-109171428D01*
X48038095Y-109133333D01*
X47961904Y-108866666D02*
X47961904Y-108371428D01*
X48266666Y-108638095D01*
X48266666Y-108523809D01*
X48304761Y-108447619D01*
X48342857Y-108409523D01*
X48419047Y-108371428D01*
X48609523Y-108371428D01*
X48685714Y-108409523D01*
X48723809Y-108447619D01*
X48761904Y-108523809D01*
X48761904Y-108752380D01*
X48723809Y-108828571D01*
X48685714Y-108866666D01*
%TO.C,C14*%
X59685714Y-124105714D02*
X59647619Y-124143809D01*
X59533333Y-124181904D01*
X59457142Y-124181904D01*
X59342857Y-124143809D01*
X59266666Y-124067619D01*
X59228571Y-123991428D01*
X59190476Y-123839047D01*
X59190476Y-123724761D01*
X59228571Y-123572380D01*
X59266666Y-123496190D01*
X59342857Y-123420000D01*
X59457142Y-123381904D01*
X59533333Y-123381904D01*
X59647619Y-123420000D01*
X59685714Y-123458095D01*
X60447619Y-124181904D02*
X59990476Y-124181904D01*
X60219047Y-124181904D02*
X60219047Y-123381904D01*
X60142857Y-123496190D01*
X60066666Y-123572380D01*
X59990476Y-123610476D01*
X61133333Y-123648571D02*
X61133333Y-124181904D01*
X60942857Y-123343809D02*
X60752380Y-123915238D01*
X61247619Y-123915238D01*
%TO.C,C13*%
X48585714Y-137114285D02*
X48623809Y-137152380D01*
X48661904Y-137266666D01*
X48661904Y-137342857D01*
X48623809Y-137457142D01*
X48547619Y-137533333D01*
X48471428Y-137571428D01*
X48319047Y-137609523D01*
X48204761Y-137609523D01*
X48052380Y-137571428D01*
X47976190Y-137533333D01*
X47900000Y-137457142D01*
X47861904Y-137342857D01*
X47861904Y-137266666D01*
X47900000Y-137152380D01*
X47938095Y-137114285D01*
X48661904Y-136352380D02*
X48661904Y-136809523D01*
X48661904Y-136580952D02*
X47861904Y-136580952D01*
X47976190Y-136657142D01*
X48052380Y-136733333D01*
X48090476Y-136809523D01*
X47861904Y-136085714D02*
X47861904Y-135590476D01*
X48166666Y-135857142D01*
X48166666Y-135742857D01*
X48204761Y-135666666D01*
X48242857Y-135628571D01*
X48319047Y-135590476D01*
X48509523Y-135590476D01*
X48585714Y-135628571D01*
X48623809Y-135666666D01*
X48661904Y-135742857D01*
X48661904Y-135971428D01*
X48623809Y-136047619D01*
X48585714Y-136085714D01*
%TO.C,C12*%
X56985714Y-128614285D02*
X57023809Y-128652380D01*
X57061904Y-128766666D01*
X57061904Y-128842857D01*
X57023809Y-128957142D01*
X56947619Y-129033333D01*
X56871428Y-129071428D01*
X56719047Y-129109523D01*
X56604761Y-129109523D01*
X56452380Y-129071428D01*
X56376190Y-129033333D01*
X56300000Y-128957142D01*
X56261904Y-128842857D01*
X56261904Y-128766666D01*
X56300000Y-128652380D01*
X56338095Y-128614285D01*
X57061904Y-127852380D02*
X57061904Y-128309523D01*
X57061904Y-128080952D02*
X56261904Y-128080952D01*
X56376190Y-128157142D01*
X56452380Y-128233333D01*
X56490476Y-128309523D01*
X56338095Y-127547619D02*
X56300000Y-127509523D01*
X56261904Y-127433333D01*
X56261904Y-127242857D01*
X56300000Y-127166666D01*
X56338095Y-127128571D01*
X56414285Y-127090476D01*
X56490476Y-127090476D01*
X56604761Y-127128571D01*
X57061904Y-127585714D01*
X57061904Y-127090476D01*
%TO.C,C11*%
X43285714Y-138385714D02*
X43247619Y-138423809D01*
X43133333Y-138461904D01*
X43057142Y-138461904D01*
X42942857Y-138423809D01*
X42866666Y-138347619D01*
X42828571Y-138271428D01*
X42790476Y-138119047D01*
X42790476Y-138004761D01*
X42828571Y-137852380D01*
X42866666Y-137776190D01*
X42942857Y-137700000D01*
X43057142Y-137661904D01*
X43133333Y-137661904D01*
X43247619Y-137700000D01*
X43285714Y-137738095D01*
X44047619Y-138461904D02*
X43590476Y-138461904D01*
X43819047Y-138461904D02*
X43819047Y-137661904D01*
X43742857Y-137776190D01*
X43666666Y-137852380D01*
X43590476Y-137890476D01*
X44809523Y-138461904D02*
X44352380Y-138461904D01*
X44580952Y-138461904D02*
X44580952Y-137661904D01*
X44504761Y-137776190D01*
X44428571Y-137852380D01*
X44352380Y-137890476D01*
%TO.C,C10*%
X57977142Y-132642857D02*
X58024761Y-132690476D01*
X58072380Y-132833333D01*
X58072380Y-132928571D01*
X58024761Y-133071428D01*
X57929523Y-133166666D01*
X57834285Y-133214285D01*
X57643809Y-133261904D01*
X57500952Y-133261904D01*
X57310476Y-133214285D01*
X57215238Y-133166666D01*
X57120000Y-133071428D01*
X57072380Y-132928571D01*
X57072380Y-132833333D01*
X57120000Y-132690476D01*
X57167619Y-132642857D01*
X58072380Y-131690476D02*
X58072380Y-132261904D01*
X58072380Y-131976190D02*
X57072380Y-131976190D01*
X57215238Y-132071428D01*
X57310476Y-132166666D01*
X57358095Y-132261904D01*
X57072380Y-131071428D02*
X57072380Y-130976190D01*
X57120000Y-130880952D01*
X57167619Y-130833333D01*
X57262857Y-130785714D01*
X57453333Y-130738095D01*
X57691428Y-130738095D01*
X57881904Y-130785714D01*
X57977142Y-130833333D01*
X58024761Y-130880952D01*
X58072380Y-130976190D01*
X58072380Y-131071428D01*
X58024761Y-131166666D01*
X57977142Y-131214285D01*
X57881904Y-131261904D01*
X57691428Y-131309523D01*
X57453333Y-131309523D01*
X57262857Y-131261904D01*
X57167619Y-131214285D01*
X57120000Y-131166666D01*
X57072380Y-131071428D01*
%TO.C,C9*%
X48585714Y-130333333D02*
X48623809Y-130371428D01*
X48661904Y-130485714D01*
X48661904Y-130561904D01*
X48623809Y-130676190D01*
X48547619Y-130752380D01*
X48471428Y-130790476D01*
X48319047Y-130828571D01*
X48204761Y-130828571D01*
X48052380Y-130790476D01*
X47976190Y-130752380D01*
X47900000Y-130676190D01*
X47861904Y-130561904D01*
X47861904Y-130485714D01*
X47900000Y-130371428D01*
X47938095Y-130333333D01*
X48661904Y-129952380D02*
X48661904Y-129800000D01*
X48623809Y-129723809D01*
X48585714Y-129685714D01*
X48471428Y-129609523D01*
X48319047Y-129571428D01*
X48014285Y-129571428D01*
X47938095Y-129609523D01*
X47900000Y-129647619D01*
X47861904Y-129723809D01*
X47861904Y-129876190D01*
X47900000Y-129952380D01*
X47938095Y-129990476D01*
X48014285Y-130028571D01*
X48204761Y-130028571D01*
X48280952Y-129990476D01*
X48319047Y-129952380D01*
X48357142Y-129876190D01*
X48357142Y-129723809D01*
X48319047Y-129647619D01*
X48280952Y-129609523D01*
X48204761Y-129571428D01*
%TO.C,U5*%
X54038095Y-98752380D02*
X54038095Y-99561904D01*
X54085714Y-99657142D01*
X54133333Y-99704761D01*
X54228571Y-99752380D01*
X54419047Y-99752380D01*
X54514285Y-99704761D01*
X54561904Y-99657142D01*
X54609523Y-99561904D01*
X54609523Y-98752380D01*
X55561904Y-98752380D02*
X55085714Y-98752380D01*
X55038095Y-99228571D01*
X55085714Y-99180952D01*
X55180952Y-99133333D01*
X55419047Y-99133333D01*
X55514285Y-99180952D01*
X55561904Y-99228571D01*
X55609523Y-99323809D01*
X55609523Y-99561904D01*
X55561904Y-99657142D01*
X55514285Y-99704761D01*
X55419047Y-99752380D01*
X55180952Y-99752380D01*
X55085714Y-99704761D01*
X55038095Y-99657142D01*
%TO.C,R9*%
X29866666Y-111161904D02*
X29600000Y-110780952D01*
X29409523Y-111161904D02*
X29409523Y-110361904D01*
X29714285Y-110361904D01*
X29790476Y-110400000D01*
X29828571Y-110438095D01*
X29866666Y-110514285D01*
X29866666Y-110628571D01*
X29828571Y-110704761D01*
X29790476Y-110742857D01*
X29714285Y-110780952D01*
X29409523Y-110780952D01*
X30247619Y-111161904D02*
X30400000Y-111161904D01*
X30476190Y-111123809D01*
X30514285Y-111085714D01*
X30590476Y-110971428D01*
X30628571Y-110819047D01*
X30628571Y-110514285D01*
X30590476Y-110438095D01*
X30552380Y-110400000D01*
X30476190Y-110361904D01*
X30323809Y-110361904D01*
X30247619Y-110400000D01*
X30209523Y-110438095D01*
X30171428Y-110514285D01*
X30171428Y-110704761D01*
X30209523Y-110780952D01*
X30247619Y-110819047D01*
X30323809Y-110857142D01*
X30476190Y-110857142D01*
X30552380Y-110819047D01*
X30590476Y-110780952D01*
X30628571Y-110704761D01*
%TO.C,R8*%
X32266666Y-111161904D02*
X32000000Y-110780952D01*
X31809523Y-111161904D02*
X31809523Y-110361904D01*
X32114285Y-110361904D01*
X32190476Y-110400000D01*
X32228571Y-110438095D01*
X32266666Y-110514285D01*
X32266666Y-110628571D01*
X32228571Y-110704761D01*
X32190476Y-110742857D01*
X32114285Y-110780952D01*
X31809523Y-110780952D01*
X32723809Y-110704761D02*
X32647619Y-110666666D01*
X32609523Y-110628571D01*
X32571428Y-110552380D01*
X32571428Y-110514285D01*
X32609523Y-110438095D01*
X32647619Y-110400000D01*
X32723809Y-110361904D01*
X32876190Y-110361904D01*
X32952380Y-110400000D01*
X32990476Y-110438095D01*
X33028571Y-110514285D01*
X33028571Y-110552380D01*
X32990476Y-110628571D01*
X32952380Y-110666666D01*
X32876190Y-110704761D01*
X32723809Y-110704761D01*
X32647619Y-110742857D01*
X32609523Y-110780952D01*
X32571428Y-110857142D01*
X32571428Y-111009523D01*
X32609523Y-111085714D01*
X32647619Y-111123809D01*
X32723809Y-111161904D01*
X32876190Y-111161904D01*
X32952380Y-111123809D01*
X32990476Y-111085714D01*
X33028571Y-111009523D01*
X33028571Y-110857142D01*
X32990476Y-110780952D01*
X32952380Y-110742857D01*
X32876190Y-110704761D01*
%TO.C,R5*%
X53833333Y-127352380D02*
X53500000Y-126876190D01*
X53261904Y-127352380D02*
X53261904Y-126352380D01*
X53642857Y-126352380D01*
X53738095Y-126400000D01*
X53785714Y-126447619D01*
X53833333Y-126542857D01*
X53833333Y-126685714D01*
X53785714Y-126780952D01*
X53738095Y-126828571D01*
X53642857Y-126876190D01*
X53261904Y-126876190D01*
X54738095Y-126352380D02*
X54261904Y-126352380D01*
X54214285Y-126828571D01*
X54261904Y-126780952D01*
X54357142Y-126733333D01*
X54595238Y-126733333D01*
X54690476Y-126780952D01*
X54738095Y-126828571D01*
X54785714Y-126923809D01*
X54785714Y-127161904D01*
X54738095Y-127257142D01*
X54690476Y-127304761D01*
X54595238Y-127352380D01*
X54357142Y-127352380D01*
X54261904Y-127304761D01*
X54214285Y-127257142D01*
%TO.C,D5*%
X47409523Y-106961904D02*
X47409523Y-106161904D01*
X47600000Y-106161904D01*
X47714285Y-106200000D01*
X47790476Y-106276190D01*
X47828571Y-106352380D01*
X47866666Y-106504761D01*
X47866666Y-106619047D01*
X47828571Y-106771428D01*
X47790476Y-106847619D01*
X47714285Y-106923809D01*
X47600000Y-106961904D01*
X47409523Y-106961904D01*
X48590476Y-106161904D02*
X48209523Y-106161904D01*
X48171428Y-106542857D01*
X48209523Y-106504761D01*
X48285714Y-106466666D01*
X48476190Y-106466666D01*
X48552380Y-106504761D01*
X48590476Y-106542857D01*
X48628571Y-106619047D01*
X48628571Y-106809523D01*
X48590476Y-106885714D01*
X48552380Y-106923809D01*
X48476190Y-106961904D01*
X48285714Y-106961904D01*
X48209523Y-106923809D01*
X48171428Y-106885714D01*
%TO.C,SW1*%
X52166666Y-117704761D02*
X52309523Y-117752380D01*
X52547619Y-117752380D01*
X52642857Y-117704761D01*
X52690476Y-117657142D01*
X52738095Y-117561904D01*
X52738095Y-117466666D01*
X52690476Y-117371428D01*
X52642857Y-117323809D01*
X52547619Y-117276190D01*
X52357142Y-117228571D01*
X52261904Y-117180952D01*
X52214285Y-117133333D01*
X52166666Y-117038095D01*
X52166666Y-116942857D01*
X52214285Y-116847619D01*
X52261904Y-116800000D01*
X52357142Y-116752380D01*
X52595238Y-116752380D01*
X52738095Y-116800000D01*
X53071428Y-116752380D02*
X53309523Y-117752380D01*
X53500000Y-117038095D01*
X53690476Y-117752380D01*
X53928571Y-116752380D01*
X54833333Y-117752380D02*
X54261904Y-117752380D01*
X54547619Y-117752380D02*
X54547619Y-116752380D01*
X54452380Y-116895238D01*
X54357142Y-116990476D01*
X54261904Y-117038095D01*
%TO.C,U2*%
X59090476Y-114661904D02*
X59090476Y-115309523D01*
X59128571Y-115385714D01*
X59166666Y-115423809D01*
X59242857Y-115461904D01*
X59395238Y-115461904D01*
X59471428Y-115423809D01*
X59509523Y-115385714D01*
X59547619Y-115309523D01*
X59547619Y-114661904D01*
X59890476Y-114738095D02*
X59928571Y-114700000D01*
X60004761Y-114661904D01*
X60195238Y-114661904D01*
X60271428Y-114700000D01*
X60309523Y-114738095D01*
X60347619Y-114814285D01*
X60347619Y-114890476D01*
X60309523Y-115004761D01*
X59852380Y-115461904D01*
X60347619Y-115461904D01*
%TO.C,R15*%
X64161904Y-119614285D02*
X63780952Y-119880952D01*
X64161904Y-120071428D02*
X63361904Y-120071428D01*
X63361904Y-119766666D01*
X63400000Y-119690476D01*
X63438095Y-119652380D01*
X63514285Y-119614285D01*
X63628571Y-119614285D01*
X63704761Y-119652380D01*
X63742857Y-119690476D01*
X63780952Y-119766666D01*
X63780952Y-120071428D01*
X64161904Y-118852380D02*
X64161904Y-119309523D01*
X64161904Y-119080952D02*
X63361904Y-119080952D01*
X63476190Y-119157142D01*
X63552380Y-119233333D01*
X63590476Y-119309523D01*
X63361904Y-118128571D02*
X63361904Y-118509523D01*
X63742857Y-118547619D01*
X63704761Y-118509523D01*
X63666666Y-118433333D01*
X63666666Y-118242857D01*
X63704761Y-118166666D01*
X63742857Y-118128571D01*
X63819047Y-118090476D01*
X64009523Y-118090476D01*
X64085714Y-118128571D01*
X64123809Y-118166666D01*
X64161904Y-118242857D01*
X64161904Y-118433333D01*
X64123809Y-118509523D01*
X64085714Y-118547619D01*
%TO.C,R14*%
X60085714Y-122461904D02*
X59819047Y-122080952D01*
X59628571Y-122461904D02*
X59628571Y-121661904D01*
X59933333Y-121661904D01*
X60009523Y-121700000D01*
X60047619Y-121738095D01*
X60085714Y-121814285D01*
X60085714Y-121928571D01*
X60047619Y-122004761D01*
X60009523Y-122042857D01*
X59933333Y-122080952D01*
X59628571Y-122080952D01*
X60847619Y-122461904D02*
X60390476Y-122461904D01*
X60619047Y-122461904D02*
X60619047Y-121661904D01*
X60542857Y-121776190D01*
X60466666Y-121852380D01*
X60390476Y-121890476D01*
X61533333Y-121928571D02*
X61533333Y-122461904D01*
X61342857Y-121623809D02*
X61152380Y-122195238D01*
X61647619Y-122195238D01*
%TO.C,R13*%
X58861904Y-117514285D02*
X58480952Y-117780952D01*
X58861904Y-117971428D02*
X58061904Y-117971428D01*
X58061904Y-117666666D01*
X58100000Y-117590476D01*
X58138095Y-117552380D01*
X58214285Y-117514285D01*
X58328571Y-117514285D01*
X58404761Y-117552380D01*
X58442857Y-117590476D01*
X58480952Y-117666666D01*
X58480952Y-117971428D01*
X58861904Y-116752380D02*
X58861904Y-117209523D01*
X58861904Y-116980952D02*
X58061904Y-116980952D01*
X58176190Y-117057142D01*
X58252380Y-117133333D01*
X58290476Y-117209523D01*
X58061904Y-116485714D02*
X58061904Y-115990476D01*
X58366666Y-116257142D01*
X58366666Y-116142857D01*
X58404761Y-116066666D01*
X58442857Y-116028571D01*
X58519047Y-115990476D01*
X58709523Y-115990476D01*
X58785714Y-116028571D01*
X58823809Y-116066666D01*
X58861904Y-116142857D01*
X58861904Y-116371428D01*
X58823809Y-116447619D01*
X58785714Y-116485714D01*
%TO.C,R12*%
X58261904Y-113514285D02*
X57880952Y-113780952D01*
X58261904Y-113971428D02*
X57461904Y-113971428D01*
X57461904Y-113666666D01*
X57500000Y-113590476D01*
X57538095Y-113552380D01*
X57614285Y-113514285D01*
X57728571Y-113514285D01*
X57804761Y-113552380D01*
X57842857Y-113590476D01*
X57880952Y-113666666D01*
X57880952Y-113971428D01*
X58261904Y-112752380D02*
X58261904Y-113209523D01*
X58261904Y-112980952D02*
X57461904Y-112980952D01*
X57576190Y-113057142D01*
X57652380Y-113133333D01*
X57690476Y-113209523D01*
X57538095Y-112447619D02*
X57500000Y-112409523D01*
X57461904Y-112333333D01*
X57461904Y-112142857D01*
X57500000Y-112066666D01*
X57538095Y-112028571D01*
X57614285Y-111990476D01*
X57690476Y-111990476D01*
X57804761Y-112028571D01*
X58261904Y-112485714D01*
X58261904Y-111990476D01*
%TO.C,R3*%
X65116666Y-118761904D02*
X64850000Y-118380952D01*
X64659523Y-118761904D02*
X64659523Y-117961904D01*
X64964285Y-117961904D01*
X65040476Y-118000000D01*
X65078571Y-118038095D01*
X65116666Y-118114285D01*
X65116666Y-118228571D01*
X65078571Y-118304761D01*
X65040476Y-118342857D01*
X64964285Y-118380952D01*
X64659523Y-118380952D01*
X65383333Y-117961904D02*
X65878571Y-117961904D01*
X65611904Y-118266666D01*
X65726190Y-118266666D01*
X65802380Y-118304761D01*
X65840476Y-118342857D01*
X65878571Y-118419047D01*
X65878571Y-118609523D01*
X65840476Y-118685714D01*
X65802380Y-118723809D01*
X65726190Y-118761904D01*
X65497619Y-118761904D01*
X65421428Y-118723809D01*
X65383333Y-118685714D01*
%TO.C,L1*%
X68161904Y-106833333D02*
X68161904Y-107214285D01*
X67361904Y-107214285D01*
X68161904Y-106147619D02*
X68161904Y-106604761D01*
X68161904Y-106376190D02*
X67361904Y-106376190D01*
X67476190Y-106452380D01*
X67552380Y-106528571D01*
X67590476Y-106604761D01*
%TO.C,D4*%
X67209523Y-109761904D02*
X67209523Y-108961904D01*
X67400000Y-108961904D01*
X67514285Y-109000000D01*
X67590476Y-109076190D01*
X67628571Y-109152380D01*
X67666666Y-109304761D01*
X67666666Y-109419047D01*
X67628571Y-109571428D01*
X67590476Y-109647619D01*
X67514285Y-109723809D01*
X67400000Y-109761904D01*
X67209523Y-109761904D01*
X68352380Y-109228571D02*
X68352380Y-109761904D01*
X68161904Y-108923809D02*
X67971428Y-109495238D01*
X68466666Y-109495238D01*
%TO.C,R10*%
X44957142Y-108761904D02*
X44623809Y-108380952D01*
X44385714Y-108761904D02*
X44385714Y-107961904D01*
X44766666Y-107961904D01*
X44861904Y-108000000D01*
X44909523Y-108038095D01*
X44957142Y-108114285D01*
X44957142Y-108228571D01*
X44909523Y-108304761D01*
X44861904Y-108342857D01*
X44766666Y-108380952D01*
X44385714Y-108380952D01*
X45909523Y-108761904D02*
X45338095Y-108761904D01*
X45623809Y-108761904D02*
X45623809Y-107961904D01*
X45528571Y-108076190D01*
X45433333Y-108152380D01*
X45338095Y-108190476D01*
X46528571Y-107961904D02*
X46623809Y-107961904D01*
X46719047Y-108000000D01*
X46766666Y-108038095D01*
X46814285Y-108114285D01*
X46861904Y-108266666D01*
X46861904Y-108457142D01*
X46814285Y-108609523D01*
X46766666Y-108685714D01*
X46719047Y-108723809D01*
X46623809Y-108761904D01*
X46528571Y-108761904D01*
X46433333Y-108723809D01*
X46385714Y-108685714D01*
X46338095Y-108609523D01*
X46290476Y-108457142D01*
X46290476Y-108266666D01*
X46338095Y-108114285D01*
X46385714Y-108038095D01*
X46433333Y-108000000D01*
X46528571Y-107961904D01*
%TO.C,R7*%
X63866666Y-100461904D02*
X63600000Y-100080952D01*
X63409523Y-100461904D02*
X63409523Y-99661904D01*
X63714285Y-99661904D01*
X63790476Y-99700000D01*
X63828571Y-99738095D01*
X63866666Y-99814285D01*
X63866666Y-99928571D01*
X63828571Y-100004761D01*
X63790476Y-100042857D01*
X63714285Y-100080952D01*
X63409523Y-100080952D01*
X64133333Y-99661904D02*
X64666666Y-99661904D01*
X64323809Y-100461904D01*
%TO.C,R6*%
X57861904Y-103866666D02*
X57480952Y-104200000D01*
X57861904Y-104438095D02*
X57061904Y-104438095D01*
X57061904Y-104057142D01*
X57100000Y-103961904D01*
X57138095Y-103914285D01*
X57214285Y-103866666D01*
X57328571Y-103866666D01*
X57404761Y-103914285D01*
X57442857Y-103961904D01*
X57480952Y-104057142D01*
X57480952Y-104438095D01*
X57061904Y-103009523D02*
X57061904Y-103200000D01*
X57100000Y-103295238D01*
X57138095Y-103342857D01*
X57252380Y-103438095D01*
X57404761Y-103485714D01*
X57709523Y-103485714D01*
X57785714Y-103438095D01*
X57823809Y-103390476D01*
X57861904Y-103295238D01*
X57861904Y-103104761D01*
X57823809Y-103009523D01*
X57785714Y-102961904D01*
X57709523Y-102914285D01*
X57519047Y-102914285D01*
X57442857Y-102961904D01*
X57404761Y-103009523D01*
X57366666Y-103104761D01*
X57366666Y-103295238D01*
X57404761Y-103390476D01*
X57442857Y-103438095D01*
X57519047Y-103485714D01*
%TO.C,R4*%
X42022380Y-101966666D02*
X41546190Y-102300000D01*
X42022380Y-102538095D02*
X41022380Y-102538095D01*
X41022380Y-102157142D01*
X41070000Y-102061904D01*
X41117619Y-102014285D01*
X41212857Y-101966666D01*
X41355714Y-101966666D01*
X41450952Y-102014285D01*
X41498571Y-102061904D01*
X41546190Y-102157142D01*
X41546190Y-102538095D01*
X41355714Y-101109523D02*
X42022380Y-101109523D01*
X40974761Y-101347619D02*
X41689047Y-101585714D01*
X41689047Y-100966666D01*
%TO.C,R2*%
X52933333Y-111952380D02*
X52600000Y-111476190D01*
X52361904Y-111952380D02*
X52361904Y-110952380D01*
X52742857Y-110952380D01*
X52838095Y-111000000D01*
X52885714Y-111047619D01*
X52933333Y-111142857D01*
X52933333Y-111285714D01*
X52885714Y-111380952D01*
X52838095Y-111428571D01*
X52742857Y-111476190D01*
X52361904Y-111476190D01*
X53314285Y-111047619D02*
X53361904Y-111000000D01*
X53457142Y-110952380D01*
X53695238Y-110952380D01*
X53790476Y-111000000D01*
X53838095Y-111047619D01*
X53885714Y-111142857D01*
X53885714Y-111238095D01*
X53838095Y-111380952D01*
X53266666Y-111952380D01*
X53885714Y-111952380D01*
%TO.C,R1*%
X49933333Y-112052380D02*
X49600000Y-111576190D01*
X49361904Y-112052380D02*
X49361904Y-111052380D01*
X49742857Y-111052380D01*
X49838095Y-111100000D01*
X49885714Y-111147619D01*
X49933333Y-111242857D01*
X49933333Y-111385714D01*
X49885714Y-111480952D01*
X49838095Y-111528571D01*
X49742857Y-111576190D01*
X49361904Y-111576190D01*
X50885714Y-112052380D02*
X50314285Y-112052380D01*
X50600000Y-112052380D02*
X50600000Y-111052380D01*
X50504761Y-111195238D01*
X50409523Y-111290476D01*
X50314285Y-111338095D01*
%TO.C,C8*%
X43285714Y-110633333D02*
X43323809Y-110671428D01*
X43361904Y-110785714D01*
X43361904Y-110861904D01*
X43323809Y-110976190D01*
X43247619Y-111052380D01*
X43171428Y-111090476D01*
X43019047Y-111128571D01*
X42904761Y-111128571D01*
X42752380Y-111090476D01*
X42676190Y-111052380D01*
X42600000Y-110976190D01*
X42561904Y-110861904D01*
X42561904Y-110785714D01*
X42600000Y-110671428D01*
X42638095Y-110633333D01*
X42904761Y-110176190D02*
X42866666Y-110252380D01*
X42828571Y-110290476D01*
X42752380Y-110328571D01*
X42714285Y-110328571D01*
X42638095Y-110290476D01*
X42600000Y-110252380D01*
X42561904Y-110176190D01*
X42561904Y-110023809D01*
X42600000Y-109947619D01*
X42638095Y-109909523D01*
X42714285Y-109871428D01*
X42752380Y-109871428D01*
X42828571Y-109909523D01*
X42866666Y-109947619D01*
X42904761Y-110023809D01*
X42904761Y-110176190D01*
X42942857Y-110252380D01*
X42980952Y-110290476D01*
X43057142Y-110328571D01*
X43209523Y-110328571D01*
X43285714Y-110290476D01*
X43323809Y-110252380D01*
X43361904Y-110176190D01*
X43361904Y-110023809D01*
X43323809Y-109947619D01*
X43285714Y-109909523D01*
X43209523Y-109871428D01*
X43057142Y-109871428D01*
X42980952Y-109909523D01*
X42942857Y-109947619D01*
X42904761Y-110023809D01*
%TO.C,C7*%
X44085714Y-105233333D02*
X44123809Y-105271428D01*
X44161904Y-105385714D01*
X44161904Y-105461904D01*
X44123809Y-105576190D01*
X44047619Y-105652380D01*
X43971428Y-105690476D01*
X43819047Y-105728571D01*
X43704761Y-105728571D01*
X43552380Y-105690476D01*
X43476190Y-105652380D01*
X43400000Y-105576190D01*
X43361904Y-105461904D01*
X43361904Y-105385714D01*
X43400000Y-105271428D01*
X43438095Y-105233333D01*
X43361904Y-104966666D02*
X43361904Y-104433333D01*
X44161904Y-104776190D01*
%TO.C,C6*%
X47285714Y-110633333D02*
X47323809Y-110671428D01*
X47361904Y-110785714D01*
X47361904Y-110861904D01*
X47323809Y-110976190D01*
X47247619Y-111052380D01*
X47171428Y-111090476D01*
X47019047Y-111128571D01*
X46904761Y-111128571D01*
X46752380Y-111090476D01*
X46676190Y-111052380D01*
X46600000Y-110976190D01*
X46561904Y-110861904D01*
X46561904Y-110785714D01*
X46600000Y-110671428D01*
X46638095Y-110633333D01*
X46561904Y-109947619D02*
X46561904Y-110100000D01*
X46600000Y-110176190D01*
X46638095Y-110214285D01*
X46752380Y-110290476D01*
X46904761Y-110328571D01*
X47209523Y-110328571D01*
X47285714Y-110290476D01*
X47323809Y-110252380D01*
X47361904Y-110176190D01*
X47361904Y-110023809D01*
X47323809Y-109947619D01*
X47285714Y-109909523D01*
X47209523Y-109871428D01*
X47019047Y-109871428D01*
X46942857Y-109909523D01*
X46904761Y-109947619D01*
X46866666Y-110023809D01*
X46866666Y-110176190D01*
X46904761Y-110252380D01*
X46942857Y-110290476D01*
X47019047Y-110328571D01*
%TO.C,C5*%
X52466666Y-114885714D02*
X52428571Y-114923809D01*
X52314285Y-114961904D01*
X52238095Y-114961904D01*
X52123809Y-114923809D01*
X52047619Y-114847619D01*
X52009523Y-114771428D01*
X51971428Y-114619047D01*
X51971428Y-114504761D01*
X52009523Y-114352380D01*
X52047619Y-114276190D01*
X52123809Y-114200000D01*
X52238095Y-114161904D01*
X52314285Y-114161904D01*
X52428571Y-114200000D01*
X52466666Y-114238095D01*
X53190476Y-114161904D02*
X52809523Y-114161904D01*
X52771428Y-114542857D01*
X52809523Y-114504761D01*
X52885714Y-114466666D01*
X53076190Y-114466666D01*
X53152380Y-114504761D01*
X53190476Y-114542857D01*
X53228571Y-114619047D01*
X53228571Y-114809523D01*
X53190476Y-114885714D01*
X53152380Y-114923809D01*
X53076190Y-114961904D01*
X52885714Y-114961904D01*
X52809523Y-114923809D01*
X52771428Y-114885714D01*
%TO.C,C2*%
X57466666Y-111485714D02*
X57428571Y-111523809D01*
X57314285Y-111561904D01*
X57238095Y-111561904D01*
X57123809Y-111523809D01*
X57047619Y-111447619D01*
X57009523Y-111371428D01*
X56971428Y-111219047D01*
X56971428Y-111104761D01*
X57009523Y-110952380D01*
X57047619Y-110876190D01*
X57123809Y-110800000D01*
X57238095Y-110761904D01*
X57314285Y-110761904D01*
X57428571Y-110800000D01*
X57466666Y-110838095D01*
X57771428Y-110838095D02*
X57809523Y-110800000D01*
X57885714Y-110761904D01*
X58076190Y-110761904D01*
X58152380Y-110800000D01*
X58190476Y-110838095D01*
X58228571Y-110914285D01*
X58228571Y-110990476D01*
X58190476Y-111104761D01*
X57733333Y-111561904D01*
X58228571Y-111561904D01*
%TO.C,U6*%
X36238095Y-136052380D02*
X36238095Y-136861904D01*
X36285714Y-136957142D01*
X36333333Y-137004761D01*
X36428571Y-137052380D01*
X36619047Y-137052380D01*
X36714285Y-137004761D01*
X36761904Y-136957142D01*
X36809523Y-136861904D01*
X36809523Y-136052380D01*
X37714285Y-136052380D02*
X37523809Y-136052380D01*
X37428571Y-136100000D01*
X37380952Y-136147619D01*
X37285714Y-136290476D01*
X37238095Y-136480952D01*
X37238095Y-136861904D01*
X37285714Y-136957142D01*
X37333333Y-137004761D01*
X37428571Y-137052380D01*
X37619047Y-137052380D01*
X37714285Y-137004761D01*
X37761904Y-136957142D01*
X37809523Y-136861904D01*
X37809523Y-136623809D01*
X37761904Y-136528571D01*
X37714285Y-136480952D01*
X37619047Y-136433333D01*
X37428571Y-136433333D01*
X37333333Y-136480952D01*
X37285714Y-136528571D01*
X37238095Y-136623809D01*
%TO.C,U3*%
X60488095Y-135852380D02*
X60488095Y-136661904D01*
X60535714Y-136757142D01*
X60583333Y-136804761D01*
X60678571Y-136852380D01*
X60869047Y-136852380D01*
X60964285Y-136804761D01*
X61011904Y-136757142D01*
X61059523Y-136661904D01*
X61059523Y-135852380D01*
X61440476Y-135852380D02*
X62059523Y-135852380D01*
X61726190Y-136233333D01*
X61869047Y-136233333D01*
X61964285Y-136280952D01*
X62011904Y-136328571D01*
X62059523Y-136423809D01*
X62059523Y-136661904D01*
X62011904Y-136757142D01*
X61964285Y-136804761D01*
X61869047Y-136852380D01*
X61583333Y-136852380D01*
X61488095Y-136804761D01*
X61440476Y-136757142D01*
%TO.C,D6*%
X58661904Y-124390476D02*
X57861904Y-124390476D01*
X57861904Y-124200000D01*
X57900000Y-124085714D01*
X57976190Y-124009523D01*
X58052380Y-123971428D01*
X58204761Y-123933333D01*
X58319047Y-123933333D01*
X58471428Y-123971428D01*
X58547619Y-124009523D01*
X58623809Y-124085714D01*
X58661904Y-124200000D01*
X58661904Y-124390476D01*
X57861904Y-123247619D02*
X57861904Y-123400000D01*
X57900000Y-123476190D01*
X57938095Y-123514285D01*
X58052380Y-123590476D01*
X58204761Y-123628571D01*
X58509523Y-123628571D01*
X58585714Y-123590476D01*
X58623809Y-123552380D01*
X58661904Y-123476190D01*
X58661904Y-123323809D01*
X58623809Y-123247619D01*
X58585714Y-123209523D01*
X58509523Y-123171428D01*
X58319047Y-123171428D01*
X58242857Y-123209523D01*
X58204761Y-123247619D01*
X58166666Y-123323809D01*
X58166666Y-123476190D01*
X58204761Y-123552380D01*
X58242857Y-123590476D01*
X58319047Y-123628571D01*
%TO.C,U1*%
X46738095Y-99752380D02*
X46738095Y-100561904D01*
X46785714Y-100657142D01*
X46833333Y-100704761D01*
X46928571Y-100752380D01*
X47119047Y-100752380D01*
X47214285Y-100704761D01*
X47261904Y-100657142D01*
X47309523Y-100561904D01*
X47309523Y-99752380D01*
X48309523Y-100752380D02*
X47738095Y-100752380D01*
X48023809Y-100752380D02*
X48023809Y-99752380D01*
X47928571Y-99895238D01*
X47833333Y-99990476D01*
X47738095Y-100038095D01*
%TO.C,U4*%
X38838095Y-120852380D02*
X38838095Y-121661904D01*
X38885714Y-121757142D01*
X38933333Y-121804761D01*
X39028571Y-121852380D01*
X39219047Y-121852380D01*
X39314285Y-121804761D01*
X39361904Y-121757142D01*
X39409523Y-121661904D01*
X39409523Y-120852380D01*
X40314285Y-121185714D02*
X40314285Y-121852380D01*
X40076190Y-120804761D02*
X39838095Y-121519047D01*
X40457142Y-121519047D01*
%TD*%
M02*
