%TF.GenerationSoftware,KiCad,Pcbnew,5.1.10*%
%TF.CreationDate,2021-06-15T07:02:33+02:00*%
%TF.ProjectId,nsumo,6e73756d-6f2e-46b6-9963-61645f706362,rev?*%
%TF.SameCoordinates,Original*%
%TF.FileFunction,Soldermask,Bot*%
%TF.FilePolarity,Negative*%
%FSLAX46Y46*%
G04 Gerber Fmt 4.6, Leading zero omitted, Abs format (unit mm)*
G04 Created by KiCad (PCBNEW 5.1.10) date 2021-06-15 07:02:33*
%MOMM*%
%LPD*%
G01*
G04 APERTURE LIST*
%ADD10C,1.448000*%
%ADD11O,0.900000X1.400000*%
%ADD12O,1.400000X0.900000*%
%ADD13C,2.200000*%
%ADD14C,0.800000*%
%ADD15C,4.500000*%
%ADD16O,1.850000X1.300000*%
%ADD17O,1.800000X1.800000*%
%ADD18C,1.900000*%
G04 APERTURE END LIST*
D10*
%TO.C,REF\u002A\u002A*%
X34500000Y-143500000D03*
%TD*%
%TO.C,J22*%
G36*
G01*
X54750000Y-140275000D02*
X54750000Y-139325000D01*
G75*
G02*
X54975000Y-139100000I225000J0D01*
G01*
X55425000Y-139100000D01*
G75*
G02*
X55650000Y-139325000I0J-225000D01*
G01*
X55650000Y-140275000D01*
G75*
G02*
X55425000Y-140500000I-225000J0D01*
G01*
X54975000Y-140500000D01*
G75*
G02*
X54750000Y-140275000I0J225000D01*
G01*
G37*
D11*
X56450000Y-139800000D03*
X57700000Y-139800000D03*
%TD*%
D12*
%TO.C,J21*%
X72800000Y-88300000D03*
X72800000Y-89550000D03*
G36*
G01*
X73275000Y-91250000D02*
X72325000Y-91250000D01*
G75*
G02*
X72100000Y-91025000I0J225000D01*
G01*
X72100000Y-90575000D01*
G75*
G02*
X72325000Y-90350000I225000J0D01*
G01*
X73275000Y-90350000D01*
G75*
G02*
X73500000Y-90575000I0J-225000D01*
G01*
X73500000Y-91025000D01*
G75*
G02*
X73275000Y-91250000I-225000J0D01*
G01*
G37*
%TD*%
D11*
%TO.C,J20*%
X50700000Y-139800000D03*
X49450000Y-139800000D03*
G36*
G01*
X47750000Y-140275000D02*
X47750000Y-139325000D01*
G75*
G02*
X47975000Y-139100000I225000J0D01*
G01*
X48425000Y-139100000D01*
G75*
G02*
X48650000Y-139325000I0J-225000D01*
G01*
X48650000Y-140275000D01*
G75*
G02*
X48425000Y-140500000I-225000J0D01*
G01*
X47975000Y-140500000D01*
G75*
G02*
X47750000Y-140275000I0J225000D01*
G01*
G37*
%TD*%
D12*
%TO.C,J19*%
X33200000Y-90700000D03*
X33200000Y-89450000D03*
G36*
G01*
X32725000Y-87750000D02*
X33675000Y-87750000D01*
G75*
G02*
X33900000Y-87975000I0J-225000D01*
G01*
X33900000Y-88425000D01*
G75*
G02*
X33675000Y-88650000I-225000J0D01*
G01*
X32725000Y-88650000D01*
G75*
G02*
X32500000Y-88425000I0J225000D01*
G01*
X32500000Y-87975000D01*
G75*
G02*
X32725000Y-87750000I225000J0D01*
G01*
G37*
%TD*%
D10*
%TO.C,REF\u002A\u002A*%
X71500000Y-81500000D03*
%TD*%
%TO.C,REF\u002A\u002A*%
X34500000Y-81500000D03*
%TD*%
D13*
%TO.C,J18*%
X32000000Y-135740000D03*
G36*
G01*
X30950000Y-132100000D02*
X33050000Y-132100000D01*
G75*
G02*
X33100000Y-132150000I0J-50000D01*
G01*
X33100000Y-134250000D01*
G75*
G02*
X33050000Y-134300000I-50000J0D01*
G01*
X30950000Y-134300000D01*
G75*
G02*
X30900000Y-134250000I0J50000D01*
G01*
X30900000Y-132150000D01*
G75*
G02*
X30950000Y-132100000I50000J0D01*
G01*
G37*
%TD*%
%TO.C,J17*%
X32000000Y-129040000D03*
G36*
G01*
X30950000Y-125400000D02*
X33050000Y-125400000D01*
G75*
G02*
X33100000Y-125450000I0J-50000D01*
G01*
X33100000Y-127550000D01*
G75*
G02*
X33050000Y-127600000I-50000J0D01*
G01*
X30950000Y-127600000D01*
G75*
G02*
X30900000Y-127550000I0J50000D01*
G01*
X30900000Y-125450000D01*
G75*
G02*
X30950000Y-125400000I50000J0D01*
G01*
G37*
%TD*%
%TO.C,J15*%
X73950000Y-133223000D03*
G36*
G01*
X75000000Y-136863000D02*
X72900000Y-136863000D01*
G75*
G02*
X72850000Y-136813000I0J50000D01*
G01*
X72850000Y-134713000D01*
G75*
G02*
X72900000Y-134663000I50000J0D01*
G01*
X75000000Y-134663000D01*
G75*
G02*
X75050000Y-134713000I0J-50000D01*
G01*
X75050000Y-136813000D01*
G75*
G02*
X75000000Y-136863000I-50000J0D01*
G01*
G37*
%TD*%
%TO.C,J14*%
X73950000Y-126500000D03*
G36*
G01*
X75000000Y-130140000D02*
X72900000Y-130140000D01*
G75*
G02*
X72850000Y-130090000I0J50000D01*
G01*
X72850000Y-127990000D01*
G75*
G02*
X72900000Y-127940000I50000J0D01*
G01*
X75000000Y-127940000D01*
G75*
G02*
X75050000Y-127990000I0J-50000D01*
G01*
X75050000Y-130090000D01*
G75*
G02*
X75000000Y-130140000I-50000J0D01*
G01*
G37*
%TD*%
D12*
%TO.C,J1*%
X33200000Y-99900000D03*
X33200000Y-98650000D03*
X33200000Y-97400000D03*
X33200000Y-96150000D03*
G36*
G01*
X32725000Y-94450000D02*
X33675000Y-94450000D01*
G75*
G02*
X33900000Y-94675000I0J-225000D01*
G01*
X33900000Y-95125000D01*
G75*
G02*
X33675000Y-95350000I-225000J0D01*
G01*
X32725000Y-95350000D01*
G75*
G02*
X32500000Y-95125000I0J225000D01*
G01*
X32500000Y-94675000D01*
G75*
G02*
X32725000Y-94450000I225000J0D01*
G01*
G37*
%TD*%
D11*
%TO.C,J4*%
X39950000Y-85200000D03*
X41200000Y-85200000D03*
X42450000Y-85200000D03*
X43700000Y-85200000D03*
G36*
G01*
X45400000Y-84725000D02*
X45400000Y-85675000D01*
G75*
G02*
X45175000Y-85900000I-225000J0D01*
G01*
X44725000Y-85900000D01*
G75*
G02*
X44500000Y-85675000I0J225000D01*
G01*
X44500000Y-84725000D01*
G75*
G02*
X44725000Y-84500000I225000J0D01*
G01*
X45175000Y-84500000D01*
G75*
G02*
X45400000Y-84725000I0J-225000D01*
G01*
G37*
%TD*%
%TO.C,J2*%
X49850000Y-85200000D03*
X51100000Y-85200000D03*
X52350000Y-85200000D03*
X53600000Y-85200000D03*
X54850000Y-85200000D03*
G36*
G01*
X56550000Y-84725000D02*
X56550000Y-85675000D01*
G75*
G02*
X56325000Y-85900000I-225000J0D01*
G01*
X55875000Y-85900000D01*
G75*
G02*
X55650000Y-85675000I0J225000D01*
G01*
X55650000Y-84725000D01*
G75*
G02*
X55875000Y-84500000I225000J0D01*
G01*
X56325000Y-84500000D01*
G75*
G02*
X56550000Y-84725000I0J-225000D01*
G01*
G37*
%TD*%
D14*
%TO.C,H4*%
X32166726Y-81833274D03*
X31000000Y-81350000D03*
X29833274Y-81833274D03*
X29350000Y-83000000D03*
X29833274Y-84166726D03*
X31000000Y-84650000D03*
X32166726Y-84166726D03*
X32650000Y-83000000D03*
D15*
X31000000Y-83000000D03*
%TD*%
D14*
%TO.C,H3*%
X76166726Y-81833274D03*
X75000000Y-81350000D03*
X73833274Y-81833274D03*
X73350000Y-83000000D03*
X73833274Y-84166726D03*
X75000000Y-84650000D03*
X76166726Y-84166726D03*
X76650000Y-83000000D03*
D15*
X75000000Y-83000000D03*
%TD*%
D14*
%TO.C,H2*%
X32166726Y-140833274D03*
X31000000Y-140350000D03*
X29833274Y-140833274D03*
X29350000Y-142000000D03*
X29833274Y-143166726D03*
X31000000Y-143650000D03*
X32166726Y-143166726D03*
X32650000Y-142000000D03*
D15*
X31000000Y-142000000D03*
%TD*%
D14*
%TO.C,H1*%
X76166726Y-140833274D03*
X75000000Y-140350000D03*
X73833274Y-140833274D03*
X73350000Y-142000000D03*
X73833274Y-143166726D03*
X75000000Y-143650000D03*
X76166726Y-143166726D03*
X76650000Y-142000000D03*
D15*
X75000000Y-142000000D03*
%TD*%
D16*
%TO.C,J5*%
X71000000Y-105300000D03*
G36*
G01*
X71654168Y-107950000D02*
X70345832Y-107950000D01*
G75*
G02*
X70075000Y-107679168I0J270832D01*
G01*
X70075000Y-106920832D01*
G75*
G02*
X70345832Y-106650000I270832J0D01*
G01*
X71654168Y-106650000D01*
G75*
G02*
X71925000Y-106920832I0J-270832D01*
G01*
X71925000Y-107679168D01*
G75*
G02*
X71654168Y-107950000I-270832J0D01*
G01*
G37*
%TD*%
%TO.C,J3*%
X71000000Y-112600000D03*
G36*
G01*
X71654168Y-115250000D02*
X70345832Y-115250000D01*
G75*
G02*
X70075000Y-114979168I0J270832D01*
G01*
X70075000Y-114220832D01*
G75*
G02*
X70345832Y-113950000I270832J0D01*
G01*
X71654168Y-113950000D01*
G75*
G02*
X71925000Y-114220832I0J-270832D01*
G01*
X71925000Y-114979168D01*
G75*
G02*
X71654168Y-115250000I-270832J0D01*
G01*
G37*
%TD*%
D12*
%TO.C,J9*%
X72800000Y-95200000D03*
X72800000Y-96450000D03*
X72800000Y-97700000D03*
X72800000Y-98950000D03*
G36*
G01*
X73275000Y-100650000D02*
X72325000Y-100650000D01*
G75*
G02*
X72100000Y-100425000I0J225000D01*
G01*
X72100000Y-99975000D01*
G75*
G02*
X72325000Y-99750000I225000J0D01*
G01*
X73275000Y-99750000D01*
G75*
G02*
X73500000Y-99975000I0J-225000D01*
G01*
X73500000Y-100425000D01*
G75*
G02*
X73275000Y-100650000I-225000J0D01*
G01*
G37*
%TD*%
D11*
%TO.C,J7*%
X61000000Y-85200000D03*
X62250000Y-85200000D03*
X63500000Y-85200000D03*
X64750000Y-85200000D03*
G36*
G01*
X66450000Y-84725000D02*
X66450000Y-85675000D01*
G75*
G02*
X66225000Y-85900000I-225000J0D01*
G01*
X65775000Y-85900000D01*
G75*
G02*
X65550000Y-85675000I0J225000D01*
G01*
X65550000Y-84725000D01*
G75*
G02*
X65775000Y-84500000I225000J0D01*
G01*
X66225000Y-84500000D01*
G75*
G02*
X66450000Y-84725000I0J-225000D01*
G01*
G37*
%TD*%
D17*
%TO.C,J6*%
X32940000Y-103800000D03*
G36*
G01*
X31250000Y-104700000D02*
X29550000Y-104700000D01*
G75*
G02*
X29500000Y-104650000I0J50000D01*
G01*
X29500000Y-102950000D01*
G75*
G02*
X29550000Y-102900000I50000J0D01*
G01*
X31250000Y-102900000D01*
G75*
G02*
X31300000Y-102950000I0J-50000D01*
G01*
X31300000Y-104650000D01*
G75*
G02*
X31250000Y-104700000I-50000J0D01*
G01*
G37*
%TD*%
%TO.C,J12*%
X54140000Y-122400000D03*
G36*
G01*
X52450000Y-123300000D02*
X50750000Y-123300000D01*
G75*
G02*
X50700000Y-123250000I0J50000D01*
G01*
X50700000Y-121550000D01*
G75*
G02*
X50750000Y-121500000I50000J0D01*
G01*
X52450000Y-121500000D01*
G75*
G02*
X52500000Y-121550000I0J-50000D01*
G01*
X52500000Y-123250000D01*
G75*
G02*
X52450000Y-123300000I-50000J0D01*
G01*
G37*
%TD*%
%TO.C,J11*%
X46600000Y-114600000D03*
X46600000Y-117140000D03*
G36*
G01*
X47500000Y-118830000D02*
X47500000Y-120530000D01*
G75*
G02*
X47450000Y-120580000I-50000J0D01*
G01*
X45750000Y-120580000D01*
G75*
G02*
X45700000Y-120530000I0J50000D01*
G01*
X45700000Y-118830000D01*
G75*
G02*
X45750000Y-118780000I50000J0D01*
G01*
X47450000Y-118780000D01*
G75*
G02*
X47500000Y-118830000I0J-50000D01*
G01*
G37*
%TD*%
%TO.C,J8*%
X32600000Y-115340000D03*
G36*
G01*
X31700000Y-113650000D02*
X31700000Y-111950000D01*
G75*
G02*
X31750000Y-111900000I50000J0D01*
G01*
X33450000Y-111900000D01*
G75*
G02*
X33500000Y-111950000I0J-50000D01*
G01*
X33500000Y-113650000D01*
G75*
G02*
X33450000Y-113700000I-50000J0D01*
G01*
X31750000Y-113700000D01*
G75*
G02*
X31700000Y-113650000I0J50000D01*
G01*
G37*
%TD*%
%TO.C,J10*%
X41800000Y-105260000D03*
G36*
G01*
X42700000Y-106950000D02*
X42700000Y-108650000D01*
G75*
G02*
X42650000Y-108700000I-50000J0D01*
G01*
X40950000Y-108700000D01*
G75*
G02*
X40900000Y-108650000I0J50000D01*
G01*
X40900000Y-106950000D01*
G75*
G02*
X40950000Y-106900000I50000J0D01*
G01*
X42650000Y-106900000D01*
G75*
G02*
X42700000Y-106950000I0J-50000D01*
G01*
G37*
%TD*%
%TO.C,SW2*%
X75300000Y-121940000D03*
G36*
G01*
X74400000Y-120250000D02*
X74400000Y-118550000D01*
G75*
G02*
X74450000Y-118500000I50000J0D01*
G01*
X76150000Y-118500000D01*
G75*
G02*
X76200000Y-118550000I0J-50000D01*
G01*
X76200000Y-120250000D01*
G75*
G02*
X76150000Y-120300000I-50000J0D01*
G01*
X74450000Y-120300000D01*
G75*
G02*
X74400000Y-120250000I0J50000D01*
G01*
G37*
%TD*%
%TO.C,TP2*%
G36*
G01*
X66675000Y-102575000D02*
X66675000Y-103425000D01*
G75*
G02*
X66625000Y-103475000I-50000J0D01*
G01*
X65775000Y-103475000D01*
G75*
G02*
X65725000Y-103425000I0J50000D01*
G01*
X65725000Y-102575000D01*
G75*
G02*
X65775000Y-102525000I50000J0D01*
G01*
X66625000Y-102525000D01*
G75*
G02*
X66675000Y-102575000I0J-50000D01*
G01*
G37*
%TD*%
%TO.C,TP1*%
G36*
G01*
X62225000Y-103475000D02*
X61375000Y-103475000D01*
G75*
G02*
X61325000Y-103425000I0J50000D01*
G01*
X61325000Y-102575000D01*
G75*
G02*
X61375000Y-102525000I50000J0D01*
G01*
X62225000Y-102525000D01*
G75*
G02*
X62275000Y-102575000I0J-50000D01*
G01*
X62275000Y-103425000D01*
G75*
G02*
X62225000Y-103475000I-50000J0D01*
G01*
G37*
%TD*%
D18*
%TO.C,U1*%
X44920000Y-102700000D03*
X47460000Y-102700000D03*
G36*
G01*
X50950000Y-102014100D02*
X50950000Y-103385900D01*
G75*
G02*
X50685900Y-103650000I-264100J0D01*
G01*
X49314100Y-103650000D01*
G75*
G02*
X49050000Y-103385900I0J264100D01*
G01*
X49050000Y-102014100D01*
G75*
G02*
X49314100Y-101750000I264100J0D01*
G01*
X50685900Y-101750000D01*
G75*
G02*
X50950000Y-102014100I0J-264100D01*
G01*
G37*
%TD*%
M02*
